<?xml version="1.0" encoding="iso-8859-1"?>
<!-- Generator: Adobe Illustrator 16.0.0, SVG Export Plug-In . SVG Version: 6.00 Build 0)  -->
<!DOCTYPE svg PUBLIC "-//W3C//DTD SVG 1.1//EN" "http://www.w3.org/Graphics/SVG/1.1/DTD/svg11.dtd">
<svg version="1.1" id="Capa_1" xmlns="http://www.w3.org/2000/svg" xmlns:xlink="http://www.w3.org/1999/xlink" x="0px" y="0px"
	 width="47.027px" height="47.027px" viewBox="0 0 47.027 47.027" style="enable-background:new 0 0 47.027 47.027;"
	 xml:space="preserve">
<g>
	<g>
		<path d="M7.567,17.285c-0.73,0-1.424,0.152-2.397,0.421L2.386,18.52C0.959,18.939,0,20.197,0,21.646
			c0,1.724,1.47,3.181,3.21,3.181c0.35,0,0.721-0.066,0.95-0.119v11.896c0,1.909,1.554,3.463,3.463,3.463
			c1.909,0,3.462-1.554,3.462-3.463V20.75C11.084,18.838,9.532,17.285,7.567,17.285z"/>
		<path d="M26.576,28.202h-2.973l0.129-0.1c3.537-2.738,5.686-4.69,5.686-8.725c0-4.426-3.256-7.399-8.1-7.399
			c-3.124,0-5.411,1.035-7.424,3.368c-0.52,0.617-0.817,1.422-0.817,2.205c0,1.815,1.479,3.292,3.294,3.292
			c0.942,0,1.833-0.382,2.437-1.041c1.009-1.09,1.543-1.29,2.23-1.29c1.18,0,1.316,0.704,1.316,1.232
			c0,0.928-0.404,1.646-2.916,3.695l-5.586,4.578c-1.059,0.854-1.619,1.959-1.619,3.194c0,1.988,1.506,3.38,3.66,3.38h10.684
			c1.769,0,3.207-1.431,3.207-3.185C29.784,29.643,28.344,28.202,26.576,28.202z"/>
		<path d="M42.999,15.659l2.187-2.09c0.896-0.86,1.701-1.768,1.701-3.373c0-1.876-1.479-3.236-3.521-3.236H33.78
			c-1.754,0-3.183,1.428-3.183,3.183c0,1.752,1.429,3.18,3.183,3.18h2.858l-1.576,1.588c-0.612,0.613-1.315,1.475-1.315,2.708
			c0,1.753,1.429,3.18,3.183,3.18h0.676c0.76,0,2.523,0.115,2.523,1.235c0,0.958-1.019,1.063-1.457,1.063
			c-1.152,0-2.048-0.344-3-1.152c-0.681-0.565-1.406-0.842-2.229-0.842c-1.846,0-3.404,1.557-3.404,3.402
			c0,0.945,0.457,1.925,1.189,2.555c1.981,1.705,4.469,2.568,7.389,2.568c4.951,0,8.41-3.193,8.41-7.82
			C47.027,18.891,45.617,16.768,42.999,15.659z"/>
	</g>
</g>
<g>
</g>
<g>
</g>
<g>
</g>
<g>
</g>
<g>
</g>
<g>
</g>
<g>
</g>
<g>
</g>
<g>
</g>
<g>
</g>
<g>
</g>
<g>
</g>
<g>
</g>
<g>
</g>
<g>
</g>
</svg>
