<svg enable-background="new 0 0 64 64" height="512" viewBox="0 0 64 64" width="512" xmlns="http://www.w3.org/2000/svg"><g id="Icons"><g><g><path d="m46 4h-4c-5.523 0-10 4.477-10 10v2h6c5.523 0 10-4.477 10-10 0-1.105-.895-2-2-2z" fill="#00a0c8"/></g><g><path d="m32 14v2h3v-2c0-1.931-.551-3.735-1.502-5.265-.949 1.529-1.498 3.333-1.498 5.265z" fill="#0082aa"/></g><g><path d="m32 24c-1.104 0-2-.896-2-2v-8c0-3.309-2.691-6-6-6-1.104 0-2-.896-2-2s.896-2 2-2c5.514 0 10 4.486 10 10v8c0 1.104-.896 2-2 2z" fill="#0a5078"/></g><g><path d="m32 19.202c-.612-.624-1.281-1.191-2-1.692v4.49c0 1.104.896 2 2 2s2-.896 2-2v-4.49c-.719.501-1.388 1.068-2 1.692z" fill="#00325a"/></g><g><path d="m55.377 34.144c.579-1.873.777-3.914.5-6.032-.814-6.227-5.864-11.233-12.097-12.001-4.616-.569-8.859 1.112-11.78 4.092-2.921-2.981-7.164-4.661-11.78-4.092-6.233.768-11.282 5.775-12.097 12.001-.277 2.118-.08 4.159.5 6.032l.005.016c.001.002.001.004.002.006l5.815 18.794c1.262 4.078 5.063 7.04 9.555 7.04 1.918 0 3.71-.54 5.232-1.477 1.715-1.055 3.82-1.055 5.536 0 1.522.937 3.314 1.477 5.232 1.477 4.492 0 8.293-2.962 9.555-7.04l5.815-18.794c.001-.002.001-.004.002-.006z" fill="#c80a50"/></g><g><circle cx="18" cy="26" fill="#f0f0f0" r="2"/></g></g></g></svg>