<svg id="Capa_1" enable-background="new 0 0 497 497" height="512" viewBox="0 0 497 497" width="512" xmlns="http://www.w3.org/2000/svg"><g><g><path d="m397.246 66.267c60.099 45.114 99.281 116.759 99.75 197.322.518 89.088-45.848 167.381-115.866 211.657-5.333 3.373-11.505 5.188-17.815 5.188h-229.629c-6.27 0-12.415-1.776-17.716-5.124-69.686-44.021-115.97-121.725-115.97-210.243 0-81.291 39.035-153.462 99.381-198.8v-8.267h298.219z" fill="#d0eafd"/><path d="m397.246 66.267.354-8.267h-23l-.354 8.267c60.099 45.115 99.281 116.759 99.75 197.322.518 89.089-45.848 167.382-115.866 211.657-5.334 3.373-11.505 5.188-17.815 5.188h23c6.311 0 12.482-1.815 17.815-5.188 70.018-44.276 116.384-122.569 115.866-211.657-.469-80.564-39.651-152.208-99.75-197.322z" fill="#b5defd"/><path d="m425.178 149.1h-353.575c-2.891 0-5.572 1.508-7.082 3.974-2.832 4.628-5.49 9.358-7.954 14.182-15.55 30.441-23.434 63.349-23.434 97.81 0 38.52 10.282 76.304 29.733 109.266 17.04 28.875 40.671 53.466 68.754 71.655 1.335.864 2.897 1.313 4.488 1.313h224.785c1.59 0 3.153-.448 4.488-1.313 28.255-18.299 51.991-43.068 69.056-72.169 19.477-33.215 29.652-71.264 29.427-110.037-.199-34.112-8.212-66.727-23.819-96.941-2.421-4.687-5.026-9.284-7.797-13.786-1.511-2.455-4.187-3.954-7.07-3.954z" fill="#9cd2fc"/><path d="m440.044 166.84c-2.421-4.687-5.026-9.285-7.797-13.786-1.511-2.455-4.186-3.954-7.069-3.954h-23c2.883 0 5.558 1.499 7.069 3.954 2.77 4.502 5.376 9.1 7.797 13.786 15.606 30.214 23.62 62.829 23.819 96.941.225 38.772-9.95 76.822-29.427 110.037-17.065 29.102-40.8 53.87-69.056 72.169-1.335.865-2.898 1.313-4.488 1.313h23c1.59 0 3.153-.448 4.488-1.313 28.255-18.299 51.991-43.068 69.056-72.169 19.477-33.215 29.652-71.264 29.427-110.037-.199-34.112-8.212-66.727-23.819-96.941z" fill="#8cb7e8"/><g fill="#d0eafd"><circle cx="347.9" cy="198.8" r="16.567"/><circle cx="397.6" cy="248.5" r="16.567"/><ellipse cx="347.9" cy="281.633" rx="16.567" ry="16.567" transform="matrix(.924 -.383 .383 .924 -81.294 154.574)"/></g><path d="m414.167 66.267h-331.334c-9.149 0-16.567-7.417-16.567-16.567v-16.567c0-9.15 7.417-16.567 16.567-16.567h331.333c9.15 0 16.567 7.417 16.567 16.567v16.567c0 9.149-7.417 16.567-16.566 16.567z" fill="#d0eafd"/><path d="m414.167 16.567h-23c9.15 0 16.567 7.417 16.567 16.567v16.566c0 9.15-7.417 16.567-16.567 16.567h23c9.15 0 16.567-7.417 16.567-16.567v-16.567c-.001-9.149-7.418-16.566-16.567-16.566z" fill="#b5defd"/><path d="m165.667 384.033v-36.133c0-9.15 7.417-16.567 16.567-16.567s16.567 7.417 16.567 16.567v36.133z" fill="#b1e39d"/><path d="m231.933 385.033v-70.267c0-9.15 7.417-16.567 16.567-16.567s16.567 7.417 16.567 16.567v70.267z" fill="#b1e39d"/><path d="m293.756 397.6c-5.73-9.901-16.428-16.567-28.69-16.567h-99.4c-12.262 0-22.96 6.666-28.69 16.567h-.004-58.21c14.793 18.909 32.665 35.31 52.856 48.387 1.335.865 2.898 1.313 4.488 1.313h224.786c1.59 0 3.153-.448 4.488-1.313 20.196-13.079 38.065-29.478 52.857-48.387z" fill="#f8f6f6"/><g fill="#f6e0b9"><path d="m275.042 397.6h18.715c-5.73-9.901-16.428-16.567-28.69-16.567h-23c10.854 0 20.482 5.223 26.524 13.289 1.529 2.042 3.9 3.278 6.451 3.278z"/><path d="m395.237 397.6c-14.792 18.909-32.661 35.308-52.857 48.387-1.335.865-2.898 1.313-4.488 1.313h23c1.59 0 3.153-.448 4.488-1.313 20.196-13.079 38.065-29.478 52.857-48.387z"/></g></g><g><path d="m364.467 405.1c-4.143 0-7.5-3.358-7.5-7.5v-49.7c0-4.142 3.357-7.5 7.5-7.5s7.5 3.358 7.5 7.5v49.7c0 4.142-3.358 7.5-7.5 7.5z" fill="#94d4a2"/></g><g><path d="m364.467 405.1c-1.919 0-3.839-.732-5.304-2.197l-33.134-33.133c-2.929-2.929-2.929-7.678 0-10.606 2.93-2.929 7.678-2.929 10.607 0l27.83 27.83 28.606-28.607c2.93-2.929 7.678-2.929 10.607 0s2.929 7.678 0 10.607l-33.91 33.91c-1.463 1.464-3.383 2.196-5.302 2.196z" fill="#b1e39d"/></g><path d="m186.669 182.233c-27.975 0-52.004 20.449-62.534 49.7 10.53 29.251 34.559 49.7 62.534 49.7 26.964 0 50.262-18.998 61.34-46.564.809-2.012.809-4.261 0-6.272-11.078-27.566-34.376-46.564-61.34-46.564z" fill="#f1d041"/><path d="m82.718 264.018c0 5.446 5.158 9.375 10.43 8.008 17.825-4.624 30.987-20.821 30.987-40.092s-13.162-35.469-30.987-40.092c-5.272-1.368-10.43 2.561-10.43 8.007z" fill="#e6ded9"/><path d="m205.844 185.556c-5.312-1.886-10.892-3.013-16.656-3.267-9.713 14.773-14.836 31.845-14.836 49.645 0 17.826 5.136 34.921 14.831 49.645 5.761-.253 11.338-1.379 16.648-3.263l-1.673-2.367c-9.339-12.873-14.275-28.093-14.275-44.014s4.937-31.14 14.312-44.066z" fill="#e7a227"/><path d="m91.001 224.168h-8.283v15.531h8.283c4.289 0 7.766-3.476 7.766-7.766 0-4.289-3.477-7.765-7.766-7.765z" fill="#c3c3c7"/></g></svg>