<?xml version="1.0" encoding="iso-8859-1"?>
<!-- Generator: Adobe Illustrator 19.0.0, SVG Export Plug-In . SVG Version: 6.00 Build 0)  -->
<svg version="1.1" id="Capa_1" xmlns="http://www.w3.org/2000/svg" xmlns:xlink="http://www.w3.org/1999/xlink" x="0px" y="0px"
	 viewBox="0 0 512 512" style="enable-background:new 0 0 512 512;" xml:space="preserve">
<path style="fill:#BF7341;" d="M379.524,459.034H97.165c-25.591-0.018-47.51-18.317-52.083-43.494L17.655,264.828h441.379
	l-27.366,150.713C427.087,440.735,405.133,459.052,379.524,459.034z"/>
<path style="fill:#B56D3E;" d="M109.568,459.034h269.956c25.591-0.018,47.51-18.317,52.083-43.494l27.427-150.713h-58.121
	C323.972,375.87,189.625,433.276,109.568,459.034z"/>
<path style="fill:#C96E23;" d="M194.207,229.517H88.276V52.966C88.276,23.711,111.987,0,141.241,0l0,0
	c29.255,0,52.966,23.711,52.966,52.966V229.517z"/>
<rect x="117.376" y="114.759" transform="matrix(-0.7809 0.6246 -0.6246 -0.7809 336.5623 129.1306)" style="fill:#B5611D;" width="56.521" height="17.655"/>
<path style="fill:#C96E23;" d="M432.552,229.517H326.621v-17.655c0-29.255,23.711-52.966,52.966-52.966l0,0
	c29.255,0,52.966,23.711,52.966,52.966V229.517z"/>
<g>
	<rect x="353.103" y="185.379" style="fill:#B5611D;" width="17.655" height="17.655"/>
	<rect x="397.241" y="194.207" style="fill:#B5611D;" width="17.655" height="17.655"/>
</g>
<path style="fill:#D68033;" d="M364.738,229.517H249.98L342.51,29.131C350.676,11.388,368.41,0.018,387.937,0h3.372
	c11.37,0,22.404,3.866,31.276,10.973l0,0c17.894,14.31,23.782,38.947,14.301,59.807L364.738,229.517z"/>
<g>
	
		<rect x="345.878" y="61.8" transform="matrix(-0.9615 0.2749 -0.2749 -0.9615 760.8753 34.6216)" style="fill:#C96E23;" width="64.266" height="17.656"/>
	<polygon style="fill:#C96E23;" points="339.677,146.308 334.345,129.474 379.727,115.165 385.059,132.008 	"/>
	
		<rect x="289.937" y="185.377" transform="matrix(-0.9534 0.3017 -0.3017 -0.9534 682.0928 283.0615)" style="fill:#C96E23;" width="58.5" height="17.655"/>
</g>
<path style="fill:#BF7341;" d="M17.655,229.517h441.379c9.754,0,17.655,7.901,17.655,17.655l0,0c0,9.754-7.901,17.655-17.655,17.655
	H17.655C7.901,264.828,0,256.927,0,247.172l0,0C0,237.418,7.901,229.517,17.655,229.517z"/>
<path style="fill:#965735;" d="M414.897,229.517v-17.655c0-97.51-79.042-176.552-176.552-176.552l0,0
	c-97.51,0-176.552,79.042-176.552,176.552v17.655h-35.31v-17.655C26.483,94.852,121.335,0,238.345,0l0,0
	c117.01,0,211.862,94.852,211.862,211.862v17.655H414.897z"/>
<path style="fill:#F09E3E;" d="M326.621,229.517c-2.436-88.505-40.969-158.897-88.276-158.897s-85.839,70.391-88.276,158.897
	H326.621z"/>
<path style="fill:#D68033;" d="M240.154,178.891l-45.948,15.316l0,0c0.009-21.098,13.524-39.821,33.545-46.477l45.903-15.316l0,0
	C273.655,153.503,260.158,172.226,240.154,178.891z"/>
<path style="fill:#EB9634;" d="M318.579,167.936c-24.452,26.342-54.113,47.316-87.102,61.581h95.144
	C326.118,208.764,323.425,188.125,318.579,167.936z"/>
<g>
	<rect x="344.276" y="300.138" style="fill:#965735;" width="52.966" height="17.655"/>
	<rect x="256" y="300.138" style="fill:#965735;" width="52.966" height="17.655"/>
	<rect x="167.724" y="300.138" style="fill:#965735;" width="52.966" height="17.655"/>
	<rect x="79.448" y="300.138" style="fill:#965735;" width="52.966" height="17.655"/>
	<rect x="79.448" y="353.103" style="fill:#965735;" width="52.966" height="17.655"/>
	<rect x="79.448" y="406.069" style="fill:#965735;" width="52.966" height="17.655"/>
</g>
<path style="fill:#D68033;" d="M150.069,229.517H44.138v-17.655c0-29.255,23.711-52.966,52.966-52.966l0,0
	c29.255,0,52.966,23.711,52.966,52.966V229.517z"/>
<path style="fill:#D97A27;" d="M150.069,211.862c0.009-15.634-6.903-30.464-18.882-40.51c-11.935,25.044-31.762,45.48-56.444,58.165
	h75.326V211.862z"/>
<g>
	<rect x="70.621" y="185.379" style="fill:#C96E23;" width="17.655" height="17.655"/>
	<rect x="105.931" y="194.207" style="fill:#C96E23;" width="17.655" height="17.655"/>
</g>
<path style="fill:#965735;" d="M450.207,273.655H44.138c-4.873,0-8.828-3.955-8.828-8.828S39.265,256,44.138,256h406.069
	c4.873,0,8.828,3.955,8.828,8.828S455.08,273.655,450.207,273.655z"/>
<path style="fill:#F09E3E;" d="M512,379.586L512,379.586c0,14.627-11.855,26.483-26.483,26.483l0,0v88.276
	c0,9.754-7.901,17.655-17.655,17.655H203.034c-9.754,0-17.655-7.901-17.655-17.655v-88.276l0,0
	c-14.627,0-26.483-11.855-26.483-26.483l0,0c0-14.627,11.855-26.483,26.483-26.483h300.138C500.145,353.103,512,364.959,512,379.586
	z"/>
<path style="fill:#F09235;" d="M453.526,406.069c-0.15,0.168-0.327,0.309-0.477,0.477c-24.311,51.2-67.972,84.93-105.11,105.454
	h119.923c9.754,0,17.655-7.901,17.655-17.655v-88.276H453.526z"/>
<path style="fill:#F0DBC2;" d="M353.103,379.586L353.103,379.586c0,14.627-11.855,26.483-26.483,26.483l0,0v88.276
	c0,9.754-7.901,17.655-17.655,17.655H203.034c-9.754,0-17.655-7.901-17.655-17.655v-88.276l0,0
	c-14.627,0-26.483-11.855-26.483-26.483l0,0c0-14.627,11.855-26.483,26.483-26.483h141.241
	C341.248,353.103,353.103,364.959,353.103,379.586z"/>
<g>
	<rect x="432.552" y="379.586" style="fill:#D68033;" width="17.655" height="17.655"/>
	<rect x="388.414" y="406.069" style="fill:#D68033;" width="17.655" height="17.655"/>
	<rect x="441.379" y="450.207" style="fill:#D68033;" width="17.655" height="17.655"/>
	<rect x="353.103" y="467.862" style="fill:#D68033;" width="17.655" height="17.655"/>
</g>
<g>
</g>
<g>
</g>
<g>
</g>
<g>
</g>
<g>
</g>
<g>
</g>
<g>
</g>
<g>
</g>
<g>
</g>
<g>
</g>
<g>
</g>
<g>
</g>
<g>
</g>
<g>
</g>
<g>
</g>
</svg>
