<svg id="Capa_1" enable-background="new 0 0 512 512" height="512" viewBox="0 0 512 512" width="512" xmlns="http://www.w3.org/2000/svg"><g><path d="m256 7.5c-108.248 0-196 87.752-196 196v37.5h30v-37.5c0-91.679 74.321-166 166-166s166 74.321 166 166h15c0-108.248-81.037-196-181-196z" fill="#ff9a42"/><path d="m256 7.5c91.679 0 166 87.752 166 196v37.5h30v-37.5c0-108.248-87.752-196-196-196z" fill="#ff7a3c"/><path d="m363.804 297.304v207.196h30c29.272 0 54.272-21.123 59.158-49.984l26.617-157.212z" fill="#ff7a3c"/><path d="m422.963 454.516 26.617-157.212-417.158.001 26.617 157.211c4.886 28.862 29.886 49.984 59.158 49.984h245.609c29.271 0 54.27-21.123 59.157-49.984z" fill="#ff9a42"/><path d="m444.5 256-188.5-10 218.5 81.303c7.535 2.125 16.598 3.697 30 3.697v-15c0-33.137-26.863-60-60-60z" fill="#db2116"/><path d="m414.5 256-158.5-15-188.5 15c-33.137 0-60 26.863-60 60v15c41.419 0 41.419-15 82.838-15s41.419 15 82.838 15c41.417 0 41.417-15 82.834-15 41.416 0 41.416 15 82.832 15 41.414 0 41.414-15 82.828-15 28.013 0 37.081 6.862 52.831 11.303v-11.303c-.001-33.137-26.864-60-60.001-60z" fill="#ff3a2f"/><path d="m489.5 226h-30v30h30c8.284 0 15-6.716 15-15s-6.716-15-15-15z" fill="#ff9a42"/><path d="m75 226h-52.5c-8.284 0-15 6.716-15 15s6.716 15 15 15h82.5z" fill="#ffd185"/><path d="m158 226h-83c0 16.569 13.431 30 30 30h83z" fill="#ffba48"/><path d="m241 226h-83c0 16.569 13.431 30 30 30h83z" fill="#ff9a42"/><path d="m324 226h-83c0 16.569 13.431 30 30 30h83z" fill="#ffba48"/><path d="m407 226h-83c0 16.569 13.431 30 30 30h83z" fill="#ff9a42"/><path d="m459.5 226h-52.5c0 16.569 13.431 30 30 30h22.5c8.284 0 15-6.716 15-15s-6.716-15-15-15z" fill="#ffba48"/><circle cx="90.338" cy="444.5" r="7.5"/><circle cx="421.669" cy="361" r="7.5"/><circle cx="120.338" cy="474.5" r="7.5"/><path d="m486.861 263.5h2.639c12.406 0 22.5-10.093 22.5-22.5s-10.094-22.5-22.5-22.5h-30v-15c0-112.21-91.29-203.5-203.5-203.5s-203.5 91.29-203.5 203.5v15h-30c-12.406 0-22.5 10.093-22.5 22.5s10.094 22.5 22.5 22.5h2.639c-15.319 12.384-25.139 31.313-25.139 52.5v15c0 4.142 3.357 7.5 7.5 7.5 9.839 0 17.505-.807 23.942-2.048l20.2 119.316c5.517 32.583 33.506 56.232 66.553 56.232h275.609c33.047 0 61.036-23.649 66.553-56.232l20.2-119.316c6.438 1.241 14.104 2.048 23.942 2.048 4.143 0 7.5-3.358 7.5-7.5v-15c.001-21.187-9.819-40.116-25.138-52.5zm10.139-22.5c0 4.136-3.364 7.5-7.5 7.5h-52.5c-9.777 0-18.114-6.271-21.21-15h73.71c4.136 0 7.5 3.364 7.5 7.5zm-413.21-7.5h67.465c1.129 5.539 3.483 10.637 6.766 15h-53.021c-9.777 0-18.114-6.271-21.21-15zm83 0h67.465c1.129 5.539 3.483 10.637 6.766 15h-53.021c-9.777 0-18.114-6.271-21.21-15zm83 0h67.465c1.129 5.539 3.483 10.637 6.766 15h-53.021c-9.777 0-18.114-6.271-21.21-15zm83 0h67.465c1.129 5.539 3.483 10.637 6.766 15h-53.021c-9.777 0-18.114-6.271-21.21-15zm-265.29-30c0-103.939 84.561-188.5 188.5-188.5s188.5 84.561 188.5 188.5v15h-15v-15c0-95.668-77.832-173.5-173.5-173.5-40.548 0-80.002 14.291-111.096 40.239-3.18 2.654-3.606 7.384-.952 10.564 2.653 3.179 7.383 3.606 10.563.953 28.402-23.703 64.443-36.756 101.485-36.756 87.397 0 158.5 71.103 158.5 158.5v15h-317v-15c0-37.042 13.054-73.083 36.755-101.484 2.654-3.18 2.228-7.91-.952-10.564-3.182-2.654-7.912-2.227-10.563.953-25.95 31.093-40.24 70.547-40.24 111.095v15h-15zm-45 45c-4.136 0-7.5-3.364-7.5-7.5s3.364-7.5 7.5-7.5h45.755c1.129 5.539 3.483 10.637 6.766 15zm423.068 204.764c-4.291 25.342-26.06 43.736-51.763 43.736h-275.61c-25.703 0-47.473-18.394-51.764-43.736l-20.445-120.763c1.871-.641 3.685-1.296 5.486-1.949 10.014-3.626 19.472-7.052 38.865-7.052s28.852 3.425 38.865 7.052c10.79 3.908 21.947 7.948 43.973 7.948 22.024 0 33.182-4.041 43.971-7.948 10.014-3.626 19.471-7.052 38.863-7.052s28.85 3.425 38.862 7.052c10.789 3.908 21.945 7.948 43.969 7.948s33.18-4.041 43.968-7.948c10.013-3.626 19.47-7.052 38.86-7.052 19.392 0 28.85 3.425 38.862 7.052 1.801.652 3.613 1.308 5.483 1.948zm51.432-129.952c-14.517-.763-22.732-3.739-31.361-6.864-10.789-3.908-21.945-7.948-43.97-7.948-22.023 0-33.18 4.041-43.968 7.948-10.013 3.626-19.47 7.052-38.86 7.052s-28.849-3.425-38.861-7.052c-10.789-3.908-21.945-7.948-43.97-7.948s-33.182 4.041-43.971 7.948c-10.014 3.626-19.471 7.052-38.863 7.052-19.394 0-28.852-3.425-38.865-7.052-10.79-3.908-21.947-7.948-43.973-7.948s-33.183 4.041-43.973 7.948c-8.63 3.125-16.848 6.101-31.365 6.864v-7.312c0-28.949 23.552-52.5 52.5-52.5h377c28.948 0 52.5 23.551 52.5 52.5z"/></g></svg>