<svg height="512" viewBox="0 0 512 512" width="512" xmlns="http://www.w3.org/2000/svg"><g id="Flat"><path d="m463.98686 234.36266a207.00764 207.00764 0 0 1 -23.41679 93.63734h-37.04007a174.94741 174.94741 0 0 0 28.22872-86.70364c5.41311-104.03867-81.3505-190.64211-185.379-185.03788a176.02514 176.02514 0 0 0 -137.90972 271.74152h-37.04a207.08108 207.08108 0 0 1 -23.43-96c0-113.75874 91.31111-206.18017 204.6425-207.97345 116.64295-1.84568 212.64224 93.68578 211.34436 210.33611z" fill="#da9065"/><rect fill="#ab693d" height="32" rx="16" width="304" x="104" y="456"/><path d="m264 240a47.99731 47.99731 0 0 1 -95.99.67c-.01-.22-.01-.45-.01-.67a48 48 0 0 1 96 0z" fill="#fc6f35"/><path d="m263.53 246.69a47.99633 47.99633 0 0 1 -95.52-6.02 47.98049 47.98049 0 0 1 32.45 21.48993 48.059 48.059 0 0 1 47.08008 0 48.26887 48.26887 0 0 1 15.98992-15.46993z" fill="#de5e1d"/><path d="m208 216h16v16h-16z" fill="#de5e1d"/><path d="m392 240a47.99731 47.99731 0 0 1 -95.99.67c-.01-.22-.01-.45-.01-.67a48 48 0 0 1 96 0z" fill="#fc6f35"/><path d="m336 216h16v16h-16z" fill="#de5e1d"/><path d="m385.07007 264.86a48.00261 48.00261 0 0 1 -89.06007-24.19 48.02293 48.02293 0 0 1 53.30005 31.43 48.079 48.079 0 0 1 35.76-7.24z" fill="#de5e1d"/><path d="m344 288a47.94563 47.94563 0 1 1 -1.18994-10.67 47.82538 47.82538 0 0 1 1.18994 10.67z" fill="#fc6f35"/><path d="m280 312a47.71494 47.71494 0 0 1 -4.15991 19.57007 48.03866 48.03866 0 0 1 -23.68018-63.14014 47.98914 47.98914 0 0 1 27.84009 43.57007z" fill="#de5e1d"/><path d="m288 264h16v16h-16z" fill="#de5e1d"/><path d="m200 288a47.96947 47.96947 0 1 1 -4.15991-19.57007 47.98914 47.98914 0 0 1 4.15991 19.57007z" fill="#fc6f35"/><path d="m200 288a47.98914 47.98914 0 0 1 -27.84009 43.57007 48.03866 48.03866 0 0 1 23.68018-63.14014 47.71452 47.71452 0 0 1 4.15991 19.57007z" fill="#de5e1d"/><path d="m144 264h16v16h-16z" fill="#de5e1d"/><circle cx="224" cy="312" fill="#fc6f35" r="48"/><path d="m216 288h16v16h-16z" fill="#de5e1d"/><circle cx="376" cy="312" fill="#de5e1d" r="48"/><circle cx="384" cy="312" fill="#fc6f35" r="48"/><path d="m448 320-12.3 29.88-8.2 19.91-8.14 19.76v.01l-7.96 19.32-19.4 47.12h-272l-19.4-47.12-7.96-19.32v-.01l-8.14-19.76-8.2-19.91-12.3-29.88 184 16z" fill="#da9065"/><path d="m464 303.00805a15.99576 15.99576 0 0 1 -10.61508 15.06362l-42.04483 15.01833a461.0594 461.0594 0 0 1 -76.52 20.13 461.84021 461.84021 0 0 1 -78.82009 6.78 461.76991 461.76991 0 0 1 -155.34009-26.91l-42.04483-15.0183a15.99576 15.99576 0 0 1 -10.61508-15.06362 15.99575 15.99575 0 0 1 21.37571-15.06387l42.04421 15.01579a428.88368 428.88368 0 0 0 144.58008 25.04 428.88368 428.88368 0 0 0 144.58008-25.04l42.04421-15.01578a15.99575 15.99575 0 0 1 21.37571 15.06383z" fill="#ab693d"/><path d="m66.724 79.331h94.634v45.255h-94.634z" fill="#d6323f" transform="matrix(.707 -.707 .707 .707 -38.693 110.503)"/><path d="m72 232 24-24 16 16v-104h-40z" fill="#d6323f"/><path d="m240 104-24-24 16-16h-104v40z" fill="#d6323f"/><path d="m46.62739 113.37261a32 32 0 0 1 22.62743-9.37261h10.74518l32 32v10.74518a32 32 0 0 1 -9.37257 22.62739 32 32 0 0 1 -45.25478 0l-10.74526-10.74518a32 32 0 0 1 0-45.25478z" fill="#e04446"/><path d="m177.37261 94.62739a32 32 0 0 1 -22.62743 9.37261h-10.74518l-32-32v-10.74518a32 32 0 0 1 9.37257-22.62739 32 32 0 0 1 45.25478 0l10.74522 10.74522a32 32 0 0 1 .00004 45.25474z" fill="#e04446"/><path d="m123.029 68h33.941v16h-33.941z" fill="#ce2337" transform="matrix(.707 -.707 .707 .707 -12.735 121.255)"/><path d="m67.029 124h33.941v16h-33.941z" fill="#ce2337" transform="matrix(.707 -.707 .707 .707 -68.735 98.059)"/><g fill="#ab693d"><path d="m169.34009 408.72-2.68018 15.77a533.19322 533.19322 0 0 1 -66.05991-15.61l-7.96-19.31994v-.01a518.8525 518.8525 0 0 0 76.70009 19.16994z"/><path d="m199.15039 428.98c-5.39893-.57617-10.86426-1.24512-16.24414-1.98779l2.1875-15.84961c5.21826.72021 10.519 1.36865 15.75586 1.92822z"/><path d="m312.84961 428.98-1.69922-15.90918c5.23682-.55957 10.5376-1.208 15.75586-1.92822l2.1875 15.84961c-5.37988.74265-10.84521 1.4116-16.24414 1.98779z"/><path d="m419.36 389.55005v.01l-7.96 19.31995a533.19322 533.19322 0 0 1 -66.05993 15.61l-2.68018-15.77a518.8525 518.8525 0 0 0 76.70011-19.16995z"/><path d="m169.42993 376.24-2.85986 15.75a502.40235 502.40235 0 0 1 -79.36007-21.23l-2.71-.97-8.2-19.91 16.29 5.82a487.52754 487.52754 0 0 0 76.83993 20.54z"/><path d="m199.09473 396.7793c-5.41358-.6167-10.88428-1.33057-16.25977-2.12207l2.33008-15.82911c5.20361.76612 10.49951 1.457 15.74023 2.05372z"/><path d="m312.90527 396.7793-1.81054-15.89746c5.24072-.59668 10.53662-1.2876 15.74023-2.05372l2.33008 15.82911c-5.37549.7915-10.84619 1.50537-16.25977 2.12207z"/><path d="m435.7 349.88-8.2 19.91-2.71.97a502.40235 502.40235 0 0 1 -79.36011 21.23l-2.85986-15.75a487.52754 487.52754 0 0 0 76.83984-20.54z"/></g></g></svg>