<svg height="512" viewBox="0 0 512 512" width="512" xmlns="http://www.w3.org/2000/svg"><g id="flat"><rect fill="#683b0d" height="32" rx="16" width="288" x="112" y="88"/><path d="m384 376h-256l-8-24 8-16-2.4-15.588a603 603 0 0 1 -.952-176.965l3.352-23.447h256l3.35 23.447a603 603 0 0 1 -.952 176.965l-2.398 15.588 8 16z" fill="#834b10"/><path d="m248 376v-230a8 8 0 0 1 16 0v230z" fill="#d18d28"/><path d="m256 216-8.251-24.752a34 34 0 0 0 -32.255-23.248h-23.494l8.894 22.235a34 34 0 0 0 25.979 20.91z" fill="#ea9d2d"/><path d="m256 280-8.251-24.752a34 34 0 0 0 -32.255-23.248h-23.494l8.894 22.235a34 34 0 0 0 25.979 20.91z" fill="#fbb540"/><path d="m256 344-8.251-24.752a34 34 0 0 0 -32.255-23.248h-23.494l8.894 22.235a34 34 0 0 0 25.979 20.91z" fill="#ea9d2d"/><path d="m256 216 8.251-24.752a34 34 0 0 1 32.255-23.248h23.494l-8.894 22.235a34 34 0 0 1 -25.979 20.91z" fill="#fbb540"/><path d="m256 280 8.251-24.752a34 34 0 0 1 32.255-23.248h23.494l-8.894 22.235a34 34 0 0 1 -25.979 20.91z" fill="#ea9d2d"/><path d="m256 344 8.251-24.752a34 34 0 0 1 32.255-23.248h23.494l-8.894 22.235a34 34 0 0 1 -25.979 20.91z" fill="#fbb540"/><path d="m256 88-15.924 26.539a23.346 23.346 0 0 0 1.343 26.019l14.581 19.442 14.581-19.442a23.346 23.346 0 0 0 1.343-26.019z" fill="#fbb540"/><path d="m385.768 88a87.939 87.939 0 0 0 -69.253-39.886 87.984 87.984 0 0 0 -121.971.909 88.022 88.022 0 0 0 -60.312 38.977z" fill="#ea9d2d"/><path d="m151.994 280a8 8 0 0 1 -7.755-6.061c-.695-2.778-1.321-5.617-1.861-8.437a8 8 0 0 1 15.715-3.008c.484 2.529 1.045 5.073 1.668 7.563a8.007 8.007 0 0 1 -7.767 9.943z" fill="#683b0d"/><path d="m147.66 248a8 8 0 0 1 -7.993-7.805 154.948 154.948 0 0 1 2.957-34.108l1.531-7.656a8 8 0 1 1 15.69 3.138l-1.532 7.656a138.939 138.939 0 0 0 -2.651 30.58 8 8 0 0 1 -7.8 8.193z" fill="#683b0d"/><path d="m158.494 448.972a16 16 0 0 0 -12.235.519l-17 7.9a16 16 0 0 0 -8.284 9.019 16 16 0 0 0 9.538 20.519 16 16 0 0 0 12.235-.519l17-7.9a16 16 0 0 0 8.284-9.018 16 16 0 0 0 -9.538-20.52z" fill="#bf6d48"/><g fill="#683b0d"><path d="m111.956 409.724a15.981 15.981 0 0 0 -8.557-8.737l-17.2-7.329a15.912 15.912 0 0 0 -12.211-.109 16.016 16.016 0 0 0 -8.821 20.826 15.981 15.981 0 0 0 8.557 8.737l17.2 7.328a15.912 15.912 0 0 0 12.211.11 16.016 16.016 0 0 0 8.821-20.826z"/><path d="m416.67 435.579a16.043 16.043 0 0 0 1.573 12.144l9.318 16.25a15.964 15.964 0 0 0 9.675 7.471 15.95 15.95 0 0 0 19.564-11.281 16.039 16.039 0 0 0 -1.574-12.144l-9.326-16.249a15.96 15.96 0 0 0 -9.675-7.471 15.948 15.948 0 0 0 -19.555 11.28z"/><path d="m230.586 408a15.929 15.929 0 0 0 -11.387 4.422l-13.521 12.943a16.028 16.028 0 0 0 -4.934 11.2 15.981 15.981 0 0 0 15.579 16.368 15.933 15.933 0 0 0 11.387-4.422l13.52-12.943a16.02 16.02 0 0 0 4.934-11.2 15.98 15.98 0 0 0 -15.578-16.368z"/></g><path d="m288.015 469.037a16 16 0 0 0 8.127 9.16l16.858 8.194a16 16 0 0 0 12.224.73 16 16 0 0 0 9.891-20.351 16 16 0 0 0 -8.128-9.161l-16.859-8.193a16 16 0 0 0 -12.224-.731 16 16 0 0 0 -9.889 20.352z" fill="#bf6d48"/><path d="m346.231 439.542a16 16 0 0 0 12.21-.936l16.72-8.477a16 16 0 0 0 7.971-9.3 16 16 0 0 0 -10.232-20.177 16 16 0 0 0 -12.211.936l-16.719 8.476a16 16 0 0 0 -7.972 9.3 16 16 0 0 0 10.233 20.178z" fill="#bf6d48"/><g fill="#834b10"><circle cx="239" cy="63" r="7"/><circle cx="281" cy="65" r="7"/><circle cx="263" cy="47" r="7"/></g></g></svg>