<?xml version="1.0" encoding="UTF-8" standalone="no"?>
<!DOCTYPE svg PUBLIC "-//W3C//DTD SVG 1.1//EN" "http://www.w3.org/Graphics/SVG/1.1/DTD/svg11.dtd">
<svg version="1.1" xmlns="http://www.w3.org/2000/svg" xmlns:xlink="http://www.w3.org/1999/xlink" preserveAspectRatio="xMidYMid meet" viewBox="0 0 640 640" width="640" height="640"><defs><path d="M206.8 81.98C210.26 79.74 214.88 80.72 217.13 84.18C219.05 87.14 220.74 89.75 222.66 92.71C224.91 96.17 223.92 100.8 220.46 103.04C201.1 115.61 149.26 149.25 129.89 161.82C126.43 164.06 121.81 163.08 119.57 159.62C117.64 156.66 115.95 154.05 114.03 151.09C111.78 147.63 112.77 143 116.23 140.76C135.59 128.19 187.43 94.55 206.8 81.98Z" id="bB0UbQOGH"></path><path d="M179.84 161.97C175.71 161.89 172.4 158.5 172.43 154.37C172.45 150.84 172.47 147.72 172.5 144.19C172.52 140.08 175.9 136.79 180.01 136.86C203.1 137.3 264.89 138.47 287.98 138.9C292.12 138.98 295.42 142.37 295.39 146.51C295.37 150.04 295.35 153.16 295.33 156.68C295.3 160.79 291.92 164.09 287.81 164.01C264.72 163.58 202.93 162.41 179.84 161.97Z" id="a4T0KSwY49"></path><path d="M178.42 202.4C174.28 202.32 170.97 198.93 171 194.79C171.02 191.26 171.04 188.14 171.07 184.61C171.1 180.5 174.48 177.21 178.58 177.29C201.67 177.72 263.46 178.89 286.55 179.33C290.69 179.4 293.99 182.79 293.97 186.93C293.94 190.46 293.92 193.58 293.9 197.11C293.87 201.22 290.49 204.51 286.38 204.43C263.3 204 201.5 202.83 178.42 202.4Z" id="a46Rgwqt8o"></path><path d="M222.26 85.34C225.19 88.23 225.23 92.96 222.33 95.89C219.86 98.41 217.67 100.63 215.19 103.14C212.3 106.08 207.57 106.11 204.63 103.22C188.19 87.01 144.18 43.63 127.73 27.42C124.8 24.53 124.76 19.8 127.66 16.86C130.13 14.35 132.32 12.13 134.8 9.62C137.69 6.68 142.42 6.65 145.36 9.54C161.8 25.75 205.81 69.13 222.26 85.34Z" id="azzG7qyQo"></path><path d="M331.27 21.2C334.73 18.96 339.35 19.94 341.6 23.4C343.52 26.36 345.22 28.98 347.14 31.94C349.38 35.39 348.4 40.02 344.94 42.26C325.57 54.83 273.73 88.47 254.37 101.04C250.91 103.29 246.28 102.3 244.04 98.84C242.12 95.88 240.42 93.27 238.5 90.31C236.26 86.85 237.24 82.23 240.7 79.98C260.07 67.41 311.9 33.77 331.27 21.2Z" id="a90AYxVtry"></path><path d="M347.77 131.49C351.41 133.42 352.8 137.94 350.86 141.58C349.21 144.7 347.75 147.45 346.1 150.57C344.16 154.21 339.64 155.6 336 153.66C315.61 142.84 261.02 113.87 240.63 103.05C236.98 101.12 235.6 96.6 237.53 92.95C239.18 89.84 240.65 87.08 242.3 83.97C244.23 80.33 248.75 78.94 252.39 80.87C272.79 91.7 327.38 120.66 347.77 131.49Z" id="eH3iavYuw"></path><path d="M260 91.24C260 97.45 254.11 102.48 246.86 102.48C239.61 102.48 233.73 97.45 233.73 91.24C233.73 85.04 239.61 80 246.86 80C254.11 80 260 85.04 260 91.24Z" id="h19L4yIr5u"></path><path d="M224.9 93.4C224.9 99.6 219.02 104.64 211.76 104.64C204.51 104.64 198.63 99.6 198.63 93.4C198.63 87.19 204.51 82.16 211.76 82.16C219.02 82.16 224.9 87.19 224.9 93.4Z" id="c1yUxTemnN"></path></defs><g><g><g><use xlink:href="#bB0UbQOGH" opacity="1" fill="#44c057" fill-opacity="1"></use></g><g><use xlink:href="#a4T0KSwY49" opacity="1" fill="#44c057" fill-opacity="1"></use></g><g><use xlink:href="#a46Rgwqt8o" opacity="1" fill="#44c057" fill-opacity="1"></use></g><g><use xlink:href="#azzG7qyQo" opacity="1" fill="#44c057" fill-opacity="1"></use></g><g><use xlink:href="#a90AYxVtry" opacity="1" fill="#44c057" fill-opacity="1"></use></g><g><use xlink:href="#eH3iavYuw" opacity="1" fill="#44c057" fill-opacity="1"></use></g><g><use xlink:href="#h19L4yIr5u" opacity="1" fill="#44c057" fill-opacity="1"></use></g><g><use xlink:href="#c1yUxTemnN" opacity="1" fill="#44c057" fill-opacity="1"></use></g></g></g></svg>