<svg id="Layer_3" enable-background="new 0 0 64 64" height="512" viewBox="0 0 64 64" width="512" xmlns="http://www.w3.org/2000/svg"><g><g><path d="m4 49h-2v-16.72c0-4.73 3.177-8.942 7.726-10.242.088-.025.181-.038.274-.038h2v2h-1.856c-3.624 1.098-6.144 4.483-6.144 8.28z" fill="#a8b0bc"/></g><g><g><path d="m23 49h2v4h-2z" fill="#a8b0bc"/></g></g><g><g><path d="m27 49h2v4h-2z" fill="#a8b0bc"/></g></g><path d="m40 8-.336-.504c-1.085-1.627-1.664-3.54-1.664-5.496l-2.25 1.687c-1.102.827-1.75 2.124-1.75 3.501 0 1.16.461 2.273 1.282 3.094l.718.718" fill="#a8b0bc"/><path d="m52 8 .336-.504c1.085-1.627 1.664-3.54 1.664-5.496l2.25 1.687c1.102.827 1.75 2.124 1.75 3.501 0 1.16-.461 2.273-1.282 3.094l-.718.718" fill="#a8b0bc"/><path d="m56.506 12h1.191c1.439 0 2.782.719 3.58 1.916.472.707.723 1.537.723 2.387v2.697h-1.218c-1.141 0-2.236-.453-3.043-1.26l-.739-.74-.13-.187" fill="#c66b60"/><path d="m3.2 52.9c-.755-.567-1.2-1.456-1.2-2.4v-3.5l2.342 1.171c1.016.508 1.658 1.547 1.658 2.683v4.146z" fill="#52565a"/><path d="m32 45c0 2.761-2.686 5-6 5s-6-2.239-6-5" fill="#c66b60"/><path d="m48 56.141v-.141l.328-1.312c1.11-4.442 1.672-9.003 1.672-13.582v-.18c-.964 1.54-2.232 2.895-3.789 3.933l-.211.141-.064.05c-.106 3.303-.341 6.601-.706 9.886l-.177 1.59c.578-.325 1.236-.526 1.947-.526.347 0 .679.058 1 .141z" fill="#a8b0bc"/><path d="m17.036 56.153-.036-.153.434-3.04c.377-2.637.566-5.297.566-7.96v-.381c-.36-.106-.724-.194-1.08-.312l-.79-.263c-1.561 3.822-2.615 7.838-3.128 11.945l-.002.011h-1c.735 0 1.417.204 2.005.552.589-.342 1.265-.552 1.995-.552.361 0 .704.063 1.036.153z" fill="#a8b0bc"/><path d="m52 34v.043c0 4.347-2.172 8.406-5.789 10.817l-.211.14-.064.05c-.106 3.303-.341 6.601-.706 9.886l-.23 2.064h-4l-.292-1.314c-.852-3.834-1.387-7.732-1.6-11.654l-.002-.032h-.106l-.92.307c-3.365 1.121-6.888 1.693-10.435 1.693h-.29c-3.547 0-7.071-.572-10.436-1.693l-.79-.263c-1.561 3.822-2.615 7.838-3.128 11.945l-.016.134-2.812.571-3.173-12.694-.906-13.59c-.062-.934.022-1.873.249-2.781l.107-.427c.928-3.714 4.104-6.434 7.916-6.78l15.634-1.422v-2.708c0-2.37 1.922-4.292 4.292-4.292h2.708" fill="#e3e4e5"/><path d="m36 29-.98-13.725c-.013-.183-.02-.367-.02-.55 0-4.267 3.458-7.725 7.724-7.725h6.551c4.267 0 7.725 3.458 7.725 7.724 0 .184-.007.367-.02.55l-.98 13.726" fill="#ebf7fe"/><path d="m35 14.724c0-.961.183-1.876.504-2.724h-1.201c-1.439 0-2.782.719-3.58 1.916-.472.707-.723 1.537-.723 2.387v2.697h1.218c1.141 0 2.236-.453 3.043-1.26l.739-.74.105-.526-.086-1.199c-.012-.183-.019-.367-.019-.551z" fill="#c66b60"/><path d="m43 24c1.075 0 2.09.178 3 .488.91-.31 1.925-.488 3-.488 3.866 0 7 2.239 7 5s-3.134 5-7 5c-1.075 0-2.09-.178-3-.488-.91.31-1.925.488-3 .488-3.866 0-7-2.239-7-5s3.134-5 7-5z" fill="#c66b60"/><path d="m49.276 7h-.567c-1.661 1.466-2.709 3.611-2.709 6 0 4.418 3.582 8 8 8 .913 0 1.786-.161 2.603-.442l.377-5.283c.013-.183.02-.367.02-.55 0-4.267-3.458-7.725-7.724-7.725z" fill="#52565a"/><path d="m26 30c2.209 0 4 1.791 4 4 0 .05-.013.096-.015.146.326-.086.662-.146 1.015-.146 2.209 0 4 1.791 4 4s-1.791 4-4 4-4-1.791-4-4c0-.05.013-.096.015-.146-.326.086-.662.146-1.015.146-2.209 0-4-1.791-4-4s1.791-4 4-4z" fill="#52565a"/><g><path d="m51.5 30c-.827 0-1.5-.673-1.5-1.5s.673-1.5 1.5-1.5 1.5.673 1.5 1.5-.673 1.5-1.5 1.5z" fill="#e47c6e"/></g><g><path d="m40.5 30c-.827 0-1.5-.673-1.5-1.5s.673-1.5 1.5-1.5 1.5.673 1.5 1.5-.673 1.5-1.5 1.5z" fill="#e47c6e"/></g><g><path d="m52.5 18c-.827 0-1.5-.673-1.5-1.5s.673-1.5 1.5-1.5 1.5.673 1.5 1.5-.673 1.5-1.5 1.5z" fill="#243242"/></g><g><path d="m39.5 18c-.827 0-1.5-.673-1.5-1.5s.673-1.5 1.5-1.5 1.5.673 1.5 1.5-.673 1.5-1.5 1.5z" fill="#243242"/></g><path d="m16 56c2.209 0 4 1.791 4 4v2h-8v-2c0-2.209 1.791-4 4-4z" fill="#243242"/><path d="m12 56c2.209 0 4 1.791 4 4v2h-8v-2c0-2.209 1.791-4 4-4z" fill="#52565a"/><g><path d="m11 59h2v3h-2z" fill="#243242"/></g><path d="m47 56c2.209 0 4 1.791 4 4v2h-8v-2c0-2.209 1.791-4 4-4z" fill="#243242"/><path d="m43 56c2.209 0 4 1.791 4 4v2h-8v-2c0-2.209 1.791-4 4-4z" fill="#52565a"/><g><path d="m42 59h2v3h-2z" fill="#243242"/></g><g fill="#52565a"><path d="m15 23c0 2.761 2.239 5 5 5s5-2.239 5-5c0-1.327-.526-2.526-1.37-3.421l-7.823.711c-.506.782-.807 1.709-.807 2.71z"/><path d="m7 32c-.272 0-.534.038-.795.08l.66 9.906c.046.002.089.014.135.014 2.761 0 5-2.239 5-5s-2.239-5-5-5z"/></g></g></svg>