<?xml version="1.0" encoding="iso-8859-1"?>
<!-- Generator: Adobe Illustrator 19.0.0, SVG Export Plug-In . SVG Version: 6.00 Build 0)  -->
<svg version="1.1" id="Capa_1" xmlns="http://www.w3.org/2000/svg" xmlns:xlink="http://www.w3.org/1999/xlink" x="0px" y="0px"
	 viewBox="0 0 512 512" style="enable-background:new 0 0 512 512;" xml:space="preserve">
<g>
	<path style="fill:#E34B4C;" d="M156.299,81.142c-15.611-0.498-48.105,0.866-76.074,17.614l-37.899,77.531
		c91.792,5.982,120.039-26.484,123.021-85.365C165.611,85.708,161.516,81.308,156.299,81.142z"/>
	<path style="fill:#E34B4C;" d="M355.701,81.142c15.611-0.498,48.105,0.866,76.074,17.614l37.899,77.531
		c-91.792,5.982-120.039-26.484-123.021-85.365C346.389,85.708,350.484,81.308,355.701,81.142z"/>
	<path style="fill:#E34B4C;" d="M95.77,277.499c-0.119-0.076-0.238-0.154-0.356-0.232c-29.927-19.86-54.582-50.282-64.603-84.963
		c-3.196-11.059-3.471-22.569-2.67-33.965c0.571-8.122,7.617-14.244,15.739-13.674c7.379,0.518,13.107,6.382,13.665,13.543
		c2.668,34.192,29.251,61.23,58.221,76.664c12.523,6.671,21.493,18.914,14.451,33.373
		C124.034,280.937,107.391,284.908,95.77,277.499z"/>
	<path style="fill:#E34B4C;" d="M416.23,277.499c0.12-0.076,0.238-0.154,0.356-0.232c29.927-19.86,54.582-50.282,64.603-84.963
		c3.196-11.059,3.471-22.569,2.67-33.965c-0.571-8.122-7.617-14.244-15.739-13.674c-7.379,0.518-13.107,6.382-13.665,13.543
		c-2.668,34.192-29.251,61.23-58.221,76.664c-12.523,6.671-21.493,18.914-14.451,33.373
		C387.966,280.937,404.609,284.908,416.23,277.499z"/>
</g>
<g>
	<path style="fill:#FD6F71;" d="M248.722,386.669c-19.795,9.939-39.462,20.421-56.964,34.113
		c-12.343,9.654-23.763,20.921-29.194,35.942c-4.711,13.029-0.213,26.636,5.417,38.541c1.949,4.122,0.188,9.043-3.934,10.992
		c-3.351,1.584-7.236,0.708-9.617-1.887c-15.502-16.892-22.972-39.972-16.261-62.451c5.493-18.397,17.57-34.051,31.482-46.953
		c18.896-17.523,41.965-31.298,66.152-40.141c8.913-3.258,18.779,1.325,22.039,10.238
		C260.975,373.64,256.633,382.697,248.722,386.669z"/>
	<path style="fill:#FD6F71;" d="M175.049,374.475c-16.701,4.593-33.328,9.566-49.321,16.271
		c-15.181,6.363-30.184,14.073-41.785,25.995c-12.839,14.145-13.793,30.564-9.335,48.422c1.104,4.424-1.586,8.905-6.01,10.009
		c-3.598,0.898-7.238-0.725-9.064-3.739c-11.987-19.785-14.805-43.491-3.717-64.42c11.754-22.187,33.296-37.577,55.469-48.239
		c18.083-8.696,37.482-14.983,57.326-18.053c9.379-1.45,18.157,4.976,19.607,14.355
		C189.616,364.095,183.584,372.127,175.049,374.475z"/>
	<path style="fill:#FD6F71;" d="M139.587,336.75c-15.856,0.294-31.732,0.884-47.473,2.923c-15.478,2.005-31.596,4.965-45.581,12.226
		c-19.209,9.293-26.626,26.562-26.746,47.138c-0.028,4.726-3.318,8.874-8.309,8.844c-3.709-0.023-6.831-2.498-7.853-5.87
		c-8.969-29.616,1.604-58.481,26.997-76.114c31.102-21.496,74.251-27.042,111.106-23.444c9.445,0.922,16.354,9.326,15.432,18.771
		c-0.856,8.773-8.168,15.358-16.772,15.512C140.121,336.74,139.854,336.744,139.587,336.75z"/>
	<path style="fill:#FD6F71;" d="M263.278,386.669c19.795,9.939,39.462,20.421,56.964,34.113
		c12.343,9.654,23.763,20.921,29.194,35.942c4.711,13.029,0.213,26.636-5.417,38.541c-1.949,4.122-0.188,9.043,3.934,10.992
		c3.351,1.584,7.236,0.708,9.617-1.887c15.502-16.892,22.972-39.972,16.261-62.451c-5.493-18.397-17.57-34.051-31.482-46.953
		c-18.896-17.523-41.965-31.298-66.152-40.141c-8.913-3.258-18.779,1.325-22.039,10.238
		C251.025,373.64,255.366,382.697,263.278,386.669z"/>
	<path style="fill:#FD6F71;" d="M336.951,374.475c16.701,4.593,33.328,9.566,49.321,16.271
		c15.181,6.363,30.184,14.073,41.785,25.995c12.839,14.145,13.793,30.564,9.336,48.422c-1.104,4.424,1.586,8.905,6.01,10.009
		c3.598,0.898,7.238-0.725,9.064-3.739c11.987-19.785,14.805-43.491,3.717-64.42c-11.754-22.187-33.296-37.577-55.469-48.239
		c-18.083-8.696-37.482-14.983-57.326-18.053c-9.378-1.45-18.157,4.976-19.607,14.355
		C322.384,364.095,328.415,372.127,336.951,374.475z"/>
	<path style="fill:#FD6F71;" d="M372.412,336.75c15.855,0.294,31.732,0.884,47.473,2.923c15.478,2.005,31.596,4.965,45.581,12.226
		c19.209,9.293,26.626,26.562,26.746,47.138c0.028,4.726,3.318,8.874,8.309,8.844c3.709-0.023,6.831-2.498,7.853-5.87
		c8.969-29.616-1.604-58.481-26.997-76.114c-31.102-21.496-74.251-27.042-111.106-23.444c-9.445,0.922-16.354,9.326-15.432,18.771
		c0.856,8.773,8.168,15.358,16.772,15.512C371.879,336.74,372.146,336.744,372.412,336.75z"/>
</g>
<g>
	<path style="fill:#E34B4C;" d="M465.798,316.874c-29.007-13.997-64.498-17.452-95.528-14.423
		c-9.445,0.922-16.354,9.326-15.432,18.771c0.856,8.773,8.168,15.358,16.772,15.512c0.267,0.005,0.534,0.009,0.8,0.014
		c15.855,0.294,31.732,0.884,47.473,2.923c10.376,1.343,21.036,3.125,31.152,6.335C458.817,333.448,463.443,322.937,465.798,316.874
		z"/>
	<path style="fill:#E34B4C;" d="M400.714,358.772c-18.083-8.696-37.482-14.983-57.326-18.053
		c-9.379-1.45-18.157,4.976-19.607,14.355c-1.396,9.022,4.636,17.054,13.171,19.401c16.701,4.593,33.328,9.566,49.321,16.271
		c5.959,2.497,11.886,5.209,17.594,8.294c7.79-6.184,14.569-12.469,20.381-18.523c1.547-1.612,3.031-3.222,4.479-4.831
		C420.023,369.024,410.429,363.444,400.714,358.772z"/>
	<path style="fill:#E34B4C;" d="M342.351,394.968c-18.896-17.523-41.965-31.298-66.152-40.141
		c-8.913-3.258-18.779,1.325-22.039,10.238c-3.136,8.575,1.205,17.632,9.117,21.604c19.795,9.939,39.462,20.421,56.964,34.113
		c5.563,4.352,10.932,9.036,15.657,14.238c10.724-3.426,20.602-7.445,29.666-11.872C359.408,412.63,351.261,403.231,342.351,394.968
		z"/>
	<path style="fill:#E34B4C;" d="M257.839,365.065c-3.258-8.913-13.126-13.496-22.039-10.238
		c-24.187,8.842-47.256,22.618-66.152,40.141c-8.91,8.263-17.058,17.662-23.215,28.181c9.066,4.426,18.943,8.444,29.666,11.872
		c4.724-5.202,10.094-9.887,15.657-14.238c17.502-13.692,37.169-24.173,56.964-34.113
		C256.633,382.697,260.975,373.641,257.839,365.065z"/>
	<path style="fill:#E34B4C;" d="M168.613,340.719c-19.844,3.07-39.245,9.357-57.326,18.053c-9.716,4.672-19.31,10.252-28.013,16.914
		c1.449,1.608,2.933,3.219,4.48,4.831c5.811,6.054,12.591,12.34,20.381,18.523c5.708-3.085,11.636-5.797,17.594-8.294
		c15.994-6.704,32.62-11.677,49.321-16.271c8.535-2.347,14.567-10.379,13.171-19.401C186.77,345.695,177.99,339.268,168.613,340.719
		z"/>
	<path style="fill:#E34B4C;" d="M141.728,302.452c-31.03-3.029-66.521,0.425-95.528,14.423c2.355,6.062,6.982,16.574,14.762,29.132
		c10.115-3.21,20.776-4.991,31.152-6.335c15.74-2.039,31.616-2.629,47.473-2.923c0.267-0.005,0.534-0.01,0.8-0.014
		c8.605-0.154,15.916-6.739,16.772-15.512C158.083,311.778,151.174,303.374,141.728,302.452z"/>
</g>
<path style="fill:#FD6F71;" d="M256,415.942c146.241,0,182.221-113.656,182.221-113.656S439.382,167.233,256,167.233
	S73.778,302.286,73.778,302.286S109.758,415.942,256,415.942z"/>
<g>
	<path style="fill:#3A484A;" d="M180.882,245.068c-4.267,0-7.726-3.459-7.726-7.726v-13.595c0-4.267,3.459-7.726,7.726-7.726
		c4.267,0,7.726,3.459,7.726,7.726v13.595C188.609,241.608,185.149,245.068,180.882,245.068z"/>
	<path style="fill:#3A484A;" d="M331.119,245.068c-4.267,0-7.726-3.459-7.726-7.726v-13.595c0-4.267,3.459-7.726,7.726-7.726
		s7.726,3.459,7.726,7.726v13.595C338.845,241.608,335.386,245.068,331.119,245.068z"/>
	<path style="fill:#3A484A;" d="M256,252.324c-9.455,0-18.333-3.953-24.358-10.845c-2.808-3.213-2.481-8.094,0.732-10.902
		c3.213-2.808,8.094-2.481,10.902,0.732c3.09,3.535,7.726,5.562,12.723,5.562c4.996,0,9.633-2.027,12.724-5.562
		c2.809-3.213,7.689-3.54,10.902-0.731s3.541,7.689,0.731,10.902C274.333,248.371,265.455,252.324,256,252.324z"/>
</g>
<g>
	<path style="fill:#FD6F71;" d="M120.989,4.953C95.432,4.797,38.515,11.618,10.859,71.599
		c-36.31,78.748,26.157,138.26,73.828,83.652c44.955-51.497,3.214-88.947,41.394-140.094C129.22,10.954,126.235,4.985,120.989,4.953
		z"/>
	<path style="fill:#FD6F71;" d="M391.011,4.953c25.557-0.156,82.473,6.665,110.129,66.647c36.31,78.748-26.157,138.26-73.828,83.652
		c-44.955-51.497-3.214-88.947-41.394-140.094C382.78,10.954,385.765,4.985,391.011,4.953z"/>
</g>
<g>
</g>
<g>
</g>
<g>
</g>
<g>
</g>
<g>
</g>
<g>
</g>
<g>
</g>
<g>
</g>
<g>
</g>
<g>
</g>
<g>
</g>
<g>
</g>
<g>
</g>
<g>
</g>
<g>
</g>
</svg>
