<svg height="512" viewBox="0 0 512 512" width="512" xmlns="http://www.w3.org/2000/svg"><g id="Flat"><path d="m240 256h-112a24 24 0 0 0 -24 24v24h160v-24a24 24 0 0 0 -24-24z" fill="#e0a684"/><path d="m404.823 42.45-36.81981 213.55v48h-104v-24a24.00624 24.00624 0 0 0 -24.00019-24h96.00024l37.7397-218.91a15.76944 15.76944 0 1 1 31.08006 5.36z" fill="#ad693d"/><path d="m389.283 24a15.76609 15.76609 0 0 0 -15.54 13.09l-37.73981 218.91h-136.00019l37.71-218.72a15.99882 15.99882 0 0 1 15.76-13.28z" fill="#dc9265"/><g fill="#bc8d5d"><path d="m128 488h-24v-184h48z"/><path d="m264 488h-24v-184h48z"/><path d="m344 488h24v-184h-48z"/></g></g></svg>