<svg height="512" viewBox="0 0 512 512" width="512" xmlns="http://www.w3.org/2000/svg"><g id="Filled_outline" data-name="Filled outline"><path d="m392 88v288a111.986 111.986 0 0 1 -112 112l-24-72-24 72a111.979 111.979 0 0 1 -111.92-108.09c-.06-1.3-.08-2.6-.08-3.91v-288l64-24 16-40h112l16 40 61.01 22.88z" fill="#3086cd"/><path d="m392 88v288a111.986 111.986 0 0 1 -112 112l-24-72-24 72a111.979 111.979 0 0 1 -111.92-108.09c101.57-44.98 202.66-134.53 268.93-293.03z" fill="#2d7dbf"/><path d="m312 24-56 80-56-80z" fill="#3086cd"/><path d="m284 64-28 40-28-40z" fill="#2d7dbf"/><path d="m184 64 16-40 56 80-40 32z" fill="#348fd9"/><path d="m328 64-16-40-56 80 40 32z" fill="#348fd9"/><path d="m120 88-43.23 21.615a16 16 0 0 0 -7.155 7.155l-43.926 87.852a15.994 15.994 0 0 0 -1.689 7.155v128.446a15.994 15.994 0 0 0 1.689 7.155l70.311 140.622 48-32-24-104z" fill="#2d7dbf"/><path d="m392 88 47.43 20.327a16 16 0 0 1 9.6 12.94l38.97 350.733-56 16-40-192z" fill="#2d7dbf"/><path d="m360 256-32 16-32-16v-56h64z" fill="#348fd9"/><path d="m495.951 471.117-38.971-350.733a24.04 24.04 0 0 0 -14.4-19.41l-47.429-20.327c-.114-.049-.232-.081-.348-.124l.006-.014-60.693-22.759-14.688-36.721a8 8 0 0 0 -6.509-4.976 7.883 7.883 0 0 0 -.919-.043v-.01h-112v.01a7.883 7.883 0 0 0 -.919.043 8 8 0 0 0 -6.509 4.976l-16 40a8 8 0 0 0 .117 6.22l32 72a8 8 0 0 0 12.309 3l27-21.6v294.051l-21.714 65.141a104.242 104.242 0 0 1 -78.436-42.734l-19.848-86.017v-257.546l37.476-14.053-5.618-14.982-42.667 16a8.223 8.223 0 0 0 -.76.354l-.009-.018-43.23 21.614a24.151 24.151 0 0 0 -10.732 10.734l-43.926 87.849a24.133 24.133 0 0 0 -2.534 10.735v128.446a24.118 24.118 0 0 0 2.534 10.733l70.311 140.622a8 8 0 0 0 11.593 3.078l48-32c.114-.076.21-.17.32-.251a120.209 120.209 0 0 0 83.242 33.595 8 8 0 0 0 7.59-5.47l16.41-49.23 16.41 49.232a8 8 0 0 0 7.59 5.468 119.987 119.987 0 0 0 120-120v-2.374l24.168 116.006a8 8 0 0 0 10.03 6.06l56-16a8 8 0 0 0 5.753-8.575zm-396.851 5.2-66.256-132.517a8.038 8.038 0 0 1 -.844-3.577v-128.446a8.041 8.041 0 0 1 .845-3.578l43.926-87.852a8.054 8.054 0 0 1 3.578-3.577l31.651-15.826v197.856l-16.354-53.153-15.292 4.706 31.917 103.731 13.546 58.7-33.932 20.356 8.231 13.72 29.484-17.689 5.363 23.24zm220.218-412.481-26.418 59.439-26.044-20.835 43.212-61.73zm-63.318 26.214-12.635-18.05h25.27zm23.835-34.05h-47.67l-16.8-24h81.27zm-60.735 67.275-26.418-59.439 9.25-23.126 43.212 61.73zm164.9 252.725a103.991 103.991 0 0 1 -98.285 103.847l-21.715-65.147v-294.054l27 21.6a8 8 0 0 0 12.309-3l28.938-65.112 51.753 19.41zm54.077 101.944-38.077-182.769v-195.043l36.279 15.548a8.012 8.012 0 0 1 4.8 6.47l34.523 310.7-29.541 7.386 3.88 15.522 27.444-6.861 1.919 17.265z"/><path d="m360 192h-64a8 8 0 0 0 -8 8v56a8 8 0 0 0 4.422 7.155l32 16a8 8 0 0 0 7.156 0l32-16a8 8 0 0 0 4.422-7.155v-56a8 8 0 0 0 -8-8zm-8 59.056-24 12-24-12v-43.056h48z"/><path d="m216 160h16v16h-16z"/><path d="m216 240h16v16h-16z"/><path d="m216 320h16v16h-16z"/><path d="m216 400h16v16h-16z"/></g></svg>