<svg height="480pt" viewBox="0 -68 480.00001 480" width="480pt" xmlns="http://www.w3.org/2000/svg"><path d="m432 8 40 56h-464l48-56zm0 0" fill="#ff9811"/><path d="m8 64h464v32h-464zm0 0" fill="#ffa733"/><path d="m80 96h24v184h-24zm0 0" fill="#787680"/><path d="m376 96h24v184h-24zm0 0" fill="#787680"/><path d="m24 96h32v240h-32zm0 0" fill="#acabb1"/><path d="m424 96h32v240h-32zm0 0" fill="#acabb1"/><path d="m478.511719 59.351562-40-56c-1.5-2.101562-3.925781-3.351562-6.511719-3.351562h-376c-2.335938.00390625-4.554688 1.023438-6.070312 2.800781l-48 56c-1.246094 1.445313-1.93359425 3.289063-1.929688 5.199219v32c0 4.417969 3.582031 8 8 8h8v232c0 4.417969 3.582031 8 8 8h32c4.417969 0 8-3.582031 8-8v-232h8v176c0 4.417969 3.582031 8 8 8h24c4.417969 0 8-3.582031 8-8v-176h256v176c0 4.417969 3.582031 8 8 8h24c4.417969 0 8-3.582031 8-8v-176h8v232c0 4.417969 3.582031 8 8 8h32c4.417969 0 8-3.582031 8-8v-232h8c4.417969 0 8-3.582031 8-8v-32c0-1.667969-.519531-3.292969-1.488281-4.648438zm-418.832031-43.351562h368.199218l28.578125 40h-431.066406zm-11.679688 312h-16v-224h16zm48-56h-8v-168h8zm296 0h-8v-168h8zm56 56h-16v-224h16zm-432-240v-16h448v16zm0 0"/></svg>