<svg id="Capa_1" enable-background="new 0 0 512 512" height="512" viewBox="0 0 512 512" width="512" xmlns="http://www.w3.org/2000/svg"><g><g><path d="m407.012 504h-302.024v-80.421c0-64.319 52.141-116.459 116.459-116.459h69.106c64.319 0 116.459 52.14 116.459 116.459z" fill="#9ec8fc"/><path d="m104.988 486h302.025v18h-302.025z" fill="#80b6fc"/><path d="m294.776 307.12s1.778 46.263-38.78 46.263-38.779-46.263-38.779-46.263z" fill="#e2ae84"/><path d="m380.841 189.92c1.042-17.931.928-34.235-.201-49.051h-249.286c-1.129 14.816-1.243 31.121-.201 49.051z" fill="#26457d"/><path d="m386.648 140.869c-5.089-102.926-69.434-132.869-130.651-132.869s-125.562 29.943-130.651 132.869z" fill="#dc4955"/><path d="m126.925 122.869c-.736 5.737-1.269 11.731-1.579 18h261.302c-.31-6.269-.844-12.263-1.579-18z" fill="#d82f3c"/><path d="m319.435 140.869h-126.87c-18.003 29.643-31.082 33.847-31.086 33.848v37.882c0 52.202 42.318 94.52 94.521 94.52 52.202 0 94.521-42.318 94.521-94.52v-37.882s-13.081-4.203-31.086-33.848z" fill="#f0c69e"/><path d="m256 289.12c-52.202 0-94.521-42.318-94.521-94.52v18c0 52.202 42.318 94.52 94.521 94.52 52.202 0 94.521-42.318 94.521-94.52v-18c0 52.202-42.319 94.52-94.521 94.52z" fill="#e6ba94"/><path d="m161.479 212.599v-37.882c-1.071-.11-2.159-.167-3.259-.167-17.406 0-31.517 14.11-31.517 31.517 0 17.406 14.11 31.517 31.517 31.517 2.202 0 4.351-.227 6.426-.658-2.062-7.763-3.167-15.915-3.167-24.327z" fill="#e2ae84"/><path d="m353.78 174.55c-1.1 0-2.188.057-3.259.167v37.882c0 8.411-1.105 16.564-3.167 24.327 2.075.43 4.224.658 6.426.658 17.406 0 31.517-14.111 31.517-31.517 0-17.407-14.111-31.517-31.517-31.517z" fill="#e2ae84"/><path d="m158.22 219.584c-14.278 0-26.332-9.497-30.206-22.517-.849 2.853-1.311 5.872-1.311 9 0 17.406 14.11 31.517 31.517 31.517 2.202 0 4.351-.227 6.426-.658-1.502-5.656-2.49-11.522-2.919-17.542-1.152.128-2.321.2-3.507.2z" fill="#d7a379"/><path d="m353.78 219.584c-1.186 0-2.355-.071-3.507-.199-.429 6.02-1.416 11.885-2.918 17.542 2.075.43 4.224.658 6.426.658 17.406 0 31.517-14.111 31.517-31.517 0-3.128-.462-6.147-1.311-9-3.875 13.018-15.929 22.516-30.207 22.516z" fill="#d7a379"/><path d="m296.191 140.869h-80.383v-30.174c0-22.197 17.994-40.192 40.191-40.192 22.197 0 40.191 17.994 40.191 40.192v30.174z" fill="#26457d"/><path d="m215.809 113.213h80.383v27.656h-80.383z" fill="#f6e080"/><path d="m215.809 122.869h80.383v18h-80.383z" fill="#eccd61"/></g><g><path d="m407.308 460.877c-4.151 0-7.515 3.365-7.515 7.515v28.579h-44.746v-58.638c0-4.15-3.364-7.515-7.515-7.515s-7.515 3.365-7.515 7.515v58.638h-168.036v-58.638c0-4.15-3.364-7.515-7.515-7.515s-7.515 3.365-7.515 7.515v58.638h-44.746v-73.064c0-16.547 3.606-32.44 10.718-47.236 1.797-3.74.223-8.23-3.518-10.028-3.739-1.796-8.23-.224-10.028 3.518-8.096 16.844-12.202 34.927-12.202 53.747v80.578c0 4.15 3.364 7.515 7.515 7.515h302.616c4.151 0 7.515-3.364 7.515-7.515v-36.094c.002-4.151-3.362-7.515-7.513-7.515z"/><path d="m307.397 300.842c21.201-12.384 37.568-32.178 45.518-55.807.352.009.704.027 1.057.027 21.556 0 39.093-17.537 39.093-39.093 0-6.457-1.583-12.548-4.367-17.92.75-14.085.804-27.546.162-40.159 1.318-.356 2.528-1.058 3.487-2.065 1.419-1.491 2.163-3.497 2.063-5.552-2.442-49.381-18.273-86.604-47.054-110.634-23.223-19.39-54.814-29.639-91.359-29.639-33.072 0-62.376 8.479-84.746 24.518-3.373 2.418-4.147 7.113-1.728 10.486 2.42 3.373 7.113 4.145 10.485 1.728 19.801-14.198 46.078-21.703 75.988-21.703 96.442 0 118.766 70.637 122.866 118.099h-59.304-15.774v-22.718c0-26.349-21.436-47.785-47.785-47.785s-47.785 21.436-47.785 47.785v22.719h-15.774-59.324c2.654-31.9 11.634-57.799 26.74-77.069 2.561-3.266 1.988-7.99-1.278-10.55-3.266-2.561-7.988-1.99-10.55 1.278-18.287 23.328-28.529 54.78-30.444 93.484-.101 2.055.644 4.062 2.063 5.552.958 1.007 2.17 1.709 3.487 2.065-.642 12.621-.588 26.087.163 40.169-2.78 5.37-4.362 11.457-4.362 17.91 0 21.556 17.537 39.093 39.093 39.093.352 0 .704-.018 1.057-.027 7.95 23.628 24.315 43.421 45.514 55.805-30.014 4.081-57.666 19.021-77.641 42.373-2.698 3.154-2.328 7.897.826 10.595 3.153 2.699 7.897 2.328 10.595-.826 18.313-21.41 43.967-34.772 71.659-37.654.968 8.861 4.093 22.911 13.967 33.173 8.037 8.352 18.8 12.586 31.991 12.586s23.954-4.234 31.991-12.586c9.877-10.264 13.001-24.32 13.968-33.181 54.892 5.689 97.837 52.216 97.837 108.586v14.426c0 4.15 3.364 7.515 7.515 7.515s7.515-3.365 7.515-7.515v-14.426c.001-62.794-46.846-114.846-107.425-123.063zm66.819-128.306c-6.356-3.891-14.174-6.017-22.076-5.614-2.537-1.446-9.356-6.145-18.579-18.764h40.266c.409 7.79.538 15.937.389 24.378zm-17.476 57.333c.969-5.643 1.481-11.439 1.481-17.354v-30.226c11.249 2.013 19.815 11.862 19.815 23.681-.001 12.331-9.327 22.521-21.296 23.899zm-100.74-152.214c16.365 0 29.965 12.063 32.375 27.764h-64.751c2.411-15.701 16.011-27.764 32.376-27.764zm-32.755 42.793h65.511v12.681h-65.511zm-89.28 85.521c0-11.819 8.566-21.668 19.815-23.681v30.226c0 5.915.511 11.712 1.48 17.354-11.969-1.377-21.295-11.567-21.295-23.899zm25.897-39.046c-7.905-.403-15.725 1.724-22.084 5.617-.149-8.44-.02-16.588.389-24.382h40.27c-9.217 12.611-16.036 17.316-18.575 18.765zm8.947 45.591v-33.434c5.877-3.704 15.845-12.138 27.807-30.922h118.767c11.948 18.747 22 27.206 27.807 30.901v33.455c0 48.077-39.113 87.191-87.191 87.191s-87.19-39.114-87.19-87.191zm87.188 133.544c-9.045 0-15.951-2.593-21.113-7.928-6.59-6.812-8.946-16.712-9.782-23.396h61.789c-.837 6.689-3.193 16.586-9.782 23.396-5.161 5.335-12.067 7.928-21.112 7.928z"/><path d="m210.11 175.893c-4.151 0-7.515 3.364-7.515 7.515v21.232c0 4.15 3.364 7.515 7.515 7.515s7.515-3.365 7.515-7.515v-21.232c-.001-4.151-3.365-7.515-7.515-7.515z"/><path d="m301.89 212.154c4.151 0 7.515-3.365 7.515-7.515v-21.232c0-4.15-3.364-7.515-7.515-7.515s-7.515 3.364-7.515 7.515v21.232c.001 4.151 3.365 7.515 7.515 7.515z"/><path d="m283.646 245.447c1.579-3.838-.251-8.229-4.088-9.81-3.839-1.58-8.23.25-9.81 4.088-.025.063-2.914 6.341-13.748 6.341s-13.722-6.278-13.748-6.341c-1.58-3.838-5.972-5.667-9.81-4.088-3.838 1.58-5.667 5.972-4.088 9.81 2.393 5.812 10.909 15.649 27.646 15.649s25.252-9.837 27.646-15.649z"/></g></g></svg>