<?xml version="1.0"?>
<svg xmlns="http://www.w3.org/2000/svg" viewBox="0 0 512 512" width="512" height="512"><g id="Fill_out_line" data-name="Fill out line"><path d="M320,207.43994A24.5822,24.5822,0,0,1,295.43994,232H152.56a24.54471,24.54471,0,0,1-23.5-31.67993,24.23791,24.23791,0,0,1,3.07-6.51A70.66661,70.66661,0,0,0,144,154.59V104a80,80,0,1,1,160,0v50.59a70.711,70.711,0,0,0,11.87,39.22009A24.66735,24.66735,0,0,1,320,207.43994Z" style="fill:#2f4054"/><path d="M384.58008,319.83,328,336v64H120V336L64.57,320.15991,76.44,283.03A96.38367,96.38367,0,0,1,168.24,216h1.63a40.01451,40.01451,0,0,0,40-40h32a39.96249,39.96249,0,0,0,40,40,96.38214,96.38214,0,0,1,92.42,69.04Z" style="fill:#8acce7"/><path d="M168,400a24.00619,24.00619,0,0,1-24,24H86.16a39.99584,39.99584,0,0,1-38.23-51.76l16.64-52.08008L120,336v40h24a24.002,24.002,0,0,1,24,24Z" style="fill:#f4ceaf"/><path d="M361.84009,424H288a24,24,0,0,1,0-48h40V336l56.58008-16.17,15.49,52.41A39.99589,39.99589,0,0,1,361.84009,424Z" style="fill:#f4ceaf"/><path d="M266.14,212.79l-4.82995,7.24a44.83828,44.83828,0,0,1-74.62006,0l-4.07-6.1001a40.03969,40.03969,0,0,0,15.53-9.6499c.25995-.26.50995-.52.77-.79A39.88242,39.88242,0,0,0,209.87,176h32a39.80716,39.80716,0,0,0,9.96,26.3999c.57.65015,1.15,1.27,1.76,1.88013A40.1052,40.1052,0,0,0,266.14,212.79Z" style="fill:#f4ceaf"/><path d="M200,144H152a16,16,0,0,1-16-16V112a16,16,0,0,1,16-16h0a16,16,0,0,1,16,16Z" style="fill:#f2c194"/><path d="M296,144H264l16-32a16,16,0,0,1,16-16h0a16,16,0,0,1,16,16v16A16,16,0,0,1,296,144Z" style="fill:#f2c194"/><path d="M251.83,202.3999A71.96948,71.96948,0,0,1,198.92,203.49,39.88242,39.88242,0,0,0,209.87,176h32A39.80716,39.80716,0,0,0,251.83,202.3999Z" style="fill:#f2c194"/><path d="M280,107.92993V136a56,56,0,0,1-112,0V107.92993A11.9156,11.9156,0,0,1,179.93,96a25.20237,25.20237,0,0,0,24.58-19.55,20.00354,20.00354,0,0,1,38.98,0A25.20237,25.20237,0,0,0,268.07007,96,11.92842,11.92842,0,0,1,280,107.92993Z" style="fill:#f4ceaf"/><path d="M432,272V376H336V304H240l-4.35,13.06006A16.01428,16.01428,0,0,1,220.47,328H200a15.99559,15.99559,0,0,1-16-16V272a32.004,32.004,0,0,1,32-32H400A32.004,32.004,0,0,1,432,272Z" style="fill:#c4d4e0"/><rect x="312" y="216" width="64" height="24" rx="11.99999" ry="11.99999" style="fill:#ad7d4d"/><rect x="312" y="160" width="64" height="24" rx="11.99999" ry="11.99999" style="fill:#ad7d4d"/><rect x="328" y="184" width="32" height="32" style="fill:#008051"/><circle cx="384" cy="304" r="16" style="fill:#a6b2bc"/><rect x="432" y="264" width="32" height="56" rx="8" ry="8" style="fill:#a6b2bc"/><rect x="168" y="376" width="288" height="48" rx="8" ry="8" style="fill:#a6b2bc"/><path d="M284,460a28.30384,28.30384,0,0,1,7.14,28H195.13A28.25982,28.25982,0,0,0,188,460a28.2705,28.2705,0,0,1,0-40,28.2705,28.2705,0,0,0,0-40,28.1198,28.1198,0,0,1-7.13-12h96A28.1198,28.1198,0,0,0,284,380a28.27036,28.27036,0,0,1,0,40,28.27036,28.27036,0,0,0,0,40Z" style="fill:#349966"/><circle cx="200" cy="120" r="8"/><circle cx="248" cy="120" r="8"/><path d="M384,328a24,24,0,1,0-24-24A24.02687,24.02687,0,0,0,384,328Zm0-32a8,8,0,1,1-8,8A8.00917,8.00917,0,0,1,384,296Z"/><path d="M464,400V384a16.01833,16.01833,0,0,0-16-16h-8V328h16a16.01833,16.01833,0,0,0,16-16V272a16.01833,16.01833,0,0,0-16-16H440a16.01715,16.01715,0,0,0-3.20361.323A40.0586,40.0586,0,0,0,400,232H383.59692A20.00645,20.00645,0,0,0,368,208.40308V191.59692A20.00055,20.00055,0,0,0,364,152H324a19.86963,19.86963,0,0,0-11.97388,4.01868c-.01074-.4751-.02612-.94959-.02612-1.42591v-8.72363A23.94343,23.94343,0,0,0,320,128V112a23.95645,23.95645,0,0,0-8.61572-18.40283,88.00147,88.00147,0,0,0-174.76856,0A23.95625,23.95625,0,0,0,128,112v16a23.94322,23.94322,0,0,0,8,17.86914v8.72363A62.5067,62.5067,0,0,1,125.46924,189.374a32.54841,32.54841,0,0,0-3.44531,29.35718,104.05161,104.05161,0,0,0-53.20166,61.86353L40.28076,369.88379A47.57959,47.57959,0,0,0,40.86389,400H16v16H50.399A47.47691,47.47691,0,0,0,86.1582,432H144a31.83205,31.83205,0,0,0,19.21106-6.426,16.01185,16.01185,0,0,0,9.46942,6.075A36.50767,36.50767,0,0,0,171.71,440a36.04973,36.04973,0,0,0,10.6333,25.65674,20.28081,20.28081,0,0,1,5.11231,20.08349A8.00026,8.00026,0,0,0,195.12988,496h96.01026a8.0005,8.0005,0,0,0,7.6709-5.72852,36.30508,36.30508,0,0,0-9.1543-35.92822A20.265,20.265,0,0,1,285.35693,432H448a16.01833,16.01833,0,0,0,16-16h32V400Zm-8-128v40H440V272Zm-32,0v96H344V304a7.99977,7.99977,0,0,0-8-8H251.09937l4.49-13.47021-15.17872-5.05958-12.353,37.05909A7.99031,7.99031,0,0,1,220.46777,320H200a8.00917,8.00917,0,0,1-8-8V272a24.02687,24.02687,0,0,1,24-24H400A24.02687,24.02687,0,0,1,424,272ZM285.36108,368a19.92788,19.92788,0,0,1-.8142-2.251A8,8,0,0,0,276.87012,360H216V336h4.46777a23.97027,23.97027,0,0,0,22.76856-16.41064L245.76605,312H328v56ZM160,128v8h-8a8.00917,8.00917,0,0,1-8-8V112a8,8,0,0,1,16,0,8,8,0,0,0,16,0v-4.06641A3.93811,3.93811,0,0,1,179.93359,104a33.07266,33.07266,0,0,0,32.37354-25.75391,12.0002,12.0002,0,0,1,23.38574,0A33.07266,33.07266,0,0,0,268.06641,104,3.93811,3.93811,0,0,1,272,107.93359V112a8,8,0,0,0,16,0,8,8,0,0,1,16,0v16a8.00917,8.00917,0,0,1-8,8h-8v-8H272v8a48,48,0,0,1-96,0v-8Zm52.07544,70.8689a63.37445,63.37445,0,0,0,23.68988.02856,48.13308,48.13308,0,0,0,17.70514,18.36108,36.82563,36.82563,0,0,1-58.99237-.073A48.13146,48.13146,0,0,0,212.07544,198.8689ZM304.40308,232H261.88391a53.07965,53.07965,0,0,0,6.08582-7.53174l.89611-1.34424A47.74683,47.74683,0,0,0,277.957,224H279.585a88.06255,88.06255,0,0,1,24.44263,3.4552c-.00488.18274-.02759.361-.02759.5448A20.01817,20.01817,0,0,0,304.40308,232ZM324,232a4,4,0,0,1,0-8h40a4,4,0,0,1,0,8Zm12-24V192h16v16Zm-12-40h40a4,4,0,0,1,0,8H324a4,4,0,0,1,0-8Zm-14.78174,30.25A16.50861,16.50861,0,0,1,312,207.437h8v.96607a19.93127,19.93127,0,0,0-9.01379,4.44189A103.96537,103.96537,0,0,0,279.585,208H277.957a32.09919,32.09919,0,0,1-26.563-14.17224A64.276,64.276,0,0,0,285.97473,152H296v2.59277A78.45781,78.45781,0,0,0,309.21826,198.25ZM224,32a72.32685,72.32685,0,0,1,70.221,56.07544,23.8784,23.8784,0,0,0-12.91968,4.96411A19.85533,19.85533,0,0,0,268.06641,88a17.1464,17.1464,0,0,1-16.7837-13.35156,27.99965,27.99965,0,0,0-54.56542,0A17.1464,17.1464,0,0,1,179.93359,88a19.85533,19.85533,0,0,0-13.23486,5.03955,23.87839,23.87839,0,0,0-12.91962-4.96411A72.32673,72.32673,0,0,1,224,32ZM136,207.437a16.51136,16.51136,0,0,1,2.78174-9.1875A78.455,78.455,0,0,0,152,154.59277V152h10.02527a64.27753,64.27753,0,0,0,34.44922,41.76819A32.10137,32.10137,0,0,1,169.86914,208h-1.62793A104.8728,104.8728,0,0,0,136.88,212.79041,16.55365,16.55365,0,0,1,136,207.437ZM168.24121,224h1.62793a47.73486,47.73486,0,0,0,9.24683-.90381l.91479,1.37207a52.85056,52.85056,0,0,0,13.93665,14.16944A39.99009,39.99009,0,0,0,176,272v40a24.02687,24.02687,0,0,0,24,24v24H180.87012a7.99044,7.99044,0,0,0-7.98871,8.31006,16.00738,16.00738,0,0,0-9.67035,6.116A31.83205,31.83205,0,0,0,144,368H128V312H112v13.394L74.70563,314.73853l9.35685-29.27173A88.08635,88.08635,0,0,1,168.24121,224ZM144,416H86.1582a32.00086,32.00086,0,0,1-30.61084-41.32764l14.28412-44.68591L112,342.03467V368H72v16h72a16,16,0,0,1,0,32Zm32,0V384h4.78766q.75074.85163,1.5556,1.65674a20.27091,20.27091,0,0,1,0,28.68652c-.53711.53711-1.0484,1.09278-1.54736,1.65674Zm17.65674,38.34326a20.27091,20.27091,0,0,1,0-28.68652A36.27176,36.27176,0,0,0,195.21533,376h12.23285a36.36711,36.36711,0,0,0,6.89508,9.65674,20.27091,20.27091,0,0,1,0,28.68652,36.2698,36.2698,0,0,0,0,51.31348A20.28218,20.28218,0,0,1,220.2807,480H204.28613A36.26579,36.26579,0,0,0,193.65674,454.34326ZM284.29,480H236.27557a36.26855,36.26855,0,0,0-10.61883-25.65674,20.27091,20.27091,0,0,1,0-28.68652A36.25572,36.25572,0,0,0,227.2041,376h44.229a36.38431,36.38431,0,0,0,6.91015,9.65674,20.27091,20.27091,0,0,1,0,28.68652,36.2698,36.2698,0,0,0,0,51.31348A20.15415,20.15415,0,0,1,284.29,480ZM448,416H296.57874a36.34491,36.34491,0,0,0,0-32H448Z"/></g></svg>
