<svg id="Capa_1" enable-background="new 0 0 512 512" height="512" viewBox="0 0 512 512" width="512" xmlns="http://www.w3.org/2000/svg" xmlns:xlink="http://www.w3.org/1999/xlink"><linearGradient id="SVGID_1_" gradientUnits="userSpaceOnUse" x1="74.98" x2="437.019" y1="437.019" y2="74.981"><stop offset="0" stop-color="#560dff"/><stop offset="1" stop-color="#73ecff"/></linearGradient><radialGradient id="SVGID_2_" cx="203.267" cy="308.732" gradientUnits="userSpaceOnUse" r="338.468"><stop offset="0" stop-color="#6b23ea"/><stop offset=".0345" stop-color="#6a2deb" stop-opacity=".966"/><stop offset=".1924" stop-color="#6859ee" stop-opacity=".808"/><stop offset=".3527" stop-color="#667df0" stop-opacity=".647"/><stop offset=".5132" stop-color="#6598f2" stop-opacity=".487"/><stop offset=".6742" stop-color="#64acf4" stop-opacity=".326"/><stop offset=".836" stop-color="#63b8f5" stop-opacity=".164"/><stop offset="1" stop-color="#63bcf5" stop-opacity="0"/></radialGradient><radialGradient id="SVGID_3_" cx="331.042" cy="180.958" gradientUnits="userSpaceOnUse" r="367.67"><stop offset="0" stop-color="#6b23ea"/><stop offset=".0062" stop-color="#6b27ea" stop-opacity=".99"/><stop offset=".0667" stop-color="#694fed" stop-opacity=".888"/><stop offset=".1314" stop-color="#6771f0" stop-opacity=".78"/><stop offset=".2001" stop-color="#668cf2" stop-opacity=".665"/><stop offset=".2742" stop-color="#64a1f3" stop-opacity=".541"/><stop offset=".3562" stop-color="#64b0f4" stop-opacity=".404"/><stop offset=".4524" stop-color="#63b9f5" stop-opacity=".243"/><stop offset=".5979" stop-color="#63bcf5" stop-opacity="0"/></radialGradient><linearGradient id="lg1"><stop offset="0" stop-color="#73ecff"/><stop offset="1" stop-color="#fff"/></linearGradient><linearGradient id="SVGID_4_" gradientUnits="userSpaceOnUse" x1="160.874" x2="482.425" xlink:href="#lg1" y1="351.126" y2="29.575"/><linearGradient id="SVGID_5_" gradientUnits="userSpaceOnUse" x1="376.363" x2="486.478" xlink:href="#lg1" y1="213.17" y2="103.055"/><linearGradient id="SVGID_6_" gradientUnits="userSpaceOnUse" x1="402.632" x2="510.826" xlink:href="#lg1" y1="186.911" y2="78.717"/><linearGradient id="SVGID_7_" gradientUnits="userSpaceOnUse" x1="374.42" x2="435.53" xlink:href="#lg1" y1="168.664" y2="107.554"/><linearGradient id="SVGID_8_" gradientUnits="userSpaceOnUse" x1="267.54" x2="608.207" xlink:href="#lg1" y1="245.548" y2="-95.119"/><linearGradient id="lg2"><stop offset="0" stop-color="#389fff"/><stop offset=".1209" stop-color="#45affa"/><stop offset=".5726" stop-color="#73e9e7"/><stop offset=".79" stop-color="#85ffe0"/><stop offset=".881" stop-color="#9dffe6"/><stop offset="1" stop-color="#c2fff0"/></linearGradient><linearGradient id="SVGID_9_" gradientUnits="userSpaceOnUse" x1="234.709" x2="444.787" xlink:href="#lg2" y1="350.257" y2="140.179"/><linearGradient id="SVGID_10_" gradientUnits="userSpaceOnUse" x1="81.879" x2="455.094" xlink:href="#lg2" y1="407.728" y2="34.513"/><linearGradient id="SVGID_11_" gradientUnits="userSpaceOnUse" x1="307.872" x2="505.316" xlink:href="#lg2" y1="289.846" y2="92.402"/><linearGradient id="SVGID_12_" gradientUnits="userSpaceOnUse" x1="232.467" x2="446.653" xlink:href="#lg2" y1="275.43" y2="61.243"/><radialGradient id="SVGID_13_" cx="201.154" cy="310.846" gradientUnits="userSpaceOnUse" r="308.754"><stop offset=".2559" stop-color="#6b23ea"/><stop offset=".3352" stop-color="#6e66f1" stop-opacity=".739"/><stop offset=".412" stop-color="#70a0f7" stop-opacity=".485"/><stop offset=".4773" stop-color="#72c9fb" stop-opacity=".27"/><stop offset=".5285" stop-color="#73e3fe" stop-opacity=".101"/><stop offset=".5592" stop-color="#73ecff" stop-opacity="0"/></radialGradient><linearGradient id="SVGID_14_" gradientUnits="userSpaceOnUse" x1="-117.59" x2="312.995" xlink:href="#lg1" y1="629.59" y2="199.005"/><linearGradient id="SVGID_15_" gradientUnits="userSpaceOnUse" x1="77.728" x2="190.821" xlink:href="#lg1" y1="285.161" y2="172.068"/><linearGradient id="SVGID_16_" gradientUnits="userSpaceOnUse" x1="99.476" x2="210.234" xlink:href="#lg1" y1="263.425" y2="152.666"/><linearGradient id="SVGID_17_" gradientUnits="userSpaceOnUse" x1="86.566" x2="306.745" y1="427.153" y2="206.974"><stop offset="0" stop-color="#73ecff"/><stop offset=".9396" stop-color="#fff"/></linearGradient><linearGradient id="SVGID_18_" gradientUnits="userSpaceOnUse" x1="84.312" x2="361.744" xlink:href="#lg2" y1="465.484" y2="188.053"/><linearGradient id="SVGID_19_" gradientUnits="userSpaceOnUse" x1="-19.189" x2="417.049" xlink:href="#lg2" y1="510.693" y2="74.455"/><linearGradient id="SVGID_20_" gradientUnits="userSpaceOnUse" x1="-314.266" x2="242.85" xlink:href="#lg2" y1="744.496" y2="187.38"/><linearGradient id="SVGID_21_" gradientUnits="userSpaceOnUse" x1="96.261" x2="312.31" xlink:href="#lg2" y1="402.512" y2="186.462"/><linearGradient id="SVGID_22_" gradientUnits="userSpaceOnUse" x1="209.351" x2="341.643" xlink:href="#lg2" y1="349.305" y2="217.013"/><linearGradient id="SVGID_23_" gradientUnits="userSpaceOnUse" x1="265.512" x2="347.923" xlink:href="#lg1" y1="393.119" y2="310.708"/><linearGradient id="SVGID_24_" gradientUnits="userSpaceOnUse" x1="187.613" x2="389.76" xlink:href="#lg2" y1="429.415" y2="227.269"/><linearGradient id="SVGID_25_" gradientUnits="userSpaceOnUse" x1="105.506" x2="426.201" xlink:href="#lg2" y1="385.096" y2="64.402"/><linearGradient id="lg3"><stop offset="0" stop-color="#170794"/><stop offset="1" stop-color="#63bcf5"/></linearGradient><linearGradient id="SVGID_26_" gradientUnits="userSpaceOnUse" x1="-32.832" x2="273.936" xlink:href="#lg3" y1="545.494" y2="238.726"/><linearGradient id="SVGID_27_" gradientUnits="userSpaceOnUse" x1="-.99" x2="286.102" xlink:href="#lg3" y1="639.171" y2="352.078"/><linearGradient id="SVGID_28_" gradientUnits="userSpaceOnUse" x1="17.066" x2="259.033" xlink:href="#lg3" y1="611.358" y2="369.391"/><g><circle cx="256" cy="256" fill="url(#SVGID_1_)" r="256"/><circle cx="256" cy="256" fill="url(#SVGID_2_)" r="256"/><circle cx="256" cy="256" fill="url(#SVGID_3_)" r="256"/><path d="m330.953 72.292c-57.668-1.294-105.107 47.477-105.523 106.81-.199 59.354 48.113 107.666 107.468 107.468 59.333-.413 108.104-47.857 106.81-105.522-1.468-57.646-51.11-107.288-108.755-108.756z" fill="url(#SVGID_4_)"/><path d="m410.79 165.508c-10.016-1.467-18.253 6.718-16.841 16.662.966 6.773 6.552 12.302 13.398 13.244 10.048 1.38 18.355-6.771 16.891-16.636-.996-6.727-6.623-12.273-13.448-13.27z" fill="url(#SVGID_5_)"/><path d="m411.062 187.915c-6.843-.957-12.437-6.491-13.415-13.26-.234-1.618-.188-3.183.058-4.676-2.882 3.088-4.435 7.434-3.757 12.19.965 6.773 6.553 12.302 13.399 13.244 8.408 1.156 15.58-4.38 16.838-11.988-3.143 3.344-7.888 5.224-13.123 4.49z" fill="url(#SVGID_6_)"/><path d="m394.029 142.38c-4.993-.745-9.085 3.338-8.356 8.319.497 3.394 3.298 6.178 6.707 6.673 5.005.724 9.113-3.346 8.367-8.311-.508-3.381-3.316-6.174-6.718-6.681z" fill="url(#SVGID_7_)"/><path d="m348.311 255.966c-59.435.01-107.703-48.237-107.53-107.644.018-11.17 1.727-21.944 4.853-32.079-12.57 17.699-20.134 39.424-20.203 62.858-.199 59.354 48.113 107.666 107.468 107.468 48.188-.221 89.391-31.826 102.497-74.293-19.185 26.23-51.114 43.692-87.085 43.69z" fill="url(#SVGID_8_)"/><path d="m332.899 286.569c.039-13.359.048-26.719.028-40.078-9.639-.015-19.279-.027-28.918-.037 7.191 14.509 16.827 28.1 28.89 40.115z" fill="url(#SVGID_9_)"/><path d="m330.953 72.292c-45.295 46.318-55.234 117.435-26.945 174.163 6.053 2.737 12.408 4.924 18.995 6.51 22.185-24.044 50.034-105.795 7.95-180.673z" fill="url(#SVGID_10_)"/><path d="m323.003 252.964c1.832 10.014 4.988 21.099 9.895 33.605 9.548-9.509 17.56-19.93 24.026-30.947-2.875-4.972-5.755-9.949-8.639-14.933-8.421 4.077-16.849 8.171-25.282 12.275z" fill="url(#SVGID_11_)"/><path d="m330.953 72.292c37.85 92.818-21.445 106.583-7.95 180.672 8.117 1.956 16.59 2.997 25.307 3.002 2.901.002 5.771-.124 8.614-.344 34.232-57.726 24.042-132.298-25.971-183.33z" fill="url(#SVGID_12_)"/><path d="m330.953 72.292c-57.668-1.294-105.107 47.477-105.523 106.81-.199 59.354 48.113 107.666 107.468 107.468 59.333-.413 108.104-47.857 106.81-105.522-1.468-57.646-51.11-107.288-108.755-108.756z" fill="url(#SVGID_13_)"/><path d="m201.293 172.753c-75.72.819-139.25 62.98-138.311 136.988 1.33 73.984 65.294 137.948 139.278 139.278 74.007.939 136.169-62.592 136.988-138.311.382-75.741-62.214-138.338-137.955-137.955z" fill="url(#SVGID_14_)"/><path d="m125.279 224.558c-10.037-1.185-18.555 7.219-17.326 17.12.838 6.751 6.366 12.199 13.218 13.049 10.057 1.25 18.517-7.143 17.285-17.113-.839-6.791-6.336-12.246-13.177-13.056z" fill="url(#SVGID_15_)"/><path d="m125.028 247.12c-6.85-.841-12.37-6.287-13.198-13.041-.198-1.616-.114-3.186.17-4.686-2.975 3.165-4.635 7.543-4.047 12.285.837 6.75 6.366 12.2 13.218 13.049 8.417 1.046 15.693-4.667 17.126-12.406-3.231 3.454-8.028 5.442-13.269 4.799z" fill="url(#SVGID_16_)"/><path d="m217.003 418.465c-74.628-.878-138.318-64.326-138.93-138.649-.077-15.782 2.711-30.924 7.859-45.067-14.784 21.644-23.331 47.317-22.951 74.991 1.33 73.984 65.294 137.948 139.278 139.278 58.591.825 109.191-38.768 128.803-92.501-25.13 37.267-66.928 62.344-114.059 61.948z" fill="url(#SVGID_17_)"/><path d="m98.512 349.802c4.061 53.585 50.034 98.369 103.748 99.217-.427-32.635-.743-65.27-.948-97.904-34.267-.217-68.533-.654-102.8-1.313z" fill="url(#SVGID_18_)"/><path d="m151.921 254.699c-32.508 17.324-54.395 51.028-53.651 89.739.033 1.797.115 3.588.243 5.364 17.043 27.514 43.267 49.379 73.903 60.561-7.181-51.999-14.119-103.9-20.495-155.664z" fill="url(#SVGID_19_)"/><path d="m201.293 172.753c-.291 35.556-.293 112.613-.245 112.614-.024-.024-49.12-30.727-49.127-30.667 9.017-29.816 25.612-58.093 49.372-81.947z" fill="url(#SVGID_20_)"/><path d="m201.293 172.753c15.889 64.683 32.597 129.635 48.853 194.535 32.199-17.375 54.346-51.893 54.397-91.193-.005-56.965-46.525-103.677-103.25-103.342z" fill="url(#SVGID_21_)"/><path d="m289.17 276.109c-.428-3.421-3.194-6.186-6.62-6.616-5.028-.631-9.258 3.596-8.627 8.624.43 3.426 3.193 6.187 6.618 6.617 5.025.628 9.258-3.601 8.629-8.625z" fill="url(#SVGID_22_)"/><path d="m308.287 356.884c-.403-3.415-3.136-6.156-6.54-6.566-4.998-.603-9.225 3.643-8.622 8.662.41 3.42 3.139 6.166 6.536 6.574 4.984.598 9.216-3.659 8.626-8.67z" fill="url(#SVGID_23_)"/><path d="m202.26 449.019c-.167-12.751-.317-25.502-.45-38.254-9.798-.104-19.596-.238-29.395-.402 8.247 13.735 18.212 26.753 29.845 38.656z" fill="url(#SVGID_24_)"/><path d="m201.293 172.753c-.198 35.562-19.967 66.367-49.372 81.947-15.688 51.462-8.311 107.769 20.495 155.663 6.159 2.243 12.501 4.053 18.995 5.387-.44.309 69.426-131.248 9.882-242.997z" fill="url(#SVGID_25_)"/><path d="m201.293 172.753c52.299 52.463 68.898 127.885 48.853 194.535-.261.104-48.196 81.865-47.886 81.731-54.376-135.428 51.651-140.928-.967-276.266z" fill="url(#SVGID_26_)"/><path d="m207.073 418.009c-3.265 9.671-4.956 20.097-4.813 31.01 9.312-9.533 17.483-19.9 24.527-30.854-.027-5.001-.053-10.002-.078-15.003-6.567 4.967-13.114 9.917-19.636 14.847z" fill="url(#SVGID_27_)"/><path d="m250.084 367.318c-20.213 10.861-35.651 28.855-43.012 50.691 3.281.274 6.591.43 9.93.456 3.291.026 6.552-.084 9.783-.3 10.239-15.924 18.073-33.093 23.359-50.878-.019.011-.039.021-.06.031z" fill="url(#SVGID_28_)"/></g></svg>