<svg height="512pt" viewBox="0 -14 512.00037 512" width="512pt" xmlns="http://www.w3.org/2000/svg"><path d="m62.78125 360.457031c-29.9375-11.75-62.78125 9.5625-62.78125 40.839844 0 42.761719 57.085938 60.339844 82.773438 25.5625-9.542969-16.226563-17.929688-35.832031-19.992188-66.402344zm0 0" fill="#d1d0cf"/><path d="m20.605469 401.296875c0-20.914063 15.082031-38.410156 35.308593-42.929687-28.453124-6.371094-55.914062 14.449218-55.914062 42.929687 0 28.28125 27.234375 49.328125 55.910156 42.925781-20.222656-4.515625-35.304687-22.015625-35.304687-42.925781zm0 0" fill="#afafaf"/><path d="m412.824219 307.804688c43.585937 6.953124 71.875-18.992188 91.96875-39.085938 21.550781-21.554688-9.429688-18.859375-37.714844-62.632812-20.164063-31.210938-50.195313-32.777344-65.777344-31.109376-4.957031.535157-9.054687-3.839843-8.246093-8.761718 4.765624-29.023438 14.1875-110.257813-20.523438-152.835938-41.878906-51.371094-96.339844 52.992188-30.632812 180.160156 3.140624 6.082032 3.402343 13.246094.738281 19.546876-4.125 9.753906-12.914063 23.6875-31.308594 33.953124-31.3125 17.476563-92.714844-57.304687-173.410156-16.714843-87.175781 43.84375-83.585938 119.300781-71.429688 164.890625 8.160157 30.589844 32.050781 60.503906 46.890625 76.878906 7.390625 8.15625 17.878906 12.804688 28.882813 12.804688h171.742187c19.78125 0 7.5625-46.75-28.101562-46.75 43.316406 0 53.679687-26.015626 53.679687-26.015626h.003907c-.40625-.691406 8.972656 15.859376 13.460937 21.054688 10.964844 12.695312 9.644531 23.609375 9.644531 37.570312 0 7.808594 6.332032 14.140626 14.140625 14.140626h53.46875c6.765625 0 11.960938-6.09375 10.785157-12.753907-9.148438-51.8125-72.789063-52.546875-43.371094-87.59375 22.714844-27.066406 15.597656-55.871093 9.769531-69.972656-1.476563-3.570313 1.527344-7.382813 5.339844-6.773437zm0 0" fill="#e4e3e1"/><g fill="#d1d0cf"><path d="m309.269531 248.023438c8.730469 2.308593 16.316407 2.558593 22.664063-.984376 18.390625-10.261718 27.183594-24.199218 31.304687-33.953124 2.664063-6.300782 2.40625-13.464844-.734375-19.546876-48.503906-93.871093-31.527344-175.300781-2.464844-190.851562-38.867187-20.082031-77.4375 76.089844-18.140624 190.851562 3.140624 6.082032 3.402343 13.246094.734374 19.546876-7.96875 18.851562-24.527343 31.246093-33.363281 34.9375zm0 0"/><path d="m133.984375 472.09375c-14.839844-16.375-38.730469-46.285156-46.890625-76.875-12.15625-45.59375-15.742188-121.050781 71.429688-164.894531 13.894531-6.988281 27.21875-10.554688 39.917968-11.761719-18.652344-1.703125-38.894531.882812-60.523437 11.761719-87.175781 43.84375-83.585938 119.300781-71.429688 164.894531 8.160157 30.585938 32.050781 60.5 46.890625 76.875 7.390625 8.15625 17.878906 12.804688 28.882813 12.804688h20.605469c-11.007813 0-21.492188-4.648438-28.882813-12.804688zm0 0"/><path d="m339.644531 412.246094c-4.871093-10.398438-8.554687-24.191406-8.554687-42.164063 0-4.269531-3.457032-7.726562-7.726563-7.726562-4.265625 0-7.726562 3.457031-7.726562 7.726562 0 24.328125 6.015625 42.273438 13.304687 55.089844 8.039063-6.511719 10.640625-13.039063 10.640625-13.039063.011719.019532.03125.058594.0625.113282zm0 0"/></g><path d="m339.582031 66.109375c-2.539062 36.253906 8.546875 71.867187 22.296875 100.292969 8.109375 16.78125 23.269532 17.636718 33.441406 6.527344-1.734374-1.652344-2.695312-4.101563-2.265624-6.714844 4.765624-29.023438 14.1875-110.257813-20.523438-152.835938-.003906 0-29.292969.589844-32.949219 52.730469zm0 0" fill="#f45858"/><path d="m389.367188 176.03125c-2.886719-2.734375-5.152344-6.046875-6.886719-9.628906-30.53125-63.136719-28.433594-125.109375-4.789063-145.910156-1.601562-2.46875-3.316406-4.847657-5.160156-7.113282 0 0-29.292969.589844-32.949219 52.726563-2.539062 36.253906 8.546875 71.871093 22.296875 100.296875 7.265625 15.03125 19.945313 16.640625 28.8125 10.589844-.851562-.558594-1.324218-.960938-1.324218-.960938zm0 0" fill="#dd4040"/><path d="m452.371094 282.414062c-3.050782-2.96875-7.933594-2.910156-10.914063.140626-2.980469 3.050781-2.921875 7.945312.128907 10.925781.390624.378906 6.007812 5.792969 14.363281 10.242187 6.867187-2.558594 13.183593-5.914062 19.023437-9.707031-11.648437-1.199219-22.375-11.386719-22.601562-11.601563zm0 0" fill="#d1d0cf"/><path d="m445.738281 231.484375c0 6.054687-4.910156 10.964844-10.964843 10.964844-6.058594 0-10.96875-4.910157-10.96875-10.964844 0-6.058594 4.910156-10.96875 10.96875-10.96875 6.054687 0 10.964843 4.910156 10.964843 10.96875zm0 0" fill="#525468"/><path d="m285.902344 438.148438-43.550782-.285157c-1.539062-.03125-25.777343-.832031-25.777343-18.109375 0-17.476562 74.480469-38.136718 21.75-101.085937-2.738281-3.269531-7.613281-3.699219-10.882813-.960938-3.269531 2.742188-3.703125 7.613281-.960937 10.886719 44.910156 53.613281-25.359375 58.1875-25.359375 91.160156 0 26.179688 26.867187 33.402344 41.160156 33.566406h40.289062c.511719 0 1.015626.011719 1.515626.035157 0 0 29.125-.539063 39.113281 23.089843 2.230469-13.46875-11.304688-38.296874-37.296875-38.296874zm0 0" fill="#d1d0cf"/></svg>