<?xml version="1.0" encoding="iso-8859-1"?>
<!-- Generator: Adobe Illustrator 19.0.0, SVG Export Plug-In . SVG Version: 6.00 Build 0)  -->
<svg version="1.1" id="Capa_1" xmlns="http://www.w3.org/2000/svg" xmlns:xlink="http://www.w3.org/1999/xlink" x="0px" y="0px"
	 viewBox="0 0 512 512" style="enable-background:new 0 0 512 512;" xml:space="preserve">
<path style="fill:#C9EDF7;" d="M486.332,104.823h10.09c2.845,0,5.151-2.306,5.151-5.151V68.908c0-2.845-2.306-5.151-5.151-5.151
	H15.577c-2.845,0-5.151,2.306-5.151,5.151v30.764c0,2.845,2.306,5.151,5.151,5.151h10.111C9.232,138.629,0,176.557,0,216.683
	C0,317.312,58.061,404.38,142.51,446.216c2.678,1.326,5.62,2.033,8.608,2.03l210.172-0.186c2.988-0.003,5.929-0.714,8.604-2.045
	C454.124,404.103,512,317.152,512,216.683C512,176.574,502.775,138.618,486.332,104.823z"/>
<path style="fill:#68C4FB;" d="M511.995,216.688c0,100.465-57.866,187.414-142.106,229.323c-2.668,1.339-5.615,2.05-8.602,2.05
	l-210.172,0.185c-2.987,0-5.924-0.701-8.602-2.029C58.057,404.38,0.005,317.318,0.005,216.688c0-8.303,0.391-16.504,1.174-24.601
	c117.186-22.077,237.76-32.781,353.061,0.546C394.799,204.346,453.603,217.45,511.995,216.688z"/>
<path style="fill:#AEE1ED;" d="M511.995,216.687c0,100.46-57.87,187.412-142.092,229.328c-2.68,1.334-5.628,2.046-8.621,2.046
	h-53.39c86.506-41.084,146.309-129.249,146.309-231.373c0-39.726-9.042-77.33-25.194-110.872c-0.314-0.652-0.483-1.362-0.492-2.086
	L428,63.754h68.418c2.845,0,5.151,2.306,5.151,5.151v30.772c0,2.845-2.306,5.151-5.151,5.151h-10.086
	C502.775,138.618,511.995,176.571,511.995,216.687z"/>
<path style="fill:#42A7F9;" d="M511.995,216.687c0,100.455-57.866,187.415-142.096,229.323c-2.679,1.339-5.625,2.05-8.623,2.05
	h-53.385C394.397,406.976,454.2,318.811,454.2,216.687c0-1.102-0.01-2.205-0.031-3.297
	C473.033,215.657,492.534,216.945,511.995,216.687z"/>
<path style="fill:#94E061;" d="M370.5,379.396c-7.1-17.46-8.45-31.82-3.8-40.44c1.97-3.64,0.61-8.19-3.03-10.16
	c-3.64-1.97-8.19-0.61-10.16,3.03c-8.75,16.19-3.15,37.88,3.1,53.23c7.64,18.77,4.29,39.73-8.75,54.68c-1.13,1.29-2.1,2.31-2.78,3
	c-2.82-2-21.12-16.95-12.02-61.91c5.54-26.88,9.92-51.12,7.3-75.53c-0.62-5.69-2.01-11.97-3.49-18.61
	c-5.22-23.53-7.97-40.89,4.32-50.09c3.32-2.48,4-7.18,1.51-10.5c-2.48-3.32-7.18-3.99-10.49-1.51c-21,15.71-14.89,43.23-9.98,65.35
	c1.38,6.22,2.69,12.1,3.21,16.96c2.4,22.26-1.79,45.28-7.08,70.93c-7.87,38.88,2.56,60.11,10.9,70.26l12.38-0.01h0.63l18.19-0.02
	C376.17,428.926,380.03,402.816,370.5,379.396z"/>
<path style="fill:#42A7F9;" d="M213.833,227.746l-29.538,0.05c0,0,0,0-41.795,0c15.73-25.1,45.65-31.19,60.43-32.64
	c5.19-0.52,10.18,2.21,12.82,7l10.34,18.77L213.833,227.746z"/>
<path style="fill:#F5CA26;" d="M101.554,267.194c7.641-16.032,20.374-28.848,36.083-37.04c12.21-6.368,25.756-10.019,39.405-11.559
	c3.1-0.35,6.212-0.59,9.329-0.709c12.839-0.49,25.793,0.026,38.421,2.746c17.749,3.822,34.859,11.726,47.746,24.741
	c0.445,0.45,5.132,5.465,5.009,5.571c2.121-1.818,4.871-2.923,7.883-2.923c6.698,0,12.128,5.43,12.128,12.128
	c0,3.627-1.601,6.873-4.125,9.096c2.524,2.222,4.125,5.468,4.125,9.096c0,6.698-5.43,12.128-12.128,12.128
	c-3.012,0-5.762-1.105-7.883-2.923c-29.957,36.734-82.873,33.037-82.873,33.037s-67.385,4.708-93.12-49.287
	C100.937,270.003,100.937,268.487,101.554,267.194z"/>
<g>
	<path style="fill:#42A7F9;" d="M201.885,264.752c-2.538,3.031-6.313,5.675-8.128,7.155c-3.073,2.506-6.421,4.673-9.955,6.47
		c-8.674,4.41-18.329,6.418-28.013,6.399c-2.834-0.006-5.033-2.64-4.292-5.375c1.094-4.042,4.083-7.882,6.791-10.42
		c7.073-6.631,18.745-11.764,28.006-13.74c4.449-0.949,14.122-3.408,17.223,1.109C205.402,259.097,204.125,262.076,201.885,264.752z
		"/>
	<path style="fill:#42A7F9;" d="M112.718,271.865c-4.977,8.379-22.185,34.193-47.266,37.961c-3.315,0.498-6.257-2.217-6.118-5.566
		c0.346-8.311,2.098-23.195,9.87-31.453c1.867-1.983,1.867-5.139,0-7.122c-7.772-8.258-9.524-23.143-9.87-31.453
		c-0.139-3.349,2.803-6.064,6.118-5.566c25.081,3.768,42.29,29.582,47.266,37.961C113.68,268.243,113.68,270.247,112.718,271.865z"
		/>
</g>
<circle style="fill:#6D5050;" cx="248.5" cy="253.72" r="7.5"/>
<g>
</g>
<g>
</g>
<g>
</g>
<g>
</g>
<g>
</g>
<g>
</g>
<g>
</g>
<g>
</g>
<g>
</g>
<g>
</g>
<g>
</g>
<g>
</g>
<g>
</g>
<g>
</g>
<g>
</g>
</svg>
