<svg id="Flat" height="512" viewBox="0 0 512 512" width="512" xmlns="http://www.w3.org/2000/svg"><path d="m104 32-80 184h160z" fill="#e4bc43"/><path d="m104 32v96h304v-96zm232 48a16 16 0 0 1 -16 16h-128a16 16 0 0 1 -16-16 16 16 0 0 1 16-16h128a16 16 0 0 1 16 16z" fill="#fdd14b"/><path d="m24 216h320v240h-320z" fill="#fdd14b"/><path d="m328 216h160v240h-160z" fill="#f0c647"/><path d="m64 328h224v64h-224z" fill="#fc8d36"/><path d="m64 392h224v32h-224z" fill="#794832"/><path d="m176 288.35a8 8 0 0 1 -8-8c0-12.982 5.817-23.082 16.381-28.441a37.369 37.369 0 0 1 15.619-3.909 8 8 0 0 1 0 16 21.734 21.734 0 0 0 -8.758 2.375c-4.942 2.667-7.242 7.107-7.242 13.975a8 8 0 0 1 -8 8z" fill="#25744e"/><path d="m328 216h-304l80-88h296z" fill="#f0c647"/><path d="m408 32-80 184h160z" fill="#e4bc43"/><path d="m408 32h16a32 32 0 0 1 32 32v64a0 0 0 0 1 0 0h-48a0 0 0 0 1 0 0v-96a0 0 0 0 1 0 0z" fill="#fdd14b"/><path d="m288 343.548c0 8.615-6.621 16.029-15.227 16.434a16 16 0 0 1 -16.773-15.982 16 16 0 0 0 -32-.2 16.149 16.149 0 0 1 -16 16.2 16 16 0 0 1 -16-16 16 16 0 0 0 -16-16 16 16 0 0 0 -16 16 16 16 0 0 1 -16 16 16 16 0 0 1 -16-16 16 16 0 0 0 -16-16 16 16 0 0 0 -16 16 16 16 0 0 1 -16 16 16 16 0 0 1 -16-16v-24a16 16 0 0 1 16-16h192a16 16 0 0 1 16 16z" fill="#fae8d8"/><path d="m64 384h224v16h-224z" fill="#fae8d8"/><circle cx="176" cy="288" fill="#e74444" r="16"/></svg>