<svg id="Capa_1" enable-background="new 0 0 512.006 512.006" height="512" viewBox="0 0 512.006 512.006" width="512" xmlns="http://www.w3.org/2000/svg"><g><path d="m256.003 210.006h-15v242h15 15v-242z" fill="#59c36a"/><path d="m256.003 210.006h15v242h-15z" fill="#00a66c"/><path d="m458.342 294.667c-4.014-4.028-9.976-5.449-15.381-3.618-4.043 1.362-99.741 33.896-154.321 88.477-15.233 15.233-25.488 30.505-32.637 44.89-7.148-14.385-17.404-29.658-32.637-44.89-54.58-54.58-150.278-87.114-154.321-88.477-5.42-1.831-11.353-.41-15.381 3.618s-5.42 9.976-3.618 15.381c1.362 4.043 33.896 99.741 88.477 154.321 41.484 41.484 83.818 47.637 105.264 47.637h12.217 12.217c21.445 0 63.779-6.152 105.264-47.637 54.58-54.58 87.114-150.278 88.477-154.321 1.8-5.406.408-11.353-3.62-15.381z" fill="#97de3d"/><path d="m373.483 464.369c54.58-54.58 87.114-150.278 88.477-154.321 1.802-5.405.41-11.353-3.618-15.381-4.014-4.028-9.976-5.449-15.381-3.618-4.043 1.362-99.741 33.896-154.321 88.477-15.233 15.233-25.488 30.505-32.637 44.89v87.59h12.217c21.445 0 63.779-6.153 105.263-47.637z" fill="#59c36a"/><path d="m352.712 1.588c-6.519-3.252-14.355-1.377-18.706 4.424l-45.161 60.22-32.842 173.774h7.075c97.412 0 157.925-49.014 157.925-127.925 0-47.095-26.162-89.429-68.291-110.493z" fill="#cd0000"/><path d="m223.161 66.231-45.161-60.22c-4.351-5.801-12.231-7.676-18.706-4.424-42.129 21.064-68.291 63.398-68.291 110.493 0 78.911 60.513 127.925 157.925 127.925h7.075z" fill="#f03800"/><path d="m266.008 3.829c-2.842-2.549-6.423-3.823-10.005-3.823s-7.163 1.274-10.005 3.823c-2.651 2.373-64.995 59.033-64.995 131.177 0 75.601 66.65 102.832 69.478 103.945 1.772.703 3.647 1.055 5.522 1.055 1.874 0 3.75-.352 5.522-1.055 2.827-1.113 69.478-28.345 69.478-103.945 0-72.144-62.344-128.804-64.995-131.177z" fill="#ff641a"/><path d="m331.003 135.006c0-72.144-62.344-128.804-64.995-131.177-2.842-2.549-6.423-3.823-10.005-3.823v240c1.874 0 3.75-.352 5.522-1.055 2.827-1.113 69.478-28.345 69.478-103.945z" fill="#f03800"/></g></svg>