<?xml version="1.0" encoding="iso-8859-1"?>
<!-- Generator: Adobe Illustrator 19.0.0, SVG Export Plug-In . SVG Version: 6.00 Build 0)  -->
<svg version="1.1" id="Capa_1" xmlns="http://www.w3.org/2000/svg" xmlns:xlink="http://www.w3.org/1999/xlink" x="0px" y="0px"
	 viewBox="0 0 469.347 469.347" style="enable-background:new 0 0 469.347 469.347;" xml:space="preserve">
<g>
	<path d="M234.673,75.173c12.039,0,21.833-9.794,21.833-21.833s-9.794-21.833-21.833-21.833S212.84,41.301,212.84,53.34
		S222.635,75.173,234.673,75.173z M234.673,46.507c3.768,0,6.833,3.065,6.833,6.833s-3.065,6.833-6.833,6.833
		s-6.833-3.065-6.833-6.833S230.906,46.507,234.673,46.507z"/>
	<path d="M461.847,361.506H434.84V71.34c0-16.267-13.233-29.5-29.5-29.5h-72.901c-26.151-26.035-60.742-40.334-97.765-40.334
		S163.06,15.805,136.908,41.84H64.007c-16.267,0-29.5,13.233-29.5,29.5v290.166H7.5c-4.142,0-7.5,3.357-7.5,7.5v30
		c0,4.143,3.358,7.5,7.5,7.5h37.908c-0.001,0.167-0.013,0.332-0.013,0.5c0,33.544,27.29,60.834,60.833,60.834
		s60.833-27.29,60.833-60.834c0-11.111-3.008-21.526-8.232-30.5h151.686c-2.706,4.648-4.821,9.679-6.224,15H188.964
		c-4.142,0-7.5,3.357-7.5,7.5s3.358,7.5,7.5,7.5h113.333c-0.001,0.167-0.013,0.332-0.013,0.5c0,33.544,27.29,60.834,60.833,60.834
		s60.833-27.29,60.833-60.834c0-11.111-3.008-21.526-8.232-30.5h38.628v15h-8.494c-4.142,0-7.5,3.357-7.5,7.5s3.358,7.5,7.5,7.5
		h15.994c4.142,0,7.5-3.357,7.5-7.5v-30C469.347,364.864,465.989,361.506,461.847,361.506z M363.118,119.84
		c-4.142,0-7.5,3.357-7.5,7.5v184.166h-49.222V127.34c0-4.143-3.358-7.5-7.5-7.5s-7.5,3.357-7.5,7.5v184.166h-48.889V127.673
		c0-4.143-3.358-7.5-7.5-7.5s-7.5,3.357-7.5,7.5v183.833h-49.556V127.34c0-4.143-3.358-7.5-7.5-7.5s-7.5,3.357-7.5,7.5v184.166
		h-49.222V127.34c0-4.143-3.358-7.5-7.5-7.5s-7.5,3.357-7.5,7.5v184.166H49.507V104.84H419.84v206.666h-49.222V127.34
		C370.618,123.198,367.26,119.84,363.118,119.84z M64.007,56.84h76.047c2.042,0,3.996-0.833,5.41-2.306
		c23.547-24.522,55.229-38.028,89.209-38.028s65.662,13.506,89.209,38.028c1.414,1.473,3.368,2.306,5.41,2.306h76.047
		c7.995,0,14.5,6.505,14.5,14.5v18.5H49.507v-18.5C49.507,63.345,56.012,56.84,64.007,56.84z M49.507,326.506H419.84v35h-16.405
		c-10.742-9.53-24.862-15.333-40.317-15.333s-29.575,5.803-40.317,15.333H146.546c-10.742-9.53-24.862-15.333-40.317-15.333
		s-29.575,5.803-40.317,15.333H49.507V326.506z M15,391.506v-15h38.628c-2.706,4.648-4.821,9.679-6.224,15H15z M106.229,452.84
		c-25.272,0-45.833-20.562-45.833-45.834s20.561-45.833,45.833-45.833s45.833,20.561,45.833,45.833S131.501,452.84,106.229,452.84z
		 M363.118,452.84c-25.272,0-45.833-20.562-45.833-45.834s20.561-45.833,45.833-45.833s45.833,20.561,45.833,45.833
		S388.39,452.84,363.118,452.84z"/>
	<path d="M106.229,376.173c-17.001,0-30.833,13.832-30.833,30.834c0,4.143,3.358,7.5,7.5,7.5s7.5-3.357,7.5-7.5
		c0-8.73,7.103-15.834,15.833-15.834s15.833,7.104,15.833,15.834s-7.103,15.833-15.833,15.833c-4.142,0-7.5,3.357-7.5,7.5
		s3.358,7.5,7.5,7.5c17.001,0,30.833-13.832,30.833-30.833C137.063,390.005,123.23,376.173,106.229,376.173z"/>
	<path d="M363.118,376.173c-17.001,0-30.833,13.832-30.833,30.834c0,4.143,3.358,7.5,7.5,7.5s7.5-3.357,7.5-7.5
		c0-8.73,7.103-15.834,15.833-15.834s15.833,7.104,15.833,15.834s-7.103,15.833-15.833,15.833c-4.142,0-7.5,3.357-7.5,7.5
		s3.358,7.5,7.5,7.5c17.001,0,30.833-13.832,30.833-30.833C393.951,390.005,380.119,376.173,363.118,376.173z"/>
</g>
<g>
</g>
<g>
</g>
<g>
</g>
<g>
</g>
<g>
</g>
<g>
</g>
<g>
</g>
<g>
</g>
<g>
</g>
<g>
</g>
<g>
</g>
<g>
</g>
<g>
</g>
<g>
</g>
<g>
</g>
</svg>
