<?xml version="1.0" encoding="iso-8859-1"?>
<!-- Generator: Adobe Illustrator 19.0.0, SVG Export Plug-In . SVG Version: 6.00 Build 0)  -->
<svg version="1.1" id="Layer_1" xmlns="http://www.w3.org/2000/svg" xmlns:xlink="http://www.w3.org/1999/xlink" x="0px" y="0px"
	 viewBox="0 0 488 488" style="enable-background:new 0 0 488 488;" xml:space="preserve">
<circle style="fill:#F0F7F7;" cx="244" cy="244" r="244"/>
<path style="fill:#B2CECE;" d="M488,244c0,134.4-109.6,244-244,244S0,378.4,0,244"/>
<path style="fill:#D1E7E8;" d="M488,244c0,134.4-109.6,228.8-244,228.8S0,378.4,0,244S109.6,15.2,244,15.2S488,109.6,488,244z"/>
<g>
	<path style="fill:#BFDBDB;" d="M244,15.2c134.4,0,244,93.6,244,228.8c0,134.4-109.6,228.8-244,228.8"/>
	<path style="fill:#BFDBDB;" d="M428,244c0,101.6-82.4,172.8-184,172.8S60,345.6,60,244S142.4,58.4,244,58.4S428,142.4,428,244z"/>
	<path style="fill:#BFDBDB;" d="M428,244c0,101.6-82.4,188-184,188S60,345.6,60,244S142.4,71.2,244,71.2S428,142.4,428,244z"/>
</g>
<path style="fill:#DAEFEF;" d="M428,244c0,101.6-82.4,172.8-184,172.8S60,345.6,60,244S142.4,71.2,244,71.2S428,142.4,428,244z"/>
<path style="fill:#C5E2E2;" d="M244,71.2c101.6,0,184,71.2,184,172.8s-82.4,172.8-184,172.8"/>
<path style="fill:#F0F7F7;" d="M244,379.2c-81.6,0-142.4-57.6-142.4-133.6S162.4,111.2,244,111.2s142.4,57.6,142.4,133.6
	S325.6,379.2,244,379.2z M244,126.4c-72.8,0-127.2,51.2-127.2,118.4c0,68,54.4,119.2,127.2,119.2s127.2-51.2,127.2-118.4
	C371.2,177.6,316.8,126.4,244,126.4z"/>
<path style="fill:#E7F7F6;" d="M371.2,245.6c0,67.2-54.4,118.4-127.2,118.4v15.2c81.6,0,142.4-57.6,142.4-133.6
	S325.6,111.2,244,111.2v15.2C316.8,126.4,371.2,177.6,371.2,245.6z"/>
<g>
</g>
<g>
</g>
<g>
</g>
<g>
</g>
<g>
</g>
<g>
</g>
<g>
</g>
<g>
</g>
<g>
</g>
<g>
</g>
<g>
</g>
<g>
</g>
<g>
</g>
<g>
</g>
<g>
</g>
</svg>
