<svg height="512" viewBox="0 0 512 512" width="512" xmlns="http://www.w3.org/2000/svg"><path d="m240.171 196.839h34a0 0 0 0 1 0 0v93a17 17 0 0 1 -17 17 17 17 0 0 1 -17-17v-93a0 0 0 0 1 0 0z" fill="#ffd3b3" transform="matrix(.978 -.209 .209 .978 -47.032 59.432)"/><path d="m262.277 194.5-8.585-40.092a16.973 16.973 0 0 0 -16.626-13.408c-1.173 0-118.828 0-120 0a16.973 16.973 0 0 0 -16.627 13.407l-8.585 40.093 33.246 7.119 1.966-9.958v87.339h100v-87.339l1.965 9.957z" fill="#ffe352"/><path d="m262.277 194.498-33.246 7.12-1.549-7.85 33.12-7.092z" fill="#ffb236"/><path d="m96.96 196.839a17 17 0 0 1 17 17v93a0 0 0 0 1 0 0h-34a0 0 0 0 1 0 0v-93a17 17 0 0 1 17-17z" fill="#ffd3b3" transform="matrix(-.978 -.209 .209 -.978 139.038 518.398)"/><path d="m91.854 194.498 33.246 7.12 1.55-7.85-33.121-7.092z" fill="#ffb236"/><path d="m217.066 66h4a6 6 0 0 1 6 6v18a6 6 0 0 1 -6 6h-4a0 0 0 0 1 0 0v-30a0 0 0 0 1 0 0z" fill="#ffd3b3"/><path d="m127.066 66h4a6 6 0 0 1 6 6v18a6 6 0 0 1 -6 6h-4a0 0 0 0 1 0 0v-30a0 0 0 0 1 0 0z" fill="#ffd3b3" transform="matrix(-1 0 0 -1 264.131 162)"/><path d="m177.066 168a27.031 27.031 0 0 0 27-27h-54a27.03 27.03 0 0 0 27 27z" fill="#ffb236"/><path d="m160.066 129h34a0 0 0 0 1 0 0v12a17 17 0 0 1 -17 17 17 17 0 0 1 -17-17v-12a0 0 0 0 1 0 0z" fill="#fcb98b"/><path d="m127.066 279v203h42v-161h16v161h42v-203z" fill="#6e83b7"/><path d="m182.066 502h48v-9a24 24 0 0 0 -24-24 24 24 0 0 0 -24 24z" fill="#d3d3d3"/><path d="m124.066 502h48v-9a24 24 0 0 0 -24-24 24 24 0 0 0 -24 24z" fill="#d3d3d3"/><path d="m137.066 49.714h80a0 0 0 0 1 0 0v47.286a40 40 0 0 1 -40 40 40 40 0 0 1 -40-40v-47.286a0 0 0 0 1 0 0z" fill="#ffd3b3"/><path d="m177.066 10a44 44 0 0 0 -44 44v12h3.934l.066 30 8-30h64l8 30-.066-30h4.066v-12a44 44 0 0 0 -44-44z" fill="#6e83b7"/><rect fill="#80d6fb" height="210" rx="20" width="140" x="300" y="268"/><path d="m330 206h80v20h-80z" fill="#80d6fb"/><path d="m340 226h10v42h-10z" fill="#d3d3d3"/><g fill="#46bee8"><rect height="140" rx="5" width="10" x="379" y="303"/><rect height="140" rx="5" width="10" x="408" y="303"/><rect height="140" rx="5" transform="matrix(-1 0 0 -1 712 746)" width="10" x="351" y="303"/><rect height="140" rx="5" transform="matrix(-1 0 0 -1 654 746)" width="10" x="322" y="303"/></g><path d="m390 226h10v42h-10z" fill="#d3d3d3" transform="matrix(-1 0 0 -1 790 494)"/><circle cx="420" cy="482" fill="#6e83b7" r="20"/><circle cx="420" cy="482" fill="#466089" r="10"/><circle cx="320" cy="482" fill="#6e83b7" r="20"/><circle cx="320" cy="482" fill="#466089" r="10"/></svg>