<svg enable-background="new 0 0 100 100" height="512" viewBox="0 0 100 100" width="512" xmlns="http://www.w3.org/2000/svg"><path d="m78.6239166 27.6239128-6.2500458-6.2500401c-23.5635375 19.4681035-45.079544 40.9841099-64.5476469 64.5476513l6.2500396 6.2500381c22.8299789-20.2016601 44.3459853-41.7176703 64.5476531-64.5476493zm-52.1241474 45.3239098c-.7487621-.748764 6.303484-9.0082779 15.7472363-18.4520302s17.6956215-16.4883499 18.4443817-15.7395859c.748764.7487602-6.2958336 9.0006294-15.7395859 18.4443817s-17.70327 16.4959984-18.4520321 15.7472344z" fill="#ededed"/><path d="m87.8002625 12.1974297c-9.5966187-9.5966196-25.1681366-9.5965261-34.7646599 0-9.6042709 9.604269-56.3417625 71.9131927-46.7451439 81.5098114 9.6042681 9.6042633 71.9055405-37.1408768 81.5098038-46.7451439 9.5965271-9.5965309 9.6042709-25.1603985 0-34.7646675zm-71.1339226 71.1339225c-6.5250893-6.5250854 25.2445221-48.869152 31.7696151-55.3942413s17.0995369-6.5250912 23.62463 0c6.5250854 6.5250893 6.5250854 17.0995407 0 23.62463-6.5250931 6.5250892-48.8691559 38.2947044-55.3942451 31.7696113z" fill="#4da0dc"/><circle cx="11.285" cy="88.857" fill="#4288b9" r="2.724"/></svg>