<svg height="512" viewBox="0 0 512 512" width="512" xmlns="http://www.w3.org/2000/svg"><g id="Flat"><path d="m288 384v64 40h32v-104z" fill="#f98500"/><path d="m256 384v64l-64-8v48h96v-104z" fill="#ffb531"/><path d="m92.42 58.15-36.42 21.85-21.79 5.45a13.476 13.476 0 0 0 3.27 26.55h74.52v-48z" fill="#ffb531"/><path d="m432.569 261.65-215.8-68.236a24 24 0 0 1 -16.769-22.883v-90.531a56 56 0 0 0 -56-56 56 56 0 0 0 -56 56v32h48l-19.77 85.669a165.187 165.187 0 0 0 -4.23 37.144 165.187 165.187 0 0 0 165.187 165.187h60.4a165.186 165.186 0 0 0 135.7-70.987l2.418-3.482a93.384 93.384 0 0 0 12.295-46.331v-31.2l-40.606 13.535a23.993 23.993 0 0 1 -14.825.115z" fill="#e0e0de"/><path d="m488 248v31.2a93.409 93.409 0 0 1 -12.3 46.33l-2.42 3.48a165.178 165.178 0 0 1 -135.7 70.99h-60.39a165.187 165.187 0 0 1 -160.96-202.33l19.77-85.67h-48v-32a56 56 0 0 1 112 0v90.53a23.985 23.985 0 0 0 16.76 22.88l167.36 52.92 48.45 15.32a23.977 23.977 0 0 0 14.82-.11z" fill="#dbdbd9"/><path d="m488 248v31.2a93.409 93.409 0 0 1 -12.3 46.33l-2.42 3.48a165.178 165.178 0 0 1 -135.7 70.99h-60.39a165.3 165.3 0 0 1 -137.01-72.88c80.79-15.57 167.38-40.62 243.94-80.79l48.45 15.32a23.977 23.977 0 0 0 14.82-.11z" fill="#d6d6d4"/><path d="m128 64h16v16h-16z" fill="#a3a3a1"/><g fill="#c7c7c5"><path d="m328.446 360h-18.326a126.118 126.118 0 0 1 -126.12-126.12v-17.88a8 8 0 0 1 16 0v17.88a110.12 110.12 0 0 0 110.12 110.12h18.326a107.778 107.778 0 0 0 96.4-59.578 8 8 0 1 1 14.31 7.156 123.774 123.774 0 0 1 -110.71 68.422z"/><path d="m416 320a7.973 7.973 0 0 1 -2.662-.458l-136-48a8 8 0 1 1 5.324-15.088l136 48a8 8 0 0 1 -2.662 15.546z"/><path d="m368 352a7.977 7.977 0 0 1 -3.074-.617l-96-40a8 8 0 0 1 6.154-14.77l96 40a8 8 0 0 1 -3.08 15.387z"/></g></g></svg>