<svg id="Capa_1" enable-background="new 0 0 512 512" height="512" viewBox="0 0 512 512" width="512" xmlns="http://www.w3.org/2000/svg"><g><g><path d="m376 52.018v-24.518h-240v24.865c0 15.492-7.365 29.977-19.667 39.393-54.959 42.066-90.391 108.357-90.333 182.926.099 126.715 103.718 230.049 230.433 229.816 126.826-.234 229.567-103.119 229.567-230 0-74.432-35.36-140.6-90.195-182.637-12.421-9.521-19.805-24.195-19.805-39.845z" fill="#98dae3"/></g><g><path d="m125.072 274.684c-.058-74.569 35.374-140.86 90.333-182.926 12.302-9.416 19.667-23.901 19.667-39.393v-24.865h-99.072v24.865c0 15.492-7.365 29.977-19.667 39.393-54.959 42.066-90.391 108.357-90.333 182.926.099 126.715 103.718 230.049 230.433 229.816 16.894-.031 33.355-1.901 49.208-5.389-102.941-22.726-180.483-114.822-180.569-224.427z" fill="#88c8e9"/></g><g><path d="m394.5 47.5h-277c-11.046 0-20-8.954-20-20 0-11.046 8.954-20 20-20h277c11.046 0 20 8.954 20 20 0 11.046-8.954 20-20 20z" fill="#ade9f0"/></g><g><path d="m197.5 27.5c0-11.046 8.954-20 20-20h-100c-11.046 0-20 8.954-20 20s8.954 20 20 20h100c-11.046 0-20-8.954-20-20z" fill="#98dae3"/></g><g><path d="m256.006 389.298 167.418-24.798c14.743-27.341 22.576-58.07 22.576-90 0-41.473-13.161-80.724-37.135-112.998-4.883-6.574-13.353-9.377-21.251-7.218-7.228 1.976-15.745 3.216-26.437 3.216-52.592 0-52.592-30-105.184-30-52.59 0-52.59 30-105.179 30-10.689 0-19.205-1.24-26.432-3.215-7.899-2.159-16.368.645-21.252 7.218-24.002 32.311-37.163 71.613-37.13 113.15.014 17.906 2.527 35.444 7.353 52.231z" fill="#ade9f0"/></g><g><path d="m137.446 348.785c-7.99-23.267-12.354-48.191-12.375-74.101-.034-42.862 11.677-82.978 32.064-117.341-2.023.101-4.122.157-6.321.157-10.689 0-19.205-1.24-26.432-3.215-7.899-2.159-16.368.645-21.252 7.218-24.002 32.311-37.163 71.613-37.13 113.15.014 17.906 2.527 35.444 7.353 52.231z" fill="#98dae3"/></g><g><path d="m322.256 294.918c0-17.692-12.815-17.692-12.815-35.384 0-14.155 11.475-35.384 25.631-35.384s25.631 21.228 25.631 35.384c0 17.692-12.815 17.692-12.815 35.384s12.815 17.692 12.815 35.384-12.815 17.692-12.815 35.385 12.815 17.693 12.815 35.386-17.087 17.693-17.087 35.386h-17.087c0-17.693-17.087-17.693-17.087-35.386s12.815-17.693 12.815-35.386c0-17.692-12.815-17.692-12.815-35.385-.001-17.692 12.814-17.692 12.814-35.384z" fill="#68bf97"/></g><g><path d="m329.441 401.073c0-17.693 12.815-17.693 12.815-35.386 0-17.692-12.815-17.692-12.815-35.385 0-17.692 12.815-17.692 12.815-35.384s-12.815-17.692-12.815-35.384c0-10.607 6.444-25.186 15.631-31.828-3.073-2.222-6.452-3.556-10-3.556-14.156 0-25.631 21.228-25.631 35.384 0 17.692 12.815 17.692 12.815 35.384s-12.815 17.692-12.815 35.384 12.815 17.692 12.815 35.385-12.815 17.693-12.815 35.386 17.087 17.693 17.087 35.386h17.087c0-3.171.555-5.768 1.456-8.006-4.126-10.249-15.63-12.858-15.63-27.38z" fill="#56a97d"/></g><g><path d="m239.28 266.79c0-23.083-16.72-23.083-16.72-46.166 0-18.469 14.972-46.165 33.441-46.165s33.441 27.697 33.441 46.165c0 23.083-16.72 23.083-16.72 46.166s16.72 23.083 16.72 46.165c0 23.083-16.72 23.083-16.72 46.166 0 23.084 16.72 23.084 16.72 46.169 0 23.084-22.294 23.084-22.294 46.169h-22.294c0-23.084-22.294-23.084-22.294-46.169 0-23.084 16.72-23.084 16.72-46.169 0-23.083-16.72-23.083-16.72-46.166-.001-23.082 16.72-23.082 16.72-46.165z" fill="#68bf97"/></g><g><path d="m259.28 359.122c0-23.083-16.72-23.083-16.72-46.167 0-23.083 16.72-23.083 16.72-46.165 0-23.083-16.72-23.083-16.72-46.166 0-14.985 9.857-36.043 23.441-43.455-3.158-1.723-6.516-2.71-10-2.71-18.469 0-33.441 27.697-33.441 46.165 0 23.083 16.72 23.083 16.72 46.166s-16.72 23.083-16.72 46.165c0 23.083 16.72 23.083 16.72 46.167s-16.72 23.084-16.72 46.169c0 23.084 22.294 23.084 22.294 46.169h20c0-23.084-22.294-23.084-22.294-46.169-.001-23.085 16.72-23.085 16.72-46.169z" fill="#56a97d"/></g><g><path d="m304.081 364.5c-31.728 0-63.131-6.397-92.331-18.808-29.2-12.411-60.603-18.808-92.331-18.808h-46.066c8.79 30.581 25.281 58.66 48.514 81.87 35.982 35.946 83.621 55.743 134.14 55.746h.354c50.675-.093 98.302-19.898 134.108-55.767 13.253-13.276 24.295-28.17 32.957-44.233z" fill="#ddaf89"/></g><g><path d="m73.353 326.884c8.79 30.581 25.281 58.66 48.514 81.87 27.587 27.559 62.028 45.612 99.363 52.544-44.422-31.947-77.087-79.301-90.031-134.118-3.919-.196-7.846-.295-11.779-.295h-46.067z" fill="#c9a07d"/></g><g><path d="m468.161 167.654c-16.03-31.767-39.473-60.033-67.794-81.743-9.914-7.6-15.906-18.741-16.752-30.911h10.885c15.163 0 27.5-12.336 27.5-27.5s-12.337-27.5-27.5-27.5h-277c-15.163 0-27.5 12.336-27.5 27.5s12.337 27.5 27.5 27.5h10.913c-.759 12.101-6.725 23.215-16.638 30.803-28.385 21.726-51.877 50.029-67.936 81.851-16.843 33.376-25.368 69.388-25.339 107.036.046 57.515 21.082 113.066 59.232 156.421 1.483 1.685 3.553 2.545 5.634 2.545 1.76 0 3.527-.616 4.952-1.87 3.109-2.736 3.412-7.476.676-10.585-35.743-40.618-55.451-92.654-55.494-146.523-.055-69.912 31.798-134.413 87.392-176.964 13.656-10.453 21.761-25.907 22.532-42.714h225.165c.893 16.68 9.212 32.512 22.652 42.815 55.454 42.512 87.259 106.911 87.259 176.685 0 122.461-99.625 222.274-222.081 222.5-.139 0-.27 0-.408 0-53.88 0-105.931-19.664-146.593-55.389-3.111-2.733-7.851-2.428-10.585.684-2.733 3.112-2.427 7.851.685 10.584 43.404 38.135 98.963 59.121 156.493 59.121h.436c63.345-.117 122.88-24.873 167.638-69.708 44.763-44.842 69.415-104.431 69.415-167.792 0-37.579-8.525-73.527-25.339-106.846zm-363.161-140.154c0-6.893 5.607-12.5 12.5-12.5h277c6.893 0 12.5 5.607 12.5 12.5s-5.607 12.5-12.5 12.5h-277c-6.893 0-12.5-5.607-12.5-12.5z"/><path d="m256.017 472h.356c52.675-.097 102.183-20.684 139.402-57.968 13.651-13.674 25.175-29.142 34.25-45.972 15.357-28.478 23.475-60.831 23.475-93.56 0-42.842-13.353-83.462-38.614-117.47-6.638-8.937-18.39-12.948-29.249-9.98-7.262 1.985-15.263 2.95-24.459 2.95-24.308 0-36.241-6.808-48.876-14.015-13.777-7.859-28.024-15.985-56.308-15.985-28.283 0-42.529 8.126-56.306 15.985-12.634 7.207-24.568 14.015-48.874 14.015-9.193 0-17.192-.965-24.454-2.95-10.854-2.965-22.609 1.044-29.25 9.98-25.293 34.048-38.645 74.723-38.61 117.628.014 18.431 2.586 36.699 7.645 54.297 9.162 31.877 26.598 61.305 50.421 85.104 37.398 37.361 86.918 57.938 139.451 57.941zm129.143-68.566c-34.393 34.453-80.14 53.476-128.811 53.566h-.343c-48.517-.003-94.273-19.021-128.839-53.552-19.618-19.598-34.531-43.315-43.54-69.063h35.792c30.89 0 60.968 6.127 89.397 18.21 30.295 12.876 62.347 19.405 95.265 19.405h106.253c-7.174 11.31-15.604 21.849-25.174 31.434zm-148.167-71.795c-3.874-5.349-6.934-9.573-6.934-18.684 0-9.11 3.06-13.334 6.934-18.683 4.36-6.02 9.786-13.51 9.786-27.482s-5.426-21.463-9.786-27.482c-3.874-5.349-6.934-9.573-6.934-18.684 0-15.972 13.416-38.665 25.94-38.665s25.94 22.693 25.94 38.665c0 9.111-3.06 13.335-6.934 18.684-4.36 6.019-9.786 13.51-9.786 27.482s5.426 21.463 9.786 27.482c3.874 5.348 6.934 9.572 6.934 18.683s-3.06 13.335-6.934 18.684c-3.762 5.193-8.309 11.493-9.488 22.095-6.631-1.133-13.205-2.561-19.714-4.281-1.731-8.039-5.465-13.196-8.81-17.814zm-127.842-165.662c2.321-3.125 6.059-4.902 9.932-4.902 1.106 0 2.225.145 3.322.445 8.568 2.342 17.861 3.48 28.409 3.48 28.283 0 42.529-8.126 56.306-15.985 12.635-7.207 24.569-14.015 48.874-14.015 24.308 0 36.241 6.808 48.876 14.015 13.777 7.859 28.024 15.985 56.308 15.985 10.551 0 19.846-1.139 28.414-3.481 4.943-1.351 10.27.439 13.253 4.456 23.326 31.402 35.655 68.93 35.655 108.525 0 28.754-6.785 57.174-19.633 82.5h-61.532c.817-1.547 1.853-2.978 3.033-4.606 3.49-4.818 7.834-10.815 7.834-22.092s-4.344-17.273-7.834-22.092c-2.892-3.992-4.981-6.877-4.981-13.292s2.09-9.3 4.981-13.292c3.49-4.818 7.834-10.815 7.834-22.092 0-17.269-13.912-42.883-33.131-42.883s-33.131 25.615-33.131 42.883c0 11.277 4.344 17.274 7.834 22.092 2.892 3.992 4.981 6.877 4.981 13.292s-2.09 9.299-4.981 13.292c-.672.928-1.367 1.887-2.062 2.926-2.302 3.444-1.376 8.102 2.067 10.403s8.102 1.377 10.403-2.067c.563-.843 1.151-1.652 1.738-2.463 3.49-4.818 7.834-10.814 7.834-22.091s-4.344-17.273-7.834-22.092c-2.892-3.993-4.981-6.877-4.981-13.292 0-11.263 9.551-27.883 18.131-27.883s18.131 16.62 18.131 27.883c0 6.416-2.09 9.3-4.981 13.292-3.49 4.818-7.834 10.815-7.834 22.092s4.344 17.273 7.834 22.092c2.892 3.992 4.981 6.877 4.981 13.292s-2.09 9.3-4.981 13.292c-2.444 3.374-5.338 7.381-6.831 13.405h-12.636c-1.492-6.024-4.387-10.031-6.832-13.405-.585-.809-1.173-1.616-1.735-2.458-2.303-3.443-6.96-4.369-10.403-2.065-3.443 2.302-4.368 6.96-2.065 10.403.693 1.037 1.387 1.994 2.057 2.919 1.18 1.628 2.216 3.059 3.033 4.605h-8.726c-7.96 0-15.866-.415-23.704-1.225.665-6.889 3.412-10.691 6.777-15.337 4.36-6.019 9.786-13.51 9.786-27.482s-5.426-21.463-9.786-27.482c-3.874-5.349-6.934-9.573-6.934-18.683 0-9.111 3.06-13.335 6.934-18.684 4.36-6.019 9.786-13.51 9.786-27.482 0-21.61-17.191-53.665-40.94-53.665s-40.94 32.055-40.94 53.665c0 13.972 5.426 21.463 9.786 27.482 3.874 5.349 6.934 9.573 6.934 18.684 0 9.11-3.06 13.334-6.934 18.683-4.36 6.019-9.786 13.51-9.786 27.482 0 13.973 5.426 21.463 9.786 27.483.8 1.105 1.559 2.153 2.261 3.199-4.173-1.496-8.317-3.102-12.423-4.847-30.295-12.877-62.347-19.406-95.265-19.406h-40.317c-3.701-14.571-5.592-29.592-5.603-44.737-.031-39.653 12.296-77.231 35.651-108.669z"/></g></g></svg>