<svg id="Capa_1" enable-background="new 0 0 483.254 483.254" height="512" viewBox="0 0 483.254 483.254" width="512" xmlns="http://www.w3.org/2000/svg"><g><g id="icon_64_"><path d="m427.385 58.704h-371.516c-8.007 0-14.498 6.491-14.498 14.498v333.051h400.506v-333.052c0-8.004-6.487-14.494-14.492-14.497z" fill="#eaa14e"/><path d="m69.642 85.507h343.971v283.912h-343.971z" fill="#575b6d"/><path d="m20.851 389.839 17.509 34.712h406.54l17.504-34.712z" fill="#eaa14e"/><path d="m115.781 110.211h243.737v110.683h-243.737z" fill="#dbd8dd"/><path d="m92.767 142.731h289.758v103.328h-289.758z" fill="#eeefee"/><path d="m17.391 201.034h448.472c9.605 0 17.391 7.786 17.391 17.391v170.436c0 9.605-7.786 17.391-17.391 17.391h-448.472c-9.605 0-17.391-7.786-17.391-17.391v-170.436c0-9.605 7.786-17.391 17.391-17.391z" fill="#f6b863"/><g fill="#eeefee"><path d="m165.373 297.013h152.508c6.786 0 12.288 5.501 12.288 12.288v.006c0 6.786-5.501 12.288-12.288 12.288h-152.508c-6.786 0-12.288-5.501-12.288-12.288v-.006c.001-6.787 5.502-12.288 12.288-12.288z"/><path d="m333.027 274.86v36.627c.003 5.559-4.501 10.068-10.06 10.072-.004 0-.008 0-.012 0h-12.211v-46.699z"/><path d="m153.086 274.86v36.627c0 5.559 4.507 10.066 10.066 10.066h12.217v-46.693z"/></g></g></g></svg>