<svg id="Layer_1_1_" enable-background="new 0 0 64 64" height="512" viewBox="0 0 64 64" width="512" xmlns="http://www.w3.org/2000/svg"><path d="m48 21h9v22h-9z" fill="#3a4c63"/><path d="m37 13.873-3.928 7.127 5 4 3.148-7.87.852-2.13z" fill="#59aae2"/><path d="m50.209 22.534-.137-2.534-8.852-2.87-3.148 7.87-5-4v40h14v-4h5z" fill="#59aae2"/><path d="m39.137 22.534.313 5.791.844.675 4.309-10.773-3.383-1.097-2.092 5.231z" fill="#4380aa"/><g fill="#fff"><path d="m22 21-5-3 2-2-2 2 5 3 5-3-2-2 2 2-5 3 5 4 3.148-7.87.852-2.13-9-2-9 2 .844 2.111 3.156 7.889z"/><path d="m39.137 22.534-.137-2.534-8.852-2.87-3.148 7.87-5-4v40h14v-4h5z"/><path d="m17 25-3.156-7.889-8.844 2.889-2 37h5v4h14v-40z"/></g><path d="m61 9v-6c-1.657 0-3 1.343-3 3s1.343 3 3 3z" fill="#904c2a"/><path d="m3 3v6c1.657 0 3-1.343 3-3s-1.343-3-3-3z" fill="#904c2a"/><path d="m25 16h-6l-2 2 5 3 5-3z" fill="#f0f0f0"/><path d="m33.531 18.227-3.383-1.097-3.148 7.87-5-4-5 4-3.156-7.889-3.38 1.104 4.314 10.785 7.222-5.778v37.778h3v-35.378l4.222 3.378z" fill="#f0f0f0"/><path d="m3 10c1.859 0 3.411-1.28 3.858-3h17.864c-.347.595-.985 1-1.722 1h-1c-.553 0-1 .448-1 1v3.198l-8.217 1.826c-.286.063-.53.25-.668.509-.137.259-.152.566-.044.838l.448 1.119-7.83 2.558c-.393.128-.666.484-.688.896l-2 37c-.015.274.084.542.273.742.189.201.452.314.726.314h4v3c0 .552.447 1 1 1h28c.553 0 1-.448 1-1v-3h4c.274 0 .537-.113.726-.312.189-.2.288-.468.273-.742l-1.852-34.257 1.635-4.302 7.256 2.352 1.906 35.261h-5.903l.958-23.96-1.998-.08-1 25c-.011.272.09.537.278.733s.449.307.721.307h8c.274 0 .537-.113.726-.312.189-.2.288-.468.273-.742l-1.889-34.946h4.89v20h-3v2h4c.553 0 1-.448 1-1v-21h3c.347 0 .668-.18.851-.474.183-.295.199-.663.044-.973l-3-6c-.135-.269-.384-.463-.678-.529l-8.217-1.826v-2.198c1.859 0 3.411-1.28 3.858-3h3.284c.447 1.72 1.999 3 3.858 3 .553 0 1-.448 1-1v-6c0-.552-.447-1-1-1-1.859 0-3.411 1.28-3.858 3h-3.284c-.447-1.72-1.999-3-3.858-3h-3v2h3c.737 0 1.375.405 1.722 1h-13.864c-.447-1.72-1.999-3-3.858-3h-3v2h3c.737 0 1.375.405 1.722 1h-8.864c-.447-1.72-1.999-3-3.858-3h-3v2h3c.737 0 1.375.405 1.722 1h-17.864c-.447-1.72-1.999-3-3.858-3-.553 0-1 .448-1 1v6c0 .552.447 1 1 1zm57-5.731v3.463c-.598-.347-1-.993-1-1.732s.402-1.385 1-1.731zm-33.142 2.731h8.864c-.347.595-.985 1-1.722 1h-1c-.553 0-1 .448-1 1v4c0 .469.325.875.783.976l2.708.602-1.343 2.798-2.674-.867.455-1.138c.108-.272.093-.579-.044-.838-.138-.26-.382-.446-.668-.509l-8.217-1.826v-2.198c1.859 0 3.411-1.28 3.858-3zm-4.858 7.024 7.635 1.697-3.063 7.656-2.824-2.259 3.767-2.26c.264-.158.44-.43.478-.735.038-.306-.067-.611-.285-.829l-2-2-1.414 1.414 1.095 1.094-3.389 2.032-3.388-2.033 1.095-1.094-1.414-1.414-2 2c-.218.218-.323.523-.285.829.037.306.214.577.478.735l3.767 2.26-2.824 2.259-3.063-7.656zm-13 43.976h2c.272 0 .532-.111.721-.307s.289-.461.278-.733l-1-25-1.998.08.958 23.96h-5.903l1.906-35.262 7.302-2.386 2.808 7.019c.118.294.367.515.674.595.307.083.632.012.88-.186l3.375-2.7v36.92h-12.001zm25.041-2 .958-23.96-1.998-.08-1 25c-.011.272.09.537.278.733s.449.307.721.307h2v2h-12v-36.919l3.375 2.7c.18.143.4.219.625.219.085 0 .171-.011.255-.033.307-.081.556-.301.674-.595l2.801-7.001 7.309 2.37 1.905 35.259zm5.337-36.916c-.024-.01-.044-.027-.07-.035l-3.241-1.051 1.428-2.975 3.159.702zm10.622-11.084h-1c-.553 0-1 .448-1 1v3.198l-3.717.826.434 1.952 4.283-.952 8.318 1.849 2.064 4.127h-8.38l-.003-.054c-.022-.413-.297-.77-.69-.897l-7.815-2.533.441-1.16c.104-.271.083-.574-.055-.83-.138-.255-.38-.438-.663-.501l-8.217-1.827v-2.198c1.859 0 3.411-1.28 3.858-3h13.864c-.347.595-.985 1-1.722 1zm-46-3.731c.598.346 1 .992 1 1.731s-.402 1.385-1 1.731z"/><path d="m37 52h2v2h-2z"/><path d="m5 52h2v2h-2z"/><path d="m17 30h2v2h-2z"/><path d="m17 40h2v2h-2z"/><path d="m17 50h2v2h-2z"/></svg>