<?xml version="1.0" encoding="iso-8859-1"?>
<!-- Generator: Adobe Illustrator 19.0.0, SVG Export Plug-In . SVG Version: 6.00 Build 0)  -->
<svg version="1.1" id="Capa_1" xmlns="http://www.w3.org/2000/svg" xmlns:xlink="http://www.w3.org/1999/xlink" x="0px" y="0px"
	 viewBox="0 0 512 512" style="enable-background:new 0 0 512 512;" xml:space="preserve">
<path style="fill:#FFE470;" d="M496,117.834H376V68.162l60-68l60,68V117.834z"/>
<polygon style="fill:#FFB64C;" points="496,68.162 436,0.162 436,117.834 496,117.834 "/>
<path style="fill:#57555C;" d="M496,191.834H376v-104h120V191.834z"/>
<path style="fill:#3A3A41;" d="M496,191.834h-60v-104h60V191.834z"/>
<path style="fill:#FFE470;" d="M406,117.834H286V68.162l60-68l60,68V117.834z"/>
<polygon style="fill:#FFB64C;" points="406,68.162 346,0.162 346,117.834 406,117.834 "/>
<path style="fill:#00D7DF;" d="M406,191.834H286v-104h120V191.834z"/>
<path style="fill:#00AADF;" d="M406,191.834h-60v-104h60V191.834z"/>
<path style="fill:#FFE470;" d="M136,117.834H16V68.162l60-68l60,68V117.834z"/>
<polygon style="fill:#FFB64C;" points="136,68.162 76,0.162 76,117.834 136,117.834 "/>
<path style="fill:#00DD7B;" d="M136,191.834H16v-104h120V191.834z"/>
<path style="fill:#00AB5E;" d="M136,191.834H76v-104h60V191.834z"/>
<path style="fill:#FFE470;" d="M226,117.834H106V68.162l60-68l60,68V117.834z"/>
<polygon style="fill:#FFB64C;" points="226,68.162 166,0.162 166,117.834 226,117.834 "/>
<path style="fill:#D97F4A;" d="M226,191.834H106v-104h120V191.834z"/>
<path style="fill:#AD5E2E;" d="M226,191.834h-60v-104h60V191.834z"/>
<path style="fill:#FFE470;" d="M316,117.834H196V68.162l60-68l60,68V117.834z"/>
<polygon style="fill:#FFB64C;" points="316,68.162 256,0.162 256,117.834 316,117.834 "/>
<path style="fill:#FF3980;" d="M316,191.834H196v-104h120V191.834z"/>
<path style="fill:#FF0059;" d="M316,191.834h-60v-104h60V191.834z"/>
<path style="fill:#FFE470;" d="M512,511.834H0v-350h512V511.834z"/>
<rect x="256" y="161.838" style="fill:#FFB64C;" width="256" height="350"/>
<path style="fill:#D97F4A;" d="M396,381.834H116v-150h280V381.834z"/>
<rect x="188" y="417.838" style="fill:#FFA721;" width="136" height="30"/>
<path style="fill:#AD5E2E;" d="M216,381.834h-50v-150h50V381.834z"/>
<path style="fill:#00D7DF;" d="M396,381.834H286v-150h110V381.834z"/>
<path style="fill:#00AADF;" d="M396,381.834h-50v-150h50V381.834z"/>
<path style="fill:#FF3980;" d="M316,381.834H196v-150h120V381.834z"/>
<path style="fill:#FF0059;" d="M316,381.834h-60v-150h60V381.834z"/>
<rect x="256" y="417.838" style="fill:#FF8503;" width="68" height="30"/>
<g>
</g>
<g>
</g>
<g>
</g>
<g>
</g>
<g>
</g>
<g>
</g>
<g>
</g>
<g>
</g>
<g>
</g>
<g>
</g>
<g>
</g>
<g>
</g>
<g>
</g>
<g>
</g>
<g>
</g>
</svg>
