<svg height="512" viewBox="0 0 512 512" width="512" xmlns="http://www.w3.org/2000/svg"><g id="Fill_out_line" data-name="Fill out line"><path d="m24 24h400v464h-400z" fill="#8c6231"/><path d="m424 24h64v464h-64z" fill="#7d572a"/><g fill="#bc8d5d"><path d="m24 24h32v464h-32z"/><path d="m168 24h32v464h-32z"/><path d="m392 24h32v464h-32z"/></g><path d="m56 168h112.333v32h-112.333z" fill="#a1764a"/><path d="m88 136h80v32h-80z" fill="#57c1ff"/><path d="m88 104h80v32h-80z" fill="#65dcff"/><path d="m56 320h112v32h-112z" fill="#a1764a"/><path d="m88 288h80v32h-80z" fill="#57c1ff"/><path d="m88 256h80v32h-80z" fill="#65dcff"/><path d="m88 488v-16a16 16 0 0 1 16-16v-48h40v80z" fill="#e05e1d"/><path d="m120 488v-16a16 16 0 0 1 16-16v-48h40v80z" fill="#ff6f35"/><path d="m392 168v128h-32v24h-96v-24h-32v-128l40-16a52.06835 52.06835 0 0 0 80 0l24 9.6z" fill="#65dcff"/><path d="m488 16h-464a8.00008 8.00008 0 0 0 -8 8v464a8.00008 8.00008 0 0 0 8 8h464a8.00008 8.00008 0 0 0 8-8v-464a8.00008 8.00008 0 0 0 -8-8zm-128 168a8.00008 8.00008 0 0 0 -8 8v120h-80v-112a8 8 0 0 0 -16 0v88h-16v-114.5835l29.85645-11.94287a60.07767 60.07767 0 0 0 84.2871 0l29.85645 11.94287v114.5835h-16v-96a8.00008 8.00008 0 0 0 -8-8zm-32-88v16h16v-16h40v60.184l-29.0293-11.61169-38.47412-15.38965-20.49658-20.49614v-28.68652a16 16 0 0 1 32 0h-16v16zm-16 48.61621 25.31006 10.1239a44.06111 44.06111 0 0 1 -50.62012 0zm72-64.61621h-40a32 32 0 0 0 -64 0v32a8.00035 8.00035 0 0 0 2.34277 5.65674l15.42139 15.42151-28.73486 11.494-40 16a7.99873 7.99873 0 0 0 -5.0293 7.42775v128a8.00008 8.00008 0 0 0 8 8h24v16a8.00008 8.00008 0 0 0 8 8h96a8.00008 8.00008 0 0 0 8-8v-16h16v176h-176v-384h56v-16h-56v-48h176zm-320 96h96v16h-96zm96 135.875h-64v-16h64zm0-32h-64v-16h64zm0-151.875h-64v-16h64zm0 16v16h-64v-16zm-96 64h96v39.875h-72a8.00008 8.00008 0 0 0 -8 8v56h-16zm0 119.875h96v16h-96zm96-231.875h-72a8.00008 8.00008 0 0 0 -8 8v56h-16v-128h96zm-96 263.875h96v40.125h-56a8.00008 8.00008 0 0 0 -8 8v41.37109a24.04118 24.04118 0 0 0 -16 22.62891v8h-16zm96 88.125h-16v-32h16zm-48 0v-32h16v32zm-16 24a8.00917 8.00917 0 0 1 8-8h9.387a23.86792 23.86792 0 0 0 -1.387 8v8h-16zm32 0a8.00917 8.00917 0 0 1 8-8h24v16h-32zm48-56v-384h16v448h-16zm-144-384h16v448h-16zm384 448h-16v-448h16zm64 0h-48v-448h48z"/></g></svg>