<svg height="512pt" viewBox="-69 0 512 512" width="512pt" xmlns="http://www.w3.org/2000/svg"><path d="m18.089844 477.519531v29.328125c0 2.835938 2.316406 5.152344 5.148437 5.152344h31.941407c2.832031 0 6.105468-2.113281 7.269531-4.695312l13.429687-29.785157zm0 0" fill="#b57a4e"/><path d="m44.996094 506.847656v-29.328125h-26.90625v29.328125c0 2.835938 2.316406 5.152344 5.148437 5.152344h26.910157c-2.832032 0-5.152344-2.316406-5.152344-5.152344zm0 0" fill="#9b5729"/><path d="m298.449219 477.519531 13.429687 29.785157c1.164063 2.582031 4.433594 4.695312 7.269532 4.695312h31.941406c2.832031 0 5.148437-2.316406 5.148437-5.152344v-29.328125zm0 0" fill="#b57a4e"/><path d="m337.507812 507.304688-13.429687-29.785157h-25.628906l13.429687 29.785157c1.164063 2.582031 4.433594 4.695312 7.269532 4.695312h25.628906c-2.835938 0-6.105469-2.113281-7.269532-4.695312zm0 0" fill="#9b5729"/><path d="m18.089844 452.53125h338.148437v25.988281h-338.148437zm0 0" fill="#eac092"/><path d="m18.089844 452.53125h31.808594v25.988281h-31.808594zm0 0" fill="#e0aa68"/><path d="m47.699219 425.902344c-2.835938 0-5.152344-2.316406-5.152344-5.152344v-364.605469c0-2.832031 2.316406-5.152343 5.152344-5.152343h278.929687c2.832032 0 5.148438 2.320312 5.148438 5.152343v364.609375c0 2.832032-2.316406 5.148438-5.148438 5.148438zm0 0" fill="#7f441c"/><path d="m162.566406 313.289062h-86.308594v9.710938h87.292969v-9.796875c-.320312.050781-.648437.085937-.984375.085937zm0 0" fill="#fff9f3"/><path d="m76.261719 300.289062h86.304687c.335938 0 .664063.03125.988282.082032v-9.453125c-.324219.050781-.652344.082031-.988282.082031h-86.304687zm0 0" fill="#def9ff"/><path d="m96.371094 371.316406h25.011718v54.585938h-25.011718zm0 0" fill="#e62937"/><path d="m96.371094 371.316406h8.792968v54.585938h-8.792968zm0 0" fill="#cf043c"/><path d="m252.941406 371.316406h25v54.585938h-25zm0 0" fill="#99ce19"/><path d="m252.941406 371.316406h8.222656v54.585938h-8.222656zm0 0" fill="#81aa00"/><g fill="#602f0e"><path d="m42.546875 153.203125h25.886719v15.296875h-25.886719zm0 0"/><path d="m68.433594 50.992188h-20.734375c-2.835938 0-5.152344 2.320312-5.152344 5.152343v20.667969h25.886719zm0 0"/><path d="m62.261719 321.574219v-9.636719c0-1.835938.398437-3.574219 1.105469-5.152344-.707032-1.574218-1.105469-3.3125-1.105469-5.148437v-11.984375c0-4.609375 2.480469-8.636719 6.171875-10.847656v-33.914063h-25.886719v76.683594zm0 0"/><path d="m42.546875 336.574219h25.886719v20.4375h-25.886719zm0 0"/></g><path d="m230.011719 260.183594c-2.832031 0-5.148438 2.320312-5.148438 5.152344v57.238281h28.78125v-62.390625zm0 0" fill="#ffcb00"/><path d="m240.3125 260.183594h-10.300781c-2.832031 0-5.148438 2.320312-5.148438 5.152344v57.238281h10.300781v-57.238281c0-2.832032 2.316407-5.152344 5.148438-5.152344zm0 0" fill="#f39600"/><path d="m203.96875 357.011719c-2.832031 0-5.152344 2.316406-5.152344 5.152343v63.738282h26.566406v-68.890625zm0 0" fill="#5884cc"/><path d="m214.3125 357.011719h-10.34375c-2.835938 0-5.152344 2.316406-5.152344 5.152343v63.738282h10.347656v-63.738282c0-2.835937 2.316407-5.152343 5.148438-5.152343zm0 0" fill="#2d69ac"/><path d="m304.175781 362.0625h-22.070312c-2.832031 0-5.152344 2.316406-5.152344 5.148438v58.691406h27.210937v-63.738282c0-.035156.007813-.066406.011719-.101562zm0 0" fill="#009e2f"/><path d="m292.3125 362.0625h-10.207031c-2.835938 0-5.152344 2.316406-5.152344 5.148438v58.691406h10.210937v-58.691406c0-2.832032 2.316407-5.148438 5.148438-5.148438zm0 0" fill="#00752c"/><path d="m250.90625 260.183594h28.78125v62.390625h-28.78125zm0 0" fill="#e62937"/><path d="m250.90625 260.183594h10.257812v62.390625h-10.257812zm0 0" fill="#cf043c"/><path d="m276.953125 260.183594h28.78125v62.390625h-28.78125zm0 0" fill="#5884cc"/><path d="m276.953125 260.183594h10.210937v62.390625h-10.210937zm0 0" fill="#2d69ac"/><path d="m302.996094 260.183594h28.78125v62.390625h-28.78125zm0 0" fill="#009e2f"/><path d="m302.996094 260.183594h10.167968v62.390625h-10.167968zm0 0" fill="#00752c"/><path d="m42.546875 168.5h26.617187v62.390625h-26.617187zm0 0" fill="#ffcb00"/><path d="m42.546875 168.5h10.617187v62.390625h-10.617187zm0 0" fill="#f39600"/><path d="m68.59375 168.5h26.570312v62.390625h-26.570312zm0 0" fill="#e3328b"/><path d="m68.59375 168.5h10.570312v62.390625h-10.570312zm0 0" fill="#bb0a7e"/><path d="m94.636719 168.5h26.699219v62.390625h-26.699219zm0 0" fill="#5884cc"/><path d="m94.636719 168.5h10.527343v62.390625h-10.527343zm0 0" fill="#2d69ac"/><path d="m120.683594 168.5h26.824218v62.390625h-26.824218zm0 0" fill="#873cbe"/><path d="m120.683594 168.5h10.480468v62.390625h-10.480468zm0 0" fill="#701f85"/><path d="m146.726562 168.5h26.65625v62.390625h-26.65625zm0 0" fill="#e62937"/><path d="m146.726562 168.5h10.4375v62.390625h-10.4375zm0 0" fill="#cf043c"/><path d="m200.941406 182.804688h24.957032v48.085937h-24.957032zm0 0" fill="#e62937"/><path d="m200.941406 182.804688h8.222656v48.085937h-8.222656zm0 0" fill="#cf043c"/><path d="m252.128906 173.546875h-22.113281c-2.835937 0-5.152344 2.316406-5.152344 5.152344v52.191406h27.253907v-57.242187c0-.035157.007812-.066407.011718-.101563zm0 0" fill="#5884cc"/><path d="m240.3125 173.546875h-10.300781c-2.832031 0-5.148438 2.316406-5.148438 5.152344v52.191406h10.300781v-52.191406c0-2.835938 2.316407-5.152344 5.148438-5.152344zm0 0" fill="#2d69ac"/><path d="m196.402344 168.5h-23.628906v62.390625h28.78125v-57.242187c0-2.832032-2.320313-5.148438-5.152344-5.148438zm0 0" fill="#f39600"/><path d="m172.773438 168.5h10.390624v62.390625h-10.390624zm0 0" fill="#ce7a00"/><path d="m256.058594 168.5c-2.832032 0-5.148438 2.316406-5.148438 5.148438v57.242187h27.046875v-62.390625zm0 0" fill="#99ce19"/><path d="m266.3125 168.5h-10.253906c-2.832032 0-5.152344 2.316406-5.152344 5.148438v57.242187h10.257812v-57.242187c0-2.832032 2.316407-5.148438 5.148438-5.148438zm0 0" fill="#81aa00"/><path d="m276.953125 168.5h27.210937v62.390625h-27.210937zm0 0" fill="#009e2f"/><path d="m276.953125 168.5h10.210937v62.390625h-10.210937zm0 0" fill="#00752c"/><path d="m303 168.5h28.777344v62.390625h-28.777344zm0 0" fill="#5884cc"/><path d="m303 168.5h10.164062v62.390625h-10.164062zm0 0" fill="#2d69ac"/><path d="m305.164062 76.8125h26.613282v62.390625h-26.613282zm0 0" fill="#ffcb00"/><path d="m305.164062 76.8125h8v62.390625h-8zm0 0" fill="#f39600"/><path d="m279.164062 76.8125h26.570313v62.390625h-26.570313zm0 0" fill="#e3328b"/><path d="m279.164062 76.8125h8v62.390625h-8zm0 0" fill="#bb0a7e"/><path d="m252.988281 76.8125h26.699219v62.390625h-26.699219zm0 0" fill="#5884cc"/><path d="m252.988281 76.8125h8.175781v62.390625h-8.175781zm0 0" fill="#2d69ac"/><path d="m226.820312 76.8125h26.824219v62.390625h-26.824219zm0 0" fill="#873cbe"/><path d="m226.820312 76.8125h8.34375v62.390625h-8.34375zm0 0" fill="#701f85"/><path d="m200.941406 76.8125h26.65625v62.390625h-26.65625zm0 0" fill="#e62937"/><path d="m200.941406 76.8125h8.222656v62.390625h-8.222656zm0 0" fill="#cf043c"/><path d="m148.21875 91.117188h25.164062v48.085937h-25.164062zm0 0" fill="#e62937"/><path d="m148.21875 91.117188h8.945312v48.085937h-8.945312zm0 0" fill="#cf043c"/><path d="m177.921875 76.8125c-2.832031 0-5.148437 2.320312-5.148437 5.152344v57.238281h28.78125v-62.390625zm0 0" fill="#f39600"/><path d="m188.3125 76.8125h-10.390625c-2.832031 0-5.148437 2.320312-5.148437 5.152344v57.238281h10.390624v-57.238281c0-2.832032 2.316407-5.152344 5.148438-5.152344zm0 0" fill="#ce7a00"/><path d="m144.3125 81.859375h-21.90625c0 .035156.011719.070313.011719.105469v57.238281h27.046875v-52.191406c0-2.832031-2.320313-5.152344-5.152344-5.152344zm0 0" fill="#5884cc"/><path d="m122.40625 81.859375c0 .035156.011719.070313.011719.105469v57.238281h8.746093v-57.34375zm0 0" fill="#2d69ac"/><path d="m118.265625 76.8125h-21.894531v62.390625h27.046875v-57.238281c0-2.832032-2.316407-5.152344-5.152344-5.152344zm0 0" fill="#009e2f"/><path d="m96.371094 76.8125h8.792968v62.390625h-8.792968zm0 0" fill="#00752c"/><path d="m70.164062 76.8125h27.207032v62.390625h-27.207032zm0 0" fill="#5884cc"/><path d="m70.164062 76.8125h9v62.390625h-9zm0 0" fill="#2d69ac"/><path d="m42.546875 76.8125h28.78125v62.390625h-28.78125zm0 0" fill="#e62937"/><path d="m42.546875 76.8125h10.617187v62.390625h-10.617187zm0 0" fill="#cf043c"/><path d="m76.261719 313.289062h25.394531v9.710938h-25.394531zm0 0" fill="#c7c8ca"/><path d="m76.261719 291h25.394531v9.289062h-25.394531zm0 0" fill="#abebff"/><path d="m62.261719 323h15v-8.710938h85.304687c4.144532 0 7.5-3.359374 7.5-7.5 0-4.144531-3.355468-7.5-7.5-7.5h-85.304687v-7.289062h85.304687c4.144532 0 7.5-3.355469 7.5-7.5 0-4.140625-3.355468-7.5-7.5-7.5h-87.65625c-6.976562 0-12.648437 5.675781-12.648437 12.652344v11.984375c0 1.835937.398437 3.574219 1.105469 5.152343-.707032 1.574219-1.105469 3.316407-1.105469 5.148438zm0 0" fill="#8a8c8e"/><path d="m73.464844 306.789062c-.707032-1.578124-1.109375-3.316406-1.109375-5.152343v-11.984375c0-6.976563 5.675781-12.652344 12.652343-12.652344h-10.097656c-6.976562 0-12.648437 5.675781-12.648437 12.652344v11.984375c0 1.835937.398437 3.574219 1.105469 5.152343-.707032 1.574219-1.105469 3.316407-1.105469 5.148438v11.0625h10.09375v-11.0625c0-1.832031.402343-3.574219 1.109375-5.148438zm0 0" fill="#6d6e71"/><path d="m248.492188 357.011719h-23.628907v68.890625h28.78125v-63.738282c0-2.835937-2.316406-5.152343-5.152343-5.152343zm0 0" fill="#873cbe"/><path d="m224.863281 357.011719h10.300781v68.890625h-10.300781zm0 0" fill="#701f85"/><path d="m92.222656 357.011719h-22.058594v68.890625h27.207032v-63.738282c0-2.835937-2.3125-5.152343-5.148438-5.152343zm0 0" fill="#99ce19"/><path d="m70.164062 357.011719h9v68.890625h-9zm0 0" fill="#81aa00"/><path d="m308.148438 357.011719c-2.832032 0-5.152344 2.316406-5.152344 5.152343v63.738282h23.632812c2.832032 0 5.148438-2.316406 5.148438-5.152344v-63.738281zm0 0" fill="#e62937"/><path d="m318.3125 357.011719h-10.164062c-2.832032 0-5.152344 2.316406-5.152344 5.152343v63.738282h10.167968v-63.738282c0-2.835937 2.316407-5.152343 5.148438-5.152343zm0 0" fill="#cf043c"/><path d="m42.546875 357.011719v63.738281c0 2.835938 2.316406 5.152344 5.152344 5.152344h23.628906v-68.890625zm0 0" fill="#5884cc"/><path d="m53.164062 420.753906v-63.742187h-10.617187v63.742187c0 2.832032 2.316406 5.148438 5.152344 5.148438h10.613281c-2.832031 0-5.148438-2.316406-5.148438-5.148438zm0 0" fill="#2d69ac"/><path d="m144.464844 362.0625h-18.78125c-2.75 0-5 2.25-5 5v58.839844h28.78125v-58.839844c0-2.75-2.25-5-5-5zm0 0" fill="#ffcb00"/><path d="m136.164062 362.0625h-10.480468c-2.75 0-5 2.25-5 5v58.839844h10.480468v-58.839844c0-2.75 2.25-5 5-5zm0 0" fill="#f39600"/><path d="m18.089844 23.453125v430.078125h338.148437v-430.078125zm313.6875 397.300781c0 2.832032-2.316406 5.148438-5.148438 5.148438h-278.929687c-2.835938 0-5.152344-2.316406-5.152344-5.148438v-84.179687h289.230469zm0-99.179687h-289.230469v-76.683594h289.230469zm0-91.683594h-289.230469v-76.6875h289.230469zm0-91.6875h-289.230469v-82.058594c0-2.832031 2.316406-5.152343 5.152344-5.152343h278.929687c2.832032 0 5.148438 2.320312 5.148438 5.152343zm0 0" fill="#b57a4e"/><path d="m18.089844 23.453125v430.078125h338.148437v-430.078125zm313.6875 397.300781c0 2.832032-2.316406 5.148438-5.148438 5.148438h-278.929687c-2.835938 0-5.152344-2.316406-5.152344-5.148438v-84.179687h289.230469zm0-99.179687h-289.230469v-76.683594h289.230469zm0-91.683594h-289.230469v-76.6875h289.230469zm0-91.6875h-289.230469v-82.058594c0-2.832031 2.316406-5.152343 5.152344-5.152343h278.929687c2.832032 0 5.148438 2.320312 5.148438 5.152343zm0 0" fill="#b57a4e"/><path d="m18.089844 23.453125h16.074218v430.078125h-16.074218zm0 0" fill="#9b5729"/><path d="m374.324219 19.300781c0 2.835938-2.316407 5.152344-5.148438 5.152344h-364.023437c-2.835938 0-5.152344-2.316406-5.152344-5.152344v-14.148437c0-2.835938 2.316406-5.152344 5.152344-5.152344h364.023437c2.832031 0 5.148438 2.316406 5.148438 5.152344zm0 0" fill="#9b5729"/><path d="m47.71875 19.300781v-14.148437c0-2.835938 2.316406-5.152344 5.148438-5.152344h-47.714844c-2.835938 0-5.152344 2.316406-5.152344 5.152344v14.148437c0 2.835938 2.316406 5.152344 5.152344 5.152344h47.714844c-2.832032 0-5.148438-2.316406-5.148438-5.152344zm0 0" fill="#7f441c"/></svg>