<svg height="512" viewBox="0 0 512 512" width="512" xmlns="http://www.w3.org/2000/svg"><g id="BULINE"><circle cx="256" cy="256" fill="#8eddf3" r="256"/></g><g id="Icons"><path d="m466.9 191.89a19.14 19.14 0 0 1 -11.85 26 37.18 37.18 0 0 1 -65.48 23.8 44.56 44.56 0 0 1 -9.36 9.39 43.93 43.93 0 0 1 -8.35 4.92 44.79 44.79 0 0 1 -63.11-40.84 45.11 45.11 0 0 1 .33-5.36 19.1 19.1 0 0 1 -6.08-32.25 60.24 60.24 0 0 1 46.19-93v-.16a19.09 19.09 0 0 1 34.86-10.77 72.21 72.21 0 1 1 82.85 118.27z" fill="#779e39"/><path d="m467.3 191.89a19.11 19.11 0 0 1 -11.84 26 37.22 37.22 0 0 1 -46.86 35.59 31.69 31.69 0 0 0 19-28.75 16.28 16.28 0 0 0 11.46-15.54 16.09 16.09 0 0 0 -1.39-6.55 61.46 61.46 0 1 0 -70.45-100.64 16.26 16.26 0 0 0 -29.68 9.17v.14a51.31 51.31 0 0 0 -43.84 31.79 60.25 60.25 0 0 1 55.92-58.47v-.16a19.1 19.1 0 0 1 34.87-10.77 72.21 72.21 0 1 1 82.81 118.19z" fill="#8abe41"/><path d="m446 139a11.58 11.58 0 0 0 -16.37 0l-26.55 26.6v-19.79a11.58 11.58 0 0 0 -11.58-11.58 11.58 11.58 0 0 0 -11.57 11.58v60.19l-14.62-14.62a11.58 11.58 0 0 0 -16.37 0 11.59 11.59 0 0 0 0 16.38l31 31v78.8h23.15v-119.22l42.91-42.94a11.56 11.56 0 0 0 0-16.4z" fill="#886243"/><path d="m446.47 155.4-42.94 42.94v119.15h-7.16v-112.83a15.23 15.23 0 0 1 4.47-10.79l38.47-38.47a11.58 11.58 0 0 0 0-16.37 11.45 11.45 0 0 0 -4.6-2.82 11.57 11.57 0 0 1 11.76 19.19z" fill="#976b4b"/><path d="m380.21 238.69v12.31a43.93 43.93 0 0 1 -8.35 4.92v-17.23l-31-31a11.58 11.58 0 0 1 12.37-19 11.31 11.31 0 0 0 -4 2.6 11.56 11.56 0 0 0 0 16.38z" fill="#688732"/><path d="m387.61 135a11.53 11.53 0 0 0 -7.4 10.79v60.21l-8.35-8.36v-51.83a11.57 11.57 0 0 1 11.57-11.58 11.38 11.38 0 0 1 4.18.77z" fill="#688732"/><path d="m443.12 137.3a11.41 11.41 0 0 0 -2.78 2l-23.41 23.4a1.86 1.86 0 0 1 -3.17-1.31v-6.32l15.77-15.77a11.59 11.59 0 0 1 13.59-2z" fill="#73513a"/><path d="m391.38 134.56a11.57 11.57 0 0 0 -11.58 11.58v49.33l.13.12v32.65l-20.31-20.24a11.5 11.5 0 0 1 0-16.33 11.66 11.66 0 0 1 2.79-2.05 11.59 11.59 0 0 0 -13.59 2.05 11.5 11.5 0 0 0 0 16.33l31 30.91v78.6h10.81v-171.37a11.53 11.53 0 0 1 3.37-8.14 11.24 11.24 0 0 1 2.78-2 11.43 11.43 0 0 0 -5.4-1.44z" fill="#73513a"/><path d="m335.06 149.63a9.16 9.16 0 0 0 -6.27-8.69h-.09l-.28-.08-.55-.14-.27-.06-.63-.09h-.21a8.49 8.49 0 0 0 -.88 0 9.17 9.17 0 1 0 0 18.34 8.49 8.49 0 0 0 .88-.05h.21l.63-.1h.27a4.94 4.94 0 0 0 .55-.15l.28-.08h.09a9.16 9.16 0 0 0 6.27-8.9z" fill="#688732"/><path d="m342 235.73a9.15 9.15 0 0 0 -6.27-8.69h-.09l-.27-.08-.56-.14-.27-.06a6.17 6.17 0 0 0 -.62-.09h-.22a8.46 8.46 0 0 0 -.87-.05 9.17 9.17 0 1 0 0 18.34 8.46 8.46 0 0 0 .87-.05h.22l.62-.1h.27c.19-.05.38-.09.56-.15l.27-.08h.09a9.15 9.15 0 0 0 6.27-8.85z" fill="#688732"/><path d="m483.87 159.61a9.15 9.15 0 0 0 -6.27-8.69h-.09l-.27-.08-.56-.15h-.27l-.62-.1h-.22a8.46 8.46 0 0 0 -.87-.05 9.17 9.17 0 0 0 0 18.34 8.46 8.46 0 0 0 .87-.05h.22l.62-.1.27-.06.56-.14.27-.08h.09a9.15 9.15 0 0 0 6.27-8.84z" fill="#779e39"/><path d="m398.07 108.89a9.16 9.16 0 0 0 -6.27-8.69h-.1l-.27-.08a5.54 5.54 0 0 0 -.55-.14l-.27-.06-.63-.1h-.22a8.14 8.14 0 0 0 -.87 0 9.17 9.17 0 0 0 0 18.34 8.14 8.14 0 0 0 .87 0h.22l.63-.1.27-.06a5.54 5.54 0 0 0 .55-.14l.27-.08h.1a9.16 9.16 0 0 0 6.27-8.89z" fill="#688732"/><path d="m444.43 84.12a9.16 9.16 0 0 0 -6.27-8.69h-.09l-.28-.08a4.94 4.94 0 0 0 -.55-.15h-.27l-.63-.1h-.21a8.49 8.49 0 0 0 -.88 0 9.17 9.17 0 0 0 0 18.34 8.49 8.49 0 0 0 .88-.05h.21l.63-.09.27-.06.55-.14.28-.08h.09a9.16 9.16 0 0 0 6.27-8.9z" fill="#779e39"/><circle cx="477.84" cy="156.23" fill="#af3e0e" r="9.17"/><path d="m480.74 164.93a9 9 0 0 1 -2.9.47 9.17 9.17 0 1 1 0-18.33 9 9 0 0 1 2.9.47 9.17 9.17 0 0 0 0 17.39z" fill="#952f08"/><circle cx="481.75" cy="152.32" fill="#db5a2b" r="1.65"/><circle cx="441.52" cy="81.93" fill="#af3e0e" r="9.17"/><path d="m444.43 90.63a9.29 9.29 0 0 1 -2.91.47 9.17 9.17 0 0 1 0-18.34 9.29 9.29 0 0 1 2.91.47 9.18 9.18 0 0 0 0 17.4z" fill="#952f08"/><circle cx="445.44" cy="78.01" fill="#db5a2b" r="1.65"/><circle cx="338.35" cy="233.61" fill="#af3e0e" r="9.17"/><path d="m341.26 242.31a9.29 9.29 0 0 1 -2.91.47 9.17 9.17 0 0 1 0-18.34 9 9 0 0 1 2.91.48 9.16 9.16 0 0 0 0 17.39z" fill="#952f08"/><circle cx="342.27" cy="229.69" fill="#db5a2b" r="1.65"/><circle cx="393.94" cy="105.28" fill="#af3e0e" r="9.17"/><path d="m396.85 114a9 9 0 0 1 -2.91.47 9.17 9.17 0 0 1 0-18.33 9 9 0 0 1 2.91.47 9.17 9.17 0 0 0 0 17.39z" fill="#952f08"/><circle cx="397.86" cy="101.37" fill="#db5a2b" r="1.65"/><circle cx="332.79" cy="147.07" fill="#af3e0e" r="9.17"/><path d="m335.69 155.76a9 9 0 0 1 -2.9.48 9.17 9.17 0 0 1 0-18.34 9.27 9.27 0 0 1 2.9.47 9.17 9.17 0 0 0 0 17.39z" fill="#952f08"/><circle cx="336.71" cy="143.15" fill="#db5a2b" r="1.65"/><ellipse cx="471.54" cy="98.48" fill="#b1e361" rx="8.32" ry="11.75" transform="matrix(.863 -.506 .506 .863 14.91 251.9)"/><ellipse cx="483.18" cy="118.34" fill="#b1e361" rx="3.58" ry="5.06" transform="matrix(.863 -.506 .506 .863 6.47 260.52)"/><path d="m504.08 319.41a255.28 255.28 0 0 1 -50.89 99.85q-4.65 5.61-9.61 11-6.24 6.69-12.92 12.95a256.42 256.42 0 0 1 -22 18.37q-6.84 5.1-14.05 9.73a245.46 245.46 0 0 1 -61.37 3.57c-16.73 13.49-38.78 26.13-64.63 36.85q-6.25.31-12.58.31a254.79 254.79 0 0 1 -144.67-44.78q-7-4.8-13.69-10.07-5.31-4.18-10.4-8.66-5.3-4.65-10.34-9.59-2.52-2.45-4.93-4.94c-1.44-1.48-2.86-3-4.26-4.51a257.44 257.44 0 0 1 -20-24.61 343.75 343.75 0 0 1 48.21-21.25 440.07 440.07 0 0 1 60.29-16.63l.58-.11h.2q9-1.81 17.9-3.23 4.85-.78 9.65-1.44 5.67-.78 11.25-1.39c.25 0 .5-.06.75-.08 10.56-1.17 20.89-1.9 30.91-2.23a79.28 79.28 0 0 0 45.88-16.39c23.31-18 55.52-32.61 92.48-40.09q7-1.43 14-2.43a.3.3 0 0 1 .13 0c3.58-.54 7.15-1 10.68-1.35q2.89-.32 5.76-.54 3.38-.28 6.71-.46h.45c40.86-2.26 77.12 6.04 100.51 22.15z" fill="#a57b3e"/><path d="m484.29 372a256.14 256.14 0 0 1 -31.1 47.31q-4.65 5.61-9.61 11-6.24 6.69-12.92 12.95a256.42 256.42 0 0 1 -22 18.37q-6.84 5.1-14.05 9.73a251.76 251.76 0 0 1 -25.15 14.29 254.54 254.54 0 0 1 -100.85 26.13q-6.25.31-12.58.31a254.79 254.79 0 0 1 -144.67-44.78q-7-4.8-13.69-10.07-5.31-4.18-10.4-8.66-5.3-4.65-10.34-9.59-2.52-2.5-4.93-4.99c-1.44-1.48-2.86-3-4.26-4.51a257.44 257.44 0 0 1 -20-24.61c-1.57-2.18-3.09-4.39-4.58-6.62a303.71 303.71 0 0 1 52.79-14.63 417.09 417.09 0 0 1 60.89-6.72h.2q8.74-.34 17.71-.34h.19c3.23 0 6.45 0 9.65.1q5.67.12 11.25.39h.75a419.84 419.84 0 0 1 49.68 5.25 79.27 79.27 0 0 0 48.22-7c26.42-13.05 60.88-20.95 98.59-20.95 34.28.05 65.92 6.58 91.21 17.64z" fill="#bf8e43"/><path d="m302.73 240.5a32 32 0 0 1 -19.84 43.5 62.31 62.31 0 0 1 -109.71 39.88 75.14 75.14 0 0 1 -15.67 15.73 75 75 0 0 1 -119.72-60.2 76.1 76.1 0 0 1 .55-9 32 32 0 0 1 -10.13-54 100.93 100.93 0 0 1 77.37-155.67v-.26a32 32 0 0 1 58.41-18 121 121 0 1 1 138.74 198.02z" fill="#779e39"/><path d="m303.41 240.5a32 32 0 0 1 -19.84 43.5 62.35 62.35 0 0 1 -78.5 59.62 53.07 53.07 0 0 0 31.87-48.16 27.22 27.22 0 0 0 16.88-37 103 103 0 1 0 -118.08-168.62 27.24 27.24 0 0 0 -49.74 15.37v.22a86 86 0 0 0 -73.44 53.26 100.94 100.94 0 0 1 93.68-97.95v-.26a32 32 0 0 1 58.41-18 121 121 0 1 1 138.76 198.02z" fill="#8abe41"/><path d="m267.76 151.94a19.4 19.4 0 0 0 -27.43 0l-44.51 44.51v-33.14a19.4 19.4 0 0 0 -19.4-19.4 19.4 19.4 0 0 0 -19.4 19.4v100.74l-24.48-24.48a19.39 19.39 0 0 0 -27.43 0 19.4 19.4 0 0 0 0 27.43l51.89 51.91v132h38.8v-199.6l71.94-71.94a19.39 19.39 0 0 0 .02-27.43z" fill="#886243"/><path d="m268.51 179.37-71.94 71.94v199.6h-12v-189a25.56 25.56 0 0 1 7.49-18.08l64.45-64.45a19.39 19.39 0 0 0 0-27.43 19.11 19.11 0 0 0 -7.71-4.72 19.39 19.39 0 0 1 19.71 32.15z" fill="#976b4b"/><path d="m157.51 318.91v20.69a74.27 74.27 0 0 1 -14 8.24v-28.93l-51.91-51.91a19.39 19.39 0 0 1 20.72-31.8 19.05 19.05 0 0 0 -6.72 4.37 19.37 19.37 0 0 0 0 27.43z" fill="#688732"/><path d="m169.9 145.22a19.39 19.39 0 0 0 -12.39 18.09v100.74l-14-14v-86.74a19.39 19.39 0 0 1 19.39-19.4 19.14 19.14 0 0 1 7 1.31z" fill="#688732"/><path d="m262.89 149.05a19.17 19.17 0 0 0 -4.66 3.44l-39.23 39.19a3.11 3.11 0 0 1 -5.31-2.2v-10.58l26.41-26.41a19.41 19.41 0 0 1 22.79-3.44z" fill="#73513a"/><path d="m176.21 144.46a19.39 19.39 0 0 0 -19.39 19.4v82.64l.2.2v54.69l-34-33.93a19.32 19.32 0 0 1 4.67-30.79 19.36 19.36 0 0 0 -22.77 30.79l51.91 51.78v131.67h18.1v-287.05a19.38 19.38 0 0 1 10.35-17.16 19.32 19.32 0 0 0 -9.07-2.24z" fill="#73513a"/><path d="m81.86 169.71a15.36 15.36 0 0 0 -10.5-14.57h-.15l-.46-.13c-.31-.09-.61-.17-.93-.24l-.45-.09c-.35-.07-.69-.12-1-.16l-.36-.05c-.48 0-1-.07-1.46-.07a15.36 15.36 0 1 0 0 30.71c.49 0 1 0 1.46-.07l.36-.05c.36 0 .7-.09 1-.16l.45-.09c.32-.07.62-.15.93-.24l.46-.13h.15a15.36 15.36 0 0 0 10.5-14.66z" fill="#688732"/><path d="m93.41 314a15.34 15.34 0 0 0 -10.5-14.56l-.15-.05-.46-.13c-.31-.09-.61-.17-.93-.24l-.45-.09c-.35-.07-.69-.12-1.05-.16h-.36c-.48 0-1-.07-1.46-.07a15.36 15.36 0 0 0 0 30.72 14.13 14.13 0 0 0 1.46-.08h.36l1.05-.16.45-.1c.32-.07.62-.15.93-.24l.46-.13.15-.05a15.35 15.35 0 0 0 10.5-14.66z" fill="#688732"/><path d="m331.17 186.42a15.36 15.36 0 0 0 -10.51-14.56h-.16l-.45-.14c-.31-.09-.62-.17-.93-.23l-.45-.1c-.35-.06-.7-.12-1.05-.16h-.36a14.32 14.32 0 0 0 -1.47-.08 15.36 15.36 0 0 0 0 30.72 14.32 14.32 0 0 0 1.47-.08h.36c.35 0 .7-.1 1.05-.16l.45-.09q.47-.1.93-.24l.45-.14h.16a15.36 15.36 0 0 0 10.51-14.74z" fill="#779e39"/><path d="m187.42 101.45a15.36 15.36 0 0 0 -10.51-14.56h-.16l-.46-.14c-.3-.09-.61-.17-.92-.23l-.46-.1c-.34-.06-.69-.12-1-.16h-.37a14 14 0 0 0 -1.46-.08 15.36 15.36 0 0 0 0 30.72 14 14 0 0 0 1.46-.08h.37c.35 0 .7-.1 1-.16l.46-.09c.31-.07.62-.15.92-.24l.46-.14h.16a15.36 15.36 0 0 0 10.51-14.74z" fill="#688732"/><path d="m265.09 60a15.36 15.36 0 0 0 -10.51-14.56h-.16l-.42-.24c-.3-.09-.61-.17-.92-.23l-.46-.1c-.34-.06-.69-.12-1-.16h-.36a14.32 14.32 0 0 0 -1.47-.08 15.36 15.36 0 0 0 0 30.72 14.32 14.32 0 0 0 1.47-.08h.36c.35 0 .7-.1 1-.16l.46-.09c.31-.07.62-.15.92-.24l.46-.14h.16a15.36 15.36 0 0 0 10.47-14.64z" fill="#779e39"/><circle cx="321.06" cy="180.77" fill="#af3e0e" r="15.36"/><path d="m325.92 195.33a15 15 0 0 1 -4.86.8 15.36 15.36 0 1 1 4.86-29.93 15.36 15.36 0 0 0 0 29.13z" fill="#952f08"/><circle cx="327.62" cy="174.2" fill="#db5a2b" r="2.76"/><circle cx="260.22" cy="56.28" fill="#af3e0e" r="15.36"/><path d="m265.09 70.85a15.36 15.36 0 1 1 -4.87-29.92 15.11 15.11 0 0 1 4.87.79 15.36 15.36 0 0 0 0 29.13z" fill="#952f08"/><circle cx="266.78" cy="49.72" fill="#db5a2b" r="2.76"/><circle cx="87.37" cy="310.4" fill="#af3e0e" r="15.36"/><path d="m92.24 325a15 15 0 0 1 -4.86.8 15.36 15.36 0 1 1 4.86-29.93 15.36 15.36 0 0 0 0 29.13z" fill="#952f08"/><circle cx="93.94" cy="303.83" fill="#db5a2b" r="2.76"/><circle cx="180.51" cy="95.41" fill="#af3e0e" r="15.36"/><path d="m185.38 110a15.36 15.36 0 1 1 0-29.14 15.36 15.36 0 0 0 0 29.14z" fill="#952f08"/><circle cx="187.07" cy="88.85" fill="#db5a2b" r="2.76"/><circle cx="78.06" cy="165.41" fill="#af3e0e" r="15.36"/><path d="m82.92 180a15.36 15.36 0 1 1 0-29.14 15.36 15.36 0 0 0 0 29.14z" fill="#952f08"/><circle cx="84.62" cy="158.85" fill="#db5a2b" r="2.76"/><ellipse cx="310.5" cy="84" fill="#b1e361" rx="13.93" ry="19.68" transform="matrix(.86 -.51 .51 .86 .14 168.5)"/><ellipse cx="330.01" cy="117.29" fill="#b1e361" rx="6" ry="8.47" transform="matrix(.86 -.51 .51 .86 -14.02 182.93)"/><path d="m453.19 419.26q-4.65 5.61-9.61 11-6.24 6.69-12.92 12.95a256.42 256.42 0 0 1 -22 18.37q-6.84 5.1-14.05 9.73a251.76 251.76 0 0 1 -25.15 14.29 254.54 254.54 0 0 1 -100.85 26.13q-6.25.31-12.58.31a254.79 254.79 0 0 1 -144.67-44.78q-7-4.8-13.69-10.07-5.31-4.18-10.4-8.66-5.3-4.65-10.34-9.59a411.51 411.51 0 0 1 63.54-7.78q8.1-.37 16.38-.46h.2 4.76q6.63 0 13.14.19 4.86.14 9.65.37 5.69.29 11.25.71l.75.06c10 .76 19.68 1.85 29.07 3.24a110.53 110.53 0 0 0 61.33-8.4c25.62-11.51 58-18.38 93.12-18.38 26.51 0 51.43 3.91 73.07 10.77z" fill="#ecb64f"/><path d="m408.63 461.54q-6.84 5.1-14.05 9.73a251.76 251.76 0 0 1 -25.15 14.29 254.54 254.54 0 0 1 -100.85 26.13q-6.25.31-12.58.31a254.79 254.79 0 0 1 -144.67-44.78q-7-4.8-13.69-10.07-5.31-4.18-10.4-8.66-5.3-4.65-10.34-9.59-2.49-2.41-4.9-4.9c-1.44-1.48-2.86-3-4.26-4.51a372 372 0 0 1 72.7 1.64q8.12.93 16.38 2.2h.2q8.88 1.36 17.9 3.13c1.14.21 2.28.44 3.42.67q3.14.63 6.23 1.31 5.69 1.23 11.25 2.59l.75.19a425.89 425.89 0 0 1 43.43 13.1 110.51 110.51 0 0 0 61.77 4c27.4-6.19 60.46-6.49 94.92.49q6.07 1.25 11.94 2.73z" fill="#d7a249"/></g></svg>