<svg height="464pt" viewBox="0 -68 464 464" width="464pt" xmlns="http://www.w3.org/2000/svg"><path d="m424 0 40 56h-464l48-56zm0 0" fill="#ff9811"/><path d="m0 56h464v32h-464zm0 0" fill="#ffa733"/><path d="m72 88h24v184h-24zm0 0" fill="#787680"/><path d="m368 88h24v184h-24zm0 0" fill="#787680"/><path d="m16 88h32v240h-32zm0 0" fill="#acabb1"/><path d="m416 88h32v240h-32zm0 0" fill="#acabb1"/><path d="m72 88h24v8h-24zm0 0" fill="#57565c"/><path d="m368 88h24v8h-24zm0 0" fill="#57565c"/><g fill="#787680"><path d="m16 88h32v16h-32zm0 0"/><path d="m416 88h32v16h-32zm0 0"/></g></svg>