<?xml version="1.0" encoding="iso-8859-1"?>
<!-- Generator: Adobe Illustrator 19.0.0, SVG Export Plug-In . SVG Version: 6.00 Build 0)  -->
<svg version="1.1" id="Capa_1" xmlns="http://www.w3.org/2000/svg" xmlns:xlink="http://www.w3.org/1999/xlink" x="0px" y="0px"
	 viewBox="0 0 512 512" style="enable-background:new 0 0 512 512;" xml:space="preserve">
<path style="fill:#FFDA45;" d="M453.22,350.09c0,62.997-29.942,121.809-80.54,159c-2.58,1.89-5.69,2.91-8.88,2.91H148.2
	c-3.19,0-6.3-1.02-8.88-2.91c-50.558-37.162-80.54-95.952-80.54-159c0-37.27,10.46-73.58,30.25-104.99
	c2.57-4.07,4.97-8.23,7.19-12.46c17.26-32.69,24.45-69.7,20.33-105.65L103.93,16.71c-0.49-4.25,0.86-8.5,3.71-11.7
	C110.48,1.82,114.55,0,118.83,0h274.34c4.28,0,8.35,1.82,11.19,5.01c2.85,3.2,4.2,7.45,3.71,11.7l-12.62,110.28
	c-4.12,35.95,3.07,72.96,20.33,105.65c2.22,4.23,4.62,8.39,7.19,12.46C442.76,276.51,453.22,312.82,453.22,350.09z"/>
<path style="fill:#2864F0;" d="M453.22,350.09c0,62.997-29.942,121.809-80.54,159c-2.58,1.89-5.69,2.91-8.88,2.91H148.2
	c-3.19,0-6.3-1.02-8.88-2.91c-50.558-37.162-80.54-95.952-80.54-159c0-37.27,10.46-73.58,30.25-104.99
	c2.57-4.07,4.97-8.23,7.19-12.46L156,268.51l92.28-55.37c4.75-2.85,10.68-2.85,15.43,0L356,268.51l59.78-35.87
	c2.22,4.23,4.62,8.39,7.19,12.46C442.76,276.51,453.22,312.82,453.22,350.09z"/>
<path style="fill:#FFBC36;" d="M422.97,245.1c-2.57-4.07-4.97-8.23-7.19-12.46c-17.26-32.69-24.45-69.7-20.33-105.65l12.62-110.28
	c0.49-4.25-0.86-8.5-3.71-11.7C401.52,1.82,397.45,0,393.17,0H256v512h107.8c3.19,0,6.3-1.02,8.88-2.91
	c50.598-37.191,80.54-96.003,80.54-159C453.22,312.82,442.76,276.51,422.97,245.1z"/>
<path style="fill:#0053BF;" d="M422.97,245.1c-2.57-4.07-4.97-8.23-7.19-12.46L356,268.51l-92.29-55.37
	c-2.374-1.424-5.042-2.136-7.71-2.137V512h107.8c3.19,0,6.3-1.02,8.88-2.91c50.598-37.191,80.54-96.003,80.54-159
	C453.22,312.82,442.76,276.51,422.97,245.1z"/>
<g>
</g>
<g>
</g>
<g>
</g>
<g>
</g>
<g>
</g>
<g>
</g>
<g>
</g>
<g>
</g>
<g>
</g>
<g>
</g>
<g>
</g>
<g>
</g>
<g>
</g>
<g>
</g>
<g>
</g>
</svg>
