<svg id="Capa_1" enable-background="new 0 0 512 512" height="512" viewBox="0 0 512 512" width="512" xmlns="http://www.w3.org/2000/svg"><g><g><circle cx="245.815" cy="320.166" fill="#0f7a4f" r="67.148"/><path d="m312.964 320.169c0 37.08-30.068 67.148-67.148 67.148-15.823 0-30.368-5.474-41.845-14.635 6.024 1.778 12.397 2.727 19 2.727 37.08 0 67.138-30.068 67.138-67.148 0-21.258-9.879-40.217-25.293-52.514 27.83 8.192 48.148 33.935 48.148 64.422z" fill="#0c6842"/></g><g><circle cx="349.391" cy="159.738" fill="#158f5e" r="67.148"/><path d="m416.544 159.74c0 37.081-30.068 67.148-67.148 67.148-5.364 0-10.579-.629-15.573-1.818 29.568-7.032 51.565-33.614 51.565-65.33 0-31.726-21.997-58.308-51.565-65.33 4.995-1.189 10.209-1.818 15.573-1.818 37.08 0 67.148 30.058 67.148 67.148z" fill="#0f7a4f"/></g><g><circle cx="437.352" cy="251.198" fill="#158f5e" r="67.148"/><path d="m504.5 251.203c0 37.081-30.068 67.148-67.148 67.148-6.104 0-12.017-.819-17.641-2.347 32.905-4.335 58.298-32.485 58.298-66.569 0-30.977-20.978-57.059-49.507-64.801 2.897-.379 5.854-.579 8.851-.579 37.079-.001 67.147 30.057 67.147 67.148z" fill="#0f7a4f"/></g><g><path d="m394.251 370.492c-28.949 0-52.417-23.468-52.417-52.417v-114.64c0-28.949 23.468-52.417 52.417-52.417 28.949 0 52.417 23.468 52.417 52.417v114.64c0 28.949-23.468 52.417-52.417 52.417z" fill="#d2f0a2"/><path d="m446.672 203.434v114.638c0 28.949-23.475 52.424-52.424 52.424-4.445 0-8.761-.549-12.876-1.598 22.726-5.734 39.548-26.322 39.548-50.826v-114.638c0-14.475-5.864-27.581-15.354-37.06-6.573-6.573-14.884-11.408-24.194-13.755 4.116-1.049 8.431-1.598 12.876-1.598 14.475 0 27.581 5.864 37.07 15.354 9.49 9.478 15.354 22.584 15.354 37.059z" fill="#bcea73"/></g><g><path d="m127.262 239.334c-28.949 0-52.417-23.468-52.417-52.417v-73.377c0-28.949 23.468-52.417 52.417-52.417 28.949 0 52.417 23.468 52.417 52.417v73.377c0 28.949-23.468 52.417-52.417 52.417z" fill="#d2f0a2"/><path d="m179.677 113.539v73.382c0 28.949-23.465 52.414-52.414 52.414-4.955 0-9.76-.689-14.305-1.978 21.997-6.223 38.109-26.442 38.109-50.436v-73.382c0-14.475-5.864-27.58-15.354-37.061-6.233-6.243-14.035-10.908-22.756-13.376 4.545-1.289 9.35-1.978 14.305-1.978 14.475 0 27.581 5.864 37.06 15.353 9.491 9.482 15.355 22.588 15.355 37.062z" fill="#bcea73"/></g><g><circle cx="200.742" cy="256.282" fill="#1ca56f" r="79.584"/><path d="m280.329 256.277c0 43.953-35.632 79.585-79.585 79.585-12.617 0-24.544-2.937-35.142-8.171 37.01-6.833 65.051-39.268 65.051-78.256 0-31.337-18.111-58.438-44.433-71.414 4.705-.869 9.56-1.319 14.524-1.319 43.953 0 79.585 35.632 79.585 79.575z" fill="#158f5e"/></g><g><path d="m349.391 273.296c0 92.232-23.664 90.587-52.854 90.587s-52.854 1.645-52.854-90.587 29.826-196.291 52.854-196.291 52.854 104.059 52.854 196.291z" fill="#a3e440"/><path d="m349.391 273.296c0 92.232-23.664 90.587-52.854 90.587s-52.854 1.645-52.854-90.587 29.826-196.291 52.854-196.291 52.854 104.059 52.854 196.291z" fill="#a3e440"/><path d="m349.386 273.294c0 92.237-23.658 90.587-52.849 90.587-4.755 0-9.371.046-13.759-.286 22.512-1.673 39.09-13.118 39.09-90.301 0-74.513-19.476-156.737-39.09-185.585 4.663-6.863 9.337-10.701 13.759-10.701 23.028.001 52.849 104.061 52.849 196.286z" fill="#99d53b"/></g><g><path d="m8.03 340.598c0 71.04 32.021 69.773 71.52 69.773s71.52 1.267 71.52-69.773-40.359-151.19-71.52-151.19-71.52 80.15-71.52 151.19z" fill="#a3e440"/><path d="m8.03 340.598c0 71.04 32.021 69.773 71.52 69.773s71.52 1.267 71.52-69.773-40.359-151.19-71.52-151.19-71.52 80.15-71.52 151.19z" fill="#99d53b"/><path d="m151.067 340.597c0 71.044-32.016 69.775-71.514 69.775-5.134 0-10.129.02-14.954-.1 32.315-.789 56.56-7.861 56.56-69.676 0-60.036-28.819-126.575-56.56-145.745 5.085-3.526 10.129-5.444 14.954-5.444 31.157.001 71.514 80.146 71.514 151.19z" fill="#8dc637"/></g><g><path d="m219.269 343.268c0 52.499-23.664 51.563-52.854 51.563s-52.854.937-52.854-51.563 29.826-111.731 52.854-111.731 52.854 59.232 52.854 111.731z" fill="#a3e440"/><path d="m219.269 343.268c0 52.499-23.664 51.563-52.854 51.563s-52.854.937-52.854-51.563 29.826-111.731 52.854-111.731 52.854 59.232 52.854 111.731z" fill="#a3e440"/><path d="m219.264 343.264c0 52.504-23.655 51.565-52.854 51.565-5.444 0-10.689.03-15.633-.26 21.557-1.249 37.22-8.591 37.22-51.305 0-41.066-18.25-86.248-37.22-103.989 5.274-4.935 10.619-7.742 15.633-7.742 23.036.001 52.854 59.237 52.854 111.731z" fill="#99d53b"/></g><g><path d="m500.971 368.843c0 37.837-17.055 37.162-38.093 37.162s-38.093.675-38.093-37.162 21.496-80.526 38.093-80.526 38.093 42.689 38.093 80.526z" fill="#a3e440"/><path d="m500.971 368.843c0 37.837-17.055 37.162-38.093 37.162s-38.093.675-38.093-37.162 21.496-80.526 38.093-80.526 38.093 42.689 38.093 80.526z" fill="#a3e440"/><path d="m500.974 368.847c0 37.83-17.062 37.16-38.099 37.16-4.475 0-8.771.03-12.756-.29 14.764-1.169 25.323-7.092 25.323-36.871 0-28.52-12.207-59.786-25.323-73.472 4.275-4.475 8.661-7.063 12.756-7.063 16.602.002 38.099 42.696 38.099 80.536z" fill="#99d53b"/></g><path d="m503.971 440.245h-33.592v-26.782c8.846-.175 17.114-1.099 24.07-5.932 9.566-6.646 14.022-18.94 14.022-38.688 0-21.953-7.214-47.54-17.776-65.452 13.75-14.023 21.305-32.443 21.305-52.193 0-36.899-27.404-68.559-63.822-73.858-5.356-11.023-13.998-20.158-24.639-26.147-4.299-37.748-36.003-66.103-74.147-66.103-9.892 0-19.453 1.907-28.478 5.643-7.75-14.234-15.807-21.229-24.376-21.229-8.688 0-16.728 7.079-24.576 21.642-6.235 11.568-12.361 27.969-17.718 47.426-3.683 13.381-6.873 27.755-9.514 42.54-13.291-7.815-28.314-11.914-43.987-11.914-4.594 0-9.125.363-13.563 1.062v-56.72c0-25.125-15.864-47.764-39.477-56.333-3.893-1.413-8.195.598-9.609 4.491-1.413 3.894.598 8.195 4.492 9.608 17.701 6.425 29.594 23.396 29.594 42.233v60.487c-14.502 5.038-27.418 13.823-37.417 25.413v-12.249l14.413-14.413c2.929-2.93 2.929-7.678 0-10.607-2.929-2.928-7.678-2.928-10.606 0l-3.807 3.807v-45.71c0-4.143-3.358-7.5-7.5-7.5s-7.5 3.357-7.5 7.5v11.215l-7.564-7.564c-2.929-2.928-7.678-2.928-10.606 0-2.929 2.93-2.929 7.678 0 10.607l18.171 18.171v58.161c-10.938-15.765-23.801-27.37-37.417-28.789v-68.528c0-18.772 11.836-35.726 29.454-42.185 3.889-1.426 5.885-5.734 4.459-9.624-1.426-3.889-5.733-5.881-9.624-4.46-23.5 8.617-39.29 31.229-39.29 56.269v71.168c-14.469 6.493-29.263 24.069-41.992 50.39-15.545 32.139-24.824 71.579-24.824 105.5 0 34.729 7.468 56.094 23.501 67.233 13.16 9.144 30.003 9.969 48.019 10.035v22.379h-64.55c-4.142 0-7.5 3.357-7.5 7.5s3.358 7.5 7.5 7.5h496.471c4.143 0 7.5-3.357 7.5-7.5s-3.358-7.5-7.5-7.5zm-361.479-38.979c5.225.787 10.74.995 16.422 1.047v37.933h-24.153v-32.178c2.756-1.883 5.341-4.128 7.731-6.802zm31.423 1.048c6.747-.059 13.259-.336 19.327-1.55v39.481h-19.327zm78.954-44.971c7.1 8.667 15.737 11.979 24.843 13.249-9.438 6.003-20.389 9.223-31.897 9.223-8.139 0-15.965-1.602-23.325-4.742 2.884-8.371 4.279-18.874 4.279-31.804 0-1.272-.029-2.558-.062-3.844 5.193-1.619 10.198-3.731 14.988-6.29 2.677 10.419 6.37 18.343 11.174 24.208zm-44.308 37.219c2.528-1.756 4.776-3.836 6.762-6.248 8.924 4.009 18.405 6.184 28.264 6.468v45.463h-35.344zm50.025-.845c11.018-1.881 21.369-6.189 30.451-12.677v59.205h-30.451zm45.451-22.361c5.848-.09 11.683-.459 17.24-1.923v70.812h-17.24zm48.609-9.661v78.55h-16.368v-78.777c1.353-1.221 2.666-2.585 3.928-4.125 1.49-1.819 2.872-3.84 4.152-6.067 2.416 3.635 5.183 7.429 8.288 10.419zm15 10.077c5.922 2.932 12.365 4.903 19.105 5.747v62.726h-19.105zm34.105 5.743c5.385-.676 10.639-2.077 15.627-4.164.65 17.123 5.116 28.057 13.93 34.18 6.956 4.833 15.229 5.785 24.07 5.948v26.765h-53.628v-62.729zm84.14 17.698c-3.608 2.506-9.064 3.123-15.512 3.26v-13.592c.139-.12.279-.239.411-.371l11.909-11.909c2.929-2.93 2.929-7.678 0-10.607-2.93-2.928-7.678-2.928-10.607 0l-1.713 1.713v-21.404c0-4.143-3.357-7.5-7.5-7.5s-7.5 3.357-7.5 7.5v56.172c-6.456-.137-11.903-.753-15.512-3.261-5.102-3.545-7.582-12.17-7.582-26.37 0-16.418 4.514-35.553 12.074-51.187 7.695-15.91 15.443-21.839 18.52-21.839s10.824 5.929 18.519 21.839c7.561 15.634 12.074 34.769 12.074 51.187 0 14.199-2.48 22.824-7.581 26.369zm11.109-144.015c0 14.921-5.402 28.891-15.276 39.842-5.877-6.376-12.308-10.223-18.845-10.223-2.939 0-5.856.777-8.711 2.211v-79.593c0-3.304-.28-6.542-.797-9.702 25.349 7.074 43.629 30.521 43.629 57.465zm-146.668-58.237c5.366-19.366 23.796-34.443 43.919-34.443 24.768 0 44.917 20.149 44.917 44.917v93.621c-10.632 14.832-18.742 37.656-21.148 59.146-.036.021-.073.038-.108.06-4.952 3.076-10.443 5.113-16.161 6.077v-43.99l14.413-14.413c2.929-2.93 2.929-7.678 0-10.607-2.93-2.928-7.678-2.928-10.607 0l-3.806 3.806v-45.709c0-4.143-3.357-7.5-7.5-7.5s-7.5 3.357-7.5 7.5v11.215l-7.563-7.564c-2.929-2.929-7.678-2.93-10.606-.001-2.93 2.929-2.93 7.678-.001 10.606l18.171 18.172v78.507c-16.156-2.719-29.769-14.093-35.102-30.006-.013-.039-.031-.074-.044-.113 3.6-14.51 5.286-33.761 5.286-58.947 0-25.4-2.326-53.253-6.56-80.334zm-53.795-108.456c1.75 0 10.496 6.29 21.313 37.064 1.373 3.907 5.65 5.963 9.563 4.588 3.907-1.373 5.962-5.654 4.588-9.563-1.552-4.414-3.113-8.501-4.684-12.286 7.005-2.798 14.414-4.218 22.075-4.218 27.736 0 51.214 18.755 57.805 44.852-4.172-.923-8.5-1.424-12.946-1.424-19.482 0-37.327 9.513-48.389 24.607-1.132-5.522-2.334-10.973-3.621-16.308-.972-4.026-5.022-6.505-9.05-5.532-4.026.972-6.503 5.023-5.532 9.05 9.045 37.498 14.232 80.493 14.232 117.96 0 39.243-4.347 63.625-13.29 74.541-5.753 7.023-13.082 8.297-24.564 8.508v-38.393l24.331-24.331c2.929-2.93 2.929-7.678 0-10.607-2.93-2.928-7.678-2.928-10.607 0l-13.724 13.724v-62.506c0-4.143-3.357-7.5-7.5-7.5s-7.5 3.357-7.5 7.5v15.679l-10.667-10.667c-2.93-2.928-7.678-2.928-10.607 0-2.929 2.93-2.929 7.678 0 10.607l21.251 21.251c.008.008.016.014.023.021v85.222c-11.482-.211-18.812-1.486-24.564-8.508-8.943-10.916-13.29-35.298-13.29-74.541 0-42.009 6.551-90.885 17.522-130.742 13.136-47.719 25.481-58.048 27.832-58.048zm-95.795 99.693c14.958 0 29.2 4.506 41.347 13.04-3.808 25.666-5.906 51.959-5.906 76.058 0 17.487.815 32.107 2.516 44.274-4.159 2.584-8.548 4.72-13.122 6.397-2.417-20.204-8.44-41.091-17.335-59.491v-18.184l15.806-15.806c2.929-2.929 2.929-7.677 0-10.606-2.929-2.928-7.678-2.929-10.606.001l-5.199 5.199v-8.658c0-4.143-3.358-7.5-7.5-7.5s-7.5 3.357-7.5 7.5v23.918c-8.732-10.562-17.992-16.303-26.827-16.303-10.617 0-20.524 7.783-29.012 19.038-1.517-3.467-3.128-6.915-4.822-10.311 10.019-29.05 37.407-48.566 68.16-48.566zm-168.152 211.315c-7.324-5.089-17.06-16.317-17.06-54.915 0-31.77 8.72-68.768 23.327-98.97 13.138-27.166 29.111-44.72 40.694-44.72 12.109 0 32.472 21.205 48.032 61.73-4.703 8.788-8.67 18.302-11.693 27.338-1.314 3.928.805 8.178 4.733 9.491 3.928 1.318 8.178-.805 9.492-4.733 10.682-31.932 27.159-51.697 36.299-51.697 6.195 0 17.697 9.996 28.311 31.943 10.672 22.067 17.043 49.091 17.043 72.288 0 20.725-3.849 33.474-11.767 38.975-6.213 4.316-15.379 4.96-26.087 5.065v-22.935l24.331-24.331c2.929-2.93 2.929-7.678 0-10.607-2.929-2.928-7.678-2.928-10.606 0l-13.725 13.725v-36.718c0-4.143-3.358-7.5-7.5-7.5s-7.5 3.357-7.5 7.5v80.872c-10.71-.098-19.874-.753-26.087-5.07-7.918-5.501-11.767-18.25-11.767-38.975 0-6.063.424-12.417 1.261-18.886.531-4.107-2.368-7.868-6.476-8.4-4.109-.525-7.869 2.368-8.4 6.477-.919 7.104-1.385 14.105-1.385 20.81 0 26.364 5.786 42.663 18.208 51.294.609.423 1.231.813 1.858 1.191-9.549 6.412-22.948 7.042-39.076 7.108v-78.313l11.516-11.516c2.929-2.93 2.929-7.678 0-10.607-2.929-2.928-7.678-2.928-10.606 0l-.91.91v-20.647c0-4.143-3.358-7.5-7.5-7.5s-7.5 3.357-7.5 7.5v64.157l-9.443-9.443c-2.929-2.928-7.678-2.928-10.606 0-2.929 2.93-2.929 7.678 0 10.607l18.99 18.99c.331.331.688.619 1.06.875v34.989c-16.075-.064-29.908-.717-39.461-7.352zm54.46 22.349c11.577-.048 22.736-.411 32.711-3.097v25.48h-32.711z"/></g></svg>