<?xml version="1.0"?>
<svg xmlns="http://www.w3.org/2000/svg" xmlns:xlink="http://www.w3.org/1999/xlink" xmlns:svgjs="http://svgjs.com/svgjs" version="1.1" width="512" height="512" x="0" y="0" viewBox="0 0 512 512" style="enable-background:new 0 0 512 512" xml:space="preserve" class=""><g><path xmlns="http://www.w3.org/2000/svg" d="m475.175781 14.886719c-1.269531-8.554688-8.609375-14.886719-17.257812-14.886719h-403.835938c-8.648437 0-15.988281 6.332031-17.257812 14.886719l-36.824219 248.050781v77.351562c0 6.992188 5.667969 12.660157 12.660156 12.660157h486.679688c6.992187 0 12.660156-5.667969 12.660156-12.660157v-77.351562zm0 0" fill="#af7a35" data-original="#8fd143" style="" class=""/><path xmlns="http://www.w3.org/2000/svg" d="m475.175781 14.886719c-1.269531-8.554688-8.609375-14.886719-17.257812-14.886719h-66.03125c8.644531 0 15.984375 6.332031 17.257812 14.886719l36.820313 248.050781v77.351562c0 6.992188-5.667969 12.660157-12.660156 12.660157h66.035156c6.992187 0 12.660156-5.667969 12.660156-12.660157v-77.351562zm0 0" fill="#af7a35" data-original="#7bb72e" style="" class=""/><path xmlns="http://www.w3.org/2000/svg" d="m448.175781 114.746094c0 17.554687-30.59375 38.957031-53.691406 51.78125-18.597656 10.332031-42.410156 11.183594-70.789063 16.1875-20.167968 3.558594-35.289062 25.671875-58.390624 25.671875-26.105469 0-58.636719-15.335938-80.851563-19.816407-20.765625-4.1875-59.726563-1.550781-75.070313-8.769531-28.609374-13.46875-45.554687-54.902343-45.554687-74.679687 0-20.816406 39.261719-24.792969 70.59375-38.457032 15.734375-6.863281 40.113281 9.789063 60.945313 5.953126 20.832031-3.839844 38.117187-28.171876 62.167968-28.171876 38.101563 0 64.464844 19.132813 93.109375 28.171876 15.808594 4.984374 38.484375-2.703126 49.652344 4.269531 19.574219 12.226562 47.878906 21.835937 47.878906 37.859375zm0 0" fill="#d19a43" data-original="#575d60" style="" class=""/><path xmlns="http://www.w3.org/2000/svg" d="m243.167969 126.414062c-68.542969 0-128.097657 13.144532-158.28125 32.449219 6.746093 8.855469 14.96875 16.449219 24.496093 20.9375 15.339844 7.21875 54.304688 4.582031 75.070313 8.769531 22.214844 4.480469 54.746094 19.816407 80.851563 19.816407 23.101562 0 38.222656-22.113281 58.390624-25.671875 28.378907-5.003906 52.191407-5.859375 70.789063-16.1875 3.171875-1.757813 6.488281-3.6875 9.84375-5.742188-29.164063-20.351562-90.367187-34.371094-161.160156-34.371094zm0 0" fill="#d19a43" data-original="#464c50" style="" class=""/><path xmlns="http://www.w3.org/2000/svg" d="m499.339844 352.949219h-486.679688c-6.992187 0-12.660156-5.667969-12.660156-12.660157v-77.351562h512v77.351562c0 6.992188-5.667969 12.660157-12.660156 12.660157zm0 0" fill="#e88c38" data-original="#e88c38" style="" class=""/><g xmlns="http://www.w3.org/2000/svg" fill="#cc7a2f"><path d="m512 340.289062v-77.351562h-66.035156v77.351562c0 6.992188-5.667969 12.660157-12.660156 12.660157h66.035156c6.992187 0 12.660156-5.667969 12.660156-12.660157zm0 0" fill="#cc7a2f" data-original="#cc7a2f" style="" class=""/><path d="m60.070312 285.054688h-60.070312v15.484374h60.070312c4.273438 0 7.742188-3.46875 7.742188-7.742187 0-4.277344-3.46875-7.742187-7.742188-7.742187zm0 0" fill="#cc7a2f" data-original="#cc7a2f" style="" class=""/><path d="m173.0625 300.539062h-61.039062c-4.277344 0-7.742188-3.464843-7.742188-7.742187s3.464844-7.742187 7.742188-7.742187h61.039062c4.277344 0 7.742188 3.464843 7.742188 7.742187 0 4.273437-3.464844 7.742187-7.742188 7.742187zm0 0" fill="#cc7a2f" data-original="#cc7a2f" style="" class=""/><path d="m286.054688 300.539062h-61.039063c-4.273437 0-7.742187-3.464843-7.742187-7.742187s3.46875-7.742187 7.742187-7.742187h61.039063c4.277343 0 7.742187 3.464843 7.742187 7.742187 0 4.273437-3.464844 7.742187-7.742187 7.742187zm0 0" fill="#cc7a2f" data-original="#cc7a2f" style="" class=""/><path d="m399.050781 300.539062h-61.039062c-4.277344 0-7.742188-3.464843-7.742188-7.742187s3.464844-7.742187 7.742188-7.742187h61.039062c4.273438 0 7.738281 3.464843 7.738281 7.742187 0 4.273437-3.464843 7.742187-7.738281 7.742187zm0 0" fill="#cc7a2f" data-original="#cc7a2f" style="" class=""/></g><path xmlns="http://www.w3.org/2000/svg" d="m512 285.054688h-67.964844c-4.273437 0-7.742187 3.464843-7.742187 7.742187s3.46875 7.742187 7.742187 7.742187h67.964844zm0 0" fill="#e88c38" data-original="#e88c38" style="" class=""/><path xmlns="http://www.w3.org/2000/svg" d="m116.566406 335.230469h-61.039062c-4.277344 0-7.742188-3.464844-7.742188-7.742188 0-4.277343 3.464844-7.742187 7.742188-7.742187h61.039062c4.277344 0 7.742188 3.464844 7.742188 7.742187 0 4.277344-3.464844 7.742188-7.742188 7.742188zm0 0" fill="#cc7a2f" data-original="#cc7a2f" style="" class=""/><path xmlns="http://www.w3.org/2000/svg" d="m229.558594 335.230469h-61.039063c-4.277343 0-7.742187-3.464844-7.742187-7.742188 0-4.277343 3.464844-7.742187 7.742187-7.742187h61.039063c4.277344 0 7.742187 3.464844 7.742187 7.742187 0 4.277344-3.464843 7.742188-7.742187 7.742188zm0 0" fill="#cc7a2f" data-original="#cc7a2f" style="" class=""/><path xmlns="http://www.w3.org/2000/svg" d="m342.550781 335.230469h-61.039062c-4.273438 0-7.742188-3.464844-7.742188-7.742188 0-4.277343 3.46875-7.742187 7.742188-7.742187h61.039062c4.277344 0 7.742188 3.464844 7.742188 7.742187 0 4.277344-3.464844 7.742188-7.742188 7.742188zm0 0" fill="#cc7a2f" data-original="#cc7a2f" style="" class=""/><path xmlns="http://www.w3.org/2000/svg" d="m455.546875 335.230469h-61.039063c-4.277343 0-7.742187-3.464844-7.742187-7.742188 0-4.277343 3.464844-7.742187 7.742187-7.742187h61.039063c4.273437 0 7.738281 3.464844 7.738281 7.742187 0 4.277344-3.464844 7.742188-7.738281 7.742188zm0 0" fill="#cc7a2f" data-original="#cc7a2f" style="" class=""/></g></svg>
