<svg height="480pt" viewBox="0 0 480 480" width="480pt" xmlns="http://www.w3.org/2000/svg"><path d="m144 191.980469h208v88h-208zm0 0" fill="#870018"/><g fill="#4e901e"><path d="m448 90.539062v32c-8.488281.011719-16.636719-3.355468-22.640625-9.359374-6.003906-6.003907-9.371094-14.148438-9.359375-22.640626v-32c8.488281-.011718 16.636719 3.359376 22.640625 9.363282 6.003906 6 9.371094 14.148437 9.359375 22.636718zm0 0"/><path d="m89.359375 67.101562-8.320313 30.878907c-3.730468 13.996093-16.394531 23.742187-30.878906 23.757812-2.808594-.023437-5.605468-.398437-8.320312-1.117187l8.320312-30.882813c3.730469-13.996093 16.394532-23.738281 30.878906-23.757812 2.808594.023437 5.605469.398437 8.320313 1.121093zm0 0"/><path d="m233.359375 17.339844 22.640625 22.640625c-12.515625 12.476562-32.765625 12.476562-45.28125 0l-22.640625-22.640625c12.515625-12.476563 32.769531-12.476563 45.28125 0zm0 0"/></g><path d="m64.070312 151.980469c6.929688-4 11.007813-11.808594 18.355469-16.050781 30.609375-17.671876 69.75-7.183594 87.421875 23.425781 15.039063 26.054687 18.398438 73.273437.199219 97.601562-3.097656 4.300781-7.066406 7.902344-11.648437 10.574219-7.34375 4.242188-16.214844 3.914062-23.140626 7.914062-6.929687 4-11.082031 11.847657-18.402343 16.085938-13.941407 6.710938-30.140625 6.894531-44.230469.503906-21.410156-8.128906-39.882812-22.503906-53.015625-41.261718-.753906-1.136719-1.496094-2.28125-2.175781-3.457032-17.675782-30.609375-7.1875-69.75 23.421875-87.425781 7.34375-4.238281 16.214843-3.910156 23.144531-7.910156zm0 0" fill="#bd0022"/><path d="m416.054688 144.035156c5.65625 5.65625 14.257812 7.585938 20.257812 13.601563 24.996094 24.992187 24.996094 65.515625 0 90.511719-21.273438 21.269531-66.015625 36.710937-94.25 25.457031-4.964844-1.882813-9.484375-4.78125-13.261719-8.515625-5.992187-5.988282-8-14.644532-13.601562-20.300782-5.597657-5.65625-14.3125-7.640624-20.304688-13.601562-10.089843-11.730469-14.460937-27.332031-11.933593-42.601562 2.308593-22.78125 11.414062-44.34375 26.136718-61.886719.902344-1.015625 1.804688-2.03125 2.765625-3 24.996094-24.996094 65.519531-24.996094 90.511719 0 5.992188 6 8 14.65625 13.601562 20.3125zm0 0" fill="#e13957"/><path d="m8 255.980469h464v216h-464zm0 0" fill="#957856"/><path d="m248.078125 76.699219c8 0 15.441406-4.71875 23.921875-4.71875 35.347656 0 64 28.652343 64 64 0 30.078125-20.71875 72.640625-48.640625 84.640625-4.828125 2.179687-10.0625 3.324218-15.359375 3.359375-8.480469 0-16-4.722657-24-4.722657s-15.519531 4.722657-24 4.722657c-15.429688-1.160157-29.550781-9.101563-38.558594-21.679688-14.476562-17.742187-23.285156-39.429687-25.28125-62.242187-.082031-1.359375-.160156-2.71875-.160156-4.078125 0-35.347657 28.652344-64 64-64 8.480469 0 16 4.71875 24 4.71875zm0 0" fill="#d80027"/><path d="m472 247.980469h-26.59375c23.871094-28.652344 22.023438-70.757813-4.261719-97.207031-3.664062-3.390626-7.808593-6.21875-12.296875-8.394532l-.304687-.175781c23.863281-17.289063 41.65625-7.582031 42.488281-7.113281l8.160156-13.757813c-7.144531-3.742187-15.128906-5.582031-23.191406-5.351562v-25.425781c-.027344-22.078126-17.917969-39.972657-40-40-4.417969 0-8 3.582031-8 8v32c.03125 13.742187 7.125 26.503906 18.785156 33.777343-3.511718 2.035157-6.871094 4.320313-10.050781 6.839844-.375-.679687-.757813-1.3125-1.140625-2.015625-2.171875-4.484375-5.003906-8.621094-8.394531-12.273438-19.214844-19.015624-47.453125-25.691406-73.152344-17.296874-12.90625-22.03125-36.511719-35.578126-62.046875-35.605469-4.992188.179687-9.929688 1.101562-14.648438 2.734375l-.34375.097656c4.640626-29.113281 24.082032-34.832031 25.015626-35.097656l-2.023438-7.734375-1.945312-7.761719c-8.082032 2.542969-15.34375 7.1875-21.039063 13.464844l-17.992187-17.992188c-15.628907-15.589844-40.929688-15.589844-56.558594 0-3.125 3.125-3.125 8.1875 0 11.3125l22.625 22.632813c7.492187 7.503906 17.671875 11.714843 28.277344 11.695312 3.242187-.046875 6.464843-.480469 9.601562-1.296875-.96875 3.710938-1.675781 7.480469-2.121094 11.289063-.734375-.214844-1.433594-.382813-2.183594-.609375-4.726562-1.632813-9.667968-2.554688-14.664062-2.734375-35.585938.0625-65.796875 26.097656-71.113281 61.289062-22.097657-12.628906-49.242188-12.5625-71.277344.175781-4.21875 2.625-8.03125 5.859376-11.304687 9.597657-.5625.585937-1.097657 1.097656-1.640626 1.65625-2.28125-3.0625-4.769531-5.964844-7.449218-8.6875 13.460937-3.855469 23.917968-14.480469 27.5625-28l8.277344-30.910157c1.144531-4.269531-1.386719-8.65625-5.65625-9.800781-10.257813-2.746093-21.183594-1.300781-30.375 4.015625-9.191407 5.320313-15.890626 14.074219-18.625 24.335938l-6.574219 24.566406c-8.070313-2.582031-16.679688-2.976562-24.953125-1.136719l4.328125 15.402344c.9375-.242187 20.632812-5.007813 39.199219 17.871094l-.183594.046875c-4.96875.945312-9.761719 2.644531-14.214844 5.042968-16.574219 9.523438-28.667969 25.261719-33.613281 43.726563-4.945313 18.464844-2.332031 38.136719 7.261719 54.671875l.136718.136719h-5.785156c-4.417969 0-8 3.582031-8 8v216c0 4.417969 3.582031 8 8 8h464c4.417969 0 8-3.582031 8-8v-216c0-4.417969-3.582031-8-8-8zm-48-180.050781c9.589844 3.390624 16 12.457031 16 22.625v22.632812c-9.582031-3.402344-15.988281-12.464844-16-22.632812zm-207.601562-33.597657-16-16c9.179687-4.382812 20.121093-2.503906 27.3125 4.6875l16 16c-9.179688 4.363281-20.113282 2.484375-27.3125-4.695312zm247.601562 285.648438h-448v-56h448zm0 16v56h-448v-56zm-271.097656-115.664063c8.78125 7.242188 19.722656 11.34375 31.097656 11.664063 4.992188-.183594 9.929688-1.105469 14.648438-2.738281 3.011718-1.074219 6.160156-1.734376 9.351562-1.957032 3.191406.222656 6.339844.882813 9.351562 1.957032 4.71875 1.632812 9.65625 2.554687 14.648438 2.738281 3.984375-.054688 7.941406-.648438 11.769531-1.761719 1.398438 1.957031 2.953125 3.796875 4.65625 5.496094 3.660157 3.40625 7.808594 6.25 12.308594 8.433594 2.148437 1.125 4.210937 2.40625 6.167969 3.832031h-121.367188c3.960938-8.753907 6.449219-18.101563 7.367188-27.664063zm202.960937-92.121094c2.277344 2.582032 4.183594 5.472657 5.65625 8.585938 2.117188 4.332031 4.859375 8.328125 8.144531 11.863281 3.46875 3.164063 7.378907 5.804688 11.609376 7.847657 3.101562 1.464843 5.988281 3.351562 8.582031 5.597656 21.78125 21.929687 21.78125 57.328125 0 79.257812-2.453125 2.402344-5.089844 4.613282-7.878907 6.617188h-94.953124c-1.859376-3.636719-4.222657-6.988282-7.023438-9.960938-3.46875-3.203125-7.390625-5.875-11.640625-7.9375-3.117187-1.476562-6.011719-3.382812-8.597656-5.664062-.335938-.335938-.585938-.710938-.898438-1.054688 26.945313-17.558594 45.136719-58.433594 45.136719-87.367187 0-7.398438-1.144531-14.753907-3.390625-21.800781 19.597656-5.71875 40.753906-.351563 55.253906 14.015624zm-171.863281-48.214843c3.4375.214843 6.828125.910156 10.070312 2.0625 4.488282 1.558593 9.183594 2.445312 13.929688 2.632812 4.746094-.1875 9.441406-1.074219 13.929688-2.632812 3.242187-1.152344 6.632812-1.847657 10.070312-2.0625 30.914062.035156 55.964844 25.085937 56 56 0 30.863281-25.601562 80-56 80-3.4375-.214844-6.828125-.910157-10.070312-2.066407-4.488282-1.554687-9.183594-2.441406-13.929688-2.628906-4.746094.1875-9.441406 1.074219-13.929688 2.628906-3.242187 1.15625-6.632812 1.851563-10.070312 2.066407-30.398438 0-56-49.136719-56-80 .035156-30.914063 25.085938-55.964844 56-56zm-166.136719 11.816406c2.632813-9.835937 11.1875-16.9375 21.335938-17.722656l-5.855469 21.855469c-2.648438 9.828124-11.195312 16.925781-21.34375 17.722656zm-30.375 147.941406c-7.4375-12.859375-9.453125-28.152343-5.59375-42.5 3.859375-14.347656 13.269531-26.566406 26.152344-33.960937 3.113281-1.566406 6.4375-2.675782 9.863281-3.296875 4.558594-.882813 8.96875-2.414063 13.089844-4.554688.234375-.132812.460938-.28125.679688-.4375 3.785156-2.480469 7.21875-5.464843 10.207031-8.863281 2.246093-2.617188 4.84375-4.90625 7.722656-6.800781 19.949219-11.5625 44.972656-9.601563 62.878906 4.925781 2.808594 22.078125 11.433594 43.011719 24.992188 60.65625 1.175781 15.089844-2.4375 30.160156-10.328125 43.074219h-133.921875c-2.089844-2.617188-4.011719-5.371094-5.742188-8.242188zm-11.488281 224.242188v-56h448v56zm0 0"/><path d="m80 291.980469c0 6.625-5.371094 12-12 12s-12-5.375-12-12c0-6.628907 5.371094-12 12-12s12 5.371093 12 12zm0 0"/><path d="m80 363.980469c0 6.625-5.371094 12-12 12s-12-5.375-12-12c0-6.628907 5.371094-12 12-12s12 5.371093 12 12zm0 0"/><path d="m80 435.980469c0 6.625-5.371094 12-12 12s-12-5.375-12-12c0-6.628907 5.371094-12 12-12s12 5.371093 12 12zm0 0"/><path d="m424 291.980469c0 6.625-5.371094 12-12 12s-12-5.375-12-12c0-6.628907 5.371094-12 12-12s12 5.371093 12 12zm0 0"/><path d="m424 363.980469c0 6.625-5.371094 12-12 12s-12-5.375-12-12c0-6.628907 5.371094-12 12-12s12 5.371093 12 12zm0 0"/><path d="m424 435.980469c0 6.625-5.371094 12-12 12s-12-5.375-12-12c0-6.628907 5.371094-12 12-12s12 5.371093 12 12zm0 0"/></svg>