<svg id="Capa_1" enable-background="new 0 0 512 512" height="512" viewBox="0 0 512 512" width="512" xmlns="http://www.w3.org/2000/svg"><g><g><path d="m398.433 157.004c0-8.062-9.395-14.598-20.985-14.598-.122 0-.243.005-.364.006.087-.085.178-.16.265-.247 8.195-8.195 10.217-19.46 4.516-25.162-5.701-5.701-16.966-3.679-25.162 4.516-.086.086-.162.178-.247.265.001-.122.006-.242.006-.364 0-11.59-6.536-20.985-14.598-20.985-8.063 0-14.598 9.395-14.598 20.985 0 .122.005.243.006.364-.085-.087-.16-.178-.247-.265-8.195-8.195-19.461-10.217-25.162-4.516s-3.679 16.966 4.516 25.162c.086.086.178.162.265.247-.122-.001-.242-.006-.364-.006-11.59 0-20.985 6.536-20.985 14.598 0 8.063 9.395 14.598 20.985 14.598.122 0 .243-.005.364-.006-.087.085-.178.16-.265.247-8.195 8.195-10.217 19.46-4.516 25.162 5.701 5.701 16.966 3.679 25.162-4.516.086-.086.162-.178.247-.265-.001.122-.006.242-.006.364 0 11.59 6.536 20.985 14.598 20.985s14.598-9.395 14.598-20.985c0-.122-.005-.243-.006-.364.085.087.16.178.247.265 8.195 8.195 19.46 10.217 25.162 4.516 5.701-5.701 3.679-16.966-4.516-25.162-.086-.086-.178-.162-.265-.247.122.001.242.006.364.006 11.59.001 20.985-6.535 20.985-14.598z" fill="#ffd064"/></g><g><path d="m343.598 100.596c-.57-.097-1.146-.161-1.734-.161-8.062 0-14.598 9.395-14.598 20.985 0 .122.005.243.006.364-.085-.087-.16-.178-.247-.265-8.195-8.195-19.46-10.217-25.162-4.516-5.701 5.701-3.679 16.966 4.516 25.162.086.086.178.162.265.247-.122-.001-.242-.006-.364-.006-11.59 0-20.985 6.536-20.985 14.598s9.395 14.598 20.985 14.598c.122 0 .243-.005.364-.006-.087.085-.178.16-.265.247-8.052 8.052-10.126 19.055-4.79 24.845 3.465-2.347 6.907-5.143 10.24-8.476 21.257-21.256 20.994-46.545 19.93-56.302 2.445-6.557 3.159-13.904 1.972-21.48 3.865-2.817 7.19-6.133 9.867-9.834z" fill="#ffc250"/></g><g><path d="m134.552 171.603c.122 0 .243-.005.364-.006-.087.085-.178.16-.265.247-8.195 8.195-10.217 19.46-4.516 25.162 5.701 5.701 16.966 3.679 25.162-4.516.086-.086.162-.178.247-.265-.001.122-.006.242-.006.364 0 11.59 6.536 20.985 14.598 20.985s14.598-9.395 14.598-20.985c0-.122-.005-.243-.006-.364.085.087.16.178.247.265 8.195 8.195 19.461 10.217 25.162 4.516s3.679-16.966-4.516-25.162c-.086-.086-.178-.162-.265-.247.122.001.242.006.364.006 11.59 0 20.985-6.536 20.985-14.598s-9.395-14.598-20.985-14.598c-.122 0-.243.005-.364.006.087-.085.178-.16.265-.247 8.195-8.195 10.217-19.46 4.516-25.162-5.701-5.701-16.966-3.679-25.162 4.516-.086.086-.162.178-.247.265.001-.122.006-.242.006-.364 0-11.59-6.536-20.985-14.598-20.985-8.063 0-14.598 9.395-14.598 20.985 0 .122.005.243.006.364-.085-.087-.16-.178-.247-.265-8.195-8.195-19.46-10.217-25.162-4.516-5.701 5.701-3.679 16.966 4.516 25.162.086.086.178.162.265.247-.122-.001-.242-.006-.364-.006-11.59 0-20.985 6.536-20.985 14.598s9.395 14.598 20.985 14.598z" fill="#ffd064"/></g><g><path d="m168.402 100.596c.57-.097 1.146-.161 1.734-.161 8.062 0 14.598 9.395 14.598 20.985 0 .122-.005.243-.006.364.085-.087.16-.178.247-.265 8.195-8.195 19.46-10.217 25.162-4.516 5.701 5.701 3.679 16.966-4.516 25.162-.086.086-.178.162-.265.247.122-.001.242-.006.364-.006 11.59 0 20.985 6.536 20.985 14.598s-9.395 14.598-20.985 14.598c-.122 0-.243-.005-.364-.006.087.085.178.16.265.247 8.052 8.052 10.126 19.055 4.79 24.845-3.465-2.347-6.907-5.143-10.24-8.476-21.257-21.256-20.994-46.545-19.93-56.302-2.445-6.557-3.159-13.904-1.972-21.48-3.865-2.817-7.19-6.133-9.867-9.834z" fill="#ffc250"/></g><g><path d="m242.79 145.591c16.985 16.985 12.738 38.215 12.738 38.215s-21.231 4.246-38.215-12.738-12.738-38.215-12.738-38.215 21.23-4.246 38.215 12.738z" fill="#95d6a4"/></g><g><path d="m269.21 145.591c-16.985 16.985-12.738 38.215-12.738 38.215s21.231 4.246 38.215-12.738 12.738-38.215 12.738-38.215-21.23-4.246-38.215 12.738z" fill="#78c2a4"/></g><g><path d="m326.711 78.211c0-10.078-11.744-18.248-26.232-18.248-.153 0-.303.006-.455.008.109-.106.223-.201.331-.309 10.244-10.244 12.772-24.326 5.645-31.452-7.126-7.126-21.208-4.599-31.452 5.645-.108.108-.202.222-.308.331.002-.152.008-.303.008-.455 0-14.487-8.17-26.232-18.248-26.232s-18.248 11.744-18.248 26.232c0 .153.006.303.008.455-.106-.109-.201-.223-.308-.331-10.244-10.244-24.326-12.772-31.452-5.645-7.126 7.126-4.599 21.208 5.645 31.452.108.108.222.202.331.309-.152-.002-.303-.008-.455-.008-14.487 0-26.232 8.17-26.232 18.248s11.744 18.248 26.232 18.248c.153 0 .303-.006.455-.008-.109.106-.223.201-.331.308-10.244 10.244-12.772 24.326-5.645 31.452 7.126 7.126 21.208 4.599 31.452-5.645.108-.108.202-.222.308-.331-.002.152-.008.303-.008.455 0 14.487 8.17 26.232 18.248 26.232s18.248-11.744 18.248-26.232c0-.153-.006-.303-.008-.455.106.109.201.223.308.331 10.244 10.244 24.326 12.772 31.452 5.645 7.126-7.126 4.599-21.208-5.645-31.452-.108-.108-.222-.202-.331-.308.152.002.303.008.455.008 14.488 0 26.232-8.169 26.232-18.248z" fill="#ffe07d"/></g><g><path d="m326.711 78.211c0-10.078-11.744-18.248-26.232-18.248-.153 0-.303.006-.456.008.109-.106.223-.201.331-.309 10.244-10.244 12.771-24.326 5.645-31.452-3.617-3.618-9.029-4.737-14.819-3.632 2.726 7.43 4.215 15.458 4.215 23.833 0 38.216-30.98 69.196-69.196 69.196-8.375 0-16.403-1.489-23.833-4.215-1.104 5.79.015 11.202 3.632 14.819 7.126 7.126 21.208 4.599 31.452-5.645.108-.108.202-.222.308-.331-.002.152-.008.303-.008.455 0 14.487 8.17 26.232 18.248 26.232s18.248-11.744 18.248-26.232c0-.153-.006-.303-.008-.455.106.109.201.223.308.331 10.244 10.244 24.326 12.771 31.452 5.645s4.599-21.208-5.645-31.452c-.108-.108-.222-.202-.331-.308.152.002.303.008.455.008 14.49 0 26.234-8.169 26.234-18.248z" fill="#ffd064"/></g><g><path d="m216.604 241.858v22.224h78.793v-22.224c0-5.579-4.523-10.102-10.102-10.102h-58.589c-5.58 0-10.102 4.523-10.102 10.102z" fill="#a2b9e2"/></g><g><path d="m362.895 466.075-57.004-127.934c-6.919-15.528-10.494-32.337-10.494-49.336v-24.724h-78.793v24.724c0 16.999-3.575 33.809-10.494 49.336l-57.004 127.934c-1.085 2.434-1.884 4.999-2.232 7.641-2.184 16.608 10.685 30.783 26.864 30.783h164.525c16.179 0 29.048-14.175 26.864-30.783-.348-2.642-1.148-5.206-2.232-7.641z" fill="#d8e2f1"/></g><g><path d="m365.127 473.717c-.347-2.642-1.147-5.207-2.232-7.641l-55.161-123.797c-3.015 75.343-38.216 138.473-86.425 162.222h116.954c16.179-.001 29.047-14.176 26.864-30.784z" fill="#b7c8ea"/></g><g><circle cx="256" cy="78.211" fill="#eab14d" r="16.163"/></g><g><circle cx="341.864" cy="157.004" r="12.122"/><circle cx="170.136" cy="157.004" r="12.122"/><path d="m405.93 157c0-8.89-6.442-16.396-15.983-19.927 1.061-2.32 1.823-4.708 2.252-7.101 1.281-7.141-.556-13.804-5.036-18.275-4.478-4.479-11.14-6.312-18.271-5.031-2.392.429-4.778 1.191-7.096 2.252-3.533-9.543-11.043-15.988-19.936-15.988-8.892 0-16.401 6.449-19.93 15.998-2.085-.954-4.221-1.663-6.353-2.11-.58-1.613-1.272-3.211-2.089-4.775 12.279-3.813 20.724-12.931 20.724-23.832 0-10.9-8.446-20.018-20.723-23.831 1.74-3.331 2.961-6.807 3.586-10.287 1.491-8.306-.613-16.027-5.771-21.186-7.704-7.702-20.113-8.183-31.481-2.212-3.819-12.262-12.931-20.695-23.823-20.695-10.893 0-20.005 8.433-23.823 20.697-11.373-5.972-23.779-5.492-31.48 2.21-5.158 5.158-7.261 12.88-5.771 21.186.625 3.479 1.845 6.954 3.587 10.286-12.279 3.813-20.724 12.932-20.724 23.832s8.446 20.019 20.723 23.832c-.817 1.563-1.508 3.16-2.088 4.773-2.132.448-4.267 1.158-6.353 2.113-3.529-9.55-11.038-15.999-19.931-15.999s-16.403 6.445-19.936 15.988c-2.318-1.061-4.705-1.823-7.096-2.252-7.133-1.285-13.793.553-18.267 5.026-4.485 4.477-6.322 11.14-5.041 18.28.43 2.393 1.192 4.78 2.252 7.101-9.541 3.53-15.983 11.037-15.983 19.927 0 8.894 6.442 16.403 15.983 19.936-1.061 2.318-1.823 4.705-2.252 7.097-1.282 7.137.556 13.798 5.031 18.267 4.477 4.485 11.138 6.322 18.276 5.04 2.391-.429 4.778-1.191 7.096-2.251 3.533 9.539 11.043 15.982 19.936 15.982 8.89 0 16.397-6.443 19.927-15.984 2.319 1.061 4.708 1.824 7.101 2.254 4.374.786 8.566.395 12.189-1.052 4.594 6.108 8.823 12.331 12.659 18.622-7.433 2.06-12.912 8.868-12.912 16.948l-.003 46.941c0 16.06-3.311 31.633-9.842 46.289l-9.2 20.66c-1.685 3.784.017 8.218 3.801 9.902 3.782 1.685 8.217-.016 9.902-3.801l9.199-20.658c7.392-16.588 11.14-34.216 11.14-52.393v-17.22h63.8v17.22c0 18.177 3.748 35.805 11.14 52.393l9.23 20.71c1.244 2.792 3.984 4.449 6.855 4.449 1.02 0 2.057-.21 3.049-.651 3.783-1.687 5.483-6.12 3.797-9.903l-9.23-20.71c-6.53-14.654-9.841-30.228-9.841-46.287l-.003-46.942c0-8.079-5.479-14.888-12.912-16.948 3.836-6.291 8.066-12.515 12.66-18.623 3.623 1.448 7.815 1.838 12.188 1.053 2.393-.43 4.782-1.193 7.101-2.254 3.53 9.541 11.038 15.984 19.927 15.984 8.893 0 16.403-6.443 19.936-15.982 2.318 1.06 4.705 1.822 7.096 2.251 7.137 1.287 13.799-.555 18.267-5.031 4.485-4.478 6.322-11.139 5.041-18.275-.429-2.392-1.191-4.778-2.252-7.097 9.539-3.533 15.981-11.042 15.981-19.936zm-118.034 99.58h-63.793v-14.723c0-1.435 1.167-2.602 2.602-2.602h58.59c1.435 0 2.602 1.167 2.602 2.602v14.723zm1.488-90.815c-9.107 9.108-19.61 10.9-25.884 11.032v-.438c.201-6.327 2.108-16.557 11.014-25.463 0 0 0 0 0-.001 9.115-9.114 19.628-10.903 25.899-11.032-.128 6.285-1.92 16.792-11.029 25.902zm-77.8-25.9c6.287.129 16.793 1.921 25.902 11.029v.001c8.875 8.874 10.798 19.062 11.014 25.382v.516c-6.289-.132-16.784-1.928-25.884-11.029-9.115-9.114-10.903-19.627-11.032-25.899zm8.732 43.302c10.412 6.881 21.056 8.479 28.184 8.598v32.49h-9.482c-5.529-9.853-11.968-19.58-19.209-29.014 1.256-3.698 1.405-7.852.507-12.074zm43.184 41.089v-32.49c7.128-.119 17.772-1.718 28.184-8.598-.898 4.222-.75 8.376.507 12.075-7.241 9.434-13.68 19.161-19.208 29.013zm-70.711-146.045c0-5.083 7.689-10.746 18.794-10.746h.006l.29.006c.033.001.065.001.097.001 3.028 0 5.763-1.822 6.926-4.625 1.176-2.832.509-6.095-1.684-8.238-.107-.104-.215-.205-.346-.324-3.785-3.812-6.401-8.487-7.183-12.842-.359-1.999-.626-5.688 1.613-7.928 3.582-3.582 12.973-2.17 20.775 5.574.096.106.194.213.295.317 2.135 2.202 5.397 2.885 8.235 1.72 2.838-1.166 4.681-3.942 4.651-7.011l-.007-.384c.001-11.039 5.666-18.731 10.749-18.731s10.748 7.692 10.746 18.812l-.005.303c-.03 3.068 1.812 5.845 4.651 7.011 2.839 1.163 6.101.483 8.235-1.72.095-.099.188-.198.295-.316 7.792-7.744 17.192-9.159 20.775-5.575 2.239 2.239 1.972 5.929 1.613 7.928-.783 4.362-3.407 9.047-7.18 12.839-.118.107-.234.215-.349.327-2.193 2.144-2.86 5.406-1.684 8.238 1.176 2.833 3.937 4.71 7.023 4.624l.359-.008c11.039 0 18.731 5.664 18.731 10.748s-7.689 10.748-18.794 10.747c-.001 0-.005 0-.006 0l-.29-.006c-3.089-.071-5.848 1.791-7.023 4.624-1.176 2.832-.509 6.095 1.684 8.238.107.104.215.205.344.322 3.786 3.812 6.402 8.488 7.184 12.844.359 1.999.626 5.688-1.613 7.928-3.58 3.584-12.974 2.171-20.775-5.575-.096-.105-.194-.212-.295-.316-2.134-2.202-5.396-2.884-8.235-1.72-2.838 1.166-4.681 3.942-4.651 7.011l.007.384c0 11.039-5.665 18.731-10.748 18.731s-10.748-7.692-10.746-18.812l.005-.303c.03-3.068-1.812-5.845-4.651-7.011-.922-.378-1.889-.562-2.847-.562-1.992 0-3.947.794-5.389 2.281-.096.099-.188.198-.295.317-7.792 7.742-17.191 9.157-20.775 5.574-2.239-2.239-1.972-5.929-1.613-7.928.783-4.359 3.403-9.039 7.183-12.842.116-.105.232-.213.346-.324 2.193-2.144 2.86-5.406 1.684-8.238-1.163-2.803-3.898-4.625-6.926-4.625-.032 0-.064 0-.097.001l-.359.008c-11.038.001-18.73-5.664-18.73-10.748zm7.03 114.364c-3.202-.574-6.665-2.529-9.508-5.362-2.072-2.31-5.351-3.106-8.251-2.002-2.908 1.108-4.83 3.896-4.83 7.009v.37c0 8.229-4.199 13.48-7.09 13.48-2.895 0-7.1-5.251-7.1-13.48v-.37c0-3.112-1.922-5.9-4.83-7.009-2.908-1.107-6.198-.304-8.269 2.019l-.09.101c-2.825 2.771-6.239 4.679-9.395 5.245-1.054.189-3.654.483-5.018-.883-1.358-1.355-1.064-3.955-.875-5.01.567-3.156 2.476-6.571 5.248-9.397l.098-.087c2.323-2.07 3.126-5.36 2.019-8.269s-3.897-4.83-7.009-4.83h-.37c-8.229 0-13.48-4.205-13.48-7.1 0-2.891 5.251-7.09 13.48-7.09h.37c3.112 0 5.901-1.922 7.009-4.83s.305-6.198-2.019-8.269l-.098-.087c-2.771-2.826-4.68-6.242-5.248-9.402-.189-1.056-.483-3.659.879-5.02 1.356-1.357 3.957-1.063 5.013-.873 3.161.567 6.581 2.481 9.406 5.261.125.137.25.27.374.394 2.145 2.146 5.373 2.788 8.173 1.625 2.803-1.16 4.63-3.896 4.63-6.929v-.36c0-8.235 4.205-13.49 7.1-13.49 2.891 0 7.09 5.255 7.09 13.49v.36c0 3.033 1.827 5.769 4.63 6.929 2.803 1.163 6.029.521 8.173-1.625.092-.093.186-.19.255-.266 1.468-1.471 3.123-2.695 4.81-3.63.545 2.371 1.439 4.585 2.662 6.58-.232.512-.426 1.046-.54 1.613-.165.825-3.157 16.713 5.829 33.09-2.053.666-3.764 2.194-4.619 4.257-1.161 2.803-.519 6.028 1.626 8.174.123.122.253.246.389.369 5.703 5.791 6.421 12.395 4.387 14.429-1.353 1.36-3.955 1.066-5.011.875zm177.631-28.475h-.37c-3.112 0-5.901 1.922-7.009 4.83s-.305 6.198 2.019 8.269l.098.087c2.772 2.826 4.681 6.241 5.248 9.397.189 1.055.483 3.654-.884 5.019-1.354 1.358-3.953 1.065-5.009.874-3.156-.566-6.569-2.475-9.395-5.245l-.09-.101c-2.07-2.324-5.362-3.126-8.269-2.019-2.908 1.108-4.83 3.896-4.83 7.009v.37c0 8.229-4.205 13.48-7.1 13.48-2.891 0-7.09-5.251-7.09-13.48v-.37c0-3.112-1.953-5.866-4.861-6.974-2.89-1.103-6.186-.282-8.258 2.007-2.836 2.812-6.282 4.75-9.47 5.322-1.058.188-3.658.483-5.018-.878-2.03-2.03-1.312-8.634 4.391-14.425.136-.123.267-.247.389-.369 2.145-2.146 2.787-5.371 1.626-8.174-.855-2.064-2.566-3.592-4.619-4.257 8.986-16.377 5.994-32.265 5.829-33.09-.113-.567-.308-1.101-.54-1.613 1.224-1.996 2.117-4.211 2.663-6.583 1.681.931 3.326 2.148 4.783 3.608.095.101.189.198.281.291 2.146 2.146 5.373 2.788 8.173 1.625 2.803-1.16 4.63-3.896 4.63-6.929v-.36c0-8.235 4.199-13.49 7.09-13.49 2.895 0 7.1 5.255 7.1 13.49v.36c0 3.033 1.827 5.769 4.63 6.929 2.802 1.163 6.029.521 8.173-1.625.124-.124.249-.257.374-.394 2.826-2.779 6.245-4.693 9.406-5.261 1.055-.19 3.656-.484 5.018.878 1.358 1.355 1.064 3.959.875 5.015-.567 3.16-2.476 6.576-5.248 9.402l-.098.087c-2.323 2.07-3.126 5.36-2.019 8.269s3.897 4.83 7.009 4.83h.37c8.229 0 13.48 4.199 13.48 7.09.002 2.894-5.249 7.099-13.478 7.099z"/><path d="m369.741 463.028-33.53-75.261c-1.685-3.781-6.117-5.486-9.903-3.798-3.784 1.686-5.484 6.119-3.798 9.903l33.538 75.276c.86 1.916 1.414 3.784 1.647 5.546.757 5.768-.906 11.314-4.683 15.619-3.728 4.249-9.104 6.686-14.751 6.686h-164.521c-5.647 0-11.023-2.437-14.751-6.686-3.777-4.305-5.44-9.852-4.684-15.612.233-1.769.788-3.637 1.655-5.569l33.56-75.32c1.686-3.784-.015-8.218-3.798-9.903-3.782-1.687-8.217.016-9.903 3.798l-33.553 75.304c-1.455 3.243-2.408 6.516-2.833 9.733-1.308 9.965 1.709 19.975 8.279 27.463 6.577 7.494 16.063 11.793 26.028 11.793h164.52c9.965 0 19.452-4.299 26.027-11.793 6.57-7.488 9.587-17.498 8.279-27.47-.425-3.211-1.378-6.483-2.825-9.709z"/><path d="m256 101.874c13.047 0 23.663-10.615 23.663-23.663 0-13.047-10.615-23.662-23.663-23.662s-23.663 10.615-23.663 23.662c0 13.048 10.616 23.663 23.663 23.663zm0-32.325c4.776 0 8.663 3.886 8.663 8.662s-3.886 8.663-8.663 8.663-8.663-3.887-8.663-8.663 3.887-8.662 8.663-8.662z"/></g></g></svg>