<svg height="512pt" viewBox="0 -31 512 512" width="512pt" xmlns="http://www.w3.org/2000/svg"><path d="m491.253906 126.851562-6.882812 46.699219-33.898438 230.664063-.265625 1.855468-.265625-1.945312c-5.207031 25.691406-90.039062 46.082031-193.941406 46.082031s-188.734375-20.390625-193.941406-46.082031l-.265625 1.945312-.265625-1.855468-33.898438-230.664063-6.882812-46.699219zm0 0" fill="#c03a2b"/><path d="m455.171875 126.851562-5.824219 46.699219-28.699218 230.664063-.226563 1.855468-.230469-1.945312c-4.40625 25.691406-76.226562 46.082031-164.191406 46.082031s-159.785156-20.390625-164.191406-46.082031l-.226563 1.945312-.222656-1.855468-28.703125-230.664063-5.824219-46.699219zm0 0" fill="#e64c3c"/><path d="m352.660156 278.597656h-193.320312c-.769532 0-1.535156-.101562-2.277344-.300781-30.175781-7.765625-58.765625-20.730469-84.488281-38.3125-23.171875-15.628906-41.539063-37.398437-53.054688-62.871094-.101562-.234375-.195312-.476562-.273437-.722656-6.746094-16.132813-10.285156-33.421875-10.417969-50.910156-.035156-2.339844.863281-4.597657 2.492187-6.28125 1.632813-1.679688 3.863282-2.640625 6.207032-2.675781 2.359375-.105469 4.660156.769531 6.355468 2.417968 1.695313 1.644532 2.636719 3.917969 2.601563 6.28125.097656 15.410156 3.242187 30.648438 9.253906 44.835938.097657.234375.1875.476562.269531.71875 10.289063 22.207031 26.46875 41.167968 46.785157 54.816406 23.6875 16.152344 49.972656 28.109375 77.710937 35.351562h190.984375c30.03125-8.210937 99.5-32.90625 124.515625-90.199218.078125-.234375.164063-.464844.257813-.683594 6.011719-14.191406 9.15625-29.429688 9.253906-44.839844-.011719-2.355468.933594-4.617187 2.625-6.257812 1.691406-1.644532 3.976563-2.523438 6.332031-2.441406 2.34375.035156 4.574219.996093 6.207032 2.675781 1.628906 1.683593 2.527343 3.941406 2.492187 6.28125-.132813 17.496093-3.671875 34.796875-10.425781 50.9375-.078125.242187-.167969.484375-.265625.707031-27.144531 63.175781-97.816407 90.503906-137.523438 101.167969-.75.203125-1.519531.304687-2.296875.304687zm0 0" fill="#bdc3c7"/><path d="m101.503906 397.242188c-4.445312-.007813-8.195312-3.320313-8.746094-7.734376l-8.296874-66.382812c-.523438-4.792969 2.894531-9.117188 7.679687-9.714844s9.164063 2.75 9.835937 7.523438l8.296876 66.382812c.605468 4.839844-2.824219 9.25-7.664063 9.855469-.367187.042969-.734375.066406-1.105469.070313zm0 0" fill="#fb7b76"/><path d="m88.441406 292.722656c-4.433594-.007812-8.171875-3.300781-8.742187-7.699218l-1.324219-10.238282c-.296875-2.324218.335938-4.667968 1.765625-6.523437s3.539063-3.066407 5.859375-3.363281c4.824219-.570313 9.21875 2.820312 9.890625 7.628906l1.324219 10.238281c.296875 2.324219-.335938 4.671875-1.765625 6.523437-1.429688 1.855469-3.539063 3.066407-5.863281 3.363282-.378907.046875-.761719.070312-1.144532.070312zm0 0" fill="#fb7b76"/><path d="m512 52.964844v52.964844c0 6.886718-6.269531 13.417968-17.65625 19.421874-1.003906.554688-2.035156 1.054688-3.089844 1.5-39.191406 18.804688-129.765625 32.046876-235.253906 32.046876s-196.0625-13.242188-235.253906-32.046876c-1.054688-.445312-2.085938-.945312-3.089844-1.5-11.386719-6.003906-17.65625-12.535156-17.65625-19.421874v-52.964844zm0 0" fill="#ff5364"/><path d="m176.550781 256h158.898438c9.75 0 17.652343 7.90625 17.652343 17.65625s-7.902343 17.652344-17.652343 17.652344h-158.898438c-9.75 0-17.652343-7.902344-17.652343-17.652344s7.902343-17.65625 17.652343-17.65625zm0 0" fill="#802d40"/><path d="m512 52.964844c0-29.25-114.613281-52.964844-256-52.964844s-256 23.714844-256 52.964844c0 29.253906 114.613281 52.964844 256 52.964844s256-23.710938 256-52.964844zm0 0" fill="#802f34"/><path d="m477.660156 79.449219c0-14.628907-99.242187-26.484375-221.660156-26.484375s-221.660156 11.855468-221.660156 26.484375c0 14.625 99.242187 26.480469 221.660156 26.480469s221.660156-11.855469 221.660156-26.480469zm0 0" fill="#84b5cb"/></svg>