<svg id="_x33_0" enable-background="new 0 0 64 64" height="512" viewBox="0 0 64 64" width="512" xmlns="http://www.w3.org/2000/svg"><g><g><g><path d="m59.08 38h-.47c-1.05 0-2.08-.14-3.08-.41-1.13-.29-2.2-.76-3.2-1.38l-.77.92c-.31.37-.66.69-1.04.94-.86.6-1.89.93-2.95.93-1.02 0-2.03-.3-2.88-.87l-.67-.45-.42-.28-1.19 1.19c-.9.9-2.13 1.41-3.41 1.41-.37 0-.74-.04-1.1-.13-.87-.2-1.67-.64-2.31-1.28l-.09-.09-.09.09c-.9.9-2.13 1.41-3.41 1.41s-2.51-.51-3.41-1.41l-.09-.09-.09.09c-.64.64-1.44 1.08-2.31 1.28-.36.09-.73.13-1.1.13-1.28 0-2.51-.51-3.41-1.41l-.09-.09-.09.09c-.39.39-.84.7-1.33.93-.64.32-1.35.48-2.08.48-1.28 0-2.51-.51-3.41-1.41l-.18-.18c-.27.16-.57.3-.87.39-.41.13-.84.2-1.27.2-.83 0-1.64-.24-2.32-.7l-1.39-.92c-.03.02-.06.04-.1.07-.53.35-1.17.55-1.82.55-.93 0-1.82-.4-2.43-1.09h-.01l.19 1.79.73 6.96.25 2.39v.01c.74 1.42 2.34 2.74 4.61 3.88 1.4.7 3.05 1.33 4.91 1.87 1.83.54 3.87.99 6.06 1.35 1.9.3 3.92.53 6.04.67 1.62.11 3.3.17 5.01.17s3.39-.06 5.01-.17c2.12-.14 4.14-.37 6.04-.67 2.19-.36 4.23-.81 6.06-1.35 1.86-.54 3.51-1.17 4.91-1.87 2.27-1.14 3.87-2.46 4.61-3.88v-.01l.25-2.39.73-6.96.08-.76c-.2.04-.4.06-.61.06z" fill="#ecc19c"/></g><g><path d="m14.89 53.81c1.83.54 3.87.99 6.06 1.35 1.9.3 3.92.53 6.04.67 1.62.11 3.3.17 5.01.17s3.39-.06 5.01-.17c2.12-.14 4.14-.37 6.04-.67 2.19-.36 4.23-.81 6.06-1.35 1.86-.54 3.51-1.17 4.91-1.87 2.27-1.14 3.87-2.46 4.61-3.88l-.43 4.05c-.22 2.11-1.36 4.03-3.16 5.15-4.26 2.66-12.68 4.74-23.04 4.74s-18.78-2.08-23.04-4.74c-1.8-1.12-2.94-3.04-3.16-5.15l-.43-4.05c.74 1.42 2.34 2.74 4.61 3.88 1.4.7 3.05 1.33 4.91 1.87z" fill="#cf9e76"/></g><g><path d="m19.06 32.06.94.94-4.77 4.77c-.25.25-.52.46-.82.64-.27.16-.57.3-.87.39-.41.13-.84.2-1.27.2-.83 0-1.64-.24-2.32-.7l-1.39-.92c.14-.1.28-.22.4-.34l3.04-3.04 1.94-1.94c.68-.68 1.6-1.06 2.56-1.06s1.88.38 2.56 1.06z" fill="#cf9e76"/></g><g><path d="m43.6 37.4 3.4-3.4 1.75-1.75c.36-.36.77-.64 1.22-.85.55-.26 1.16-.4 1.79-.4 1.1 0 2.13.5 2.79 1.33.18.2.33.43.45.67l-2.67 3.21-.77.92c-.31.37-.66.69-1.04.94-.86.6-1.89.93-2.95.93-1.02 0-2.03-.3-2.88-.87l-.67-.45z" fill="#cf9e76"/></g><g><path d="m39.06 33.06.94.94-4.5 4.5-.09.09c-.9.9-2.13 1.41-3.41 1.41s-2.51-.51-3.41-1.41l-.09-.09 4.5-4.5.94-.94c.68-.68 1.6-1.06 2.56-1.06s1.88.38 2.56 1.06z" fill="#cf9e76"/></g><g><path d="m32.67 33.67.33.33-4.5 4.5-.09.09c-.64.64-1.44 1.08-2.31 1.28-.36.09-.73.13-1.1.13-1.28 0-2.51-.51-3.41-1.41l-.09-.09 4.5-4.5.94-.94c.68-.68 1.6-1.06 2.56-1.06s1.88.38 2.56 1.06z" fill="#cf9e76"/></g><g><path d="m20.08 39.52c-.64.32-1.35.48-2.08.48-1.28 0-2.51-.51-3.41-1.41l-.18-.18c.3-.18.57-.39.82-.64l4.77-4.77c.64-.64 1.51-1 2.41-1 1.02 0 1.99.4 2.71 1.12l.88.88-4.5 4.5-.09.09c-.39.39-.84.7-1.33.93z" fill="#cf9e76"/></g><g><path d="m46.06 33.06.94.94-3.4 3.4-1.19 1.19c-.9.9-2.13 1.41-3.41 1.41-.37 0-.74-.04-1.1-.13-.87-.2-1.67-.64-2.31-1.28l-.09-.09 4.5-4.5.94-.94c.68-.68 1.6-1.06 2.56-1.06s1.88.38 2.56 1.06z" fill="#cf9e76"/></g><g><path d="m59.69 37.94c-.2.04-.4.06-.61.06h-.47c-1.05 0-2.08-.14-3.08-.41-1.13-.29-2.2-.76-3.2-1.38l2.67-3.21 2.17-2.17c.53-.53 1.25-.83 2-.83.78 0 1.49.32 2 .83s.83 1.22.83 2v2.25c0 1.4-.99 2.58-2.31 2.86z" fill="#cf9e76"/></g><g><path d="m10.7 32.7 1.3 1.3-3.04 3.04c-.12.12-.26.24-.4.34-.03.02-.06.04-.1.07-.53.35-1.17.55-1.82.55-.93 0-1.82-.4-2.43-1.09-.07-.07-.13-.14-.19-.22l-1.42-1.89c-.39-.52-.6-1.15-.6-1.8 0-1.66 1.34-3 3-3h.93c.33 0 .65.03.97.1.97.19 1.86.66 2.56 1.36z" fill="#cf9e76"/></g><g><path d="m26.41 22.56c-1.36-.36-2.85-.56-4.41-.56-6.63 0-12 3.58-12 8 0 .95.25 1.86.7 2.7l-1.24-1.24c-.7-.7-1.59-1.17-2.56-1.36-1.82-1.69-2.9-3.81-2.9-6.1 0-5.52 6.27-10 14-10 .7 0 1.39.04 2.06.11h.01c1.23 3.42 3.46 6.35 6.34 8.45z" fill="#fcd770"/></g><g><path d="m60 25c0 3.02-2.15 5.69-5.44 7.32l-.01.01c-.66-.83-1.69-1.33-2.79-1.33-.63 0-1.24.14-1.79.4-.46-4.14-5.65-7.4-11.97-7.4-1.39 0-2.73.16-3.98.46v-.01c.36-4.15 4.8-7.55 10.57-8.29.78-.11 1.59-.16 2.41-.16 7.18 0 13 4.03 13 9z" fill="#fcd770"/></g><g><path d="m44.59 16.15v.01c-5.77.74-10.21 4.14-10.57 8.29v.01c-.84.19-1.64.45-2.39.76-1.33-1.18-3.13-2.11-5.22-2.66-2.88-2.1-5.11-5.03-6.34-8.45-.69-1.91-1.07-3.96-1.07-6.11 0-1.66.67-3.16 1.76-4.24 1.08-1.09 2.58-1.76 4.24-1.76h2c8.62 0 15.83 6.06 17.59 14.15z" fill="#ffeaa7"/></g><g><path d="m40.94 33.06-.94.94-.94-.94c-.68-.68-1.6-1.06-2.56-1.06s-1.88.38-2.56 1.06l-.94.94-.33-.33c.85-1.1 1.33-2.35 1.33-3.67 0-1.79-.88-3.44-2.37-4.78.75-.31 1.55-.57 2.39-.76 1.25-.3 2.59-.46 3.98-.46 6.32 0 11.51 3.26 11.97 7.4-.45.21-.86.49-1.22.85l-1.75 1.75-.94-.94c-.68-.68-1.6-1.06-2.56-1.06s-1.88.38-2.56 1.06z" fill="#ffeaa7"/></g><g><path d="m34 30c0 1.32-.48 2.57-1.33 3.67l-.61-.61c-.68-.68-1.6-1.06-2.56-1.06s-1.88.38-2.56 1.06l-.94.94-.88-.88c-.72-.72-1.69-1.12-2.71-1.12-.9 0-1.77.36-2.41 1l-.94-.94c-.68-.68-1.6-1.06-2.56-1.06s-1.88.38-2.56 1.06l-1.94 1.94-1.3-1.3c-.45-.84-.7-1.75-.7-2.7 0-4.42 5.37-8 12-8 1.56 0 3.05.2 4.41.56 2.09.55 3.89 1.48 5.22 2.66 1.49 1.34 2.37 2.99 2.37 4.78z" fill="#fcd770"/></g></g><path d="m59.775 29.061c.782-1.262 1.225-2.638 1.225-4.061 0-5.514-6.28-10-14-10-.563 0-1.116.032-1.663.078-2.202-8.205-9.763-14.078-18.337-14.078h-2c-3.859 0-7 3.14-7 7 0 1.712.242 3.397.688 5.018-.229-.008-.458-.018-.688-.018-8.271 0-15 4.935-15 11 0 1.786.573 3.493 1.656 5.035-2.043.178-3.656 1.877-3.656 3.965 0 .859.284 1.711.8 2.4l1.416 1.888c.007.009.015.017.022.026l1.569 14.904c.255 2.433 1.608 4.634 3.619 5.889 4.841 3.018 13.873 4.893 23.574 4.893s18.733-1.875 23.573-4.893c2.011-1.255 3.364-3.456 3.619-5.889l1.425-13.534c1.4-.598 2.383-1.987 2.383-3.603v-2.252c0-1.905-1.402-3.476-3.225-3.768zm-.775-4.061c0 2.33-1.59 4.559-4.266 6.081-.815-.687-1.857-1.081-2.97-1.081-.36 0-.714.038-1.058.109-1.246-4.124-6.43-7.109-12.706-7.109-.911 0-1.806.085-2.686.212 1.228-3.572 6.018-6.212 11.686-6.212 6.617 0 12 3.589 12 8zm-48 5c0-3.86 4.935-7 11-7s11 3.14 11 7c0 .724-.188 1.428-.533 2.107-.828-.696-1.881-1.107-2.967-1.107-1.217 0-2.408.493-3.268 1.354l-.232.232-.172-.172c-.912-.912-2.124-1.414-3.414-1.414-.837 0-1.633.242-2.326.674l-.32-.32c-.86-.861-2.051-1.354-3.268-1.354s-2.408.493-3.268 1.354l-1.232 1.232-.471-.471c-.347-.683-.529-1.393-.529-2.115zm27-5c5.409 0 9.995 2.535 10.854 5.878-.287.192-.558.413-.808.662l-1.046 1.046-.232-.232c-.86-.861-2.051-1.354-3.268-1.354s-2.408.493-3.268 1.354l-.232.232-.232-.232c-.86-.861-2.051-1.354-3.268-1.354-.568 0-1.127.117-1.653.319.092-.436.153-.876.153-1.319 0-1.574-.591-3.054-1.621-4.343 1.442-.431 3.013-.657 4.621-.657zm15.453 22.765c-.881.345-1.845.667-2.884.965l.363-4.027c1.048-.298 2.036-.619 2.945-.966zm2.531-4.949c.884-.435 1.666-.896 2.334-1.383l-.395 3.746c-.604.577-1.39 1.127-2.361 1.639zm-7.472 6.452c-1.31.308-2.711.578-4.182.81l.222-4.001c1.52-.238 2.964-.519 4.323-.839zm-38.389-5.531c.909.347 1.897.668 2.945.966l.363 4.027c-1.039-.298-2.003-.62-2.884-.965zm-1.685 3.081c-.97-.511-1.756-1.061-2.361-1.638l-.394-3.746c.668.487 1.451.948 2.334 1.383zm1.216-7.54c.794.465 1.687.722 2.613.722.127 0 .249-.028.375-.037l.234 2.595c-1.104-.339-2.102-.701-2.99-1.082zm11.053-5.571c.99-.991 2.718-.868 3.707.121l.172.172-3.879 3.879c-.713.712-1.699 1.121-2.707 1.121-.71 0-1.404-.212-2.005-.581zm6 1 .707-.707.232-.232c.975-.976 2.732-.976 3.707 0l.233.232-3.879 3.879c-.713.712-1.699 1.121-2.707 1.121-.71 0-1.404-.212-2.005-.581zm7 0 .707-.707.232-.232c.975-.976 2.732-.976 3.707 0l.233.232-3.879 3.879c-.713.712-1.699 1.121-2.707 1.121-.71 0-1.404-.212-2.005-.581zm8.94 9.625c-1.276.168-2.621.305-4.02.412l.209-3.753c.054.002.109.009.164.009 1.442 0 2.851-.555 3.917-1.522zm-24.647-3.332c.391 0 .779-.041 1.159-.119l.175 3.156c-1.586-.26-3.049-.566-4.399-.906l-.288-3.201c.976.685 2.153 1.07 3.353 1.07zm3.117-.912c.131-.083.258-.172.383-.266 1.004.752 2.239 1.178 3.5 1.178.055 0 .11-.007.165-.008l.209 3.753c-1.4-.107-2.744-.244-4.02-.412zm6.027.496c.483-.192.939-.449 1.356-.762.736.551 1.595.925 2.5 1.085v4.078c-1.241-.013-2.448-.05-3.617-.111zm5.856.323c.905-.16 1.764-.533 2.5-1.085.417.313.872.57 1.356.762l-.239 4.291c-1.169.061-2.376.097-3.617.11zm-17.875 4.331c1.359.32 2.802.601 4.323.839l.222 4.001c-1.471-.232-2.871-.502-4.182-.81zm6.341 1.12c1.296.164 2.64.295 4.02.397l.223 4.012c-1.379-.102-2.721-.238-4.02-.403zm6.028.524c1.147.057 2.317.091 3.506.104v4.001c-1.107-.013-2.205-.041-3.282-.095zm5.506.104c1.188-.013 2.358-.047 3.506-.104l-.223 4.011c-1.078.054-2.175.082-3.282.095v-4.002zm5.515-.231c1.38-.102 2.723-.233 4.02-.397l-.222 4.006c-1.299.165-2.641.301-4.02.403zm6.151-2.718.257-4.632c.824.391 1.725.595 2.647.595.619 0 1.224-.099 1.801-.275l-.307 3.406c-1.349.34-2.813.646-4.398.906zm-2.959-6.158c-.713.712-1.699 1.121-2.707 1.121-.71 0-1.404-.212-2.005-.581l3.712-3.712.707-.707.232-.232c.975-.976 2.732-.976 3.707 0l.233.232zm-29-3.172.707-.707 1.232-1.232c.975-.976 2.732-.976 3.707 0l.233.232-4.067 4.067c-1.048 1.048-2.785 1.22-4.018.398l-.331-.221zm-5.105 4.174.161 1.533c-.829-.492-1.493-.997-1.962-1.505.275.056.555.091.84.091.329 0 .648-.047.961-.119zm1.079 10.255.099.945c-1.03-.677-1.787-1.378-2.257-2.079.645.396 1.361.776 2.158 1.134zm2.234 2.122-.136-1.294c.889.315 1.836.61 2.843.882l.14 1.553c-1.047-.358-1.997-.74-2.847-1.141zm4.913 1.78-.152-1.688c1.3.291 2.672.546 4.107.765l.103 1.851c-1.456-.267-2.807-.581-4.058-.928zm6.078 1.259-.106-1.906c1.301.16 2.642.289 4.02.387l.109 1.97c-1.401-.115-2.747-.264-4.023-.451zm6.033.586-.11-1.985c1.042.049 2.1.077 3.171.089v1.996c-1.047-.013-2.067-.047-3.061-.1zm5.061-1.896c1.071-.012 2.129-.04 3.171-.089l-.11 1.985c-.994.053-2.013.087-3.061.1zm5.18-.209c1.377-.097 2.718-.227 4.019-.387l-.106 1.906c-1.275.187-2.622.335-4.023.451zm6.037-.663c1.435-.218 2.807-.474 4.107-.765l-.152 1.688c-1.251.347-2.602.66-4.058.928zm6.161-1.269c1.007-.272 1.955-.566 2.843-.881l-.136 1.294c-.85.401-1.8.783-2.847 1.141zm4.941-1.71c.797-.358 1.513-.738 2.158-1.135-.47.701-1.227 1.403-2.257 2.079zm.918-8.721.17-1.611c.566.098 1.139.158 1.717.179-.464.484-1.098.964-1.887 1.432zm-2.122 1.062c-.888.38-1.886.742-2.99 1.082l.357-3.959c.302-.248.588-.52.843-.826l.233-.279c.609.323 1.243.591 1.892.812zm-3.328-4.984c-.797.958-1.97 1.507-3.217 1.507-.829 0-1.633-.243-2.323-.704l-.078-.052 2.538-2.538 1.753-1.752c.615-.615 1.434-.954 2.304-.954.785 0 1.508.343 1.998.924zm-25.787-33.493h2c7.588 0 14.292 5.14 16.343 12.356-5.343 1.036-9.451 4.276-10.206 8.303-.461.127-.906.278-1.343.442-1.328-1.055-3-1.896-4.9-2.433-4.318-3.2-6.894-8.297-6.894-13.668 0-2.757 2.243-5 5-5zm-7 12c.464 0 .923.038 1.382.072.885 2.2 2.172 4.23 3.81 5.969-.393-.024-.79-.041-1.192-.041-7.099 0-12.878 3.961-12.99 8.858-.499-.3-1.036-.524-1.6-.667-1.573-1.531-2.41-3.319-2.41-5.191 0-4.962 5.832-9 13-9zm-13 16h.929c1.068 0 2.073.416 2.829 1.171l1.828 1.829-2.332 2.332c-.93.929-2.649.807-3.438-.245l-1.416-1.887c-.258-.344-.4-.77-.4-1.2 0-1.103.897-2 2-2zm49.515 25.41c-3.558 2.219-11.341 4.59-22.515 4.59s-18.957-2.371-22.515-4.59c-1.492-.931-2.498-2.576-2.689-4.401l-.101-.955c4.516 3.598 14.125 5.946 25.305 5.946s20.789-2.348 25.305-5.946l-.101.955c-.191 1.825-1.197 3.47-2.689 4.401zm6.485-21.329c0 1.058-.86 1.919-1.919 1.919h-.476c-1.644 0-3.251-.388-4.723-1.096l1.861-2.233 2.136-2.136c.341-.34.811-.535 1.293-.535 1.008 0 1.828.82 1.828 1.829z"/></g></svg>