<?xml version="1.0" encoding="iso-8859-1"?>
<!-- Generator: Adobe Illustrator 16.0.0, SVG Export Plug-In . SVG Version: 6.00 Build 0)  -->
<!DOCTYPE svg PUBLIC "-//W3C//DTD SVG 1.1//EN" "http://www.w3.org/Graphics/SVG/1.1/DTD/svg11.dtd">
<svg version="1.1" id="Capa_1" xmlns="http://www.w3.org/2000/svg" xmlns:xlink="http://www.w3.org/1999/xlink" x="0px" y="0px"
	 width="185.402px" height="185.402px" viewBox="0 0 185.402 185.402" style="enable-background:new 0 0 185.402 185.402;"
	 xml:space="preserve">
<g>
	<path d="M176.806,10.606c0.075-1.43-0.505-2.902-1.976-3.816c-19.738-12.274-54.657-4.727-76.105-1.847
		c-29.798,4.002-59.23,8.73-89.174,11.431c-2.582,0.233-3.83,3.853-2.022,5.242c0.036,0.165,0.017,0.32,0.08,0.489
		C11.26,31.906,7.72,41.893,6.4,51.791c-0.592,4.441-0.926,8.713-0.002,13.124c0.048,0.23,0.116,0.403,0.172,0.607
		c-0.825,0.579-1.266,1.665-0.63,2.739c9.551,16.138,49.953,10.523,65.053,10.01c31.573-1.073,63.03-4.808,94.611-5.476
		c2.625-0.055,4.285-1.552,5.004-3.43c0.107,0.016,0.207,0.074,0.316,0.066l0.447-0.036c1.895-0.152,3.59-1.186,4.104-3.125
		c2.703-10.195,4.103-20.779,5.024-31.274C180.979,29.531,183.709,13.819,176.806,10.606z M169.619,19.635
		c-0.128-0.608-0.225-1.217-0.363-1.825c-0.362-1.591-1.448-2.667-2.768-3.321c1.183,0.06,2.362,0.137,3.547,0.151
		C169.714,16.136,169.618,17.87,169.619,19.635z"/>
	<path d="M173.645,124.042c-0.27-0.087-0.529-0.054-0.793-0.068c-0.45-1.058-1.286-1.951-2.594-2.287
		c-9.852-2.528-20.535-1.407-30.659-1.484c-14.507-0.11-29.014-0.309-43.52-0.497c-29.354-0.382-58.987-0.486-88.303,1.152
		c-3.304,0.186-3.812,4.136-1.613,5.595c-1.919,4.959-1.613,12.741-1.813,15.897c-0.65,10.278-1.753,21.502-0.134,31.73
		c0.19,1.203,0.997,1.957,1.986,2.349c-0.028,0.621,0.001,1.233,0.128,1.816c-0.109,0.007-0.218,0.013-0.327,0.02
		c-3.11,0.207-3.114,4.631,0,4.831c54.603,3.502,110.325,2.814,164.919-0.7c3.212-0.207,4.898-2.626,5.054-5.093
		c0.645-0.563,1.16-1.351,1.435-2.417c2.473-9.646,4.354-19.351,4.589-29.331C182.171,138.277,181.696,126.625,173.645,124.042z
		 M42.595,164.317c0.171-0.291,0.309-0.598,0.416-0.921c2.161,0.201,4.323,0.385,6.484,0.562
		C47.195,164.077,44.895,164.198,42.595,164.317z"/>
</g>
<g>
</g>
<g>
</g>
<g>
</g>
<g>
</g>
<g>
</g>
<g>
</g>
<g>
</g>
<g>
</g>
<g>
</g>
<g>
</g>
<g>
</g>
<g>
</g>
<g>
</g>
<g>
</g>
<g>
</g>
</svg>
