<?xml version="1.0" encoding="iso-8859-1"?>
<!-- Generator: Adobe Illustrator 19.0.0, SVG Export Plug-In . SVG Version: 6.00 Build 0)  -->
<svg version="1.1" id="Capa_1" xmlns="http://www.w3.org/2000/svg" xmlns:xlink="http://www.w3.org/1999/xlink" x="0px" y="0px"
	 viewBox="0 0 512.008 512.008" style="enable-background:new 0 0 512.008 512.008;" xml:space="preserve">
<path style="fill:#8BC540;" d="M290.934,439.192L290.934,439.192L290.934,439.192c83.712-4.352,143.664-64.304,148.016-148.016
	C355.238,295.528,295.286,355.48,290.934,439.192z"/>
<path style="fill:#719C40;" d="M400.726,329.4l-108.72,98.496c-0.432,3.744-0.88,7.472-1.072,11.296l0,0l0,0
	c3.84-0.208,7.568-0.64,11.296-1.072L400.726,329.4z"/>
<path style="fill:#8BC540;" d="M275.302,486.968L275.302,486.968L275.302,486.968c-68.88-3.584-118.208-52.912-121.792-121.792
	C222.39,368.776,271.718,418.088,275.302,486.968z"/>
<path style="fill:#719C40;" d="M184.966,396.648l89.456,81.024c0.352,3.072,0.72,6.144,0.88,9.296l0,0l0,0
	c-3.152-0.16-6.224-0.528-9.296-0.88L184.966,396.648z"/>
<path style="fill:#997960;" d="M252.278,512.008c-0.544-12.848,1.76-25.344,6.88-37.136c34.864-80.32,32.528-167.12-6.4-238.144
	c-18.56-33.872-33.28-55.968-33.424-56.192l21.808-14.576c0.624,0.928,15.456,23.2,34.624,58.16
	c42.864,78.176,45.584,173.376,7.472,261.2c-3.52,8.112-5.12,16.72-4.736,25.568L252.278,512.008z"/>
<path style="fill:#E14B4B;" d="M200.342,225.016c-93.504,161.952-216.896-51.776-29.888-51.776
	c-187.008,0-63.616-213.728,29.888-51.776c-93.504-161.952,153.28-161.952,59.776,0c93.504-161.952,216.896,51.776,29.888,51.776
	c187.008,0,63.616,213.728-29.888,51.776C353.622,386.968,106.838,386.968,200.342,225.016z"/>
<circle style="fill:#FFD83B;" cx="230.23" cy="173.24" r="55.376"/>
<circle style="fill:#FFFFFF;" cx="230.23" cy="173.24" r="29.36"/>
<g>
</g>
<g>
</g>
<g>
</g>
<g>
</g>
<g>
</g>
<g>
</g>
<g>
</g>
<g>
</g>
<g>
</g>
<g>
</g>
<g>
</g>
<g>
</g>
<g>
</g>
<g>
</g>
<g>
</g>
</svg>
