<svg id="Capa_1" enable-background="new 0 0 512 512" height="512" viewBox="0 0 512 512" width="512" xmlns="http://www.w3.org/2000/svg"><g><path d="m409.403 319.542v-127.084c45.285-18.758 56.972-77.515 22.313-112.174-34.66-34.66-93.417-22.972-112.174 22.313l-7.671 18.52h-111.742l-7.671-18.52c-18.758-45.285-77.515-56.972-112.174-22.313-34.66 34.66-22.972 93.417 22.313 112.174v127.083c-45.285 18.758-56.972 77.515-22.313 112.174 34.66 34.66 93.417 22.972 112.174-22.313h127.083c18.758 45.285 77.515 56.972 112.174 22.313 34.661-34.659 22.973-93.416-22.312-112.173z" fill="#ff4498"/><path d="m390.884 311.871v-111.742c39.818-16.493 50.094-68.157 19.619-98.632-30.475-30.476-82.139-20.199-98.632 19.619h-111.742c-16.493-39.818-68.157-50.094-98.632-19.619-30.476 30.476-20.199 82.139 19.619 98.632v111.741c-39.818 16.493-50.094 68.157-19.619 98.632 30.475 30.476 82.139 20.199 98.632-19.619h111.741c16.493 39.818 68.157 50.094 98.632 19.619 30.476-30.475 20.2-82.138-19.618-98.631z" fill="#ff738f"/><path d="m256 7.5c-49.016 0-82.299 49.812-63.542 95.097l7.671 18.52h111.741l7.671-18.52c18.758-45.285-14.525-95.097-63.541-95.097z" fill="#ff738f"/><path d="m256 37.5c-43.099 0-72.364 43.798-55.871 83.616l55.871 134.884 55.871-134.884c16.493-39.818-12.772-83.616-55.871-83.616z" fill="#fc9877"/><path d="m7.5 256c0 49.016 49.812 82.299 95.097 63.542l18.52-7.671v-111.742l-18.52-7.671c-45.285-18.757-95.097 14.526-95.097 63.542z" fill="#ff738f"/><path d="m37.5 256c0 43.099 43.798 72.364 83.616 55.871l134.884-55.871-134.884-55.871c-39.818-16.493-83.616 12.772-83.616 55.871z" fill="#fc9877"/><path d="m256 504.5c49.016 0 82.299-49.812 63.542-95.097l-7.671-18.52h-111.742l-7.671 18.52c-18.757 45.285 14.526 95.097 63.542 95.097z" fill="#ff738f"/><path d="m256 474.5c43.099 0 72.364-43.798 55.871-83.616l-55.871-134.884-55.871 134.884c-16.493 39.818 12.772 83.616 55.871 83.616z" fill="#fc9877"/><path d="m504.5 256c0-49.016-49.812-82.299-95.097-63.542l-18.52 7.671v111.741l18.52 7.671c45.285 18.758 95.097-14.525 95.097-63.541z" fill="#ff738f"/><path d="m474.5 256c0-43.099-43.798-72.364-83.616-55.871l-134.884 55.871 134.884 55.871c39.818 16.493 83.616-12.772 83.616-55.871z" fill="#fc9877"/><circle cx="256" cy="256" fill="#ffeb6b" r="105"/><circle cx="256" cy="256" fill="#fed363" r="75"/><circle cx="281.981" cy="241" fill="#fc9877" r="15"/><circle cx="256" cy="226" fill="#ffb463" r="15"/><circle cx="230.019" cy="241" fill="#fc9877" r="15"/><circle cx="230.019" cy="271" fill="#ffb463" r="15"/><circle cx="256" cy="286" fill="#fc9877" r="15"/><circle cx="281.981" cy="271" fill="#ffb463" r="15"/><circle cx="256" cy="256" fill="#ffeb6b" r="15"/><path d="m478.101 192.578c-11.563-7.726-24.766-12.017-38.202-12.751 8.982-10.021 15.284-22.391 17.996-36.03 4.98-25.039-2.823-50.765-20.875-68.816-18.052-18.052-43.777-25.858-68.816-20.875-13.639 2.713-26.009 9.015-36.03 17.997-.734-13.437-5.025-26.64-12.75-38.202-14.185-21.228-37.895-33.901-63.424-33.901s-49.239 12.673-63.422 33.9c-7.726 11.563-12.017 24.765-12.751 38.202-10.021-8.982-22.391-15.284-36.029-17.997-25.04-4.982-50.765 2.823-68.817 20.875s-25.856 43.778-20.875 68.817c2.713 13.638 9.015 26.008 17.996 36.029-13.437.735-26.64 5.025-38.202 12.751-21.227 14.184-33.9 37.894-33.9 63.423s12.673 49.239 33.9 63.422c11.564 7.726 24.768 12.013 38.206 12.747-8.984 10.021-15.287 22.393-18 36.033-4.98 25.039 2.823 50.765 20.875 68.817 14.466 14.466 33.856 22.351 53.875 22.35 4.963 0 9.967-.485 14.942-1.475 13.639-2.713 26.009-9.015 36.029-17.997.734 13.437 5.025 26.64 12.751 38.202 14.183 21.228 37.893 33.901 63.422 33.901s49.239-12.673 63.423-33.9c7.725-11.562 12.016-24.765 12.75-38.202 10.021 8.982 22.39 15.283 36.029 17.996 4.976.99 9.978 1.475 14.942 1.475 20.018 0 39.41-7.885 53.875-22.35 18.052-18.052 25.855-43.778 20.875-68.817-2.713-13.64-9.016-26.012-18-36.033 13.438-.734 26.644-5.021 38.206-12.747 21.227-14.183 33.9-37.893 33.9-63.422s-12.673-49.239-33.899-63.422zm-106.972-123.761c20.115-4 40.781 2.268 55.283 16.771 14.503 14.502 20.772 35.169 16.771 55.284s-17.702 36.81-36.65 44.658l-49.715 20.592c-10.946-22.036-28.905-39.994-50.94-50.94l20.593-49.715c7.848-18.948 24.544-32.649 44.658-36.65zm-115.129 284.683c-53.762 0-97.5-43.738-97.5-97.5s43.738-97.5 97.5-97.5 97.5 43.738 97.5 97.5-43.738 97.5-97.5 97.5zm-50.95-311.267c11.394-17.052 30.441-27.233 50.95-27.233 20.51 0 39.557 10.181 50.95 27.233 11.395 17.053 13.511 38.545 5.663 57.493l-20.583 49.69c-11.316-3.836-23.435-5.917-36.031-5.917s-24.714 2.081-36.031 5.917l-20.582-49.69c-7.847-18.947-5.73-40.44 5.664-57.493zm-119.463 43.354c14.502-14.501 35.17-20.768 55.284-16.77 20.115 4.001 36.809 17.702 44.658 36.65l20.592 49.715c-22.035 10.946-39.993 28.904-50.94 50.939l-49.715-20.592c-18.948-7.849-32.648-24.543-36.649-44.658s2.268-40.782 16.77-55.284zm-70.587 170.413c0-20.509 10.181-39.556 27.233-50.95 17.052-11.393 38.545-13.511 57.493-5.662l49.69 20.582c-3.836 11.316-5.917 23.435-5.917 36.031s2.081 24.714 5.917 36.031l-49.69 20.582c-18.947 7.848-40.441 5.731-57.493-5.662-17.052-11.396-27.233-30.443-27.233-50.952zm125.872 187.183c-20.116 4.001-40.782-2.268-55.285-16.77-14.502-14.502-20.771-35.169-16.77-55.284s17.702-36.809 36.65-44.658l49.715-20.592c10.946 22.035 28.904 39.993 50.94 50.939l-20.592 49.715c-7.849 18.948-24.544 32.649-44.658 36.65zm166.078 26.584c-11.393 17.052-30.44 27.233-50.95 27.233-20.509 0-39.556-10.181-50.95-27.233-11.394-17.053-13.511-38.545-5.662-57.493l20.582-49.69c11.316 3.836 23.435 5.917 36.031 5.917s24.714-2.081 36.031-5.917l20.583 49.69c7.846 18.947 5.73 40.44-5.665 57.493zm119.462-43.354c-14.501 14.502-35.166 20.771-55.284 16.77-20.114-4.001-36.809-17.702-44.657-36.649l-20.593-49.715c22.036-10.946 39.994-28.904 50.94-50.94l49.715 20.592c18.948 7.849 32.648 24.543 36.65 44.658s-2.268 40.782-16.771 55.284zm43.355-119.463c-17.052 11.394-38.545 13.511-57.493 5.662l-49.69-20.582c3.836-11.316 5.917-23.435 5.917-36.03s-2.081-24.714-5.917-36.03l49.69-20.582c18.949-7.849 40.441-5.732 57.493 5.662s27.233 30.441 27.233 50.95-10.181 39.556-27.233 50.95z"/><path d="m210.534 282.25c4.163 7.21 11.741 11.246 19.523 11.246 1.524 0 3.055-.162 4.57-.478 2.956 8.98 11.417 15.482 21.374 15.482 9.952 0 18.411-6.498 21.37-15.472 1.504.316 3.034.482 4.574.482 1.954 0 3.922-.257 5.859-.776 5.806-1.556 10.657-5.279 13.662-10.483 3.005-5.205 3.804-11.269 2.248-17.074-.929-3.466-2.645-6.581-4.973-9.177 2.328-2.596 4.044-5.711 4.973-9.177 1.556-5.805.757-11.869-2.248-17.073-3.005-5.205-7.856-8.928-13.662-10.484-3.464-.928-7.018-.999-10.429-.282-2.956-8.98-11.418-15.484-21.375-15.484-9.956 0-18.417 6.502-21.373 15.481-9.254-1.929-19.116 2.147-24.093 10.769-4.978 8.622-3.577 19.2 2.721 26.25-6.298 7.05-7.699 17.628-2.721 26.25zm52.966-26.25c0 4.136-3.364 7.5-7.5 7.5s-7.5-3.364-7.5-7.5 3.364-7.5 7.5-7.5 7.5 3.364 7.5 7.5zm-39.976 18.75c-2.068-3.582-.836-8.177 2.745-10.245 3.581-2.066 8.178-.836 10.246 2.745 1.001 1.735 1.268 3.756.749 5.691s-1.759 3.552-3.495 4.554c-3.583 2.068-8.177.836-10.245-2.745zm32.476 18.75c-4.136 0-7.5-3.364-7.5-7.5s3.364-7.5 7.5-7.5 7.5 3.364 7.5 7.5-3.364 7.5-7.5 7.5zm32.476-18.75c-1.002 1.734-2.619 2.976-4.554 3.494-1.938.519-3.958.252-5.691-.749-3.581-2.068-4.813-6.664-2.745-10.245 2.068-3.582 6.666-4.813 10.245-2.746 1.735 1.002 2.977 2.619 3.495 4.554.517 1.936.252 3.957-.75 5.692zm-6.507-41.253c.651 0 1.307.085 1.953.259 1.935.518 3.552 1.759 4.554 3.495 1.002 1.735 1.268 3.756.75 5.69-.519 1.935-1.76 3.552-3.495 4.554-3.583 2.067-8.178.836-10.245-2.745-2.067-3.582-.836-8.178 2.745-10.246 1.155-.666 2.438-1.007 3.738-1.007zm-25.969-14.997c4.136 0 7.5 3.364 7.5 7.5s-3.364 7.5-7.5 7.5-7.5-3.364-7.5-7.5 3.364-7.5 7.5-7.5zm-32.476 18.75c1.388-2.403 3.914-3.749 6.508-3.749 1.271 0 2.559.323 3.737 1.003 1.735 1.002 2.976 2.619 3.495 4.554s.252 3.956-.749 5.691c-2.067 3.582-6.663 4.814-10.246 2.745-3.582-2.067-4.813-6.662-2.745-10.244z"/><path d="m256 173.5c-39.082 0-73.083 27.76-80.847 66.008-.824 4.06 1.799 8.018 5.858 8.842 4.062.823 8.019-1.799 8.842-5.858 6.351-31.285 34.17-53.992 66.147-53.992 37.22 0 67.5 30.28 67.5 67.5s-30.28 67.5-67.5 67.5c-31.977 0-59.796-22.707-66.147-53.992-.824-4.059-4.781-6.678-8.842-5.858-4.059.824-6.682 4.783-5.858 8.842 7.764 38.248 41.766 66.008 80.847 66.008 45.49 0 82.5-37.009 82.5-82.5s-37.01-82.5-82.5-82.5z"/></g></svg>