<?xml version="1.0" encoding="iso-8859-1"?>
<!-- Generator: Adobe Illustrator 19.0.0, SVG Export Plug-In . SVG Version: 6.00 Build 0)  -->
<svg version="1.1" id="Capa_1" xmlns="http://www.w3.org/2000/svg" xmlns:xlink="http://www.w3.org/1999/xlink" x="0px" y="0px"
	 viewBox="0 0 512 512" style="enable-background:new 0 0 512 512;" xml:space="preserve">
<path style="fill:#BF4CD9;" d="M451.317,321.061C451.317,426.346,363.704,512,256,512S60.683,426.346,60.683,321.061
	S148.296,130.113,256,130.113S451.317,215.776,451.317,321.061z"/>
<path style="fill:#9430A1;" d="M451.317,321.061C451.317,426.346,363.704,512,256,512V130.113
	C363.704,130.113,451.317,215.776,451.317,321.061z"/>
<path style="fill:#C27B48;" d="M291.15,108.522c-1.67-28.227,10.002-63.251,10.119-63.598l4.725-13.936L243.763,0l-4.976,12.785
	c-16.337,41.975-16.677,81.47-16.145,95.737H291.15z"/>
<g>
	<path style="fill:#11A892;" d="M441.081,141.888c0,21.471-10.416,39.693-29.338,51.328c-15.693,9.646-36.944,14.744-61.454,14.744
		c-0.01,0-0.01,0-0.02,0c-9.696,0-18.972-0.8-27.528-2.389l2.729-14.744c-29.667-5.458-50.978-21.441-50.978-48.939
		c0-11.795,3.928-22.82,10.745-32.256l-12.155-8.786c16.653-23.03,45.511-36.774,77.187-36.784c0.01,0,0.01,0,0.02,0
		C400.349,64.061,441.081,98.976,441.081,141.888z"/>
	<path style="fill:#11A892;" d="M226.762,109.631c6.817,9.436,10.745,20.461,10.745,32.256c0,27.498-21.311,43.481-50.978,48.939
		l2.729,14.744c-8.566,1.589-17.842,2.389-27.548,2.389c-24.51,0-45.761-5.098-61.454-14.744
		c-18.922-11.635-29.338-29.857-29.338-51.328c0-42.912,40.733-77.827,90.791-77.827c31.687,0,60.554,13.754,77.207,36.784
		L226.762,109.631z"/>
</g>
<g>
	<path style="fill:#0F9887;" d="M441.081,141.888c0,21.471-10.416,39.693-29.338,51.328c-15.693,9.646-36.944,14.744-61.454,14.744
		c-0.01,0-0.01,0-0.02,0V64.061c0.01,0,0.01,0,0.02,0C400.349,64.061,441.081,98.976,441.081,141.888z"/>
	<path style="fill:#0F9887;" d="M226.762,109.631c6.817,9.436,10.745,20.461,10.745,32.256c0,27.498-21.311,43.481-50.978,48.939
		l2.729,14.744c-8.566,1.589-17.842,2.389-27.548,2.389V64.061c31.687,0,60.554,13.754,77.207,36.784L226.762,109.631z"/>
</g>
<path style="fill:#11A892;" d="M346.791,167.607c0,21.471-10.426,39.703-29.337,51.328c-15.703,9.656-36.944,14.754-61.454,14.754
	s-45.751-5.098-61.454-14.754c-18.912-11.625-29.338-29.857-29.338-51.328c0-42.912,40.733-77.827,90.791-77.827
	S346.791,124.695,346.791,167.607z"/>
<path style="fill:#0F9887;" d="M346.791,167.607c0,21.471-10.426,39.703-29.337,51.328c-15.703,9.656-36.944,14.754-61.454,14.754
	V89.78C306.059,89.78,346.791,124.695,346.791,167.607z"/>
<g>
</g>
<g>
</g>
<g>
</g>
<g>
</g>
<g>
</g>
<g>
</g>
<g>
</g>
<g>
</g>
<g>
</g>
<g>
</g>
<g>
</g>
<g>
</g>
<g>
</g>
<g>
</g>
<g>
</g>
</svg>
