<?xml version="1.0" encoding="iso-8859-1"?>
<!-- Generator: Adobe Illustrator 19.0.0, SVG Export Plug-In . SVG Version: 6.00 Build 0)  -->
<svg version="1.1" id="Capa_1" xmlns="http://www.w3.org/2000/svg" xmlns:xlink="http://www.w3.org/1999/xlink" x="0px" y="0px"
	 viewBox="0 0 512.002 512.002" style="enable-background:new 0 0 512.002 512.002;" xml:space="preserve">
<path style="fill:#D2D7DD;" d="M367.534,452.962H122.517c-14.203,0-25.717,11.514-25.717,25.718l0,0
	c0,14.203,11.514,25.718,25.717,25.718h302.02c11.615,0,21.031-9.416,21.031-21.031v-67.792"/>
<path style="fill:#FAC900;" d="M445.565,28.63v403.304c0,11.609-9.419,21.027-21.027,21.027H122.518
	c-14.204,0-25.722,11.517-25.722,25.722V33.325c0-14.204,11.517-25.722,25.722-25.722h302.019
	C436.146,7.603,445.565,17.022,445.565,28.63z"/>
<path style="fill:#FEFFFF;" d="M371.758,240.691H224.925c-11.945,0-21.629-9.683-21.629-21.629v-63.193
	c0-11.945,9.683-21.629,21.629-21.629h146.832c11.945,0,21.629,9.683,21.629,21.629v63.193
	C393.386,231.007,383.703,240.691,371.758,240.691z"/>
<path d="M424.537,0H122.516C108.001,0,95.63,9.334,91.073,22.311h-4.108c-15.514,0-28.135,12.622-28.135,28.135
	c0,7.516,2.927,14.581,8.233,19.888c5.304,5.318,12.372,8.247,19.902,8.247h2.23v16.3h-2.23c-15.514,0-28.135,12.622-28.135,28.135
	c0,7.516,2.927,14.581,8.233,19.888c5.304,5.318,12.372,8.247,19.902,8.247h2.23v16.3h-2.23c-15.514,0-28.135,12.622-28.135,28.135
	c0,7.516,2.927,14.581,8.233,19.888c5.304,5.318,12.372,8.247,19.902,8.247h2.23v16.3h-2.23c-15.514,0-28.135,12.622-28.135,28.135
	c0,7.516,2.927,14.581,8.233,19.888c5.304,5.318,12.372,8.247,19.902,8.247h2.23v16.3h-2.23c-15.514,0-28.135,12.622-28.135,28.135
	c0,7.517,2.927,14.582,8.233,19.888c5.304,5.318,12.372,8.247,19.902,8.247h2.23v16.3h-2.23c-15.514,0-28.135,12.622-28.135,28.135
	c0,7.517,2.927,14.582,8.233,19.888c5.304,5.318,12.372,8.247,19.902,8.247h2.23v37.255c0,18.373,14.947,33.321,33.321,33.321
	h302.021c15.789,0,28.634-12.845,28.634-28.634V28.634C453.172,12.846,440.326,0,424.537,0z M86.965,63.372
	c-3.46,0-6.704-1.341-9.141-3.785c-2.441-2.441-3.786-5.688-3.786-9.142c0-7.127,5.799-12.927,12.927-12.927h2.23v25.853
	C89.195,63.372,86.965,63.372,86.965,63.372z M86.965,135.942c-3.46,0-6.704-1.341-9.141-3.785
	c-2.441-2.441-3.786-5.688-3.786-9.142c0-7.127,5.799-12.927,12.927-12.927h2.23v25.853H86.965z M86.965,208.51
	c-3.46,0-6.704-1.341-9.141-3.785c-2.441-2.441-3.786-5.688-3.786-9.142c0-7.127,5.799-12.927,12.927-12.927h2.23v25.853H86.965z
	 M86.965,281.079c-3.46,0-6.704-1.341-9.141-3.785c-2.441-2.441-3.786-5.688-3.786-9.142c0-7.127,5.799-12.927,12.927-12.927h2.23
	v25.853H86.965z M86.965,353.648c-3.46,0-6.704-1.341-9.142-3.786c-2.44-2.44-3.785-5.687-3.785-9.141
	c0-7.127,5.799-12.927,12.927-12.927h2.23v25.853H86.965z M86.965,426.216c-3.46,0-6.704-1.341-9.142-3.786
	c-2.44-2.44-3.785-5.687-3.785-9.141c0-7.127,5.799-12.927,12.927-12.927h2.23v25.853H86.965z M424.537,496.792H122.516
	c-9.464,0-17.246-7.301-18.035-16.565c5.331,3.445,11.541,5.3,18.04,5.3h200.402c4.199,0,7.604-3.405,7.604-7.604l0,0
	c0-4.199-3.405-7.604-7.604-7.604H122.521c-4.624,0-8.971-1.736-12.334-4.873c3.237-3.018,7.564-4.881,12.329-4.881H338.64h28.893
	h57.004c4.843,0,9.407-1.213,13.41-3.345c-0.175,7.251-6.115,13.098-13.407,13.098h-66.13c-4.199,0-7.604,3.405-7.604,7.604l0,0
	c0,4.199,3.405,7.604,7.604,7.604h66.13c4.848,0,9.417-1.216,13.424-3.352v1.19C437.964,490.781,431.953,496.792,424.537,496.792z
	 M437.964,415.574v16.358c0,7.415-6.011,13.427-13.427,13.427h-57.004H338.64H172.883V95.212c0-4.199-3.405-7.604-7.604-7.604l0,0
	c-4.199,0-7.604,3.405-7.604,7.604v350.146h-35.159c-6.675,0-12.894,1.981-18.113,5.374v-50.37h8.039
	c3.371,0,6.695,1.154,9.162,3.45c2.601,2.421,4.066,5.714,4.128,9.239c0.066,3.702,2.514,7.034,6.155,7.706
	c4.838,0.893,9.055-2.795,9.055-7.47c0-7.849-3.191-15.208-8.96-20.593c-5.328-4.972-12.465-7.542-19.753-7.542h-7.825v-57.361
	h8.039c3.371,0,6.695,1.154,9.162,3.45c2.601,2.421,4.066,5.714,4.128,9.239c0.066,3.702,2.514,7.034,6.155,7.706
	c4.838,0.893,9.055-2.795,9.055-7.47c0-7.849-3.191-15.208-8.961-20.593c-5.328-4.972-12.465-7.542-19.753-7.542h-7.825v-57.361
	h8.039c3.371,0,6.695,1.154,9.162,3.45c2.601,2.421,4.066,5.714,4.128,9.239c0.066,3.702,2.514,7.034,6.155,7.706
	c4.838,0.893,9.055-2.795,9.055-7.47c0-7.849-3.191-15.208-8.961-20.593c-5.328-4.972-12.465-7.542-19.753-7.542h-7.825v-57.361
	h8.039c3.371,0,6.695,1.154,9.162,3.45c2.601,2.421,4.066,5.714,4.128,9.239c0.066,3.702,2.514,7.034,6.155,7.706
	c4.838,0.893,9.055-2.795,9.055-7.47c0-7.849-3.191-15.208-8.961-20.593c-5.328-4.972-12.465-7.542-19.753-7.542h-7.825v-57.361
	h8.039c3.371,0,6.695,1.154,9.162,3.45c2.601,2.421,4.066,5.714,4.128,9.239c0.066,3.702,2.514,7.034,6.155,7.706
	c4.838,0.893,9.055-2.795,9.055-7.47c0-7.849-3.191-15.208-8.961-20.593c-5.328-4.972-12.465-7.542-19.753-7.542h-7.825V37.519
	h8.039c3.371,0,6.695,1.154,9.162,3.45c2.601,2.421,4.066,5.714,4.128,9.239c0.066,3.702,2.514,7.034,6.155,7.706
	c4.838,0.893,9.055-2.795,9.055-7.47c0-7.849-3.191-15.208-8.961-20.593c-5.328-4.972-12.465-7.542-19.753-7.542h-4.062
	c3.314-4.309,8.505-7.103,14.349-7.103h35.159v44.518c0,4.199,3.405,7.604,7.604,7.604l0,0c4.199,0,7.604-3.405,7.604-7.604V15.208
	h251.655c7.415,0,13.427,6.011,13.427,13.427v360.464v26.475H437.964z"/>
<path d="M371.758,126.636H224.925c-16.118,0-29.233,13.114-29.233,29.233v63.193c0,16.118,13.114,29.233,29.233,29.233h146.832
	c16.118,0,29.232-13.114,29.232-29.233v-63.193C400.989,139.751,387.877,126.636,371.758,126.636z M385.781,219.062
	c0,7.733-6.291,14.025-14.024,14.025H224.925c-7.734,0-14.025-6.292-14.025-14.025v-63.193c0-7.733,6.291-14.025,14.025-14.025
	h146.832c7.733,0,14.024,6.292,14.024,14.025V219.062z"/>
<g>
</g>
<g>
</g>
<g>
</g>
<g>
</g>
<g>
</g>
<g>
</g>
<g>
</g>
<g>
</g>
<g>
</g>
<g>
</g>
<g>
</g>
<g>
</g>
<g>
</g>
<g>
</g>
<g>
</g>
</svg>
