<svg height="512pt" viewBox="-57 0 512 512" width="512pt" xmlns="http://www.w3.org/2000/svg"><path d="m337 68.285156c.328125 4.820313.054688 9.652344-.820312 14.351563 4.542968-1.5 9.289062-2.429688 14.113281-2.753907 5.757812-.394531 11.441406.0625 16.863281 1.332032 4.886719-10.890625 5.992188-22.800782 2.734375-33.453125-.246094-.796875-.703125-1.488281-1.304687-2.015625-.605469-.527344-1.355469-.890625-2.179688-1.019532-11.042969-1.792968-22.753906.941407-32.914062 7.320313 1.929687 5.117187 3.121093 10.589844 3.507812 16.238281zm0 0" fill="#fe3745"/><path d="m380.144531 86.242188c-.261719-.230469-.554687-.433594-.878906-.597657-8.710937-4.46875-18.730469-6.460937-28.972656-5.761719-4.824219.328126-9.570313 1.253907-14.113281 2.753907.871093-4.699219 1.148437-9.527344.816406-14.351563-.695313-10.242187-4.03125-19.898437-9.636719-27.917968-.210937-.296876-.449219-.558594-.710937-.792969-1.320313-1.148438-3.246094-1.421875-4.871094-.589844-6.226563 3.195313-12.023438 7.75-16.757813 13.175781-.8125.929688-1.574219 1.882813-2.3125 2.847656 6.652344 5.292969 11.15625 12.035157 13.4375 20.148438 2.53125 9.042969 2.292969 19.582031-.683593 31.46875 11.148437-5.085938 21.472656-7.238281 30.824218-6.386719 8.800782.800781 16.558594 4.296875 23.179688 10.390625.382812-.414062.769531-.824218 1.144531-1.253906 4.734375-5.425781 8.464844-11.785156 10.785156-18.390625.601563-1.71875.074219-3.585937-1.25-4.742187zm0 0" fill="#f66"/><g fill="#fe3745"><path d="m282.292969 90.953125c0 2.109375-.34375 4.164063-.988281 6.132813 6.550781 2.398437 11.867187 9.015624 14.363281 17.632812 3.429687-1.71875 6.941406-2.777344 10.324219-3.179688 3.21875-1.863281 6.375-3.503906 9.46875-4.917968 2.976562-11.882813 3.21875-22.425782.683593-31.464844-3.3125-11.789062-11.308593-20.679688-23.785156-26.4375-1.324219-.613281-2.90625-.035156-3.515625 1.296875l-12.3125 26.695313c3.636719 4.132812 5.761719 9.007812 5.761719 14.242187zm0 0"/><path d="m376.605469 118.816406c-7.925781-11.214844-18.128907-17.46875-30.320313-18.582031-11.945312-1.085937-25.480468 2.722656-40.292968 11.304687 6.195312-.726562 11.941406.800782 15.886718 4.820313 6.25 6.363281 6.210938 17.109375.792969 26.917969 4.847656 1.617187 8.992187 4.136718 12.039063 7.242187 2.746093-1.207031 5.410156-2.695312 7.953124-4.492187l33.308594-23.519532c1.191406-.84375 1.476563-2.496093.632813-3.691406zm0 0"/><path d="m45.957031 105.320312c5.417969.304688 10.761719 1.285157 15.878907 2.90625-1.039063-5.265624-1.410157-10.683593-1.105469-16.101562.339843-6.023438 1.5-11.871094 3.410156-17.382812-10.8125-5.863282-22.886719-8.179688-34.28125-6.195313-.917969.15625-1.753906.570313-2.429687 1.171875-.671876.601562-1.175782 1.382812-1.4375 2.28125-3.253907 11.09375-2.304688 23.351562 2.304687 34.75 5.691406-1.273438 11.636719-1.769531 17.660156-1.429688zm0 0"/></g><path d="m27.320312 142.597656c7.238282-6.625 15.726563-10.484375 25.363282-11.476562 10.488281-1.078125 22.109375 1.203125 34.695312 6.769531-3.5-13.304687-3.90625-25.136719-1.179687-35.324219 2.472656-9.207031 7.5-16.882812 14.996093-22.929687-1.453124-2.074219-3.035156-4.09375-4.769531-6.035157-5.386719-6.03125-11.957031-11.070312-18.988281-14.578124-1.832031-.910157-3.992188-.578126-5.460938.730468-.292968.261719-.558593.5625-.785156.898438-6.191406 9.078125-9.8125 19.964844-10.460937 31.476562-.304688 5.414063.066406 10.832032 1.105469 16.097656-5.117188-1.621093-10.460938-2.601562-15.878907-2.90625-11.511719-.648437-22.738281 1.71875-32.457031 6.851563-.359375.191406-.6875.421875-.980469.683594-1.46875 1.3125-2.039062 3.417969-1.339843 5.339843 2.691406 7.382813 6.964843 14.476563 12.351562 20.503907 1.222656 1.367187 2.488281 2.664062 3.789062 3.898437zm0 0" fill="#f66"/><path d="m104.296875 146.992188c6.613281 4.164062 12.234375 8.382812 16.40625 11.742187v.003906c-.550781-8.550781 1.847656-16.390625 7.457031-21.957031 1.613282-1.597656 3.414063-2.933594 5.363282-4.015625-.214844-5.046875.933593-10.523437 3.335937-15.910156-.222656-.511719-.4375-1.023438-.679687-1.527344l-1.503907-3.164063c-11.164062-4.679687-18.671875-13.300781-18.671875-23.183593 0-3.601563 1.003906-7.035157 2.8125-10.171875l-2.296875-4.824219c-.703125-1.488281-2.484375-2.113281-3.960937-1.410156-13.933594 6.628906-22.796875 16.714843-26.359375 29.992187-2.726563 10.1875-2.320313 22.019532 1.179687 35.324219 5.464844 2.417969 11.105469 5.445313 16.917969 9.101563zm0 0" fill="#fe3745"/><path d="m106.960938 187.300781c.386718-.164062.761718-.34375 1.144531-.519531 3.136719-2.707031 6.875-5.050781 11.066406-6.925781 0-.003907 0-.003907.003906-.003907.773438-.632812 1.539063-1.285156 2.277344-1.96875 1.226563-.960937 2.378906-1.992187 3.496094-3.046874-2.472657-5.398438-3.910157-10.882813-4.246094-16.101563-4.171875-3.359375-9.792969-7.578125-16.40625-11.742187-19.203125-12.074219-36.570313-17.414063-51.613281-15.871094-13.675782 1.410156-25.050782 8.566406-33.800782 21.261718-.933593 1.355469-.589843 3.207032.757813 4.140626l19.339844 13.320312c-.027344-2.117188.011719-4.242188.164062-6.375.078125-1.0625.539063-2.015625 1.246094-2.722656.707031-.707032 1.660156-1.167969 2.722656-1.246094 21.722657-1.570312 43.023438 6.367188 58.441407 21.78125 1.921874 1.917969 3.722656 3.929688 5.40625 6.019531zm0 0" fill="#fe3745"/><path d="m30.25 234.777344c9.867188-5.207032 20.871094-8.175782 32.25-8.597656.328125-.632813.628906-1.28125.898438-1.945313-.835938-.761719-1.664063-1.53125-2.464844-2.335937-8.191406-8.183594-14.242188-18.039063-17.910156-28.722657-.191407-.007812-.382813-.015625-.578126-.015625-12.480468 0-22.597656 10.117188-22.597656 22.597656 0 7.984376 4.144532 15 10.402344 19.019532zm0 0" fill="#ff6700"/><path d="m340.597656 225.132812c-.433594.433594-.886718.839844-1.328125 1.261719 10.136719.84375 19.914063 3.707031 28.777344 8.382813 6.253906-4.019532 10.402344-11.03125 10.402344-19.019532 0-11.25-8.226563-20.578124-18.992188-22.308593-3.515625 11.828125-9.921875 22.746093-18.859375 31.683593zm0 0" fill="#ff6700"/><path d="m138.464844 113.570312c-3.511719 6.414063-5.199219 13.117188-4.941406 19.195313 9.898437-5.472656 23.691406-4.347656 36.542968 2.574219 5.167969-16.039063 16.785156-27.226563 30.296875-27.226563 9.78125 0 18.570313 5.859375 24.640625 15.175781.585938-3.578124 2.09375-6.777343 4.613282-9.25 6.3125-6.195312 17.058593-6.070312 26.910156-.578124 3.371094-10.335938 10.871094-17.484376 19.546875-17.367188 1.808593.023438 3.558593.375 5.230469.988281.644531-1.96875.984374-4.019531.984374-6.128906 0-10.96875-9.230468-20.394531-22.464843-24.589844 6.839843-12.488281 6.820312-26.074219-1.183594-34.011719-7.816406-7.757812-21.070313-7.949218-33.414063-1.632812-4.066406-13.625-13.761718-23.21875-25.082031-23.21875-11.058593 0-20.566406 9.152344-24.792969 22.277344-12.589843-6.78125-26.285156-6.761719-34.292968 1.175781-7.816406 7.757813-8.011719 20.898437-1.648438 33.144531-13.734375 4.035156-23.40625 13.65625-23.40625 24.882813 0 10.96875 9.230469 20.398437 22.460938 24.589843zm0 0" fill="#ff99a3"/><path d="m186.480469 112.328125c4.226562-2.695313 8.925781-4.214844 13.886719-4.214844 4.492187 0 8.773437 1.242188 12.679687 3.480469 7.1875-4.554688 11.960937-12.535156 11.960937-21.625 0-14.167969-11.574218-25.652344-25.859374-25.652344-14.28125 0-25.859376 11.484375-25.859376 25.652344-.003906 9.601562 5.320313 17.964844 13.191407 22.359375zm0 0" fill="#fff"/><path d="m186.480469 112.328125c4.222656-2.699219 8.925781-4.210937 13.886719-4.210937.476562 0 .953124.015624 1.429687.042968-4.71875-4.644531-7.648437-11.074218-7.648437-18.191406 0-10.484375 6.34375-19.496094 15.429687-23.472656-3.191406-1.398438-6.71875-2.179688-10.429687-2.179688-14.28125 0-25.863282 11.484375-25.863282 25.652344 0 9.597656 5.324219 17.960938 13.195313 22.359375zm0 0" fill="#e0e0e0"/><path d="m231.019531 136.488281c15.089844-7.71875 31.28125-7.480469 40.835938 1.996094 9.78125 9.703125 9.804687 26.304687 1.449219 41.566406 8.203124 2.597657 15.140624 6.84375 19.992187 12.148438 2.042969-2.6875 4.257813-5.265625 6.675781-7.6875 11.042969-11.039063 25.113282-18.21875 40.183594-20.839844.011719-.238281.039062-.472656.042969-.710937.042969-8.675782-7.164063-16.230469-17.527344-19.683594 5.417969-9.8125 5.457031-20.554688-.792969-26.921875-6.101562-6.214844-16.496094-6.503907-26.210937-1.636719-3.136719-10.820312-10.707031-18.507812-19.59375-18.625-8.675781-.117188-16.171875 7.03125-19.542969 17.367188-9.855469-5.492188-20.601562-5.617188-26.914062.578124-2.519532 2.472657-4.027344 5.671876-4.613282 9.25 2.515625 3.863282 4.5625 8.320313 6.015625 13.199219zm0 0" fill="#fcf3eb"/><path d="m187.71875 390.328125c3.058594-2.648437 7.046875-4.269531 11.429688-4.269531 4.378906 0 8.371093 1.621094 11.425781 4.273437l25.628906-11.492187 76.882813-97.980469c-10.632813-2.921875-20.507813-8.183594-28.921876-15.410156h-6.738281c-.726562 6.019531-3.113281 11.421875-7.292969 15.566406-9.78125 9.703125-26.515624 9.726563-41.90625 1.4375-5.164062 16.039063-16.78125 27.226563-30.292968 27.226563-13.835938 0-25.6875-11.722657-30.65625-28.375h.003906c-15.089844 7.71875-31.28125 7.480468-40.839844-1.996094-3.777344-3.746094-6.089844-8.527344-7.039062-13.859375h-5.28125c-8.394532 7.207031-18.246094 12.4375-28.839844 15.367187l78.117188 98.609375zm0 0" fill="#ffe2b8"/><path d="m221.808594 421.296875-11.234375-5.035156c-3.054688 2.648437-7.046875 4.269531-11.425781 4.269531-4.382813 0-8.371094-1.617188-11.429688-4.269531l-10.011719 4.488281-26.945312 79.015625c-.886719 2.605469.636719 4.734375 3.386719 4.734375h91.03125c2.75 0 4.273437-2.128906 3.386718-4.734375zm0 0" fill="#ffe2b8"/><path d="m187.71875 390.328125c.164062-.140625.324219-.289063.496094-.421875l-2.851563-9.027344-84.296875-106.414062c-4.992187 2.710937-10.292968 4.832031-15.785156 6.351562l78.117188 98.609375zm0 0" fill="#ffc987"/><path d="m199.148438 386.058594c4.28125 0 8.195312 1.542968 11.226562 4.089844l32.035156-102.480469c-4.695312-.945313-9.5-2.695313-14.179687-5.214844-5.167969 16.039063-16.785157 27.226563-30.296875 27.226563-13.832032 0-25.6875-11.722657-30.65625-28.375 0 0 .003906 0 .003906-.003907-3.957031 2.023438-7.984375 3.5-11.953125 4.40625l32.886719 104.199219c2.984375-2.402344 6.789062-3.847656 10.933594-3.847656zm0 0" fill="#e0aa68"/><path d="m199.148438 420.53125c-2.980469 0-5.78125-.746094-8.234376-2.054688l-11.683593 86.023438h40.25l-11.71875-86.246094c-2.539063 1.441406-5.476563 2.277344-8.613281 2.277344zm0 0" fill="#e0aa68"/><path d="m181.765625 403.296875c0-5.175781 2.3125-9.808594 5.953125-12.96875l-42.996094-19.277344c-5.019531-2.25-9.125.410157-9.125 5.910157v52.671874c0 5.5 4.105469 8.15625 9.125 5.90625l42.996094-19.277343c-3.640625-3.160157-5.953125-7.789063-5.953125-12.964844zm0 0" fill="#e3328b"/><path d="m253.574219 371.050781-43 19.28125c3.644531 3.160157 5.953125 7.789063 5.953125 12.964844s-2.308594 9.804687-5.953125 12.964844l43 19.277343c5.019531 2.25 9.125-.40625 9.125-5.90625v-52.671874c0-5.5-4.105469-8.160157-9.125-5.910157zm0 0" fill="#e3328b"/><path d="m156.148438 429.632812v-52.671874c0-.265626.015624-.519532.035156-.769532l-11.460938-5.140625c-5.019531-2.25-9.125.40625-9.125 5.90625v52.675781c0 5.5 4.105469 8.15625 9.125 5.90625l11.460938-5.140624c-.019532-.25-.035156-.5-.035156-.765626zm0 0" fill="#bb0a7e"/><path d="m216.527344 403.296875c0-9.523437-7.78125-17.238281-17.378906-17.238281-9.601563 0-17.382813 7.714844-17.382813 17.238281 0 9.519531 7.78125 17.234375 17.382813 17.234375 9.597656 0 17.378906-7.714844 17.378906-17.234375zm0 0" fill="#ff99a3"/><path d="m194.148438 403.296875c0-7.351563 4.648437-13.609375 11.179687-16.085937-1.917969-.734376-4-1.152344-6.179687-1.152344-9.601563 0-17.382813 7.71875-17.382813 17.238281s7.78125 17.234375 17.382813 17.234375c2.183593 0 4.261718-.414062 6.179687-1.148438-6.53125-2.476562-11.179687-8.734374-11.179687-16.085937zm0 0" fill="#f66"/><path d="m300.753906 210.105469c0 12.058593-9.132812 22.601562-22.746094 28.324219.015626 1.503906.070313 3.011718.179688 4.519531.078125 1.0625.539062 2.015625 1.246094 2.722656.515625.515625 1.164062.898437 1.890625 1.097656 13.871093-13.203125 32.332031-20.664062 51.695312-20.664062 2.09375 0 4.175781.113281 6.25.289062.441407-.421875.894531-.828125 1.328125-1.261719 15.421875-15.414062 23.359375-36.714843 21.785156-58.433593-.074218-1.0625-.539062-2.015625-1.242187-2.722657-.707031-.707031-1.664063-1.167968-2.722656-1.242187-21.722657-1.574219-43.027344 6.363281-58.445313 21.78125-2.417968 2.417969-4.632812 4.996094-6.675781 7.683594 4.714844 5.152343 7.457031 11.296875 7.457031 17.90625zm0 0" fill="#02af8e"/><path d="m300.753906 210.105469c0 .117187-.007812.234375-.011718.355469 2.722656-4.089844 5.851562-7.945313 9.386718-11.484376 13.953125-13.949218 32.722656-21.746093 52.261719-21.945312.226563-3.417969.242187-6.871094-.007813-10.332031-.074218-1.0625-.539062-2.015625-1.242187-2.722657-.707031-.707031-1.664063-1.164062-2.722656-1.242187-21.722657-1.574219-43.027344 6.363281-58.445313 21.78125-2.417968 2.417969-4.632812 4.996094-6.675781 7.683594 4.714844 5.152343 7.457031 11.296875 7.457031 17.90625zm0 0" fill="#008e83"/><path d="m389.75 252.023438c-14.246094-16.46875-34.921875-25.917969-56.730469-25.917969-21.71875 0-42.316406 9.378906-56.554687 25.730469.597656 2.4375.976562 4.855468 1.128906 7.222656 14.191406 15.574218 34.269531 24.492187 55.425781 24.492187 21.808594 0 42.484375-9.449219 56.734375-25.917969.695313-.804687 1.042969-1.808593 1.042969-2.804687 0-1-.351563-2-1.046875-2.804687zm0 0" fill="#02af8e"/><path d="m323.019531 262.328125h-30.789062c11.632812 8.824219 25.914062 13.722656 40.789062 13.71875h.003907c18.679687 0 36.4375-7.699219 49.160156-21.21875-1.871094-1.988281-3.863282-3.835937-5.9375-5.5625-12.523438 8.839844-27.574219 13.734375-43.226563 13.734375-3.367187 0-6.707031-.230469-10-.671875zm0 0" fill="#008e83"/><path d="m97.542969 207.691406c0-7.570312 3.601562-14.539062 9.644531-20.097656-1.75-2.195312-3.625-4.304688-5.628906-6.3125-15.421875-15.417969-36.722656-23.355469-58.445313-21.78125-1.0625.078125-2.015625.539062-2.722656 1.246094-.707031.703125-1.167969 1.65625-1.242187 2.71875-1.574219 21.71875 6.363281 43.019531 21.785156 58.433594 1.480468 1.484374 3.03125 2.875 4.617187 4.214843 17.789063.066407 34.804688 6.417969 48.179688 17.738281 1.878906.003907 3.757812-.035156 5.644531-.171874 1.0625-.074219 2.015625-.535157 2.722656-1.242188.707032-.707031 1.167969-1.660156 1.246094-2.722656.058594-.828125.078125-1.65625.109375-2.484375-15.34375-5.351563-25.910156-16.566407-25.910156-29.539063zm0 0" fill="#02af8e"/><path d="m112.753906 232.0625c-14.328125-2.882812-27.652344-9.90625-38.210937-20.464844-13.929688-13.929687-21.730469-32.660156-21.949219-52.160156-3.144531-.167969-6.304688-.167969-9.480469.0625-1.0625.078125-2.015625.539062-2.722656 1.246094-.707031.703125-1.167969 1.65625-1.246094 2.71875-1.574219 21.71875 6.367188 43.019531 21.785157 58.433594 1.480468 1.484374 3.035156 2.875 4.621093 4.214843 17.789063.066407 34.804688 6.417969 48.179688 17.738281 1.875.003907 3.757812-.035156 5.644531-.171874 1.0625-.074219 2.015625-.535157 2.722656-1.242188.707032-.707031 1.164063-1.660156 1.242188-2.722656.0625-.828125.089844-1.65625.117187-2.484375-3.910156-1.363281-7.511719-3.109375-10.703125-5.167969zm0 0" fill="#008e83"/><path d="m120.148438 249.988281c-14.15625-15.199219-33.988282-23.882812-54.871094-23.882812-21.808594 0-42.484375 9.449219-56.730469 25.917969-.695313.804687-1.046875 1.804687-1.046875 2.804687 0 .996094.347656 2 1.046875 2.804687 14.246094 16.46875 34.925781 25.917969 56.730469 25.917969 20.285156 0 39.585937-8.1875 53.652344-22.585937-.128907-3.53125.285156-7.230469 1.21875-10.976563zm0 0" fill="#02af8e"/><path d="m184.304688 145.953125c3.136718 3.109375 5.835937 6.433594 8.113281 9.867187 2.207031-.273437 4.449219-.429687 6.730469-.429687 3.195312 0 6.316406.289063 9.355468.816406 2.082032-2.964843 4.476563-5.839843 7.207032-8.546875 4.730468-4.695312 9.953124-8.429687 15.308593-11.171875-4.96875-16.652343-16.820312-28.375-30.652343-28.375-13.515626 0-25.132813 11.1875-30.296876 27.226563 4.980469 2.683594 9.820313 6.234375 14.234376 10.613281zm0 0" fill="#873cbe"/><path d="m184.304688 145.953125c1.40625 1.394531 2.71875 2.832031 3.953124 4.304687 1.082032-18.628906 10.214844-34.105468 22.578126-39.792968-3.292969-1.515625-6.808594-2.351563-10.472657-2.351563-13.511719 0-25.128906 11.191407-30.296875 27.230469 4.984375 2.679688 9.824219 6.230469 14.238282 10.609375zm0 0" fill="#701f85"/><path d="m273.304688 180.050781c-2.707032 4.941407-6.285157 9.742188-10.699219 14.125-3.132813 3.105469-6.484375 5.789063-9.945313 8.046875.273438 2.1875.433594 4.410156.433594 6.671875 0 3.167969-.292969 6.265625-.824219 9.285157 2.988281 2.0625 5.882813 4.4375 8.617188 7.144531 4.730469 4.695312 8.496093 9.875 11.261719 15.1875 16.789062-4.929688 28.605468-16.6875 28.605468-30.40625 0-13.40625-11.28125-24.929688-27.449218-30.054688zm0 0" fill="#873cbe"/><path d="m271.855469 138.484375c-12.949219-12.84375-38.085938-8.734375-56.144531 9.175781-2.730469 2.707032-5.121094 5.582032-7.203126 8.546875 23.152344 4.019531 41.222657 22.679688 44.152344 46.015625 3.460938-2.257812 6.8125-4.941406 9.945313-8.046875 18.054687-17.914062 22.199219-42.847656 9.25-55.691406zm0 0" fill="#ff99a3"/><path d="m271.855469 138.484375c-12.949219-12.84375-38.085938-8.734375-56.144531 9.175781-2.730469 2.707032-5.121094 5.582032-7.203126 8.546875 7.929688 1.378907 15.261719 4.46875 21.597657 8.882813 15.730469-14.21875 35.964843-18.46875 49.066406-10.839844-.699219-6.097656-3.09375-11.574219-7.316406-15.765625zm0 0" fill="#f66"/><path d="m213.992188 271.839844c-3.136719-3.109375-5.835938-6.433594-8.113282-9.863282-2.203125.269532-4.445312.425782-6.726562.425782-3.195313 0-6.320313-.289063-9.359375-.816406-2.082031 2.964843-4.476563 5.835937-7.207031 8.546874-4.730469 4.695313-9.953126 8.429688-15.308594 11.171876 4.96875 16.652343 16.820312 28.375 30.65625 28.375 13.511718 0 25.128906-11.191407 30.292968-27.230469-4.980468-2.679688-9.820312-6.230469-14.234374-10.609375zm0 0" fill="#873cbe"/><path d="m185.246094 267.3125c-.851563.953125-1.730469 1.898438-2.660156 2.820312-4.730469 4.695313-9.953126 8.429688-15.308594 11.171876 4.96875 16.652343 16.820312 28.375 30.65625 28.375 3.554687 0 6.976562-.78125 10.1875-2.214844-12.558594-5.605469-21.84375-21.28125-22.875-40.152344zm0 0" fill="#701f85"/><path d="m260.886719 225.324219c-2.734375-2.707031-5.628907-5.082031-8.621094-7.148438-4.050781 22.972657-22.863281 40.890625-46.386719 43.796875 2.277344 3.433594 4.976563 6.757813 8.109375 9.867188 18.0625 17.910156 43.195313 22.015625 56.144531 9.171875 12.949219-12.84375 8.808594-37.777344-9.246093-55.6875zm0 0" fill="#ff99a3"/><path d="m234.464844 261.675781c-2.425782-2.40625-4.585938-4.945312-6.496094-7.554687-6.546875 4.109375-14.039062 6.859375-22.089844 7.855468 2.277344 3.429688 4.976563 6.753907 8.113282 9.863282 18.058593 17.914062 43.195312 22.019531 56.140624 9.175781.867188-.859375 1.648438-1.773437 2.363282-2.734375-12.242188.566406-26.5625-5.230469-38.03125-16.605469zm0 0" fill="#f66"/><path d="m135.691406 223.617188c3.132813-3.109376 6.484375-5.789063 9.945313-8.046876-.273438-2.1875-.433594-4.414062-.433594-6.675781 0-3.171875.296875-6.277343.832031-9.296875-.003906.003906-.003906.011719-.003906.015625-2.988281-2.0625-5.886719-4.4375-8.617188-7.144531-4.734374-4.695312-8.5-9.871094-11.261718-15.1875-16.792969 4.929688-28.609375 16.6875-28.609375 30.40625 0 13.40625 11.28125 24.929688 27.449219 30.050781 2.703124-4.9375 6.28125-9.738281 10.699218-14.121093zm0 0" fill="#873cbe"/><path d="m134.730469 189.632812c-3.492188-3.910156-6.363281-8.085937-8.582031-12.351562-16.789063 4.933594-28.605469 16.6875-28.605469 30.410156 0 11.828125 8.785156 22.195313 21.964843 27.992188-4.652343-5.128906-7.359374-11.234375-7.359374-17.792969 0-12.011719 9.0625-22.519531 22.582031-28.257813zm0 0" fill="#701f85"/><path d="m145.636719 215.570312c-3.457031 2.257813-6.808594 4.9375-9.945313 8.046876-18.058594 17.914062-22.199218 42.847656-9.25 55.691406 12.949219 12.84375 38.085938 8.734375 56.144532-9.175782 2.730468-2.710937 5.125-5.585937 7.207031-8.546874-23.160157-4.019532-41.226563-22.679688-44.15625-46.015626zm0 0" fill="#ff99a3"/><path d="m149.863281 230.640625c-2.113281-4.703125-3.558593-9.765625-4.226562-15.070313-3.457031 2.261719-6.808594 4.941407-9.945313 8.046876-18.058594 17.914062-22.199218 42.847656-9.25 55.691406 7.363282 7.304687 18.671875 9.117187 30.375 6.039062-3.8125-1.21875-7.238281-3.222656-10.078125-6.039062-11.328125-11.238282-9.578125-31.722656 3.125-48.667969zm0 0" fill="#f66"/><path d="m192.417969 155.820312c-2.277344-3.433593-4.976563-6.757812-8.113281-9.867187-18.058594-17.914063-43.191407-22.019531-56.144532-9.175781-12.949218 12.84375-8.804687 37.78125 9.25 55.691406 2.734375 2.707031 5.628906 5.082031 8.617188 7.144531 4.054687-22.96875 22.867187-40.886719 46.390625-43.792969zm0 0" fill="#ff99a3"/><path d="m154.675781 178.621094c-14.066406-16.21875-17.554687-36.773438-8.394531-49.273438-7.039062.324219-13.394531 2.742188-18.121094 7.433594-12.949218 12.84375-8.804687 37.777344 9.25 55.6875 2.734375 2.707031 5.628906 5.082031 8.617188 7.144531 1.359375-7.683593 4.359375-14.808593 8.648437-20.992187zm0 0" fill="#f66"/><path d="m253.09375 208.894531c0 29.550781-24.15625 53.511719-53.941406 53.511719-29.796875 0-53.949219-23.960938-53.949219-53.511719 0-29.546875 24.152344-53.503906 53.949219-53.503906 29.785156 0 53.941406 23.957031 53.941406 53.503906zm0 0" fill="#fcf3eb"/><path d="m166.148438 208.894531c0-25.992187 18.695312-47.652343 43.472656-52.488281-3.386719-.660156-6.886719-1.015625-10.46875-1.015625-29.796875 0-53.949219 23.957031-53.949219 53.503906 0 29.550781 24.152344 53.511719 53.949219 53.511719 3.582031 0 7.082031-.355469 10.46875-1.019531-24.777344-4.835938-43.472656-26.496094-43.472656-52.492188zm0 0" fill="#e0e0e0"/><path d="m221.210938 208.894531c0-12.085937-9.878907-21.886719-22.0625-21.886719-12.1875 0-22.0625 9.800782-22.0625 21.886719 0 12.089844 9.875 21.886719 22.0625 21.886719 12.183593 0 22.0625-9.796875 22.0625-21.886719zm0 0" fill="#f66"/><path d="m194.148438 208.894531c0-9.085937 5.582031-16.875 13.53125-20.183593-2.625-1.09375-5.503907-1.699219-8.53125-1.699219-12.183594 0-22.0625 9.796875-22.0625 21.882812 0 12.089844 9.878906 21.886719 22.0625 21.886719 3.027343 0 5.90625-.601562 8.53125-1.695312-7.949219-3.3125-13.53125-11.101563-13.53125-20.191407zm0 0" fill="#fe3745"/><path d="m395.421875 247.117188c-4.527344-5.234376-9.652344-9.824219-15.222656-13.703126 3.613281-4.964843 5.75-11.0625 5.75-17.65625 0-12.105468-7.191407-22.558593-17.523438-27.328124 1.46875-7.25 1.984375-14.730469 1.4375-22.261719-.199219-2.824219-1.414062-5.484375-3.421875-7.492188-2-2.003906-4.65625-3.21875-7.480468-3.421875-1.980469-.144531-3.988282-.21875-5.96875-.21875-2.214844 0-4.410157.113282-6.59375.285156-.253907-.738281-.542969-1.464843-.871094-2.179687.492187-.324219.984375-.644531 1.464844-.984375l33.316406-23.527344c4.554687-3.226562 5.644531-9.566406 2.421875-14.140625-1.046875-1.480469-2.132813-2.878906-3.25-4.210937 3.832031-5.171875 6.910156-10.894532 8.988281-16.808594 1.621094-4.609375.289062-9.667969-3.421875-12.90625-.738281-.636719-1.542969-1.175781-2.359375-1.589844-1.871094-.960937-3.804688-1.820312-5.789062-2.582031 3.003906-10.269531 3.167968-20.992187.160156-30.832031-.648438-2.113282-1.871094-4-3.542969-5.460938-1.683594-1.46875-3.734375-2.433594-5.90625-2.773437-2.601563-.421875-5.277344-.636719-7.953125-.636719-7.765625 0-15.472656 1.734375-22.6875 4.976562-1.050781-1.921874-2.199219-3.785156-3.449219-5.578124-.550781-.789063-1.203125-1.515626-1.941406-2.164063-2.164063-1.882813-4.933594-2.921875-7.804687-2.921875-1.871094 0-3.742188.453125-5.417969 1.308594-6.199219 3.179687-12.015625 7.542968-16.960938 12.710937-1.859375-1.109375-3.8125-2.148437-5.882812-3.105469-1.347657-.621093-2.777344-.9375-4.257813-.9375-3.953125 0-7.574218 2.320313-9.214844 5.894532l-8.210937 17.796875c-1.273437-.816407-2.605469-1.59375-4.003906-2.304688 4.769531-13.496093 2.714843-26.792969-5.898438-35.335937-5.464843-5.425782-12.878906-8.292969-21.433593-8.292969-4.25 0-8.664063.730469-13.042969 2.136719-6.234375-12.898438-17.148438-20.871094-29.304688-20.871094-11.746093 0-22.449219 7.570312-28.773437 19.84375-4.738282-1.652344-9.53125-2.507812-14.148438-2.507812-8.558594 0-15.972656 2.867187-21.445312 8.296874-8.316406 8.25-10.507813 21.109376-6.257813 34.226563-3.8125 1.816406-7.183593 4.042969-10.0625 6.574219-1.652343-1.050782-3.601562-1.648438-5.625-1.648438-1.546875 0-3.101562.351563-4.496093 1.015625-2.335938 1.113281-4.535157 2.320313-6.621094 3.605469-.234375-.265625-.460938-.539062-.699219-.800781-6.007813-6.726563-13.351563-12.363281-21.238281-16.296875-1.710938-.851563-3.621094-1.300782-5.53125-1.300782-3.054688 0-5.992188 1.121094-8.265625 3.152344-.753907.675782-1.425781 1.441406-1.988281 2.265625-1.78125 2.613281-3.371094 5.355469-4.765626 8.210938-7.152343-2.800781-14.667968-4.285157-22.222656-4.285157-3.179687 0-6.355468.269532-9.402344.800782-2.289062.390625-4.421874 1.417968-6.179687 2.984375-1.71875 1.542969-2.972656 3.527343-3.628906 5.753906-2.984375 10.1875-2.902344 21.199219-.0625 31.832031-3.007813 1.066406-5.921875 2.332032-8.710938 3.804688-.894531.46875-1.730469 1.046875-2.5 1.730468-3.804687 3.402344-5.132812 8.703126-3.386719 13.503907 2.851563 7.816406 7.285157 15.3125 12.835938 21.796875-1.476562 1.746094-2.90625 3.597656-4.269531 5.578125-3.261719 4.746093-2.0625 11.273437 2.6875 14.558593l16.226562 11.175782c.269531 4.449218.886719 8.851562 1.859375 13.160156-12.226562 3.828125-21.125 15.253906-21.125 28.726562 0 6.589844 2.136719 12.691407 5.75 17.652344-5.574218 3.882813-10.695312 8.472656-15.226562 13.707032-1.851563 2.144531-2.871094 4.878906-2.871094 7.710937 0 2.835937 1.023438 5.574219 2.871094 7.707031 5.292968 6.117188 11.4375 11.410156 18.261718 15.730469 3.503907 2.214844 8.132813 1.171875 10.347657-2.328125 2.214843-3.5 1.175781-8.132812-2.324219-10.347656-4.785156-3.027344-9.160156-6.640625-13.042969-10.765625 12.722657-13.519531 30.480469-21.21875 49.160157-21.21875 14.882812 0 29.167968 4.898437 40.796874 13.71875l-49.441406.003906c-4.140625 0-7.5 3.355469-7.5 7.5 0 4.140625 3.359375 7.5 7.5 7.5l49.441406-.003906c-11.632812 8.824219-25.917968 13.722656-40.796874 13.722656-1.832032 0-3.6875-.074219-5.519532-.222656-4.128906-.34375-7.746094 2.738281-8.082031 6.867187-.335937 4.125 2.738281 7.746094 6.867187 8.082032 2.234376.179687 4.5.273437 6.734376.273437h.003906c5.804687 0 11.53125-.628906 17.109375-1.8125l58.257812 73.542969c-7.304687.332031-12.546875 6.183594-12.546875 14.179687v52.671875c0 8.234375 5.546875 14.210938 13.191406 14.210938 2.160157 0 4.347657-.492188 6.5-1.457032l17.253907-7.738281-3.726563 10.929688c-1.335937 3.921875.757813 8.183593 4.675782 9.523437 3.925781 1.335938 8.183593-.757812 9.523437-4.679687l5.804687-17.023438-8.640624 63.605469h-13.046876l4.289063-12.578125c1.335937-3.921875-.757813-8.183594-4.679687-9.519531-3.921876-1.339844-8.183594.757812-9.519532 4.675781l-6.058594 17.769531c-1.214843 3.558594-.730468 7.25 1.328126 10.125 2.058593 2.878906 5.394531 4.527344 9.15625 4.527344h91.03125c3.761718 0 7.097656-1.648438 9.15625-4.527344 2.058593-2.875 2.542968-6.566406 1.328124-10.125l-21.195312-62.15625 16.035156 7.191406c2.15625.96875 4.34375 1.457032 6.5 1.457032 3.835938 0 7.300782-1.550782 9.75-4.363282 2.253906-2.582031 3.441406-5.988281 3.441406-9.84375v-52.671874c0-7.757813-4.921874-13.503907-11.886718-14.148438l57.703125-73.535156c5.542969 1.164062 11.238281 1.773437 17.007812 1.773437h.003907c23.984374 0 46.726562-10.394531 62.390624-28.503906 1.859376-2.140625 2.878907-4.882813 2.878907-7.71875.003906-2.828125-1.015625-5.566406-2.871094-7.710937zm-31.394531-44.011719c4.15625 2.6875 6.921875 7.34375 6.921875 12.652343 0 3.914063-1.507813 7.472657-3.960938 10.152344-4.246093-1.914062-8.652343-3.464844-13.179687-4.640625 4.183594-5.628906 7.609375-11.738281 10.21875-18.164062zm-8.980469-33.039063c.550781 18.035156-6.164063 35.523438-18.660156 48.613282-1.121094-.042969-2.242188-.074219-3.367188-.074219-6.078125 0-12.070312.6875-17.890625 1.980469l16.574219-16.570313c2.929687-2.929687 2.929687-7.675781 0-10.605469-2.929687-2.929687-7.679687-2.929687-10.605469-.003906l-13.066406 13.066406c-.570312-4.984375-2.3125-9.75-5.136719-14.128906.773438-.859375 1.558594-1.703125 2.378907-2.523438 13.246093-13.242187 30.957031-20.320312 49.773437-19.753906zm-16.707031-30.164062c-.84375.59375-1.703125 1.148437-2.582032 1.667968-1.039062-.75-2.136718-1.453124-3.285156-2.113281 3.445313-10.761719 1.636719-21.351562-5.242187-28.355469-.257813-.261718-.519531-.511718-.789063-.761718 6.890625-2.277344 13.304688-3.171875 19.164063-2.636719 8.597656.785156 15.796875 4.597656 21.886719 11.613281zm24.902344-88.03125c1.625 6.683594 1.25 13.902344-.902344 20.894531-4.136719-.523437-8.347656-.652344-12.554688-.367187-1.726562.117187-3.445312.300781-5.15625.554687.019532-1.722656-.027344-3.449219-.148437-5.175781-.28125-4.125-.949219-8.167969-1.96875-12.078125 6.667969-3.125 13.835937-4.535157 20.730469-3.828125zm-40.496094-4.859375c3.902344 6.414062 6.234375 13.886719 6.769531 21.785156.285156 4.195313.046875 8.394531-.710937 12.46875-.480469 2.605469.445312 5.273437 2.441406 7.019531 1.996094 1.742188 4.765625 2.304688 7.28125 1.472656 3.957031-1.304687 8.085937-2.109374 12.273437-2.394531 7.832031-.53125 15.621094.769531 22.5 3.757813-1.324219 3.144531-3.023437 6.1875-5.015625 9.046875-6.355468-4.199219-13.476562-6.6875-21.320312-7.402344-6.910156-.628906-14.234375.167969-21.910156 2.335937.742187-7.9375.183593-15.277343-1.691407-21.972656-2.007812-7.140625-5.4375-13.363281-10.238281-18.648437 2.914062-2.890625 6.167969-5.421875 9.621094-7.46875zm-29.222656 10.765625c8.007812 4.714844 13.066406 11.097656 15.398437 19.402344 1.945313 6.949218 1.949219 15.066406.039063 24.25-1.796876.894531-3.609376 1.867187-5.4375 2.894531-1.207032.199219-2.414063.445312-3.625.773437-2.601563-5.078125-6.113282-9.1875-10.199219-12.035156.054687-.699219.089843-1.402344.089843-2.109375 0-5.378906-1.632812-10.527344-4.585937-15.144531zm-17.546876 45.816406c5.199219.070312 10.214844 5.378906 12.488282 13.214844.617187 2.140625 2.15625 3.890625 4.199218 4.785156 2.039063.890625 4.371094.832031 6.363282-.167969 3.359375-1.683593 6.78125-2.574219 9.894531-2.574219 2.230469 0 5.367187.480469 7.605469 2.761719 3.652344 3.71875 3.484375 10.96875-.421875 18.039063-1.074219 1.949218-1.226563 4.277344-.417969 6.355468.808594 2.074219 2.5 3.679688 4.613281 4.386719 4.953125 1.648438 8.804688 4.429688 10.828125 7.585938-13.648437 3.734375-26.171875 10.945312-36.457031 21.230469-.734375.734374-1.449219 1.484374-2.152344 2.242187-.320312-.238281-.632812-.484375-.960937-.71875-2.515625-1.789063-5.238282-3.367187-8.113282-4.738281 2.246094-5.917969 3.453126-11.980469 3.453126-17.917969 0-9.96875-3.375-18.585937-9.757813-24.917969-6.371094-6.316406-15.027344-9.65625-25.039063-9.65625-5.578124 0-11.265624 1.039063-16.847656 2.988282-.679687-1.488282-1.394531-2.945313-2.1875-4.347657.433594-1.0625 1.03125-1.996093 1.804688-2.753906 2.128906-2.085937 5.0625-2.527344 7.148437-2.527344 3.363281 0 7.21875 1.121094 10.859375 3.148438 1.957032 1.089843 4.300782 1.25 6.386719.433593 2.089844-.820312 3.699219-2.527343 4.394531-4.660156 2.378906-7.292968 7.285156-12.191406 12.207032-12.191406zm-76.824218 151.308594c-25.613282 0-46.449219-20.636719-46.449219-46.007813 0-25.367187 20.835937-46.003906 46.449219-46.003906 25.605468 0 46.441406 20.636719 46.441406 46.003906 0 25.371094-20.835938 46.007813-46.441406 46.007813zm19.757812 30.667968c-4.6875 9.957032-12.421875 16.609376-20.976562 16.609376-8.824219 0-16.773438-7.078126-21.410156-17.558594 3.984374-2.589844 7.800781-5.648438 11.34375-9.164063 1.875-1.859375 3.628906-3.816406 5.269531-5.851562 1.980469.195312 3.984375.296875 6.015625.296875 1.046875 0 2.09375-.027344 3.128906-.078125 1.957031 2.570312 4.101562 5.03125 6.429688 7.335937 3.199218 3.179688 6.628906 5.988282 10.199218 8.410156zm-77.820312-56.738281c5.855468 16.761719 18.871094 30.214844 35.398437 36.753907-9.011719 8.589843-20.257812 13.703124-30.289062 13.703124-4.164063 0-10.054688-.921874-14.476563-5.304687-4.398437-4.363281-5.324218-10.171875-5.324218-14.269531 0-10.21875 5.449218-21.71875 14.574218-30.769532.039063-.039062.078125-.078124.117188-.113281zm-12.96875-72.457031c0-4.101562.921875-9.90625 5.320312-14.269531 4.421875-4.386719 10.316406-5.304688 14.480469-5.304688 10.332031 0 21.957031 5.410157 31.09375 14.472657-16.875 5.828124-30.417969 18.761718-36.984375 35.183593-8.71875-8.941406-13.910156-20.121093-13.910156-30.082031zm72.246094-40.761719c8.820312 0 16.769531 7.078125 21.40625 17.558594-3.984376 2.589844-7.800782 5.648437-11.34375 9.164063-1.875 1.859374-3.628907 3.816406-5.269532 5.847656-1.976562-.191406-3.980468-.292969-6.007812-.292969-1.050782 0-2.097656.023437-3.136719.078125-1.953125-2.570312-4.101563-5.03125-6.425781-7.339844-3.203125-3.175781-6.632813-5.980468-10.203125-8.40625 4.6875-9.957031 12.425781-16.609375 20.980469-16.609375zm-19.582032-25.644531c0-10.007812 8.238282-18.152344 18.363282-18.152344s18.359374 8.144532 18.359374 18.152344c0 5.019531-2.074218 9.570312-5.417968 12.859375-3.742188-1.449219-7.679688-2.214844-11.726563-2.214844-4.648437 0-9.152343 1.007813-13.382812 2.910157-3.789063-3.328126-6.195313-8.164063-6.195313-13.554688zm41.027344 62.238281c9.007812-8.589843 20.253906-13.699219 30.285156-13.699219 4.164063 0 10.054688.921876 14.476563 5.304688 4.398437 4.363281 5.320312 10.167969 5.320312 14.269531 0 10.214844-5.445312 21.71875-14.574219 30.769531-.035156.039063-.078124.074219-.113281.109376-5.855469-16.761719-18.867187-30.214844-35.394531-36.753907zm34.457031 79.128907c8.714844 8.941406 13.90625 20.121093 13.90625 30.082031 0 4.101562-.921875 9.90625-5.324219 14.269531-4.417968 4.382812-10.308593 5.304688-14.46875 5.304688h-.003906c-10.332031 0-21.957031-5.410157-31.09375-14.46875 16.871094-5.828126 30.414063-18.765626 36.984375-35.1875zm9.898438-11.335938c-1.867188-1.851562-3.828125-3.582031-5.867188-5.199219.1875-1.945312.292969-3.914062.292969-5.90625 0-1.019531-.027344-2.035156-.078125-3.042969 2.582031-1.929687 5.054687-4.054687 7.371094-6.355468 3.222656-3.195313 6.066406-6.617188 8.523437-10.1875 10.097656 4.636718 16.84375 12.308594 16.84375 20.792968 0 8.753907-7.179687 16.632813-17.800781 21.21875-2.621094-3.976562-5.722656-7.785156-9.285156-11.320312zm-124.644531-148.707031c2.152343-.632813 3.910156-2.191407 4.789062-4.253907s.789062-4.410156-.246094-6.398437c-5.019531-9.65625-4.910156-19.214844.273438-24.359375 3.289062-3.261719 7.730468-3.945312 10.882812-3.945312 4.621094 0 9.660156 1.398437 14.574219 4.046874 1.960937 1.054688 4.285156 1.183594 6.355469.351563 2.066406-.832031 3.65625-2.539063 4.335937-4.65625 3.34375-10.375 10.273438-17.078125 17.65625-17.078125 7.515625 0 14.707031 7.179688 17.898438 17.863281.636719 2.136719 2.191406 3.875 4.238281 4.753907 2.046875.875 4.382812.792968 6.363281-.222657 4.679688-2.390625 9.464844-3.660156 13.84375-3.660156 3.148438 0 7.589844.6875 10.871094 3.941406 5.28125 5.238281 5.238281 15.320313-.109375 25.085938-1.078125 1.964843-1.21875 4.3125-.382812 6.394531.832031 2.082031 2.558593 3.679688 4.695312 4.355469 9.347656 2.964843 15.726562 8.746093 16.984375 15.132812-8.804687.511719-16.789063 6.09375-21.851563 14.984375-3.578124-1.164062-7.179687-1.761718-10.675781-1.761718-5 0-9.527343 1.222656-13.367187 3.53125 2.453125-4.613282 3.855468-9.859376 3.855468-15.429688 0-18.28125-14.96875-33.152344-33.359374-33.152344-18.394532 0-33.363282 14.871094-33.363282 33.152344 0 8.6875 3.390625 16.597656 8.914063 22.511719-1.347657 1.441406-2.640625 2.992187-3.859375 4.671875-1.8125 2.511718-3.410156 5.230468-4.800782 8.101562-5.988281-2.25-12.117187-3.457031-18.121093-3.457031-1.75 0-3.457031.109375-5.121094.3125.597656-1.636719 1.347656-3.292969 2.25-4.9375 1.074219-1.96875 1.214844-4.3125.378906-6.394531-.832031-2.082032-2.558593-3.679688-4.695312-4.355469-10.464844-3.316406-17.226563-10.164063-17.226563-17.441406 0-7.414063 7.242188-14.519531 18.019532-17.6875zm-48.082032 33.21875c2.410156-8.984375 7.589844-16.050781 15.738282-21.449219-.433594 1.929688-.675782 3.90625-.675782 5.917969 0 11.679687 7.617188 22.3125 19.96875 28.59375-1.324218 3.75-2.105468 7.484375-2.378906 11.105469-1.125.851562-2.199219 1.769531-3.210938 2.773437-3.789062 3.757813-6.503906 8.320313-8.097656 13.488281-2.042968-1.417968-4.207031-2.855468-6.492187-4.296875-4.925781-3.097656-9.757813-5.769531-14.492188-8.039062-2.390625-10.613281-2.519531-20.019531-.359375-28.09375zm-60.679687-28.820313c1.71875-.226562 3.476562-.339844 5.242187-.339844 5.730469 0 11.554688 1.21875 17.136719 3.472657-1.007813 4.183593-1.652344 8.492187-1.898437 12.882812-.128907 2.28125-.148438 4.558594-.0625 6.832031-2.25-.339843-4.519532-.578124-6.800782-.703124-4.382812-.246094-8.753906-.085938-13.042968.453124-2.109376-7.585937-2.371094-15.363281-.574219-22.597656zm12.773437 37.117188c4.785156.269531 9.507813 1.132812 14.035156 2.566406 2.527344.804688 5.289063.210938 7.265626-1.558594 1.976562-1.765625 2.871093-4.445312 2.355468-7.042968-.917968-4.644532-1.246094-9.429688-.972656-14.222657.523438-9.335937 3.25-18.183593 7.914062-25.742187 5.421876 3.011718 10.46875 7.050781 14.695313 11.789062.070313.074219.132813.152344.199219.226563-5.769532 6.125-9.820313 13.402343-12.074219 21.804687-2.089844 7.808594-2.558594 16.398438-1.433594 25.703125-9.011719-2.585937-17.578125-3.496093-25.605469-2.671875-8.835937.910156-16.816406 3.847656-23.890624 8.753906-3.730469-4.429687-6.792969-9.425781-8.960938-14.640624 8-3.757813 17.167969-5.492188 26.472656-4.964844zm-17.765625 40.203125c7.035157-8.648438 15.472657-13.378907 25.679688-14.429688 13.320312-1.367187 29.148437 3.625 46.855469 14.757813 5.132812 3.230468 9.625 6.484375 13.25 9.296875.457031 3.359375 1.285156 6.726562 2.4375 10.0625-.292969.261719-.585938.523437-.886719.777343-2.433594 1.144532-4.761719 2.433594-6.945313 3.878907-.4375-.457031-.851562-.929688-1.300781-1.378907-15.59375-15.589843-36.304687-24.171874-58.320313-24.171874-1.980468 0-3.988281.070312-5.976562.214843-2.820312.207031-5.476562 1.421875-7.472656 3.417969-.515625.511719-.976563 1.074219-1.382813 1.664062zm3.539063 72.898437c-2.453125-2.679687-3.960938-6.238281-3.960938-10.152344 0-6.8125 4.539063-12.582031 10.75-14.453124 2.878906 6.714843 6.648438 13.0625 11.25 18.851562-6.234375 1.226562-12.285156 3.160156-18.039062 5.753906zm38.519531-25.128906 22.332031 22.332031c-7.582031-2.609375-15.566406-4.121093-23.730468-4.429687-.746094-.679688-1.480469-1.371094-2.195313-2.089844-13.207031-13.199219-20.316406-31.195312-19.753906-49.757812 18.820312-.558594 36.53125 6.511718 49.773437 19.75.296875.296874.585938.601562.875.90625-3.085937 4.035156-5.199218 8.453124-6.269531 13.109374l-10.425781-10.425781c-2.929688-2.929687-7.679688-2.929687-10.609375 0-2.925781 2.929688-2.925781 7.679688.003906 10.605469zm35.214844 6.910156c0-8.753906 7.179687-16.636718 17.804687-21.21875 2.621094 3.976563 5.722656 7.785156 9.285156 11.320313 1.863282 1.847656 3.828126 3.582031 5.863282 5.199219-.1875 1.941406-.292969 3.910156-.292969 5.902343 0 1.019531.03125 2.035157.078125 3.042969-2.578125 1.933594-5.050781 4.054688-7.371094 6.355469-3.238281 3.210937-6.089844 6.652343-8.554687 10.234375-2.296875-1.058594-4.449219-2.292969-6.421875-3.691406-6.699219-4.765626-10.390625-10.855469-10.390625-17.144532zm-7.347657 76.714844c5.917969-2.527344 11.535157-5.734375 16.730469-9.589844 1.621094 3.675782 3.871094 6.976563 6.734375 9.816406 6.367188 6.316407 15.023438 9.652344 25.035156 9.652344 1.300782 0 2.609376-.058594 3.917969-.171875l26.152344 82.863281-8.128906-3.644531zm78.636719 128.742188-33.234375 14.902343v-49.507812l33.234375 14.898437c-1.324219 3.023438-2.066406 6.355469-2.066406 9.855469s.742187 6.832031 2.066406 9.851563zm11.484375 83.851562 9.378906-69.050781c.648438.050781 1.296876.082031 1.953126.082031.792968 0 1.582031-.039062 2.359374-.113281l9.382813 69.082031zm1.449219-93.703125c0-5.371094 4.433594-9.738281 9.882813-9.738281 5.449218 0 9.878906 4.367187 9.878906 9.738281 0 5.367187-4.429688 9.734375-9.878906 9.734375-5.449219 0-9.882813-4.367188-9.882813-9.734375zm50.433594 93.703125h-13.671875l-9.050782-66.636719zm15.5-68.949219-33.234375-14.902343c1.324218-3.019532 2.0625-6.351563 2.0625-9.851563 0-3.503906-.738282-6.832031-2.0625-9.855469l33.234375-14.898437zm-23.753907-55.296875-9.042968 4.054688 4.867187-15.570313c1.238281-3.957031-.964843-8.160156-4.921875-9.398437-3.949218-1.234375-8.160156.96875-9.394531 4.921875l-7.101563 22.714843c-2.136718-.59375-4.382812-.917968-6.707031-.917968-2.207031 0-4.347656.289062-6.386719.828125l-25.285156-80.117188c.308594.457031.613282.921875.933594 1.367188 7.710938 10.667969 18.195312 16.539062 29.523438 16.539062 11.328124 0 21.8125-5.871093 29.523437-16.539062 1.816406-2.507813 3.414063-5.226563 4.804687-8.101563.230469.085938.460938.164063.695313.246094l-9.371094 29.980469c-1.238281 3.953125.964844 8.160156 4.917969 9.394531 3.957031 1.238281 8.160156-.964844 9.398438-4.917969l9.792968-31.332031c.898438.050781 1.792969.085938 2.683594.085938h.003906c10.011719 0 18.667969-3.339844 25.035156-9.652344 3.449219-3.425782 6.011719-7.515625 7.648438-12.125 5.453125 4.148437 11.390625 7.582031 17.660156 10.25zm101.578126-96.703125h-.003907c-14.875 0-29.15625-4.898437-40.792969-13.722656h49.4375c4.144532 0 7.5-3.355469 7.5-7.5 0-4.140625-3.355468-7.5-7.5-7.5h-49.441406c11.632813-8.820313 25.917969-13.722656 40.796875-13.722656 18.679688 0 36.441407 7.703125 49.160157 21.222656-12.722657 13.519531-30.480469 21.222656-49.15625 21.222656zm0 0"/><path d="m199.148438 179.511719c-16.300782 0-29.5625 13.179687-29.5625 29.382812 0 16.207031 13.261718 29.386719 29.5625 29.386719 16.300781 0 29.566406-13.179688 29.566406-29.386719 0-16.203125-13.265625-29.382812-29.566406-29.382812zm0 43.769531c-8.03125 0-14.5625-6.453125-14.5625-14.386719 0-7.929687 6.53125-14.382812 14.5625-14.382812s14.566406 6.453125 14.566406 14.382812c0 7.933594-6.535156 14.386719-14.566406 14.386719zm0 0"/></svg>