<svg id="Capa_1" enable-background="new 0 0 509.748 509.748" height="512" viewBox="0 0 509.748 509.748" width="512" xmlns="http://www.w3.org/2000/svg"><g><g><path d="m274.287 485.9 77.326-299.052h-193.48l77.326 299.052c5.636 21.797 33.191 21.797 38.828 0l77.326-299.052h-193.48l77.326 299.052c5.636 21.797 33.191 21.797 38.828 0z" fill="#fbedce"/></g><g><path d="m321.612 186.848-77.326 299.052c-.933 3.61-2.477 6.609-4.414 9.023 9.757 12.163 29.711 9.164 34.414-9.023l77.326-299.052z" fill="#efe1c4"/></g><g><path d="m358.269 181.156c.759-5.078 1.17-10.271 1.17-15.561 0-57.751-46.816-104.567-104.567-104.567s-104.567 46.816-104.567 104.567c0 5.29.411 10.482 1.17 15.561-11.474 2.927-19.958 13.33-19.958 25.715 0 14.657 11.882 26.539 26.539 26.539 10.778 0 20.049-6.429 24.204-15.658 4.156 9.229 13.426 15.658 24.204 15.658s20.049-6.429 24.204-15.658c4.155 9.229 13.426 15.658 24.204 15.658s20.049-6.429 24.204-15.658c4.155 9.229 13.426 15.658 24.204 15.658s20.049-6.429 24.204-15.658c4.156 9.229 13.426 15.658 24.204 15.658 14.657 0 26.539-11.882 26.539-26.539.001-12.385-8.484-22.788-19.958-25.715z" fill="#ffe06f"/></g><g><path d="m358.269 181.156c.759-5.078 1.17-10.271 1.17-15.561 0-57.751-46.816-104.567-104.567-104.567-5.094 0-10.101.372-15 1.076 50.643 7.276 89.567 50.835 89.567 103.491v.159c-.013 8.148 3.578 15.77 9.712 21.133 5.563 4.864 9.077 12.014 9.077 19.984 0 9.085-4.567 17.1-11.528 21.883 4.836 3.322 10.818 5.095 17.245 4.561 12.398-1.031 22.597-10.798 24.084-23.149 1.662-13.801-7.281-25.827-19.76-29.01z" fill="#ffd05c"/></g><g><path d="m358.269 127.627c.759-5.078 1.17-10.271 1.17-15.561 0-57.75-46.816-104.566-104.566-104.566-57.751 0-104.567 46.816-104.567 104.567 0 5.29.411 10.482 1.17 15.561-11.474 2.927-19.958 13.33-19.958 25.715 0 14.657 11.882 26.539 26.539 26.539 10.778 0 20.049-6.429 24.204-15.658 4.156 9.229 13.426 15.658 24.204 15.658s20.049-6.429 24.204-15.658c4.155 9.229 13.426 15.658 24.204 15.658s20.049-6.429 24.204-15.658c4.155 9.229 13.426 15.658 24.204 15.658s20.049-6.429 24.204-15.658c4.156 9.229 13.426 15.658 24.204 15.658 14.657 0 26.539-11.882 26.539-26.539 0-12.386-8.485-22.788-19.959-25.716z" fill="#ffc1c7"/></g><g><path d="m358.269 127.627c.759-5.078 1.17-10.271 1.17-15.56.001-57.751-46.816-104.567-104.566-104.567-5.094 0-10.101.372-15 1.075 50.643 7.276 89.567 50.835 89.567 103.491v.159c-.013 8.148 3.578 15.77 9.712 21.133 5.563 4.864 9.077 12.014 9.077 19.984 0 9.085-4.567 17.1-11.528 21.883 4.836 3.322 10.819 5.096 17.246 4.561 12.397-1.031 22.596-10.799 24.082-23.151 1.661-13.8-7.282-25.824-19.76-29.008z" fill="#ffb3ba"/></g><g><circle cx="217.271" cy="96.641" r="7.5"/><circle cx="293.319" cy="61.028" r="7.5"/><circle cx="300.819" cy="123.932" r="7.5"/><path d="m373.218 179.686c7.63-6.247 12.51-15.735 12.51-26.343 0-13.294-7.673-25.124-19.296-30.694.338-3.545.508-7.085.508-10.582 0-61.794-50.273-112.067-112.067-112.067-26.485 0-52.189 9.412-72.374 26.501-3.162 2.676-3.555 7.409-.878 10.57 2.676 3.161 7.408 3.555 10.569.878 17.481-14.799 39.743-22.949 62.683-22.949 53.522 0 97.066 43.544 97.066 97.067 0 4.76-.366 9.622-1.088 14.452-.568 3.806 1.835 7.424 5.564 8.376 8.427 2.15 14.313 9.736 14.313 18.448 0 10.498-8.54 19.038-19.038 19.038-7.476 0-14.292-4.411-17.365-11.237-1.211-2.69-3.888-4.421-6.839-4.421s-5.628 1.73-6.839 4.421c-3.073 6.827-9.89 11.237-17.365 11.237-7.476 0-14.292-4.411-17.365-11.237-1.212-2.69-3.888-4.421-6.839-4.421-2.95 0-5.627 1.73-6.839 4.421-3.074 6.827-9.891 11.238-17.365 11.238-7.476 0-14.292-4.411-17.365-11.237-1.212-2.69-3.888-4.421-6.839-4.421-2.95 0-5.627 1.73-6.839 4.421-3.074 6.827-9.891 11.238-17.366 11.238s-14.291-4.411-17.364-11.237c-1.212-2.69-3.888-4.421-6.839-4.421-2.95 0-5.627 1.73-6.839 4.421-3.074 6.827-9.891 11.238-17.365 11.238-10.498 0-19.039-8.54-19.039-19.038 0-8.712 5.886-16.298 14.313-18.448 3.729-.951 6.132-4.57 5.563-8.376-.722-4.83-1.088-9.692-1.088-14.452 0-18.174 5.052-35.892 14.608-51.238 2.189-3.516 1.114-8.142-2.401-10.331-3.512-2.188-8.142-1.115-10.331 2.401-11.04 17.728-16.876 38.188-16.876 59.168 0 3.497.17 7.037.508 10.582-11.623 5.57-19.296 17.4-19.296 30.694 0 10.547 4.822 19.988 12.377 26.236-8.305 7.272-13.264 18.676-12.244 30.335 1.494 17.084 15.57 30.4 32.742 30.976 2.492.085 4.945-.106 7.328-.542l63.978 247.43c3.45 13.346 13.921 21.97 26.674 21.97 12.754 0 23.225-8.624 26.675-21.97l5.892-22.783c1.037-4.01-1.373-8.102-5.383-9.139-4.016-1.036-8.103 1.374-9.139 5.383l-5.892 22.783c-2.045 7.908-7.618 10.725-12.153 10.725-4.534 0-10.107-2.817-12.152-10.725l-7.766-30.034 53.731-53.731-8.038 31.085c-1.037 4.01 1.373 8.102 5.383 9.139.63.163 1.262.241 1.883.241 3.337 0 6.382-2.244 7.256-5.625l50.356-194.748c2.382.435 4.834.625 7.327.541 17.171-.575 31.247-13.891 32.743-30.974 1.031-11.803-3.916-23.068-12.379-30.233zm-142.622 257.447-14.786-57.182 105.371-105.371-9.001 34.81c-.092.083-.187.161-.276.25l-32.778 32.778c-2.929 2.929-2.929 7.678 0 10.606 1.465 1.464 3.385 2.197 5.304 2.197s3.839-.732 5.304-2.197l15.058-15.058-8.708 33.68zm97.904-190.857c-.427.279-.833.605-1.208.98l-115.84 115.84-4.892-18.921 32.404-32.405c2.929-2.929 2.929-7.678 0-10.606-2.93-2.929-7.678-2.929-10.607 0l-26.155 26.155-24.039-92.968c1.459-1.068 2.837-2.25 4.114-3.545 6.289 6.345 14.956 10.104 24.188 10.104 9.024 0 17.581-3.777 24.039-10.289 1.401 1.435 2.928 2.732 4.55 3.895l-26.369 26.369c-2.929 2.929-2.929 7.678 0 10.606 1.465 1.464 3.385 2.197 5.304 2.197s3.839-.732 5.304-2.197l30.913-30.913c1.535.214 3.092.332 4.669.332 9.239 0 17.913-3.766 24.204-10.121 6.29 6.355 14.965 10.121 24.204 10.121 9.231 0 17.899-3.759 24.188-10.104 1.277 1.296 2.655 2.478 4.114 3.546zm42.151-37.668c-.821 9.379-8.86 16.974-18.302 17.291-7.76.27-14.838-4.146-18.025-11.226-1.211-2.691-3.888-4.421-6.839-4.421-2.95 0-5.627 1.73-6.839 4.421-3.073 6.826-9.89 11.237-17.365 11.237-7.476 0-14.292-4.411-17.365-11.237-1.212-2.69-3.888-4.421-6.839-4.421-2.95 0-5.627 1.73-6.839 4.42-3.074 6.827-9.891 11.238-17.365 11.238-7.476 0-14.292-4.411-17.365-11.237-1.182-2.624-3.762-4.341-6.639-4.418-2.869-.062-5.544 1.499-6.865 4.058-3.748 7.262-10.305 11.598-17.54 11.598-7.475 0-14.291-4.411-17.364-11.237-1.212-2.69-3.888-4.421-6.839-4.421-2.95 0-5.627 1.73-6.839 4.42-3.189 7.08-10.264 11.483-18.027 11.227-9.441-.317-17.48-7.912-18.301-17.291-.844-9.64 5.461-19.267 14.054-21.459.099-.025.191-.06.288-.089 1.512.206 3.053.322 4.621.322 9.239 0 17.913-3.766 24.204-10.121 6.289 6.355 14.964 10.121 24.203 10.121s17.914-3.766 24.205-10.121c6.29 6.355 14.965 10.121 24.204 10.121s17.913-3.766 24.204-10.121c6.29 6.355 14.965 10.121 24.204 10.121s17.914-3.766 24.204-10.12c6.29 6.354 14.965 10.12 24.204 10.12 1.316 0 2.613-.083 3.89-.229.271.104.548.197.836.271 8.826 2.25 15.079 11.555 14.236 21.183z"/></g></g></svg>