<svg id="icons" enable-background="new 0 0 64 64" height="512" viewBox="0 0 64 64" width="512" xmlns="http://www.w3.org/2000/svg"><path d="m10 59h44v2l-2 2-2-2-2 2-2-2-2 2-2-2-2 2-2-2-2 2-2-2-2 2-2-2-2 2-2-2-2 2-2-2-2 2-2-2-2 2-2-2-2 2-2-2z" fill="#ccd1d9"/><path d="m10 5h44v54h-44z" fill="#e6e9ed"/><path d="m54 5h-44v-2l2-2 2 2 2-2 2 2 2-2 2 2 2-2 2 2 2-2 2 2 2-2 2 2 2-2 2 2 2-2 2 2 2-2 2 2 2-2 2 2 2-2 2 2z" fill="#ccd1d9"/><path d="m27 22c0 .359-.061.7-.18 1.01-.41 1.16-1.519 1.99-2.82 1.99h-4c-1.311 0-2.42-.83-2.83-2-.109-.311-.17-.65-.17-1s.061-.689.17-1c.41-1.17 1.52-2 2.83-2h4c1.301 0 2.41.83 2.82 2 .119.311.18.65.18 1z" fill="#ed5565"/><path d="m30 39c0 1.3-.83 2.41-1.99 2.82-.31.12-.651.18-1.01.18-.35 0-.689-.06-1-.18-1.16-.4-2-1.511-2-2.82v-4c0-1.3.84-2.41 2-2.82.311-.12.65-.18 1-.18s.689.06 1 .18c1.17.41 2 1.521 2 2.82z" fill="#ed5565"/><path d="m20 39c0 1.3-.83 2.41-1.99 2.82-.31.12-.651.18-1.01.18-.35 0-.689-.06-1-.18-1.17-.4-2-1.511-2-2.82v-4c0-1.3.83-2.41 2-2.82.311-.12.65-.18 1-.18s.689.06 1 .18c1.17.41 2 1.521 2 2.82z" fill="#ed5565"/><path d="m26.82 11c.119.311.18.65.18 1s-.061.689-.18 1c-.41 1.17-1.52 2-2.82 2h-4c-1.311 0-2.42-.83-2.83-2-.109-.311-.17-.65-.17-1s.061-.689.17-1c.41-1.17 1.52-2 2.83-2h4c1.301 0 2.41.83 2.82 2z" fill="#ed5565"/><path d="m26.83 51c.109.31.17.65.17 1s-.061.69-.17 1c-.41 1.17-1.52 2-2.83 2h-4c-1.3 0-2.41-.83-2.82-1.99-.119-.31-.18-.65-.18-1.01 0-.35.061-.69.18-1 .41-1.17 1.521-2 2.82-2h4c1.311 0 2.42.83 2.83 2z" fill="#ed5565"/><path d="m46.83 31c.109.31.17.65.17 1s-.061.69-.17 1c-.41 1.17-1.52 2-2.83 2h-4c-1.3 0-2.41-.83-2.82-1.99-.119-.31-.18-.65-.18-1.01 0-.35.061-.69.18-1 .41-1.17 1.521-2 2.82-2h4c1.311 0 2.42.83 2.83 2z" fill="#ed5565"/><path d="m46.83 41c.109.31.17.65.17 1s-.061.69-.17 1c-.41 1.17-1.52 2-2.83 2h-4c-1.3 0-2.41-.83-2.82-1.99-.119-.31-.18-.65-.18-1.01 0-.35.061-.69.18-1 .41-1.16 1.521-2 2.82-2h4c1.311 0 2.41.84 2.83 2z" fill="#ed5565"/><path d="m46.83 51c.109.31.17.65.17 1s-.061.69-.17 1c-.41 1.17-1.52 2-2.83 2h-4c-1.3 0-2.41-.83-2.82-1.99-.119-.31-.18-.65-.18-1.01 0-.35.061-.69.18-1 .41-1.17 1.521-2 2.82-2h4c1.311 0 2.42.83 2.83 2z" fill="#ed5565"/><path d="m48.01 12.18c1.16.41 1.99 1.52 1.99 2.82v4c0 1.311-.83 2.42-2 2.82-.311.119-.65.18-1 .18s-.689-.061-1-.18c-1.17-.4-2-1.51-2-2.82v-4c0-1.311.83-2.42 2-2.82.311-.119.65-.18 1-.18.359 0 .7.061 1.01.18z" fill="#ed5565"/><g fill="#da4453"><path d="m17 12c0 .35.061.689.17 1l-3.17 2v-6l3.17 2c-.109.311-.17.65-.17 1z"/><path d="m17 22c0 .35.061.689.17 1l-3.17 2v-6l3.17 2c-.109.311-.17.65-.17 1z"/><path d="m47 42c0-.35-.061-.69-.17-1l3.17-2v6l-3.17-2c.109-.31.17-.65.17-1z"/><path d="m50 49v6l-3.17-2c.109-.31.17-.65.17-1s-.061-.69-.17-1z"/><path d="m27 12c0-.35-.061-.689-.18-1l3.18-2v6l-3.18-2c.119-.311.18-.65.18-1z"/><path d="m38 21.83 2 3.17h-6l1.99-3.17v-.01c.311.119.651.18 1.01.18.35 0 .689-.061 1-.18z"/><path d="m24 29h6l-2 3.18c-.311-.12-.65-.18-1-.18s-.689.06-1 .18z"/><path d="m27 22c0-.35-.061-.689-.18-1l3.18-2v6l-3.18-1.99c.119-.31.18-.651.18-1.01z"/><path d="m28.01 41.83 1.99 3.17h-6l2-3.17v-.01c.311.12.65.18 1 .18.359 0 .7-.06 1.01-.18z"/><path d="m17 52c0 .36.061.7.18 1.01l-3.18 1.99v-6l3.18 2c-.119.31-.18.65-.18 1z"/><path d="m27 52c0-.35-.061-.69-.17-1l3.17-2v6l-3.17-2c.109-.31.17-.65.17-1z"/><path d="m14 29h6l-2 3.18c-.311-.12-.65-.18-1-.18s-.689.06-1 .18z"/><path d="m18.01 41.83 1.99 3.17h-6l2-3.17v-.01c.311.12.65.18 1 .18.359 0 .7-.06 1.01-.18z"/><path d="m34 9h6l-2 3.18c-.311-.119-.65-.18-1-.18s-.689.061-1 .18z"/><path d="m37 42c0 .36.061.7.18 1.01l-3.18 1.99v-6l3.18 2c-.119.31-.18.65-.18 1z"/><path d="m37 32c0 .36.061.7.18 1.01l-3.18 1.99v-6l3.18 2c-.119.31-.18.65-.18 1z"/><path d="m37 52c0 .36.061.7.18 1.01l-3.18 1.99v-6l3.18 2c-.119.31-.18.65-.18 1z"/><path d="m48 21.83 2 3.17h-6l2-3.17v-.01c.311.119.65.18 1 .18s.689-.061 1-.18z"/><path d="m44 9h6l-1.99 3.18c-.31-.119-.651-.18-1.01-.18-.35 0-.689.061-1 .18z"/><path d="m47 32c0-.35-.061-.69-.17-1l3.17-2v6l-3.17-2c.109-.31.17-.65.17-1z"/></g><path d="m40 19c0 1.311-.83 2.42-2 2.82-.311.119-.65.18-1 .18-.359 0-.699-.061-1.01-.18-1.16-.41-1.99-1.52-1.99-2.82v-4c0-1.311.83-2.42 2-2.82.311-.119.65-.18 1-.18s.689.061 1 .18c1.17.4 2 1.51 2 2.82z" fill="#ed5565"/></svg>