<?xml version="1.0" encoding="iso-8859-1"?>
<!-- Generator: Adobe Illustrator 19.0.0, SVG Export Plug-In . SVG Version: 6.00 Build 0)  -->
<svg version="1.1" id="Capa_1" xmlns="http://www.w3.org/2000/svg" xmlns:xlink="http://www.w3.org/1999/xlink" x="0px" y="0px"
	 viewBox="0 0 468.295 468.295" style="enable-background:new 0 0 468.295 468.295;" xml:space="preserve">
<path style="fill:#D15241;" d="M438.704,81.281l-51.683-51.683l25.934-25.934c4.877-4.877,12.784-4.877,17.66,0l34.023,34.023
	c4.877,4.877,4.877,12.784,0,17.66L438.704,81.281z"/>
<path style="fill:#3A556A;" d="M4.568,466.459l-2.739-2.739c-2.438-2.438-2.438-6.392,0-8.83l24.731-24.731l11.569,11.569
	l-24.731,24.731C10.96,468.897,7.006,468.897,4.568,466.459z"/>
<polyline style="fill:#27A2DB;" points="46.234,344.927 21.918,434.083 34.204,446.37 123.361,422.054 "/>
<path style="fill:#E56353;" d="M440.741,104.688l-317.38,317.38l-77.128-77.127l317.38-317.38
	c10.653-10.653,26.175-12.388,34.707-3.857l46.277,46.277C453.13,78.514,451.394,94.035,440.741,104.688z"/>
<path style="fill:#F6C358;" d="M437.961,133.628l-90.214-90.214l-14.461,14.461l90.214,90.214c3.987,3.987,3.987,10.474,0,14.461
	L316.244,269.806c-3.994,3.994-3.992,10.469,0,14.461c3.992,3.992,10.467,3.994,14.461,0l107.255-107.255
	C449.923,165.05,449.923,145.589,437.961,133.628z"/>
<g>
	
		<rect x="185.761" y="221.166" transform="matrix(-0.7071 0.7071 -0.7071 -0.7071 523.7061 334.4815)" style="fill:#E1E6E9;" width="13.637" height="109.075"/>
	
		<rect x="161.471" y="245.474" transform="matrix(-0.7071 0.7071 -0.7071 -0.7071 499.4275 393.1533)" style="fill:#E1E6E9;" width="13.637" height="109.075"/>
	
		<rect x="137.13" y="269.84" transform="matrix(-0.7071 0.7071 -0.7071 -0.7071 475.1048 451.9597)" style="fill:#E1E6E9;" width="13.637" height="109.075"/>
</g>
<g>
</g>
<g>
</g>
<g>
</g>
<g>
</g>
<g>
</g>
<g>
</g>
<g>
</g>
<g>
</g>
<g>
</g>
<g>
</g>
<g>
</g>
<g>
</g>
<g>
</g>
<g>
</g>
<g>
</g>
</svg>
