<?xml version="1.0" encoding="iso-8859-1"?>
<!-- Generator: Adobe Illustrator 16.0.0, SVG Export Plug-In . SVG Version: 6.00 Build 0)  -->
<!DOCTYPE svg PUBLIC "-//W3C//DTD SVG 1.1//EN" "http://www.w3.org/Graphics/SVG/1.1/DTD/svg11.dtd">
<svg version="1.1" id="Capa_1" xmlns="http://www.w3.org/2000/svg" xmlns:xlink="http://www.w3.org/1999/xlink" x="0px" y="0px"
	 width="190.962px" height="190.962px" viewBox="0 0 190.962 190.962" style="enable-background:new 0 0 190.962 190.962;"
	 xml:space="preserve">
<g>
	<path d="M190.473,76.486c-0.066-0.402-0.262-0.71-0.409-1.056c0.554-2.369-0.317-5.198-2.538-6.231
		c-8.697-4.048-19.146-2.984-28.559-3.573c-16.598-1.038-33.182-2.276-49.781-3.275C77.405,60.44,42.247,58.27,11.251,67.2
		c-1.816,0.523-2.299,2.476-1.668,3.877c-4.181,4.4-4.595,10.918-5.573,16.899c-1.576,9.634-3.018,19.456-3.994,29.167
		c-0.225,2.241,1.879,3.654,3.89,3.66c0.849,0.999,2.158,1.668,3.959,1.662c3.083-0.013,6.166-0.026,9.249-0.048
		c29.268,1.849,58.385,5.494,87.677,7.137c15.959,0.895,31.937,1.105,47.891,0.074c9.644-0.623,22.316-0.835,30.709-6.443
		c2.42,0.766,5.449-0.545,5.728-3.985c0.593-7.319,0.769-14.671,1.071-22.007C190.473,90.324,191.596,83.286,190.473,76.486z
		 M13.982,95.968c0.134-0.532,0.306-1.094,0.469-1.646c0.42,0.694,1.007,1.286,1.746,1.748c-0.823,0.77-1.426,1.713-1.776,2.739
		c-0.385,0.002-0.769,0.009-1.154,0.011C13.504,97.868,13.744,96.915,13.982,95.968z M164.875,111.544
		c1.639,0.412,3.278,0.829,4.918,1.247c-2.287,0.409-4.578,0.896-6.861,1.368C163.678,113.35,164.316,112.471,164.875,111.544z"/>
</g>
<g>
</g>
<g>
</g>
<g>
</g>
<g>
</g>
<g>
</g>
<g>
</g>
<g>
</g>
<g>
</g>
<g>
</g>
<g>
</g>
<g>
</g>
<g>
</g>
<g>
</g>
<g>
</g>
<g>
</g>
</svg>
