<svg height="512" viewBox="0 0 74 74" width="512" xmlns="http://www.w3.org/2000/svg"><g id="color_line" data-name="color line"><path d="m56.23 65.54a6.85 6.85 0 0 1 -6.65 4.96h-18.85a6.838 6.838 0 0 1 -6.64-4.96c-1.09-4.05-1.14-6.5-.42-12.5h32.97c.73 5.998.67 8.45-.41 12.5z" fill="#95d6db"/><path d="m23.67 33.375h33v19.66h-33z" fill="#95d6db"/><g opacity=".4"><path d="m53.54 33.38h3.13v19.65h-3.13z" fill="#6eaaad"/></g><path d="m48.6 16.5h-16.933a.5.5 0 0 1 0-1h16.933a.5.5 0 0 1 0 1z" fill="#323c6b"/><rect fill="#9297ab" height="7.938" rx="1.521" width="20.934" x="29.667" y="4.448"/><path d="m49.08 12.885h-17.892a2.023 2.023 0 0 1 -2.021-2.021v-4.9a2.023 2.023 0 0 1 2.021-2.021h17.892a2.023 2.023 0 0 1 2.02 2.026v4.9a2.023 2.023 0 0 1 -2.02 2.016zm-17.892-7.937a1.022 1.022 0 0 0 -1.021 1.021v4.9a1.022 1.022 0 0 0 1.021 1.021h17.892a1.022 1.022 0 0 0 1.02-1.025v-4.9a1.022 1.022 0 0 0 -1.02-1.017z" fill="#323c6b"/><path d="m31.667 12.385h16.934v3.615h-16.934z" fill="#89c5cd"/><path d="m48.6 16.5h-16.933a.5.5 0 0 1 -.5-.5v-3.615a.5.5 0 0 1 .5-.5h16.933a.5.5 0 0 1 .5.5v3.615a.5.5 0 0 1 -.5.5zm-16.434-1h15.934v-2.615h-15.933z" fill="#323c6b"/><path d="m23.654 33.375c-1.645-11.082 2.439-15.485 8.013-17.375h16.933c5.574 1.89 9.658 6.293 8.013 17.375z" fill="#95d6db"/><g opacity=".4"><path d="m56.23 65.54a6.85 6.85 0 0 1 -6.65 4.96h-3.1a6.85 6.85 0 0 0 6.65-4.96c1.08-4.05 1.14-6.5.41-12.5h3.1c.73 6 .67 8.45-.41 12.5z" fill="#6eaaad"/></g><g opacity=".4"><path d="m56.61 33.38h-3.09c1.64-11.09-2.44-15.49-8.02-17.38h3.1c5.57 1.89 9.66 6.29 8.01 17.38z" fill="#6eaaad"/></g><g fill="#323c6b"><path d="m33.351 10.479a.5.5 0 0 1 -.5-.5v-3.1a.5.5 0 0 1 1 0v3.1a.5.5 0 0 1 -.5.5z"/><path d="m36.742 10.479a.5.5 0 0 1 -.5-.5v-3.1a.5.5 0 0 1 1 0v3.1a.5.5 0 0 1 -.5.5z"/><path d="m40.134 10.479a.5.5 0 0 1 -.5-.5v-3.1a.5.5 0 0 1 1 0v3.1a.5.5 0 0 1 -.5.5z"/><path d="m43.525 10.479a.5.5 0 0 1 -.5-.5v-3.1a.5.5 0 0 1 1 0v3.1a.5.5 0 0 1 -.5.5z"/><path d="m46.917 10.479a.5.5 0 0 1 -.5-.5v-3.1a.5.5 0 0 1 1 0v3.1a.5.5 0 0 1 -.5.5z"/><path d="m49.58 71h-18.85a7.33 7.33 0 0 1 -7.123-5.33c-1.088-4.041-1.173-6.532-.434-12.692a.5.5 0 0 1 .5-.44h32.967a.5.5 0 0 1 .5.439c.746 6.127.663 8.618-.422 12.692a7.339 7.339 0 0 1 -7.138 5.331zm-25.466-17.462c-.673 5.749-.575 8.033.458 11.873a6.331 6.331 0 0 0 6.158 4.589h18.85a6.339 6.339 0 0 0 6.168-4.59c1.019-3.825 1.118-6.218.448-11.872z"/><path d="m56.67 53.535h-33a.5.5 0 0 1 -.5-.5v-19.66a.5.5 0 0 1 .5-.5h33a.5.5 0 0 1 .5.5v19.66a.5.5 0 0 1 -.5.5zm-32.5-1h32v-18.66h-32z"/></g><path d="m27.292 41.305a.6.6 0 0 1 -.6-.6v-.771a.6.6 0 1 1 1.2 0v.771a.6.6 0 0 1 -.6.6z" fill="#fff"/><path d="m31.208 49.934h-3.916a.6.6 0 0 1 -.6-.6v-6.129a.6.6 0 1 1 1.2 0v5.528h3.316a.6.6 0 0 1 0 1.2z" fill="#fff"/><path d="m56.613 33.875h-32.959a.5.5 0 0 1 -.494-.427c-1.437-9.669 1.294-15.531 8.347-17.922a.5.5 0 0 1 .16-.026h16.933a.5.5 0 0 1 .16.026c7.052 2.391 9.782 8.253 8.347 17.922a.5.5 0 0 1 -.494.427zm-32.525-1h32.092c1.229-8.942-1.213-14.154-7.662-16.375h-16.768c-6.45 2.221-8.892 7.433-7.662 16.375z" fill="#323c6b"/></g></svg>