<svg id="Capa_1" enable-background="new 0 0 512 512" height="512" viewBox="0 0 512 512" width="512" xmlns="http://www.w3.org/2000/svg"><g><path d="m258.657 84.954c-72.5.026-136.134 112.469-136.164 199.13-.027 76.228 58.253 119.373 132.062 120.261s135.196-40.817 135.222-117.045c.031-89.973-58.62-202.372-131.12-202.346z" fill="#f1cd88"/><path d="m258.657 84.954c-9.454.003-18.754 1.934-27.785 5.454 93.724 28.454 140.665 112.562 140.665 196.893 0 67.326-70.315 107.714-137.818 115.619 6.777.86 13.733 1.341 20.836 1.426 73.808.888 135.196-40.817 135.222-117.045.031-89.974-58.62-202.373-131.12-202.347z" fill="#ebb34c"/><path d="m388.562 149.33c.509 2.95-.4 5.97-2.487 8.116l-14.514 14.916c-3.747 3.852-9.94 3.852-13.687 0l-22.539-23.171c-3.747-3.852-9.929-3.852-13.687 0l-22.539 23.171c-3.747 3.852-9.929 3.852-13.687 0l-22.539-23.171c-3.749-3.854-9.939-3.854-13.687 0l-22.539 23.171c-3.747 3.852-9.94 3.852-13.687 0l-22.55-23.171c-3.747-3.852-9.929-3.852-13.687 0l-22.539 23.171c-3.747 3.852-9.941 3.852-13.687 0l-15.592-16.016c-2.127-2.185-3.03-5.275-2.46-8.27 16.751-88.147 80.01-141.226 135.206-140.57 54.789.667 115.815 54.451 130.901 141.824z" fill="#f7f3f1"/><path d="m388.562 149.33c-15.086-87.372-76.112-141.157-130.901-141.824-5.777-.069-11.642.459-17.533 1.546 50.344 9.402 101.832 61.019 115.517 140.277.509 2.95-.4 5.97-2.487 8.116l-4.897 5.033 9.613 9.883c3.747 3.852 9.94 3.852 13.687 0l14.514-14.916c2.087-2.145 2.996-5.165 2.487-8.115z" fill="#ebe1dc"/><path d="m410.277 356.261c-1.048 86.847-71.293 149.261-156.998 148.226s-154.424-65.122-153.375-151.969c.122-9.891.727-19.491 1.779-28.791.67-5.922 7.885-8.432 12.042-4.162l11.434 11.745c4.247 4.366 11.267 4.366 15.514 0l25.547-26.264c4.26-4.366 11.267-4.366 15.514 0l25.56 26.264c4.247 4.366 11.267 4.366 15.514 0l25.547-26.264c4.249-4.368 11.265-4.368 15.514 0l25.547 26.264c4.26 4.366 11.267 4.366 15.514 0l25.547-26.264c4.26-4.366 11.267-4.366 15.514 0l25.547 26.264c4.247 4.366 11.267 4.366 15.514 0l9.902-10.176c4.187-4.303 11.486-1.725 12.056 4.252.95 9.965 1.39 20.261 1.267 30.875z" fill="#f7f3f1"/><path d="m409.01 325.387c-.57-5.977-7.869-8.555-12.056-4.252l-9.902 10.176c-2.76 2.837-6.688 3.818-10.268 2.968.455 7.168.663 14.491.576 21.981-.972 80.495-61.391 139.991-138.465 147.441 4.735.456 9.53.727 14.384.786 85.705 1.035 155.95-61.379 156.998-148.226.123-10.614-.317-20.91-1.267-30.874z" fill="#ebe1dc"/><path d="m233.375 248.844 15.293 20.397c3.666 4.889 10.999 4.889 14.664 0l15.293-20.397c1.719-2.292 1.488-5.523-.57-7.516-14.704-14.242-29.407-14.242-44.111 0-2.057 1.993-2.288 5.224-.569 7.516z" fill="#e27c48"/><path d="m444.945 224.682c-.593-12.057-13.721-19.259-24.295-13.438l-53.914 29.68 4.999 46.286c6.583 5.337 14.253 6.057 21.443 4.575 19.082-3.932 36.09-16.92 44.908-34.293 5.117-10.082 7.414-21.521 6.859-32.81z" fill="#f1cd88"/><path d="m444.945 224.682c-.332-6.74-4.582-11.96-10.112-14.239-.366 9.316-2.662 18.554-6.884 26.871-8.818 17.373-25.826 30.361-44.908 34.293-2.594.535-5.249.779-7.894.624-2.639-.155-4.812 2.022-4.528 4.65l1.116 10.33c6.583 5.337 14.253 6.057 21.443 4.575 19.082-3.932 36.09-16.92 44.908-34.293 5.117-10.083 7.414-21.522 6.859-32.811z" fill="#ebb34c"/><path d="m67.055 224.682c.593-12.057 13.721-19.259 24.295-13.438l53.914 29.68-4.999 46.286c-6.583 5.337-14.253 6.057-21.443 4.575-19.082-3.932-36.09-16.92-44.908-34.293-5.117-10.082-7.414-21.521-6.859-32.81z" fill="#f1cd88"/><g><path d="m211.339 202.503c-4.142 0-7.5 3.358-7.5 7.5v3.801c0 4.142 3.358 7.5 7.5 7.5s7.5-3.358 7.5-7.5v-3.801c0-4.142-3.358-7.5-7.5-7.5z"/><path d="m300.661 202.503c-4.142 0-7.5 3.358-7.5 7.5v3.801c0 4.142 3.358 7.5 7.5 7.5s7.5-3.358 7.5-7.5v-3.801c0-4.142-3.358-7.5-7.5-7.5z"/><path d="m228.726 235.941c-4.755 4.606-5.336 12.088-1.352 17.402l15.293 20.398c3.177 4.237 8.037 6.667 13.333 6.667s10.155-2.431 13.332-6.668l15.294-20.397c3.984-5.314 3.402-12.795-1.353-17.401-17.587-17.037-36.959-17.037-54.547-.001zm28.605 28.801c-.413.55-.952.666-1.331.666-.38 0-.919-.116-1.332-.666l-14.339-19.125c10.917-9.967 20.425-9.968 31.341 0z"/><path d="m452.435 224.314c-.404-8.222-4.951-15.535-12.163-19.562-7.269-4.058-15.957-4.086-23.24-.078l-28.972 15.949c-3.703-13.917-8.414-27.517-14.085-40.615 1.059-.689 2.057-1.488 2.961-2.418l14.515-14.916c3.737-3.841 5.42-9.307 4.502-14.621-7.374-42.709-25.563-79.849-52.599-107.403-25.36-25.846-55.761-40.28-85.604-40.644-.36-.004-.718-.006-1.079-.006-23.943 0-49.417 9.431-71.856 26.625-3.288 2.52-3.911 7.227-1.391 10.515s7.227 3.911 10.515 1.391c20.123-15.419 42.73-23.739 63.63-23.526 25.475.31 52.84 13.486 75.078 36.151 17.357 17.69 39.866 49.305 48.524 99.45.103.598-.073 1.199-.472 1.609l-14.516 14.917c-.497.511-1.072.618-1.467.618s-.97-.107-1.468-.619l-22.539-23.17c-3.233-3.324-7.566-5.156-12.202-5.16h-.014c-4.636 0-8.975 1.83-12.224 5.16l-22.54 23.171c-.497.51-1.069.618-1.462.618-.396 0-.975-.109-1.473-.619l-22.539-23.171c-3.237-3.328-7.577-5.16-12.22-5.16-4.642 0-8.982 1.833-12.219 5.161l-22.539 23.171c-.498.511-1.073.619-1.468.619s-.97-.107-1.469-.62l-22.549-23.169c-3.233-3.324-7.566-5.156-12.202-5.16h-.014c-4.636 0-8.975 1.83-12.224 5.16l-22.54 23.171c-.245.251-.508.403-.759.494l-.022.009c-.252.088-.49.115-.685.115-.395 0-.97-.107-1.47-.621l-15.592-16.016c-.407-.418-.582-1.031-.466-1.638 6.402-33.686 20.3-64.07 40.193-87.869 2.657-3.178 2.234-7.908-.944-10.564-3.179-2.657-7.909-2.234-10.564.944-21.528 25.756-36.542 58.499-43.42 94.688-1.028 5.41.637 10.98 4.455 14.902l15.589 16.014c1.236 1.271 2.636 2.32 4.149 3.136-5.932 12.959-10.964 26.575-14.846 40.169l-29.465-16.221c-7.283-4.009-15.97-3.98-23.24.078-7.212 4.027-11.759 11.339-12.163 19.561-.631 12.809 2.019 25.456 7.662 36.574 9.663 19.037 27.7 33.098 48.472 37.888.49 4.938 1.233 9.771 2.225 14.487-3.878-3.217-9.077-4.202-13.93-2.543-5.382 1.842-9.124 6.503-9.765 12.166-1.089 9.626-1.704 19.565-1.826 29.543-.527 43.639 15.96 83.994 46.425 113.63 29.9 29.088 70.514 45.399 114.359 45.929.74.009 1.475.013 2.213.013 51.831 0 98.887-22.028 129.375-60.649 2.566-3.251 2.012-7.967-1.24-10.534-3.252-2.566-7.968-2.012-10.534 1.24-28.015 35.489-71.622 55.523-119.633 54.931-39.984-.483-76.947-15.286-104.081-41.681-27.486-26.74-42.361-63.211-41.885-102.696.112-9.154.66-18.269 1.629-27.113l10.75 11.042c7.003 7.2 18.896 7.578 26.267 0l25.539-26.255c.859-.88 1.869-1.013 2.396-1.013.522 0 1.525.132 2.375 1.006l25.559 26.262c3.479 3.576 8.143 5.545 13.134 5.545s9.655-1.97 13.132-5.545l25.548-26.264c.851-.875 1.856-1.005 2.38-1.005s1.53.13 2.381 1.005l25.555 26.271c3.484 3.571 8.146 5.538 13.129 5.538h.015c4.982-.004 9.64-1.974 13.114-5.545l25.54-26.255c.859-.881 1.869-1.013 2.396-1.013.522 0 1.525.132 2.375 1.004l25.546 26.263c7.422 7.631 19.315 7.147 26.266.001l9.208-9.463c.872 9.516 1.256 19.298 1.142 29.092-.243 20.147-4.371 39.315-12.268 56.973-1.691 3.781.003 8.217 3.785 9.909 3.781 1.689 8.217-.004 9.909-3.785 8.739-19.54 13.306-40.708 13.574-62.919.124-10.665-.313-21.321-1.3-31.674-.545-5.711-4.244-10.442-9.654-12.346-4.081-1.437-8.407-1.005-12.003 1.058.938-4.795 1.611-9.71 2.013-14.733 20.548-4.906 38.36-18.891 47.941-37.766 5.645-11.117 8.295-23.764 7.664-36.573zm-21.038 29.785c-7.746 15.261-22.971 26.888-39.733 30.342-6.138 1.264-11.111.264-15.206-3.056-3.218-2.607-7.94-2.115-10.549 1.103-2.608 3.218-2.115 7.94 1.103 10.549 4.309 3.493 9.259 5.673 14.655 6.517-.881 9.028-2.749 17.618-5.584 25.673l-24.716-25.409c-3.475-3.572-8.132-5.542-13.114-5.545h-.015c-4.983 0-9.646 1.966-13.138 5.545l-25.548 26.264c-.849.872-1.852 1.003-2.374 1.004-.526 0-1.536-.132-2.387-1.004l-25.547-26.263c-3.479-3.577-8.143-5.547-13.133-5.547s-9.654 1.97-13.133 5.546l-25.548 26.264c-.85.873-1.856 1.004-2.38 1.004s-1.531-.131-2.382-1.006l-25.559-26.261c-3.474-3.572-8.131-5.542-13.114-5.545h-.015c-4.983 0-9.646 1.966-13.138 5.545l-24.129 24.805c-2.844-7.907-4.794-16.324-5.827-25.163 5.181-.904 9.941-3.051 14.102-6.424 3.218-2.609 3.711-7.332 1.103-10.549-2.609-3.218-7.332-3.711-10.549-1.103-4.096 3.321-9.069 4.321-15.206 3.056-16.762-3.454-31.987-15.081-39.733-30.342-4.465-8.796-6.559-18.84-6.057-29.048.151-3.066 1.789-5.69 4.494-7.201 2.762-1.543 5.931-1.556 8.693-.035l53.914 29.68c3.629 1.997 8.189.675 10.188-2.953 1.998-3.629.675-8.19-2.953-10.188l-10.948-6.027c4.417-16.304 10.623-32.739 18.131-47.985 1.264-.756 2.448-1.665 3.505-2.752l22.531-23.163c.505-.518 1.084-.627 1.48-.627.393 0 .965.108 1.463.62l22.549 23.169c3.236 3.327 7.576 5.16 12.22 5.16s8.983-1.833 12.22-5.16l22.539-23.171c.498-.512 1.073-.62 1.467-.62.395 0 .97.107 1.468.62l22.546 23.179c3.241 3.322 7.579 5.151 12.216 5.151h.014c4.636-.004 8.969-1.836 12.202-5.16l22.531-23.163c.505-.518 1.084-.627 1.48-.627.393 0 .965.108 1.462.619l22.539 23.17c1.648 1.694 3.583 2.995 5.698 3.87 6.785 14.913 12.26 30.555 16.307 46.628l-11.383 6.267c-3.628 1.998-4.951 6.559-2.953 10.188 1.998 3.627 6.557 4.951 10.188 2.953l53.914-29.68c2.761-1.521 5.93-1.509 8.693.035 2.705 1.51 4.343 4.135 4.494 7.201.501 10.209-1.593 20.254-6.058 29.05z"/></g></g></svg>