<svg id="Capa_1" enable-background="new 0 0 512 512" height="512" viewBox="0 0 512 512" width="512" xmlns="http://www.w3.org/2000/svg"><g><g><path d="m501.954 360.929h-491.907v-113.491c0-5.683 4.607-10.29 10.29-10.29h471.327c5.683 0 10.29 4.607 10.29 10.29z" fill="#8bb6ef"/><path d="m410.768 200.279c-49.119 0-88.937 32.215-88.937 71.955s39.819 71.955 88.937 71.955c49.119 0 88.938-32.216 88.938-71.955 0-39.74-39.819-71.955-88.938-71.955zm0 72.951c-14.623 0-26.478-5.965-26.478-13.323s11.855-13.323 26.478-13.323 26.478 5.965 26.478 13.323-11.855 13.323-26.478 13.323z" fill="#b07676"/><path d="m328.94 297.889c12.773 27.071 45.164 46.301 83.111 46.301s70.338-19.23 83.111-46.301c-9.979-21.149-31.931-37.51-59.154-43.657 1.614 1.722 2.52 3.645 2.52 5.675 0 7.358-11.855 13.323-26.478 13.323s-26.478-5.965-26.478-13.323c0-2.03.906-3.953 2.52-5.675-27.221 6.147-49.173 22.508-59.152 43.657z" fill="#a45775"/><path d="m101.232 200.279c-49.119 0-88.937 32.215-88.937 71.955s39.819 71.955 88.937 71.955c49.119 0 88.938-32.216 88.938-71.955 0-39.74-39.819-71.955-88.938-71.955zm0 72.951c-14.623 0-26.478-5.965-26.478-13.323s11.854-13.323 26.478-13.323c14.623 0 26.478 5.965 26.478 13.323s-11.855 13.323-26.478 13.323z" fill="#d49c8d"/><path d="m18.121 297.889c12.774 27.071 45.164 46.301 83.111 46.301s70.338-19.23 83.111-46.301c-9.979-21.149-31.931-37.51-59.154-43.657 1.614 1.722 2.52 3.645 2.52 5.675 0 7.358-11.855 13.323-26.478 13.323s-26.478-5.965-26.478-13.323c0-2.03.906-3.953 2.52-5.675-27.221 6.147-49.173 22.508-59.152 43.657z" fill="#c7758d"/><path d="m256 200.279c-49.119 0-88.938 32.215-88.938 71.955s39.819 71.955 88.938 71.955 88.937-32.216 88.937-71.955c.001-39.74-39.818-71.955-88.937-71.955zm0 72.951c-14.623 0-26.478-5.965-26.478-13.323s11.854-13.323 26.478-13.323c14.623 0 26.478 5.965 26.478 13.323s-11.855 13.323-26.478 13.323z" fill="#ffdcb6"/><path d="m101.232 293.187c-49.119 0-88.937 32.215-88.937 71.955s39.819 71.955 88.937 71.955c49.119 0 88.938-32.215 88.938-71.955s-39.819-71.955-88.938-71.955z" fill="#f7c4db"/><path d="m172.889 297.889c12.773 27.071 45.164 46.301 83.111 46.301s70.338-19.23 83.111-46.301c-9.979-21.149-31.931-37.51-59.154-43.657 1.614 1.722 2.52 3.645 2.52 5.675 0 7.358-11.855 13.323-26.478 13.323s-26.478-5.965-26.478-13.323c0-2.03.906-3.953 2.52-5.675-27.221 6.147-49.173 22.508-59.152 43.657z" fill="#efa5b6"/><path d="m410.768 293.187c-49.119 0-88.937 32.215-88.937 71.955s39.819 71.955 88.937 71.955c49.119 0 88.938-32.215 88.938-71.955s-39.819-71.955-88.938-71.955z" fill="#fef2a8"/><path d="m256 293.187c-49.119 0-88.938 32.215-88.938 71.955s39.819 71.955 88.938 71.955 88.937-32.215 88.937-71.955c.001-39.74-39.818-71.955-88.937-71.955z" fill="#ef8bbd"/><path d="m481.418 467.375h-450.835c-11.342 0-20.536-9.194-20.536-20.536v-85.91h491.907v85.91c0 11.342-9.194 20.536-20.536 20.536z" fill="#b2e7f1"/><path d="m439.974 360.929v50.22c0 8.232-6.774 14.905-15.13 14.905h-399.668c-8.356 0-15.129-6.673-15.129-14.905v35.843c0 11.257 9.263 20.383 20.69 20.383h450.528c11.427 0 20.69-9.126 20.69-20.383v-86.063z" fill="#a7adf1"/><path d="m231.727 217.521-19.464 7.85c-6.246 2.519-13.352-.503-15.871-6.749-2.519-6.247.503-13.352 6.749-15.871l19.464-7.85c6.246-2.519 13.352.502 15.871 6.749 2.519 6.246-.502 13.352-6.749 15.871z" fill="#78eac4"/><path d="m311.34 231.48-20.941 1.398c-6.72.449-12.532-4.635-12.981-11.356-.449-6.72 4.635-12.532 11.356-12.981l20.941-1.398c6.72-.449 12.532 4.635 12.981 11.356.448 6.721-4.636 12.533-11.356 12.981z" fill="#ef8bbd"/><path d="m332.072 288.024-18.239-10.382c-5.854-3.332-7.898-10.778-4.566-16.631 3.332-5.854 10.778-7.898 16.631-4.566l18.239 10.382c5.853 3.332 7.897 10.778 4.566 16.631-3.331 5.854-10.777 7.898-16.631 4.566z" fill="#ffe266"/><path d="m208.321 320.327-18.852 9.223c-6.05 2.96-13.354.455-16.314-5.595-2.96-6.05-.455-13.354 5.595-16.314l18.852-9.223c6.05-2.96 13.354-.455 16.314 5.595 2.96 6.05.455 13.354-5.595 16.314z" fill="#b07676"/><path d="m261.189 354.06-20.852-2.378c-6.692-.763-11.498-6.807-10.735-13.499.763-6.692 6.807-11.498 13.499-10.735l20.852 2.378c6.692.763 11.498 6.807 10.735 13.499-.763 6.692-6.807 11.499-13.499 10.735z" fill="#b07676"/><path d="m305.985 328.324-15.711-13.915c-5.042-4.466-5.509-12.173-1.044-17.215 4.466-5.042 12.173-5.509 17.215-1.044l15.711 13.915c5.042 4.466 5.509 12.173 1.044 17.215-4.466 5.042-12.173 5.51-17.215 1.044z" fill="#b07676"/><path d="m132.562 236.087-16.451-13.032c-5.279-4.182-6.169-11.853-1.987-17.132 4.182-5.28 11.852-6.169 17.132-1.987l16.451 13.032c5.279 4.182 6.169 11.852 1.987 17.132-4.182 5.28-11.852 6.169-17.132 1.987z" fill="#fef2a8"/><path d="m16.76 243.325 13.915-15.711c4.466-5.042 12.173-5.509 17.215-1.044 5.042 4.466 5.509 12.173 1.044 17.215l-13.915 15.711c-4.466 5.042-12.173 5.509-17.215 1.044-5.043-4.465-5.51-12.173-1.044-17.215z" fill="#fef2a8"/><g fill="#ef8bbd"><path d="m386.706 228.07-17.641 11.37c-5.661 3.649-13.209 2.017-16.857-3.644-3.649-5.661-2.017-13.209 3.644-16.857l17.641-11.37c5.661-3.649 13.209-2.017 16.857 3.644 3.648 5.661 2.017 13.209-3.644 16.857z"/><path d="m453.865 234.248-18.239-10.382c-5.853-3.332-7.897-10.778-4.566-16.632 3.332-5.853 10.778-7.898 16.632-4.566l18.239 10.382c5.853 3.332 7.898 10.778 4.566 16.631-3.333 5.855-10.779 7.899-16.632 4.567z"/><path d="m492.867 279.573-18.852 9.223c-6.05 2.96-13.354.455-16.314-5.595-2.96-6.05-.455-13.354 5.595-16.314l18.852-9.223c6.05-2.96 13.354-.455 16.314 5.595 2.96 6.051.455 13.354-5.595 16.314z"/><path d="m130.847 342.418-20.852-2.378c-6.692-.763-11.498-6.807-10.735-13.499.763-6.692 6.807-11.498 13.499-10.735l20.852 2.378c6.692.763 11.498 6.807 10.735 13.499-.764 6.692-6.808 11.498-13.499 10.735z"/></g><path d="m64.838 318.672-15.846 13.762c-5.085 4.416-12.788 3.874-17.204-1.211-4.416-5.085-3.874-12.788 1.211-17.204l15.846-13.762c5.085-4.416 12.788-3.874 17.204 1.211 4.416 5.085 3.874 12.788-1.211 17.204z" fill="#ffe266"/><path d="m402.945 342.418-20.852-2.378c-6.692-.763-11.498-6.807-10.735-13.499.763-6.692 6.807-11.498 13.499-10.735l20.852 2.378c6.692.763 11.498 6.807 10.735 13.499-.763 6.692-6.807 11.498-13.499 10.735z" fill="#78eac4"/><path d="m466.9 339.933-16.451-13.032c-5.279-4.182-6.169-11.853-1.987-17.132 4.182-5.279 11.853-6.169 17.132-1.987l16.451 13.032c5.28 4.182 6.169 11.852 1.987 17.132-4.183 5.28-11.853 6.17-17.132 1.987z" fill="#ffe266"/></g><g><g fill="#440a29"><path d="m491.103 227.102h-2.931c-3.496-4.031-7.448-7.778-11.791-11.192-1.583-3.389-4.152-6.209-7.469-8.097l-18.24-10.383c-4.23-2.408-9.143-3.024-13.839-1.736-.911.25-1.781.585-2.628.962-7.5-1.569-15.353-2.406-23.439-2.406-31.892 0-60.15 12.984-77.381 32.844-1.528-1.762-3.142-3.469-4.839-5.118.185-1.271.249-2.567.161-3.878-.324-4.857-2.52-9.297-6.184-12.502-3.663-3.204-8.353-4.788-13.212-4.467l-12.221.816c-12.443-4.926-26.38-7.694-41.094-7.694-4.883 0-9.677.312-14.362.9-1.892-2.483-4.39-4.455-7.341-5.71-4.478-1.903-9.43-1.951-13.946-.13l-19.464 7.849c-4.514 1.821-8.05 5.291-9.954 9.77-1.304 3.066-1.715 6.352-1.275 9.569-4.051 3.252-7.752 6.797-11.047 10.596-10.749-12.389-25.784-22.102-43.322-27.655l-.285-.229c-4.483-3.552-10.133-4.642-15.32-3.477-5.969-.969-12.136-1.483-18.447-1.483-27.738 0-52.736 9.818-70.114 25.443-1.842 1.001-3.524 2.307-4.955 3.924l-3.086 3.484h-2.18c-11.524 0-20.898 9.374-20.898 20.897v112.931 85.91c0 16.863 13.72 30.582 30.583 30.582h450.835c16.863 0 30.582-13.719 30.582-30.582v-85.91-112.931c0-11.523-9.374-20.897-20.897-20.897zm-255.512 111.765c.359-3.143 3.033-5.469 6.124-5.469.232 0 .467.013.703.04l20.851 2.378c1.636.186 3.103 1 4.128 2.289 1.025 1.29 1.487 2.901 1.301 4.537-.386 3.378-3.438 5.819-6.828 5.429l-20.851-2.378c-1.636-.186-3.103-.999-4.128-2.288-1.024-1.29-1.486-2.902-1.3-4.538zm41.243-8.266c-3.03-3.81-7.361-6.211-12.198-6.763l-20.851-2.378c-9.967-1.13-19.032 6.057-20.171 16.04-.551 4.827.808 9.577 3.825 13.383h-52.369c1.395-5.001 3.507-9.789 6.245-14.295.931.146 1.875.229 2.825.229 2.684 0 5.41-.596 7.979-1.852l18.852-9.223c7.681-3.758 11.52-12.236 9.779-20.241 10.702-4.023 22.646-6.286 35.25-6.286 8.505 0 16.702 1.047 24.43 2.951-1.035 6.017.951 12.419 5.847 16.756l15.711 13.915c3.361 2.977 7.607 4.583 12.058 4.583.375 0 .751-.011 1.127-.034 4.686-.284 8.981-2.325 12.176-5.736 4.391 5.888 7.67 12.358 9.586 19.235h-58.503c1.166-2.062 1.959-4.376 2.244-6.874.553-4.839-.812-9.6-3.842-13.41zm-255.562-83.278 13.916-15.712c1.092-1.233 2.598-1.967 4.242-2.067.127-.008.255-.012.382-.012 1.507 0 2.943.544 4.081 1.552 1.233 1.092 1.967 2.599 2.067 4.243.099 1.644-.447 3.229-1.539 4.463l-13.915 15.71c-2.256 2.546-6.16 2.782-8.706.528-1.233-1.092-1.967-2.599-2.067-4.243-.099-1.645.447-3.229 1.539-4.462zm2.513 69.977c-.421 1.231-.705 2.497-.857 3.781-.988 1.181-1.926 2.391-2.836 3.617v-11.986c1.165 1.567 2.401 3.095 3.693 4.588zm-3.486 33.583c1.527-5.485 3.916-10.715 7.046-15.597 3.592 4.066 8.612 6.155 13.663 6.155 4.237 0 8.493-1.466 11.937-4.456l15.846-13.762c3.674-3.192 5.887-7.624 6.229-12.479.19-2.699-.231-5.341-1.172-7.794 8.578-2.402 17.784-3.736 27.384-3.736 26.874 0 50.78 10.231 65.932 26.043.178.451.359.902.576 1.346.79 1.615 1.789 3.061 2.948 4.322-3.723 6.233-6.463 12.931-8.051 19.958h-131.602zm36.533-47.586c.147 0 .294.005.443.015 1.643.116 3.143.864 4.223 2.108s1.612 2.834 1.496 4.477-.864 3.142-2.108 4.223l-15.846 13.763c-2.567 2.229-6.471 1.954-8.701-.613-2.23-2.568-1.954-6.471.613-8.7l15.846-13.762c1.131-.983 2.55-1.511 4.034-1.511zm151.67 3.365c1.494 3.055.225 6.756-2.83 8.251l-18.852 9.223c-3.05 1.494-6.757.226-8.251-2.83-1.494-3.055-.225-6.755 2.829-8.25l18.853-9.223c.857-.419 1.779-.631 2.705-.631.673 0 1.35.112 2.006.337 1.559.534 2.816 1.643 3.54 3.123zm85.769 3.234c-2.546-2.255-2.782-6.16-.529-8.706 1.218-1.374 2.916-2.076 4.621-2.076 1.454 0 2.914.51 4.085 1.548l15.711 13.914c2.546 2.255 2.782 6.161.527 8.707-1.092 1.233-2.598 1.967-4.242 2.067-1.644.098-3.229-.447-4.462-1.539zm40.292 8.785c-.401.442-.798.885-1.187 1.334-.37-.427-.736-.855-1.116-1.276-.001-.033 0-.066-.001-.1.383-.423.769-.844 1.141-1.274.382.443.77.881 1.163 1.316zm6.594-46.616c2.955 1.682 3.99 5.455 2.308 8.411-.814 1.431-2.138 2.46-3.726 2.896-1.591.436-3.252.227-4.684-.587l-18.24-10.382c-2.955-1.683-3.991-5.456-2.309-8.411.814-1.432 2.138-2.46 3.727-2.896 1.586-.437 3.251-.228 4.684.587zm8.207 78.818c-1.672-7.396-4.626-14.424-8.654-20.932 14.706-18.456 40.605-30.736 70.058-30.736 12.067 0 23.534 2.067 33.884 5.769-.312.338-.624.676-.915 1.042-3.023 3.816-4.379 8.58-3.818 13.415.56 4.835 2.971 9.162 6.786 12.185l16.451 13.032c3.251 2.576 7.193 3.942 11.28 3.942.707 0 1.421-.041 2.135-.124 4.661-.541 8.838-2.814 11.842-6.393 1.343 2.846 2.447 5.784 3.289 8.8h-8.831zm143.683-84.974c.724 1.48.828 3.153.294 4.711-.535 1.558-1.644 2.815-3.124 3.539l-18.852 9.223c-3.054 1.493-6.757.225-8.25-2.829-.724-1.48-.828-3.153-.294-4.711.535-1.559 1.644-2.815 3.124-3.539l18.852-9.223c.857-.419 1.779-.63 2.705-.63.674 0 1.351.112 2.006.336 1.558.533 2.815 1.642 3.539 3.123zm-39.86 47.604c1.216-1.535 3.02-2.336 4.841-2.336 1.341 0 2.692.435 3.823 1.33l16.451 13.032c2.666 2.112 3.116 5.998 1.005 8.664-1.023 1.291-2.488 2.107-4.124 2.297-1.639.19-3.25-.269-4.541-1.292l-16.451-13.032c-1.291-1.023-2.106-2.488-2.297-4.124-.189-1.636.27-3.248 1.293-4.539zm38.431 10.759c-.827-2.338-2.138-4.519-3.913-6.397 1.478-1.675 2.887-3.395 4.202-5.167v11.957c-.097-.131-.191-.263-.289-.393zm-34.771-95.263-18.241-10.382c-2.955-1.682-3.99-5.455-2.308-8.411.814-1.432 2.138-2.46 3.727-2.896.543-.149 1.094-.223 1.642-.223 1.056 0 2.099.274 3.04.81l18.24 10.383c1.431.815 2.461 2.138 2.896 3.727.437 1.588.228 3.252-.588 4.684-.814 1.431-2.138 2.46-3.727 2.896-1.589.437-3.251.227-4.681-.588zm-32.367-21.779c-2.867 8.149.397 17.454 8.164 21.875l17.756 10.107c-1.655.596-3.039 1.903-3.664 3.689-.028.079-1.663 4.612-5.683 9.722-4.64-7.21-16.128-12.067-30.284-12.067-14.115 0-25.578 4.83-30.243 12.005-3.949-5.038-5.575-9.498-5.632-9.657-.004-.013-.011-.025-.015-.038l15.094-9.729c4.091-2.637 6.911-6.709 7.939-11.467 1.029-4.758.142-9.632-2.495-13.722-.099-.153-.214-.292-.316-.442 5.076-.777 10.31-1.198 15.669-1.198 4.671-.001 9.249.322 13.71.922zm2.747 56.425c-.337.154-.649.338-.942.542-3.452 1.625-8.663 3.006-15.517 3.006-6.662 0-11.783-1.303-15.236-2.868-.346-.262-.723-.492-1.133-.679-.425-.194-.84-.395-1.249-.601-1.864-1.19-2.831-2.372-2.831-3.146 0-2.117 7.166-7.295 20.449-7.295 13.284 0 20.45 5.178 20.45 7.295 0 .816-1.076 2.086-3.145 3.34-.28.135-.558.274-.846.406zm-70.796-35.769c.347-1.61 1.302-2.988 2.687-3.881l17.639-11.37c1.01-.65 2.158-.986 3.33-.986.438 0 .878.047 1.315.141 1.61.348 2.988 1.302 3.881 2.688.893 1.384 1.193 3.034.845 4.644s-1.303 2.988-2.687 3.881c0 0 0 0-.001.001l-17.64 11.37c-1.384.892-3.035 1.19-4.644.844-1.61-.348-2.988-1.302-3.881-2.687-.892-1.385-1.193-3.035-.844-4.645zm-11.868 4.752c.435 2.257 1.296 4.434 2.578 6.424 2.636 4.091 6.709 6.911 11.467 7.94 1.293.28 2.594.418 3.886.418.401 0 .801-.016 1.199-.043 1.205 3.16 7.686 18.265 24.152 26.502 5.79 3.362 13.801 5.38 22.922 5.38 8.857 0 16.668-1.904 22.415-5.093 18.512-8.943 24.7-26.601 24.958-27.361.598-1.76.333-3.602-.567-5.07.76.098 1.526.148 2.295.148 1.619 0 3.249-.218 4.853-.658 4.694-1.288 8.605-4.328 11.014-8.558.161-.283.293-.577.439-.866 5.47 5.579 9.832 11.874 12.835 18.674-3.242-.274-6.509.311-9.51 1.777l-18.852 9.223c-4.373 2.139-7.651 5.853-9.229 10.458-1.58 4.604-1.271 9.548.868 13.92 3.159 6.457 9.653 10.213 16.398 10.213 2.684 0 5.41-.595 7.979-1.852l14.911-7.294c-2.449 8.524-6.984 16.42-13.15 23.339l-9.087-7.198c-2.154-1.707-4.581-2.827-7.094-3.421-14.84-7.891-32.517-12.478-51.475-12.478-26.406 0-50.325 8.899-67.554 23.233-.865-.966-1.708-1.944-2.507-2.948 2.83-4.572 5.132-9.399 6.829-14.432 2.636-1.59 4.842-3.824 6.407-6.572 2.408-4.23 3.024-9.145 1.736-13.838-.918-3.346-2.74-6.282-5.235-8.571-1.231-9.623-4.608-18.727-9.72-26.991 1.204-1.514 2.488-2.981 3.839-4.405zm-34.445-19.479c.14-.009.28-.014.419-.014 1.492 0 2.918.534 4.052 1.526 1.239 1.085 1.983 2.587 2.093 4.232.11 1.643-.427 3.231-1.512 4.471-1.084 1.24-2.587 1.983-4.23 2.092l-20.941 1.398c-3.389.233-6.338-2.35-6.566-5.742-.226-3.394 2.351-6.338 5.743-6.565zm-108.091-1.512c.645-1.516 1.842-2.691 3.369-3.307l19.464-7.849c.746-.301 1.527-.451 2.308-.451.818 0 1.636.165 2.412.495 1.516.645 2.69 1.841 3.306 3.369s.6 3.204-.044 4.72c-.645 1.516-1.842 2.691-3.369 3.307l-19.464 7.849c-1.529.617-3.205.6-4.72-.044-1.516-.645-2.69-1.84-3.306-3.369-.617-1.528-.601-3.204.044-4.72zm5.672 20.647c2.307 0 4.615-.444 6.819-1.333l19.464-7.849c4.514-1.821 8.05-5.291 9.954-9.77.887-2.085 1.353-4.273 1.434-6.472 3.483-.358 7.026-.563 10.63-.563 6.99 0 13.772.71 20.258 2.017-3.3 3.553-5.201 8.393-4.854 13.602.643 9.614 8.671 17.009 18.171 17.009.406 0 .815-.013 1.225-.041l20.941-1.398c4.056-.271 7.81-1.863 10.808-4.508 6.175 6.605 10.821 14.159 13.552 22.329l-7.221-4.11c-4.229-2.408-9.144-3.024-13.838-1.736-4.695 1.289-8.605 4.328-11.014 8.559-4.97 8.732-1.909 19.881 6.824 24.852l18.24 10.383c1.477.841 3.038 1.456 4.644 1.855-1.833 3.916-4.126 7.655-6.818 11.183-.252-.251-.493-.509-.763-.748l-15.711-13.915c-6.845-6.063-17.005-6.009-23.803-.285-9.62-2.703-19.918-4.194-30.64-4.194-14.96 0-29.115 2.867-41.715 7.95-1.604-1.272-3.417-2.29-5.411-2.974-4.603-1.578-9.547-1.272-13.92.868l-14.172 6.933c-4.93-8.427-7.691-17.811-7.691-27.702 0-17.306 8.442-33.066 22.208-44.839 1.529 1.42 3.294 2.594 5.272 3.435 2.293.973 4.709 1.462 7.127 1.462zm-36.418 4.736c-6.548 10.582-10.246 22.544-10.246 35.204 0 12.23 3.457 23.807 9.595 34.118-.973 1.074-1.805 2.252-2.49 3.507-17.179-14.021-40.831-22.701-66.908-22.701-12.866 0-25.13 2.129-36.327 5.957-2.093-1.032-4.386-1.661-6.784-1.83-4.869-.344-9.554 1.228-13.229 4.419l-13.627 11.835c-8.183-10.214-12.942-22.324-12.942-35.307 0-1.405.067-2.797.181-4.179 2.35 1.04 4.862 1.571 7.374 1.571 5.039 0 10.056-2.073 13.652-6.132l13.915-15.711c.318-.359.607-.736.894-1.113.014.045.023.09.038.134.243.713 5.704 16.297 21.66 25.607 5.865 4.236 14.814 6.847 25.194 6.847 8.078 0 15.289-1.582 20.855-4.279.35-.088.697-.201 1.036-.356 19.26-8.785 25.648-27.046 25.911-27.82.495-1.458.393-2.968-.165-4.279 2.119-1.157 4.006-2.733 5.55-4.682 3.023-3.816 4.379-8.58 3.818-13.415-.001-.004-.001-.007-.002-.01 4.974 3.754 9.359 7.992 13.047 12.615zm-90.498 22.877c0-2.117 7.166-7.295 20.449-7.295 13.284 0 20.45 5.178 20.45 7.295s-7.166 7.296-20.45 7.296c-6.136 0-10.948-1.109-14.37-2.507-.454-.416-.979-.771-1.57-1.041-1.027-.469-2-.978-2.934-1.514-1.031-.86-1.575-1.661-1.575-2.234zm38.067-50.241c2.111-2.667 5.997-3.117 8.664-1.005l16.45 13.033c1.292 1.023 2.107 2.487 2.297 4.123s-.269 3.249-1.292 4.541c-1.022 1.291-2.487 2.106-4.124 2.296-1.634.191-3.249-.269-4.541-1.292l-16.45-13.032c-1.291-1.023-2.106-2.488-2.297-4.124-.189-1.637.269-3.249 1.293-4.54zm-11.965-3.191c-3.064 7.342-1.052 16.126 5.484 21.305l16.45 13.032c2.41 1.909 5.199 3.149 8.145 3.665-.837 1.824-2.513 5.019-5.258 8.443-4.512-7.374-16.124-12.364-30.474-12.364-13.916 0-25.26 4.692-30.049 11.7-3.78-4.915-5.346-9.204-5.399-9.352-1.079-3.138-4.493-4.814-7.638-3.746-.173.059-.339.127-.502.199.314-1.547.447-3.141.349-4.76-.294-4.859-2.464-9.312-6.107-12.538-.635-.563-1.312-1.058-2.006-1.521 14.131-8.9 31.966-14.231 51.351-14.231 1.902 0 3.784.066 5.654.168zm385.022 240.365c0 5.784-4.705 10.489-10.489 10.489h-450.835c-5.785 0-10.49-4.705-10.49-10.489v-75.864h471.814z"/><path d="m146.491 318.958c-3.03-3.81-7.362-6.211-12.198-6.763l-20.852-2.378c-4.835-.551-9.597.813-13.407 3.843s-6.211 7.362-6.763 12.198.812 9.598 3.842 13.408 7.361 6.212 12.198 6.763l20.852 2.378c.699.079 1.392.118 2.079.118 9.131 0 17.033-6.874 18.092-16.159.553-4.836-.812-9.598-3.843-13.408zm-8.134 12.042c-.386 3.378-3.439 5.817-6.827 5.429l-20.852-2.378c-1.636-.186-3.102-.999-4.128-2.288-1.025-1.289-1.487-2.901-1.301-4.538.187-1.637 1-3.103 2.289-4.128 1.103-.877 2.439-1.341 3.826-1.341.236 0 .473.014.711.041l20.852 2.378c1.637.186 3.103.999 4.129 2.288 1.025 1.289 1.487 2.9 1.301 4.537z"/><path d="m406.392 312.195-20.852-2.378c-9.98-1.131-19.031 6.057-20.17 16.041-.552 4.837.812 9.598 3.843 13.408 3.03 3.81 7.362 6.211 12.198 6.763l20.852 2.378c.698.079 1.391.118 2.078.118 9.132 0 17.033-6.874 18.091-16.159.552-4.836-.812-9.598-3.842-13.408-3.029-3.809-7.361-6.211-12.198-6.763zm4.063 18.805c-.387 3.379-3.445 5.814-6.827 5.429l-20.852-2.378c-1.637-.186-3.103-.999-4.128-2.288-1.025-1.29-1.487-2.901-1.301-4.538.359-3.143 3.033-5.469 6.124-5.469.232 0 .467.013.703.04l20.852 2.378c1.637.186 3.102.999 4.128 2.288 1.025 1.289 1.487 2.901 1.301 4.538z"/><path d="m234.419 274.623c.037.017.075.028.112.044 5.645 2.885 13.088 4.591 21.469 4.591 7.99 0 15.128-1.549 20.669-4.193.483-.087.965-.229 1.432-.442 19.258-8.785 25.648-27.046 25.911-27.819 1.07-3.152-.617-6.576-3.769-7.646-3.148-1.071-6.575.616-7.647 3.769-.027.082-1.709 4.877-6.007 10.175-4.431-7.475-16.121-12.546-30.59-12.546-14.21 0-25.732 4.895-30.336 12.151-4.036-5.101-5.694-9.65-5.749-9.803-1.079-3.138-4.493-4.814-7.638-3.746-3.152 1.07-4.84 4.493-3.769 7.646.264.773 6.652 19.034 25.912 27.819zm21.581-22.011c13.284 0 20.45 5.178 20.45 7.295s-7.166 7.296-20.45 7.296c-7.177 0-12.55-1.514-15.99-3.237-.189-.112-.384-.217-.588-.31-.035-.016-.068-.033-.103-.05-2.477-1.365-3.769-2.804-3.769-3.698.001-2.119 7.167-7.296 20.45-7.296z"/></g><path d="m179.278 404.544c-.063 0-.124 0-.186-.001-19.641-.357-38.844-.357-58.704 0-5.5.108-10.126-4.316-10.225-9.864-.1-5.548 4.317-10.126 9.864-10.226 20.103-.362 39.543-.362 59.43 0 5.547.101 9.963 4.68 9.862 10.228-.1 5.485-4.578 9.863-10.041 9.863z" fill="#fff"/><path d="m73.672 404.544h-13.586c-5.548 0-10.046-4.498-10.046-10.046 0-5.549 4.498-10.047 10.046-10.047h13.586c5.548 0 10.046 4.498 10.046 10.047 0 5.548-4.498 10.046-10.046 10.046z" fill="#fff"/></g><g><g fill="#ffc7b6"><path d="m104.46 60.257 8.253 23.205c.353.993 1.053 1.781 1.936 2.179l20.617 9.288c2.913 1.312 2.913 5.953 0 7.265l-20.617 9.289c-.883.398-1.582 1.185-1.936 2.179l-8.253 23.205c-1.166 3.278-5.289 3.278-6.455 0l-8.253-23.205c-.353-.993-1.053-1.781-1.935-2.179l-20.617-9.289c-2.913-1.312-2.913-5.953 0-7.265l20.617-9.288c.883-.398 1.582-1.185 1.935-2.179l8.253-23.205c1.166-3.278 5.289-3.278 6.455 0z"/><path d="m475.323 58.104 8.253 23.205c.353.993 1.053 1.781 1.936 2.178l20.617 9.289c2.913 1.312 2.913 5.953 0 7.265l-20.617 9.289c-.883.398-1.582 1.185-1.936 2.179l-8.253 23.205c-1.166 3.278-5.289 3.278-6.455 0l-8.253-23.205c-.353-.993-1.053-1.781-1.936-2.179l-20.617-9.289c-2.913-1.312-2.913-5.953 0-7.265l20.617-9.289c.883-.398 1.582-1.185 1.936-2.178l8.253-23.205c1.166-3.278 5.289-3.278 6.455 0z"/><path d="m282.811 100.386 6.122 17.213c.262.737.781 1.321 1.436 1.616l15.293 6.89c2.16.974 2.16 4.416 0 5.389l-15.293 6.89c-.655.295-1.174.879-1.436 1.616l-6.122 17.213c-.865 2.432-3.923 2.432-4.788 0l-6.122-17.213c-.262-.737-.781-1.321-1.436-1.616l-15.293-6.89c-2.16-.973-2.16-4.416 0-5.389l15.293-6.89c.655-.295 1.174-.879 1.436-1.616l6.122-17.213c.865-2.432 3.923-2.432 4.788 0z"/></g><ellipse cx="195.504" cy="52.599" fill="#ffa585" rx="18.02" ry="18.02" transform="matrix(.993 -.122 .122 .993 -4.962 24.281)"/><path d="m36.574 153.639c0 4.293-3.48 7.773-7.773 7.773s-7.773-3.48-7.773-7.773 3.48-7.773 7.773-7.773c4.292-.001 7.773 3.479 7.773 7.773z" fill="#ffa585"/><path d="m365.017 82.836c0 4.293-3.48 7.773-7.773 7.773s-7.773-3.48-7.773-7.773 3.48-7.773 7.773-7.773 7.773 3.48 7.773 7.773z" fill="#ffa585"/></g></g></svg>