<?xml version="1.0" encoding="iso-8859-1"?>
<!-- Generator: Adobe Illustrator 19.0.0, SVG Export Plug-In . SVG Version: 6.00 Build 0)  -->
<svg version="1.1" id="Layer_1" xmlns="http://www.w3.org/2000/svg" xmlns:xlink="http://www.w3.org/1999/xlink" x="0px" y="0px"
	 viewBox="0 0 508.8 508.8" style="enable-background:new 0 0 508.8 508.8;" xml:space="preserve">
<polygon style="fill:#61C2AB;" points="491.2,35 8.8,285.4 152.4,339 "/>
<path style="fill:#4BB19B;" d="M155.2,342.2l47.6,137.2l68.4-99.2l-48.4-20.4l0,0L494,36.6L155.2,342.2L155.2,342.2z"/>
<path style="fill:#61C2AB;" d="M423.6,441l77.2-408L228.4,359.4L423.6,441z M458,123.4c0.4-1.2,1.2-1.6,2.4-1.6
	c1.2,0.4,1.6,1.2,1.6,2.4l-5.6,30.4c0,0.8-1.2,1.6-2,1.6H454c-1.2-0.4-1.6-1.2-1.6-2.4L458,123.4z M448.8,182.2
	c1.2,0.4,1.6,1.2,1.6,2.4l-42.8,226.8c0,0.8-1.2,1.6-2,1.6h-0.4c-1.2-0.4-1.6-1.2-1.6-2.4l42.8-226.8
	C446.8,182.6,447.6,182.2,448.8,182.2z"/>
<path d="M152.8,345.4c-0.4,0-0.8,0-1.6-0.4L2.4,289c-1.6-0.4-2.4-2-2.4-3.6s0.8-3.2,2-3.6L502,22.2c1.6-0.8,4-0.4,5.2,1.2
	s0.8,4-0.8,5.2L155.2,344.2C154.8,345,154,345.4,152.8,345.4z M14,285l138,52L478,44.2L14,285z"/>
<path d="M201.6,487.4c-1.6,0-3.2-1.2-3.6-2.8l-48.8-142c-0.8-2,0.4-4.4,2.4-5.2c2-0.8,4.4,0.4,5.2,2.4l44,127.6L221.2,359
	c0-0.4,0-0.4,0.4-0.8l0,0l0,0l0,0l0,0l0,0l0,0l0,0l0,0l0,0c0-0.4,0.4-0.8,0.8-1.2L501.6,23c1.2-1.6,3.2-2,4.8-1.2
	c1.6,0.8,2.4,2.4,2.4,4.4l-79.2,418c-0.4,1.2-0.8,2.4-2,2.8s-2.4,0.8-3.6,0l-195.6-82L206,483.4C205.2,485.8,203.6,487,201.6,487.4
	C202,487.4,201.6,487.4,201.6,487.4z M231.6,358.6L422,438.2l75.2-398L231.6,358.6z"/>
<path d="M201.6,487.4c-0.8,0-1.6-0.4-2.4-0.8c-2-1.2-2.4-3.6-1.2-5.6l52.4-79.2c1.2-2,3.6-2.4,5.6-1.2s2.4,3.6,1.2,5.6l-52.4,79.2
	C204.4,486.6,202.8,487.4,201.6,487.4z"/>
<path d="M454,157.8c-0.4,0-0.4,0-0.8,0c-2-0.4-3.6-2.4-3.2-4.8l5.6-30.4c0.4-2,2.4-3.6,4.8-3.2c2,0.4,3.6,2.4,3.2,4.8l-5.6,30.4
	C457.6,156.6,456,157.8,454,157.8z"/>
<path d="M405.6,414.6c-0.4,0-0.4,0-0.8,0c-2-0.4-3.6-2.4-3.2-4.8L444.4,183c0.4-2,2.4-3.6,4.8-3.2c2,0.4,3.6,2.4,3.2,4.8
	l-42.8,226.8C409.2,413.4,407.6,414.6,405.6,414.6z"/>
<g>
</g>
<g>
</g>
<g>
</g>
<g>
</g>
<g>
</g>
<g>
</g>
<g>
</g>
<g>
</g>
<g>
</g>
<g>
</g>
<g>
</g>
<g>
</g>
<g>
</g>
<g>
</g>
<g>
</g>
</svg>
