<svg id="Capa_1" enable-background="new 0 0 512 512" height="512" viewBox="0 0 512 512" width="512" xmlns="http://www.w3.org/2000/svg"><g><g><g><path d="m396.438 395.638c0 12.832-10.402 6.061-23.234 6.061s-23.234 6.771-23.234-6.061 10.402-23.234 23.234-23.234c12.831 0 23.234 10.402 23.234 23.234z" fill="#86f1a7"/></g><g><path d="m504.525 170.372c0 72.527-58.794 202.033-131.321 202.033s-131.321-129.507-131.321-202.033 58.794-131.322 131.321-131.322 131.321 58.795 131.321 131.322z" fill="#a2f4c1"/></g><g><path d="m241.883 170.371c0 51.512 29.664 131.754 72.837 173.937 20.02-14.575 38.763-36.559 55.195-65.214 25.316-44.149 41.675-99.21 41.675-140.273 0-37.926-13.649-72.72-36.284-99.744-.7-.011-1.399-.027-2.102-.027-72.527 0-131.321 58.795-131.321 131.321z" fill="#86f1a7"/></g></g><g><g><path d="m115.612 395.638c0 12.832 10.402 6.061 23.234 6.061s23.234 6.771 23.234-6.061-10.402-23.234-23.234-23.234-23.234 10.402-23.234 23.234z" fill="#dd5790"/></g><g><path d="m7.525 170.372c0 72.527 58.794 202.033 131.321 202.033s131.321-129.506 131.321-202.033-58.794-131.322-131.321-131.322-131.321 58.795-131.321 131.322z" fill="#df75a5"/></g><g><path d="m270.167 170.371c0 51.512-29.664 131.754-72.837 173.937-20.02-14.575-38.763-36.559-55.195-65.214-25.316-44.149-41.675-99.21-41.675-140.273 0-37.926 13.649-72.72 36.284-99.744.7-.011 1.399-.027 2.102-.027 72.527 0 131.321 58.795 131.321 131.321z" fill="#dd5790"/></g></g><g><g><path d="m279.259 364.087c0 12.832-10.402 6.061-23.234 6.061s-23.234 6.771-23.234-6.061 10.402-23.234 23.234-23.234c12.832.001 23.234 10.403 23.234 23.234z" fill="#9d66d5"/></g><g><path d="m387.346 138.821c0 72.527-58.794 202.033-131.321 202.033s-131.321-129.506-131.321-202.033 58.794-131.321 131.321-131.321 131.321 58.794 131.321 131.321z" fill="#ac80dd"/></g><g><path d="m328.908 29.572c13.939 20.853 22.072 45.917 22.072 72.883 0 72.527-58.795 202.033-131.321 202.033-14.374 0-28.205-5.102-41.15-13.824 21.726 29.481 48.521 50.19 77.516 50.19 72.527 0 131.321-129.506 131.321-202.033 0-45.561-23.205-85.697-58.438-109.249z" fill="#9d66d5"/></g></g><path d="m504.677 166.663c-.069-.002-.138-.003-.206-.003-4.048 0-7.384 3.227-7.493 7.298-.978 36.295-16.137 84.561-38.619 122.964-14.863 25.388-45.689 67.978-85.154 67.978-26.188 0-48.554-19.212-63.92-37.514 6.408-5.115 12.701-11.133 18.825-18.04 18.913-21.336 36.152-51.115 48.54-83.853 1.466-3.874-.486-8.203-4.36-9.669-3.873-1.469-8.202.485-9.669 4.36-13.955 36.879-37.901 78.124-67.353 99.164-.436.216-.858.477-1.259.786-.204.157-.397.323-.58.497-11.717 7.971-24.276 12.717-37.405 12.717-29.352 0-60.826-25.531-86.353-70.047-22.761-39.692-37.468-88.554-37.468-124.482 0-68.274 55.546-123.82 123.82-123.82s123.82 55.546 123.82 123.82c0 14.119-2.393 30.998-6.919 48.813-1.021 4.015 1.407 8.096 5.422 9.115 4.004 1.023 8.096-1.405 9.115-5.422 4.829-19.004 7.382-37.16 7.382-52.507 0-35.066-13.075-67.131-34.598-91.592 4.295-.448 8.623-.678 12.957-.678 57.409 0 106.903 38.918 120.36 94.641.829 3.435 3.899 5.741 7.284 5.741.583 0 1.175-.068 1.767-.212 4.026-.972 6.502-5.024 5.529-9.051-7.185-29.752-24.393-56.705-48.454-75.893-24.797-19.774-54.703-30.227-86.486-30.227-8.82 0-17.624.834-26.226 2.481-24.377-21.185-56.191-34.028-90.951-34.028s-66.574 12.843-90.953 34.031c-8.602-1.647-17.407-2.481-26.226-2.481-24.018 0-47.683 6.23-68.435 18.019-3.602 2.046-4.863 6.624-2.817 10.226 1.382 2.433 3.918 3.797 6.528 3.797 1.255 0 2.528-.315 3.697-.979 18.498-10.509 39.601-16.063 61.026-16.063 4.334 0 8.662.231 12.957.678-21.523 24.461-34.598 56.526-34.598 91.592 0 38.355 15.487 90.146 39.455 131.944 14.031 24.468 29.642 43.543 46.069 56.665-15.364 18.289-37.716 37.47-63.883 37.47-29.352 0-60.826-25.531-86.353-70.047-22.761-39.692-37.468-88.555-37.468-124.483 0-33.234 12.986-64.437 36.565-87.858 2.939-2.919 2.955-7.668.036-10.606-2.92-2.939-7.669-2.954-10.606-.036-26.435 26.26-40.994 61.241-40.994 98.501 0 38.355 15.487 90.147 39.455 131.945 22.314 38.913 48.621 64.221 75.861 73.551-4.506 5.349-7.229 12.246-7.229 19.771 0 2.047 0 8.277 4.699 12.289 4.865 4.15 11.044 3.17 17.016 2.219.502-.08 1.011-.158 1.52-.236v94.591c0 4.143 3.357 7.5 7.5 7.5s7.5-3.357 7.5-7.5v-94.591c.508.078 1.016.156 1.519.236 2.6.414 5.237.833 7.789.833 3.312 0 6.479-.707 9.227-3.052 4.699-4.012 4.699-10.242 4.699-12.289 0-7.526-2.724-14.425-7.232-19.774 18.206-6.252 36.064-19.698 52.712-39.801 5.757 3.475 11.586 6.241 17.46 8.253-4.506 5.349-7.229 12.247-7.229 19.771 0 2.048 0 8.277 4.699 12.289 4.863 4.149 11.041 3.17 17.015 2.219.502-.08 1.011-.158 1.52-.236v126.142c0 4.143 3.357 7.5 7.5 7.5s7.5-3.357 7.5-7.5v-126.141c.508.078 1.017.156 1.52.236 2.6.414 5.236.833 7.788.833 3.312 0 6.479-.707 9.227-3.052 4.699-4.012 4.699-10.241 4.699-12.289 0-7.539-2.733-14.448-7.255-19.801 5.857-2.018 11.687-4.778 17.454-8.263 16.657 20.124 34.526 33.584 52.744 39.841-4.508 5.349-7.232 12.248-7.232 19.774 0 2.047 0 8.277 4.699 12.289 2.748 2.345 5.914 3.052 9.227 3.052 2.552 0 5.189-.42 7.789-.833.502-.08 1.011-.158 1.519-.236v94.59c0 4.143 3.357 7.5 7.5 7.5s7.5-3.357 7.5-7.5v-94.591c.508.078 1.017.156 1.52.236 5.975.951 12.152 1.932 17.016-2.219 4.699-4.012 4.699-10.242 4.699-12.289 0-7.532-2.728-14.435-7.242-19.786 26.704-9.165 52.567-33.703 74.608-71.351 23.664-40.423 39.628-91.506 40.668-130.139.11-4.139-3.156-7.587-7.297-7.698zm-350.1 229.274c-1.278-.115-2.982-.386-4.356-.604-3.174-.505-7.124-1.133-11.374-1.133-4.251 0-8.2.628-11.375 1.133-1.374.219-3.078.489-4.356.604-.002-.095-.003-.194-.003-.299 0-8.676 7.059-15.733 15.734-15.733s15.733 7.058 15.733 15.733c0 .104-.001.204-.003.299zm117.178-31.551c-1.278-.115-2.981-.386-4.355-.604-3.174-.505-7.124-1.133-11.375-1.133s-8.201.628-11.375 1.133c-1.374.219-3.077.489-4.355.604-.002-.095-.003-.194-.003-.299 0-8.676 7.058-15.733 15.733-15.733 8.676 0 15.733 7.058 15.733 15.733 0 .104-.001.204-.003.299zm117.18 31.551c-1.278-.115-2.982-.386-4.356-.604-3.175-.505-7.124-1.133-11.375-1.133-4.25 0-8.2.628-11.374 1.133-1.375.219-3.078.489-4.356.604-.002-.095-.003-.194-.003-.299 0-8.676 7.058-15.733 15.733-15.733s15.734 7.058 15.734 15.733c0 .104-.001.204-.003.299z"/></g></svg>