<svg height="512pt" viewBox="0 0 512.00011 512" width="512pt" xmlns="http://www.w3.org/2000/svg"><path d="m468.625 118.167969c-18.699219-18.703125-12.949219-24.453125-31.648438-43.15625-18.699218-18.699219-24.449218-12.945313-43.148437-31.644531-14.414063-14.414063-14.3125-21.136719-22.066406-32.023438-3.332031-4.679688-10.046875-5.195312-13.308594-.96875-35.691406 46.230469-22.042969 122.960938-22.042969 122.960938l1.128906 21.898437 19.222657 19.222656 21.898437 1.128907s76.730469 13.652343 122.960938-22.039063c4.226562-3.265625 3.710937-9.980469-.96875-13.3125-10.886719-7.757813-17.613282-7.65625-32.027344-22.066406zm0 0" fill="#cc98e8"/><path d="m500.652344 140.234375c-7.082032-5.046875-12.40625-6.765625-19.226563-11.324219-46.386719 34.710938-125.050781 24.386719-125.050781 24.386719l-18.984375-.976563.148437 2.914063 19.226563 19.222656 21.894531 1.128907s76.734375 13.648437 122.960938-22.042969c4.226562-3.261719 3.710937-9.976563-.96875-13.308594zm0 0" fill="#bf80e2"/><path d="m118.167969 468.625c-18.699219-18.699219-24.453125-12.949219-43.152344-31.652344-18.699219-18.699218-12.949219-24.449218-31.648437-43.148437-14.410157-14.410157-21.136719-14.308594-32.019532-22.0625-4.683594-3.335938-5.199218-10.046875-.972656-13.3125 46.230469-35.691407 122.960938-22.039063 122.960938-22.039063l21.898437 1.128906 19.222656 19.222657 1.128907 21.898437s13.652343 76.730469-22.039063 122.960938c-3.261719 4.226562-9.976563 3.710937-13.3125-.96875-7.753906-10.886719-7.652344-17.613282-22.066406-32.027344zm0 0" fill="#cc98e8"/><path d="m153.546875 501.621094c35.691406-46.230469 22.039063-122.960938 22.039063-122.960938l-1.128907-21.898437-19.222656-19.222657-2.914063-.152343.980469 18.984375s10.558594 78.734375-24.363281 125.085937c4.539062 6.804688 6.261719 12.121094 11.300781 19.195313 3.332031 4.679687 10.046875 5.195312 13.308594.96875zm0 0" fill="#bf80e2"/><path d="m359.546875 152.445312c-57.1875-57.191406-149.914063-57.191406-207.101563 0-57.191406 57.191407-57.191406 149.914063 0 207.105469 57.1875 57.1875 149.914063 57.1875 207.101563 0 57.191406-57.191406 57.191406-149.914062 0-207.105469zm0 0" fill="#ff94d4"/><g fill="#ff73c6"><path d="m359.554688 152.445312c-3.828126-3.828124-7.8125-7.394531-11.933594-10.707031 46.226562 57.503907 42.65625 141.808594-10.707032 195.171875-53.367187 53.363282-137.671874 56.933594-195.175781 10.707032 3.316407 4.125 6.882813 8.109374 10.710938 11.933593 57.191406 57.191407 149.914062 57.191407 207.105469 0 57.1875-57.191406 57.1875-149.914062 0-207.105469zm0 0"/><path d="m152.445312 359.550781c4.234376 4.234375 8.667969 8.144531 13.261719 11.753907v-230.613282c-4.59375 3.609375-9.027343 7.519532-13.261719 11.753906-57.1875 57.191407-57.1875 149.914063 0 207.105469zm0 0"/><path d="m346.421875 140.796875v230.402344c4.546875-3.578125 8.9375-7.457031 13.132813-11.648438 57.1875-57.191406 57.1875-149.914062 0-207.105469-4.195313-4.195312-8.585938-8.070312-13.132813-11.648437zm0 0"/></g><path d="m359.554688 152.445312c-3.816407-3.816406-7.796876-7.371093-11.90625-10.675781 43.28125 53.875 42.871093 131.25-1.226563 184.679688v44.75c4.550781-3.578125 8.9375-7.457031 13.132813-11.648438 57.1875-57.191406 57.1875-149.914062 0-207.105469zm0 0" fill="#ff4fb8"/><path d="m225.945312 112.660156v286.671875c19.851563 4.144531 40.390626 4.136719 60.238282-.027343v-286.617188c-19.847656-4.160156-40.386719-4.167969-60.238282-.027344zm0 0" fill="#ff73c6"/><path d="m286.183594 369.980469c-19.296875 7.449219-39.855469 10.660156-60.238282 9.632812v19.71875l.003907.011719c19.707031 4.113281 40.097656 4.132812 59.8125.058594.140625-.035156.28125-.066406.421875-.097656zm0 0" fill="#ff4fb8"/><path d="m505.007812 134.125c-11.5-8.191406-17.574218-7.761719-31.078124-21.261719-17.414063-17.414062-12.175782-23.679687-31.652344-43.15625-19.40625-19.40625-25.753906-14.253906-43.144532-31.644531-13.570312-13.570312-12.9375-19.382812-21.261718-31.070312-6.246094-8.769532-19.003906-9.425782-25.355469-1.199219-27.777344 35.976562-27.527344 88.035156-25.351563 113.609375-56.917968-29.738282-130.46875-21.8125-180.019531 27.738281-49.609375 49.609375-57.449219 123.195313-27.71875 180.058594-8-.667969-18.613281-1.144531-30.546875-.648438-34.707031 1.460938-62.660156 10.195313-83.085937 25.960938-8.273438 6.390625-7.519531 19.144531 1.203125 25.359375 11.636718 8.289062 30.859375 13.265625 45.566406 41.039062 9.453125 17.847656 22.566406 31.007813 40.519531 40.515625 27.777344 14.710938 32.757813 33.941407 41.046875 45.578125 6.203125 8.707032 18.953125 9.488282 25.355469 1.199219 27.777344-35.976563 27.527344-88.039063 25.351563-113.613281 56.917968 29.738281 130.46875 21.816406 180.019531-27.738282 49.613281-49.613281 57.445312-123.195312 27.722656-180.050781 38.613281 3.210938 83.078125-1.734375 113.628906-25.320312 8.273438-6.390625 7.519531-19.144531-1.199219-25.355469zm-347.257812 23.625.457031-.457031v142.980469c0 8.222656 15 8.390624 15 0v-155.894532c13.667969-10.183594 28.96875-17.679687 45.238281-22.21875v267.675782c-16.269531-4.539063-31.570312-12.035157-45.238281-22.21875v-37.074219c0-9.914063-15-9.929688-15 0v24.160156c-54.839843-54.359375-54.832031-142.578125-.457031-196.953125zm-10.0625 339.230469c-4.671875 1.753906-8.621094-30.171875-47.585938-50.808594-15.238281-8.070313-26.203124-19.023437-34.28125-34.28125-20.148437-38.050781-50.785156-42.421875-50.859374-47.503906 22.238281-17.167969 52.636718-21.894531 74.222656-22.832031 18.492187-.808594 33.898437.953124 40.011718 1.808593 1.480469 2.140625 3.019532 4.246094 4.613282 6.316407-12.113282 3.710937-27.941406 9.617187-42.082032 19.613281-8.179687 5.785156.632813 17.925781 8.660157 12.25 14.996093-10.605469 32.195312-16.035157 44.140625-19.367188 2.886718 3.027344 5.890625 5.9375 9.019531 8.734375-3.082031 11.457032-8.5 28.957032-19.476563 44.242188-5.835937 8.125 6.4375 16.75 12.183594 8.75 10.539063-14.671875 16.414063-30.660156 20.003906-42.78125.785157.566406 1.578126 1.128906 2.375 1.679687 1.9375 13.921875 8.539063 75.949219-20.945312 114.179688zm85.757812-103.847657v-274.269531c14.910157-2.417969 30.3125-2.417969 45.238282.019531v274.226563c-14.90625 2.4375-30.308594 2.445313-45.238282.023437zm120.804688-38.886718c-.109375.109375-.21875.21875-.328125.324218v-133.59375c0-9.914062-15-9.929687-15 0v146.542969c-13.664063 10.207031-28.964844 17.722657-45.238281 22.28125v-267.605469c16.273437 4.558594 31.574218 12.074219 45.238281 22.28125v46.484376c0 9.910156 15 9.929687 15 0v-33.535157c.109375.105469.21875.214844.328125.324219 54.300781 54.296875 54.304688 142.1875 0 196.496094zm28.554688-185.613282c-.550782-.796874-1.113282-1.589843-1.679688-2.378906 12.734375-3.765625 29.652344-10.027344 44.929688-21.585937 7.90625-5.984375-1.128907-17.953125-9.054688-11.964844-15.742188 11.914063-34.117188 17.621094-46.089844 20.84375-2.792968-3.125-5.699218-6.125-8.734375-9.023437 3.464844-12.417969 9.140625-30.355469 20.511719-45.71875 5.894531-7.96875-6.148438-16.902344-12.058594-8.921876-10.832031 14.632813-17.074218 31.269532-20.949218 43.921876-2.070313-1.59375-4.175782-3.128907-6.3125-4.609376-5.109376-36.582031-1.75-84.726562 20.945312-114.179687 3-1.121094 7.164062 16.605469 24.210938 33.652344 19.429687 19.429687 25.734374 14.234375 43.148437 31.648437 17.414063 17.414063 12.179687 23.675782 31.652344 43.152344 10.148437 10.148438 17.171875 13.871094 23.371093 17.15625 2.570313 1.363281 10.320313 5.363281 10.34375 6.984375-29.523437 22.792969-77.671874 26.125-114.234374 21.023437zm0 0"/></svg>