<svg id="icons" height="512" viewBox="0 0 64 64" width="512" xmlns="http://www.w3.org/2000/svg"><path d="m58.54061 19.91a14.93359 14.93359 0 0 1 0 21.29l-21.54 21.3h-5l21.54-21.3a14.93238 14.93238 0 0 0 2.72-17.64l1.5-4.37h.01c.26.23.52.47.77.72z" fill="#d3374e"/><path d="m34.54061 41.05-7.54 7.45-18-17.8-2.77-2.74-.74-.73c-.01-.01-.02-.02-.03-.02a14.93694 14.93694 0 0 1 -2.61-17.85z" fill="#ed5565"/><path d="m12.61061 39.11 19.39 19.17 19.43-19.21a11.96343 11.96343 0 0 0 2.84-12.64 15.2118 15.2118 0 0 0 1.99-2.87 14.93238 14.93238 0 0 1 -2.72 17.64l-21.54 21.3-21.51-21.27c-.01-.01-.02-.02-.03-.02a14.95982 14.95982 0 0 1 -4.23-13.25l2.77 2.74a11.89733 11.89733 0 0 0 3.54 8.34z" fill="#da4453"/><path d="m27.00061 48.5h1a4 4 0 1 0 6.85-2.81l2.35-2.33a3.99926 3.99926 0 0 0 5.69-5.62l2.36-2.34a3.99713 3.99713 0 0 0 5.68-5.62l2.61-2.58c.25-.25.5-.51.73-.77a11.96343 11.96343 0 0 1 -2.84 12.64l-19.43 19.21-19.39-19.17-.07-.07a11.89733 11.89733 0 0 1 -3.54-8.34z" fill="#e6e9ed"/><path d="m42.89061 37.74a3.95271 3.95271 0 0 1 1.11 2.76 4.00249 4.00249 0 0 1 -6.8 2.86z" fill="#965353"/><path d="m50.93061 29.78a3.99709 3.99709 0 0 1 -5.68 5.62z" fill="#965353"/><path d="m42.99061 1.5a15.22171 15.22171 0 0 1 10.55 4.41 14.89294 14.89294 0 0 1 4.46 10.65 14.53786 14.53786 0 0 1 -.24 2.63l-1.5 4.37a15.2118 15.2118 0 0 1 -1.99 2.87c-.23.26-.48.52-.73.77l-2.61 2.58-5.68 5.62-2.36 2.34-5.69 5.62-2.35 2.33-2.85 2.81h-5l7.54-7.45 4.02-3.98 9.98-9.87a14.93359 14.93359 0 0 0 0-21.29 15.24972 15.24972 0 0 0 -10.54-4.4v-.01z" fill="#da4453"/><circle cx="38.001" cy="16.5" fill="#f6bb42" r="2"/><path d="m38.56061 37.07-4.02 3.98-31.69-31.69a15.011 15.011 0 0 1 2.61-3.45c.33-.32.67-.63 1.02-.92z" fill="#e6e9ed"/><path d="m34.85061 45.69a4.001 4.001 0 1 1 -6.85 2.81h4z" fill="#965353"/><path d="m40.00061 16.5a2 2 0 1 0 -2 2 1.99944 1.99944 0 0 0 2-2zm3.2-3a2.39193 2.39193 0 0 1 -.5 3 2.39193 2.39193 0 0 1 .5 3 2.4177 2.4177 0 0 1 -2.85 1.08 2.39815 2.39815 0 0 1 -4.7 0 2.40066 2.40066 0 0 1 -2.35-4.08 2.39479 2.39479 0 0 1 2.35-4.07 2.3957 2.3957 0 0 1 4.7 0 2.40055 2.40055 0 0 1 2.85 1.07z" fill="#ffce54"/><path d="m48.54061 5.91a14.93359 14.93359 0 0 1 0 21.29l-9.98 9.87-32.08-32.08a15.35992 15.35992 0 0 1 20.52.92 15.37672 15.37672 0 0 1 21.54 0zm-5.84 10.59a2.39479 2.39479 0 0 0 -2.35-4.07 2.3957 2.3957 0 0 0 -4.7 0 2.39479 2.39479 0 0 0 -2.35 4.07 2.40066 2.40066 0 0 0 2.35 4.08 2.39815 2.39815 0 0 0 4.7 0 2.4177 2.4177 0 0 0 2.85-1.08 2.39193 2.39193 0 0 0 -.5-3z" fill="#ed5565"/><path d="m32.001 59.2832a.99945.99945 0 0 1 -.70313-.28906l-19.39455-19.17578a12.95738 12.95738 0 0 1 -3.90234-9.102 1.00007 1.00007 0 0 1 2-.02442 10.91732 10.91732 0 0 0 3.24218 7.64006c.00684.00586.08106.0791.08692.085l18.67092 18.46 18.72656-18.5166a10.96062 10.96062 0 0 0 2.60351-11.58252 1 1 0 0 1 1.877-.69043 12.95978 12.95978 0 0 1 -3.07422 13.69483l-19.42975 19.21186a.99776.99776 0 0 1 -.7031.28906z"/><path d="m32.001 63.502a.99945.99945 0 0 1 -.70313-.28906l-21.51467-21.27349a15.98834 15.98834 0 0 1 -4.541-14.15185 1 1 0 1 1 1.96972.34668 13.98108 13.98108 0 0 0 3.95215 12.36084l20.83693 20.60058 20.83591-20.60156a13.87236 13.87236 0 0 0 2.53909-16.46777.99977.99977 0 1 1 1.76562-.93848 15.85909 15.85909 0 0 1 -2.89846 18.82811l-21.53906 21.29689a.99776.99776 0 0 1 -.7031.28911z"/><path d="m37.001 63.502a1 1 0 0 1 -.70313-1.71093l21.53904-21.29693a13.93989 13.93989 0 0 0 -.001-19.874q-.35157-.34863-.72266-.667a1.00029 1.00029 0 0 1 1.30475-1.51662q.42335.364.82519.76221a15.93982 15.93982 0 0 1 0 22.71729l-21.53909 21.29687a.99945.99945 0 0 1 -.7031.28911z"/><path d="m37.001 63.502h-5a1 1 0 0 1 0-2h5a1 1 0 0 1 0 2z"/><path d="m27.001 49.502a.99778.99778 0 0 1 -.70313-.28906l-21.51467-21.27349a15.93691 15.93691 0 0 1 -.02539-22.7417 16.37937 16.37937 0 0 1 22.24219-.65527 16.38046 16.38046 0 0 1 22.24219.65527 15.93926 15.93926 0 0 1 .001 22.71778l-21.53909 21.29736a.99776.99776 0 0 1 -.7031.28911zm-10.76955-46.99809a14.27714 14.27714 0 0 0 -10.06739 4.11572 13.9405 13.9405 0 0 0 0 19.87549l20.83694 20.60058 20.83591-20.60205a13.93989 13.93989 0 0 0 -.001-19.874 14.3677 14.3677 0 0 0 -20.13181-.00051 1.00088 1.00088 0 0 1 -1.40625 0 14.2798 14.2798 0 0 0 -10.0664-4.11523z"/><path d="m32.001 49.502a1 1 0 0 1 -.70313-1.71093l21.53904-21.29742a13.93989 13.93989 0 0 0 -.001-19.874 14.23753 14.23753 0 0 0 -9.85837-4.11965 1.00011 1.00011 0 0 1 .0293-2 16.2292 16.2292 0 0 1 11.23535 4.69775 15.93926 15.93926 0 0 1 .001 22.71778l-21.53909 21.29736a.99945.99945 0 0 1 -.7031.28911z"/><path d="m42.99219 2.49805h-4.99219a1 1 0 0 1 0-2h4.99219a1 1 0 0 1 0 2z"/><path d="m32.001 49.502h-5a1 1 0 1 1 0-2h5a1 1 0 0 1 0 2z"/><path d="m32 53.502a5.00588 5.00588 0 0 1 -5-5 1 1 0 1 1 2 0 3 3 0 1 0 5.13379-2.10937.99991.99991 0 1 1 1.42187-1.40625 5.00023 5.00023 0 0 1 -3.55566 8.51562z"/><path d="m40 45.502a4.96938 4.96938 0 0 1 -3.498-1.42871.99994.99994 0 1 1 1.40039-1.42773 3.00015 3.00015 0 0 0 4.26561-4.2188.99943.99943 0 1 1 1.44333-1.38276 4.99995 4.99995 0 0 1 -3.61133 8.458z"/><path d="m48 37.502a4.98183 4.98183 0 0 1 -3.44043-1.37207 1.00024 1.00024 0 1 1 1.377-1.45117 2.99974 2.99974 0 0 0 4.26363-4.21636 1.00025 1.00025 0 0 1 1.4668-1.36035 5.00065 5.00065 0 0 1 -3.667 8.39995z"/><path d="m38.55957 38.07324a.99672.99672 0 0 1 -.707-.293l-32.083-32.083a.99989.99989 0 1 1 1.41402-1.41404l32.083 32.083a1 1 0 0 1 -.707 1.707z"/><path d="m34.53711 42.05078a.99672.99672 0 0 1 -.707-.293l-31.68948-31.68991a.99989.99989 0 0 1 1.41406-1.41406l31.68945 31.68994a1 1 0 0 1 -.707 1.707z"/><path d="m38 23.502a3.40864 3.40864 0 0 1 -3-1.80273 3.39915 3.39915 0 0 1 -3.001-5.19727 3.3987 3.3987 0 0 1 3.001-5.19731 3.39839 3.39839 0 0 1 6.001 0 3.39913 3.39913 0 0 1 3.001 5.19731 3.39871 3.39871 0 0 1 -3.001 5.19727 3.409 3.409 0 0 1 -3.001 1.80273zm-2.35156-3.92578a1.00082 1.00082 0 0 1 .98047.80371 1.39932 1.39932 0 0 0 2.74316 0 1.00033 1.00033 0 0 1 1.30078-.751 1.3997 1.3997 0 0 0 1.37207-2.376.99967.99967 0 0 1 0-1.50195 1.39983 1.39983 0 0 0 -1.37207-2.376 1.00033 1.00033 0 0 1 -1.30078-.751 1.39932 1.39932 0 0 0 -2.74316 0 1.00033 1.00033 0 0 1 -1.30078.751 1.39971 1.39971 0 0 0 -1.37208 2.376.99965.99965 0 0 1 0 1.50195 1.39983 1.39983 0 0 0 1.37208 2.376 1.00535 1.00535 0 0 1 .32031-.05276z"/><path d="m38 19.502a3 3 0 1 1 3-3 3.00328 3.00328 0 0 1 -3 3zm0-4a1 1 0 1 0 1 1 1.001 1.001 0 0 0 -1-1z"/></svg>