<?xml version="1.0"?>
<svg xmlns="http://www.w3.org/2000/svg" xmlns:xlink="http://www.w3.org/1999/xlink" xmlns:svgjs="http://svgjs.com/svgjs" version="1.1" width="512" height="512" x="0" y="0" viewBox="0 0 512 512" style="enable-background:new 0 0 512 512" xml:space="preserve" class=""><g>
<g xmlns="http://www.w3.org/2000/svg">
	<g>
		<rect x="7.5" y="158.951" style="" width="497" height="82.982" fill="#ffa726" data-original="#ffa726" class=""/>
	</g>
	<g>
		<rect x="7.5" y="271.933" style="" width="497" height="82.982" fill="#ffa726" data-original="#ffa726" class=""/>
	</g>
	<g>
		<rect x="7.5" y="384.915" style="" width="497" height="82.982" fill="#ffa726" data-original="#ffa726" class=""/>
	</g>
	<g>
		<path style="" d="M464.5,158.951v22.622c0,22.29-18.07,40.359-40.359,40.359H7.5v20h497v-82.982H464.5z" fill="#f57c00" data-original="#f57c00" class=""/>
	</g>
	<g>
		<path style="" d="M464.5,271.933v22.622c0,22.29-18.07,40.359-40.359,40.359H7.5v20h497v-82.982H464.5z" fill="#f57c00" data-original="#f57c00" class=""/>
	</g>
	<g>
		<path style="" d="M464.5,384.915v22.623c0,22.29-18.07,40.359-40.359,40.359H7.5v20h497v-82.982H464.5z" fill="#f57c00" data-original="#f57c00" class=""/>
	</g>
	<g>
		<rect x="14.143" y="241.933" style="" width="34.714" height="30" fill="#ffa726" data-original="#ffa726" class=""/>
	</g>
	<g>
		<rect x="14.143" y="354.915" style="" width="34.714" height="30" fill="#ffa726" data-original="#ffa726" class=""/>
	</g>
	<g>
		<rect x="463.143" y="241.933" style="" width="34.714" height="30" fill="#ffa726" data-original="#ffa726" class=""/>
	</g>
	<g>
		<rect x="463.143" y="354.915" style="" width="34.714" height="30" fill="#ffa726" data-original="#ffa726" class=""/>
	</g>
	<g>
		<path style="" d="M145.752,44.103H90.057c-1.598,0-2.894,1.295-2.894,2.893c0,5.532,0,27.758,0,33.289    c0,1.598,1.296,2.893,2.894,2.893h55.695c1.598,0,2.894-1.296,2.894-2.894V46.997C148.646,45.399,147.35,44.103,145.752,44.103z" fill="#b0bec5" data-original="#b0bec5"/>
	</g>
	<g>
		<path style="" d="M283.847,44.103h-55.695c-1.598,0-2.894,1.295-2.894,2.893c0,5.532,0,27.758,0,33.289    c0,1.598,1.296,2.893,2.894,2.893h55.695c1.598,0,2.894-1.296,2.894-2.894V46.997C286.741,45.399,285.446,44.103,283.847,44.103z" fill="#b0bec5" data-original="#b0bec5"/>
	</g>
	<g>
		<path style="" d="M421.943,44.103h-55.695c-1.598,0-2.894,1.295-2.894,2.893c0,5.532,0,27.758,0,33.289    c0,1.598,1.296,2.893,2.894,2.893h55.695c1.598,0,2.894-1.296,2.894-2.894V46.997C424.836,45.399,423.541,44.103,421.943,44.103z" fill="#b0bec5" data-original="#b0bec5"/>
	</g>
	<g>
		<path style="" d="M145.752,44.103h-17.106v6.783c0,6.79-5.504,12.293-12.293,12.293H87.164    c0,7.091,0,14.279,0,17.107c0,1.598,1.296,2.893,2.894,2.893h55.695c1.598,0,2.894-1.296,2.894-2.894V46.997    C148.646,45.399,147.35,44.103,145.752,44.103z" fill="#78909c" data-original="#78909c" class=""/>
	</g>
	<g>
		<path style="" d="M283.847,44.103h-17.106v6.783c0,6.79-5.504,12.293-12.294,12.293h-29.189    c0,7.091,0,14.279,0,17.107c0,1.598,1.296,2.893,2.894,2.893h55.695c1.598,0,2.894-1.296,2.894-2.894V46.997    C286.741,45.399,285.446,44.103,283.847,44.103z" fill="#78909c" data-original="#78909c" class=""/>
	</g>
	<g>
		<path style="" d="M421.943,44.103h-17.106v6.783c0,6.79-5.504,12.293-12.293,12.293h-29.189v17.107    c0,1.598,1.295,2.893,2.893,2.893h55.695c1.598,0,2.894-1.296,2.894-2.894V46.997C424.836,45.399,423.541,44.103,421.943,44.103z" fill="#78909c" data-original="#78909c" class=""/>
	</g>
	<g>
		<path style="" d="M48.857,158.951c0-18.617,11.017-35.182,27.72-42.541l6.758-2.978    c4.93-2.172,8.112-7.051,8.112-12.439V83.179h52.913v17.814c0,5.388,3.182,10.267,8.112,12.439l6.759,2.978    c16.847,7.423,27.72,24.095,27.72,42.505C186.952,159.015,191.935,158.951,48.857,158.951z M186.952,271.933v-30H48.857v30    H186.952z M48.857,354.915v30h138.095v-30H48.857z" fill="#aef0ff" data-original="#9ccc65" class=""/>
	</g>
	<g>
		<path style="" d="M325.048,354.915v30H186.952v-30H325.048z M325.048,158.951c0-18.617-11.017-35.182-27.72-42.541    l-6.758-2.978c-4.93-2.172-8.112-7.051-8.112-12.439V83.179h-52.913v17.814c0,5.388-3.182,10.267-8.112,12.439l-6.758,2.978    c-16.847,7.423-27.72,24.095-27.72,42.505C186.952,159.015,181.969,158.951,325.048,158.951z M325.048,271.933v-30H186.952v30    H325.048z" fill="#aef0ff" data-original="#ff7043" class=""/>
	</g>
	<g>
		<path style="" d="M463.143,354.915v30H325.048v-30H463.143z M463.143,158.951c0-18.619-11.019-35.183-27.72-42.541    l-6.758-2.978c-4.93-2.172-8.112-7.051-8.112-12.439V83.179h-52.913v17.814c0,5.388-3.182,10.267-8.112,12.439l-6.758,2.978    c-16.847,7.423-27.72,24.095-27.72,42.505C325.048,159.015,320.065,158.951,463.143,158.951z M463.143,271.933v-30H325.048v30    H463.143z" fill="#aef0ff" data-original="#ffee58" class=""/>
	</g>
	<g>
		<path style="" d="M131.952,256.933H48.857v15h138.095v-30c-41.233,0-40,0.1-40,0    C146.952,250.217,140.237,256.933,131.952,256.933z" fill="#aef0ff" data-original="#689f38" class=""/>
	</g>
	<g>
		<path style="" d="M131.952,369.915H48.857v15h138.095v-30c-41.233,0-40,0.1-40,0    C146.952,363.199,140.237,369.915,131.952,369.915z" fill="#aef0ff" data-original="#689f38" class=""/>
	</g>
	<g>
		<path style="" d="M159.232,116.41l-6.758-2.978c-4.93-2.172-8.112-7.051-8.112-12.439V83.179h-40v2.814    c0,5.388,3.182,10.267,8.112,12.439c9.093,4.006,20.777,8.301,28.945,23.495c5.345,9.942-1.924,21.991-13.212,21.995    l-76.875,0.029c-1.633,4.796-2.475,9.83-2.475,15c144.677,0,138.095-0.136,138.095-0.036    C186.952,140.505,176.079,123.833,159.232,116.41z" fill="#aef0ff" data-original="#689f38" class=""/>
	</g>
	<g>
		<path style="" d="M270.048,369.915h-83.095v15h138.095v-30c-41.233,0-40,0.1-40,0    C285.048,363.199,278.332,369.915,270.048,369.915z" fill="#aef0ff" data-original="#e64a19" class=""/>
	</g>
	<g>
		<path style="" d="M297.327,116.41l-6.758-2.978c-4.93-2.172-8.112-7.051-8.112-12.439V83.179h-40v2.814    c0,5.388,3.182,10.267,8.112,12.439c9.093,4.006,20.777,8.302,28.945,23.495c5.345,9.942-1.924,21.991-13.212,21.995    l-76.875,0.029c-1.633,4.796-2.475,9.83-2.475,15c144.677,0,138.095-0.136,138.095-0.036    C325.048,140.505,314.174,123.833,297.327,116.41z" fill="#aef0ff" data-original="#e64a19" class=""/>
	</g>
	<g>
		<path style="" d="M270.048,256.933h-83.095v15h138.095v-30c-41.233,0-40,0.1-40,0    C285.048,250.217,278.332,256.933,270.048,256.933z" fill="#aef0ff" data-original="#e64a19" class=""/>
	</g>
	<g>
		<path style="" d="M408.143,369.915h-83.095v15h138.095v-30c-41.233,0-40,0.1-40,0    C423.143,363.199,416.427,369.915,408.143,369.915z" fill="#aef0ff" data-original="#fbc02d" class=""/>
	</g>
	<g>
		<path style="" d="M435.423,116.41l-6.759-2.978c-4.93-2.172-8.112-7.051-8.112-12.439V83.179h-40v2.814    c0,5.388,3.182,10.267,8.112,12.439c9.093,4.006,20.777,8.302,28.945,23.495c5.345,9.942-1.924,21.991-13.212,21.995    l-76.875,0.029c-1.633,4.796-2.475,9.83-2.475,15c144.677,0,138.095-0.136,138.095-0.036    C463.143,140.505,452.27,123.833,435.423,116.41z" fill="#aef0ff" data-original="#fbc02d" class=""/>
	</g>
	<g>
		<path style="" d="M408.143,256.933h-83.095v15h138.095v-30c-41.233,0-40,0.1-40,0    C423.143,250.217,416.427,256.933,408.143,256.933z" fill="#aef0ff" data-original="#fbc02d" class=""/>
	</g>
	<g>
		<path d="M512,241.934v-82.982c0-4.143-3.357-7.5-7.5-7.5h-34.382c-2.56-18.329-14.421-34.304-31.672-41.904    c-12.083-5.324-10.395-3.038-10.395-20.872c5.59-4.081,4.284-6.364,4.284-41.678c0-5.731-4.662-10.395-10.394-10.395h-55.694    c-5.731,0-10.394,4.662-10.394,10.394c0,35.685-1.309,37.595,4.284,41.679c0,10.451,1.281,15.726-3.636,17.894    c-9.493,4.182-21.947,8.822-31.453,24.929c-9.375-15.877-21.882-20.71-31.456-24.929c-4.419-1.948-3.637-4.854-3.637-17.894    c5.59-4.081,4.284-6.364,4.284-41.678c0-5.731-4.662-10.395-10.394-10.395h-55.695c-5.731,0-10.394,4.662-10.394,10.394    c0,35.685-1.309,37.595,4.285,41.679v12.318c0,10.087-19.874,4.727-35.089,30.505c-15.124-25.615-35.093-20.456-35.093-30.505    V88.675c5.59-4.081,4.285-6.364,4.285-41.678c0-5.731-4.663-10.395-10.394-10.395H90.058c-5.731,0-10.394,4.662-10.394,10.394    c0,35.685-1.309,37.595,4.285,41.679c0,18.08,1.624,15.576-10.395,20.871c-17.252,7.601-29.113,23.576-31.672,41.904H7.5    c-4.142,0-7.5,3.357-7.5,7.5v82.982c0,3.852,2.905,7.022,6.643,7.448v15.105C2.905,264.912,0,268.081,0,271.934v82.981    c0,3.852,2.905,7.022,6.643,7.448v15.105C2.905,377.893,0,381.063,0,384.915v82.982c0,4.143,3.358,7.5,7.5,7.5h497    c4.143,0,7.5-3.357,7.5-7.5v-82.982c0-3.852-2.905-7.022-6.643-7.448v-15.105c3.738-0.426,6.643-3.595,6.643-7.448v-82.981    c0-3.852-2.905-7.022-6.643-7.448v-15.105C509.095,248.955,512,245.786,512,241.934z M490.357,377.415h-19.715v-15h19.715V377.415    z M332.548,377.415v-15h55.595c9.915,0,9.931-15,0-15H15v-67.981h482v67.981h-73.857c-9.915,0-9.931,15,0,15h32.5v15H332.548z     M194.452,377.415v-15h123.096v15H194.452z M41.357,377.415H21.643v-15h19.714V377.415z M21.643,249.434h19.714v15H21.643V249.434    z M179.452,249.434v15H56.357v-15H179.452z M317.548,249.434v15H194.452v-15H317.548z M455.643,249.434v15H332.548v-15H455.643z     M490.357,264.434h-19.715v-15h19.715V264.434z M370.854,51.603h46.481v24.076h-46.481V51.603z M355.791,123.273    c20.817-9.169,19.348-14.624,19.348-32.595h37.913c0,24.416,3.767,25.731,19.347,32.595c11.797,5.198,20.084,15.825,22.499,28.178    H333.293C335.708,139.099,343.995,128.471,355.791,123.273z M232.759,51.603h46.482v24.076h-46.482V51.603z M94.664,51.603h46.482    v24.076H94.664V51.603z M79.602,123.273c20.817-9.17,19.347-14.624,19.347-32.595h37.913c0,24.416,3.768,25.731,19.347,32.595    c11.79,5.195,20.074,15.813,22.495,28.178h-121.6C59.518,139.099,67.804,128.471,79.602,123.273z M15,166.451h247.714    c9.915,0,9.931-15,0-15h-67.516c2.415-12.352,10.702-22.98,22.499-28.178c15.503-6.829,19.347-7.923,19.347-32.595h37.914    c0,17.631-1.524,23.399,19.346,32.595c11.798,5.198,20.085,15.825,22.5,28.178h-19.088c-9.915,0-9.931,15,0,15H497v67.982H15    V166.451z M497,460.397H15v-67.982h58.286c9.916,0,9.93-15,0-15H56.357v-15h123.095v15h-71.167c-9.916,0-9.93,15,0,15H497V460.397    z" fill="#000000" data-original="#000000" style="" class=""/>
		<circle cx="31.507" cy="182.961" r="7.495" fill="#000000" data-original="#000000" style="" class=""/>
		<circle cx="31.507" cy="217.94" r="7.495" fill="#000000" data-original="#000000" style="" class=""/>
		<circle cx="31.507" cy="296.107" r="7.495" fill="#000000" data-original="#000000" style="" class=""/>
		<circle cx="31.507" cy="331.086" r="7.495" fill="#000000" data-original="#000000" style="" class=""/>
		<circle cx="31.507" cy="409.253" r="7.495" fill="#000000" data-original="#000000" style="" class=""/>
		<circle cx="31.507" cy="444.232" r="7.495" fill="#000000" data-original="#000000" style="" class=""/>
		<circle cx="480.487" cy="182.961" r="7.495" fill="#000000" data-original="#000000" style="" class=""/>
		<circle cx="480.487" cy="217.94" r="7.495" fill="#000000" data-original="#000000" style="" class=""/>
		<circle cx="480.487" cy="296.107" r="7.495" fill="#000000" data-original="#000000" style="" class=""/>
		<circle cx="480.487" cy="331.086" r="7.495" fill="#000000" data-original="#000000" style="" class=""/>
		<circle cx="480.487" cy="409.253" r="7.495" fill="#000000" data-original="#000000" style="" class=""/>
		<circle cx="480.487" cy="444.232" r="7.495" fill="#000000" data-original="#000000" style="" class=""/>
	</g>
</g>















</g></svg>
