<svg id="Capa_1" enable-background="new 0 0 512.009 512.009" height="512" viewBox="0 0 512.009 512.009" width="512" xmlns="http://www.w3.org/2000/svg"><g><g><g><path d="m271.003 315.009v182c0 8.28-6.72 15-15 15s-15-6.72-15-15v-182c0-8.28 6.72-15 15-15s15 6.72 15 15z" fill="#704c55"/></g></g><path d="m271.003 315.009v182c0 8.28-6.72 15-15 15v-212c8.28 0 15 6.72 15 15z" fill="#5b362a"/><path d="m326.613 244.399-55.91-26.69-63.02 166.84 118.93-118.93c5.85-5.86 5.85-15.36 0-21.22z" fill="#6aa9ff"/><path d="m326.613 124.399c-5.86-5.85-15.36-5.85-21.22 0l-26.72 55.97 166.87 62.96z" fill="#fabe2c"/><path d="m451.003 255.009v120c0 13.41-16.22 19.99-25.61 10.61l-158.78-158.79c-5.93-5.93-5.765-15.445 0-21.21l12.06-25.25c24.1-1.86 55.45 5.82 93.67 23.01 25.312 11.38 53.133 26.834 73.2 39.95.368.519 5.46 4.253 5.46 11.68z" fill="#fed843"/><path d="m185.393 124.399c-5.85 5.86-5.85 15.36 0 21.22 5.34 5.33 46.42 38.52 58.1 39.93.132-.391-3.332 9.863 60.83-180.08z" fill="#59c36a"/><path d="m446.613 25.619-158.79 158.78c-2.93 2.93-6.77 4.4-10.61 4.4-46.156-4.445-30.343-2.832-33.72-3.25-6.87-26.12.8-63.47 22.85-111.2 11.198-24.25 25.865-50.356 37.98-68.88.519-.368 4.253-5.46 11.68-5.46h120c13.34 0 20.03 16.18 10.61 25.61z" fill="#97de3d"/><path d="m66.463 146.689 118.93 118.93c5.86 5.85 15.36 5.85 21.22 0 5.26-5.26 47.33-49.35 51.51-62.46z" fill="#ff435b"/><path d="m258.123 203.159c-8.95 4.51-19.64 6.76-32.04 6.76-22.94 0-51.72-7.71-86.06-23.12-38.86-17.43-70.91-38.37-72.25-39.25l-1.31-.86c-.368-.519-5.46-4.253-5.46-11.68v-120c0-13.35 16.19-20.02 25.61-10.6l158.78 158.78 3.74 10.93 8.87 25.89c.59.59.6 1.67.12 3.15z" fill="#ff7b4a"/><path d="m243.863 319.529c-10.921 23.103-24.807 47.631-36.18 65.02-.519.368-4.252 5.46-11.68 5.46h-120c-13.35 0-20.02-16.19-10.61-25.61l158.79-158.78c5.834-5.834 15.361-5.867 21.21 0l25.31 12.09c1.99 25.71-7.01 59.87-26.84 101.82z" fill="#7ed8f6"/><g><path d="m256.003 150.009c-24.81 0-45 20.19-45 45s20.19 45 45 45 45-20.19 45-45-20.19-45-45-45z" fill="#efffcc"/></g><path d="m301.003 195.009c0 24.81-20.19 45-45 45v-90c24.81 0 45 20.19 45 45z" fill="#d3f3c2"/></g></svg>