<svg id="Flat" height="512" viewBox="0 0 512 512" width="512" xmlns="http://www.w3.org/2000/svg"><path d="m400 23.687-320 320a11.309 11.309 0 0 0 0 16l-56 112 16 16 112-56a11.315 11.315 0 0 0 16 0l320-320z" fill="#fdd14b"/><path d="m91.667 165.461h384.666v124.451h-384.666z" fill="#fde575" transform="matrix(.707 -.707 .707 .707 -77.817 267.506)"/><g fill="#e4bc43"><path d="m112 399.687a7.979 7.979 0 0 1 -5.657-2.343l-32-32a8 8 0 0 1 11.314-11.315l32 32a8 8 0 0 1 -5.657 13.658z"/><path d="m175.029 257.461h33.941v124.451h-33.941z" transform="matrix(.707 -.707 .707 .707 -169.817 229.399)"/><path d="m359.029 73.461h33.941v124.451h-33.941z" transform="matrix(.707 -.707 .707 .707 14.183 305.614)"/><rect height="45.255" rx="16" transform="matrix(.707 -.707 .707 .707 -77.817 267.506)" width="147.078" x="210.461" y="205.059"/><path d="m152 439.687a7.979 7.979 0 0 1 -5.657-2.343l-16-16a8 8 0 0 1 11.314-11.315l16 16a8 8 0 0 1 -5.657 13.658z"/></g></svg>