<svg id="Capa_1" enable-background="new 0 0 512.002 512.002" height="512" viewBox="0 0 512.002 512.002" width="512" xmlns="http://www.w3.org/2000/svg"><g><g><path d="m209.681 399.255-32.762-31.421-4.9 45.129z" fill="#64acdc"/><path d="m302.321 399.255 32.767-31.435 4.895 45.143z" fill="#ff8b5a"/><path d="m235.982 384.251 20.04-40.08 20.04 40.08z" fill="#78c2a4"/><ellipse cx="256.022" cy="103.692" fill="#ead1ff" rx="72.144" ry="96.192"/><path d="m288.086 175.835c-39.844 0-72.144-43.067-72.144-96.192 0-27.055 8.406-51.46 21.89-68.938-31.021 10.765-53.954 48.254-53.954 92.986 0 53.125 32.3 96.192 72.144 96.192 19.553 0 37.26-10.411 50.254-27.254-5.821 2.021-11.895 3.206-18.19 3.206z" fill="#d6bdef"/><path d="m223.418 132.413c-13.301-51.433-55.355-85.04-93.93-75.064s-59.063 59.758-45.761 111.191c0 0 55.355 85.04 93.93 75.064s59.063-59.758 45.761-111.191z" fill="#fff0af"/><path d="m202.678 212.294c-38.575 9.976-80.629-23.632-93.93-75.064-6.774-26.193-4.747-51.926 3.932-72.223-27.338 18.189-40.153 60.226-28.953 103.533 13.301 51.433 55.355 85.04 93.93 75.064 18.93-4.896 33.467-19.409 41.829-38.968-5.129 3.414-10.713 6.082-16.808 7.658z" fill="#ffe07d"/><ellipse cx="358.472" cy="150.477" fill="#ff7d91" rx="96.192" ry="72.144" transform="matrix(.25 -.968 .968 .25 123.034 459.854)"/><path d="m371.451 228.351c-38.575-9.976-59.063-59.758-45.761-111.191 6.774-26.193 21.023-47.717 38.453-61.262-32.729 2.655-64.317 33.208-75.517 76.515-13.301 51.433 7.186 101.215 45.761 111.191 18.93 4.896 38.68-.751 55.477-13.803-6.141.499-12.318.126-18.413-1.45z" fill="#e15f78"/><path d="m214.819 260.914c-18.17-49.921-63.251-79.343-100.692-65.716s-53.063 65.144-34.893 115.065 60.993 77.364 98.434 63.737 55.321-63.165 37.151-113.086z" fill="#9bd7ee"/><path d="m201.831 342.415c-37.441 13.627-82.523-15.795-100.692-65.716-9.253-25.423-9.702-51.232-3.009-72.267-25.469 20.726-34.196 63.797-18.897 105.832 18.17 49.921 63.251 79.343 100.692 65.716 18.374-6.688 31.452-22.527 37.902-42.798-4.779 3.889-10.08 7.08-15.996 9.233z" fill="#7dc3ee"/><ellipse cx="365.018" cy="285.589" fill="#ffc269" rx="96.192" ry="72.144" transform="matrix(.342 -.94 .94 .342 -28.191 530.916)"/><path d="m370.474 364.348c-37.441-13.627-53.063-65.144-34.893-115.065 9.253-25.423 25.499-45.482 44.148-57.294-32.832-.494-67.204 26.891-82.503 68.925-18.17 49.921-2.548 101.438 34.893 115.065 18.374 6.688 38.574 2.96 56.544-8.422-6.161-.093-12.274-1.056-18.189-3.209z" fill="#ffa95f"/><ellipse cx="256.022" cy="255.995" fill="#afefa5" rx="72.144" ry="96.192"/><path d="m288.086 328.139c-39.844 0-72.144-43.067-72.144-96.192 0-27.055 8.406-51.46 21.89-68.938-31.021 10.765-53.954 48.254-53.954 92.986 0 53.125 32.3 96.192 72.144 96.192 19.553 0 37.26-10.411 50.254-27.254-5.821 2.02-11.895 3.206-18.19 3.206z" fill="#8ce1a4"/></g><path d="m443.396 236.944c-4.308-14.208-11.393-26.069-20.672-34.928 5.608-9.918 9.935-20.71 12.883-32.15 6.814-26.441 5.459-53.386-3.816-75.871-9.583-23.229-26.427-39.003-47.429-44.417-18.52-4.774-38.106-.925-55.929 10.821-12.837-36.494-41.033-60.399-72.411-60.399-31.382 0-59.574 23.903-72.41 60.4-17.823-11.745-37.406-15.594-55.929-10.821-21.002 5.413-37.846 21.187-47.429 44.417-9.275 22.484-10.631 49.429-3.816 75.872.45 1.746.938 3.495 1.449 5.198.975 3.249 3.955 5.346 7.181 5.346.714 0 1.44-.103 2.158-.318 3.968-1.19 6.219-5.372 5.028-9.339-.455-1.517-.889-3.075-1.291-4.631-12.205-47.358 5.947-93.124 40.463-102.02 34.519-8.895 72.528 22.395 84.733 69.752 2.539 9.849 3.803 19.777 3.785 29.567-7.678 5.068-14.744 11.797-20.936 20.054-5.064 6.753-9.319 14.277-12.742 22.348-23.13-19.864-50.528-26.49-74.747-17.675-20.381 7.418-35.621 24.747-42.913 48.793-7.059 23.276-5.802 50.226 3.537 75.884 9.339 25.659 25.7 47.111 46.068 60.404 13.809 9.012 28.375 13.607 42.521 13.607 3.133 0 6.243-.24 9.321-.693l-5.371 25.256c-.567 2.667.357 5.431 2.415 7.22 1.387 1.206 3.141 1.84 4.922 1.84.861 0 1.729-.148 2.564-.452l11.784-4.289 33.246 91.343c1.109 3.046 3.985 4.937 7.048 4.937.852 0 1.718-.146 2.564-.454 3.893-1.417 5.899-5.721 4.483-9.613l-33.246-91.343 11.783-4.289c2.562-.933 4.417-3.182 4.843-5.875s-.642-5.405-2.791-7.083l-20.353-15.899c3.808-2.354 7.391-5.123 10.714-8.301 2.993-2.863 3.099-7.611.236-10.604-2.863-2.994-7.611-3.099-10.604-.236-4.983 4.766-10.693 8.341-16.972 10.626-15.836 5.765-33.916 2.83-50.909-8.26-17.668-11.531-31.935-30.344-40.171-52.973-16.727-45.956-3.084-93.261 30.411-105.452 20.472-7.451 44.371-.339 64.274 19.014-2.986 11.009-4.545 22.721-4.545 34.735 0 27.306 8.037 53.06 22.63 72.518 12.083 16.111 27.489 26.414 44.294 29.873l-13.681 21.89c-1.445 2.312-1.521 5.226-.2 7.611 1.322 2.385 3.833 3.864 6.56 3.864h12.54v112.74c0 4.142 3.358 7.5 7.5 7.5s7.5-3.358 7.5-7.5v-112.739h12.54c2.727 0 5.238-1.479 6.56-3.864 1.321-2.385 1.245-5.299-.2-7.611l-13.681-21.89c8.266-1.702 16.195-5.054 23.554-9.946 6.233 12.447 15.058 22.352 25.784 28.989l-20.375 15.916c-2.149 1.679-3.217 4.391-2.791 7.083s2.281 4.942 4.843 5.875l11.783 4.289-33.244 91.336c-1.417 3.892.59 8.196 4.483 9.613.847.308 1.712.454 2.564.454 3.063 0 5.94-1.892 7.048-4.937l33.243-91.335 11.784 4.289c.835.304 1.703.452 2.564.452 1.781 0 3.535-.634 4.922-1.84 2.058-1.789 2.982-4.553 2.415-7.22l-5.371-25.256c3.078.453 6.188.693 9.321.693 14.144 0 28.713-4.596 42.521-13.607 20.368-13.293 36.729-34.745 46.068-60.404 9.342-25.66 10.598-52.609 3.54-75.885zm-261.227 164.344 2.554-12.011 9.677 7.559zm48.516-271.175c-6.141-23.826-18.3-44.783-34.535-59.821 9.9-33.214 33.644-55.292 59.872-55.292 26.225 0 49.972 22.08 59.872 55.292-16.234 15.038-28.394 35.995-34.534 59.82-1.034 4.011 1.38 8.101 5.391 9.134 4.01 1.032 8.1-1.379 9.134-5.391 6.01-23.319 18.391-43.423 34.861-56.609 15.841-12.681 33.555-17.348 49.872-13.143 34.517 8.896 52.668 54.662 40.463 102.019-2.449 9.503-5.976 18.474-10.476 26.773-3.211-1.866-6.588-3.458-10.123-4.745-23.9-8.697-51.749-1.905-74.706 17.671-3.423-8.069-7.677-15.593-12.741-22.344-15.077-20.103-35.325-31.174-57.013-31.174-7.31 0-14.455 1.263-21.295 3.7-.488-8.622-1.825-17.289-4.042-25.89zm-39.307 125.882c0-48.905 28.999-88.692 64.644-88.692s64.644 39.787 64.644 88.692-28.999 88.691-64.644 88.691c-35.645.001-64.644-39.786-64.644-88.691zm58.136 120.755 6.508-10.413 6.508 10.413zm68.088 20.086 9.677-7.559 2.554 12.011zm108.161-89.138c-8.236 22.629-22.502 41.442-40.171 52.973-16.993 11.09-35.071 14.024-50.909 8.26-13.219-4.811-23.887-15.493-30.433-30.296 3.086-3.064 6.023-6.44 8.785-10.122 14.594-19.458 22.631-45.212 22.631-72.518 0-12.025-1.562-23.747-4.553-34.766 19.667-19.065 44.02-26.344 64.24-18.984 33.494 12.192 47.137 59.498 30.41 105.453z"/></g></svg>