<svg id="Capa_1" enable-background="new 0 0 512 512" height="512" viewBox="0 0 512 512" width="512" xmlns="http://www.w3.org/2000/svg"><g><g><path clip-rule="evenodd" d="m24.855 287.62c20.043 109.415 115.92 192.327 231.159 192.327 28.264 0 55.366-4.989 80.455-14.116v-220.843c0 44.418-36.032 80.446-80.455 80.446-44.451 0-80.483-36.028-80.483-80.446v81.863c0 16.271-13.324 29.621-29.625 29.621-16.272 0-29.625-13.323-29.625-29.621v-73.756c0-14.003-11.425-25.426-25.401-25.426s-25.429 11.423-25.429 25.426v7.001c0 16.299-13.324 29.621-29.625 29.621-3.855 0-7.569-.737-10.971-2.097z" fill="#ffa96b" fill-rule="evenodd"/></g><g><path clip-rule="evenodd" d="m395.719 241.955v191.987c46.946-34.78 80.483-86.597 91.426-146.322-3.402 1.361-7.087 2.098-10.971 2.098-16.301 0-29.625-13.323-29.625-29.621v-18.141c0-13.975-11.425-25.398-25.401-25.398-14.005-.001-25.429 11.422-25.429 25.397z" fill="#ffa96b" fill-rule="evenodd"/></g><g><path clip-rule="evenodd" d="m116.281 253.095v73.756c0 16.299 13.352 29.621 29.625 29.621 16.301 0 29.625-13.351 29.625-29.621v-81.863c0-44.446 36.032-80.474 80.483-80.474 44.423 0 80.455 36.028 80.455 80.474v220.843 6.548c0 16.271 13.324 29.621 29.625 29.621s29.625-13.351 29.625-29.621v-38.437-191.987c0-13.975 11.425-25.398 25.429-25.398 13.976 0 25.401 11.423 25.401 25.398v18.141c0 16.299 13.324 29.621 29.625 29.621 3.884 0 7.569-.737 10.971-2.098 2.551-13.833 3.855-28.091 3.855-42.632 0-129.795-105.204-234.987-234.986-234.987-129.81 0-235.014 105.192-235.014 234.988 0 14.541 1.332 28.799 3.855 42.632 3.402 1.361 7.116 2.098 10.971 2.098 16.301 0 29.625-13.323 29.625-29.621v-7.001c0-14.003 11.453-25.426 25.429-25.426s25.401 11.422 25.401 25.425z" fill="#ffbdbc" fill-rule="evenodd"/></g><g><path d="m429.247 71.75c-46.269-46.269-107.791-71.75-173.232-71.75-65.453 0-126.985 25.481-173.257 71.749-46.274 46.268-71.758 107.793-71.758 173.239 0 56.549 19.734 111.724 55.567 155.36 3.505 4.267 9.806 4.887 14.075 1.382 4.268-3.505 4.887-9.806 1.382-14.074-21.163-25.771-36.199-55.931-44.243-87.988 20.945-1.023 37.67-18.38 37.67-39.572v-7.001c0-8.506 6.922-15.426 15.43-15.426 8.492 0 15.4 6.92 15.4 15.426v73.756c0 21.847 17.775 39.622 39.625 39.622s39.625-17.774 39.625-39.622v-25.218c16.599 20.596 42.026 33.8 70.483 33.8 28.445 0 53.86-13.2 70.454-33.792v157.058c-22.665 7.458-46.329 11.248-70.454 11.248-38.065 0-75.623-9.645-108.614-27.891-4.832-2.671-10.917-.922-13.591 3.911-2.673 4.833-.922 10.917 3.911 13.591 35.946 19.88 76.852 30.389 118.294 30.389 24.276 0 48.131-3.531 71.101-10.482 3.353 18.476 19.549 32.535 38.979 32.535 21.85 0 39.625-17.774 39.625-39.622v-33.493c28.323-21.922 51.85-50.12 68.206-81.862 17.966-34.864 27.075-72.558 27.075-112.035 0-65.445-25.482-126.969-71.753-173.238zm-173.232 243.683c-38.864 0-70.483-31.602-70.483-70.445 0-38.859 31.619-70.474 70.483-70.474 38.849 0 70.454 31.615 70.454 70.474 0 38.844-31.606 70.445-70.454 70.445zm149.704 97.459v-170.937c0-8.49 6.921-15.398 15.429-15.398 8.492 0 15.401 6.908 15.401 15.398v18.142c0 21.171 16.691 38.516 37.607 39.57-10.968 43.403-34.744 83.076-68.437 113.225zm70.455-133.175c-10.821 0-19.625-8.802-19.625-19.621v-18.142c0-19.519-15.881-35.398-35.401-35.398-19.535 0-35.429 15.879-35.429 35.398v230.424c0 10.819-8.804 19.622-19.625 19.622s-19.625-8.802-19.625-19.622v-227.39c0-49.888-40.577-90.474-90.454-90.474-49.893 0-90.483 40.586-90.483 90.474v81.863c0 10.819-8.804 19.622-19.625 19.622s-19.625-8.802-19.625-19.622v-73.756c0-19.534-15.881-35.426-35.4-35.426-19.536 0-35.43 15.892-35.43 35.426v7.001c0 10.819-8.804 19.621-19.625 19.621-.717 0-1.426-.048-2.128-.123-1.782-11.402-2.699-22.972-2.699-34.606 0-124.059 100.941-224.988 225.015-224.988 124.057 0 224.985 100.929 224.985 224.988 0 11.661-.939 23.228-2.732 34.612-.692.072-1.389.117-2.094.117z"/><path d="m152.483 150.772c-5.522 0-10 4.477-10 10v25.54c0 5.523 4.478 10 10 10s10-4.477 10-10v-25.54c0-5.523-4.477-10-10-10z"/><path d="m147.931 74.105c-3.904-3.905-10.237-3.905-14.142 0s-3.905 10.237.001 14.142l18.058 18.056c1.952 1.953 4.511 2.929 7.07 2.929s5.119-.977 7.071-2.929c3.905-3.905 3.905-10.237-.001-14.142z"/><path d="m106.909 134.176-18.03 18.056c-3.902 3.908-3.897 10.24.01 14.142 1.953 1.95 4.51 2.924 7.066 2.924 2.562 0 5.123-.979 7.076-2.934l18.03-18.056c3.902-3.908 3.897-10.24-.01-14.142-3.909-3.904-10.239-3.897-14.142.01z"/><path d="m273.108 87.52c5.522 0 10-4.477 10-10v-25.511c0-5.523-4.478-10-10-10s-10 4.477-10 10v25.511c0 5.523 4.478 10 10 10z"/><path d="m299.389 112.874h-25.543c-5.522 0-10 4.477-10 10s4.478 10 10 10h25.543c5.522 0 10-4.477 10-10s-4.478-10-10-10z"/><path d="m352.883 99.028c2.56 0 5.119-.977 7.071-2.929 3.905-3.905 3.905-10.237-.001-14.142l-18.058-18.056c-3.904-3.905-10.237-3.905-14.142 0s-3.905 10.237.001 14.142l18.059 18.057c1.952 1.952 4.51 2.928 7.07 2.928z"/><path d="m412.757 135.749c-5.522 0-10 4.477-10 10v25.511c0 5.523 4.478 10 10 10s10-4.477 10-10v-25.511c0-5.523-4.478-10-10-10z"/><path d="m356.019 125.156-18.059 18.056c-3.906 3.905-3.906 10.237-.001 14.143 1.952 1.953 4.512 2.929 7.071 2.929s5.118-.976 7.07-2.928l18.059-18.056c3.906-3.905 3.906-10.237.001-14.143-3.902-3.905-10.235-3.906-14.141-.001z"/><path d="m210.752 89.049-18.03 18.057c-3.902 3.908-3.897 10.24.011 14.142 1.952 1.95 4.509 2.924 7.065 2.924 2.562 0 5.123-.979 7.076-2.934l18.03-18.057c3.902-3.908 3.897-10.24-.011-14.142-3.907-3.904-10.238-3.897-14.141.01z"/><path d="m112.693 418.48c-3.905-3.905-10.223-3.892-14.128.014-3.905 3.905-3.892 10.251.014 14.157 1.953 1.953 4.512 2.929 7.071 2.929s5.118-.976 7.071-2.929c3.905-3.905 3.905-10.237 0-14.143z"/></g></g></svg>