<svg height="512" viewBox="0 0 58 50" width="512" xmlns="http://www.w3.org/2000/svg"><g id="Page-1" fill="none" fill-rule="evenodd"><g id="017---Chocolate" fill-rule="nonzero"><path id="Shape" d="m54 9 4 30.56c0 5.766-12.984 10.44-29 10.44s-29-4.674-29-10.44l4-30.56z" fill="#805333"/><ellipse id="Oval" cx="29" cy="9" fill="#a56a43" rx="25" ry="9"/><path id="Shape" d="m43.99 13.972c-.4894125-.0001143-.9068324-.3544334-.9864466-.837327s.2019729-.9524573.6654466-1.109673c3.193-1.085 4.331-2.274 4.331-3.025s-1.138-1.94-4.331-3.025c-.3476978-.10740068-.6096044-.39520574-.68384-.75146088-.0742355-.35625515.0509203-.7247153.3267826-.96205184s.6588783-.3060791 1.0000574-.17948728c4.701 1.596 5.688 3.555 5.688 4.918s-.987 3.322-5.688 4.918c-.1035587.0358787-.2124022.054132-.322.054z" fill="#f9c795"/><path id="Shape" d="m14.01 13.972c-.1095978.000132-.2184413-.0181213-.322-.054-4.701-1.596-5.688-3.555-5.688-4.918s.987-3.322 5.688-4.918c.3411791-.12659182.7241951-.05784926 1.0000574.17948728s.4010181.60579669.3267826.96205184c-.0742356.35625514-.3361422.6440602-.68384.75146088-3.193 1.085-4.331 2.274-4.331 3.025s1.138 1.94 4.331 3.025c.4634737.1572157.7450608.6267794.6654466 1.109673s-.4970341.8372127-.9864466.837327z" fill="#f9c795"/><ellipse id="Oval" cx="29" cy="9" fill="#cf976a" rx="13" ry="3"/><g fill="#603e26"><path id="Shape" d="m24 45h-.049c-.2651475-.0126864-.5143714-.1302742-.6927555-.3268531s-.2712895-.4560168-.2582445-.7211469l.29-6c.0451224-.5433085.5028675-.9591227 1.048-.952.2649656.0126906.5140321.1301392.6923876.326499.1783554.1963597.2713838.4555393.2586124.720501l-.29 6c-.0251004.5334619-.4649479.9530561-.999.953z"/><path id="Shape" d="m24.521 34h-.049c-.2649656-.0126906-.5140321-.1301392-.6923876-.326499-.1783554-.1963597-.2713838-.4555393-.2586124-.720501l.48-10c.0363244-.5473473.4986586-.968173 1.047-.953.2653247.0124292.5148039.1299054.6934016.3265131.1785977.1966076.2716389.4561915.2585984.7214869l-.48 10c-.0256168.5330682-.4653167.9520815-.999.952z"/><path id="Shape" d="m15 44c-.032 0-.064 0-.1 0-.2642212-.0253028-.507543-.1546131-.6763577-.3594415-.1688146-.2048284-.2492706-.4683687-.2236423-.7325585l.48-5c.0530193-.5497995.5417005-.9525193 1.0915-.8995s.9525193.5417005.8995 1.0915l-.471 5c-.051542.5129013-.4845219.9025832-1 .9z"/><path id="Shape" d="m15.951 34c-.031 0-.063 0-.1 0-.2640305-.0253102-.5071896-.1544788-.6759759-.3590854-.1687864-.2046066-.2493714-.4678877-.2240241-.7319146l1.05-11c.0527432-.5520086.5429914-.9567432 1.095-.904s.9567432.5429914.904 1.095l-1.05 11c-.0515058.5125183-.4839043.9020665-.999.9z"/><path id="Shape" d="m7 42c-.29019117.0003289-.56621379-.1254165-.75640776-.3445906-.19019396-.219174-.2757996-.5101587-.23459224-.7974094l.429-3c.05073171-.3538716.28639798-.6537973.61822561-.7867982.33182762-.1330008.70940409-.0788707.9905.142.28109591.2208708.4230061.5749266.37227439.9287982l-.43 3c-.07058794.4920622-.49190073.8575692-.989.858z"/><path id="Shape" d="m8.141 34c-.29036559.0006195-.56666259-.1250008-.75708066-.3442119s-.27615201-.5103643-.23491934-.7977881l1.861-13c.05073171-.3536929.28630268-.6534536.61797561-.7863651.33167292-.1329116.70905879-.0787815.98999999.142.2809412.2207814.4227561.5746722.3720244.9283651l-1.86 13c-.07058794.4920622-.49190073.8575692-.989.858z"/><path id="Shape" d="m43 44c-.5131825-.0005068-.942682-.3893896-.994-.9l-.481-5c-.0342975-.3556579.1237515-.7025969.4146115-.9101283.2908601-.2075315.6703425-.2441265.9955001-.096.3251575.1481264.5465909.4584704.5808884.8141283l.48 5c.05345.5487665-.3473612 1.0372551-.896 1.092-.037 0-.069 0-.1 0z"/><path id="Shape" d="m42.049 34c-.5149184-.0007607-.9450833-.3924098-.994-.905l-1.05-11c-.0458261-.3617268.1088604-.7197248.4036829-.9342616.2948225-.2145367.6830449-.2516032 1.0131375-.0967317s.5497283.4771302.5731796.8409933l1.05 11c.0253473.2640269-.0552377.527308-.2240241.7319146-.1687863.2046066-.4119454.3337752-.6759759.3590854-.033.004-.065.004-.096.004z"/><path id="Shape" d="m49.859 34c-.4970993-.0004308-.9184121-.3659378-.989-.858l-1.86-13c-.0784244-.5467619.3012381-1.0535756.848-1.132s1.0535756.3012381 1.132.848l1.861 13c.0412327.2874238-.0445013.578577-.2349193.7977881-.1904181.2192111-.4667151.3448314-.7570807.3442119z"/><path id="Shape" d="m51 42c-.4970993-.0004308-.9184121-.3659378-.989-.858l-.43-3c-.0784244-.547038.301462-1.0540756.8485-1.1325s1.0540756.301462 1.1325.8485l.429 3c.0412074.2872507-.0443983.5782354-.2345922.7974094-.190194.2191741-.4662166.3449195-.7564078.3445906z"/><path id="Shape" d="m34 45c-.53407.0006156-.974365-.4185453-1-.952l-.29-6c-.0130405-.2652954.0800007-.5248793.2585984-.7214869.1785977-.1966077.4280769-.3140839.6934016-.3265131.5451429-.0086086 1.0033035.407543 1.047.951l.29 6c.0133189.2652984-.0794632.5249949-.257876.721793-.1784128.1967982-.4277944.3145251-.693124.327207z"/><path id="Shape" d="m33.479 34c-.53407.0006156-.974365-.4185453-1-.952l-.48-10c-.0178633-.3572656.1562293-.6969226.4566987-.8910254.3004695-.1941029.6816673-.2131627 1-.05s.525438.4837598.5433013.8410254l.48 10c.0141429.2658027-.0782685.5262757-.2567677.7237323-.1784993.1974566-.4283552.3156009-.6942323.3282677z"/></g></g></g></svg>