<svg height="512pt" viewBox="0 -13 512 512" width="512pt" xmlns="http://www.w3.org/2000/svg"><path d="m275.394531 143.769531-275.394531 159v44.828125l240.863281 139.0625 271.136719-156.539062v-44.832032zm0 0" fill="#b2260b"/><path d="m512 285.289062-236.605469-141.519531-275.394531 159 240.863281 139.0625zm0 0" fill="#ff7e27"/><path d="m240.863281 441.832031v44.828125l271.136719-156.539062v-44.832032zm0 0" fill="#ef5f26"/><path d="m304.183594 131.445312s13.261718-43.121093 6.386718-76.511718c-3.386718-16.441406-18.757812-34.550782-33.496093-48.699219-12.9375-12.425781-34.46875-5.25-37.347657 12.457031-5.410156 33.269532-9.347656 80.285156 5.53125 104.5 24.546876 39.941406 58.925782 8.253906 58.925782 8.253906zm0 0" fill="#1b6d40"/><path d="m277.832031 72.613281c-4.03125-27.0625-15.242187-51.5625-15.242187-51.5625s6.238281 33.148438 7.957031 59.664063 2.210937 69.484375 2.210937 69.484375l8.667969-2.945313c-.003906 0 .4375-47.582031-3.59375-74.640625zm0 0" fill="#a2bf26"/><path d="m283.070312 183.101562s-14.703124-21.203124-9.808593-55.289062c4.898437-34.085938 25.523437-56.183594 41.726562-67.96875 16.207031-11.785156 36.453125-17.804688 43.703125-11.09375 3.417969 3.164062 8.351563 75.914062-8.835937 110.289062s-66.785157 24.0625-66.785157 24.0625zm0 0" fill="#5b9617"/><path d="m264.011719 202.667969s20.039062-28.40625 14.144531-57.871094c-5.890625-29.464844-25.175781-56.875-42.71875-67.765625-21.363281-13.257812-48.125-12.277344-51.070312-4.910156-2.945313 7.363281-.984376 53.523437 11.292968 82.988281 12.277344 29.460937 49.292969 47.484375 68.351563 47.558594zm0 0" fill="#5b9617"/><path d="m268.339844 247.429688s-4.570313-73.613282-16.371094-100.832032c-16.53125-38.136718-41.902344-51.726562-41.902344-51.726562s26.84375 31.757812 35.191406 60.238281c8.347657 28.484375 12.875 86.425781 12.875 86.425781s1.855469 5.894532 10.207032 5.894532zm0 0" fill="#d8d836"/><path d="m268.339844 247.429688s8.347656-68.257813 23.078125-106.070313 40.757812-63.835937 40.757812-63.835937-29.464843 55.488281-37.320312 86.917968c-7.859375 31.425782-15.613281 76.691406-15.613281 76.691406s-.101563 3.839844-10.902344 6.296876zm0 0" fill="#d8d836"/><path d="m236.253906 196.03125s.65625-24.226562-11.128906-33.554688c-11.785156-9.332031-21.609375-11.292968-38.632812-9.984374-17.019532 1.308593-28.152344 5.5625-28.808594 9.984374-.652344 4.417969 16.042968 36.351563 42.886718 40.191407 26.84375 3.839843 35.683594-6.636719 35.683594-6.636719zm0 0" fill="#249155"/><path d="m267.847656 243.011719s-15.820312-43.339844-39.777344-58.460938c-23.957031-15.121093-62.363281-19.621093-62.363281-19.621093s48.941407 16.699218 63.347657 31.101562c14.402343 14.40625 29.078124 45.503906 29.078124 45.503906s2.3125 5.746094 9.714844 1.476563zm0 0" fill="#d8d836"/><path d="m313.035156 167.367188s9.210938-15.5 24.625-21.21875c7.300782-2.707032 16.882813-3.4375 24.949219-3.460938 8.9375-.019531 15.136719 8.980469 11.894531 17.308594-4.027344 10.355468-11.832031 23.003906-26.796875 29.824218-28.148437 12.828126-44.621093-5.453124-34.671875-22.453124zm0 0" fill="#1b6d40"/><path d="m366.941406 152.925781s-42.335937 9.230469-63.453125 33.484375c-21.117187 24.253906-34.785156 58.179688-34.785156 58.179688l9.550781-1.644532s6.445313-22.015624 27.566406-47.554687c21.117188-25.535156 61.121094-42.464844 61.121094-42.464844zm0 0" fill="#d8d836"/><path d="m265.390625 203.792969s-13.332031-3.441407-17.1875-31.003907c-3.855469-27.566406 6.382813-48.125 17.1875-66.292968 4.546875-7.644532 13.699219-17.292969 22.777344-25.898438 10.242187-9.714844 27.195312-3.3125 28.496093 10.746094 2.71875 29.375 4.933594 70.625-1.675781 88.15625-10.804687 28.644531-49.597656 24.292969-49.597656 24.292969zm0 0" fill="#31ba55"/><path d="m262.589844 246.175781s-.144532-57.183593 10.167968-95.976562 27.5-59.910157 27.5-59.910157-23.511718 61.875-25.535156 101.652344c-1.335937 26.222656-2.457031 53.222656-2.457031 53.222656s-.691406 2.210938-9.675781 1.011719zm0 0" fill="#d8d836"/><path d="m413.039062 195s13.261719-43.121094 6.386719-76.511719c-3.386719-16.441406-18.761719-34.550781-33.496093-48.699219-12.941407-12.425781-34.46875-5.25-37.347657 12.457032-5.410156 33.269531-9.351562 80.285156 5.53125 104.5 24.546875 39.941406 58.925781 8.253906 58.925781 8.253906zm0 0" fill="#1b6d40"/><path d="m386.6875 136.167969c-4.03125-27.0625-15.242188-51.5625-15.242188-51.5625s6.238282 33.148437 7.957032 59.664062 2.210937 69.484375 2.210937 69.484375l8.664063-2.945312s.441406-47.582032-3.589844-74.640625zm0 0" fill="#a2bf26"/><path d="m391.925781 246.65625s-14.703125-21.203125-9.808593-55.289062c4.898437-34.085938 25.523437-56.183594 41.726562-67.96875 16.207031-11.785157 36.453125-17.804688 43.703125-11.09375 3.417969 3.167968 8.351563 75.914062-8.835937 110.289062s-66.785157 24.0625-66.785157 24.0625zm0 0" fill="#5b9617"/><path d="m372.867188 266.222656s20.039062-28.40625 14.148437-57.871094c-5.894531-29.464843-25.179687-56.878906-42.722656-67.765624-21.363281-13.257813-48.125-12.277344-51.070313-4.910157-2.945312 7.363281-.984375 53.523438 11.292969 82.988281 12.277344 29.464844 49.296875 47.484376 68.351563 47.558594zm0 0" fill="#5b9617"/><path d="m377.191406 310.984375s-4.570312-73.613281-16.367187-100.832031c-16.53125-38.136719-41.902344-51.722656-41.902344-51.722656s26.84375 31.753906 35.191406 60.234374c8.347657 28.480469 12.871094 86.429688 12.871094 86.429688s1.859375 5.890625 10.207031 5.890625zm0 0" fill="#d8d836"/><path d="m377.191406 310.984375s8.347656-68.257813 23.082032-106.070313c14.730468-37.8125 40.757812-63.835937 40.757812-63.835937s-29.464844 55.488281-37.320312 86.917969c-7.859376 31.425781-15.613282 76.691406-15.613282 76.691406s-.101562 3.839844-10.90625 6.296875zm0 0" fill="#d8d836"/><path d="m345.109375 259.585938s.65625-24.226563-11.128906-33.554688c-11.785157-9.332031-21.609375-11.292969-38.632813-9.984375-17.023437 1.308594-28.152344 5.5625-28.808594 9.984375-.652343 4.417969 16.042969 36.355469 42.886719 40.191406 26.84375 3.839844 35.683594-6.636718 35.683594-6.636718zm0 0" fill="#249155"/><path d="m376.703125 306.566406s-15.820313-43.339844-39.777344-58.460937c-23.957031-15.117188-62.363281-19.617188-62.363281-19.617188s48.941406 16.695313 63.34375 31.101563c14.40625 14.402344 29.078125 45.503906 29.078125 45.503906s2.316406 5.742188 9.71875 1.472656zm0 0" fill="#d8d836"/><path d="m421.890625 230.925781s9.210937-15.503906 24.625-21.222656c7.296875-2.707031 16.882813-3.4375 24.949219-3.457031 8.933594-.023438 15.136718 8.976562 11.894531 17.304687-4.027344 10.355469-11.832031 23.007813-26.796875 29.824219-28.148438 12.828125-44.621094-5.453125-34.671875-22.449219zm0 0" fill="#1b6d40"/><path d="m475.796875 216.480469s-42.335937 9.230469-63.453125 33.484375c-21.117188 24.257812-34.785156 58.179687-34.785156 58.179687l9.550781-1.644531s6.445313-22.015625 27.566406-47.554688c21.117188-25.535156 61.121094-42.464843 61.121094-42.464843zm0 0" fill="#d8d836"/><path d="m374.246094 267.347656s-13.332032-3.441406-17.1875-31.003906c-3.855469-27.566406 6.382812-48.125 17.1875-66.292969 4.546875-7.644531 13.699218-17.289062 22.777344-25.898437 10.246093-9.714844 27.195312-3.3125 28.496093 10.746094 2.71875 29.375 4.933594 70.625-1.675781 88.15625-10.804688 28.644531-49.597656 24.292968-49.597656 24.292968zm0 0" fill="#31ba55"/><path d="m371.445312 309.730469s-.144531-57.183594 10.167969-95.976563c10.3125-38.792968 27.5-59.910156 27.5-59.910156s-23.511719 61.875-25.535156 101.652344c-1.335937 26.222656-2.460937 53.222656-2.460937 53.222656s-.6875 2.210938-9.671876 1.011719zm0 0" fill="#d8d836"/><path d="m171.277344 209.207031s13.257812-43.121093 6.382812-76.511719c-3.386718-16.441406-18.757812-34.550781-33.492187-48.699218-12.941407-12.425782-34.472657-5.25-37.351563 12.457031-5.410156 33.269531-9.347656 80.285156 5.53125 104.5 24.546875 39.941406 58.929688 8.253906 58.929688 8.253906zm0 0" fill="#1b6d40"/><path d="m144.921875 150.371094c-4.03125-27.058594-15.242187-51.558594-15.242187-51.558594s6.242187 33.148438 7.960937 59.664062c1.71875 26.515626 2.207031 69.484376 2.207031 69.484376l8.667969-2.945313s.4375-47.582031-3.59375-74.644531zm0 0" fill="#a2bf26"/><path d="m150.160156 260.863281s-14.703125-21.203125-9.804687-55.289062c4.894531-34.085938 25.519531-56.183594 41.722656-67.96875 16.207031-11.785157 36.457031-17.804688 43.703125-11.09375 3.417969 3.167969 8.351562 75.914062-8.835938 110.289062s-66.785156 24.0625-66.785156 24.0625zm0 0" fill="#5b9617"/><path d="m131.105469 280.429688s20.039062-28.40625 14.144531-57.871094-25.179688-56.878906-42.722656-67.765625c-21.359375-13.257813-48.125-12.277344-51.070313-4.910157-2.945312 7.363282-.980469 53.523438 11.296875 82.988282 12.273438 29.464844 49.292969 47.484375 68.351563 47.558594zm0 0" fill="#5b9617"/><path d="m135.429688 325.191406s-4.570313-73.613281-16.371094-100.832031c-16.53125-38.140625-41.902344-51.726563-41.902344-51.726563s26.84375 31.757813 35.191406 60.238282c8.347656 28.480468 12.875 86.425781 12.875 86.425781s1.859375 5.894531 10.207032 5.894531zm0 0" fill="#d8d836"/><path d="m135.429688 325.191406s8.347656-68.257812 23.078124-106.070312c14.734376-37.8125 40.757813-63.839844 40.757813-63.839844s-29.460937 55.492188-37.320313 86.917969c-7.855468 31.429687-15.609374 76.695312-15.609374 76.695312s-.105469 3.839844-10.90625 6.296875zm0 0" fill="#d8d836"/><path d="m103.347656 273.792969s.652344-24.226563-11.132812-33.554688c-11.785156-9.332031-21.605469-11.296875-38.628906-9.984375-17.023438 1.308594-28.15625 5.5625-28.808594 9.984375-.65625 4.417969 16.039062 36.351563 42.882812 40.191407 26.847656 3.839843 35.6875-6.636719 35.6875-6.636719zm0 0" fill="#31ba55"/><path d="m134.9375 320.769531s-15.820312-43.339843-39.777344-58.457031c-23.957031-15.121094-62.363281-19.621094-62.363281-19.621094s48.941406 16.699219 63.347656 31.101563c14.402344 14.40625 29.078125 45.507812 29.078125 45.507812s2.316406 5.742188 9.714844 1.46875zm0 0" fill="#d8d836"/><path d="m180.125 245.132812s9.210938-15.503906 24.625-21.222656c7.300781-2.707031 16.882812-3.4375 24.949219-3.457031 8.9375-.023437 15.136719 8.976563 11.898437 17.304687-4.03125 10.355469-11.835937 23.007813-26.796875 29.824219-28.152343 12.828125-44.625-5.453125-34.675781-22.449219zm0 0" fill="#1b6d40"/><path d="m234.03125 230.683594s-42.335938 9.234375-63.453125 33.488281c-21.113281 24.253906-34.785156 58.179687-34.785156 58.179687l9.550781-1.648437s6.449219-22.015625 27.566406-47.550781c21.117188-25.535156 61.121094-42.46875 61.121094-42.46875zm0 0" fill="#d8d836"/><path d="m132.484375 281.554688s-13.332031-3.441407-17.1875-31.003907c-3.855469-27.566406 6.382813-48.125 17.1875-66.292969 4.542969-7.644531 13.699219-17.289062 22.777344-25.898437 10.242187-9.714844 27.195312-3.3125 28.496093 10.746094 2.714844 29.375 4.933594 70.625-1.679687 88.15625-10.800781 28.644531-49.59375 24.292969-49.59375 24.292969zm0 0" fill="#31ba55"/><path d="m129.679688 323.933594s-.144532-57.179688 10.167968-95.972656c10.3125-38.796876 27.5-59.910157 27.5-59.910157s-23.507812 61.875-25.535156 101.648438c-1.335938 26.226562-2.457031 53.226562-2.457031 53.226562s-.691407 2.210938-9.675781 1.007813zm0 0" fill="#d8d836"/><path d="m276.492188 269.964844s13.261718-43.121094 6.386718-76.511719c-3.386718-16.441406-18.757812-34.550781-33.492187-48.699219-12.941407-12.425781-34.472657-5.25-37.351563 12.457032-5.410156 33.269531-9.347656 80.28125 5.53125 104.5 24.546875 39.941406 58.925782 8.253906 58.925782 8.253906zm0 0" fill="#1b6d40"/><path d="m250.140625 211.128906c-4.03125-27.058594-15.242187-51.558594-15.242187-51.558594s6.238281 33.144532 7.957031 59.664063c1.71875 26.515625 2.210937 69.484375 2.210937 69.484375l8.664063-2.945312c0-.003907.441406-47.582032-3.589844-74.644532zm0 0" fill="#a2bf26"/><path d="m255.378906 321.617188s-14.703125-21.199219-9.808594-55.285157c4.898438-34.085937 25.523438-56.183593 41.726563-67.96875 16.207031-11.785156 36.453125-17.804687 43.703125-11.09375 3.417969 3.164063 8.351562 75.914063-8.835938 110.289063-17.1875 34.371094-66.785156 24.058594-66.785156 24.058594zm0 0" fill="#5b9617"/><path d="m236.320312 341.1875s20.039063-28.40625 14.148438-57.871094c-5.894531-29.464844-25.179688-56.878906-42.722656-67.765625-21.363282-13.261719-48.125-12.277343-51.070313-4.910156-2.945312 7.363281-.984375 53.523437 11.292969 82.988281s49.296875 47.484375 68.351562 47.558594zm0 0" fill="#5b9617"/><path d="m240.648438 385.949219s-4.570313-73.613281-16.371094-100.832031c-16.53125-38.140626-41.902344-51.726563-41.902344-51.726563s26.84375 31.757813 35.191406 60.238281c8.347656 28.480469 12.875 86.425782 12.875 86.425782s1.859375 5.890624 10.207032 5.894531zm0 0" fill="#d8d836"/><path d="m240.648438 385.949219s8.347656-68.257813 23.078124-106.070313c14.734376-37.8125 40.757813-63.839844 40.757813-63.839844s-29.464844 55.492188-37.320313 86.921876c-7.855468 31.425781-15.609374 76.691406-15.609374 76.691406s-.105469 3.839844-10.90625 6.296875zm0 0" fill="#d8d836"/><path d="m208.5625 334.550781s.65625-24.226562-11.128906-33.558593c-11.785156-9.328126-21.609375-11.292969-38.628906-9.984376-17.023438 1.3125-28.15625 5.566407-28.8125 9.984376-.652344 4.421874 16.042968 36.355468 42.886718 40.195312 26.847656 3.839844 35.683594-6.636719 35.683594-6.636719zm0 0" fill="#249155"/><path d="m240.15625 381.527344s-15.820312-43.339844-39.777344-58.457032c-23.957031-15.121093-62.363281-19.621093-62.363281-19.621093s48.941406 16.695312 63.34375 31.101562c14.40625 14.402344 29.078125 45.503907 29.078125 45.503907s2.316406 5.746093 9.71875 1.472656zm0 0" fill="#d8d836"/><path d="m285.34375 305.886719s9.210938-15.5 24.625-21.21875c7.300781-2.707031 16.882812-3.4375 24.949219-3.457031 8.9375-.023438 15.136719 8.976562 11.898437 17.304687-4.03125 10.355469-11.835937 23.003906-26.800781 29.824219-28.148437 12.828125-44.621094-5.453125-34.671875-22.453125zm0 0" fill="#1b6d40"/><path d="m339.25 291.441406s-42.335938 9.234375-63.453125 33.488282c-21.113281 24.253906-34.785156 58.179687-34.785156 58.179687l9.550781-1.648437s6.449219-22.015626 27.566406-47.550782c21.117188-25.535156 61.121094-42.46875 61.121094-42.46875zm0 0" fill="#d8d836"/><path d="m237.699219 342.3125s-13.332031-3.441406-17.1875-31.003906c-3.855469-27.566406 6.382812-48.125 17.1875-66.292969 4.546875-7.648437 13.699219-17.292969 22.777343-25.902344 10.246094-9.710937 27.195313-3.308593 28.496094 10.75 2.71875 29.375 4.933594 70.625-1.675781 88.15625-10.804687 28.644531-49.597656 24.292969-49.597656 24.292969zm0 0" fill="#31ba55"/><path d="m234.898438 384.691406s-.144532-57.179687 10.167968-95.972656 27.5-59.910156 27.5-59.910156-23.507812 61.875-25.535156 101.648437c-1.335938 26.226563-2.457031 53.222657-2.457031 53.222657s-.691407 2.210937-9.675781 1.011718zm0 0" fill="#d8d836"/></svg>