<svg height="512pt" viewBox="0 -2 512 512" width="512pt" xmlns="http://www.w3.org/2000/svg"><path d="m231.148438 0h-152.070313c-7.777344 0-14.144531 6.367188-14.144531 14.144531v28.144531h180.359375v-28.144531c0-7.78125-6.367188-14.144531-14.144531-14.144531zm0 0" fill="#525468"/><path d="m99.683594 0h-20.605469c-7.777344 0-14.144531 6.367188-14.144531 14.144531v28.144531h20.605468v-28.144531c0-7.78125 6.363282-14.144531 14.144532-14.144531zm0 0" fill="#3e4151"/><path d="m473.046875 41.257812h-434.09375c-5.882813 0-10.652344 4.777344-10.652344 10.675782v334.21875h455.398438v-334.21875c0-5.894532-4.769531-10.675782-10.652344-10.675782zm0 0" fill="#b4e1f9"/><path d="m59.558594 41.257812h-20.605469c-5.882813 0-10.652344 4.777344-10.652344 10.675782v334.21875h20.605469v-334.21875c0-5.894532 4.769531-10.675782 10.652344-10.675782zm0 0" fill="#72bdf6"/><path d="m444.1875 118.269531c-1.710938-2.296875-5.074219-2.296875-6.785156.003907-16.761719 22.539062-50.378906 22.53125-67.132813 0-1.710937-2.300782-5.074219-2.300782-6.785156 0-16.761719 22.539062-50.378906 22.53125-67.132813 0-1.710937-2.300782-5.074218-2.300782-6.785156-.003907-16.761718 22.542969-50.378906 22.535157-67.132812 0-1.710938-2.296875-5.074219-2.296875-6.785156 0-16.761719 22.542969-50.378907 22.535157-67.132813 0-1.710937-2.296875-5.074219-2.296875-6.785156.003907-16.761719 22.539062-50.378907 22.53125-67.132813 0-1.710937-2.300782-5.074218-2.300782-6.785156 0-8.886719 11.953124-23.75 18.722656-39.507812 16.476562v251.402344h455.394531v-251.402344c-15.765625 2.246094-30.625-4.527344-39.511719-16.480469zm0 0" fill="#72bdf6"/><g fill="#4b98d4"><path d="m48.90625 132.507812c-6.355469 2.390626-13.382812 3.273438-20.605469 2.242188v251.402344h20.605469zm0 0"/><path d="m136.449219 328.300781c0 6.621094-5.367188 11.984375-11.984375 11.984375-6.621094 0-11.984375-5.363281-11.984375-11.984375 0-6.617187 5.363281-11.984375 11.984375-11.984375 6.617187 0 11.984375 5.367188 11.984375 11.984375zm0 0"/><path d="m201.285156 271.519531c0 8.683594-7.039062 15.71875-15.71875 15.71875-8.679687 0-15.71875-7.035156-15.71875-15.71875 0-8.679687 7.039063-15.714843 15.71875-15.714843 8.679688 0 15.71875 7.035156 15.71875 15.714843zm0 0"/><path d="m130.160156 190.515625c0 9.222656-7.476562 16.699219-16.699218 16.699219-9.222657 0-16.699219-7.476563-16.699219-16.699219s7.476562-16.699219 16.699219-16.699219c9.222656 0 16.699218 7.476563 16.699218 16.699219zm0 0"/></g><path d="m195.652344 259.472656c-2.726563-2.289062-6.246094-3.667968-10.085938-3.667968-8.679687 0-15.71875 7.035156-15.71875 15.714843 0 8.683594 7.039063 15.71875 15.71875 15.71875 3.839844 0 7.359375-1.382812 10.085938-3.671875-7.503906-6.289062-7.507813-17.796875 0-24.09375zm0 0" fill="#2472b2"/><path d="m123.550781 177.230469c-2.808593-2.132813-6.292969-3.414063-10.089843-3.414063-9.222657 0-16.699219 7.476563-16.699219 16.699219s7.476562 16.699219 16.699219 16.699219c3.796874 0 7.285156-1.28125 10.089843-3.414063-8.820312-6.707031-8.8125-19.871093 0-26.570312zm0 0" fill="#2472b2"/><path d="m176.925781 208.714844c-4.253906 0-7.726562-3.449219-7.726562-7.726563 0-4.261719 3.457031-7.726562 7.726562-7.726562 4.273438 0 7.726563 3.496093 7.726563 7.726562 0 4.160157-3.40625 7.726563-7.726563 7.726563zm0 0" fill="#4b98d4"/><path d="m403.632812 201.449219c-5.328124 3.09375-10.152343 6.757812-14.335937 10.898437-1.332031 1.316406-3.453125 1.316406-4.785156 0-32.207031-31.875-91.757813-28.246094-118.285157 7.027344-.933593 1.242188-.933593 2.9375 0 4.179688 26.558594 35.316406 86.113282 38.867187 118.285157 7.027343 1.332031-1.316406 3.453125-1.316406 4.785156 0 4.425781 4.382813 9.570313 8.230469 15.273437 11.433594 1.378907.773437 3.089844-.214844 3.089844-1.796875v-36.425781c0-2.0625-2.242187-3.378907-4.027344-2.34375zm0 0" fill="#ffc964"/><path d="m404.570312 221.410156c-5.179687-2.90625-9.894531-6.355468-14.035156-10.25-.417968.394532-.835937.785156-1.238281 1.1875-1.332031 1.316406-3.453125 1.316406-4.785156 0-.414063-.410156-.851563-.789062-1.273438-1.183594-29.679687 27.933594-81.019531 27.042969-109.628906 0-2.664063 2.519532-5.148437 5.242188-7.378906 8.210938-.9375 1.246094-.9375 2.9375 0 4.183594 26.554687 35.3125 86.113281 38.867187 118.28125 7.027344 1.332031-1.320313 3.453125-1.316407 4.785156 0 4.425781 4.382812 9.570313 8.230468 15.273437 11.433593 1.378907.773438 3.089844-.21875 3.089844-1.796875v-20.609375c0 1.582031-1.710937 2.574219-3.089844 1.796875zm0 0" fill="#f3a334"/><path d="m347.496094 301.761719c-4.574219 2.65625-8.714844 5.800781-12.308594 9.355469-1.140625 1.128906-2.964844 1.132812-4.105469 0-27.648437-27.363282-78.765625-24.246094-101.535156 6.03125-.804687 1.070312-.804687 2.523437 0 3.589843 22.796875 30.316407 73.917969 33.363281 101.535156 6.03125 1.144531-1.128906 2.964844-1.128906 4.105469.003907 3.800781 3.757812 8.21875 7.0625 13.113281 9.8125 1.183594.664062 2.652344-.183594 2.652344-1.542969v-31.269531c0-1.769532-1.925781-2.898438-3.457031-2.011719zm0 0" fill="#ffc964"/><path d="m348.300781 315.980469c-3.789062-2.128907-7.28125-4.59375-10.433593-7.34375-.921876.804687-1.816407 1.628906-2.679688 2.480469-1.140625 1.128906-2.964844 1.132812-4.105469 0-.863281-.855469-1.75-1.679688-2.660156-2.476563-25.125 22.011719-66.621094 21.328125-90.941406.003906-2.90625 2.546875-5.578125 5.371094-7.933594 8.503907-.804687 1.070312-.804687 2.523437 0 3.589843 22.796875 30.316407 73.917969 33.363281 101.535156 6.03125 1.140625-1.128906 2.964844-1.128906 4.105469.003907 3.800781 3.757812 8.21875 7.0625 13.113281 9.8125 1.183594.664062 2.652344-.183594 2.652344-1.542969v-20.605469c0 1.359375-1.46875 2.207031-2.652344 1.542969zm0 0" fill="#f3a334"/><path d="m484.839844 385.472656h-458.953125c-4.421875 0-8.007813 3.585938-8.007813 8.007813v84.671875h476.242188v-83.394532c0-5.128906-4.15625-9.285156-9.28125-9.285156zm0 0" fill="#525468"/><path d="m46.488281 385.472656h-20.601562c-4.421875 0-8.007813 3.585938-8.007813 8.007813v84.671875h20.605469v-84.671875c0-4.421875 3.582031-8.007813 8.003906-8.007813zm0 0" fill="#3e4151"/><path d="m497.855469 475.0625h-483.710938c-7.777343 0-14.144531 6.367188-14.144531 14.148438v4.714843c0 7.777344 6.367188 14.144531 14.144531 14.144531h483.710938c7.777343 0 14.144531-6.367187 14.144531-14.144531v-4.714843c0-7.78125-6.367188-14.148438-14.144531-14.148438zm0 0" fill="#e4e3e1"/><path d="m497.855469 487.464844h-483.710938c-4.839843 0-9.128906-2.464844-11.683593-6.199219-1.550782 2.265625-2.460938 5.003906-2.460938 7.945313v4.714843c0 7.777344 6.367188 14.144531 14.144531 14.144531h483.710938c7.777343 0 14.144531-6.367187 14.144531-14.144531v-4.714843c0-2.941407-.910156-5.679688-2.460938-7.945313-2.554687 3.734375-6.84375 6.199219-11.683593 6.199219zm0 0" fill="#d1d0cf"/><path d="m266.226562 219.375c-.933593 1.246094-.933593 2.9375 0 4.183594 7.019532 9.332031 16.9375 16.953125 28.667969 22.027344 12.363281-13.714844 12.355469-34.535157 0-48.238282-11.730469 5.070313-21.648437 12.695313-28.667969 22.027344zm0 0" fill="#f3a334"/><path d="m270.925781 229.085938c6.484375 6.828124 14.652344 12.46875 23.96875 16.5 4.582031-5.085938 7.460938-11.148438 8.644531-17.460938-11.183593-3.363281-21.535156-9.027344-29.929687-16.960938-3.496094 3.289063-7.148437 7.667969-7.6875 8.695313-1.203125 2.304687.15625 4.089844 5.003906 9.226563zm0 0" fill="#ee911c"/><path d="m229.546875 317.148438c-.804687 1.070312-.804687 2.523437 0 3.589843 6.023437 8.015625 14.535156 14.558594 24.605469 18.910157 10.613281-11.769532 10.605468-29.644532 0-41.410157-10.070313 4.355469-18.582032 10.898438-24.605469 18.910157zm0 0" fill="#f3a334"/><path d="m237.496094 308.652344c-3.09375 2.695312-5.9375 5.824218-7.949219 8.496094-.800781 1.066406-.808594 2.519531 0 3.589843 5.789063 7.699219 14.167969 14.398438 24.605469 18.910157 4.605468-5.109376 7.207031-11.367188 7.816406-17.777344-9.046875-2.667969-17.472656-7.082032-24.472656-13.21875zm0 0" fill="#ee911c"/></svg>