<svg height="512" viewBox="0 0 128 128" width="512" xmlns="http://www.w3.org/2000/svg"><g><g><path d="m45.84 10.1a4.85 4.85 0 0 0 -5.105.668 4.853 4.853 0 0 0 -9.636 0 4.854 4.854 0 0 0 -7.232 6.27l5.535 9.1h13.03l5.534-9.1a4.856 4.856 0 0 0 -2.126-6.938z" fill="#f7502f"/><path d="m19.167 35.917-12.667 6.75 10.417 6.75z" fill="#f7502f"/><path d="m36.009 19.625a18.453 18.453 0 0 1 17.516 12.648l7.808 23.56s47.167 17.643 60.167-5.47c-1.25 29.887-19.25 56.637-57.5 57.137s-54.5-17.161-52-44.828a123.4 123.4 0 0 1 6.687-30.958 18.411 18.411 0 0 1 17.322-12.089z" fill="#f4a86c"/><ellipse cx="101.032" cy="96.677" fill="#efeffb" rx="11.621" ry="17.611"/><ellipse cx="82.516" cy="100.283" fill="#dfdfe5" rx="11.621" ry="17.611"/><ellipse cx="26.968" cy="96.677" fill="#efeffb" rx="11.621" ry="17.611"/><ellipse cx="45.484" cy="100.283" fill="#dfdfe5" rx="11.621" ry="17.611"/><ellipse cx="64" cy="103.889" fill="#efeffb" rx="11.621" ry="17.611"/><path d="m47 62.25c-1.516-20.625 41.25-14 55.75-26.333 3.083 15.25-5.417 20.416-5.417 20.416 5.667 1.667 3 8.167.334 9.167.666 5.5-6.834 15-28.834 12.5s-21.833-15.75-21.833-15.75z" fill="#d78759"/><circle cx="29.968" cy="37.5" fill="#efeffb" r="3"/></g><g fill="#251333"><path d="m11.724 68.122h.053a1.75 1.75 0 0 0 1.748-1.7c.035-1.172.108-2.383.218-3.6a1.75 1.75 0 0 0 -3.486-.314c-.116 1.285-.194 2.566-.23 3.808a1.749 1.749 0 0 0 1.697 1.806z"/><path d="m123.249 50.433a1.751 1.751 0 0 0 -3.275-.93c-3.229 5.749-9.134 9.272-17.558 10.5a5.5 5.5 0 0 0 -2.018-4.03c2.608-2.808 6.365-9.04 4.067-20.4a1.751 1.751 0 0 0 -2.849-.986c-2.455 2.088-6.1 3.8-11.135 5.224a1.75 1.75 0 1 0 .954 3.367 38.36 38.36 0 0 0 10.043-4.167c1.376 11.616-4.783 15.658-5.053 15.83a1.749 1.749 0 0 0 .415 3.174c1.82.536 2.066 1.552 2.092 2.271a4.263 4.263 0 0 1 -1.88 3.578 1.752 1.752 0 0 0 -1.123 1.85c.206 1.693-.7 3.741-2.423 5.477-2.106 2.123-8.7 6.867-24.475 5.073-20.007-2.277-20.279-13.528-20.281-13.992 0-.05 0-.1-.005-.15-.785-10.683 12.976-13.143 27.546-15.746 2.407-.431 4.9-.876 7.308-1.358a1.75 1.75 0 0 0 -.687-3.432c-2.375.476-4.847.917-7.237 1.345a140.509 140.509 0 0 0 -15.648 3.4l-4.846-14.611a20.155 20.155 0 0 0 -7.8-10.34l2.089-3.43a6.606 6.606 0 0 0 -7.721-9.7 6.607 6.607 0 0 0 -11.656 0 6.6 6.6 0 0 0 -7.714 9.705l2.138 3.521a20.051 20.051 0 0 0 -7.467 9.642c-.572 1.574-1.1 3.185-1.613 4.817l-9.755 5.2a1.75 1.75 0 0 0 -.128 3.014l6.717 4.347c-.521 2.648-.976 5.343-1.344 8.09a1.751 1.751 0 0 0 1.5 1.967 1.683 1.683 0 0 0 .234.016 1.751 1.751 0 0 0 1.732-1.518 118.37 118.37 0 0 1 5.944-24.733 16.7 16.7 0 0 1 31.524.512l4.856 14.641c-7.135 2.751-12.017 7.048-11.467 14.846.018 1.352.773 14.852 23.386 17.422a62.919 62.919 0 0 0 7.1.423c11.813 0 17.664-3.9 20.253-6.508a11.006 11.006 0 0 0 3.463-7.168 7.508 7.508 0 0 0 2.233-2.872c7.541-.893 13.446-3.388 17.6-7.481a61.512 61.512 0 0 1 -9.176 26.3c-2.38-3.174-5.559-5.11-9.078-5.11-4.177 0-8.036 2.778-10.533 7.4a10.985 10.985 0 0 0 -7.977-3.8c-4.173 0-8.028 2.767-10.526 7.376a10.365 10.365 0 0 0 -15.986 0c-2.5-4.609-6.355-7.374-10.528-7.374a10.987 10.987 0 0 0 -7.977 3.8c-2.5-4.626-6.356-7.4-10.533-7.4-4.2 0-7.881 2.667-10.314 6.915a37.214 37.214 0 0 1 -2.981-12.012 1.75 1.75 0 1 0 -3.487.3 39.343 39.343 0 0 0 4.653 15.927 27.245 27.245 0 0 0 -1.242 8.225c0 10.856 5.873 19.36 13.37 19.36a10.968 10.968 0 0 0 7.961-3.823c2.5 4.638 6.366 7.423 10.549 7.423a10.83 10.83 0 0 0 7.949-3.789c2.426 4.524 6.22 7.4 10.571 7.4s8.144-2.874 10.57-7.4a10.831 10.831 0 0 0 7.95 3.787c4.182 0 8.049-2.784 10.548-7.423a10.972 10.972 0 0 0 7.962 3.823c5.252 0 10.032-4.441 12.179-11.314a1.75 1.75 0 1 0 -3.341-1.043c-1.681 5.38-5.15 8.857-8.838 8.857-2.373 0-4.635-1.4-6.444-3.945a27.166 27.166 0 0 0 1.3-8.315 25.112 25.112 0 0 0 -3.061-12.341c1.843-4.41 4.935-7.119 8.2-7.119 5.28 0 9.706 6.9 9.866 15.38a1.749 1.749 0 0 0 1.749 1.717h.033a1.75 1.75 0 0 0 1.717-1.783 25.693 25.693 0 0 0 -2.277-10.332c6.724-9.7 10.575-21.893 11.136-35.367zm-113.302-7.617 4.127-2.2c-.367 1.382-.707 2.786-1.03 4.2zm17.611-23.074-2.193-3.612a3.109 3.109 0 0 1 1.349-4.438 3.113 3.113 0 0 1 3.277.431 1.749 1.749 0 0 0 2.847-1.149 3.1 3.1 0 0 1 6.154 0 1.751 1.751 0 0 0 2.842 1.154 3.123 3.123 0 0 1 3.277-.438 3.114 3.114 0 0 1 1.365 4.44l-2.155 3.538a20.061 20.061 0 0 0 -16.763.074zm-.588 92.8c-5.35 0-9.87-7.263-9.87-15.86s4.52-15.86 9.87-15.86c3.266 0 6.358 2.709 8.2 7.119a25.113 25.113 0 0 0 -3.06 12.339 27.042 27.042 0 0 0 1.3 8.314c-1.804 2.542-4.067 3.946-6.44 3.946zm18.51 3.6c-3.425 0-6.663-2.974-8.466-7.769-.01-.033-.021-.065-.033-.1a23.271 23.271 0 0 1 -1.371-7.992 21.191 21.191 0 0 1 2.979-11.265c1.872-2.963 4.32-4.595 6.891-4.595 3.256 0 6.339 2.681 8.185 7.054a25.222 25.222 0 0 0 -3.037 12.416 27.181 27.181 0 0 0 1.278 8.344c-1.813 2.516-4.067 3.905-6.426 3.905zm18.52 3.608c-5.351 0-9.872-7.263-9.872-15.86s4.521-15.861 9.872-15.861 9.872 7.263 9.872 15.861-4.521 15.86-9.872 15.86zm18.52-3.61c-2.359 0-4.613-1.389-6.426-3.906a27.181 27.181 0 0 0 1.278-8.344 25.222 25.222 0 0 0 -3.037-12.416c1.846-4.373 4.929-7.054 8.185-7.054 2.571 0 5.019 1.632 6.9 4.6a21.189 21.189 0 0 1 2.97 11.26 23.369 23.369 0 0 1 -1.371 8c-1.796 4.849-5.053 7.86-8.499 7.86z"/><path d="m68.511 50.425c-2.7.577-4.927 1.132-6.807 1.7a1.75 1.75 0 0 0 .5 3.427 1.783 1.783 0 0 0 .5-.073c1.791-.537 3.928-1.07 6.535-1.627a1.75 1.75 0 1 0 -.732-3.422z"/><path d="m34.718 37.5a4.75 4.75 0 1 0 -4.75 4.75 4.756 4.756 0 0 0 4.75-4.75zm-6 0a1.25 1.25 0 1 1 1.25 1.25 1.251 1.251 0 0 1 -1.25-1.25z"/></g></g></svg>