<svg id="Capa_1" enable-background="new 0 0 512 512" height="512" viewBox="0 0 512 512" width="512" xmlns="http://www.w3.org/2000/svg"><g><g><path d="m256 415.469h194.884c31.434-41.198 50.116-92.648 50.116-148.469 0-135.31-109.69-245-245-245s-245 109.69-245 245c0 33.236 6.631 64.92 18.621 93.818z" fill="#ff7acb"/></g><g><circle cx="256" cy="237" fill="#ff54b6" r="180"/></g><g><g><path d="m288.48 46.073h-154.96c-42.398 53.056-67.077 135.464-49.575 201.032 17.233 64.561 77.322 80.435 125.921 80.908v.011c.376 0 .756-.004 1.134-.005.378.002.757.005 1.134.005v-.011c48.599-.473 108.688-16.347 125.921-80.908 17.502-65.568-7.177-147.976-49.575-201.032z" fill="#ce684d"/></g><g><g><path d="m292.87 36.423c-19.784-22.322-47.621-36.423-81.87-36.423s-48.985 5.638-62.772 12-14.708 34.073-14.708 34.073c-17.176 18.715-27.663 43.666-27.663 71.07v30.076h210.286v-30.076c0-23.009-3.49-58.398-23.273-80.72z" fill="#e07763"/></g><g><path d="m105.857 147.218h49.009v-63.727c-11.83-4.105-21.191-17.342-21.346-37.418-17.176 18.715-27.663 43.666-27.663 71.07z" fill="#ce684d"/></g></g><g><path d="m412.698 406.088c-9.109-24.916-18.771-46.379-27.006-53.65-7.238-6.391-21.815-12.407-38.574-17.683h-272.235c-16.759 5.276-31.336 11.292-38.574 17.683-2.144 1.893-4.385 4.754-6.687 8.381 30.042 72.408 93.808 127.273 171.702 145.029z" fill="#d9f9fc"/></g><g><path d="m36.308 352.438c-2.144 1.893-4.385 4.754-6.687 8.381 24.274 58.503 70.559 105.556 128.529 130.841-20.226-18.158-31.936-46.536-29.736-77.085 2.494-34.62 21.186-61.708 44.892-79.821h-98.423c-16.76 5.277-31.337 11.293-38.575 17.684z" fill="#a0f1fe"/></g><g><path d="m94.152 329.213c-6.548 1.733-13.059 3.586-19.269 5.541 5.635 20.335 19.814 38.704 41.304 53.03 25.914 17.276 59.989 26.791 95.947 26.791s70.033-9.514 95.947-26.791c21.257-14.171 35.365-32.296 41.122-52.367-6.829-2.2-14.066-4.276-21.35-6.204z" fill="#fff"/></g><g><path d="m259.52 314.575v-120.825h-97.04v120.825c-1.489.247-35.392 5.919-68.335 14.638 10.317 37.191 59.215 65.362 117.989 65.362 58.477 0 107.175-27.887 117.827-64.799-33.589-9.036-68.92-14.949-70.441-15.201z" fill="#feb98a"/></g><g><path d="m259.52 260.113v-66.363h-97.04v120.825c-1.489.247-35.392 5.919-68.335 14.638 5.413 19.512 21.457 36.533 43.964 48.313 14.872-31.548 44.199-53.204 72.891-62.952 38.83-13.19 48.52-54.461 48.52-54.461z" fill="#fca870"/></g><g><path d="m286.058 159.567s10.385-25.285 28.897-19.415-.448 60.664-36.573 64.116z" fill="#feb98a"/></g><g><path d="m135.942 159.567s-10.385-25.285-28.897-19.415.448 60.664 36.573 64.116z" fill="#fca870"/></g><g><path d="m149.837 84.904c-10.322 3.439-17.93 12.279-20.432 22.867-2.552 10.801-6.002 27.519-6.002 38.984 0 64.505 39.219 140.155 87.597 140.155s87.597-75.65 87.597-140.155c0-1.674-.033-2.084-.085-3.733-81.411-.002-112.185-70.275-148.675-58.118z" fill="#ffc9a4"/></g><g><path d="m231 282.564c-38.741-16.953-67.597-80.479-67.597-135.809 0-21.971 4.564-41.826 12.476-58.475-8.87-4.459-17.292-6.291-26.042-3.376-10.322 3.439-17.93 12.279-20.432 22.867-2.552 10.801-6.002 27.519-6.002 38.984 0 64.505 39.219 140.155 87.597 140.155 6.881 0 13.576-1.535 20-4.346z" fill="#feb98a"/></g><g><g><path d="m197.013 192.447 8.436-13.441c2.569-4.093 8.533-4.093 11.102 0l8.436 13.441c2.739 4.365-.398 10.038-5.551 10.038h-16.871c-5.154-.001-8.291-5.674-5.552-10.038z" fill="#feb98a"/></g></g><g><g><path d="m190.384 240.87h41.233c4.111-3.622 7.258-8.309 9.01-13.631 1.584-4.811-2.069-9.754-7.134-9.754h-44.985c-5.065 0-8.718 4.943-7.134 9.754 1.752 5.322 4.899 10.009 9.01 13.631z" fill="#003060"/></g><g><path d="m231.616 240.87c-5.493 4.849-12.714 7.798-20.616 7.798s-15.124-2.948-20.616-7.798c5.5-4.849 12.714-7.798 20.616-7.798s15.116 2.949 20.616 7.798z" fill="#ff4155"/></g></g><g><path d="m265.999 162.085c.043-3.495-1.371-7.004-4.242-9.539-4.675-4.128-11.84-4.128-16.515 0-2.871 2.535-4.284 6.044-4.242 9.539.055 4.538 5.629 6.716 8.838 3.507 2.022-2.022 5.3-2.022 7.322 0 3.21 3.21 8.784 1.032 8.839-3.507z" fill="#003060"/></g><g><path d="m156.001 162.085c-.043-3.495 1.371-7.004 4.242-9.539 4.675-4.128 11.84-4.128 16.515 0 2.871 2.535 4.284 6.044 4.242 9.539-.055 4.538-5.629 6.716-8.838 3.507-2.022-2.022-5.3-2.022-7.322 0-3.21 3.21-8.784 1.032-8.839-3.507z" fill="#003060"/></g><g><path d="m178.5 138.968h-20c-4.142 0-7.5-3.358-7.5-7.5 0-4.142 3.358-7.5 7.5-7.5h20c4.142 0 7.5 3.358 7.5 7.5 0 4.142-3.358 7.5-7.5 7.5z" fill="#aa493c"/></g><g><path d="m263.5 138.968h-20c-4.142 0-7.5-3.358-7.5-7.5 0-4.142 3.358-7.5 7.5-7.5h20c4.142 0 7.5 3.358 7.5 7.5 0 4.142-3.358 7.5-7.5 7.5z" fill="#aa493c"/></g></g><g><g><path d="m256 512c79.489 0 150.123-37.865 194.884-96.531-14.065-2.89-24.274-4.598-25.029-4.723h-83.71c-2.282.378-90.765 15.183-111.445 33.443-6.768 5.976-20.84 38.966-29.407 61.672 17.591 4.013 35.9 6.139 54.707 6.139z" fill="#ffdd40"/></g><g><path d="m425.855 327.859h-83.71v82.887s16.801 17.748 41.664 17.748 42.046-17.748 42.046-17.748z" fill="#feb98a"/></g><g><path d="m342.145 327.859v82.887c83.667 0 83.71-47.167 83.71-47.167v-35.72z" fill="#fca870"/></g><g><path d="m423.422 151.681v3.421s-5.164-9.023-19.013-15.851c-2.53-1.248-5.44.782-5.1 3.582l1.096 9.03s-4.145-11.462-14.471-18.389c-1.164-.781-2.705-.781-3.869 0-10.326 6.927-14.471 18.389-14.471 18.389l1.096-9.03c.34-2.8-2.57-4.83-5.1-3.582-13.849 6.829-19.013 15.851-19.013 15.851v-3.421c0-2.55-2.622-4.276-4.951-3.237-13.965 6.23-51.864 31.131-39.329 114.909h167.405c12.535-83.778-25.364-108.679-39.329-114.909-2.328-1.038-4.951.688-4.951 3.237z" fill="#024788"/></g><g><path d="m357.02 203.2c-13.58-9.015-21.375-35.187-12.443-48.097v-3.421c0-2.55-2.622-4.276-4.951-3.237-13.965 6.23-51.864 31.131-39.329 114.909h56.723z" fill="#003060"/></g><g><path d="m450.297 273.831s9.173-22.334 25.524-17.149c16.352 5.185-.395 53.583-32.304 56.632z" fill="#feb98a"/></g><g><path d="m317.703 273.831s-9.173-22.334-25.524-17.149c-16.352 5.185.395 53.583 32.304 56.632z" fill="#fca870"/></g><g><path d="m446.756 243.082c-3.099-9.086-8.143-21.637-14.331-28.898-3.514-3.403-7.195-6.224-10.952-8.041-7.238-3.5-13.919-3.594-19.574-2.206-11.76 2.887-24.039 2.887-35.799 0-5.655-1.388-12.336-1.295-19.574 2.206-3.757 1.817-7.438 4.637-10.952 8.041-6.188 7.261-11.232 19.812-14.331 28.898-2.44 7.152-7.702 12.986-14.56 16.159-.027 1.087-.056 2.173-.056 3.273 0 56.976 34.641 123.796 77.373 123.796s77.373-66.821 77.373-123.796c0-1.1-.029-2.186-.056-3.273-6.858-3.173-12.121-9.007-14.561-16.159z" fill="#ffc9a4"/></g><g><path d="m341.958 262.514c0-22.899 5.599-43.208 15.066-59.314-3.316.276-6.836 1.172-10.498 2.944-3.757 1.817-7.438 4.637-10.952 8.041-6.188 7.261-11.232 19.812-14.331 28.898-2.44 7.152-7.702 12.987-14.56 16.159-.027 1.087-.056 2.173-.056 3.273 0 56.976 34.641 123.796 77.373 123.796 6.078 0 11.991-1.356 17.666-3.839-34.219-14.975-59.708-71.086-59.708-119.958z" fill="#feb98a"/></g><g><g><path d="m371.646 302.873 7.451-11.872c2.269-3.616 7.537-3.616 9.807 0l7.451 11.872c2.42 3.855-.352 8.866-4.903 8.866h-14.902c-4.553 0-7.324-5.011-4.904-8.866z" fill="#feb98a"/></g></g><g><g><path d="m365.79 345.644h36.42c3.631-3.199 6.411-7.339 7.958-12.04 1.399-4.249-1.827-8.616-6.301-8.616h-39.734c-4.474 0-7.7 4.366-6.301 8.616 1.547 4.701 4.327 8.841 7.958 12.04z" fill="#003060"/></g><g><path d="m402.21 345.644c-4.852 4.283-11.23 6.887-18.21 6.887s-13.358-2.604-18.21-6.887c4.858-4.283 11.23-6.887 18.21-6.887s13.352 2.604 18.21 6.887z" fill="#ff4155"/></g></g><g><path d="m432.579 276.056c.038-3.087-1.211-6.186-3.747-8.426-4.129-3.647-10.458-3.647-14.587 0-2.535 2.239-3.784 5.339-3.747 8.426.049 4.009 4.972 5.932 7.807 3.098 1.786-1.786 4.681-1.786 6.467 0 2.836 2.834 7.759.91 7.807-3.098z" fill="#003060"/></g><g><path d="m335.421 276.056c-.038-3.087 1.211-6.186 3.747-8.426 4.129-3.647 10.458-3.647 14.587 0 2.535 2.239 3.784 5.339 3.747 8.426-.049 4.009-4.972 5.932-7.807 3.098-1.786-1.786-4.681-1.786-6.467 0-2.836 2.834-7.759.91-7.807-3.098z" fill="#003060"/></g><g><path d="m355.293 255.637h-17.666c-3.659 0-6.625-2.966-6.625-6.625 0-3.659 2.966-6.625 6.625-6.625h17.666c3.659 0 6.625 2.966 6.625 6.625 0 3.659-2.966 6.625-6.625 6.625z" fill="#003060"/></g><g><path d="m430.372 255.637h-17.666c-3.659 0-6.625-2.966-6.625-6.625 0-3.659 2.966-6.625 6.625-6.625h17.666c3.659 0 6.625 2.966 6.625 6.625 0 3.659-2.966 6.625-6.625 6.625z" fill="#003060"/></g></g></g></svg>