<svg id="Layer_5" enable-background="new 0 0 64 64" height="512" viewBox="0 0 64 64" width="512" xmlns="http://www.w3.org/2000/svg"><g><g><g><path d="m30 36.6v15.4h-8c2.21 0 4-1.79 4-4v-8c0-1.1-.9-2-2-2h-3l.96-7.67 3.18.53c.57.09 1.12.27 1.64.53.98.49 1.79 1.25 2.35 2.15s.87 1.96.87 3.06z" fill="#4fc1e9"/></g><g><path d="m12.04 30.33.96 7.67h-3c-1.1 0-2 .9-2 2v8c0 2.21 1.79 4 4 4h-8v-15.4c0-2.21 1.25-4.22 3.22-5.21.52-.26 1.07-.44 1.64-.53z" fill="#4fc1e9"/></g><g><path d="m21 38h-8l4-4z" fill="#4fc1e9"/></g><g><path d="m21.96 30.33-.96 7.67-4-4 3-4z" fill="#3bafda"/></g><g><path d="m14 30 3 4-4 4-.96-7.67z" fill="#3bafda"/></g><g><path d="m60 36.6v15.4h-8c2.21 0 4-1.79 4-4v-8c0-1.1-.9-2-2-2h-14c-1.1 0-2 .9-2 2v8c0 2.21 1.79 4 4 4h-8v-15.4c0-1.61.66-3.1 1.78-4.19.42-.4.9-.75 1.44-1.02.52-.26 1.07-.44 1.64-.53l5.14-.86v1c0 1.66 1.34 3 3 3 .83 0 1.58-.34 2.12-.88s.88-1.29.88-2.12v-1l5.14.86c.57.09 1.12.27 1.64.53.54.27 1.02.62 1.44 1.02.35.34.66.72.91 1.13.56.9.87 1.96.87 3.06z" fill="#ff826e"/></g><g><path d="m62 53v2c0 .55-.45 1-1 1h-58c-.55 0-1-.45-1-1v-2c0-.55.45-1 1-1h1 8 10 8 4 8 10 8 1c.55 0 1 .45 1 1z" fill="#d3a06c"/></g><g><path d="m8 48h18c0 2.21-1.79 4-4 4h-10c-2.21 0-4-1.79-4-4z" fill="#aab2bd"/></g><g><path d="m26 40v8h-18v-8c0-1.1.9-2 2-2h3 8 3c1.1 0 2 .9 2 2z" fill="#ccd1d9"/></g><g><path d="m38 48h18c0 2.21-1.79 4-4 4h-10c-2.21 0-4-1.79-4-4z" fill="#aab2bd"/></g><g><path d="m56 40v8h-18v-8c0-1.1.9-2 2-2h14c1.1 0 2 .9 2 2z" fill="#ccd1d9"/></g><g><path d="m26 16v.23c0 1.12-.34 2.19-.93 3.08-.31-.2-.68-.31-1.07-.31h-2v-.01h-.17c-1.81 0-3.55-.72-4.83-2-1.28 1.28-3.02 2-4.83 2h-.17v.01h-2c-.39 0-.76.11-1.07.31-.59-.89-.93-1.96-.93-3.08 0-2.07.82-4.05 2.28-5.51l.63-.63c1.34-1.34 3.15-2.09 5.05-2.09 2.51 0 4.83 1.32 6.12 3.47l.92 1.53c1.66 0 3 1.34 3 3z" fill="#b27946"/></g><g><path d="m58.83 26.16c.72.73 1.17 1.73 1.17 2.83 0 1.21-.54 2.28-1.39 3.01l-.39.41c-.42-.4-.9-.75-1.44-1.02-.52-.26-1.07-.44-1.64-.53l-5.14-.86v-3.01l-.01-.01c1.22-.9 2.01-2.35 2.01-3.99v-4h-.17c-1.81 0-3.55-.72-4.83-2-1.28 1.28-3.02 2-4.83 2h-.17v4c0 1.64.79 3.09 2.01 3.99l-.01.01v3.01l-5.14.86c-.57.09-1.12.27-1.64.53-.54.27-1.02.62-1.44 1.02l-.39-.41c-.85-.73-1.39-1.8-1.39-3.01 0-1.1.45-2.1 1.17-2.83 1.71-1.71 2.83-3.91 2.83-6.33v-3.33c0-4.7 3.81-8.51 8.51-8.51h.98c4.7 0 8.51 3.81 8.51 8.51v3.33c0 2.42 1.12 4.62 2.83 6.33z" fill="#656d78"/></g><g><path d="m25.41 19.59c.37.36.59.86.59 1.41 0 1.1-.9 2-2 2h-2v-.01-3.99h2c.39 0 .76.11 1.07.31.12.08.24.17.34.28z" fill="#f0d0b4"/></g><g><path d="m12 22.99v.01h-2c-.55 0-1.05-.22-1.41-.59-.37-.36-.59-.86-.59-1.41 0-.71.37-1.33.93-1.69.31-.2.68-.31 1.07-.31h2z" fill="#f0d0b4"/></g><g><path d="m20 26.99v3.01l-3 4-3-4v-3.01l.01-.01c.83.64 1.87 1.01 2.99 1.01s2.16-.37 2.99-1.01z" fill="#f0d0b4"/></g><g><path d="m22 19v3.99.01c0 1.63-.79 3.09-2.01 3.98-.83.64-1.87 1.01-2.99 1.01s-2.16-.37-2.99-1.01c-1.22-.89-2.01-2.35-2.01-3.98v-.01-3.99-.01h.17c1.81 0 3.55-.72 4.83-2 1.28 1.28 3.02 2 4.83 2h.17z" fill="#f0d0b4"/></g><g><path d="m50 26.99v3.01 1c0 .83-.34 1.58-.88 2.12s-1.29.88-2.12.88c-1.66 0-3-1.34-3-3v-1-3.01l.01-.01c.83.64 1.87 1.01 2.99 1.01s2.16-.37 2.99-1.01z" fill="#f0d0b4"/></g><g><path d="m52 18.99v4c0 1.64-.79 3.09-2.01 3.99-.83.64-1.87 1.01-2.99 1.01s-2.16-.37-2.99-1.01c-1.22-.9-2.01-2.35-2.01-3.99v-4h.17c1.81 0 3.55-.72 4.83-2 1.28 1.28 3.02 2 4.83 2z" fill="#f0d0b4"/></g></g><path d="m61 51v-14.403c0-1.541-.518-2.982-1.415-4.149.902-.932 1.415-2.167 1.415-3.455 0-1.336-.52-2.592-1.464-3.536-1.636-1.635-2.536-3.633-2.536-5.627v-3.33c0-5.242-4.265-9.507-9.507-9.507h-.986c-5.242 0-9.507 4.265-9.507 9.507v3.33c0 1.994-.9 3.992-2.536 5.627-.944.944-1.464 2.2-1.464 3.536 0 1.288.514 2.522 1.415 3.454-.897 1.166-1.415 2.608-1.415 4.15v14.403h-2v-14.403c0-2.601-1.445-4.938-3.77-6.1-.61-.305-1.26-.517-1.929-.627l-4.301-.717v-1.701c.987-.886 1.677-2.09 1.909-3.453h1.091c1.654 0 3-1.346 3-3 0-.714-.261-1.361-.679-1.877.442-.896.679-1.88.679-2.892v-.23c0-2.004-1.482-3.669-3.408-3.956l-.655-1.092c-1.462-2.437-4.136-3.952-6.979-3.952-2.175 0-4.219.847-5.756 2.384l-.624.625c-1.662 1.662-2.578 3.872-2.578 6.221 0 1.011.237 1.995.679 2.893-.418.516-.679 1.163-.679 1.877 0 1.654 1.346 3 3 3h1.091c.232 1.362.922 2.567 1.909 3.453v1.701l-4.3.716c-.671.11-1.32.322-1.93.627-2.325 1.162-3.77 3.499-3.77 6.1v14.403c-1.103 0-2 .897-2 2v2c0 1.103.897 2 2 2h58c1.103 0 2-.897 2-2v-2c0-1.103-.897-2-2-2zm-25.122-24.129c2.014-2.013 3.122-4.513 3.122-7.041v-3.33c0-4.14 3.368-7.507 7.507-7.507h.986c4.139 0 7.507 3.367 7.507 7.507v3.33c0 2.528 1.108 5.028 3.122 7.041.566.567.878 1.32.878 2.122 0 .744-.305 1.455-.864 2.053-.285-.202-.585-.389-.905-.549-.61-.305-1.26-.517-1.929-.627l-4.302-.717v-1.701c1.224-1.099 2-2.688 2-4.46v-5h-1.171c-1.557 0-3.021-.606-4.122-1.707l-.707-.706-.707.707c-1.101 1.101-2.565 1.707-4.122 1.707h-1.171v5c0 1.771.776 3.36 2 4.46v1.701l-4.3.717c-.671.11-1.32.322-1.93.627-.322.161-.622.349-.909.552-.542-.562-.861-1.291-.861-2.057 0-.802.312-1.555.878-2.122zm13.122 3.129v.847.153c0 1.103-.897 2-2 2s-2-.897-2-2v-.153-.847-1.357c.627.223 1.298.35 2 .35s1.373-.128 2-.35zm-2-3.007c-2.206 0-4-1.794-4-4v-3.043c1.466-.153 2.843-.712 4-1.622 1.157.91 2.534 1.469 4 1.622v3.043c0 2.206-1.794 4-4 4zm-12 9.604c0-1.838 1.021-3.489 2.665-4.311.431-.216.889-.365 1.363-.443l3.99-.666c.095 2.123 1.837 3.823 3.982 3.823s3.887-1.701 3.982-3.823l3.992.666c.473.078.931.228 1.362.443 1.643.821 2.664 2.473 2.664 4.311v14.403h-3.026c.635-.838 1.026-1.87 1.026-3v-8c0-1.654-1.346-3-3-3h-14c-1.654 0-3 1.346-3 3v8c0 1.13.391 2.162 1.026 3h-3.026zm4.184 12.403h15.631c-.414 1.161-1.514 2-2.816 2h-9.999c-1.302 0-2.402-.839-2.816-2zm15.816-2h-16v-7c0-.552.449-1 1-1h14c.551 0 1 .448 1 1zm-28.665-14.714c1.644.821 2.665 2.473 2.665 4.311v14.403h-3.026c.635-.838 1.026-1.87 1.026-3v-8c0-1.654-1.346-3-3-3h-1.867l.689-5.516 2.152.359c.472.078.93.227 1.361.443zm-17.151 16.714h15.631c-.414 1.161-1.514 2-2.816 2h-9.999c-1.302 0-2.402-.839-2.816-2zm4.381-17.914 2.115 2.82-1.941 1.941-.586-4.692zm5.021 5.914h-3.172l1.586-1.586zm1.849-5.914.413.069-.586 4.693-1.941-1.941zm3.565 7.914c.551 0 1 .448 1 1v7h-16v-7c0-.552.449-1 1-1zm-3-16.007c0 2.206-1.794 4-4 4s-4-1.794-4-4v-3.043c1.466-.153 2.843-.712 4-1.622 1.157.91 2.534 1.469 4 1.622zm3-.993h-1v-2h1c.551 0 1 .448 1 1s-.449 1-1 1zm-15-1c0-.552.449-1 1-1h1v2h-1c-.551 0-1-.448-1-1zm3.171-3.007h-1.171v.007h-1c-.209 0-.412.022-.609.063-.253-.576-.391-1.196-.391-1.833 0-1.815.708-3.523 1.992-4.808l.624-.625c1.159-1.158 2.701-1.797 4.342-1.797 2.145 0 4.162 1.143 5.265 2.981l1.211 2.019h.566c1.103 0 2 .897 2 2v.23c0 .637-.138 1.257-.391 1.832-.197-.04-.4-.062-.609-.062h-1v-.007h-1.171c-1.557 0-3.021-.606-4.122-1.707l-.707-.707-.707.707c-1.101 1.101-2.565 1.707-4.122 1.707zm4.829 11c.702 0 1.373-.128 2-.35v1.024l-2 2.666-2-2.666v-1.024c.627.223 1.298.35 2 .35zm-12 7.604c0-1.838 1.021-3.489 2.665-4.311.431-.216.889-.365 1.363-.443l2.15-.359.689 5.516h-1.867c-1.654 0-3 1.346-3 3v8c0 1.13.391 2.162 1.026 3h-3.026zm-2 18.403v-2h9 10 20 10 9l.001 2z"/></g></svg>