<svg id="Layer_3" enable-background="new 0 0 64 64" height="512" viewBox="0 0 64 64" width="512" xmlns="http://www.w3.org/2000/svg"><g><path d="m48 33-19-19c0-1.657 1.343-3 3-3l22 22" fill="#f2c351"/><path d="m29 14 10.95 10.95c.149-1.096.233-2.214.233-3.351 0-.86-.045-1.709-.131-2.546l-8.052-8.053c-1.657 0-3 1.343-3 3z" fill="#f7d881"/><path d="m35 33-19-19c0-1.657 1.343-3 3-3l22 22" fill="#f2c351"/><path d="m19 11c-1.657 0-3 1.343-3 3l19 19h2.38c.422-.804.799-1.635 1.131-2.489z" fill="#f7d881"/><path d="m56 53h-48c-3.314 0-6-2.686-6-6v-12c0-1.105.895-2 2-2h56c1.105 0 2 .895 2 2v12c0 3.314-2.686 6-6 6z" fill="#758190"/><path d="m4 33c-1.105 0-2 .895-2 2v7.104c3.893 2.584 8.562 4.093 13.585 4.093 9.47 0 17.684-5.354 21.795-13.197z" fill="#a8b0bc"/><path d="m55 49h-46c-1.657 0-3-1.343-3-3v-8c0-.552.448-1 1-1h50c.552 0 1 .448 1 1v8c0 1.657-1.343 3-3 3z" fill="#d5cec2"/><path d="m7 37c-.552 0-1 .448-1 1v6.26c2.946 1.247 6.184 1.937 9.585 1.937 7.754 0 14.666-3.591 19.174-9.197z" fill="#e7e4dd"/><path d="m25 17-3 3-6-6c0-1.657 1.343-3 3-3z" fill="#78b75b"/><path d="m38 17-3 3-6-6c0-1.657 1.343-3 3-3z" fill="#e47c6e"/><path d="m14 33 5.464-3.903c.884-.632 1.178-1.813.692-2.785-.607-1.214-2.155-1.598-3.259-.81l-4.897 3.498v4z" fill="#cbc3b6"/><path d="m12 33h-8v-2c0-1.105.895-2 2-2h6z" fill="#243242"/><path d="m52 45h-6c-1.105 0-2-.895-2-2 0-1.105.895-2 2-2h6c1.105 0 2 .895 2 2 0 1.105-.895 2-2 2z" fill="#c66b60"/><path d="m6 29c-1.105 0-2 .895-2 2v2h3.988c1.281-1.035 2.266-2.417 2.826-4z" fill="#4d5d7a"/><path d="m52 41h-6c-1.105 0-2 .895-2 2s.895 2 2 2h2.943c1.48-.912 2.62-2.315 3.193-3.986-.046-.003-.09-.014-.136-.014z" fill="#e47c6e"/><g><path d="m60 31.999h-5.586l-21.707-21.707c-.188-.187-.442-.292-.707-.292-2.206 0-4 1.794-4 4 0 .265.105.52.292.707l17.292 17.292h-4.17l-21.707-21.707c-.188-.187-.442-.292-.707-.292-1.069 0-2.073.416-2.829 1.171s-1.171 1.761-1.171 2.829c0 .265.105.52.292.707l17.292 17.292h-15.464l2.925-2.089c1.292-.923 1.715-2.625 1.005-4.046-.42-.84-1.184-1.453-2.096-1.679-.909-.223-1.873-.043-2.639.503l-4.637 3.312h-5.678c-1.654 0-3 1.346-3 3v1.184c-1.161.414-2 1.514-2 2.815l-.001 12.001c0 3.859 3.141 7 7 7h48c3.859 0 7-3.141 7-7v-12c.001-1.655-1.345-3.001-2.999-3.001zm-28.379-19.963 4.964 4.964-1.586 1.586-4.964-4.964c.154-.801.786-1.433 1.586-1.586zm4.793 7.963 1.586-1.586 13.585 13.585h-3.171zm-18.829-7.414c.287-.287.646-.476 1.036-.55l4.964 4.964-1.585 1.586-4.964-4.964c.073-.39.262-.749.549-1.036zm5.829 7.414 1.586-1.585 13.585 13.585h-3.171zm-5.936 6.316c.292-.208.647-.273.994-.189.349.087.629.312.79.632.267.535.108 1.176-.379 1.524l-5.203 3.716h-.68v-2.485zm-12.478 4.685c0-.552.448-1 1-1h5v1.999h-6zm56 16c0 2.757-2.243 5-5 5h-48c-2.757 0-5-2.243-5-5l.001-12c0-.551.448-1 1-1h7.999 48c.551 0 1 .449 1 1z"/><path d="m56.999 36h-49.999c-1.103 0-2 .897-2 2v8c0 2.206 1.794 4 4 4h46c2.206 0 4-1.794 4-4v-8c-.001-1.104-.898-2-2.001-2zm0 9.999c0 1.103-.897 2-2 2h-45.999c-1.103 0-2-.897-2-2v-8h50v8z"/><path d="m46 46h6c1.654 0 2.999-1.346 2.999-3 0-1.655-1.345-3-2.999-3h-6c-1.654 0-3 1.346-3 3s1.345 3 3 3zm0-4h6c.551 0 .999.448.999 1 0 .551-.448 1-.999 1h-6c-.552 0-1-.449-1-1 0-.552.448-1 1-1z"/></g></g></svg>