<?xml version="1.0" encoding="iso-8859-1"?>
<!-- Generator: Adobe Illustrator 19.0.0, SVG Export Plug-In . SVG Version: 6.00 Build 0)  -->
<svg version="1.1" id="Capa_1" xmlns="http://www.w3.org/2000/svg" xmlns:xlink="http://www.w3.org/1999/xlink" x="0px" y="0px"
	 viewBox="0 0 512.076 512.076" style="enable-background:new 0 0 512.076 512.076;" xml:space="preserve">
<g>
	<path style="fill:#46B29D;" d="M345.082,84.397c-1.732-4.9-6.959-7.624-11.967-6.237l-22.961,5.565
		c-23.248,5.986-42.896,21.495-54.116,42.718c-11.222-21.224-30.871-36.733-54.121-42.718l-22.956-5.565
		c-5.008-1.384-10.233,1.339-11.967,6.237c-0.606,2.355-0.207,4.857,1.102,6.907s3.409,3.465,5.8,3.908l22.951,5.565
		c28.649,7.939,48.723,33.698,49.422,63.418c0.509,5.013,4.73,8.827,9.768,8.827s9.26-3.814,9.768-8.827
		c0.699-29.719,20.771-55.477,49.418-63.418l22.956-5.565c2.391-0.443,4.492-1.858,5.8-3.908
		C345.289,89.253,345.688,86.752,345.082,84.397z"/>
	<path style="fill:#D75E72;" d="M388.452,379.586c0.024,61.838-42.753,115.461-103.05,129.178
		c-60.298,13.717-122.061-16.124-148.79-71.887s-11.306-122.601,37.154-161.015c12.715-9.777,20.259-24.834,20.48-40.872v-40.783
		H176.59c-9.739-0.029-17.627-7.916-17.655-17.655c0.07-9.722,7.934-17.585,17.655-17.655h158.897
		c9.739,0.028,17.627,7.916,17.655,17.655c-0.07,9.721-7.934,17.585-17.655,17.655h-17.655v41.843
		c0.167,15.467,7.505,29.979,19.862,39.283C369.748,300.426,388.469,338.877,388.452,379.586z"/>
	<path style="fill:#F0C419;" d="M194.245,70.621c-1.265-11.42-10.959-20.036-22.449-19.954c8.183-8.066,8.945-21.013,1.764-29.983
		c-8.97-7.18-21.916-6.419-29.982,1.764C143.66,10.959,135.044,1.266,123.624,0c-11.42,1.265-20.036,10.959-19.954,22.449
		c-8.066-8.183-21.012-8.945-29.982-1.764c-7.181,8.97-6.419,21.916,1.764,29.983c-11.49-0.082-21.183,8.533-22.449,19.954
		c1.266,11.42,10.959,20.036,22.449,19.954c-8.183,8.066-8.945,21.013-1.764,29.982c8.97,7.18,21.916,6.419,29.982-1.764
		c-0.082,11.49,8.533,21.183,19.954,22.448c11.42-1.265,20.036-10.959,19.954-22.449c8.066,8.183,21.012,8.944,29.982,1.764
		c7.181-8.97,6.419-21.916-1.764-29.982C183.286,90.656,192.979,82.041,194.245,70.621z"/>
	<circle style="fill:#E64C3C;" cx="123.624" cy="70.621" r="17.655"/>
	<path style="fill:#F0C419;" d="M317.831,70.621c1.265-11.42,10.959-20.036,22.449-19.954c-8.183-8.066-8.945-21.013-1.764-29.983
		c8.97-7.18,21.916-6.419,29.982,1.764C368.416,10.959,377.032,1.266,388.452,0c11.42,1.265,20.036,10.959,19.954,22.449
		c8.066-8.183,21.012-8.945,29.982-1.764c7.181,8.97,6.419,21.916-1.764,29.983c11.49-0.082,21.183,8.533,22.449,19.954
		c-1.266,11.42-10.959,20.036-22.449,19.954c8.183,8.066,8.945,21.013,1.764,29.982c-8.97,7.18-21.916,6.419-29.982-1.764
		c0.082,11.49-8.533,21.183-19.954,22.448c-11.42-1.265-20.036-10.959-19.954-22.449c-8.066,8.183-21.012,8.944-29.982,1.764
		c-7.181-8.97-6.419-21.916,1.764-29.982C328.79,90.656,319.097,82.041,317.831,70.621z"/>
	<circle style="fill:#E64C3C;" cx="388.452" cy="70.621" r="17.655"/>
	<path style="fill:#FB7B76;" d="M185.417,454.991c-2.432,0.002-4.756-1.001-6.422-2.772
		c-33.583-35.543-38.422-89.473-11.703-130.427c2.673-4.066,8.131-5.203,12.205-2.542s5.227,8.116,2.579,12.198
		c-22.261,34.121-18.223,79.054,9.763,108.659c2.417,2.563,3.079,6.319,1.683,9.554S188.941,454.992,185.417,454.991z"/>
</g>
<g>
</g>
<g>
</g>
<g>
</g>
<g>
</g>
<g>
</g>
<g>
</g>
<g>
</g>
<g>
</g>
<g>
</g>
<g>
</g>
<g>
</g>
<g>
</g>
<g>
</g>
<g>
</g>
<g>
</g>
</svg>
