<?xml version="1.0" encoding="iso-8859-1"?>
<!-- Generator: Adobe Illustrator 19.0.0, SVG Export Plug-In . SVG Version: 6.00 Build 0)  -->
<svg version="1.1" id="Capa_1" xmlns="http://www.w3.org/2000/svg" xmlns:xlink="http://www.w3.org/1999/xlink" x="0px" y="0px"
	 viewBox="0 0 512 512" style="enable-background:new 0 0 512 512;" xml:space="preserve">
<path style="fill:#289F87;" d="M39.724,476.69v-35.31V150.07c0-24.373,19.765-44.138,44.138-44.138h26.483h44.138h211.862V370.76
	v35.31v35.31l0,0"/>
<g>
	<path style="fill:#208673;" d="M366.345,423.724H172.138c-24.373,0-44.138-19.765-44.138-44.138V105.931h238.345V423.724z"/>
	<path style="fill:#208673;" d="M39.724,476.69h61.793v-35.31V105.931H83.862c-24.373,0-44.138,19.765-44.138,44.138V476.69z"/>
</g>
<path style="fill:#B9B9B9;" d="M366.345,512H75.034c-19.5,0-35.31-15.81-35.31-35.31l0,0c0-19.5,15.81-35.31,35.31-35.31h291.31V512
	H366.345z"/>
<path style="fill:#EA9D2D;" d="M154.483,370.759v-35.31V44.138C154.483,19.765,174.248,0,198.621,0h26.483h247.172v335.448l0,0"/>
<g>
	<rect x="251.59" y="35.31" style="fill:#B47923;" width="185.38" height="105.93"/>
	<rect x="278.07" y="176.55" style="fill:#B47923;" width="132.41" height="17.655"/>
	<rect x="278.07" y="211.86" style="fill:#B47923;" width="132.41" height="17.655"/>
	<rect x="366.35" y="291.31" style="fill:#B47923;" width="44.14" height="17.655"/>
</g>
<path style="fill:#D68F29;" d="M216.276,0v335.448v35.31h-61.793V105.931V44.138C154.483,19.765,174.248,0,198.621,0H216.276z"/>
<path style="fill:#DBDBDB;" d="M366.345,406.069H189.793c-19.5,0-35.31-15.81-35.31-35.31l0,0c0-19.5,15.81-35.31,35.31-35.31
	h282.483v70.621h-35.31"/>
<path style="fill:#B9B9B9;" d="M189.793,406.069h176.552h70.621h35.31v-35.31H154.483
	C154.483,390.259,170.293,406.069,189.793,406.069z"/>
<polygon style="fill:#DC4D41;" points="366.345,370.759 436.966,370.759 436.966,476.69 401.655,441.379 366.345,476.69 "/>
<rect x="366.35" y="370.76" style="fill:#C7463B;" width="70.62" height="26.483"/>
<g>
</g>
<g>
</g>
<g>
</g>
<g>
</g>
<g>
</g>
<g>
</g>
<g>
</g>
<g>
</g>
<g>
</g>
<g>
</g>
<g>
</g>
<g>
</g>
<g>
</g>
<g>
</g>
<g>
</g>
</svg>
