<svg id="Capa_1" enable-background="new 0 0 512 512" height="512" viewBox="0 0 512 512" width="512" xmlns="http://www.w3.org/2000/svg"><g id="XMLID_332_"><path id="XMLID_376_" d="m204.578 235.45h-30v-16.485c0-15.574-12.671-28.245-28.245-28.245v-30c32.116 0 58.245 26.129 58.245 58.245z" fill="#b34f03"/><path id="XMLID_370_" d="m337.422 235.45h-30v-16.485c0-32.116 26.129-58.245 58.245-58.245v30c-15.574 0-28.245 12.671-28.245 28.245z" fill="#813602"/><path id="XMLID_431_" d="m227.246 217.289c-9.758-2.705-20.222-1.08-30.257 4.696-4.572 2.633-10.25 2.633-14.822 0-10.034-5.776-20.493-7.402-30.259-4.696-26.183 7.26-45.763 51.742-38.796 88.141l1.788 9.345 149.389-.107 1.775-9.348c6.905-36.358-12.685-80.785-38.818-88.031z" fill="#c7eb4b"/><path id="XMLID_393_" d="m360.09 217.289c-9.757-2.705-20.222 8.92-30.257 14.696-4.572 2.633-10.25 2.633-14.822 0-10.035-5.777-20.497-17.4-30.259-14.696-26.132 7.246-45.722 51.673-38.816 88.031l1.776 9.354h149.42l1.776-9.354c6.905-36.358-12.684-80.785-38.818-88.031z" fill="#b8dc38"/><path id="XMLID_315_" d="m24.022 288.262v119.458c0 46.317 37.683 84 84 84h296.133c46.317 0 84-37.683 84-84v-119.458z" fill="#ffde8d"/><path id="XMLID_624_" d="m256.089 288.262v203.458h148.066c46.317 0 84-37.683 84-84v-119.458z" fill="#ffb64c"/><path id="XMLID_345_" d="m452.14 320.262h-392.102v-103.931c0-108.103 87.948-196.051 196.051-196.051s196.051 87.949 196.051 196.051zm-362.102-30h332.102v-73.931c0-91.561-74.49-166.051-166.051-166.051s-166.051 74.491-166.051 166.051z" fill="#ffde8d"/><path id="XMLID_653_" d="m256.089 20.28v30c91.561 0 166.051 74.49 166.051 166.051v73.931h-166.051v30h196.051v-103.931c0-108.102-87.949-196.051-196.051-196.051z" fill="#ffb64c"/><path id="XMLID_377_" d="m24.022 288.262h464.133v89.458h-464.133z" fill="#b34f03"/><path id="XMLID_625_" d="m256.089 288.262h232.066v89.458h-232.066z" fill="#813602"/><path id="XMLID_340_" d="m0 286.179h512v30h-512z" fill="#ffb64c"/><path id="XMLID_622_" d="m360.09 217.289c-9.757-2.705-20.222-1.08-30.257 4.696-4.572 2.633-10.25 2.633-14.822 0-10.035-5.777-20.497-7.4-30.259-4.696-11.327 3.141-21.419 13.273-28.663 26.699v70.686h141.043l1.776-9.354c6.905-36.358-12.684-80.785-38.818-88.031z" fill="#6bc900"/><path id="XMLID_1392_" d="m256.089 286.179h255.911v30h-255.911z" fill="#ff9100"/></g></svg>