<svg id="Capa_1" enable-background="new 0 0 512 512" height="512" viewBox="0 0 512 512" width="512" xmlns="http://www.w3.org/2000/svg"><g><g><path d="m359.959 416.072c0 28.032-7.678 53.949-20.699 74.966-5.221 8.428-14.519 13.462-24.433 13.462h-125.177c-9.914 0-19.212-5.034-24.433-13.462-13.021-21.017-20.699-46.934-20.699-74.966 0-30.094 8.852-57.732 23.648-79.516 3.599-5.313 6.656-10.997 8.641-17.112 3.408-10.526 4.692-21.784 4.23-32.6-.682-15.979-5.163-31.007-12.22-41.342-1.524-2.246-3.188-4.281-4.952-6.045h176.726c-.852.852-1.674 1.764-2.466 2.737-8.471 10.265-13.934 26.866-14.696 44.65-.461 10.817.822 22.074 4.23 32.6 1.985 6.105 5.032 11.799 8.651 17.112 14.787 21.784 23.649 49.422 23.649 79.516z" fill="#9dc6fb"/><path d="m338.125 242.193h-124.198c-.356-.967-.721-1.887-1.1-2.737h-48.951c1.762 1.763 3.41 3.798 4.942 6.044 0 0-.001 0-.001.001.032.047.068.095.101.142 11.749 17.353 16.306 47.79 7.89 73.8-1.985 6.115-5.032 11.799-8.641 17.112-14.796 21.784-23.648 49.422-23.648 79.516 0 28.032 7.678 53.949 20.699 74.966 5.221 8.428 14.519 13.462 24.433 13.462h28.069c-8.381-22.876-13.523-54.063-13.523-88.428 0-30.094 3.95-57.732 10.546-79.516 1.604-5.313 2.967-10.997 3.849-17.112.385-2.66.708-5.366.974-8.099 1.351-13.9 13.036-24.501 27.001-24.501h76.862c.762-17.783 6.225-34.384 14.696-44.65z" fill="#80b4fb"/><path d="m330.953 264.518h-157.44c-12.331 0-22.327-9.996-22.327-22.327s9.996-22.327 22.327-22.327h157.44c12.331 0 22.327 9.996 22.327 22.327s-9.996 22.327-22.327 22.327z" fill="#9dc6fb"/><path d="m238.13 264.518h-64.62c-12.33 0-22.325-9.995-22.325-22.325s9.995-22.325 22.325-22.325h64.619c-12.33 0-22.325 9.995-22.325 22.325.001 12.331 9.995 22.325 22.326 22.325z" fill="#80b4fb"/><g><path d="m145.875 62.409c11.594 13.379 17.514 29.274 17.517 43.651-.006 12.209-4.276 23.324-12.973 30.86-18.933 16.406-51.666 9.645-73.107-15.098-21.435-24.736-23.469-58.098-4.537-74.504 8.697-7.537 20.307-10.182 32.392-8.45 14.224 2.04 29.121 10.169 40.708 23.541z" fill="#da387d"/><path d="m122.67 82.517c11.594 13.379 26.484 21.501 40.722 23.542-.006 12.209-4.276 23.324-12.973 30.86-18.933 16.406-51.666 9.645-73.107-15.098-21.435-24.736-23.469-58.098-4.537-74.504 8.697-7.537 20.307-10.182 32.392-8.45-.004 14.37 5.923 30.272 17.503 43.65z" fill="#d80a61"/><ellipse cx="74.459" cy="124.298" fill="#da387d" rx="45.363" ry="59.28" transform="matrix(.756 -.655 .655 .756 -63.212 79.123)"/><path d="m122.96 155.58c-2.154 5.183-5.376 9.792-9.679 13.521-18.933 16.406-51.666 9.645-73.107-15.098-21.435-24.736-23.469-58.098-4.537-74.504 4.303-3.729 9.324-6.262 14.761-7.657-7.335 17.605-2.355 41.874 14.209 60.989 16.57 19.122 39.884 27.504 58.353 22.749z" fill="#d80a61"/><path d="m77.534 176.954 85.743-74.3c17.187 19.834 15.041 49.845-4.793 67.032l-13.918 12.06c-19.834 17.187-49.845 15.042-67.032-4.792z" fill="#aad880"/><path d="m164.437 163.519c-1.763 2.191-3.751 4.259-5.956 6.169l-13.917 12.06c-19.834 17.187-49.841 15.042-67.028-4.793l26.819-23.24c15.276 17.63 40.684 21.28 60.082 9.804z" fill="#9bd069"/></g><g><path d="m462.298 165.142c-14.045 10.778-30.263 15.743-44.615 14.89-12.187-.732-23.028-5.655-30.035-14.785-15.251-19.874-6.556-52.148 19.418-72.08 25.966-19.926 59.39-19.974 74.641-.099 7.006 9.13 8.956 20.876 6.51 32.837-2.882 14.078-11.882 28.466-25.919 39.237z" fill="#da387d"/><path d="m443.605 140.782c-14.045 10.778-23.038 25.159-25.922 39.25-12.187-.732-23.028-5.655-30.035-14.785-15.251-19.874-6.556-52.148 19.418-72.08 25.966-19.926 59.39-19.974 74.641-.099 7.006 9.13 8.956 20.876 6.51 32.837-14.343-.857-30.569 4.114-44.612 14.877z" fill="#d80a61"/><ellipse cx="404.764" cy="90.173" fill="#da387d" rx="59.28" ry="45.363" transform="matrix(.793 -.609 .609 .793 28.754 265.049)"/><path d="m370.654 136.728c-5.046-2.459-9.455-5.949-12.922-10.466-15.251-19.874-6.556-52.148 19.418-72.08 25.966-19.926 59.39-19.974 74.641-.099 3.466 4.517 5.697 9.68 6.766 15.19-17.137-8.369-41.66-4.84-61.726 10.558-20.072 15.404-29.826 38.178-26.177 56.897z" fill="#d80a61"/><path d="m352.019 90.112 69.07 90.009c-20.821 15.977-50.651 12.051-66.629-8.77l-11.212-14.61c-15.976-20.821-12.05-50.652 8.771-66.629z" fill="#aad880"/><path d="m360.263 177.659c-2.082-1.89-4.028-3.998-5.804-6.312l-11.211-14.61c-15.977-20.821-12.052-50.647 8.769-66.625l21.604 28.154c-18.506 14.202-23.661 39.348-13.358 59.393z" fill="#9bd069"/></g><g><path d="m322.165 66.776c0 17.704-5.935 33.593-15.348 44.46-8 9.223-18.506 14.827-30.014 14.827-25.052 0-45.362-26.545-45.362-59.286 0-32.731 20.31-59.276 45.362-59.276 11.508 0 22.014 5.604 30.014 14.827 9.413 10.855 15.348 26.755 15.348 44.448z" fill="#da387d"/><path d="m291.459 66.776c0 17.704 5.935 33.593 15.358 44.46-8 9.223-18.506 14.827-30.014 14.827-25.052 0-45.362-26.545-45.362-59.286 0-32.731 20.31-59.276 45.362-59.276 11.508 0 22.014 5.604 30.014 14.827-9.413 10.855-15.348 26.755-15.358 44.448z" fill="#d80a61"/><ellipse cx="227.663" cy="66.78" fill="#da387d" rx="45.363" ry="59.28"/><path d="m243.832 122.183c-5.022 2.506-10.476 3.88-16.17 3.88-25.052 0-45.362-26.545-45.362-59.286 0-32.731 20.31-59.276 45.362-59.276 5.694 0 11.148 1.373 16.17 3.88-17.072 8.501-29.202 30.104-29.202 55.397 0 25.301 12.13 46.904 29.202 55.405z" fill="#d80a61"/><path d="m195.504 108.587h113.456c0 26.245-21.275 47.52-47.52 47.52h-18.416c-26.244 0-47.52-21.275-47.52-47.52z" fill="#aad880"/><path d="m269.978 155.345c-2.767.501-5.624.762-8.541.762h-18.415c-26.245 0-47.517-21.272-47.517-47.517h35.488c-.001 23.327 16.81 42.725 38.985 46.755z" fill="#9bd069"/></g><g><ellipse cx="348.995" cy="255.386" fill="#aad880" rx="37.25" ry="69.557" transform="matrix(.707 -.707 .707 .707 -78.367 321.577)"/></g><g><ellipse cx="299.81" cy="275.759" fill="#9bd069" rx="37.25" ry="69.557"/></g></g><path d="m487.659 88.503c-5.281-6.882-12.487-11.959-21.057-14.898-.602-8.778-3.478-17.075-8.86-24.088-8.815-11.487-22.725-17.81-39.175-17.81-.029 0-.058 0-.087 0-15.737.021-32.036 5.89-45.895 16.525-13.065 10.026-22.605 23.271-27.092 37.514-22.338 18.809-26.148 52.162-8.194 75.559l4.006 5.221c-13.411 10.842-23.786 21.15-30.95 30.743-4.004.262-8.016.78-12.015 1.58l.003.015c-.944.188-1.862.542-2.694 1.097-5.457 3.64-10.437 7.808-14.901 12.406h-21.011v-48.761h1.704c29.493 0 53.633-23.327 54.956-52.499 8.568-12.23 13.269-27.862 13.269-44.332-.001-36.819-23.715-66.775-52.863-66.775-8.674 0-17.089 2.626-24.638 7.635-7.33-4.866-15.663-7.635-24.503-7.635-29.148 0-52.862 29.956-52.862 66.776 0 16.469 4.7 32.101 13.268 44.331 1.322 29.172 25.463 52.5 54.956 52.5h1.712v48.761h-45.509c-5-12.01-15.975-25.394-32.741-39.926 9.247-9.327 14.811-21.507 15.758-34.745.988-13.82-3.158-27.22-11.7-38.016-1.53-14.851-8.212-29.739-18.976-42.155-.302-.353-.604-.692-.919-1.032-2.813-3.039-7.558-3.222-10.599-.408-3.04 2.814-3.222 7.559-.408 10.599.186.2.363.4.566.637 8.364 9.649 13.675 20.964 15.209 32.217l-24.187 20.959c-3.054-10.945-8.801-21.56-16.826-30.821-12.537-14.468-28.702-23.319-44.431-25.816 1.762-4.282 4.359-7.971 7.714-10.875 9.78-8.478 25.28-9.421 40.45-2.46 3.766 1.727 8.217.075 9.944-3.689 1.727-3.765.075-8.217-3.689-9.944-20.586-9.445-42.247-7.621-56.526 4.757-6.557 5.676-11.198 13.172-13.626 21.905-8.726 1.123-16.836 4.488-23.517 10.276-22.028 19.089-20.332 57.257 3.781 85.083 10.783 12.445 24.571 21.18 39.054 24.813 9.47 9.99 22.143 15.999 35.963 16.987 1.341.096 2.676.144 4.007.144 13.22 0 25.857-4.699 35.948-13.443l5.68-4.922c12.859 10.961 22.107 21.081 27.315 29.875h-8.964c-16.445 0-29.825 13.379-29.825 29.825 0 15.8 12.351 28.762 27.904 29.756 3.214 14.828 2.565 31.334-1.918 45.182-1.595 4.93-4.119 9.91-7.707 15.213-16.321 24.017-24.947 52.969-24.947 83.725 0 28.58 7.547 55.869 21.827 78.924 6.508 10.49 18.311 17.006 30.803 17.006h125.18c12.504 0 24.309-6.519 30.806-17.011 14.277-23.05 21.824-50.339 21.824-78.919 0-10.466-1.032-20.89-3.068-30.983-.819-4.06-4.771-6.685-8.835-5.869-4.061.819-6.688 4.774-5.869 8.835 1.839 9.119 2.772 18.545 2.772 28.017 0 25.787-6.769 50.346-19.576 71.021-3.785 6.112-10.702 9.909-18.054 9.909h-125.18c-7.344 0-14.263-3.799-18.054-9.909-12.807-20.676-19.576-45.234-19.576-71.021 0-27.342 7.938-54.082 22.362-75.307 4.4-6.502 7.528-12.722 9.563-19.013 5.022-15.51 6.011-33.165 2.961-49.732h68.245c-.051 1.243-.086 2.489-.086 3.741 0 30.507 15.173 58.843 40.587 75.796 1.26.84 2.711 1.261 4.162 1.261s2.902-.42 4.162-1.261c8.088-5.395 15.133-11.947 20.988-19.351 1.479 2.832 3.179 5.678 5.144 8.575 4.25 6.247 7.986 13.048 11.104 20.214 1.229 2.824 3.986 4.509 6.881 4.509.999 0 2.015-.201 2.989-.625 3.798-1.653 5.537-6.072 3.884-9.87-3.491-8.021-7.682-15.647-12.451-22.659-3.576-5.27-6.103-10.252-7.715-15.203-.023-.072-.042-.146-.065-.218 2.161-4.262 3.99-8.694 5.458-13.261 12.865 6.572 27.244 10.003 41.716 10.002 5.932 0 11.882-.576 17.746-1.748 2.971-.593 5.293-2.916 5.886-5.886 5.981-29.964-3.327-60.727-24.898-82.288-14.129-14.129-32.196-22.996-51.394-25.754 5.683-6.202 12.784-12.76 21.264-19.625 10.778 12.503 26.166 19.051 41.712 19.051 10.903 0 21.883-3.223 31.4-9.865 14.916-.65 30.177-6.437 43.241-16.462 13.858-10.635 23.745-24.86 27.837-40.056 4.293-15.919 1.792-31.024-7.038-42.531zm-172.994-21.727c0 12.768-3.395 24.799-9.602 34.311h-32.006c4.859-10.272 7.468-22.058 7.468-34.311 0-19.146-6.421-36.423-16.675-48.61 4.135-2.083 8.516-3.166 12.954-3.166 20.876 0 37.861 23.227 37.861 51.776zm-87.003-51.776c20.877 0 37.862 23.227 37.862 51.776 0 12.768-3.395 24.799-9.602 34.311h-56.519c-6.207-9.512-9.602-21.543-9.602-34.311-.001-28.549 16.984-51.776 37.861-51.776zm-23.953 101.087h97.047c-3.521 18.494-19.812 32.52-39.315 32.52h-18.417c-19.504 0-35.794-14.026-39.315-32.52zm-157.867 33.004c-18.696-21.575-21.071-50.252-5.293-63.924 15.777-13.672 43.824-7.242 62.521 14.334 8.361 9.649 13.674 20.964 15.212 32.218l-42.713 37.013c-10.921-3.124-21.366-9.992-29.727-19.641zm93.813 26.988c-8.078 7-18.398 10.438-29.062 9.673-8.125-.581-15.706-3.546-21.952-8.499l73.353-63.563c4.013 6.887 5.87 14.813 5.289 22.938-.762 10.663-5.631 20.39-13.709 27.39zm33.854 80.939c-8.174 0-14.825-6.65-14.825-14.825s6.65-14.825 14.825-14.825h95.466c-5.685 9.057-9.75 19.084-11.965 29.65zm126.301 79.078c-18.717-14.373-29.75-36.567-29.75-60.337s11.032-45.964 29.75-60.337c18.717 14.373 29.75 36.567 29.75 60.337s-11.032 45.964-29.75 60.337zm91.854-38.053c-16.581 2.151-33.61-1.255-48.001-9.572.586-4.178.897-8.423.897-12.713 0-24.079-9.459-46.8-25.939-63.645 19.146.586 37.549 8.377 51.414 22.242 16.807 16.799 24.7 40.287 21.629 63.688zm-9.948-237.91c11.26-8.64 24.323-13.408 36.784-13.425h.066c11.681 0 21.366 4.24 27.276 11.941 12.709 16.563 4.623 44.177-18.026 61.558-10.129 7.773-21.74 12.403-33.066 13.27l-34.408-44.839c3.769-10.716 11.246-20.733 21.374-28.505zm-21.305 106.652-11.211-14.61c-11.874-15.473-10.664-36.935 1.865-50.988l59.08 76.991c-16.817 8.466-37.861 4.08-49.734-11.393zm119.807-39.65c-3.241 12.032-11.226 23.417-22.485 32.056-10.129 7.773-21.74 12.403-33.066 13.27l-19.485-25.392c11.107-2.399 22.045-7.504 31.766-14.964 15.187-11.654 24.984-27.264 28.411-42.816 4.168 2.012 7.698 4.823 10.399 8.344 5.922 7.718 7.506 18.195 4.46 29.502z"/></g></svg>