<svg id="Capa_1" enable-background="new 0 0 511.667 511.667" height="512" viewBox="0 0 511.667 511.667" width="512" xmlns="http://www.w3.org/2000/svg"><g><g><path d="m240.221 11.52c-98.801 54.225-147.638 145.306-147.638 145.306h326.501s-48.837-91.082-147.638-145.306c-9.835-5.397-21.39-5.397-31.225 0z" fill="#fdf6ec"/></g><g><path d="m419.089 156.822h-27.196c-17.359-27.435-66.623-96.263-148.37-141.127-1.965-1.077-3.991-1.955-6.066-2.624.918-.529 1.836-1.038 2.763-1.546 9.837-5.397 21.39-5.397 31.226 0 98.798 54.221 147.643 145.297 147.643 145.297z" fill="#fef1da"/></g><g><path d="m455.698 420.945v-.001c10.762-95.316-29.211-203.14-29.211-203.14h-170.654-170.653s-39.973 107.825-29.211 203.14v.001c1.279 6.591-.029 13.451-3.77 19.026-5.936 8.846-11.512 21.185-13.715 37.802-1.842 13.893 8.89 26.286 22.904 26.398 15.46.124 36.59-3.491 57.509-19.104 4.371-3.262 9.712-4.963 15.165-4.963h121.771 121.771c5.454 0 10.795 1.701 15.165 4.963 20.919 15.612 42.05 19.228 57.509 19.104 14.014-.112 24.746-12.506 22.904-26.398-2.204-16.617-7.779-28.956-13.715-37.802-3.741-5.575-5.048-12.436-3.769-19.026z" fill="#e8ad8c"/></g><g><path d="m450.275 504.173c-4.609.04-9.737-.259-15.204-1.117 10.396-3.352 17.449-13.807 15.923-25.28-2.205-16.621-7.772-28.962-13.708-37.801-3.741-5.577-5.048-12.441-3.771-19.025v-.01c10.755-95.315-29.211-203.141-29.211-203.141h22.188s39.966 107.826 29.211 203.141v.01c-1.287 6.584.02 13.448 3.761 19.025 5.936 8.839 11.513 21.18 13.718 37.801 1.845 13.887-8.89 26.287-22.907 26.397z" fill="#e19974"/></g><g><path d="m431.961 217.803h-352.255c-11.18 0-20.243-9.063-20.243-20.243v-20.49c0-11.18 9.063-20.243 20.243-20.243h352.255c11.18 0 20.243 9.063 20.243 20.243v20.49c0 11.18-9.063 20.243-20.243 20.243z" fill="#f4d7c8"/></g><g><path d="m452.201 177.074v20.482c0 11.184-9.059 20.242-20.242 20.242h-19.953c11.184 0 20.242-9.059 20.242-20.242v-20.482c0-11.184-9.059-20.252-20.242-20.252h19.953c11.183 0 20.242 9.068 20.242 20.252z" fill="#ecbba3"/></g><g><path d="m219.979 266.964c-6.63-.335-12.238.881-15.698 1.923-2.405.724-4.208 2.716-4.691 5.181-.694 3.546-1.349 9.246-.359 15.811 2.691 17.848 19.35 32.932 37.376 33.843 11.16.564 19.424-3.265 19.424-3.265s2.992-8.602 1.326-19.652c-2.692-17.847-19.352-32.93-37.378-33.841z" fill="#fee97d"/></g><g><path d="m295.745 266.964c6.63-.335 12.238.881 15.698 1.923 2.405.724 4.208 2.716 4.691 5.181.694 3.546 1.349 9.246.359 15.811-2.691 17.848-19.35 32.932-37.376 33.843-11.16.564-19.424-3.265-19.424-3.265s-2.992-8.602-1.326-19.652c2.692-17.847 19.351-32.93 37.378-33.841z" fill="#fee97d"/></g><g><path d="m219.979 346.885c-6.63-.335-12.238.881-15.698 1.923-2.405.724-4.208 2.716-4.691 5.181-.694 3.546-1.349 9.246-.359 15.811 2.691 17.848 19.35 32.932 37.376 33.843 11.16.564 19.424-3.265 19.424-3.265s2.992-8.602 1.326-19.652c-2.692-17.847-19.352-32.93-37.378-33.841z" fill="#fee97d"/></g><g><path d="m295.745 346.885c6.63-.335 12.238.881 15.698 1.923 2.405.724 4.208 2.716 4.691 5.181.694 3.546 1.349 9.246.359 15.811-2.691 17.848-19.35 32.932-37.376 33.843-11.16.564-19.424-3.265-19.424-3.265s-2.992-8.602-1.326-19.652c2.692-17.847 19.351-32.93 37.378-33.841z" fill="#fee97d"/></g><g><path d="m316.49 289.878c-2.694 17.848-19.344 32.932-37.372 33.84-11.164.569-19.424-3.262-19.424-3.262s-1.417-4.06-1.756-10.196c1.287.05 2.634.05 4.021-.02 18.028-.908 34.688-15.992 37.372-33.84.529-3.452.589-6.654.439-9.448 4.859.19 8.929 1.117 11.672 1.935 2.404.728 4.21 2.714 4.689 5.178.699 3.552 1.347 9.248.359 15.813z" fill="#fee45a"/></g><g><path d="m199.231 289.878c2.694 17.848 19.344 32.932 37.372 33.84 11.164.569 19.424-3.262 19.424-3.262s1.417-4.06 1.756-10.196c-1.287.05-2.634.05-4.021-.02-18.028-.908-34.688-15.992-37.372-33.84-.529-3.452-.589-6.654-.439-9.448-4.859.19-8.929 1.117-11.673 1.935-2.404.728-4.21 2.714-4.689 5.178-.697 3.552-1.346 9.248-.358 15.813z" fill="#fee45a"/></g><g><path d="m199.231 369.802c2.694 17.848 19.344 32.932 37.372 33.84 11.164.569 19.424-3.262 19.424-3.262s1.417-4.06 1.756-10.196c-1.287.05-2.634.05-4.021-.02-18.028-.908-34.688-15.992-37.372-33.84-.529-3.452-.589-6.654-.439-9.448-4.859.19-8.929 1.117-11.673 1.935-2.404.728-4.21 2.714-4.689 5.178-.697 3.552-1.346 9.249-.358 15.813z" fill="#fee45a"/></g><g><path d="m316.49 369.8c-2.694 17.848-19.344 32.932-37.372 33.84-11.164.569-19.424-3.262-19.424-3.262s-1.417-4.06-1.756-10.196c1.287.05 2.634.05 4.021-.02 18.028-.908 34.688-15.992 37.372-33.84.529-3.452.589-6.664.439-9.458 4.859.19 8.939 1.117 11.672 1.945 2.404.728 4.21 2.714 4.689 5.178.699 3.552 1.347 9.248.359 15.813z" fill="#fee45a"/></g><g><path d="m276.827 331.271c.87 0 1.761-.021 2.667-.067 21.666-1.095 41.171-18.756 44.405-40.208 1.145-7.588.406-14.177-.415-18.367-1.018-5.202-4.804-9.385-9.883-10.915-4.089-1.231-10.58-2.62-18.235-2.231-11.247.568-21.906 5.606-30.015 13.315v-22.566c0-4.137-3.354-7.491-7.491-7.491s-7.491 3.354-7.491 7.491v22.566c-8.109-7.709-18.768-12.748-30.014-13.315-7.662-.389-14.146.999-18.237 2.231-5.076 1.53-8.863 5.712-9.881 10.914-.821 4.191-1.559 10.78-.415 18.367.2 1.33.47 2.676.802 3.999 1.005 4.014 5.076 6.451 9.087 5.446 4.013-1.005 6.451-5.074 5.446-9.087-.216-.86-.39-1.732-.52-2.591-.786-5.215-.337-9.785.222-12.826 2.971-.856 7.475-1.754 12.741-1.49 14.56.735 28.174 13.061 30.349 27.477.794 5.264.309 9.9-.225 12.823-2.864.824-7.425 1.761-12.74 1.495-4.01-.203-8.008-1.287-11.884-3.221-3.703-1.85-8.201-.345-10.048 3.357-1.848 3.702-.345 8.2 3.357 10.048 5.737 2.863 11.732 4.471 17.819 4.779.908.046 1.797.067 2.668.067 4.391 0 8.286-.546 11.474-1.235v22.683c-8.109-7.709-18.768-12.748-30.015-13.315-7.662-.389-14.146.999-18.237 2.231-5.076 1.53-8.863 5.712-9.881 10.914-.821 4.191-1.559 10.78-.415 18.368 3.234 21.452 22.739 39.113 44.405 40.208.908.046 1.797.067 2.668.067 4.391 0 8.286-.546 11.474-1.235v37.718c0 4.137 3.354 7.491 7.491 7.491s7.491-3.354 7.491-7.491v-37.717c3.188.689 7.083 1.235 11.474 1.235.87 0 1.761-.021 2.667-.067 21.666-1.095 41.171-18.756 44.405-40.208 1.145-7.588.406-14.177-.415-18.367-1.018-5.202-4.804-9.385-9.883-10.915-4.089-1.231-10.58-2.62-18.235-2.231-11.247.568-21.906 5.606-30.015 13.315v-22.683c3.192.689 7.087 1.234 11.478 1.234zm-11.053-29.348c2.175-14.416 15.789-26.741 30.349-27.477 5.271-.263 9.772.635 12.74 1.49.558 3.04 1.008 7.611.222 12.826-2.174 14.416-15.787 26.743-30.347 27.479-5.317.264-9.882-.674-12.738-1.493-.535-2.933-1.019-7.565-.226-12.825zm-16.049 92.744c-2.864.823-7.425 1.763-12.74 1.495-14.56-.736-28.173-13.063-30.347-27.479-.786-5.215-.337-9.785.222-12.826 2.971-.856 7.474-1.753 12.74-1.49 14.56.735 28.174 13.061 30.349 27.477.795 5.263.309 9.899-.224 12.823zm16.049-12.823c2.175-14.416 15.789-26.741 30.349-27.477 5.271-.262 9.772.634 12.74 1.49.558 3.04 1.008 7.611.222 12.826-2.174 14.416-15.787 26.743-30.347 27.479-5.317.267-9.882-.674-12.738-1.493-.535-2.933-1.019-7.566-.226-12.825z"/><path d="m480.609 476.788c-2.057-15.511-7.077-29.303-14.921-40.992-2.583-3.85-3.545-8.744-2.636-13.426.038-.194.067-.389.09-.585.187-1.659.36-3.32.517-4.986.391-4.119-2.632-7.774-6.751-8.165-4.116-.391-7.774 2.632-8.164 6.751-.141 1.485-.294 2.966-.459 4.446-1.553 8.445.248 17.289 4.963 24.314 6.549 9.759 10.758 21.405 12.509 34.613.598 4.506-.77 9.057-3.751 12.488-3.014 3.468-7.199 5.398-11.786 5.434-13.245.114-33.202-2.863-52.969-17.616-5.573-4.16-12.551-6.45-19.646-6.45h-243.543c-7.095 0-14.072 2.291-19.646 6.45-19.767 14.754-39.713 17.744-52.969 17.616-4.587-.037-8.773-1.967-11.786-5.434-2.981-3.431-4.349-7.982-3.751-12.488 1.751-13.208 5.96-24.853 12.509-34.613 4.715-7.025 6.516-15.871 4.963-24.316-9.061-81.018 19.679-172.613 27.114-194.535h330.676c6.288 18.502 27.802 86.692 28.834 156.203.061 4.137 3.451 7.413 7.601 7.379 4.137-.061 7.44-3.465 7.379-7.601-1.006-67.686-20.208-132.451-28.136-156.421 12.967-2.318 22.844-13.67 22.844-27.294v-20.49c0-15.293-12.442-27.734-27.735-27.734h-8.515c-4.604-7.869-16.298-26.67-35.37-49.616-22.82-27.46-60.955-66.191-113.024-94.767-12.033-6.604-26.4-6.604-38.433 0-52.069 28.576-90.204 67.307-113.026 94.766-19.072 22.946-30.766 41.747-35.37 49.616h-8.515c-15.293 0-27.735 12.441-27.735 27.734v20.49c0 13.622 9.875 24.973 22.84 27.293-9.551 28.827-35.374 116.44-26.285 196.933.022.197.052.393.09.587.909 4.681-.053 9.575-2.636 13.424-7.844 11.689-12.864 25.481-14.921 40.991-1.162 8.762 1.497 17.614 7.295 24.286 5.786 6.659 14.16 10.518 22.975 10.589.264.002.528.003.796.003 15.549 0 38.54-3.642 61.254-20.594 3.003-2.241 6.797-3.475 10.685-3.475h243.542c3.887 0 7.682 1.234 10.685 3.475 23.107 17.245 46.538 20.747 62.05 20.591 8.814-.071 17.189-3.93 22.975-10.589 5.796-6.671 8.455-15.523 7.293-24.285zm-236.784-458.701c7.632-4.188 16.385-4.188 24.016 0 75.524 41.449 121.711 105.685 138 131.248h-300.028c16.253-25.546 62.358-89.727 138.012-131.248zm-176.872 179.472v-20.49c0-7.032 5.721-12.752 12.752-12.752h352.255c7.032 0 12.753 5.72 12.753 12.752v20.49c0 7.031-5.721 12.752-12.753 12.752h-352.254c-7.032.001-12.753-5.72-12.753-12.752z"/><path d="m271.203 47.101c-5.516 0-9.988 4.472-9.988 9.988s4.472 9.988 9.988 9.988 9.988-4.472 9.988-9.988-4.472-9.988-9.988-9.988z"/><circle cx="302.392" cy="87.512" r="9.988"/></g></g></svg>