<svg id="Layer_1" enable-background="new 0 0 510.142 510.142" height="512" viewBox="0 0 510.142 510.142" width="512" xmlns="http://www.w3.org/2000/svg"><g><path d="m126.406 180.642c-3.839 0-7.678-1.464-10.606-4.394l-27.917-27.917c-5.858-5.858-5.858-15.355 0-21.213 5.857-5.858 15.355-5.858 21.213 0l27.917 27.917c9.477 9.478 2.635 25.607-10.607 25.607z" fill="#7e5d40"/><path d="m383.682 180.642c-13.244 0-20.082-16.13-10.606-25.606l27.917-27.917c5.857-5.858 15.355-5.858 21.213 0s5.858 15.355 0 21.213l-27.917 27.917c-2.929 2.929-6.768 4.393-10.607 4.393z" fill="#684d34"/><path d="m271.004 103.107v39.48c0 8.28-6.72 15-15 15-8.275 0-15-6.72-15-15v-39.48c0-7.96 6.21-14.47 14.04-14.96 8.099-.759 15.96 5.989 15.96 14.96z" fill="#7e5d40"/><path d="m271.004 103.107v39.48c0 8.61-7.26 15.514-15.96 14.97v-69.41c8.099-.759 15.96 5.989 15.96 14.96z" fill="#684d34"/><path d="m229.894 236.978-12.5-87.08c-.43-2.97-1.74-5.75-3.76-7.97-19.664-21.63-46.162-27.5-71.94-17.64-16.634 6.353-19.507 24.427-26.02 30.94-6.505 6.504-24.59 9.384-30.94 26.01-9.53 24.93-4.61 49.18 13.86 68.29 2.83 2.93 6.72 4.58 10.79 4.58h105.66c9.159-.001 16.145-8.15 14.85-17.13z" fill="#ff3c5a"/><path d="m425.354 181.248c-6.349-16.639-24.43-19.511-30.94-26.02-6.518-6.519-9.385-24.587-26.02-30.94-24.48-9.364-50.219-4.94-70.9 16.5-2.47 2.57-3.94 5.94-4.15 9.49l-5.27 87.93c-.521 8.609 6.338 15.9 14.97 15.9h97.66c4.07 0 7.96-1.65 10.79-4.58 18.47-19.11 23.39-43.36 13.86-68.28z" fill="#f6004d"/><path d="m334.554 183.638c0 24.543-11.659 50.319-26.91 65.84-2.82 2.96-6.74 4.63-10.83 4.63h-82.07c-6.15 0-9.63-3.097-13.14-7.17-33.848-38.665-36.208-100.37 13.9-122.79 16.268-7.263 31.123 3.49 40.27 3.49 9.183 0 24.011-10.754 40.28-3.49 24.594 10.997 38.5 32.428 38.5 59.49z" fill="#00b484"/><path d="m334.554 183.638c0 24.543-11.659 50.319-26.91 65.84-2.82 2.96-6.74 4.63-10.83 4.63h-41.77c0-136.318-.36-126.47.73-126.47 9.183 0 24.011-10.754 40.28-3.49 24.594 10.997 38.5 32.428 38.5 59.49z" fill="#02806b"/><path d="m510.064 239.418c0-87.236-46.423-164.249-117.52-206.22-61.728-36.308-112.219-33.09-153.5-33.09-132.09 0-239 106.89-239 239 0 2.52-3.69-15.29 56.35 259.21 1.5 6.88 7.6 11.79 14.65 11.79h368c7.05 0 13.15-4.91 14.65-11.79 46.554-213.45 56.645-257.11 56.37-258.9zm-136.11-15.311-14.88 3-15.08-3c-85.918 0-68.902-.999-88.95 3-.1 0 .381.08-15.08-3-85.761 0-68.301-.666-90.11 2-19.348-2.796 2.051-2-119.28-2 7.72-108.27 98.27-194 208.47-194h32c110.2 0 200.75 85.73 208.47 194z" fill="#ffb454"/><path d="m510.064 239.978c0 1.726-25.046 114.717-56.37 258.34-1.5 6.88-7.6 11.79-14.65 11.79h-184v-283c20.053-4 3.054-3 88.95-3l15.08 3c19.839-4-2.246-3 120.44-3-7.72-108.27-98.27-194-208.47-194h-16v-30c21.706 0 47.95-1.019 84.95 10.08 83.038 25.012 144.114 92.337 163.41 172.71 6.534 26.678 6.99 54.836 6.66 57.08z" fill="#ff8e00"/><path d="m493.114 318.107 6.56-30h-125.63v-64h-30v64h-74v-64h-30v64h-74v-64h-30v64h-125.63l6.56 30h119.07v34h-111.63l6.56 30h105.07v34h-97.63l6.56 30h91.07v64h30v-64h74v64h30v-64h74v64h30v-64h91.07l6.56-30h-97.63v-34h105.07l6.56-30h-111.63v-34zm-253.07 98h-74v-34h74zm0-64h-74v-34h74zm104 64h-74v-34h74zm0-64h-74v-34h74z" fill="#9f7651"/><path d="m493.114 318.107 6.56-30h-125.63v-64h-30v64h-74v-64h-15v286h15v-64h74v64h30v-64h91.07l6.56-30h-97.63v-34h105.07l6.56-30h-111.63v-34zm-149.07 98h-74v-34h74zm0-64h-74v-34h74z" fill="#684d34"/></g></svg>