<svg id="Capa_1" enable-background="new 0 0 512 512" height="512" viewBox="0 0 512 512" width="512" xmlns="http://www.w3.org/2000/svg"><g><g><g><path d="m102.885 317.76c-.321-1.319-.485-2.675-.485-4.041v-194.253l34.133-17.066 34.133 17.066v194.253c0 1.366-.164 2.722-.485 4.04z" fill="#8db5ff"/><path d="m146.967 107.617v206.102c0 1.366-.164 2.722-.485 4.04l-43.597.001 67.296-.001c.321-1.318.485-2.674.485-4.04v-194.253z" fill="#7784ff"/><path d="m128.807 106.263v211.497l15.453-.001v-211.496l-7.727-3.863z" fill="#7784ff"/><path d="m170.667 85.334v-34.134c0-9.426-7.641-17.067-17.067-17.067h-34.133c-9.426 0-17.067 7.641-17.067 17.067v34.134l34.133 17.066z" fill="#f25a3c"/><path d="m102.4 85.333h68.267v34.133h-68.267z" fill="#f3f5f9"/><path d="m153.6 34.133h-23.7c9.426 0 17.067 7.641 17.067 17.067v45.983l23.7-11.85v-34.133c0-9.426-7.641-17.067-17.067-17.067z" fill="#e63a3a"/><path d="m146.967 85.333h23.7v34.133h-23.7z" fill="#cfd7e6"/></g><g><path d="m205.285 351.893c-.321-1.319-.485-2.675-.485-4.041v-194.253l34.133-17.066 34.133 17.066v194.253c0 1.366-.164 2.722-.485 4.04z" fill="#ffdf40"/><path d="m249.367 141.75v206.102c0 1.366-.164 2.722-.485 4.04l-43.597.001 67.296-.001c.321-1.318.485-2.674.485-4.04v-194.253z" fill="#ffbe40"/><path d="m231.207 140.396v211.497h15.453v-211.497l-7.727-3.863z" fill="#8db5ff"/><path d="m273.067 119.467v-34.134c0-9.426-7.641-17.067-17.067-17.067h-34.133c-9.426 0-17.067 7.641-17.067 17.067v34.134l34.133 17.066z" fill="#f25a3c"/><path d="m204.8 119.467h68.267v34.133h-68.267z" fill="#f3f5f9"/><path d="m256 68.267h-23.7c9.426 0 17.067 7.641 17.067 17.067v45.983l23.7-11.85v-34.134c0-9.425-7.641-17.066-17.067-17.066z" fill="#e63a3a"/><path d="m249.367 119.467h23.7v34.133h-23.7z" fill="#cfd7e6"/></g><path d="m358.4 58.892h-34.133v-42.892c0-8.837 7.163-16 16-16h2.133c8.837 0 16 7.163 16 16z" fill="#595353"/><path d="m341.917 0h-1.167c-4.361 0-8.315 1.706-11.263 4.472 3.206 3.007 5.22 7.269 5.22 12.011v42.409h23.693v-42.409c0-9.103-7.38-16.483-16.483-16.483z" fill="#403939"/><path d="m370.247 119.467h44.572v34.133h-44.572z" fill="#403939"/><path d="m307.2 268.877v-200.61c0-9.426 7.641-17.067 17.067-17.067h34.133c9.426 0 17.067 7.641 17.067 17.067v200.611h-68.267z" fill="#736b6b"/><path d="m358.4 51.2h-23.694c9.426 0 17.067 7.641 17.067 17.067v200.611h23.694v-200.611c0-9.426-7.641-17.067-17.067-17.067z" fill="#595353"/><path d="m427.733 221.867h-2.133c-8.837 0-16-7.163-16-16v-112.534c0-4.418 3.582-8 8-8h18.133c4.418 0 8 3.582 8 8v112.533c0 8.837-7.163 16.001-16 16.001z" fill="#8db5ff"/><path d="m435.492 85.333h-17.65c-1.068 0-2.085.21-3.022.58 3.055 1.206 5.219 4.178 5.219 7.662v111.809c0 4.742-2.014 9.004-5.219 12.011 2.948 2.766 6.902 4.471 11.263 4.471h1.168c9.103 0 16.483-7.38 16.483-16.483v-111.808c-.001-4.552-3.691-8.242-8.242-8.242z" fill="#7784ff"/><path d="m307.2 85.333h68.267v34.133h-68.267z" fill="#8db5ff"/><path d="m351.772 85.333h23.694v34.133h-23.694z" fill="#7784ff"/></g><g><path d="m360.533 512h-243.2c-17.673 0-32-14.327-32-32v-185.883h307.2v185.883c0 17.673-14.327 32-32 32z" fill="#f3f5f9"/><path d="m369.14 294.117v184.918c0 18.206-14.759 32.966-32.966 32.966h23.393c18.207 0 32.966-14.759 32.966-32.966v-184.918z" fill="#cfd7e6"/><path d="m393.6 307.2h-309.333c-8.837 0-16-7.163-16-16v-19.2c0-8.837 7.163-16 16-16h309.333c8.837 0 16 7.163 16 16v19.2c0 8.837-7.163 16-16 16z" fill="#cfd7e6"/><g fill="#b4c2db"><path d="m393.117 256h-23.694c9.103 0 16.483 7.38 16.483 16.483v18.234c0 9.103-7.38 16.483-16.483 16.483h23.694c9.103 0 16.483-7.38 16.483-16.483v-18.234c0-9.103-7.38-16.483-16.483-16.483z"/><path d="m85.333 468.526h.001 307.199v-15.453h-307.199-.001z"/></g></g></g></svg>