<svg id="Layer_1" enable-background="new 0 0 512.143 512.143" height="512" viewBox="0 0 512.143 512.143" width="512" xmlns="http://www.w3.org/2000/svg"><g><g><g><g fill="#fff6e0"><path d="m144.356 291.246h-117.421v-50.914c0-15.722 12.745-28.467 28.467-28.467h60.488c15.722 0 28.467 12.745 28.467 28.467v50.914z"/><path d="m485.211 291.246h-117.421v-50.914c0-15.722 12.745-28.467 28.467-28.467h60.488c15.722 0 28.467 12.745 28.467 28.467v50.914z"/></g><g><g><g><g><path d="m184.204 256.857h-124.079v-46.837c0-26.128 21.181-47.308 47.308-47.308h29.463c26.128 0 47.308 21.181 47.308 47.308z" fill="#8affb3"/><path d="m122.206 178.478h-.083c-21.148 0-38.292-17.144-38.292-38.292v-32.565c0-21.148 17.144-38.292 38.292-38.292h.083c21.148 0 38.292 17.144 38.292 38.292v32.565c0 21.148-17.144 38.292-38.292 38.292z" fill="#ffcab9"/><path d="m122.206 69.329h-.083c-7.313 0-14.146 2.052-19.958 5.609 10.995 6.729 18.333 18.848 18.333 32.682v32.565c0 13.835-7.338 25.953-18.333 32.682 5.812 3.557 12.645 5.609 19.958 5.609h.083c21.148 0 38.292-17.144 38.292-38.292v-32.565c0-21.146-17.144-38.29-38.292-38.29z" fill="#fabba7"/></g></g><path d="m83.831 123.903v-16.202c0-21.192 17.162-38.372 38.333-38.372 21.171 0 38.333 17.18 38.333 38.372z" fill="#828cb3"/><path d="m120.498 107.701v8.453l40-8.453c0-21.193-17.162-38.372-38.333-38.372-7.33 0-14.177 2.062-20 5.634 10.995 6.745 18.333 18.883 18.333 32.738z" fill="#717eb3"/></g><g><path d="m433.75 190.08c-12.954 0-23.456-10.502-23.456-23.456v-84.482c0-12.954 10.502-23.456 23.456-23.456 12.954 0 23.456 10.502 23.456 23.456v84.483c0 12.954-10.502 23.455-23.456 23.455z" fill="#828cb3"/><g><g><g><path d="m452.021 256.857h-124.08v-46.837c0-26.128 21.181-47.308 47.308-47.308h29.463c26.128 0 47.308 21.181 47.308 47.308v46.837z" fill="#ffea00"/><path d="m428.315 107.621v32.565c0 21.148-17.144 38.292-38.292 38.292h-.083c-21.148 0-38.292-17.144-38.292-38.292v-32.565z" fill="#ffcab9"/><path d="m388.315 107.621v32.565c0 13.835-7.338 25.953-18.333 32.682 5.812 3.557 12.645 5.609 19.958 5.609h.083c21.148 0 38.292-17.144 38.292-38.292v-32.565h-40z" fill="#fabba7"/></g></g><path d="m351.648 123.903v-16.202c0-21.192 17.162-38.372 38.333-38.372 21.171 0 38.333 17.18 38.333 38.372z" fill="#828cb3"/><path d="m388.315 107.701v8.453l40-8.453c0-21.193-17.162-38.372-38.333-38.372-7.33 0-14.177 2.062-20 5.634 10.995 6.745 18.333 18.883 18.333 32.738z" fill="#717eb3"/></g></g></g><ellipse cx="256.073" cy="324.025" fill="#cc8b66" rx="248.5" ry="107.531"/><g><g><g><g><g><path d="m184.204 458.688-124.079 45.884v-88.715c0-26.128 21.181-47.308 47.308-47.308h29.463c26.128 0 47.308 21.181 47.308 47.308z" fill="#ff59ac"/><path d="m122.206 431.116h-.083c-21.148 0-38.292-17.144-38.292-38.292v-79.366c0-21.148 17.144-38.292 38.292-38.292h.083c21.148 0 38.292 17.144 38.292 38.292v79.366c0 21.148-17.144 38.292-38.292 38.292z" fill="#828cb3"/><path d="m122.206 275.167h-.083c-7.313 0-14.146 2.052-19.958 5.609 10.995 6.729 18.333 18.848 18.333 32.682v79.366c0 13.835-7.338 25.953-18.333 32.682 5.812 3.557 12.645 5.609 19.958 5.609h.083c21.148 0 38.292-17.144 38.292-38.292v-79.366c0-21.146-17.144-38.29-38.292-38.29z" fill="#717eb3"/></g></g></g><g><g><g><path d="m452.021 415.858c0-26.128-21.181-47.308-47.308-47.308h-29.463c-26.128 0-47.308 21.181-47.308 47.308v59.23h124.079z" fill="#87dbff"/><path d="m390.023 384.315h-.083c-21.148 0-38.292-17.144-38.292-38.292v-32.565c0-21.148 17.144-38.292 38.292-38.292h.083c21.148 0 38.292 17.144 38.292 38.292v32.565c0 21.149-17.144 38.292-38.292 38.292z" fill="#828cb3"/><path d="m390.023 275.167h-.083c-7.313 0-14.146 2.052-19.958 5.609 10.995 6.729 18.333 18.848 18.333 32.682v32.565c0 13.835-7.338 25.953-18.333 32.682 5.812 3.557 12.645 5.609 19.958 5.609h.083c21.148 0 38.292-17.144 38.292-38.292v-32.565c0-21.146-17.144-38.29-38.292-38.29z" fill="#717eb3"/></g></g></g></g><g><path d="m144.356 504.572h-98.701c-10.339 0-18.72-8.381-18.72-18.72v-39.682c0-15.722 12.745-28.467 28.467-28.467h60.488c15.722 0 28.467 12.745 28.467 28.467v58.402z" fill="#fff6e0"/><path d="m115.889 417.703h-40c15.722 0 28.467 12.745 28.467 28.467v58.402h40v-58.402c0-15.722-12.745-28.467-28.467-28.467z" fill="#fff0cc"/><g><path d="m144.058 469.509 40.146-25.054c9.757-6.384 22.703.616 22.703 12.276 0 4.95-2.496 9.566-6.638 12.276l-56.211 35.565z" fill="#fff6e0"/></g><g><path d="m367.79 469.509-40.146-25.054c-9.757-6.384-22.703.616-22.703 12.276 0 4.95 2.496 9.566 6.638 12.276l56.211 35.565z" fill="#fff6e0"/></g><path d="m466.491 504.572h-98.701v-58.402c0-15.722 12.745-28.467 28.467-28.467h60.488c15.722 0 28.467 12.745 28.467 28.467v39.682c-.001 10.339-8.382 18.72-18.721 18.72z" fill="#fff6e0"/><path d="m456.744 417.703h-40c15.722 0 28.467 12.745 28.467 28.467v39.682c0 10.339-8.381 18.72-18.72 18.72h40c10.339 0 18.72-8.381 18.72-18.72v-39.682c0-15.722-12.745-28.467-28.467-28.467z" fill="#fff0cc"/></g></g></g><g><g><g><path d="m326.116 314.37c0-25.997-21.075-47.073-47.073-47.073-25.997 0-47.073 21.075-47.073 47.073 0 25.997 21.075 47.073 47.073 47.073 3.19 0 6.306-.321 9.318-.926l21.736 12.74v-23.525c9.816-8.627 16.019-21.267 16.019-35.362z" fill="#fff6e0"/></g></g></g><g><g><g><g><path d="m184.457 117.043c0-25.997 21.075-47.073 47.073-47.073 25.997 0 47.073 21.075 47.073 47.073 0 25.997-21.075 47.073-47.073 47.073-3.19 0-6.306-.321-9.318-.926l-21.736 12.74v-23.525c-9.815-8.627-16.019-21.266-16.019-35.362z" fill="#fff6e0"/></g></g></g><g><g><path d="m341.688 54.645c0-25.997-21.075-47.073-47.073-47.073-25.997 0-47.073 21.075-47.073 47.073 0 25.997 21.075 47.073 47.073 47.073 3.19 0 6.306-.321 9.318-.926l21.736 12.74v-23.526c9.816-8.627 16.019-21.266 16.019-35.361z" fill="#ff59ac"/></g></g></g></g><g><path d="m459.229 410.299c-.485-4.772-1.584-9.395-3.235-13.774 53.859-30.08 74.838-74.104 36.718-117.049v-39.143c0-18.997-14.807-34.59-33.484-35.871-.555-5.43-1.912-10.674-3.973-15.588 5.973-5.792 9.451-13.844 9.451-22.249v-84.483c-.242-30.874-40.283-42.454-56.994-16.742-29.627-12.819-63.913 9.903-63.563 42.221v32.565c0 7.747 1.94 15.046 5.35 21.449-18.628 9.931-29.523 30.075-29.056 50.958-9.055-1.036-18.264-1.854-27.591-2.445-9.675-.603-10.628 14.357-.948 14.97 50.441 3.195 102.659 12.373 148.25 35.011 70.588 34.331 77.128 85.595 8.679 123.22-4.801-6.52-11.038-11.989-18.362-15.886 3.406-6.401 5.345-13.696 5.345-21.439v-32.565c0-25.25-20.542-45.792-45.875-45.792-25.25 0-45.792 20.542-45.792 45.792v32.565c0 7.743 1.939 15.039 5.346 21.44-19.464 10.345-29.829 31.271-29.052 52.883-41.645 4.936-87.091 4.936-128.737.001.917-19.549-7.411-38.363-23.706-49.595v-57.294c0-25.25-20.542-45.792-45.875-45.792-25.25 0-45.792 20.542-45.792 45.792v57.298c-5.086 3.509-9.47 7.766-13.029 12.588-70.54-38.903-60.766-91.326 12.92-125.259 41.06-19.342 97.006-31.294 157.531-33.657 9.691-.378 9.101-15.383-.585-14.988-14.07.549-27.909 1.611-41.402 3.149.114-20.992-10.298-40.92-29.117-50.954 3.41-6.403 5.35-13.702 5.35-21.449v-32.565c0-24.869-21.06-45.792-45.875-45.792-25.247 0-45.376 21.003-45.792 45.872v32.485c0 7.744 1.939 15.041 5.347 21.442-16.048 8.543-26.907 24.618-28.761 42.833-18.676 1.282-33.483 16.875-33.483 35.871v39.113c-38.115 42.918-17.163 87.003 36.71 117.076-1.651 4.39-2.735 9.014-3.215 13.777-18.682 1.275-33.495 16.872-33.495 35.872v39.682c0 14.458 11.762 26.22 26.22 26.22h98.394c2.007 0 3.295.029 5.508-2.104l54.722-34.623c14.524-9.385 12.756-31.881-3.086-38.888 35.67 3.449 73.686 3.463 109.364.041-15.683 7.027-17.567 29.569-2.988 38.847l56.211 35.565c1.186.75 2.606 1.162 4.01 1.162h98.701c13.842 0 25.329-10.829 26.15-24.653.575-9.679-14.398-10.575-14.974-.891-.352 5.912-5.261 10.543-11.177 10.543h-91.202c.017-12.669-.012-38.333 0-50.902 0-11.561 9.406-20.967 20.967-20.967 20.162 0 40.329.03 60.487 0 12.014 0 21.016 10.326 20.967 21.968 0 9.697 15 9.697 15 0 .433-19.002-14.456-35.567-33.482-36.872zm18.482-169.967v25.412c-5.45-4.236-11.53-8.31-18.19-12.202v-33.971c10.25 1.365 18.19 10.143 18.19 20.761zm-43.961-174.146c8.798 0 15.956 7.158 15.956 15.956v84.482c0 3.168-.91 6.166-2.579 8.715-4.541-5.563-10.181-10.249-16.663-13.704 3.41-6.403 5.35-13.703 5.35-21.449v-32.565c0-13.596-5.963-25.821-15.416-34.215 2.898-4.431 7.872-7.22 13.352-7.22zm-74.602 74v-10.202l61.667-13.032v23.234c0 16.979-13.813 30.792-30.792 30.792h-.083c-16.979-.001-30.792-13.813-30.792-30.792zm20.716-61.641c3.176-1.104 6.585-1.713 10.139-1.715 14.366 0 27.438 10.645 30.235 24.913l-61.091 12.911v-6.952c.001-13.476 8.671-24.955 20.717-29.157zm-44.423 135.987c-1.021-17.082 7.466-33.572 23.387-40.786 16.767 16.196 45.542 16.191 62.304 0 14.114 6.395 23.387 20.58 23.387 36.274v35.556c-29.78-14.392-67.475-25.059-109.078-31.044zm-244.11-74.346v-10.202l61.667-13.032v23.234c0 16.979-13.813 30.792-30.792 30.792h-.083c-16.979-.001-30.792-13.813-30.792-30.792zm20.717-61.641c3.176-1.104 6.585-1.713 10.139-1.715 14.366 0 27.438 10.645 30.235 24.913l-61.091 12.911c-.712-15.46 4.781-30.55 20.717-36.109zm-21.034 95.203c16.767 16.194 45.541 16.188 62.302-.002 16.046 7.271 23.861 23.78 23.488 40.764-37.402 5.362-75.031 14.562-109.18 31.068v-35.558c.001-15.731 9.266-29.88 23.39-36.272zm-38.389 45.823v33.969c-6.666 3.893-12.739 7.966-18.19 12.197v-25.405c0-10.618 7.94-19.396 18.19-20.761zm124.079 196.287v24.436l-24.849 15.507c.353-8.458.158-17.584-3.609-25.322 12.186-8.469 19.752-22.565 19.752-37.655 3.678 1.238 8.706 14.516 8.706 23.034zm-85.373-102.4c1.675-40.818 59.986-40.874 61.667 0v79.366c0 10.443-5.39 20.174-14.008 25.807-6.254-5.255-14.313-8.428-23.102-8.428h-19.177c-3.521-5.12-5.38-11.078-5.38-17.379zm-11.56 96.745h-11.733c1.006-7.083 3.881-13.689 8.293-19.198-.061 6.473.984 13.203 3.44 19.198zm-45.336 75.649v-39.682c0-11.561 9.406-20.967 20.967-20.967h60.487c11.561 0 20.967 9.406 20.967 20.967v50.902h-91.201c-6.187 0-11.22-5.033-11.22-11.22zm161.767-23.146-44.346 28.058v-17.28l36.319-22.666c7.297-4.63 16.557 6.23 8.027 11.888zm162.946-149.248c1.675-40.818 59.986-40.874 61.667 0v32.565c0 16.979-13.813 30.792-30.792 30.792h-.083c-16.979 0-30.792-13.813-30.792-30.792zm-46.707 143.273c0-5.753 6.587-8.86 11.232-5.914l36.617 22.852v17.283l-44.644-28.246c-2.008-1.333-3.205-3.563-3.205-5.975zm47.849-10.561v9.818l-24.849-15.507v-24.622c0-15.77 9.254-29.883 23.389-36.272 16.766 16.193 45.539 16.189 62.3 0 12.411 5.615 21.061 17.208 22.98 30.617h-47.854c-19.831-.001-35.966 16.134-35.966 35.966z"/><path d="m224.471 314.371c-.272 32.915 29.956 58.995 62.461 54.001l19.373 11.355c4.56 2.671 11.292-.458 11.292-6.471v-20.28c34.242-34.002 9.765-93.259-38.554-93.178-30.091 0-54.572 24.481-54.572 54.573zm54.572-39.573c36.284.001 53.367 45.412 26.103 69.3-1.62 1.424-2.549 3.477-2.549 5.633v10.436l-10.443-6.121c-3.668-2.149-9.671-.103-13.11-.103-52.504-2.175-52.479-76.982-.001-79.145z"/><path d="m256.673 322.572c9.652 0 9.668-15 0-15-9.652 0-9.668 15 0 15z"/><path d="m279.043 322.572c9.652 0 9.668-15 0-15-9.651 0-9.667 15 0 15z"/><path d="m301.413 322.572c9.652 0 9.668-15 0-15-9.651 0-9.667 15 0 15z"/><path d="m192.976 175.929c0 6.011 6.733 9.143 11.292 6.471l19.373-11.354c35.705 5.759 68.018-27.005 61.778-62.619 5.689.975 11.384 1.048 17.086.22l19.373 11.355c4.56 2.671 11.292-.458 11.292-6.471v-20.28c34.238-33.998 9.769-93.259-38.554-93.178-33.175-.306-59.397 30.509-53.886 63.184-52.366-8.633-85.054 54.76-47.753 92.393v20.279zm101.64-160.857c36.284.001 53.367 45.412 26.103 69.3-1.62 1.424-2.549 3.477-2.549 5.633v10.436l-10.443-6.121c-4.331-1.198-8.701-1.232-13.11-.103-52.513-2.18-52.472-76.984-.001-79.145zm-102.659 101.971c-.413-27.653 29.18-47.476 54.571-36.625 4.988 9.268 12.576 16.934 21.782 22.021 10.513 25.353-9.304 54.579-36.78 54.176-4.409-1.129-8.779-1.095-13.11.103l-10.443 6.121v-10.436c0-2.157-.929-4.209-2.549-5.633-8.561-7.522-13.471-18.358-13.471-29.727z"/><path d="m209.16 125.245c9.652 0 9.668-15 0-15-9.652 0-9.668 15 0 15z"/><path d="m231.53 125.245c9.652 0 9.668-15 0-15-9.652 0-9.668 15 0 15z"/><path d="m253.9 125.245c9.652 0 9.668-15 0-15-9.652 0-9.668 15 0 15z"/><path d="m277.053 72.471c3.535 2.929 7.071 2.929 10.606 0l6.956-6.956 6.956 6.956c6.856 6.858 17.464-3.75 10.606-10.606l-6.956-6.956 6.956-6.956c6.858-6.857-3.75-17.463-10.606-10.606l-6.956 6.956-6.956-6.956c-6.856-6.858-17.464 3.75-10.606 10.606l6.956 6.956-6.956 6.956c-2.929 2.928-2.929 7.677 0 10.606z"/></g></g></svg>