<svg id="Capa_1" enable-background="new 0 0 512.766 512.766" height="512" viewBox="0 0 512.766 512.766" width="512" xmlns="http://www.w3.org/2000/svg"><g><g><path d="m235.074 52.661c-100.468 0-181.926 81.273-181.926 181.53 0 100.246 81.458 181.52 181.926 181.52v-181.52h181.926c0-100.256-81.447-181.53-181.926-181.53z" fill="#f2d59c"/><g><path d="m235.074 52.661c-5.051 0-10.052.215-14.999.618 93.46 7.612 166.925 85.696 166.925 180.912h30c0-100.256-81.447-181.53-181.926-181.53z" fill="#ecc372"/></g><path d="m451.365 234.191h-34.365c0-100.256-81.447-181.53-181.926-181.53-100.468 0-181.926 81.273-181.926 181.53 0 100.246 81.457 181.519 181.926 181.519v34.243c0 6.062-5.043 10.943-11.086 10.654-120.32-5.769-216.105-104.937-216.105-226.416 0-125.198 101.723-226.691 227.191-226.691 121.745 0 221.117 95.543 226.923 215.58.294 6.056-4.58 11.111-10.632 11.111z" fill="#c6855b"/><path d="m451.365 234.191h-34.365c0-100.256-81.447-181.53-181.926-181.53-100.468 0-181.926 81.273-181.926 181.53 0 100.246 81.457 181.519 181.926 181.519v34.243c0 6.062-5.043 10.943-11.086 10.654-120.32-5.769-216.105-104.937-216.105-226.416 0-125.198 101.723-226.691 227.191-226.691 121.745 0 221.117 95.543 226.923 215.58.294 6.056-4.58 11.111-10.632 11.111z" fill="#c6855b"/><path d="m451.365 234.191h-34.365c0-100.256-81.447-181.53-181.926-181.53-100.468 0-181.926 81.273-181.926 181.53 0 100.246 81.457 181.519 181.926 181.519v34.243c0 6.062-5.043 10.943-11.086 10.654-120.32-5.769-216.105-104.937-216.105-226.416 0-125.198 101.723-226.691 227.191-226.691 121.745 0 221.117 95.543 226.923 215.58.294 6.056-4.58 11.111-10.632 11.111z" fill="#c6855b"/><g><path d="m235.074 7.5c-5.035 0-10.028.181-14.981.503 114.802 7.477 206.339 100.017 211.905 215.077.293 6.057-4.581 11.111-10.633 11.111h30c6.052 0 10.926-5.054 10.633-11.111-5.806-120.037-105.179-215.58-226.924-215.58z" fill="#c17e4e"/></g><g fill="#e17f85"><ellipse cx="352.924" cy="187.271" rx="17.021" ry="17.054"/><ellipse cx="183.394" cy="185.055" rx="17.021" ry="17.054"/><ellipse cx="175.086" cy="282.16" rx="17.021" ry="17.054"/><ellipse cx="190.493" cy="352.866" rx="17.021" ry="17.054"/><path d="m90.328 125.897c-.433 0-.863.014-1.291.033-10.041 13.463-18.248 28.365-24.272 44.335 5.105 8.84 14.638 14.791 25.564 14.791 16.305 0 29.522-13.243 29.522-29.579-.001-16.337-13.218-29.58-29.523-29.58z"/></g><path d="m90.328 125.897c-.433 0-.863.014-1.291.032-2.006 2.689-3.917 5.451-5.773 8.252 5.572 5.38 9.044 12.929 9.044 21.294 0 11.347-6.381 21.198-15.74 26.158 4.11 2.177 8.788 3.421 13.761 3.421 16.305 0 29.522-13.243 29.522-29.579-.001-16.335-13.218-29.578-29.523-29.578z" fill="#de646e"/><ellipse cx="183.394" cy="111.985" fill="#e17f85" rx="17.021" ry="17.054"/><ellipse cx="280.745" cy="185.055" fill="#e17f85" rx="17.021" ry="17.054"/><path d="m316.597 116.147c15.097 0 27.361-12.119 27.649-27.177-12.989-9.738-27.325-17.781-42.682-23.801-7.599 4.94-12.63 13.51-12.63 23.261 0 15.308 12.385 27.717 27.663 27.717z" fill="#e17f85"/><path d="m336.009 108.171c4.969-4.909 8.094-11.689 8.238-19.2-.001-.001-.002-.001-.003-.002-6.674-4.999-13.68-9.534-20.975-13.574-7.002-3.878-14.249-7.298-21.704-10.225-3.78 2.458-6.923 5.814-9.129 9.767 16.177 8.854 30.86 20.088 43.573 33.234z" fill="#de646e"/><path d="m92.307 291.27c-10.183 0-19.361 4.286-25.855 11.147 8.873 21.808 21.869 41.505 38.028 58.128 13.688-4.984 23.465-18.131 23.465-33.568.001-19.72-15.955-35.707-35.638-35.707z" fill="#e17f85"/><path d="m92.307 291.27c-5.359 0-10.434 1.197-14.991 3.321 12.181 5.677 20.629 18.039 20.629 32.386 0 7.198-2.128 13.898-5.785 19.505 3.868 4.895 7.976 9.593 12.32 14.062 13.688-4.984 23.465-18.131 23.465-33.568.001-19.719-15.955-35.706-35.638-35.706z" fill="#de646e"/><g><path d="m504.879 286.352c-3.959 119.127-100.032 214.976-219.429 218.909-4.184.138-7.635-3.266-7.635-7.46v-37.493l15-155.949c0-5.887 4.763-10.659 10.638-10.659l156.374-15h37.606c4.187.001 7.585 3.46 7.446 7.652z" fill="#c6855b"/><path d="m497.433 278.701h-30c4.187 0 7.585 3.458 7.446 7.651-3.684 110.833-87.106 201.5-194.858 216.758 1.389 1.384 3.314 2.221 5.429 2.151 119.397-3.934 215.47-99.782 219.429-218.909.139-4.192-3.259-7.651-7.446-7.651z" fill="#c17e4e"/><path d="m459.827 278.701c0 100.302-81.487 181.608-182.012 181.608v-170.949c0-5.887 4.763-10.659 10.638-10.659z" fill="#f2d59c"/><path d="m435.926 278.701c-7.013 85.576-73.474 154.354-158.111 165.135v16.473c100.525 0 182.012-81.306 182.012-181.608z" fill="#ecc372"/><g fill="#e17f85"><ellipse cx="402.041" cy="331.472" rx="17.021" ry="17.054"/><ellipse cx="328.521" cy="328.69" rx="17.021" ry="17.054"/><path d="m352.163 392.044c-18.32 0-33.171 14.88-33.171 33.235 0 10.946 5.283 20.653 13.431 26.709 19.206-6.019 37.034-15.134 52.91-26.75-.023-18.336-14.864-33.194-33.17-33.194z"/></g><path d="m352.163 392.044c-5.4 0-10.494 1.301-15 3.595.108.055.215.11.322.166 16.134 8.437 16.414 31.587.602 40.613-4.444 2.537-9.006 4.892-13.674 7.057 2.153 3.288 4.865 6.175 8.011 8.512 19.206-6.019 37.034-15.134 52.909-26.75-.023-18.335-14.864-33.193-33.17-33.193z" fill="#de646e"/></g></g><path d="m165.972 352.866c0 13.539 11 24.554 24.521 24.554s24.521-11.015 24.521-24.554-11-24.554-24.521-24.554-24.521 11.015-24.521 24.554zm34.043 0c0 5.268-4.271 9.554-9.521 9.554s-9.521-4.286-9.521-9.554 4.271-9.554 9.521-9.554 9.521 4.286 9.521 9.554zm-16.62-192.366c-13.521 0-24.521 11.015-24.521 24.554s11 24.554 24.521 24.554 24.521-11.015 24.521-24.554-11-24.554-24.521-24.554zm0 34.109c-5.25 0-9.521-4.286-9.521-9.554s4.271-9.554 9.521-9.554 9.521 4.286 9.521 9.554-4.271 9.554-9.521 9.554zm-8.309 112.105c13.521 0 24.521-11.015 24.521-24.554s-11-24.554-24.521-24.554-24.521 11.015-24.521 24.554 11 24.554 24.521 24.554zm0-34.108c5.25 0 9.521 4.286 9.521 9.554s-4.271 9.554-9.521 9.554-9.521-4.286-9.521-9.554 4.271-9.554 9.521-9.554zm226.955 83.42c13.521 0 24.521-11.015 24.521-24.554s-11-24.554-24.521-24.554-24.521 11.015-24.521 24.554 11 24.554 24.521 24.554zm0-34.108c5.25 0 9.521 4.286 9.521 9.554s-4.271 9.554-9.521 9.554-9.521-4.286-9.521-9.554 4.271-9.554 9.521-9.554zm-98.041 6.772c0 13.539 11 24.554 24.521 24.554s24.521-11.015 24.521-24.554-11-24.554-24.521-24.554-24.521 11.015-24.521 24.554zm34.042 0c0 5.268-4.271 9.554-9.521 9.554s-9.521-4.286-9.521-9.554 4.271-9.554 9.521-9.554 9.521 4.286 9.521 9.554zm131.447-105.973c-2.908-60.121-28.584-116.187-72.3-157.87-43.857-41.817-101.431-64.847-162.115-64.847-62.682 0-121.616 24.358-165.943 68.587-44.333 44.234-68.748 103.047-68.748 165.604 0 60.562 23.09 118.02 65.017 161.787 41.784 43.618 97.978 69.231 158.229 72.12 10.069.483 18.997-8.006 18.945-18.145v-208.262h208.791c10.124.045 18.614-8.834 18.124-18.974zm-389.763-143.512c39.722-39.634 91.979-62.207 147.849-64.065v30.183c-99.783 3.882-177.885 84.155-181.764 181.368h-30.287c1.866-55.732 24.487-107.859 64.202-147.486zm32.624 76.271c0 12.174-9.879 22.079-22.022 22.079-6.673 0-12.966-3.075-17.115-8.201 5.148-12.749 11.759-24.758 19.638-35.81 10.959 1.259 19.499 10.613 19.499 21.932zm115.224 294.477c-.076 2.068-1.206 3.259-3.227 3.163-56.398-2.704-109-26.681-148.116-67.514-37.503-39.15-58.887-90.004-60.707-143.911h30.286c3.646 97.036 82.472 177.677 181.764 181.373zm-152.094-145.581c4.828-3.638 10.658-5.602 16.827-5.602 15.516 0 28.139 12.654 28.139 28.207 0 10.186-5.525 19.502-14.14 24.47-12.669-13.835-23.126-29.715-30.826-47.075zm152.094 103.667c-42.48-1.802-81.073-18.83-110.426-45.747 11.253-7.973 18.298-21.091 18.298-35.315 0-23.824-19.352-43.207-43.139-43.207-8.071 0-15.757 2.193-22.437 6.292-5.208-15.286-8.329-31.524-9.049-48.371h166.753zm15-181.348v-87.379c0-4.142-3.358-7.5-7.5-7.5s-7.5 3.358-7.5 7.5v87.379h-166.753c.618-14.464 3.014-28.475 6.974-41.823 6.377 4.896 14.28 7.687 22.533 7.687 20.414 0 37.022-16.634 37.022-37.079 0-15.988-10.156-29.644-24.346-34.839 30.485-35.246 74.869-58.195 124.57-60.304v43.979c0 4.142 3.358 7.5 7.5 7.5s7.5-3.358 7.5-7.5v-43.979c15.681.665 30.832 3.402 45.185 7.949-4.061 5.818-6.326 12.807-6.326 20.149 0 19.418 15.774 35.216 35.163 35.216 14.324 0 26.801-8.791 32.243-21.267 35.348 30.413 58.368 74.707 60.487 124.31h-166.752zm53.86-138.26c0-5.611 2.296-10.867 6.277-14.651 11.936 5.029 23.197 11.348 33.609 18.78-1.922 9.15-10.095 16.088-19.724 16.088-11.117-.001-20.162-9.069-20.162-20.217zm-53.86-43.109v-30.181c54.04 1.811 105.02 23.145 144.263 60.563 40.916 39.013 64.948 91.48 67.669 147.738.099 2.042-1.093 3.17-3.142 3.249h-27.012c-3.911-99.609-84.564-177.64-181.778-181.369zm254.859 225.879h-87.918c-4.142 0-7.5 3.358-7.5 7.5s3.358 7.5 7.5 7.5h42.639c-2.143 50.176-25.668 94.916-61.701 125.368-5.636-15.733-20.676-27.025-38.291-27.025-22.426 0-40.671 18.273-40.671 40.735 0 8.17 2.502 16.091 6.971 22.75-10.704 2.558-21.787 4.127-33.148 4.609v-163.278c0-1.742 1.408-3.159 3.138-3.159h86.062c4.142 0 7.5-3.358 7.5-7.5s-3.358-7.5-7.5-7.5h-86.062c-10.001 0-18.138 8.146-18.138 18.159v208.442c-.049 8.266 7.097 15.229 15.382 14.956 59.651-1.965 115.783-26.272 158.054-68.444 42.274-42.175 66.646-98.185 68.624-157.712.277-8.319-6.672-15.437-14.941-15.401zm-145.27 128.343c12.862 0 23.552 9.547 25.388 21.943-13.274 9.257-27.886 16.726-43.493 22.041-4.847-4.804-7.566-11.278-7.566-18.25 0-14.189 11.516-25.734 25.671-25.734zm80.993 34.151c-39.543 39.45-92.044 62.2-147.841 64.067v-30.115c96.577-3.53 178.122-82.27 181.849-181.446h30.216c-1.876 55.666-24.682 108.046-64.224 147.494zm-104.754-246.424c0 13.539 11 24.554 24.521 24.554s24.521-11.015 24.521-24.554-11-24.554-24.521-24.554-24.521 11.015-24.521 24.554zm34.043 0c0 5.268-4.271 9.554-9.521 9.554s-9.521-4.286-9.521-9.554 4.271-9.554 9.521-9.554 9.521 4.286 9.521 9.554zm-179.05-99.84c-13.521 0-24.521 11.015-24.521 24.554s11 24.554 24.521 24.554 24.521-11.015 24.521-24.554-11-24.554-24.521-24.554zm0 34.108c-5.25 0-9.521-4.286-9.521-9.554s4.271-9.554 9.521-9.554 9.521 4.286 9.521 9.554-4.271 9.554-9.521 9.554zm97.35 38.961c-13.521 0-24.521 11.015-24.521 24.554s11 24.554 24.521 24.554 24.521-11.015 24.521-24.554-11-24.554-24.521-24.554zm0 34.109c-5.25 0-9.521-4.286-9.521-9.554s4.271-9.554 9.521-9.554 9.521 4.286 9.521 9.554-4.271 9.554-9.521 9.554z"/></g></svg>