<svg id="Capa_1" enable-background="new 0 0 512 512" height="512" viewBox="0 0 512 512" width="512" xmlns="http://www.w3.org/2000/svg"><g><g><path d="m406.484 135.276h-300.968v-117.786c0-5.523 4.477-10 10-10h280.967c5.523 0 10 4.477 10 10v117.786z" fill="#365e7d"/></g><g><path d="m396.497 7.49h-29.695c5.516 0 9.987 4.471 9.987 9.987v117.799h29.695v-117.799c0-5.516-4.472-9.987-9.987-9.987z" fill="#2b4d66"/></g><g><path d="m426.838 317.522h-341.676v-188.905c0-5.523 4.477-10 10-10h321.675c5.523 0 10 4.477 10 10v188.905z" fill="#e7ecf6"/></g><g><path d="m310.703 45.096h-28.822c-1.527 0-2.951-.713-3.912-1.899-5.182-6.394-13.098-10.482-21.969-10.482-8.872 0-16.787 4.088-21.969 10.482-.961 1.186-2.385 1.899-3.912 1.899h-28.822c-8.554 0-15.914 6.574-16.316 15.118-.43 9.123 6.84 16.654 15.868 16.654h29.27c1.527 0 2.951.713 3.912 1.899 5.182 6.394 13.098 10.482 21.969 10.482 8.872 0 16.787-4.088 21.969-10.482.961-1.186 2.385-1.899 3.912-1.899h29.27c9.028 0 16.297-7.531 15.868-16.654-.402-8.545-7.762-15.118-16.316-15.118z" fill="#fff"/></g><g><path d="m416.851 118.617h-37.376c5.516 0 9.987 4.471 9.987 9.987v188.918h37.376v-188.918c0-5.516-4.472-9.987-9.987-9.987z" fill="#d8e2f1"/></g><g><g><g><path d="m183.317 263.555h-57.702l-4.994-9.7v-5.343c0-3.503.489-6.99 1.453-10.358l22.168-77.471c2.941-10.278 17.506-10.278 20.448 0l22.168 77.471c.964 3.368 1.453 6.855 1.453 10.358v5.343z" fill="#b3e59f"/></g><g><path d="m186.858 238.154-22.168-77.471c-2.941-10.278-17.506-10.278-20.447 0l-1.293 4.517 20.875 72.953c.964 3.368 1.453 6.855 1.453 10.358v5.343l-4.994 9.7h23.033l4.994-9.7v-5.343c0-3.502-.489-6.989-1.453-10.357z" fill="#95d6a4"/></g><g><path d="m120.622 253.855h67.689v224.587h-67.689z" fill="#95d6a4"/></g><g><path d="m165.278 253.855h23.033v224.587h-23.033z" fill="#78c2a4"/></g></g><g><g><path d="m251.006 263.555h-57.702l-4.994-9.7v-5.343c0-3.503.489-6.99 1.453-10.358l22.168-77.471c2.941-10.278 17.506-10.278 20.448 0l22.168 77.471c.964 3.368 1.453 6.855 1.453 10.358v5.343z" fill="#bed8fb"/></g><g><path d="m254.547 238.154-22.168-77.471c-2.941-10.278-17.506-10.278-20.447 0l-1.293 4.517 20.875 72.953c.964 3.368 1.453 6.855 1.453 10.358v5.343l-4.994 9.7h23.033l4.994-9.7v-5.343c0-3.502-.489-6.989-1.453-10.357z" fill="#9dc6fb"/></g><g><path d="m188.311 253.855h67.689v224.587h-67.689z" fill="#9dc6fb"/></g><g><path d="m232.967 253.855h23.033v224.587h-23.033z" fill="#80b4fb"/></g></g><g><g><path d="m318.695 263.555h-57.702l-4.994-9.7v-5.343c0-3.503.489-6.99 1.453-10.358l22.168-77.471c2.941-10.278 17.507-10.278 20.448 0l22.168 77.471c.964 3.368 1.453 6.855 1.453 10.358v5.343z" fill="#e28086"/></g><g><path d="m322.236 238.154-22.168-77.471c-2.941-10.278-17.506-10.278-20.447 0l-1.293 4.517 20.875 72.953c.964 3.368 1.453 6.855 1.453 10.358v5.343l-4.994 9.7h23.033l4.994-9.7v-5.343c0-3.502-.489-6.989-1.453-10.357z" fill="#dd636e"/></g><g><path d="m256 253.855h67.689v224.587h-67.689z" fill="#dd636e"/></g><g><path d="m300.656 253.855h23.033v224.587h-23.033z" fill="#d82e3d"/></g></g><g><g><path d="m386.384 263.555h-57.702l-4.994-9.7v-5.343c0-3.503.489-6.99 1.453-10.358l22.168-77.471c2.941-10.278 17.507-10.278 20.448 0l22.168 77.471c.964 3.368 1.453 6.855 1.453 10.358v5.343z" fill="#ecbe6b"/></g><g><path d="m389.925 238.154-22.168-77.471c-2.941-10.278-17.506-10.278-20.447 0l-1.293 4.517 20.875 72.953c.964 3.368 1.453 6.855 1.453 10.358v5.343l-4.994 9.7h23.033l4.994-9.7v-5.343c0-3.502-.489-6.989-1.453-10.357z" fill="#eab14d"/></g><g><path d="m323.689 253.855h67.689v224.587h-67.689z" fill="#eab14d"/></g><g><path d="m368.345 253.855h23.033v224.587h-23.033z" fill="#e7a52e"/></g></g></g><g><path d="m85.162 295.014v184.528c0 13.789 11.178 24.968 24.968 24.968h291.74c13.789 0 24.968-11.178 24.968-24.968v-184.528zm170.838 160.563c-64.617 0-117-24.523-117-54.773s52.383-54.773 117-54.773 117 24.523 117 54.773-52.383 54.773-117 54.773z" fill="#f6e266"/></g><g><g><path d="m389.462 295.014v184.528c0 13.789-11.178 24.968-24.968 24.968h37.375c13.789 0 24.968-11.178 24.968-24.968v-184.528z" fill="#ffd064"/></g></g><g><path d="m416.851 111.127h-2.877v-93.65c0-9.637-7.841-17.477-17.478-17.477h-280.992c-9.637 0-17.477 7.84-17.477 17.477v25.586c0 4.137 3.353 7.49 7.49 7.49s7.49-3.353 7.49-7.49v-25.586c0-1.377 1.12-2.497 2.497-2.497h280.993c1.377 0 2.497 1.12 2.497 2.497v93.65h-285.987v-30.518c0-4.137-3.353-7.49-7.49-7.49s-7.49 3.353-7.49 7.49v30.518h-2.877c-9.637 0-17.477 7.84-17.477 17.477v350.937c0 17.898 14.56 32.458 32.458 32.458h291.74c17.898 0 32.458-14.56 32.458-32.458v-31.158c0-4.137-3.353-7.49-7.49-7.49s-7.49 3.353-7.49 7.49v31.158c0 9.637-7.84 17.477-17.477 17.477h-291.742c-9.637 0-17.477-7.84-17.477-17.477v-177.037h326.695v108.803c0 4.137 3.353 7.49 7.49 7.49s7.49-3.353 7.49-7.49v-282.703c0-9.637-7.84-17.477-17.477-17.477zm-153.361 150.218h52.708v26.178h-52.708zm67.689 0h52.708v26.178h-52.708zm.078-14.981c.148-2.081.511-4.141 1.086-6.149l22.168-77.471c.567-1.983 2.137-2.278 3.022-2.278s2.455.296 3.021 2.278l22.156 77.425c.223.905.447 3.308.638 6.195zm-67.689 0c.148-2.081.511-4.141 1.086-6.149l22.168-77.471c.567-1.983 2.137-2.278 3.021-2.278.886 0 2.456.296 3.022 2.278l22.169 77.473c.575 2.007.937 4.067 1.086 6.147zm-38.417 0c-4.137 0-7.49 3.353-7.49 7.49s3.353 7.49 7.49 7.49h23.359v26.178h-52.708v-39.011c0-2.809.391-5.599 1.165-8.297l22.168-77.471c.567-1.983 2.137-2.278 3.022-2.278s2.455.296 3.021 2.278l22.169 77.473c.575 2.007.937 4.067 1.086 6.147h-23.282zm-97.039 14.981h52.708v26.178h-52.708zm.078-14.981c.148-2.08.51-4.141 1.086-6.149l22.169-77.471c.567-1.983 2.136-2.278 3.021-2.278.886-.001 2.456.296 3.022 2.278l22.168 77.471c.575 2.009.938 4.07 1.086 6.149zm270.678 41.159s-.079-34.856-.214-35.419c-.225-5.736-.671-13.017-1.528-16.011l-22.168-77.471c-2.249-7.858-9.251-13.137-17.425-13.137-8.175 0-15.177 5.279-17.426 13.137l-16.419 57.382-16.419-57.382c-2.249-7.858-9.251-13.137-17.426-13.137-8.174 0-15.176 5.279-17.425 13.137l-16.418 57.383-16.419-57.382c-2.249-7.858-9.251-13.137-17.425-13.137-8.175 0-15.177 5.279-17.426 13.137l-16.419 57.382-16.419-57.382c-2.249-7.859-9.253-13.138-17.427-13.137-8.173 0-15.176 5.279-17.424 13.137l-22.169 77.471c-1.155 4.039-1.741 8.216-1.741 12.419v39.011h-20.479v-158.92c0-1.377 1.12-2.497 2.497-2.497h321.702c1.377 0 2.497 1.12 2.497 2.497v158.919z"/><path d="m228.943 84.358c6.81 7.883 16.606 12.381 27.057 12.381s20.245-4.497 27.057-12.381h28.095c6.359 0 12.525-2.639 16.915-7.242 4.454-4.668 6.739-10.796 6.435-17.256-.588-12.479-11.041-22.254-23.798-22.254h-27.646c-6.809-7.883-16.605-12.381-27.057-12.381s-20.247 4.497-27.057 12.381h-27.646c-12.757 0-23.21 9.775-23.799 22.255-.303 6.459 1.982 12.587 6.436 17.255 4.39 4.602 10.556 7.242 16.915 7.242zm-36.481-23.792c.208-4.401 4.171-7.98 8.835-7.98h28.821c3.778 0 7.326-1.704 9.731-4.674 3.97-4.898 9.857-7.708 16.151-7.708s12.181 2.81 16.149 7.706c2.407 2.972 5.954 4.676 9.733 4.676h28.821c4.664 0 8.628 3.579 8.834 7.979.11 2.328-.71 4.534-2.31 6.21-1.6 1.678-3.759 2.602-6.076 2.602h-29.27c-3.778 0-7.326 1.704-9.731 4.673-3.971 4.899-9.858 7.709-16.151 7.709s-12.18-2.81-16.149-7.707c-2.407-2.971-5.954-4.675-9.733-4.675h-29.27c-2.317 0-4.476-.924-6.076-2.602-1.598-1.675-2.418-3.882-2.309-6.209z"/><path d="m256 338.54c-32.326 0-62.836 5.948-85.908 16.749-24.881 11.648-38.583 27.812-38.583 45.514s13.702 33.866 38.583 45.514c23.072 10.801 53.581 16.749 85.908 16.749s62.836-5.948 85.908-16.749c24.881-11.648 38.583-27.812 38.583-45.514s-13.702-33.866-38.583-45.514c-23.072-10.8-53.582-16.749-85.908-16.749zm-7.49 109.42c-18.974-.573-36.983-3.316-52.708-7.973v-78.366c15.725-4.657 33.735-7.4 52.708-7.973zm14.98-94.312c18.974.573 36.983 3.316 52.708 7.973v78.366c-15.725 4.657-33.735 7.4-52.708 7.973zm-117 47.156c0-11.391 10.918-23.035 29.954-31.946 1.425-.667 2.889-1.31 4.377-1.937v67.766c-1.489-.627-2.952-1.27-4.377-1.937-19.036-8.912-29.954-20.556-29.954-31.946zm219.02 0c0 11.391-10.918 23.035-29.953 31.946-1.425.667-2.889 1.31-4.377 1.937v-67.766c1.489.627 2.952 1.27 4.377 1.937 19.035 8.911 29.953 20.555 29.953 31.946z"/></g></g></svg>