<svg id="Capa_1" enable-background="new 0 0 512 512" height="512" viewBox="0 0 512 512" width="512" xmlns="http://www.w3.org/2000/svg"><g><path d="m376 7.5h-30v497h30c24.853 0 45-20.147 45-45v-407c0-24.853-20.147-45-45-45z" fill="#8de5ff"/><path d="m346 7.5h-210c-24.853 0-45 20.147-45 45v407c0 24.853 20.147 45 45 45h210c24.853 0 45-20.147 45-45v-30l-30-56.75 30-56.75v-120l-30-56.75 30-56.75v-30c0-24.853-20.147-45-45-45z" fill="#c6f2ff"/><path d="m241 67.5v377c0 8.284 6.716 15 15 15s15-6.716 15-15v-377c0-8.284-6.716-15-15-15s-15 6.716-15 15z" fill="#8de5ff"/><path d="m346.003 109.25v131.75c24.85 0 45-20.15 45-45v-56.75z" fill="#fff9d6"/><path d="m361 196v-86.75l-60 30v56.75c0 24.853 20.147 45 45 45 8.284 0 15-20.147 15-45z" fill="#fff"/><path d="m346.003 37.5 15 101.75h30v-56.75c0-24.85-20.15-45-45-45z" fill="#ff4c3b"/><path d="m361 82.5c0-24.853-6.716-45-15-45-24.853 0-45 20.147-45 45v56.75h60z" fill="#ff6c4a"/><path d="m346.003 342.75v131.75c24.85 0 45-20.15 45-45v-56.75z" fill="#fff9d6"/><path d="m361 429.5v-86.75l-60 30v56.75c0 24.853 20.147 45 45 45 8.284 0 15-20.147 15-45z" fill="#fff"/><path d="m346.003 271 15 101.75h30v-56.75c0-24.85-20.15-45-45-45z" fill="#ff4c3b"/><path d="m361 316c0-24.853-6.716-45-15-45-24.853 0-45 20.147-45 45v56.75h60z" fill="#ff6c4a"/><path d="m166.003 342.75v131.75c24.85 0 45-20.15 45-45v-56.75z" fill="#fff9d6"/><path d="m181 429.5v-86.75l-60 30v56.75c0 24.853 20.147 45 45 45 8.284 0 15-20.147 15-45z" fill="#fff"/><path d="m166.003 271 15 101.75h30v-56.75c0-24.85-20.15-45-45-45z" fill="#ff4c3b"/><path d="m181 316c0-24.853-6.716-45-15-45-24.853 0-45 20.147-45 45v56.75h60z" fill="#ff6c4a"/><path d="m166.003 109.25v131.75c24.85 0 45-20.15 45-45v-56.75z" fill="#fff9d6"/><path d="m181 196v-86.75l-60 30v56.75c0 24.853 20.147 45 45 45 8.284 0 15-20.147 15-45z" fill="#fff"/><path d="m166.003 37.5 15 101.75h30v-56.75c0-24.85-20.15-45-45-45z" fill="#ff4c3b"/><path d="m181 82.5c0-24.853-6.716-45-15-45-24.853 0-45 20.147-45 45v56.75h60z" fill="#ff6c4a"/><path d="m376 0h-240c-28.949 0-52.5 23.551-52.5 52.5v407c0 28.949 23.551 52.5 52.5 52.5h240c28.949 0 52.5-23.551 52.5-52.5v-407c0-28.949-23.551-52.5-52.5-52.5zm37.5 459.5c0 20.678-16.822 37.5-37.5 37.5h-240c-20.678 0-37.5-16.822-37.5-37.5v-407c0-20.678 16.822-37.5 37.5-37.5h240c20.678 0 37.5 16.822 37.5 37.5z"/><path d="m346 30c-28.949 0-52.5 23.551-52.5 52.5v113.5c0 28.949 23.551 52.5 52.5 52.5s52.5-23.551 52.5-52.5v-113.5c0-28.949-23.551-52.5-52.5-52.5zm0 203.5c-20.678 0-37.5-16.822-37.5-37.5v-49.25h75v49.25c0 20.678-16.822 37.5-37.5 37.5zm37.5-101.75h-75v-49.25c0-20.678 16.822-37.5 37.5-37.5s37.5 16.822 37.5 37.5z"/><path d="m166 30c-28.949 0-52.5 23.551-52.5 52.5v113.5c0 28.949 23.551 52.5 52.5 52.5s52.5-23.551 52.5-52.5v-113.5c0-28.949-23.551-52.5-52.5-52.5zm0 203.5c-20.678 0-37.5-16.822-37.5-37.5v-49.25h75v49.25c0 20.678-16.822 37.5-37.5 37.5zm37.5-101.75h-75v-49.25c0-20.678 16.822-37.5 37.5-37.5s37.5 16.822 37.5 37.5z"/><path d="m346 263.5c-28.949 0-52.5 23.551-52.5 52.5v113.5c0 28.949 23.551 52.5 52.5 52.5s52.5-23.551 52.5-52.5v-113.5c0-28.949-23.551-52.5-52.5-52.5zm0 203.5c-20.678 0-37.5-16.822-37.5-37.5v-49.25h75v49.25c0 20.678-16.822 37.5-37.5 37.5zm37.5-101.75h-75v-49.25c0-20.678 16.822-37.5 37.5-37.5s37.5 16.822 37.5 37.5z"/><path d="m166 263.5c-28.949 0-52.5 23.551-52.5 52.5v113.5c0 28.949 23.551 52.5 52.5 52.5s52.5-23.551 52.5-52.5v-113.5c0-28.949-23.551-52.5-52.5-52.5zm0 203.5c-20.678 0-37.5-16.822-37.5-37.5v-49.25h75v49.25c0 20.678-16.822 37.5-37.5 37.5zm37.5-101.75h-75v-49.25c0-20.678 16.822-37.5 37.5-37.5s37.5 16.822 37.5 37.5z"/><path d="m256 45c-12.407 0-22.5 10.093-22.5 22.5v173.5c0 4.142 3.358 7.5 7.5 7.5s7.5-3.358 7.5-7.5v-173.5c0-4.136 3.364-7.5 7.5-7.5s7.5 3.364 7.5 7.5v377c0 4.136-3.364 7.5-7.5 7.5s-7.5-3.364-7.5-7.5v-173.5c0-4.142-3.358-7.5-7.5-7.5s-7.5 3.358-7.5 7.5v173.5c0 12.407 10.093 22.5 22.5 22.5s22.5-10.093 22.5-22.5v-377c0-12.407-10.093-22.5-22.5-22.5z"/></g></svg>