<?xml version="1.0"?>
<svg xmlns="http://www.w3.org/2000/svg" xmlns:xlink="http://www.w3.org/1999/xlink" xmlns:svgjs="http://svgjs.com/svgjs" version="1.1" width="512" height="512" x="0" y="0" viewBox="0 0 512 512" style="enable-background:new 0 0 512 512" xml:space="preserve" class=""><g><path xmlns="http://www.w3.org/2000/svg" d="m129.707031 512h213.976563c12.46875 0 24.648437-3.945312 34.632812-11.414062 57.710938-43.164063 95.070313-112.039063 95.070313-189.648438 0-70.308594-30.667969-133.449219-79.34375-176.800781v-70.34375h-314.699219v70.34375c-48.675781 43.351562-79.34375 106.492187-79.34375 176.800781 0 77.609375 37.359375 146.484375 95.070312 189.648438 9.984376 7.46875 22.167969 11.414062 34.636719 11.414062zm0 0" fill="#fff2c9" data-original="#f9efd1" style="" class=""/><path xmlns="http://www.w3.org/2000/svg" d="m30.90625 310.9375c0-70.308594 30.667969-133.449219 79.339844-176.800781v-70.34375h-30.902344v70.34375c-48.675781 43.351562-79.34375 106.492187-79.34375 176.800781 0 77.609375 37.359375 146.484375 95.070312 189.648438 9.984376 7.46875 22.167969 11.414062 34.636719 11.414062h30.902344c-12.46875 0-24.648437-3.945312-34.632813-11.414062-57.710937-43.164063-95.070312-112.039063-95.070312-189.648438zm0 0" fill="#e6ddc1" data-original="#e6ddc1" style="" class=""/><path xmlns="http://www.w3.org/2000/svg" d="m426.6875 315.390625c0 37.390625-30.3125 67.699219-67.703125 67.699219s-67.703125-30.308594-67.703125-67.699219 30.3125-67.703125 67.703125-67.703125 67.703125 30.3125 67.703125 67.703125zm0 0" fill="#c2e3ee" data-original="#c2e3ee" style=""/><path xmlns="http://www.w3.org/2000/svg" d="m317.511719 315.390625c0-32.90625 23.472656-60.316406 54.585937-66.421875-4.242187-.832031-8.625-1.28125-13.113281-1.28125-37.390625 0-67.703125 30.308594-67.703125 67.703125 0 37.390625 30.3125 67.699219 67.703125 67.699219 4.488281 0 8.871094-.445313 13.113281-1.28125-31.113281-6.105469-54.585937-33.515625-54.585937-66.417969zm0 0" fill="#add9e8" data-original="#add9e8" style=""/><path xmlns="http://www.w3.org/2000/svg" d="m182.105469 315.390625c0 37.390625-30.3125 67.699219-67.703125 67.699219s-67.699219-30.308594-67.699219-67.699219 30.308594-67.703125 67.699219-67.703125 67.703125 30.3125 67.703125 67.703125zm0 0" fill="#fff2c9" data-original="#62c397" style="" class=""/><path xmlns="http://www.w3.org/2000/svg" d="m72.929688 315.390625c0-32.90625 23.472656-60.316406 54.585937-66.421875-4.242187-.832031-8.625-1.28125-13.113281-1.28125-37.390625 0-67.703125 30.308594-67.703125 67.703125 0 37.390625 30.3125 67.699219 67.703125 67.699219 4.488281 0 8.871094-.445313 13.113281-1.28125-31.113281-6.105469-54.585937-33.515625-54.585937-66.417969zm0 0" fill="#fff2c9" data-original="#20ab6c" style="" class=""/><path xmlns="http://www.w3.org/2000/svg" d="m304.394531 338.433594c0 37.390625-30.308593 67.703125-67.699219 67.703125-37.390624 0-67.703124-30.3125-67.703124-67.703125s30.3125-67.703125 67.703124-67.703125c37.390626 0 67.699219 30.3125 67.699219 67.703125zm0 0" fill="#e8a8c2" data-original="#e8a8c2" style=""/><path xmlns="http://www.w3.org/2000/svg" d="m195.21875 338.433594c0-32.902344 23.476562-60.3125 54.589844-66.421875-4.246094-.832031-8.628906-1.28125-13.117188-1.28125-37.390625 0-67.699218 30.3125-67.699218 67.703125s30.308593 67.703125 67.699218 67.703125c4.488282 0 8.871094-.449219 13.117188-1.28125-31.113282-6.109375-54.589844-33.519531-54.589844-66.421875zm0 0" fill="#db9eb7" data-original="#db9eb7" style="" class=""/><path xmlns="http://www.w3.org/2000/svg" d="m208.332031 408.269531c0 37.390625-30.308593 67.703125-67.699219 67.703125-37.394531 0-67.703124-30.3125-67.703124-67.703125s30.308593-67.703125 67.703124-67.703125c37.390626 0 67.699219 30.3125 67.699219 67.703125zm0 0" fill="#ab8ecd" data-original="#ab8ecd" style="" class=""/><path xmlns="http://www.w3.org/2000/svg" d="m99.15625 408.269531c0-32.902343 23.476562-60.3125 54.585938-66.421875-4.242188-.832031-8.625-1.28125-13.113282-1.28125-37.390625 0-67.699218 30.3125-67.699218 67.703125s30.308593 67.703125 67.699218 67.703125c4.488282 0 8.871094-.449218 13.113282-1.28125-31.109376-6.109375-54.585938-33.519531-54.585938-66.421875zm0 0" fill="#9d7bc6" data-original="#9d7bc6" style="" class=""/><path xmlns="http://www.w3.org/2000/svg" d="m400.460938 408.269531c0 37.390625-30.3125 67.703125-67.703126 67.703125-37.390624 0-67.703124-30.3125-67.703124-67.703125s30.3125-67.703125 67.703124-67.703125c37.390626 0 67.703126 30.3125 67.703126 67.703125zm0 0" fill="#e3637b" data-original="#e3637b" style=""/><path xmlns="http://www.w3.org/2000/svg" d="m291.28125 408.269531c0-32.902343 23.476562-60.3125 54.589844-66.421875-4.246094-.832031-8.628906-1.28125-13.113282-1.28125-37.394531 0-67.703124 30.3125-67.703124 67.703125s30.308593 67.703125 67.703124 67.703125c4.484376 0 8.867188-.449218 13.113282-1.28125-31.113282-6.109375-54.589844-33.519531-54.589844-66.421875zm0 0" fill="#d75e74" data-original="#d75e74" style=""/><path xmlns="http://www.w3.org/2000/svg" d="m304.394531 425.753906c0 37.390625-30.308593 67.703125-67.699219 67.703125-37.390624 0-67.703124-30.3125-67.703124-67.703125s30.3125-67.699218 67.703124-67.699218c37.390626 0 67.699219 30.308593 67.699219 67.699218zm0 0" fill="#f5d96c" data-original="#f5d96c" style=""/><path xmlns="http://www.w3.org/2000/svg" d="m195.21875 425.753906c0-32.902344 23.476562-60.3125 54.589844-66.417968-4.246094-.835938-8.628906-1.28125-13.117188-1.28125-37.390625 0-67.699218 30.308593-67.699218 67.699218s30.308593 67.703125 67.699218 67.703125c4.488282 0 8.871094-.449219 13.117188-1.28125-31.113282-6.109375-54.589844-33.519531-54.589844-66.421875zm0 0" fill="#eaca65" data-original="#eaca65" style=""/><path xmlns="http://www.w3.org/2000/svg" d="m79.34375 63.792969h314.699219v70.34375h-314.699219zm0 0" fill="#e6ddc1" data-original="#e6ddc1" style="" class=""/><path xmlns="http://www.w3.org/2000/svg" d="m79.34375 63.792969h30.902344v70.34375h-30.902344zm0 0" fill="#ddd3b8" data-original="#ddd3b8" style=""/><path xmlns="http://www.w3.org/2000/svg" d="m422.230469 15.410156v62.183594c0 8.507812-6.902344 15.414062-15.410157 15.414062h-340.25c-8.507812 0-15.410156-6.902343-15.410156-15.414062v-62.183594c-.003906-8.507812 6.902344-15.410156 15.410156-15.410156h340.246094c8.511719 0 15.414063 6.902344 15.414063 15.410156zm0 0" fill="#d0d1d2" data-original="#d0d1d2" style=""/><g xmlns="http://www.w3.org/2000/svg" fill="#bbbcbd"><path d="m82.0625 77.589844v-62.179688c0-8.511718 6.902344-15.410156 15.414062-15.410156h-30.90625c-8.511718 0-15.414062 6.898438-15.414062 15.410156v62.179688c0 8.511718 6.902344 15.414062 15.414062 15.414062h30.902344c-8.507812 0-15.410156-6.902344-15.410156-15.414062zm0 0" fill="#bbbcbd" data-original="#bbbcbd" style="" class=""/><path d="m117.644531 0h15.453125v93.003906h-15.453125zm0 0" fill="#bbbcbd" data-original="#bbbcbd" style="" class=""/><path d="m340.289062 0h15.453126v93.003906h-15.453126zm0 0" fill="#bbbcbd" data-original="#bbbcbd" style="" class=""/><path d="m266.074219 0h15.453125v93.003906h-15.453125zm0 0" fill="#bbbcbd" data-original="#bbbcbd" style="" class=""/><path d="m191.859375 0h15.453125v93.003906h-15.453125zm0 0" fill="#bbbcbd" data-original="#bbbcbd" style="" class=""/></g></g></svg>
