<?xml version="1.0" encoding="iso-8859-1"?>
<!-- Generator: Adobe Illustrator 19.0.0, SVG Export Plug-In . SVG Version: 6.00 Build 0)  -->
<svg version="1.1" id="Capa_1" xmlns="http://www.w3.org/2000/svg" xmlns:xlink="http://www.w3.org/1999/xlink" x="0px" y="0px"
	 viewBox="0 0 512 512" style="enable-background:new 0 0 512 512;" xml:space="preserve">
<path style="fill:#91CC04;" d="M189.488,134.501c-4.327,2.087-8.805,3.506-13.324,4.286c-3.131,0.547-6.282,0.78-9.413,0.73
	c-2.493-0.041-4.975-0.263-7.407-0.669c-15.695-2.584-29.942-12.524-37.369-27.936c-12.129-25.169-1.55-55.395,23.599-67.514
	c13.223-6.373,27.844-6.485,40.5-1.479c0.01,0,0.01,0.01,0.02,0.01c0.588,0.233,1.165,0.476,1.743,0.73
	c10.68,4.661,19.789,13.031,25.24,24.339C225.205,92.156,214.638,122.372,189.488,134.501z"/>
<path style="fill:#9CDD05;" d="M189.488,134.501c-4.327,2.087-8.805,3.506-13.324,4.286c-10.66-4.651-19.769-13.02-25.23-24.328
	c-12.129-25.169-1.56-55.395,23.599-67.514c4.327-2.087,8.795-3.506,13.304-4.286c10.68,4.661,19.789,13.031,25.24,24.339
	C225.205,92.156,214.638,122.372,189.488,134.501z"/>
<path style="fill:#85BB04;" d="M410.858,38.201c-20.853-8.324-34.471-0.524-42.326,7.715l-2.099,15.98
	c24.746,11.152,40.206-0.725,47.862-10.123C417.987,47.242,416.288,40.369,410.858,38.201z"/>
<path style="fill:#EEBF00;" d="M415.466,159.994c-4.33,39.366-41.388,66.508-80.18,58.931c-34.157-6.657-58.05-38.514-54.179-73.715
	c4.083-37.106,37.47-63.876,74.566-59.793C392.887,89.518,419.541,122.987,415.466,159.994z"/>
<path style="fill:#FFCD00;" d="M415.466,159.994c-3.303,30.033-25.818,53.298-53.956,58.901
	c-19.931-13.628-31.898-37.531-29.071-63.218c3.303-30.033,25.818-53.298,53.956-58.901
	C406.336,110.406,418.294,134.319,415.466,159.994z"/>
<path style="fill:#3FA45A;" d="M326.857,169.783c0,42.587-28.067,78.609-66.703,90.606c-7.194,2.239-14.763,3.638-22.586,4.094
	c-1.246,0.071-2.493,0.122-3.759,0.142c-0.598,0.01-1.206,0.02-1.814,0.02c-52.396,0-94.862-42.466-94.862-94.862
	s42.466-94.862,94.862-94.862c1.875,0,3.729,0.051,5.573,0.162c3.911,0.223,7.751,0.689,11.521,1.388
	c1.641,0.294,3.263,0.628,4.874,1.013C295.76,87.394,326.857,124.955,326.857,169.783z"/>
<path style="fill:#4CBA68;" d="M326.857,169.783c0,42.587-28.067,78.609-66.703,90.606c-44.239-8.045-77.758-46.762-77.758-93.311
	c0-42.587,28.047-78.609,66.693-90.606c1.641,0.294,3.263,0.628,4.874,1.013C295.76,87.394,326.857,124.955,326.857,169.783z"/>
<path style="fill:#CD2A00;" d="M501.806,161.91c0,27.619-22.321,50.562-50.562,50.562c-27.926,0-50.572-22.636-50.572-50.562
	c0-36.919,38.517-61.459,71.688-45.951C489.739,123.953,501.806,141.522,501.806,161.91z"/>
<path style="fill:#85BB04;" d="M107.396,8.046c-26.861,2.2-36.569,18.043-40.006,30.78l6.404,16.366
	c32.049-1.865,40.717-23.632,42.998-36.993C117.756,12.552,113.106,7.579,107.396,8.046z"/>
<path style="fill:#CD2A00;" d="M108.57,224.205c-32.87,2.868-65.052-15.979-77.687-48.262
	C8.31,118.233,60.291,60.062,119.138,73.705c23.72,5.492,44.432,22.201,53.966,46.59C192.07,168.785,157.81,220.554,108.57,224.205z
	"/>
<g>
	<path style="fill:#FF3501;" d="M129.818,219.229c-4.59,1.793-9.241,3.111-13.902,3.982c-23.71-5.492-44.421-22.201-53.956-46.59
		c-15.361-39.274,4.023-83.564,43.287-98.935c4.58-1.793,9.221-3.111,13.892-3.982c23.72,5.492,44.432,22.201,53.966,46.59
		C188.464,159.569,169.092,203.858,129.818,219.229z"/>
	<path style="fill:#FF3501;" d="M501.806,161.91c0,24.622-17.611,45.141-40.926,49.64c-17.388-7.985-29.466-25.555-29.466-45.941
		c0-24.643,17.621-45.151,40.946-49.65C489.739,123.953,501.806,141.522,501.806,161.91z"/>
</g>
<path style="fill:#CC7400;" d="M483.234,212.614v269.883c0,11.987-9.808,21.795-21.785,21.795H50.601
	c-11.987,0-21.795-9.808-21.795-21.795V212.614c0-3.607,2.128-6.748,5.188-8.218c1.196-0.578,2.523-0.902,3.931-0.902h436.19
	C479.13,203.494,483.234,207.597,483.234,212.614z"/>
<path style="fill:#AA6100;" d="M504.4,183.309v47.563c0,7.083-5.806,12.889-12.889,12.889H20.536
	c-7.093,0-12.889-5.806-12.889-12.889v-47.563c0-7.083,5.796-12.889,12.889-12.889h470.975
	C498.595,170.42,504.4,176.226,504.4,183.309z"/>
<path style="fill:#CC7400;" d="M504.4,183.309v47.563c0,7.083-5.806,12.889-12.889,12.889H53.843
	c-7.093,0-12.889-5.806-12.889-12.889v-47.563c0-7.083,5.796-12.889,12.889-12.889h437.669
	C498.595,170.42,504.4,176.226,504.4,183.309z"/>
<path id="SVGCleanerId_0" style="fill:#EE8700;" d="M483.234,243.76v238.735c0,11.987-9.808,21.795-21.785,21.795H85.771
	c-11.987,0-21.795-9.808-21.795-21.795V243.76L483.234,243.76L483.234,243.76z"/>
<g>
	<path id="SVGCleanerId_0_1_" style="fill:#EE8700;" d="M483.234,243.76v238.735c0,11.987-9.808,21.795-21.785,21.795H85.771
		c-11.987,0-21.795-9.808-21.795-21.795V243.76L483.234,243.76L483.234,243.76z"/>
</g>
<path d="M509.032,172.69c0,0-0.01,0,0-0.01c-0.155-0.253-0.322-0.499-0.487-0.745c0-0.009,0-0.018-0.009-0.035
	c1.631-9.251,1.003-19.252-2.178-28.635c-1.348-3.972-5.755-6.485-9.727-5.158c-4.033,1.338-6.171,5.705-4.783,9.707
	c1.682,4.813,2.452,9.859,2.351,14.936c-0.03,0.03-0.041,0.041-0.071,0.071c-13.894,0-75.016,0-85.773,0
	c-0.03-0.03-0.041-0.041-0.071-0.071c-1.084-35.13,39.862-56.591,68.466-35.424c3.374,2.493,8.137,1.783,10.629-1.591
	c2.493-3.384,1.783-8.137-1.591-10.629c-21.015-15.533-50.309-15.321-71.222,1.672c-0.061-0.01-0.081-0.01-0.132-0.02
	c-10.204-18.847-28.3-32.911-50.187-37.622c-0.03-0.041-0.041-0.061-0.061-0.091l1.196-9.2c0.051-0.03,0.061-0.041,0.101-0.061
	c10.781,4.428,21.998,5.786,32.921,2.239c19.576-6.333,28.3-25.372,28.655-26.183c1.591-3.557,0.233-7.751-3.141-9.697
	c-22.596-12.99-40.814-10.801-53.895-1.51h-0.01l3.394-25.788c0.547-4.165-2.391-7.974-6.546-8.522s-7.985,2.381-8.532,6.546
	l-9.251,70.483c-0.03,0.03-0.051,0.041-0.081,0.071c-4.063-0.051-8.086,0.233-12.058,0.841c-4.479,0.679-7.437,5.117-6.161,9.616
	c1.044,3.729,4.904,5.928,8.734,5.37c8.005-1.175,13.618-0.365,15.179-0.294c0.304,0.132,34.046,1.804,48.697,35.849v0.081
	c-7.225,10.426-10.649,22.9-10.305,33.904c0,0.01-0.02,0.03-0.041,0.03h-58.759l-0.071-0.071
	c-1.479-21.694-9.727-41.534-22.657-57.452c0-0.051,0-0.081,0.01-0.132c0.892-0.699,1.834-1.388,2.786-2.037
	c3.881-2.655,4.519-8.278,0.963-11.764c-2.645-2.584-6.829-2.665-9.869-0.557c-1.5,1.034-2.959,2.138-4.377,3.273h-0.091
	c-21.329-19.445-49.711-29.121-79.197-26.254c-0.03-0.02-0.051-0.03-0.071-0.051c-4.702-12.048-13.588-22.707-25.595-29.496
	c-2.888-1.621-6.394-1.165-8.744,0.902c-3.952,3.506-3.253,9.778,1.277,12.342c7.933,4.454,14.18,11.399,17.854,19.323
	c-0.01,0.041-0.02,0.061-0.03,0.101c-2.655,1.662-4.094,4.884-3.344,8.116c1.348,5.796,7.073,5.836,7.174,5.877
	c0.638,0.03,1.297-0.03,1.945-0.182c51.889-12.027,102.502,25.078,106.737,77.96c-0.041,0.041-0.051,0.061-0.091,0.101
	c-28.222,0-105.939,0-134.126,0c-0.03-0.041-0.041-0.051-0.071-0.081c3.597-20.204-0.405-40.683-10.812-58.03
	c0-0.03,0.01-0.051,0.01-0.081c3.871-3.425,8.086-6.566,12.605-9.332c4.023-2.462,4.945-8.086,1.53-11.734
	c-2.482-2.655-6.596-2.989-9.687-1.094c-4.803,2.949-9.302,6.242-13.456,9.849h-0.111c-9.41-10.609-21.387-18.63-35.099-23.477
	c-0.02-0.051-0.03-0.071-0.051-0.122c6.525-12.372,19.293-21.309,34.157-22.576c4.357-0.426,7.255-4.175,6.91-8.228
	c-0.365-4.175-4.053-7.275-8.228-6.91c-19.637,1.763-35.991,12.939-45.131,28.533c-1.044,1.773-1.976,3.597-2.817,5.472
	c-0.03,0.02-0.061,0.03-0.091,0.051c-11.875-1.814-24.035-1.013-35.738,2.401c-0.041-0.02-0.061-0.03-0.101-0.051l-1.895-4.803
	c0.01,0,0.01,0,0.01,0c14.044-1.246,25.372-6.181,33.772-14.743c15.969-16.293,14.723-39.497,14.662-40.47
	c-0.233-3.901-3.384-6.971-7.285-7.133C97.647-0.548,82.063,4.691,71.545,15.796c-3.627,3.83-6.302,8.015-8.258,12.2
	c-0.071-0.01-0.071-0.01-0.142-0.01l-8.957-22.9c-1.53-3.911-5.938-5.836-9.839-4.306c-3.911,1.53-5.847,5.938-4.316,9.839
	l24.399,62.326c-0.01,0.041-0.02,0.061-0.041,0.101c-17.55,8.755-31.35,23.234-39.315,41.422
	c-6.738,15.412-8.684,32.11-5.776,48.302c-0.03,0.041-0.041,0.051-0.071,0.091c-2.12,0.137-4.458,0.657-6.657,1.571h-0.01
	c-0.554,0.24-1.942,0.939-2.645,1.358c0,0,0,0.01-0.01,0c-2.634,1.616-5.116,4.002-6.89,6.89c0.01,0.01,0,0.01,0,0.01
	c-2.245,3.728-2.824,5.352-2.969,15.46c-0.11,7.72,0,20.389,0,42.721c0,11.298,9.19,20.488,20.488,20.488h1.591
	c0,28.995,0,201.973,0,231.065c0,16.212,13.183,29.395,29.395,29.395c43.714,0,367.512,0,410.838,0
	c16.212,0,29.395-13.183,29.395-29.395c0-75.857,0-142.865,0-231.075c11.186-0.122,20.245-9.261,20.245-20.478
	c0-11.169,0-42.238,0-47.563C511.999,179.558,510.92,175.828,509.032,172.69z M409.225,45.748c0.02,0.051,0.02,0.061,0.041,0.122
	c-3.212,4.215-8.41,9.423-15.655,11.723c-6.829,2.179-14.53,1.449-22.981-2.138c-0.01-0.051-0.02-0.071-0.03-0.122
	C379.689,42.648,392.537,38.645,409.225,45.748z M82.578,26.243c6.08-6.414,15.077-10.011,26.821-10.73
	c0.03,0.041,0.051,0.061,0.081,0.091c-0.871,6.13-3.313,14.936-9.859,21.623c-6.09,6.211-14.844,9.697-26.071,10.386
	c-0.03-0.041-0.051-0.061-0.081-0.091C74.159,41.544,76.276,32.891,82.578,26.243z M76.936,84.091c0.01,0,0.01,0,0.01,0
	c51.595-20.204,103.88,25.858,92.248,78.66c-0.03,0.03-0.051,0.041-0.091,0.071H34.885c-0.041-0.03-0.061-0.041-0.091-0.071
	C27.818,131.084,44.317,96.852,76.936,84.091z M51.523,496.62c-7.833,0-14.196-6.363-14.196-14.196v-42.658l53.034-53.034
	l50.379,50.379L81.232,496.62H51.523z M151.49,281.281l11.409,11.409L112.52,343.07l-11.409-11.409L151.49,281.281z M143.071,251.36
	h16.84l-8.42,8.42L143.071,251.36z M195.811,281.281l50.379,50.379l-11.409,11.409l-50.379-50.379L195.811,281.281z M187.39,251.36
	h16.84l-8.42,8.42L187.39,251.36z M318.072,281.281l11.409,11.409l-50.379,50.379l-11.409-11.409L318.072,281.281z M309.652,251.36
	h16.84l-8.42,8.42L309.652,251.36z M362.392,281.281l50.379,50.379l-11.409,11.409l-50.379-50.379L362.392,281.281z M353.971,251.36
	h16.84l-8.42,8.42L353.971,251.36z M162.9,414.952l-11.409,11.409l-50.379-50.379l11.409-11.409L162.9,414.952z M123.272,353.821
	l50.379-50.379l50.379,50.379L173.652,404.2L123.272,353.821z M173.652,425.702l11.409,11.409l-11.409,11.409l-11.409-11.409
	L173.652,425.702z M184.402,414.952l50.379-50.379l11.409,11.409l0,0l-50.379,50.379L184.402,414.952z M245.531,353.821
	l11.409-11.409l11.409,11.409l-11.409,11.409L245.531,353.821z M279.102,364.572l50.379,50.379l-11.409,11.409l-50.379-50.379l0,0
	L279.102,364.572z M289.853,353.821l50.379-50.379l50.379,50.379L340.232,404.2L289.853,353.821z M340.231,425.702l11.409,11.409
	l-11.409,11.409l-11.409-11.409L340.231,425.702z M350.983,414.952l50.379-50.379l11.409,11.409l-50.379,50.379L350.983,414.952z
	 M412.113,353.821L412.113,353.821l11.409-11.409l11.409,11.409l-11.409,11.409L412.113,353.821z M340.231,281.941l-11.409-11.409
	l11.409-11.409l11.409,11.409L340.231,281.941z M256.942,320.911l-50.379-50.379l19.171-19.171h62.417l19.171,19.171
	L256.942,320.911z M173.652,281.941l-11.409-11.409l11.409-11.409l11.409,11.409L173.652,281.941z M101.771,353.821L101.771,353.821
	L90.361,365.23l-11.409-11.409l11.409-11.409l0,0L101.771,353.821z M68.2,343.071l-30.874-30.874v-22.819l42.283,42.283
	L68.2,343.071z M57.449,353.821l-20.123,20.123v-40.247L57.449,353.821z M68.2,364.572l11.409,11.409l-42.283,42.284v-22.819
	L68.2,364.572z M102.733,496.62l48.758-48.758l11.409,11.409l-37.349,37.349L102.733,496.62L102.733,496.62z M147.053,496.62
	l26.598-26.598l26.598,26.598H147.053z M221.751,496.62l-37.349-37.349l11.409-11.409l0,0l48.758,48.758L221.751,496.62
	L221.751,496.62z M206.562,437.111l50.379-50.379l50.379,50.379l-50.379,50.379L206.562,437.111z M269.313,496.62l48.758-48.758
	l11.409,11.409l-37.349,37.349L269.313,496.62L269.313,496.62z M313.633,496.62l26.598-26.598l26.598,26.598H313.633z
	 M388.331,496.62l-37.349-37.349l11.409-11.409l48.758,48.758L388.331,496.62L388.331,496.62z M476.557,482.424
	c0,7.833-6.363,14.196-14.196,14.196h-29.709l-59.509-59.509l50.379-50.379l53.034,53.034L476.557,482.424L476.557,482.424z
	 M476.557,418.265l-42.283-42.283l11.409-11.409l30.874,30.874V418.265z M476.557,373.944l-20.123-20.123l20.123-20.123
	L476.557,373.944L476.557,373.944z M476.557,312.196l-30.874,30.874l-11.409-11.409l42.283-42.284V312.196z M476.557,267.876
	l-53.034,53.034l-50.379-50.379l19.171-19.171h84.243L476.557,267.876L476.557,267.876z M496.801,230.872
	c0,2.837-2.239,5.158-5.046,5.279c-0.081,0.01-0.162,0.01-0.243,0.01h-14.956c-44.718,0-346.613,0-387.31,0
	c-4.205,0-7.599,3.405-7.599,7.599c0,4.195,3.394,7.599,7.599,7.599h32.323l19.171,19.171L90.36,320.91l-53.034-53.034V251.36
	h21.522c4.195,0,7.599-3.405,7.599-7.599c0-4.195-3.405-7.599-7.599-7.599c-5.009,0-34.251,0-38.311,0
	c-2.918,0-5.289-2.371-5.289-5.289c0-8.455,0-25.362,0-47.492c0-2.959,2.401-5.36,5.36-5.36c13.508,0,466.333,0,470.833,0
	c2.959,0,5.36,2.401,5.36,5.36C496.801,205.51,496.801,222.451,496.801,230.872z"/>
<g>
</g>
<g>
</g>
<g>
</g>
<g>
</g>
<g>
</g>
<g>
</g>
<g>
</g>
<g>
</g>
<g>
</g>
<g>
</g>
<g>
</g>
<g>
</g>
<g>
</g>
<g>
</g>
<g>
</g>
</svg>
