<?xml version="1.0" encoding="iso-8859-1"?>
<!-- Generator: Adobe Illustrator 19.0.0, SVG Export Plug-In . SVG Version: 6.00 Build 0)  -->
<svg version="1.1" id="Layer_1" xmlns="http://www.w3.org/2000/svg" xmlns:xlink="http://www.w3.org/1999/xlink" x="0px" y="0px"
	 viewBox="0 0 512 512" style="enable-background:new 0 0 512 512;" xml:space="preserve">
<path style="fill:#FFCC3D;" d="M258.495,8.192C363.792,9.902,470.539,120.2,470.539,256S363.792,502.098,258.495,503.808
	c-0.828,0.011-1.667,0.022-2.495,0.022c-0.828,0-1.667-0.011-2.495-0.022C148.208,502.098,41.461,391.8,41.461,256
	S148.208,9.902,253.505,8.192c0.828-0.011,1.667-0.022,2.495-0.022C256.828,8.17,257.667,8.181,258.495,8.192z"/>
<g>
	<path style="fill:#FFBB02;" d="M355.219,191.001c-17.19,0-31.174,13.984-31.174,31.174h62.349
		C386.393,204.986,372.408,191.001,355.219,191.001z"/>
	<path style="fill:#FFBB02;" d="M155.692,191.001c-17.19,0-31.174,13.984-31.174,31.174h62.349
		C186.866,204.986,172.881,191.001,155.692,191.001z"/>
	<path style="fill:#FFBB02;" d="M258.495,8.192C394.218,9.521,503.83,119.961,503.83,256S394.218,502.479,258.495,503.808
		C363.792,502.098,448.752,391.8,448.752,256S363.792,9.902,258.495,8.192z"/>
</g>
<path style="fill:#FFDD77;" d="M253.505,8.192C148.208,9.902,63.248,120.2,63.248,256s84.959,246.098,190.257,247.808
	C117.782,502.479,8.17,392.039,8.17,256S117.782,9.521,253.505,8.192z"/>
<g>
	<circle style="fill:#FF7A2F;" cx="84.97" cy="275.227" r="19.064"/>
	<circle style="fill:#FF7A2F;" cx="427.03" cy="275.227" r="19.064"/>
</g>
<g>
	<path style="fill:#1D2328;" d="M256,512c-68.38,0-132.668-26.628-181.019-74.981C26.629,388.668,0,324.38,0,256
		S26.629,123.332,74.981,74.981C123.333,26.628,187.62,0,256,0s132.668,26.628,181.019,74.981C485.371,123.332,512,187.62,512,256
		s-26.628,132.668-74.98,181.019C388.668,485.372,324.38,512,256,512z M256,16.34C123.852,16.34,16.34,123.851,16.34,256
		S123.851,495.66,256,495.66c132.148,0,239.66-107.51,239.66-239.66S388.148,16.34,256,16.34z"/>
	<path style="fill:#1D2328;" d="M256.001,384.07c-42.92,0-82.949-21.305-107.078-56.99c-2.527-3.739-1.546-8.817,2.192-11.345
		c3.739-2.527,8.818-1.545,11.345,2.192c21.085,31.184,56.054,49.802,93.541,49.802c37.486,0,72.455-18.617,93.539-49.8
		c2.526-3.738,7.605-4.719,11.345-2.192c3.739,2.527,4.719,7.606,2.192,11.345C338.948,362.765,298.92,384.07,256.001,384.07z"/>
	<path style="fill:#1D2328;" d="M388.989,230.346c-4.513,0-8.17-3.658-8.17-8.17c0-13.516-10.996-24.511-24.511-24.511
		c-13.515,0-24.511,10.995-24.511,24.511c0,4.512-3.657,8.17-8.17,8.17c-4.513,0-8.17-3.658-8.17-8.17
		c0-22.526,18.325-40.851,40.851-40.851c22.526,0,40.851,18.325,40.851,40.851C397.159,226.687,393.501,230.346,388.989,230.346z"/>
	<path style="fill:#1D2328;" d="M188.372,230.346c-4.512,0-8.17-3.658-8.17-8.17c0-13.516-10.995-24.511-24.511-24.511
		c-13.516,0-24.511,10.995-24.511,24.511c0,4.512-3.658,8.17-8.17,8.17c-4.512,0-8.17-3.658-8.17-8.17
		c0-22.526,18.325-40.851,40.851-40.851c22.526,0,40.851,18.325,40.851,40.851C196.543,226.687,192.885,230.346,188.372,230.346z"/>
	<path style="fill:#1D2328;" d="M272.34,416.751H239.66c-4.512,0-8.17-3.658-8.17-8.17c0-4.512,3.658-8.17,8.17-8.17h32.681
		c4.513,0,8.17,3.658,8.17,8.17C280.511,413.092,276.853,416.751,272.34,416.751z"/>
	<path style="fill:#1D2328;" d="M84.97,302.466c-15.017,0-27.234-12.217-27.234-27.234s12.217-27.234,27.234-27.234
		c4.512,0,8.17,3.658,8.17,8.17c0,4.512-3.658,8.17-8.17,8.17c-6.007,0-10.894,4.887-10.894,10.894s4.887,10.894,10.894,10.894
		c6.007,0,10.894-4.887,10.894-10.894c0-4.512,3.658-8.17,8.17-8.17c4.512,0,8.17,3.658,8.17,8.17
		C112.204,290.25,99.987,302.466,84.97,302.466z"/>
	<path style="fill:#1D2328;" d="M427.03,302.466c-15.017,0-27.234-12.217-27.234-27.234s12.217-27.234,27.234-27.234
		c4.513,0,8.17,3.658,8.17,8.17c0,4.512-3.657,8.17-8.17,8.17c-6.007,0-10.894,4.887-10.894,10.894s4.887,10.894,10.894,10.894
		c6.007,0,10.894-4.887,10.894-10.894c0-4.512,3.657-8.17,8.17-8.17c4.513,0,8.17,3.658,8.17,8.17
		C454.264,290.25,442.047,302.466,427.03,302.466z"/>
</g>
<g>
</g>
<g>
</g>
<g>
</g>
<g>
</g>
<g>
</g>
<g>
</g>
<g>
</g>
<g>
</g>
<g>
</g>
<g>
</g>
<g>
</g>
<g>
</g>
<g>
</g>
<g>
</g>
<g>
</g>
</svg>
