<?xml version="1.0"?>
<svg xmlns="http://www.w3.org/2000/svg" xmlns:xlink="http://www.w3.org/1999/xlink" xmlns:svgjs="http://svgjs.com/svgjs" version="1.1" width="512" height="512" x="0" y="0" viewBox="0 0 512.014 512.014" style="enable-background:new 0 0 512 512" xml:space="preserve" class=""><g><g xmlns="http://www.w3.org/2000/svg"><path d="m321.168 165.285-8.01-46.71 33.93-33.07c9.472-9.254 4.246-25.398-8.87-27.29l-46.89-6.82-20.97-42.49c-5.872-11.876-22.829-11.872-28.7 0l-20.97 42.49-46.89 6.82c-13.106 1.891-18.35 18.027-8.87 27.29l33.93 33.07-8.01 46.71c-2.238 13.035 11.517 23.026 23.22 16.86l41.94-22.05 41.94 22.05c11.701 6.151 25.457-3.829 23.22-16.86z" fill="#f9ff30" data-original="#000000" style="" class=""/><path d="m137.858 310.145c11.738 6.17 25.454-3.843 23.22-16.86l-8.01-46.71 33.93-33.07c9.472-9.254 4.246-25.398-8.87-27.29l-46.89-6.82-20.97-42.49c-5.873-11.876-22.829-11.872-28.7 0l-20.97 42.49-46.89 6.82c-13.072 1.886-18.369 18.009-8.87 27.29l33.93 33.07-8.01 46.71c-2.238 13.035 11.517 23.026 23.22 16.86l41.94-22.05z" fill="#f9ff30" data-original="#000000" style="" class=""/><path d="m498.308 186.215-46.89-6.82-20.97-42.49c-5.873-11.876-22.829-11.872-28.7 0l-20.97 42.49-46.89 6.82c-13.106 1.891-18.35 18.027-8.87 27.29l33.93 33.07-8.01 46.71c-2.236 13.026 11.506 23.032 23.22 16.86l41.94-22.05 41.94 22.05c11.701 6.151 25.457-3.829 23.22-16.86l-8.01-46.71 33.93-33.07c9.486-9.268 4.219-25.401-8.87-27.29z" fill="#f9ff30" data-original="#000000" style="" class=""/><path d="m234.218 386.215-46.89-6.82-20.97-42.49c-5.873-11.876-22.829-11.872-28.7 0l-20.97 42.49-46.89 6.82c-13.106 1.891-18.35 18.027-8.87 27.29l33.93 33.07-8.01 46.71c-2.238 13.035 11.517 23.026 23.22 16.86l41.94-22.05 41.94 22.05c11.734 6.168 25.455-3.84 23.22-16.86l-8.01-46.71 33.93-33.07c9.471-9.254 4.246-25.397-8.87-27.29z" fill="#f9ff30" data-original="#000000" style="" class=""/><path d="m442.218 386.215-46.89-6.82-20.97-42.49c-5.872-11.876-22.829-11.872-28.7 0l-20.97 42.49-46.89 6.82c-13.106 1.891-18.35 18.027-8.87 27.29l33.93 33.07-8.01 46.71c-2.238 13.035 11.517 23.026 23.22 16.86l41.94-22.05 41.94 22.05c11.734 6.168 25.455-3.84 23.22-16.86l-8.01-46.71 33.93-33.07c9.472-9.254 4.246-25.397-8.87-27.29z" fill="#f9ff30" data-original="#000000" style="" class=""/></g></g></svg>
