<?xml version="1.0" encoding="iso-8859-1"?>
<!-- Generator: Adobe Illustrator 19.0.0, SVG Export Plug-In . SVG Version: 6.00 Build 0)  -->
<svg version="1.1" id="Capa_1" xmlns="http://www.w3.org/2000/svg" xmlns:xlink="http://www.w3.org/1999/xlink" x="0px" y="0px"
	 viewBox="0 0 512 512" style="enable-background:new 0 0 512 512;" xml:space="preserve">
<path style="fill:#C86D5C;" d="M350.525,504.5L350.525,504.5c-16.452-14.301-25.898-35.03-25.898-56.828V323.79H187.374v123.882
	c0,21.799-9.447,42.527-25.898,56.828l0,0H350.525z"/>
<path style="fill:#B24D40;" d="M207.374,447.672V323.79h-20v123.882c0,21.798-9.447,42.527-25.898,56.828h20
	C197.927,490.199,207.374,469.47,207.374,447.672z"/>
<path style="fill:#00AE95;" d="M101.562,210.954L101.562,210.954L101.562,210.954c-40.339,20.16-17.158,81.283,26.405,69.623l0,0
	l0,0c-26.35,36.597,22.581,79.946,55.735,49.377l0,0l0,0c-6.324,44.651,57.148,60.295,72.298,17.82l0,0l0,0
	c15.15,42.475,78.622,26.831,72.298-17.82l0,0l0,0c33.154,30.569,82.085-12.78,55.735-49.377l0,0l0,0
	c43.563,11.66,66.744-49.463,26.405-69.623l0,0l0,0c43.991-9.92,36.112-74.815-8.975-73.919l0,0l0,0
	c34.342-29.228-2.793-83.027-42.299-61.281l0,0l0,0c16.826-41.84-41.058-72.219-65.933-34.604l0,0l0,0
	c-4.545-44.866-69.917-44.866-74.462,0l0,0l0,0c-24.875-37.615-82.759-7.235-65.933,34.604l0,0l0,0
	c-39.506-21.747-76.641,32.053-42.299,61.281l0,0l0,0C65.45,136.139,57.57,201.034,101.562,210.954z"/>
<ellipse style="fill:#FF5E6B;" cx="191.64" cy="120.31" rx="31.33" ry="28.593"/>
<path style="fill:#E63E4C;" d="M201.642,138.9c-17.301,0-31.326-12.802-31.326-28.593c0-4.976,1.395-9.654,3.844-13.729
	c-8.351,5.136-13.844,13.846-13.844,23.729c0,15.792,14.025,28.593,31.326,28.593c11.85,0,22.16-6.007,27.483-14.865
	C214.131,137.106,208.116,138.9,201.642,138.9z"/>
<ellipse style="fill:#FF5E6B;" cx="182.63" cy="265.88" rx="31.33" ry="28.593"/>
<path style="fill:#E63E4C;" d="M192.628,284.478c-17.301,0-31.326-12.802-31.326-28.593c0-4.976,1.395-9.654,3.844-13.729
	c-8.351,5.136-13.844,13.847-13.844,23.729c0,15.792,14.025,28.593,31.326,28.593c11.85,0,22.16-6.006,27.483-14.865
	C205.118,282.685,199.103,284.478,192.628,284.478z"/>
<ellipse style="fill:#FF5E6B;" cx="320.36" cy="120.31" rx="31.33" ry="28.593"/>
<path style="fill:#E63E4C;" d="M330.359,138.9c-17.301,0-31.326-12.802-31.326-28.593c0-4.976,1.395-9.654,3.844-13.729
	c-8.351,5.136-13.844,13.846-13.844,23.729c0,15.792,14.025,28.593,31.326,28.593c11.85,0,22.16-6.007,27.483-14.865
	C342.848,137.106,336.833,138.9,330.359,138.9z"/>
<ellipse style="fill:#FF5E6B;" cx="329.37" cy="265.88" rx="31.33" ry="28.593"/>
<path style="fill:#E63E4C;" d="M339.372,284.478c-17.301,0-31.326-12.802-31.326-28.593c0-4.976,1.395-9.654,3.844-13.729
	c-8.351,5.136-13.844,13.847-13.844,23.729c0,15.792,14.025,28.593,31.326,28.593c11.85,0,22.16-6.006,27.483-14.865
	C351.861,282.685,345.846,284.478,339.372,284.478z"/>
<ellipse style="fill:#FF5E6B;" cx="256" cy="198.43" rx="31.33" ry="28.593"/>
<path style="fill:#E63E4C;" d="M266,217.021c-17.301,0-31.326-12.802-31.326-28.593c0-4.976,1.395-9.654,3.844-13.729
	c-8.351,5.136-13.844,13.847-13.844,23.729c0,15.792,14.025,28.593,31.326,28.593c11.85,0,22.16-6.007,27.483-14.865
	C278.489,215.228,272.474,217.021,266,217.021z"/>
<path d="M191.644,156.399c21.409,0,38.826-16.191,38.826-36.093c0-16.695-12.26-30.775-28.849-34.879
	c0.951-1.93,2.125-3.585,3.534-4.932c2.993-2.863,3.098-7.611,0.234-10.604c-2.864-2.993-7.612-3.098-10.604-0.234
	c-4.104,3.927-7.083,8.946-8.911,14.957c-18.682,2.599-33.057,17.613-33.057,35.692
	C152.817,140.208,170.235,156.399,191.644,156.399z M191.644,99.213c13.138,0,23.826,9.462,23.826,21.093
	s-10.688,21.093-23.826,21.093s-23.827-9.462-23.827-21.093C167.817,108.676,178.506,99.213,191.644,99.213z"/>
<path d="M192.607,231.006c0.951-1.93,2.125-3.585,3.534-4.932c2.993-2.864,3.098-7.611,0.234-10.604
	c-2.864-2.993-7.612-3.097-10.604-0.234c-4.104,3.927-7.082,8.947-8.911,14.957c-18.682,2.599-33.056,17.613-33.056,35.693
	c0,19.902,17.417,36.093,38.826,36.093s38.826-16.191,38.826-36.093C221.456,249.189,209.197,235.11,192.607,231.006z
	 M182.63,286.979c-13.138,0-23.826-9.462-23.826-21.093s10.688-21.093,23.826-21.093s23.826,9.462,23.826,21.093
	C206.456,277.517,195.768,286.979,182.63,286.979z"/>
<path d="M320.361,156.399c21.409,0,38.826-16.191,38.826-36.093c0-18.079-14.375-33.093-33.057-35.692
	c-1.828-6.011-4.807-11.031-8.911-14.957c-2.992-2.864-7.74-2.759-10.604,0.234s-2.759,7.741,0.234,10.604
	c1.408,1.347,2.582,3.003,3.533,4.932c-16.589,4.104-28.849,18.184-28.849,34.879C281.534,140.208,298.951,156.399,320.361,156.399z
	 M320.361,99.213c13.138,0,23.826,9.462,23.826,21.093s-10.688,21.093-23.826,21.093s-23.827-9.462-23.827-21.093
	C296.534,108.676,307.222,99.213,320.361,99.213z"/>
<path d="M335.144,230.193c-1.829-6.011-4.807-11.03-8.911-14.957c-2.992-2.864-7.74-2.759-10.604,0.234s-2.759,7.74,0.233,10.604
	c1.409,1.348,2.583,3.003,3.534,4.932c-16.589,4.105-28.85,18.184-28.85,34.88c0,19.902,17.418,36.093,38.827,36.093
	s38.827-16.191,38.827-36.093C368.2,247.806,353.825,232.792,335.144,230.193z M329.374,286.979
	c-13.138,0-23.827-9.462-23.827-21.093s10.688-21.093,23.827-21.093s23.827,9.462,23.827,21.093
	C353.201,277.517,342.512,286.979,329.374,286.979z"/>
<path d="M265.979,163.548c0.952-1.93,2.126-3.585,3.534-4.932c2.993-2.864,3.098-7.611,0.234-10.604s-7.611-3.098-10.604-0.234
	c-4.104,3.927-7.083,8.947-8.911,14.957c-18.682,2.599-33.057,17.613-33.057,35.693c0,19.902,17.417,36.093,38.827,36.093
	c21.409,0,38.826-16.191,38.826-36.093C294.828,181.732,282.568,167.653,265.979,163.548z M256.002,219.521
	c-13.138,0-23.827-9.462-23.827-21.093s10.688-21.093,23.827-21.093c13.138,0,23.826,9.462,23.826,21.093
	S269.14,219.521,256.002,219.521z"/>
<path d="M223.994,420.204v-7.15c0-4.142-3.358-7.5-7.5-7.5c-4.143,0-7.5,3.358-7.5,7.5v7.15c0,4.142,3.357,7.5,7.5,7.5
	C220.636,427.704,223.994,424.346,223.994,420.204z"/>
<path d="M303.01,420.204v-7.15c0-4.142-3.358-7.5-7.5-7.5s-7.5,3.358-7.5,7.5v7.15c0,4.142,3.358,7.5,7.5,7.5
	S303.01,424.346,303.01,420.204z"/>
<path d="M256.002,431.52c5.964,0,11.576-2.507,15.397-6.878c2.727-3.118,2.408-7.856-0.71-10.583
	c-3.119-2.727-7.857-2.408-10.583,0.71c-0.973,1.112-2.469,1.75-4.104,1.75c-1.637,0-3.132-0.638-4.104-1.75
	c-2.726-3.119-7.464-3.437-10.583-0.711c-3.118,2.726-3.437,7.464-0.71,10.583C244.425,429.013,250.037,431.52,256.002,431.52z"/>
<path d="M446.856,169.513c-1.754-15.748-11.99-32.478-30.695-38.054c7.002-11.23,8.4-24.607,3.554-37.78
	c-6.706-18.226-23.554-30.471-41.925-30.471c-2.748,0-5.487,0.267-8.206,0.796c0.702-9.523-1.722-18.735-7.199-26.842
	c-8.58-12.698-23.438-20.586-38.778-20.586c-9.952,0-19.059,3.237-26.607,9.311C289.296,8.197,271.75,0,256.002,0
	c-15.749,0-33.294,8.197-40.997,25.886c-7.548-6.074-16.655-9.311-26.607-9.311c-15.341,0-30.2,7.888-38.78,20.584
	c-5.478,8.107-7.9,17.32-7.198,26.844c-2.719-0.53-5.458-0.796-8.206-0.796c-18.372,0-35.221,12.245-41.926,30.469
	c-4.847,13.173-3.448,26.551,3.555,37.781c-18.707,5.577-28.945,22.306-30.698,38.053c-1.722,15.463,4.391,33.666,20.868,43.359
	C75.2,223.468,70.73,238.583,74.446,254.332c4.716,19.987,21.236,34.163,40.604,35.154c-3.526,10.809-2.66,22.223,2.731,32.748
	c7.957,15.534,23.988,25.572,40.842,25.572c6.179,0,12.183-1.351,17.813-3.971c0.661,3.847,1.814,7.535,3.438,10.995v40.352
	c0,4.142,3.358,7.5,7.5,7.5s7.5-3.358,7.5-7.5v-23.066c10.014,6.724,22.553,9.466,34.451,7.425
	c10.821-1.866,20.106-7.543,26.676-16.126c6.569,8.581,15.851,14.258,26.669,16.125c11.864,2.047,24.471-0.718,34.458-7.422v75.553
	c0,17.929,5.803,35.186,16.295,49.329H178.58c10.492-14.143,16.295-31.399,16.295-49.329v-22.725c0-4.142-3.358-7.5-7.5-7.5
	s-7.5,3.358-7.5,7.5v22.725c0,19.636-8.499,38.286-23.319,51.168c-2.362,2.053-3.201,5.356-2.105,8.287
	c1.096,2.931,3.896,4.874,7.025,4.874h189.05c3.129,0,5.929-1.942,7.025-4.874c1.096-2.931,0.257-6.234-2.104-8.287
	c-14.819-12.883-23.319-31.533-23.319-51.168v-92.839c1.625-3.46,2.777-7.148,3.439-10.997c5.63,2.621,11.635,3.971,17.813,3.971
	c16.855,0,32.887-10.037,40.844-25.571c5.392-10.525,6.258-21.938,2.73-32.749c19.37-0.992,35.891-15.167,40.606-35.153
	c3.717-15.75-0.753-30.865-11.569-41.465C442.467,203.177,448.577,184.976,446.856,169.513z M408.79,203.638
	c-6.713,1.515-7.875,10.941-1.703,14.025c15.64,7.816,18.456,22.289,15.875,33.226c-2.778,11.774-12.57,23.654-28.183,23.654
	c-2.84,0-5.802-0.407-8.803-1.211c-6.664-1.784-12.058,6.029-8.027,11.627c9.413,13.074,5.873,24.683,2.924,30.438
	c-5.334,10.413-16.383,17.409-27.494,17.409c-7.145,0-14.059-2.893-19.995-8.366c-5.094-4.697-13.478-0.262-12.511,6.565
	c0.972,6.865-0.01,13.163-2.847,18.526c-0.006,0.012-0.015,0.021-0.021,0.033c-5.266,9.824-16.319,15.604-27.378,15.649
	c-0.03,0-0.061,0.002-0.104,0.002c-11.547-0.033-21.996-7.104-26.558-17.69c-0.031-0.072-0.063-0.143-0.094-0.216
	c-1.524-3.617-3.352-7.036-7.871-7.036c-4.52,0-6.336,3.435-7.873,7.042c-0.029,0.069-0.059,0.135-0.088,0.203
	c-4.617,10.733-14.842,17.697-26.574,17.697c-0.048,0-0.097-0.004-0.145-0.004c-11.09-0.027-21.84-5.926-27.323-15.647
	c-0.005-0.01-0.012-0.017-0.018-0.027c-2.839-5.364-3.823-11.664-2.851-18.531c0.968-6.838-7.425-11.255-12.51-6.568
	c-6.021,5.552-12.749,8.367-19.996,8.367c-11.109,0-22.157-6.997-27.492-17.41c-2.949-5.756-6.49-17.364,2.922-30.436
	c4.038-5.609-1.359-13.41-8.025-11.629c-3.001,0.804-5.963,1.211-8.804,1.211c-15.611,0-25.402-11.881-28.181-23.655
	c-2.581-10.938,0.233-25.409,15.871-33.225c6.185-3.091,5.024-12.509-1.702-14.026c-18.043-4.069-24.634-19.238-23.161-32.467
	c1.477-13.263,11.191-26.645,29.564-26.645c0.259,0,0.521,0.003,0.783,0.007c6.894,0.115,10.269-8.726,5-13.21
	c-14.42-12.273-11.122-26.794-9.035-32.467c4.544-12.351,15.736-20.649,27.849-20.649c4.994,0,10.043,1.385,15.005,4.116
	c5.992,3.298,13.141-2.993,10.577-9.368c-5.015-12.47-1.544-21.782,2.251-27.398c5.739-8.494,16.083-13.982,26.351-13.982
	c6.865,0,16.621,2.379,24.116,13.711c3.8,5.745,13.025,3.472,13.718-3.38C228.115,23.32,242.541,15,256.002,15
	s27.885,8.319,29.769,26.905c0.697,6.876,9.908,9.144,13.718,3.383c7.495-11.333,17.251-13.712,24.117-13.712
	c10.267,0,20.609,5.489,26.35,13.984c3.795,5.616,7.266,14.928,2.253,27.395c-2.572,6.396,4.53,12.697,10.574,9.371
	c4.963-2.732,10.012-4.117,15.007-4.117c12.112,0,23.303,8.299,27.848,20.65c2.087,5.674,5.386,20.194-9.032,32.466
	c-5.288,4.501-1.877,13.311,5.009,13.211c18.851-0.399,28.836,13.189,30.333,26.639C433.421,184.401,426.832,199.569,408.79,203.638
	z"/>
<g>
</g>
<g>
</g>
<g>
</g>
<g>
</g>
<g>
</g>
<g>
</g>
<g>
</g>
<g>
</g>
<g>
</g>
<g>
</g>
<g>
</g>
<g>
</g>
<g>
</g>
<g>
</g>
<g>
</g>
</svg>
