<svg viewBox="1 1 511.99998 511.99998" xmlns="http://www.w3.org/2000/svg"><path d="m512 256c0 141.386719-114.613281 256-256 256s-256-114.613281-256-256 114.613281-256 256-256 256 114.613281 256 256zm0 0" fill="#f7d65e"/><path d="m228.535156 20.742188 77.886719 1.644531-6.34375 300.5625-77.886719-1.644531zm0 0" fill="#e6e6e6"/><path d="m228.535156 20.742188 25.878906.546874-6.34375 300.5625-25.878906-.546874zm0 0" fill="#ccc"/><path d="m367.859375 34.238281 76.730469 13.4375-61.714844 352.40625-76.730469-13.4375zm0 0" fill="#e6e6e6"/><path d="m367.859375 34.238281 25.496094 4.464844-61.714844 352.40625-25.496094-4.464844zm0 0" fill="#ccc"/><path d="m286.199219 99.738281 77.378906 9.03125-41.464844 355.375-77.378906-9.027343zm0 0" fill="#e6e6e6"/><path d="m286.199219 99.742188 25.710937 3-41.464844 355.375-25.710937-3zm0 0" fill="#ccc"/><path d="m58.628906 25.804688 76.40625-15.199219 69.800782 350.90625-76.40625 15.199219zm0 0" fill="#e6e6e6"/><path d="m58.628906 25.804688 25.386719-5.050782 69.800781 350.90625-25.386718 5.050782zm0 0" fill="#ccc"/><path d="m141.691406 189.332031 76.402344-15.199219 58.652344 294.851563-76.40625 15.199219zm0 0" fill="#e6e6e6"/><path d="m141.691406 189.332031 25.386719-5.050781 58.648437 294.851562-25.386718 5.050782zm0 0" fill="#ccc"/><path d="m417.636719 299.59375-3.65625 30.875-16.433594 138.878906c-40.542969 26.945313-89.203125 42.652344-141.542969 42.652344-17.355468 0-34.304687-1.726562-50.6875-5.027344-33.03125-6.625-63.761718-19.613281-90.867187-37.636718l-16.433594-138.867188-3.660156-30.875zm0 0" fill="#5cbf96"/><g fill="#529e5f"><path d="m205.316406 506.972656c-33.03125-6.625-63.761718-19.613281-90.867187-37.636718l-20.09375-169.742188h91.242187zm0 0"/><path d="m433.3125 299.59375c0 8.648438-7.023438 15.671875-15.675781 15.671875h-323.28125c-8.648438 0-15.671875-7.023437-15.671875-15.671875 0-8.652344 7.023437-15.675781 15.671875-15.675781h323.28125c8.652343 0 15.675781 7.023437 15.675781 15.675781zm0 0"/><path d="m417.636719 299.59375-3.65625 30.875h-315.964844l-3.660156-30.875zm0 0"/></g><path d="m433.3125 299.59375c0 8.648438-7.023438 15.671875-15.675781 15.671875h-245.957031c-8.652344 0-15.671876-7.023437-15.671876-15.671875 0-8.652344 7.019532-15.675781 15.671876-15.675781h245.957031c8.652343 0 15.675781 7.023437 15.675781 15.675781zm0 0" fill="#5cbf96"/></svg>