<svg height="512pt" viewBox="0 -27 512 511" width="512pt" xmlns="http://www.w3.org/2000/svg"><g fill="#eda1ab"><path d="m67.738281 315.441406c0 18.707032-15.164062 33.871094-33.867187 33.871094-18.707032 0-33.871094-15.164062-33.871094-33.871094 0-18.707031 15.164062-33.871094 33.871094-33.871094 18.703125 0 33.867187 15.164063 33.867187 33.871094zm0 0"/><path d="m237.480469 413.53125c0 18.703125-15.164063 33.871094-33.867188 33.871094-18.707031 0-33.871093-15.167969-33.871093-33.871094 0-18.707031 15.164062-33.871094 33.871093-33.871094 18.703125 0 33.867188 15.164063 33.867188 33.871094zm0 0"/><path d="m342.257812 413.53125c0 18.703125-15.164062 33.871094-33.871093 33.871094-18.703125 0-33.867188-15.167969-33.867188-33.871094 0-18.707031 15.164063-33.871094 33.867188-33.871094 18.707031 0 33.871093 15.164063 33.871093 33.871094zm0 0"/></g><path d="m134.324219 334.953125c0 18.707031-15.164063 33.871094-33.871094 33.871094s-33.871094-15.164063-33.871094-33.871094 15.164063-33.871094 33.871094-33.871094 33.871094 15.164063 33.871094 33.871094zm0 0" fill="#e26e7e"/><path d="m512 315.441406c0 18.707032-15.164062 33.871094-33.871094 33.871094-18.703125 0-33.867187-15.164062-33.867187-33.871094 0-18.707031 15.164062-33.871094 33.867187-33.871094 18.707032 0 33.871094 15.164063 33.871094 33.871094zm0 0" fill="#eda1ab"/><path d="m445.417969 334.953125c0 18.707031-15.164063 33.871094-33.871094 33.871094s-33.871094-15.164063-33.871094-33.871094 15.164063-33.871094 33.871094-33.871094 33.871094 15.164063 33.871094 33.871094zm0 0" fill="#e26e7e"/><path d="m494.886719 256.558594c-13.667969-13.207032-35.464844-12.382813-49.078125.882812-9.160156 8.925782-21.222656 13.832032-34.039063 13.832032-10.070312 0-19.4375-3.066407-27.21875-8.316407-14.351562-9.683593-18.007812-29.207031-8.679687-43.792969 14.21875-22.230468 22.421875-48.679687 22.3125-77.054687-.304688-77.132813-62.941406-140.472656-140.066406-141.59375-79.496094-1.15625-144.300782 62.9375-144.300782 142.167969 0 28.195312 8.210938 54.472656 22.371094 76.574218 9.316406 14.542969 5.578125 34.039063-8.738281 43.699219-7.78125 5.25-17.148438 8.316407-27.21875 8.316407-12.816407 0-24.878907-4.90625-34.039063-13.832032-13.613281-13.265625-35.414062-14.089844-49.078125-.882812-13.972656 13.507812-14.117187 35.785156-.429687 49.46875 22.316406 22.316406 51.988281 34.605468 83.546875 34.605468 33.015625 0 62.910156-13.621093 84.371093-35.53125-5.988281 30.832032-19.050781 63.59375-47.558593 94.660157-12.949219 14.113281-12.007813 36.050781 2.105469 49 6.660156 6.109375 15.058593 9.125 23.4375 9.125 9.375 0 18.722656-3.777344 25.5625-11.230469 37.636718-41.019531 55.289062-84.300781 63.566406-123.503906.980468-4.648438 7.589844-4.648438 8.570312 0 8.277344 39.203125 25.925782 82.484375 63.566406 123.503906 6.839844 7.453125 16.1875 11.230469 25.5625 11.230469 8.378907 0 16.777344-3.015625 23.4375-9.125 14.109376-12.949219 15.054688-34.886719 2.101563-49-28.507813-31.066407-41.566406-63.828125-47.554687-94.660157 21.460937 21.910157 51.351562 35.53125 84.371093 35.53125 31.558594 0 61.230469-12.289062 83.546875-34.605468 13.683594-13.683594 13.542969-35.960938-.429687-49.46875zm0 0" fill="#b49cdc"/><path d="m494.886719 256.558594c-13.667969-13.207032-35.464844-12.382813-49.078125.882812-9.160156 8.925782-21.222656 13.832032-34.039063 13.832032-10.070312 0-19.4375-3.066407-27.21875-8.316407-14.351562-9.683593-18.007812-29.207031-8.679687-43.792969 14.21875-22.230468 22.421875-48.679687 22.3125-77.054687-.304688-77.132813-62.941406-140.472656-140.066406-141.59375-79.496094-1.15625-144.300782 62.9375-144.300782 142.167969 0 28.195312 8.210938 54.472656 22.371094 76.574218 9.316406 14.542969 5.578125 34.039063-8.738281 43.699219-7.78125 5.25-17.148438 8.316407-27.21875 8.316407-12.816407 0-24.878907-4.90625-34.039063-13.832032-13.613281-13.265625-35.414062-14.089844-49.078125-.882812-13.972656 13.507812-14.117187 35.785156-.429687 49.46875 22.316406 22.316406 51.988281 34.605468 83.546875 34.605468 33.015625 0 62.910156-13.621093 84.371093-35.53125-5.988281 30.832032-19.050781 63.59375-47.558593 94.660157-12.949219 14.113281-12.007813 36.050781 2.105469 49 6.660156 6.109375 15.058593 9.125 23.4375 9.125 9.375 0 18.722656-3.777344 25.5625-11.230469 37.636718-41.019531 55.289062-84.300781 63.566406-123.503906.980468-4.648438 7.589844-4.648438 8.570312 0 8.277344 39.203125 25.925782 82.484375 63.566406 123.503906 6.839844 7.453125 16.1875 11.230469 25.5625 11.230469 8.378907 0 16.777344-3.015625 23.4375-9.125 14.109376-12.949219 15.054688-34.886719 2.101563-49-28.507813-31.066407-41.566406-63.828125-47.554687-94.660157 21.460937 21.910157 51.351562 35.53125 84.371093 35.53125 31.558594 0 61.230469-12.289062 83.546875-34.605468 13.683594-13.683594 13.542969-35.960938-.429687-49.46875zm0 0" fill="#b49cdc"/><path d="m207.683594 8.929688c-54.738282 19.777343-93.867188 72.195312-93.867188 133.753906 0 28.195312 8.210938 54.472656 22.371094 76.574218 9.316406 14.542969 5.578125 34.039063-8.738281 43.699219-7.78125 5.25-17.148438 8.316407-27.21875 8.316407-12.816407 0-24.878907-4.90625-34.039063-13.832032-13.613281-13.265625-35.414062-14.089844-49.078125-.882812-13.972656 13.507812-14.117187 35.785156-.429687 49.46875 22.316406 22.316406 51.988281 34.605468 83.546875 34.605468 33.015625 0 62.910156-13.621093 84.371093-35.53125-5.988281 30.832032-19.050781 63.59375-47.558593 94.660157-12.949219 14.113281-12.007813 36.050781 2.105469 49 6.660156 6.109375 15.058593 9.125 23.4375 9.125 9.375 0 18.722656-3.777344 25.5625-11.230469 36.328124-39.59375 54.035156-81.289062 62.664062-119.398438-76.203125-63.140624-106.714844-259.460937-43.128906-318.328124zm0 0" fill="#908cd6"/><path d="m359.769531 45.742188c-15.816406-16.917969-35.6875-30-58.035156-37.648438-8.730469 6.710938-14.359375 17.25-14.359375 29.109375 0 20.269531 16.429688 36.703125 36.703125 36.703125 17.328125 0 31.839844-12.011719 35.691406-28.164062zm0 0" fill="#908cd6"/><path d="m212.503906 64.640625c0 10.789063-8.746094 19.539063-19.539062 19.539063-10.792969 0-19.539063-8.75-19.539063-19.539063 0-10.792969 8.746094-19.542969 19.539063-19.542969 10.792968 0 19.539062 8.75 19.539062 19.542969zm0 0" fill="#908cd6"/><path d="m199.867188 169.742188c0-14.4375-14.691407-26.140626-32.820313-26.140626s-32.820313 11.703126-32.820313 26.140626c0 14.433593 14.691407 26.136718 32.820313 26.136718s32.820313-11.703125 32.820313-26.136718zm0 0" fill="#eda1ab"/><path d="m377.773438 169.742188c0-14.4375-14.691407-26.140626-32.820313-26.140626s-32.820313 11.703126-32.820313 26.140626c0 14.433593 14.691407 26.136718 32.820313 26.136718s32.820313-11.703125 32.820313-26.136718zm0 0" fill="#eda1ab"/><path d="m172.535156 146.378906c-4.144531 0-7.5-3.359375-7.5-7.5v-14.089844c0-4.140624 3.355469-7.5 7.5-7.5 4.140625 0 7.5 3.359376 7.5 7.5v14.089844c0 4.140625-3.359375 7.5-7.5 7.5zm0 0" fill="#4e5660"/><path d="m282.464844 149.660156c0-16.355468-11.851563-17.894531-26.464844-17.894531s-26.464844 1.539063-26.464844 17.894531c0 16.351563 11.851563 29.609375 26.464844 29.609375s26.464844-13.257812 26.464844-29.609375zm0 0" fill="#4e5660"/><path d="m339.464844 146.378906c-4.140625 0-7.5-3.359375-7.5-7.5v-14.089844c0-4.140624 3.359375-7.5 7.5-7.5 4.144531 0 7.5 3.359376 7.5 7.5v14.089844c0 4.140625-3.355469 7.5-7.5 7.5zm0 0" fill="#4e5660"/><path d="m458.585938 295.269531c-1.917969 0-3.835938-.734375-5.300782-2.195312-2.929687-2.929688-2.929687-7.679688 0-10.609375l6.117188-6.121094c2.933594-2.925781 7.679687-2.925781 10.609375 0 2.929687 2.929688 2.929687 7.679688 0 10.609375l-6.121094 6.121094c-1.464844 1.460937-3.382813 2.195312-5.304687 2.195312zm0 0" fill="#908cd6"/><path d="m170.699219 423.566406c-1.917969 0-3.839844-.734375-5.304688-2.199218-2.925781-2.929688-2.925781-7.675782 0-10.605469l6.761719-6.761719c2.929688-2.929688 7.679688-2.929688 10.609375 0s2.929687 7.679688 0 10.605469l-6.761719 6.761719c-1.464844 1.464843-3.386718 2.199218-5.304687 2.199218zm0 0" fill="#b49cdc"/></svg>