<svg id="Capa_1" enable-background="new 0 0 497 497" height="512" viewBox="0 0 497 497" width="512" xmlns="http://www.w3.org/2000/svg"><g><g><path d="m324.701 0c-42.073 0-76.18 34.107-76.18 76.18v10.275c0-25.244-20.464-45.708-45.708-45.708-7.893 0-14.292 6.399-14.292 14.292v1.121c0 25.244 20.464 45.708 45.708 45.708h14.292 23.82c42.073 0 76.18-34.107 76.18-76.18v-1.868c-.001-13.155-10.665-23.82-23.82-23.82z" fill="#00ce8e"/><path d="m289.226 61.163c-2.93-2.928-7.678-2.928-10.607 0l-30.099 30.099-15.46-15.461c-2.93-2.928-7.678-2.928-10.607 0-2.929 2.93-2.929 7.678 0 10.607l18.567 18.567v30.821h15v-30.821l33.205-33.205c2.93-2.929 2.93-7.677.001-10.607z" fill="#009d6b"/></g><path d="m266.211 128.256c-6.765 0-12.943 2.475-17.71 6.552-4.768-4.076-10.946-6.552-17.711-6.552-15.071 0-27.289 12.218-27.289 27.289s12.218 27.289 27.289 27.289h35.422c15.071 0 27.289-12.218 27.289-27.289s-12.219-27.289-27.29-27.289z" fill="#f9973e"/><g><path d="m292.863 161.379c-14.148-3.797-73.625-3.937-87.363-.373-73.475 19.063-127.728 85.829-127.728 165.267 0 94.29 76.438 170.727 170.728 170.727 15.346 0 30.215-2.037 44.363-5.834 72.779-19.532 126.365-85.95 126.365-164.894 0-78.943-53.586-145.361-126.365-164.893z" fill="#ffb357"/><path d="m203.416 326.359c-.128-66.608 33.561-128.741 89.447-164.98-14.148-3.797-29.017-5.834-44.363-5.834-94.29 0-170.728 76.437-170.728 170.728s76.438 170.727 170.728 170.727c15.346 0 30.215-2.037 44.363-5.834-56.024-36.025-89.319-98.199-89.447-164.807z" fill="#f9973e"/></g><g><g><g><ellipse cx="168.943" cy="284.36" fill="#ff8e9e" rx="29.355" ry="23.377"/></g><g><ellipse cx="328.057" cy="284.36" fill="#ff8e9e" rx="29.355" ry="23.377"/></g></g></g><g fill="#313d40"><path d="m186.051 242.356c-4.142 0-7.5 3.358-7.5 7.5v12c0 4.142 3.358 7.5 7.5 7.5s7.5-3.358 7.5-7.5v-12c0-4.142-3.358-7.5-7.5-7.5z"/><path d="m310.949 242.356c-4.142 0-7.5 3.358-7.5 7.5v12c0 4.142 3.358 7.5 7.5 7.5s7.5-3.358 7.5-7.5v-12c0-4.142-3.358-7.5-7.5-7.5z"/><path d="m269.892 255.846c-3.122-2.722-7.86-2.398-10.582.726-2.73 3.132-6.67 4.928-10.811 4.928s-8.081-1.796-10.811-4.928c-2.722-3.123-7.459-3.448-10.582-.726s-3.448 7.459-.726 10.582c5.579 6.401 13.641 10.073 22.118 10.073s16.539-3.671 22.118-10.073c2.724-3.123 2.399-7.861-.724-10.582z"/></g><g><circle cx="275.257" cy="400.772" fill="#f9973e" r="7.5"/><circle cx="345.257" cy="363.772" fill="#f9973e" r="7.5"/><circle cx="325.257" cy="423.772" fill="#f9973e" r="7.5"/><g fill="#f58133"><circle cx="214.257" cy="443.772" r="7.5"/><circle cx="154.257" cy="383.772" r="7.5"/><circle cx="194.257" cy="333.772" r="7.5"/><circle cx="124.257" cy="313.772" r="7.5"/></g><circle cx="374.257" cy="293.772" fill="#f9973e" r="7.5"/></g></g></svg>