<svg height="367pt" viewBox="-34 0 367 367.333" width="367pt" xmlns="http://www.w3.org/2000/svg"><path d="m129.023438 0c13.527343 0 27.109374.308594 40.566406 1.644531 19.25 1.199219 37.398437 9.390625 51.03125 23.03125 21.253906 21.640625 25.355468 49.738281 37.175781 75.617188 14.691406 32.078125 38.539063 57.832031 41.617187 93.648437 1.925782 33.730469-7.480468 67.140625-26.722656 94.914063-15.136718 22.746093-34.539062 42.34375-57.132812 57.707031-15.710938 10.757812-25.03125 20.4375-86.535156 20.4375zm0 0" fill="#4fba6f"/><path d="m152.5 14.175781c.378906-.445312.820312-.824219 1.203125-1.203125 2.128906-1.773437 4.546875-3.164062 7.148437-4.113281.886719-.316406 1.835938-.632813 2.847657-.886719 7.894531 4.34375 14.996093 9.992188 21.007812 16.703125 19.679688 21.640625 23.476563 49.738281 34.421875 75.617188 13.605469 32.078125 35.6875 57.832031 38.535156 93.648437 1.859376 33.441406-6.792968 66.632813-24.742187 94.914063-13.75 22.460937-31.710937 42.054687-52.898437 57.707031-14.394532 11.679688-31.960938 18.777344-50.429688 20.375-19.300781.757812-36.636719-9.367188-51.570312-20.375-21.183594-15.652344-39.148438-35.246094-52.898438-57.707031-17.949219-28.28125-26.601562-61.472657-24.742188-94.914063 2.847657-35.816406 24.929688-61.570312 38.535157-93.648437 10.949219-25.878907 14.746093-53.976563 34.421875-75.617188 6.011718-6.710937 13.117187-12.359375 21.007812-16.703125 1.015625.253906 1.964844.570313 2.847656.886719 2.605469.949219 5.023438 2.339844 7.152344 4.113281.378906.378906.820313.757813 1.203125 1.203125zm0 0" fill="#f9eab0"/><path d="m145.792969 28.980469c7.269531 2.960937 13.761719 7.550781 18.984375 13.414062 14.363281 15.820313 18.980468 37.460938 25.941406 56.886719 8.542969 23.855469 22.714844 44.863281 32.902344 67.894531 22.90625 51.761719-6.261719 110.671875-45.304688 146.359375-10.152344 9.300782-21.417968 17.3125-33.535156 23.855469l-.507812.25c-9.535157 5.0625-20.964844 5.0625-30.5 0l-.507813-.25c-12.117187-6.542969-23.382813-14.554687-33.535156-23.855469-39.042969-35.6875-68.210938-94.597656-45.304688-146.359375 10.1875-23.03125 24.359375-44.039062 32.902344-67.894531 6.960937-19.425781 11.578125-41.066406 25.941406-56.886719 5.222657-5.863281 11.714844-10.449219 18.984375-13.414062zm0 0" fill="#f18d46"/><path d="m129.023438 297.398438c5.179687-.191407 10.222656-1.699219 14.65625-4.386719 28.117187-16.800781 38.109374-53.625 36.066406-96.539063-.589844-13.847656-2.03125-27.648437-4.316406-41.320312-2.082032-13.546875-5.1875-26.914063-9.289063-39.992188-1.914063-5.921875-4.175781-11.730468-6.773437-17.386718-3-5.675782-5.707032-11.496094-8.121094-17.445313-2.4375-6.996094-4.0625-14.253906-4.839844-21.621094-1.023438-7.261719-1.511719-14.589843-1.457031-21.925781.117187-2.804688.425781-5.601562.929687-8.363281.933594-9.945313 8.105469-18.1875 17.828125-20.484375-10.960937-5.964844-23.402343-8.652344-35.847656-7.746094h2.324219c-12.445313-.90625-24.886719 1.78125-35.847656 7.746094 9.722656 2.292968 16.894531 10.53125 17.832031 20.476562.503906 2.761719.816406 5.558594.929687 8.367188.054688 7.332031-.429687 14.660156-1.457031 21.921875-.773437 7.371093-2.398437 14.625-4.839844 21.621093-2.414062 5.949219-5.121093 11.769532-8.117187 17.445313-2.601563 5.660156-4.863282 11.46875-6.777344 17.394531-4.097656 13.082032-7.195312 26.453125-9.269531 40-2.285157 13.667969-3.726563 27.46875-4.316407 41.316406-2.0625 42.914063 7.933594 79.730469 36.066407 96.542969 4.425781 2.679688 9.464843 4.1875 14.636719 4.378907zm0 0" fill="#f3d55b"/><g fill="#2c3e50"><path d="m115.570312 139.839844c0-3.671875-3.003906-6.648438-6.710937-6.648438-3.710937 0-6.714844 2.976563-6.714844 6.648438s3.003907 6.648437 6.714844 6.648437c3.707031 0 6.710937-2.976562 6.710937-6.648437zm0 0"/><path d="m135.71875 139.839844c0-3.671875-3.003906-6.648438-6.714844-6.648438-3.707031 0-6.710937 2.976563-6.710937 6.648438s3.003906 6.648437 6.710937 6.648437c3.710938 0 6.714844-2.976562 6.714844-6.648437zm0 0"/><path d="m122.285156 119.890625c0-3.675781-3.003906-6.652344-6.714844-6.652344-3.707031 0-6.710937 2.976563-6.710937 6.652344 0 3.671875 3.003906 6.648437 6.710937 6.648437 3.710938 0 6.714844-2.976562 6.714844-6.648437zm0 0"/><path d="m135.71875 106.589844c0-3.675782-3.003906-6.652344-6.714844-6.652344-3.707031 0-6.710937 2.976562-6.710937 6.652344 0 3.671875 3.003906 6.648437 6.710937 6.648437 3.710938 0 6.714844-2.976562 6.714844-6.648437zm0 0"/><path d="m122.285156 159.789062c0-3.671874-3.003906-6.648437-6.714844-6.648437-3.707031 0-6.710937 2.976563-6.710937 6.648437 0 3.675782 3.003906 6.652344 6.710937 6.652344 3.710938 0 6.714844-2.976562 6.714844-6.652344zm0 0"/><path d="m108.851562 179.742188c0-3.671876-3.003906-6.648438-6.714843-6.648438-3.707031 0-6.710938 2.976562-6.710938 6.648438 0 3.671874 3.003907 6.648437 6.710938 6.648437 3.710937 0 6.714843-2.976563 6.714843-6.648437zm0 0"/><path d="m135.71875 179.742188c0-3.671876-3.003906-6.648438-6.714844-6.648438-3.707031 0-6.710937 2.976562-6.710937 6.648438 0 3.671874 3.003906 6.648437 6.710937 6.648437 3.710938 0 6.714844-2.976563 6.714844-6.648437zm0 0"/><path d="m122.285156 199.691406c0-3.671875-3.003906-6.648437-6.714844-6.648437-3.707031 0-6.710937 2.976562-6.710937 6.648437 0 3.675782 3.003906 6.652344 6.710937 6.652344 3.710938 0 6.714844-2.976562 6.714844-6.652344zm0 0"/><path d="m108.851562 212.992188c0-3.671876-3.003906-6.648438-6.714843-6.648438-3.707031 0-6.710938 2.976562-6.710938 6.648438 0 3.671874 3.003907 6.652343 6.710938 6.652343 3.710937 0 6.714843-2.980469 6.714843-6.652343zm0 0"/><path d="m135.71875 219.644531c0-3.671875-3.003906-6.652343-6.714844-6.652343-3.707031 0-6.710937 2.980468-6.710937 6.652343s3.003906 6.648438 6.710937 6.648438c3.710938 0 6.714844-2.976563 6.714844-6.648438zm0 0"/><path d="m117.140625 234.441406c0-3.671875-3.003906-6.648437-6.710937-6.648437-3.710938 0-6.714844 2.976562-6.714844 6.648437 0 3.675782 3.003906 6.652344 6.714844 6.652344 3.707031 0 6.710937-2.976562 6.710937-6.652344zm0 0"/><path d="m115.570312 253.425781c0-3.671875-3.003906-6.648437-6.710937-6.648437-3.710937 0-6.714844 2.976562-6.714844 6.648437s3.003907 6.648438 6.714844 6.648438c3.707031 0 6.710937-2.976563 6.710937-6.648438zm0 0"/><path d="m135.71875 272.84375c0-3.671875-3.003906-6.648438-6.714844-6.648438-3.707031 0-6.710937 2.976563-6.710937 6.648438 0 3.675781 3.003906 6.652344 6.710937 6.652344 3.710938 0 6.714844-2.976563 6.714844-6.652344zm0 0"/><path d="m135.71875 247.097656c0-3.671875-3.003906-6.648437-6.714844-6.648437-3.707031 0-6.710937 2.976562-6.710937 6.648437s3.003906 6.652344 6.710937 6.652344c3.710938 0 6.714844-2.980469 6.714844-6.652344zm0 0"/><path d="m155.871094 139.839844c0-3.671875-3.003906-6.648438-6.710938-6.648438-3.710937 0-6.714844 2.976563-6.714844 6.648438s3.003907 6.648437 6.714844 6.648437c3.707032 0 6.710938-2.976562 6.710938-6.648437zm0 0"/><path d="m149.152344 119.890625c0-3.675781-3.003906-6.652344-6.714844-6.652344-3.707031 0-6.710938 2.976563-6.710938 6.652344 0 3.671875 3.003907 6.648437 6.710938 6.648437 3.710938 0 6.714844-2.976562 6.714844-6.648437zm0 0"/><path d="m149.152344 159.789062c0-3.671874-3.003906-6.648437-6.714844-6.648437-3.707031 0-6.710938 2.976563-6.710938 6.648437 0 3.675782 3.003907 6.652344 6.710938 6.652344 3.710938 0 6.714844-2.976562 6.714844-6.652344zm0 0"/><path d="m162.585938 179.742188c0-3.671876-3.003907-6.648438-6.714844-6.648438-3.707032 0-6.710938 2.976562-6.710938 6.648438 0 3.671874 3.003906 6.648437 6.710938 6.648437 3.710937 0 6.714844-2.976563 6.714844-6.648437zm0 0"/><path d="m149.152344 199.691406c0-3.671875-3.003906-6.648437-6.714844-6.648437-3.707031 0-6.710938 2.976562-6.710938 6.648437 0 3.675782 3.003907 6.652344 6.710938 6.652344 3.710938 0 6.714844-2.976562 6.714844-6.652344zm0 0"/><path d="m162.585938 212.992188c0-3.671876-3.003907-6.648438-6.714844-6.648438-3.707032 0-6.710938 2.976562-6.710938 6.648438 0 3.671874 3.003906 6.652343 6.710938 6.652343 3.710937 0 6.714844-2.980469 6.714844-6.652343zm0 0"/><path d="m154.335938 234.441406c0-3.671875-3.007813-6.648437-6.714844-6.648437-3.707032 0-6.714844 2.976562-6.714844 6.648437 0 3.675782 3.007812 6.652344 6.714844 6.652344 3.707031 0 6.714844-2.976562 6.714844-6.652344zm0 0"/><path d="m155.871094 253.425781c0-3.671875-3.003906-6.648437-6.710938-6.648437-3.710937 0-6.714844 2.976562-6.714844 6.648437s3.003907 6.648438 6.714844 6.648438c3.707032 0 6.710938-2.976563 6.710938-6.648438zm0 0"/></g></svg>