<svg id="Capa_1" enable-background="new 0 0 512 512" height="512" viewBox="0 0 512 512" width="512" xmlns="http://www.w3.org/2000/svg"><g><g><path d="m404.735 406.215c24.411-14.237 45.82-39.149 47.168-69.949.555-12.688.104-23.872-3.236-37.654-1.135-4.681-7.539-5.331-9.584-.97-5.052 10.774-10.722 21.211-17.611 30.951-9.553 13.507-22.488 25.197-38.225 30.298z" fill="#dc8758"/></g><g><path d="m451.906 336.268c-1.348 30.796-22.76 55.712-47.167 69.947l-6.598-14.524c19.406-14.714 34.759-36.476 35.897-62.42.319-7.157.309-13.826-.359-20.754 1.887-3.574 3.683-7.197 5.401-10.871 2.046-4.362 8.455-3.713 9.593.968 3.333 13.776 3.782 24.966 3.233 37.654z" fill="#c86d36"/></g><g><path d="m179.909 371.906c-6.365-7.426-14.297-15.241-22.473-20.606-27.598-18.109-51.029.517-59.742 28.465-7.604 24.391-11.201 56.111-2.167 81.22h-10.806-3.096c-13.45 0-24.353 10.903-24.353 24.353v10c0 5.067 4.108 9.175 9.175 9.175h43.616 16.196 92.74z" fill="#e2e2e2"/></g><g><path d="m332.091 371.906c6.365-7.426 14.297-15.241 22.473-20.606 27.598-18.109 51.029.517 59.742 28.465 7.604 24.391 11.201 56.111 2.167 81.22h10.807 3.096c13.45 0 24.353 10.903 24.353 24.353v10c0 5.067-4.108 9.175-9.175 9.175h-43.616-16.196-92.74z" fill="#e2e2e2"/></g><g><path d="m416.728 460.23c-1.847-.519-3.783-.789-5.77-.789h-9.596c-2.101 0-3.583-2.027-2.977-4.039 7.308-24.254 3.704-52.539-3.499-75.641-5.141-16.481-15.403-29.728-28.62-34.09 22.381-6.888 40.589 10.202 48.036 34.09 7.527 24.158 11.13 55.483 2.426 80.469z" fill="#bfbfbf"/></g><g><path d="m454.731 485.336v10.002c0 5.071-4.113 9.174-9.174 9.174h-19.426c5.071 0 9.184-4.103 9.184-9.174v-10.002c0-10.621-6.818-20.624-16.311-24.347h11.37c13.456 0 24.357 10.901 24.357 24.347z" fill="#bfbfbf"/></g><g><path d="m364.451 460.986h-3.101-9.639c5.684-22.768 7.611-45.734 8.2-61.607.679-18.283-1.052-36.619-5.548-54.04-17.939-69.521-65.617-83.77-65.617-83.77h-65.493s-47.678 14.249-65.617 83.77c-4.495 17.421-6.226 35.757-5.548 54.04.589 15.873 2.516 38.84 8.2 61.607h-9.639-3.101c-13.447 0-24.348 10.901-24.348 24.348v19.18h265.599v-19.18c0-13.448-10.901-24.348-24.348-24.348z" fill="#f8f6f6"/></g><g><path d="m359.908 399.377c-.579 15.513-2.426 37.804-7.816 60.064-3.065-1.767-6.429-2.805-9.942-2.805h-2.274c-5.282 0-9.24-4.878-8.106-10.037 4.024-18.294 5.877-33.748 6.377-47.223.679-18.278-1.048-36.616-5.54-54.035-17.938-69.528-65.625-83.773-65.625-83.773h21.762s47.686 14.245 65.625 83.773c4.49 17.421 6.217 35.758 5.539 54.036z" fill="#ebebeb"/></g><g><path d="m388.797 485.336v19.176h-21.762v-19.176c0-9.014-5.141-18.847-12.588-24.347h10.002c13.447 0 24.348 10.901 24.348 24.347z" fill="#ebebeb"/></g><g><path d="m335.291 300.96c-11.4 5.211-23.269 9.433-35.428 12.488-14.245 3.594-28.879 5.57-43.514 5.61-13.486.03-28.769-2.007-41.916-5.181-9.643-2.326-19.106-5.361-28.34-8.994-.729-.289-4.971-1.837-9.533-3.683 11.719-17.978 25.066-28.28 34.479-33.841 29.668 6.039 60.254 6.039 89.922 0 9.374 5.54 22.64 15.772 34.33 33.601z" fill="#82aee3"/></g><g><path d="m335.291 300.96c-5.71 2.605-11.54 4.971-17.459 7.058-10.931-19.286-24.018-31.006-34.17-37.844 5.79-.709 11.56-1.647 17.3-2.815.29.17.579.339.868.519 1.507.908 3.105 1.947 4.782 3.115 2.631 1.832 5.17 3.795 7.61 5.87 5.474 4.657 10.455 9.927 14.931 15.572 1.148 1.447 2.286 2.955 3.404 4.532.69.973 1.348 1.916 2.007 2.905.238.359.477.719.727 1.088z" fill="#528fd8"/></g><g><path d="m176.439 14.712c-4.991-3.613-11.345-5.826-19.346-6.015-22.603-.534-46.948 22.161-58.684 39.715-26.566 39.738-45.686 86.388-43.312 134.13.535 10.756 2.232 21.697 7.296 31.201s13.953 17.433 24.578 19.189c6.092 1.007 12.374-.036 18.24-1.964 15.719-5.168 28.842-16.545 38.654-29.869 25.814-35.052 40.971-84.298 47.581-126.379 3.15-20.059 1.724-47.897-15.007-60.008z" fill="#ac5e2e"/></g><g><path d="m335.561 14.712c4.991-3.613 11.345-5.826 19.346-6.015 22.603-.534 46.948 22.161 58.684 39.715 26.566 39.738 45.687 86.388 43.312 134.13-.535 10.756-2.232 21.697-7.296 31.201s-13.953 17.433-24.578 19.189c-6.092 1.007-12.374-.036-18.24-1.964-15.719-5.168-28.842-16.545-38.654-29.869-25.814-35.052-40.971-84.298-47.581-126.379-3.15-20.059-1.724-47.897 15.007-60.008z" fill="#ac5e2e"/></g><g><path d="m456.907 182.538c-.539 10.761-2.236 21.702-7.297 31.205-5.071 9.503-13.955 17.429-24.577 19.186-5.6.928-11.36.13-16.811-1.517 8.156-3.135 14.894-9.873 19.047-17.669 5.061-9.503 6.758-20.444 7.297-31.205 2.376-47.736-16.751-94.384-43.314-134.124-9.723-14.534-28.061-32.583-46.918-38.063 3.154-.988 6.668-1.557 10.572-1.657 22.6-.529 46.947 22.161 58.687 39.72 26.564 39.74 45.68 86.388 43.314 134.124z" fill="#9e5528"/></g><g><path d="m341.197 48.197c-17.968-22.387-55.269-41.727-85.197-40.671-29.928-1.057-67.23 18.284-85.197 40.671-34.1 42.485-55.708 110.817-36.821 163.799 17.75 49.79 70.798 77.021 122.018 75.457 51.22 1.564 104.268-25.667 122.018-75.457 18.888-52.982-2.721-121.314-36.821-163.799z" fill="#f8f6f6"/></g><g><path d="m378.016 211.996c-17.749 49.793-70.796 77.025-122.016 75.458-3.624.11-7.257.08-10.881-.11 47.666-2.296 94.644-29.079 111.135-75.348 18.887-52.987-2.715-121.317-36.815-163.802-15.842-19.735-46.718-37.105-74.32-40.209 3.704-.419 7.337-.589 10.881-.459 29.927-1.058 67.232 18.288 85.2 40.669 34.1 42.484 55.703 110.814 36.816 163.801z" fill="#ebebeb"/></g><g><path d="m219.729 150.875c-20.068 27.41-56.555 49.059-89.298 49.059-12.048-50.943 8.811-112.412 40.373-151.738 15.847-19.733 46.713-37.11 74.299-40.223.106 1.943.234 3.886.308 5.83 2.171 57.059 3.724 96.919-25.682 137.072z" fill="#dc8758"/></g><g><path d="m219.724 150.874c-20.065 27.412-56.551 49.064-89.293 49.064-.898-3.783-1.607-7.627-2.156-11.52 28.68-4.981 58.008-24.257 75.248-47.796 28.091-38.353 27.931-76.446 25.964-129.513 5.241-1.487 10.482-2.556 15.613-3.135.11 1.937.24 3.883.309 5.83 2.176 57.06 3.723 96.92-25.685 137.07z" fill="#c86d36"/></g><g><path d="m335.777 265.082c.541.801-21.116 11.409-23.113 12.221-8.154 3.316-16.633 5.831-25.267 7.539-23.752 4.698-49.117 4.083-72.404-2.255-3.352-.912-40.183-15.428-38.769-17.506 4.638-6.812 8.669-14.193 12.412-21.351 7.294-13.923 14.481-28.568 25.624-39.884 5.34-5.427 11.604-9.93 18.773-12.586 17.782-6.61 42.587-4.878 57.954 6.63 15.164 11.344 23.815 29.482 32.378 45.84 3.742 7.159 7.774 14.54 12.412 21.352z" fill="#dc8758"/></g><g><path d="m335.78 265.083c-4.013 2.685-8.196 5.141-12.518 7.357-.499.26-.998.509-1.507.759-2.384 1.169-4.72 2.322-7.178 3.304-2.085.833-4.132 1.679-6.229 2.466-5.118 1.919-10.369 3.433-15.662 4.722-2.277.554-4.57 1.027-6.868 1.447-2.545.466-5.075.869-7.637 1.208-3.67.486-7.264.79-10.971.988-3.733.2-7.477.23-11.21.12-2.394.07-4.869.065-7.217.03-.669-.01-1.328-.03-1.986-.06-.559-.02-1.118-.05-1.677-.08 30.816-1.487 61.352-13.207 83.543-33.821 2.226 3.933 4.581 7.837 7.117 11.56z" fill="#c86d36"/></g><g><ellipse cx="256" cy="183.293" fill="#5a5a5a" rx="21.762" ry="16.64"/></g><g><path d="m277.762 183.297c0 9.184-9.743 16.641-21.762 16.641-8.585 0-16.012-3.803-19.546-9.324 1.368.21 2.785.319 4.233.319 12.019 0 21.762-7.447 21.762-16.641 0-2.625-.799-5.101-2.216-7.317 9.992 1.508 17.529 8.236 17.529 16.322z" fill="#444"/></g><g><path d="m280.523 221.017c-4.135 0-7.487 3.352-7.487 7.487v5.774c0 2.573-2.093 4.666-4.666 4.666s-4.667-2.093-4.667-4.666c0 0 0-5.773 0-5.774 0-6.473-8.416-9.786-13.033-5.47-1.506 1.408-2.375 3.409-2.375 5.471v5.774c0 2.573-2.093 4.666-4.666 4.666s-4.666-2.093-4.666-4.666v-5.774c0-4.135-3.352-7.487-7.487-7.487s-7.487 3.352-7.487 7.487v5.774c0 10.829 8.81 19.639 19.64 19.639 4.686 0 8.99-1.655 12.37-4.404 3.38 2.749 7.684 4.404 12.37 4.404 10.83 0 19.639-8.81 19.639-19.639v-5.774c.002-4.136-3.35-7.488-7.485-7.488z"/><g><path d="m206.858 127.895v-13.78c0-4.135-3.352-7.487-7.487-7.487s-7.487 3.352-7.487 7.487v13.78c0 4.135 3.352 7.487 7.487 7.487s7.487-3.352 7.487-7.487z"/><path d="m312.629 106.628c-4.135 0-7.487 3.352-7.487 7.487v13.78c0 4.135 3.352 7.487 7.487 7.487s7.487-3.352 7.487-7.487v-13.78c-.001-4.135-3.352-7.487-7.487-7.487z"/><path d="m380.681 225.008c7.433 5.906 15.43 10.329 23.771 13.071 5.519 1.815 10.783 2.726 15.725 2.726 2.083 0 4.111-.162 6.073-.487 12.14-2.006 23.342-10.625 29.965-23.055 4.86-9.122 7.454-20.036 8.165-34.349 2.18-43.841-13.23-91.79-44.565-138.663-2.299-3.437-6.949-4.36-10.385-2.063-3.437 2.298-4.361 6.947-2.064 10.385 29.535 44.179 44.078 88.993 42.058 129.597-.598 12.033-2.639 20.946-6.424 28.052-4.445 8.343-11.62 14.072-19.191 15.323-4.215.696-9.153.127-14.681-1.69-8.946-2.941-16.508-8.007-22.666-13.541 7.974-25.316 8.093-54.926.276-85.981-7.416-29.459-21.515-58.162-39.703-80.822-4.061-5.06-8.909-9.862-14.296-14.31 1.877-3.382 4.244-6.276 7.211-8.424 4.015-2.906 9.107-4.453 15.133-4.595 11.335-.257 22.801 6.854 30.433 12.877 3.246 2.56 7.954 2.006 10.516-1.24 2.561-3.246 2.005-7.954-1.241-10.515-13.717-10.822-27.576-16.39-40.06-16.091-9.115.215-17.041 2.717-23.559 7.435-4.471 3.236-7.947 7.233-10.654 11.654-20.018-12.842-44.27-20.907-64.518-20.267-20.238-.64-44.506 7.432-64.534 20.281-2.87-4.71-6.416-8.614-10.637-11.669-6.519-4.718-14.445-7.219-23.559-7.435-24.568-.587-50.955 21.903-65.085 43.039-31.335 46.872-46.746 94.821-44.566 138.663.712 14.316 3.307 25.231 8.166 34.35 6.623 12.429 17.824 21.048 29.964 23.055 1.964.324 3.99.487 6.074.487 4.941 0 10.207-.911 15.725-2.725 8.34-2.742 16.34-7.159 23.775-13.062 9.867 20.64 26.036 37.934 47.328 50.423 1.999 1.172 4.038 2.273 6.094 3.34-12.5 12.974-25.341 32.367-33.348 60.951-11.769-4.65-21.609-3.275-28.334-.866-14.638 5.243-26.49 19.339-32.517 38.672-10.799 34.639-8.42 60.86-4.961 75.962h-3.96c-17.557 0-31.84 14.283-31.84 31.84v10c0 9.188 7.474 16.662 16.662 16.662h379.107c9.188 0 16.662-7.474 16.662-16.662v-10c0-17.557-14.284-31.84-31.84-31.84h-3.961c2.684-11.718 4.713-30.133.445-53.976 19.676-17.203 31.503-39.642 32.523-62.929.492-11.241.416-23.836-3.44-39.745-1.276-5.266-5.587-9.019-10.981-9.562-5.392-.539-10.361 2.274-12.659 7.177-5.475 11.678-11.018 21.428-16.944 29.807-4.218 5.964-10.232 13.034-17.977 18.807-2.689-1.736-5.508-3.161-8.446-4.214-6.723-2.408-16.563-3.784-28.334.866-8.004-28.575-20.84-47.969-33.336-60.943 2.05-1.061 4.079-2.173 6.083-3.348 21.295-12.491 37.466-29.789 47.332-50.433zm-255.145-14.699c-6.157 5.536-13.715 10.604-22.664 13.546-5.529 1.818-10.468 2.384-14.68 1.69-7.572-1.252-14.746-6.98-19.191-15.323-3.785-7.103-5.827-16.017-6.426-28.052-2.019-40.605 12.524-85.419 42.059-129.597 11.873-17.76 33.916-36.399 51.69-36.399.197 0 .396.002.593.007 6.026.142 11.117 1.688 15.133 4.595 2.967 2.148 5.345 5.033 7.223 8.416-5.393 4.451-10.245 9.256-14.309 14.319-18.187 22.659-32.287 51.363-39.702 80.822-7.817 31.053-7.699 60.661.274 85.976zm10.882-18.407c-.547-3.077-.97-6.216-1.288-9.404-.003.002-.007.004-.011.007-1.695-16.936-.156-35.369 4.663-54.518 6.901-27.415 19.991-54.088 36.859-75.104 13.773-17.159 38.675-31.326 61.388-36.141 2.101 55.334 3.088 92.258-24.341 129.71-18.163 24.809-49.762 43.285-77.218 45.721-.017-.091-.036-.18-.052-.271zm291.166 141.016c5.333-7.54 10.349-16.033 15.239-25.818 1.881 10.294 2.025 19.162 1.601 28.84-.733 16.753-8.452 33.1-21.477 46.648-.469-1.665-.96-3.344-1.492-5.05-2.963-9.503-7.339-17.732-12.756-24.274 8.09-6.5 14.374-13.967 18.885-20.346zm-63.498 21.601c6.943-3.251 13.585-3.785 19.801-1.557 10.024 3.59 18.724 14.443 23.272 29.031 8.656 27.765 9.504 56.347 2.268 76.458-.825 2.294-.481 4.846.92 6.84 1.402 1.995 3.687 3.181 6.125 3.181h13.903c9.3 0 16.866 7.566 16.866 16.866v10c0 .931-.757 1.688-1.688 1.688h-49.267v-11.693c0-17.554-14.281-31.835-31.835-31.835h-3.351c4.257-20.427 5.785-40.149 6.293-53.843.578-15.574-.538-30.706-3.307-45.136zm-31.79-44.082c5.712 9.792 10.981 21.903 14.818 36.772 4.201 16.278 5.989 33.737 5.315 51.892-.559 15.055-2.396 37.697-7.981 60.071-.559 2.236-.056 4.605 1.363 6.422s3.596 2.878 5.901 2.878h12.74c9.297 0 16.861 7.564 16.861 16.861v11.693h-11.573-62.726v-72.708c0-4.135-3.352-7.487-7.487-7.487s-7.487 3.352-7.487 7.487v72.708h-72.081v-72.708c0-4.135-3.352-7.487-7.487-7.487s-7.487 3.352-7.487 7.487v72.708h-66.943-7.356v-11.693c0-9.297 7.564-16.861 16.862-16.861h12.74c2.305 0 4.481-1.062 5.9-2.878s1.922-4.186 1.364-6.422c-3.07-12.295-5.324-25.923-6.701-40.505-.389-4.117-4.05-7.136-8.157-6.75-4.117.388-7.139 4.041-6.75 8.157 1.11 11.764 2.771 22.964 4.954 33.425h-3.35c-17.554 0-31.835 14.281-31.835 31.835v11.693h-49.267c-.931 0-1.688-.757-1.688-1.688v-10c0-9.3 7.566-16.866 16.866-16.866h13.902c2.438 0 4.723-1.187 6.125-3.181s1.745-4.546.92-6.84c-7.235-20.109-6.386-48.692 2.27-76.458 4.548-14.588 13.247-25.441 23.271-29.031 6.22-2.229 12.863-1.693 19.809 1.563-1.822 9.517-2.943 19.372-3.318 29.437-.154 4.132 3.071 7.606 7.203 7.76 4.157.177 7.606-3.072 7.76-7.203.482-12.946 2.271-25.499 5.319-37.309 3.833-14.855 9.096-26.957 14.805-36.743 10.821 4.123 21.702 7.964 32.985 10.689 14.202 3.43 29.994 5.39 43.388 5.39h.306c14.881-.04 30.13-2.005 45.317-5.835 10.294-2.588 20.56-6.044 30.61-10.275zm-76.296-103.017c8.773 0 16.651-3.207 22.016-8.27 3.124 1.294 5.996 2.871 8.485 4.736 6.582 4.925 11.813 11.391 16.292 18.23 8.614 13.155 14.419 27.168 22.587 40.629.557.918-22.634 10.146-24.791 10.813-14.201 4.396-29.566 6.353-44.36 6.55-12.047.161-24.025-.983-35.883-3.88-11.797-2.882-23.224-7.376-33.728-13.484 3.172-5.215 6.01-10.494 8.648-15.54 6.943-13.28 13.677-27.289 24.328-38.107 4.473-4.545 9.256-7.925 14.243-10.086 5.37 5.144 13.31 8.409 22.163 8.409zm-14.275-24.127c0-4.876 6.671-9.154 14.275-9.154s14.275 4.278 14.275 9.154-6.671 9.153-14.275 9.153c-7.604.001-14.275-4.277-14.275-9.153zm82.049 114.475c-8.478 3.428-17.103 6.25-25.742 8.421-14.012 3.534-28.043 5.345-41.699 5.382-.094 0-.185 0-.278 0-12.254 0-26.766-1.809-39.867-4.973-9.067-2.187-18.27-5.108-27.331-8.674-.116-.046-.316-.122-.581-.223 3.843-4.96 7.669-9.034 11.206-12.331 6.064 2.305 12.277 4.22 18.588 5.702 7.124 1.673 14.372 2.82 21.666 3.426 24.598 2.044 49.689-.48 72.757-9.149 3.561 3.316 7.413 7.418 11.281 12.419zm-28.3-105.869c-3.112-2.331-6.623-4.325-10.4-5.989.113-.86.175-1.732.175-2.616 0-13.304-13.122-24.128-29.249-24.128-16.128 0-29.249 10.824-29.249 24.128 0 .819.051 1.629.148 2.427-6.391 2.928-12.426 7.235-17.975 12.874-11.06 11.232-18.259 25.047-25.221 38.408 0 0-6.715 12.684-9.546 17.378-15.495-11.952-26.835-27.256-33.124-44.898-.309-.867-.585-1.754-.873-2.635 31.237-3.587 65.276-23.777 85.608-51.549 30.685-41.898 29.348-83.285 27.178-140.316 11.253-.137 21.98 1.348 32.682 4.966 11.181 3.781 21.857 9.238 31.47 16.086 5.197 3.702 9.991 7.738 14.363 12.376 12.094 12.829 21.369 29.091 28.64 45.076 5.053 11.107 9.136 22.666 12.115 34.5 7.527 29.904 7.095 58.083-1.251 81.495-6.289 17.641-17.628 32.944-33.122 44.896-2.831-4.695-9.16-16.638-9.821-17.91-8.055-15.504-17.185-33.077-32.548-44.569z"/></g></g></g></svg>