<svg id="Layer_1_1_" enable-background="new 0 0 64 64" height="512" viewBox="0 0 64 64" width="512" xmlns="http://www.w3.org/2000/svg"><path d="m47.773 32.633-1.549-1.266c1.475-1.805 4.694-3.525 5.325-3.853.009-.005.018-.009.027-.014-.085-.431-.167-.879-.247-1.347-.189-1.096.56-2.138 1.66-2.299.173 1.179.347 2.219.533 3.174 1.258-.025 2.531.419 3.115 1.259.267.384.992 1.768-.884 3.469-.687.624-1.369.536-1.715.43-1.178-.366-1.791-1.959-2.008-2.663-1.515.827-3.392 2.052-4.257 3.11zm6.199-3.594c.147.445.379.894.559 1.119.435-.429.495-.684.464-.729-.124-.178-.529-.34-1.023-.39z" fill="#e3bdbd"/><path d="m43.211 59.894-.211.106s5.738-11.203 6-21c.162-6.043-1.726-9.855-4.973-13.552-.324-.369-.671-.717-1.027-1.054l-22 .106c-3.825 3.864-5.685 6.49-6 13.5-.332 7.395 5.133 20.175 6.664 21.851-.792-.296-1.664.276-1.664 1.149h7v-9.597c0-.135.005-.27.016-.403l9.984.403v9.597h8c0-.919-.967-1.517-1.789-1.106z" fill="#ffd4d4"/><g fill="#f2c9c9"><path d="m26.876 51.204c-1.268-1.014-3.123-4.654-4.143-7.464-.185-.511-.675-.843-1.218-.843-.809 0-1.442.731-1.289 1.526.562 2.926 2.054 6.09 4.259 7.853.786.628 1.632 1.14 2.515 1.543v-2.417c0-.038.004-.075.005-.113-.042-.031-.088-.052-.129-.085z"/><path d="m39.492 52.277c2.468-1.974 4.042-4.827 4.42-7.927.094-.773-.525-1.453-1.303-1.453h-.665c-.624 0-1.175.439-1.279 1.054-.627 3.684-2.081 6.077-3.55 7.253-.091.073-.193.123-.287.192l.172.007v2.405c.874-.401 1.713-.908 2.492-1.531z"/><path d="m44.027 25.448c-.324-.369-.671-.717-1.027-1.054l-22 .106c-.74.747-1.404 1.448-2 2.144v1.242c0 1.859.505 3.683 1.462 5.277 1.339 2.231 3.476 3.871 5.978 4.585l4.378 1.252h1.182 1.182l4.379-1.251c2.502-.715 4.639-2.354 5.978-4.585.956-1.595 1.461-3.419 1.461-5.278v-1.26c-.311-.395-.63-.788-.973-1.178z"/></g><path d="m23.828 45.467c.181 2.241 1.278 4.321 3.049 5.738 2.993 2.394 7.245 2.394 10.237 0 1.944-1.555 3.075-3.909 3.075-6.398" fill="#ffd4d4"/><path d="m53 3-5.57 1.671c-2.863.859-5.338 2.69-6.996 5.178l-1.434 2.151-3.143-1.257c-1.227-.491-2.536-.743-3.857-.743s-2.63.252-3.857.743l-3.143 1.257-1.434-2.152c-1.658-2.487-4.132-4.318-6.996-5.178l-5.57-1.67s1 3 1 5-2 8 1 10 5 1 6 1l2 3v2.5 2.096c0 1.573.428 3.117 1.237 4.466 1.133 1.888 2.941 3.275 5.058 3.88l3.705 1.058h1 1l3.705-1.059c2.117-.605 3.925-1.992 5.058-3.88.809-1.348 1.237-2.892 1.237-4.465v-2.203-2.393l2-3c1 0 3 1 6-1s1-8 1-10 1-5 1-5z" fill="#ffd4d4"/><ellipse cx="32" cy="28.5" fill="#ffb5b5" rx="5" ry="4.5"/><path d="m51 18c3-2 1-8 1-10 0-1.226.375-2.824.666-3.88-1.605.592-8.591 3.58-9.666 7.88-1 4 2 7 2 7 1 0 3 1 6-1z" fill="#ffc9c9"/><path d="m12.453 3.436-1.453-.436s1 3 1 5-2 8 1 10 5 1 6 1l.118.176c.853-2.291 2.882-4.176 1.882-7.176-.613-1.838-5.002-5.958-8.547-8.564z" fill="#ffc9c9"/><path d="m30 28h1v2h-1z" fill="#8f5151"/><path d="m33 28h1v2h-1z" fill="#8f5151"/><circle cx="26" cy="21" r="1"/><circle cx="38" cy="21" r="1"/></svg>