<svg id="Capa_1" enable-background="new 0 0 512 512" height="512" viewBox="0 0 512 512" width="512" xmlns="http://www.w3.org/2000/svg"><g fill="#68ca44"><path d="m168.823 96.773s-20.125-57.742 2.488-94.328c1.066-1.726 3.051-2.647 5.064-2.395 10.903 1.366 46.066 10.167 67.279 66.735z"/><path d="m345.241 96.773s20.125-57.742-2.488-94.328c-1.066-1.726-3.051-2.647-5.064-2.395-10.903 1.366-46.066 10.167-67.279 66.735z"/><path d="m243.651 66.79-74.824 29.979s-8.594-24.666-8.243-51.963c.193-14.476 2.898-29.69 10.731-42.371 1.054-1.706 3.011-2.643 5.001-2.396 6.521.808 21.885 4.295 37.717 19.306 10.482 9.914 21.159 24.883 29.618 47.445z"/><path d="m345.236 96.769-74.824-29.979c8.078-21.53 18.167-36.148 28.184-46.062 16.318-16.168 32.408-19.85 39.135-20.687 1.996-.248 3.959.681 5.016 2.392 7.749 12.543 10.481 27.567 10.721 41.908.465 27.483-8.232 52.428-8.232 52.428z"/></g><path d="m243.651 66.79-74.824 29.979s-8.594-24.666-8.243-51.963c11.173 2.641 22.603 7.108 33.683 14.175 3.539 2.249 8.201.155 8.841-3.982 1.279-8.325 4.219-21.324 10.925-35.653 10.482 9.913 21.159 24.882 29.618 47.444z" fill="#4fc123"/><path d="m345.236 96.769-74.824-29.979c8.078-21.53 18.167-36.148 28.184-46.062 6.262 13.783 9.058 26.214 10.296 34.271.64 4.137 5.302 6.231 8.841 3.972 11.76-7.5 23.913-12.07 35.736-14.628.464 27.481-8.233 52.426-8.233 52.426z" fill="#4fc123"/><path d="m297.531 70.485c-3.165-15.216-12.184-41.171-37.838-61.033-2.166-1.677-5.22-1.677-7.386 0-25.654 19.862-34.673 45.817-37.838 61.033-1.164 5.597-7.437 8.392-12.431 5.61-27.541-15.34-56.992-11.996-73.995-7.88-5.29 1.28-6.374 8.375-1.692 11.151 45.449 26.946 53.309 69.852 53.309 69.852h76.34 76.341s7.86-42.906 53.309-69.852c4.682-2.776 3.597-9.871-1.692-11.151-17.002-4.116-46.453-7.46-73.995 7.88-4.995 2.782-11.267-.013-12.432-5.61z" fill="#47a920"/><path d="m342.358 123.674c-5.767 10.43-8.428 19.106-9.46 23.129h-153.796c-1.032-4.023-3.693-12.699-9.46-23.129 6.448 2.074 12.937 4.828 19.322 8.387 6.2 3.456 13.989-.021 15.443-6.974 3.931-18.899 15.124-43.246 47.001-67.923 2.703-2.084 6.479-2.084 9.181 0 31.878 24.677 43.071 49.023 47.001 67.923 1.454 6.953 9.243 10.43 15.443 6.974 6.388-3.559 12.877-6.313 19.325-8.387z" fill="#409617"/><path d="m297.531 140.996c-3.165-15.216-12.184-41.171-37.838-61.033-2.166-1.677-5.22-1.677-7.386 0-25.654 19.862-34.673 45.817-37.838 61.033-1.164 5.597-7.437 8.392-12.431 5.61-27.541-15.34-56.992-11.996-73.995-7.88-5.29 1.28-6.374 8.375-1.692 11.151 45.449 26.946 53.309 69.852 53.309 69.852h76.34 76.341s7.86-42.906 53.309-69.852c4.682-2.776 3.597-9.871-1.692-11.151-17.002-4.116-46.453-7.46-73.995 7.88-4.995 2.783-11.267-.012-12.432-5.61z" fill="#68ca44"/><path d="m348.898 183.705c-13.473 19.199-16.558 36.024-16.558 36.024h-152.681s-3.085-16.826-16.558-36.024c21.716-15.01 48.012-23.831 76.258-23.831h33.28c28.247 0 54.543 8.82 76.259 23.831z" fill="#4fc123"/><path d="m271.45 512h-30.9c-68.783 0-125.061-56.277-125.061-125.061v-76.904c0-68.783 56.277-125.061 125.061-125.061h30.901c68.783 0 125.061 56.277 125.061 125.061v76.904c-.001 68.784-56.278 125.061-125.062 125.061z" fill="#fedf30"/><path d="m396.506 310.032v76.909c0 68.78-56.268 125.059-125.059 125.059h-30.895c-20.301 0-39.506-4.897-56.498-13.585 9.685 2.443 19.797 3.725 30.205 3.725h30.895c68.791 0 125.059-56.279 125.059-125.059v-76.909c0-48.49-27.959-90.757-68.561-111.474 54.318 13.585 94.854 62.963 94.854 121.334z" fill="#f4d01e"/><path d="m396.145 300.413c-5.73 5.127-12.478 9.192-23.215 9.192-28.978 0-28.978-29.69-57.977-29.69-28.978 0-28.978 29.69-57.977 29.69-28.978 0-28.978-29.69-57.967-29.69s-28.989 29.69-57.966 29.69c-11.887 0-18.899-4.996-25.034-10.89 1.446-16.028 5.96-31.202 12.95-44.94 3.429 1.326 7.373 2.114 12.084 2.114 28.978 0 28.978-29.69 57.966-29.69s28.989 29.69 57.967 29.69c28.999 0 28.999-29.69 57.977-29.69 29 0 29 29.69 57.977 29.69 3.966 0 7.384-.559 10.408-1.523 7.066 14.068 11.536 29.625 12.807 46.047z" fill="#fac600"/><path d="m396.506 353.811v33.13c0 7.625-.69 15.097-2.016 22.35-5.39 4.426-11.854 7.768-21.561 7.768-28.978 0-28.978-29.69-57.977-29.69-28.978 0-28.978 29.69-57.977 29.69-28.978 0-28.978-29.69-57.967-29.69s-28.989 29.69-57.966 29.69c-11.142 0-18.011-4.393-23.883-9.805-1.096-6.617-1.665-13.399-1.665-20.312v-34.992c6.256 6.102 13.322 11.372 25.549 11.372 28.978 0 28.978-29.679 57.966-29.679s28.989 29.679 57.967 29.679c28.999 0 28.999-29.679 57.977-29.679 29 0 29 29.679 57.977 29.679 10.966-.001 17.77-4.241 23.576-9.511z" fill="#fac600"/><path d="m364.834 469.897c-22.942 25.79-56.356 42.103-93.386 42.103h-30.895c-36.866 0-70.138-16.171-93.079-41.763 22.733-4.021 24.858-29.142 51.535-29.142 28.989 0 28.989 29.679 57.967 29.679 28.999 0 28.999-29.679 57.977-29.679 26.019 0 28.692 23.883 49.881 28.802z" fill="#fac600"/><path d="m396.132 300.425c-5.728 5.12-12.471 9.183-23.204 9.183-.932 0-1.843-.031-2.712-.094v-9.34c0-16.303-3.162-31.894-8.9-46.208 3.319 1.215 7.11 1.927 11.612 1.927 3.969 0 7.382-.565 10.409-1.527 2.297 4.595 4.302 9.33 6.024 14.17 3.022 8.498 4.941 16.483 6.101 25.335.214 1.63.397 3.516.545 4.995.021.209.042.419.052.628.031.303.062.617.073.931z" fill="#e8b800"/><path d="m396.509 353.806v33.14c0 7.827-.577 14.641-2.021 22.345-5.393 4.429-11.853 7.769-21.56 7.769-3.34 0-6.293-.398-8.942-1.099 4.042-12.251 6.23-25.319 6.23-38.878v-13.853c.869.063 1.78.094 2.712.094 10.963 0 17.77-4.241 23.581-9.518z" fill="#e8b800"/><path d="m364.834 469.897c-.712.806-1.445 1.602-2.178 2.387-.743.785-1.487 1.571-2.251 2.335-1.535 1.557-3.038 3.008-4.649 4.492-5.647 5.201-12.103 10.078-18.622 14.169-4.858 3.048-9.941 5.722-15.2 8.009-8.036 3.494-17.347 6.516-25.947 8.272-.513.105-1.015.209-1.527.293-5.593 1.082-10.9 1.666-16.608 1.979-.953.052-1.916.094-2.879.115-.241.01-.471.01-.702.01-.942.031-1.885.042-2.827.042h-30.889c-.628 0-1.267 0-1.895-.01-11.908-.199-23.191-1.876-34.617-5.455-2.521-.79-5.177-1.714-7.518-2.587-.618-.23-1.235-.471-1.853-.712-.974-.387-1.937-.796-2.9-1.204-2.063-.88-4.105-1.811-6.115-2.806-.534-.262-1.058-.524-1.581-.806 9.675 2.44 19.79 3.717 30.188 3.717h30.889c39.454 0 74.793-18.513 97.746-47.276 6.114 6.23 11.988 12.722 21.935 15.036z" fill="#e8b800"/></svg>