<svg height="512" viewBox="0 0 59 52" width="512" xmlns="http://www.w3.org/2000/svg"><g id="Page-1" fill="none" fill-rule="evenodd"><g id="025---Butterfly-Fish" fill-rule="nonzero"><path id="Shape" d="m29.837 38.7c-2.5632188 1.9696364-3.9971262 5.0713908-3.837 8.3.0246005 1.7186853-.3162591 3.422983-1 5 8.94-4.12 11.26-9.19 11.84-11.96z" fill="#e57e25"/><path id="Shape" d="m59 30c0 1 0 2-3 2s-4 0-9 4-10 4-18 5-12 5-16 5-7-1-7-8c0-4.16 1.06-5.84 1.92-6.53-.76324992.3559527-1.44170595.8707611-1.99 1.51-.68031624.7588645-1.6916141 1.1326193-2.70193007.9985774-1.01031596-.134042-1.8891685-.7585691-2.34806993-1.6685774-1.1732872-2.7535593-1.1732872-5.8664407 0-8.62.41121877-.8253415 1.1715383-1.4222213 2.07090949-1.6257428s1.8425943.0078583 2.56909051.5757428c-.85-1.59-1.52-4.25-1.52-8.64 0-12 3-14 11-14 14.56 0 22.87 5.29 27.25 10.19 1.076476 1.1920325 2.0218912 2.4961691 2.82 3.89.3531746.6181733.6638917 1.2596539.93 1.92 2 5 4 10 8 11s5 0 5 3z" fill="#f0c419"/><g fill="#f29c1f"><path id="Shape" d="m16 28c.88 7.93 3.32 12.76.46 17.21-1.0945674.4749991-2.2677417.7428625-3.46.79-4 0-7-1-7-8 0-.47.01-.91.04-1.32.19-3.12 1.07-4.52 1.82-5.16.02-.02.04-.03.06-.05-.76324992.3559527-1.44170595.8707611-1.99 1.51-.68031624.7588645-1.6916141 1.1326193-2.70193007.9985774-1.01031596-.134042-1.8891685-.7585691-2.34806993-1.6685774-1.1732872-2.7535593-1.1732872-5.8664407 0-8.62.41121877-.8253415 1.1715383-1.4222213 2.07090949-1.6257428s1.8425943.0078583 2.56909051.5757428c-.02-.03-.03-.06-.05-.09-.61244741-1.2868355-1.01100823-2.6649102-1.18-4.08-.20373271-1.4811179-.30064953-2.9749736-.29-4.47 0-9.6 1.92-12.8 6.79-13.7 2.73 1.57 6.58 4.63 7.21 9.7 1 8-3 9-2 18z"/><path id="Shape" d="m29 24c0 7.98.79 12.81-1.82 17.29-1.0951578.213708-2.1769793.4908413-3.24.83.6992462-1.9647574 1.0577352-4.0345236 1.06-6.12v-14c0-3-.39-9.78-3-15-1.2309901-2.49389865-2.7623575-4.82789059-4.56-6.95 1.7.07 3.32.22 4.84.43 1.569568 1.20212764 2.8422477 2.74850191 3.72 4.52 3 6 3 10 3 19z"/><path id="Shape" d="m40 25c0 8.92-.81 12.68-2.17 14.87-1.45.26-2.99.45-4.69.65 1.61-1.87 3.45-6.09 2.86-15.52-.87-13.9-1.74-16.48-4.57-22.16 1.7681934.69186908 3.468742 1.54549095 5.08 2.55v.01c2.3400773 6.2682393 3.5225893 12.9092808 3.49 19.6z"/></g><path id="Shape" d="m11.77 22.8c.0163994.265334-.0735261.5262777-.2499078.7251761-.1763816.1988985-.4247009.3193798-.6900922.3348239-.03 0-.14.01-.31.01-1.76836315-.0020935-3.50679755-.4564962-5.05-1.32-.61244741-1.2868355-1.01100823-2.6649102-1.18-4.08.01.01.01.02.02.03 1.79 3.59 6.35 3.37 6.4 3.36.551468-.0307819 1.0246223.3888077 1.06.94z" fill="#e57e25"/><path id="Shape" d="m11.84 31.8c-.0528021.5451308-.5342841.9463658-1.08.9-.11 0-2.77-.13-4.52 3.7-.04908657.104718-.11686242.1996042-.2.28.19-3.12 1.07-4.52 1.82-5.16.92731243-.5608026 1.99677322-.8420569 3.08-.81.5493903.0527177.9521958.5405599.9 1.09z" fill="#e57e25"/><circle id="Oval" cx="11" cy="11" fill="#d25627" r="3"/><path id="Shape" d="m45.78 22.58-.23 5.04c-.2520491 2.613898-.7885573 5.1924908-1.6 7.69-.1356831.4101082-.5180349.6878164-.95.69-.1051746-.00196-.2095426-.0187936-.31-.05-.5243985-.1715258-.8107915-.7353618-.64-1.26.7663139-2.3435633 1.2694108-4.7651365 1.5-7.22l.23-4.93c-.031997-4.1618966-.5454105-8.3061169-1.53-12.35 1.076476 1.1920325 2.0218912 2.4961691 2.82 3.89.4451426 2.8120459.6824519 5.6530727.71 8.5z" fill="#f29c1f"/><circle id="Oval" cx="54" cy="20" fill="#3b97d3" r="2"/><circle id="Oval" cx="55" cy="10" fill="#3b97d3" r="3"/><circle id="Oval" cx="50" cy="15" fill="#2980ba" r="1"/><circle id="Oval" cx="43" cy="25" fill="#ecf0f1" r="3"/><circle id="Oval" cx="44" cy="25" fill="#35495e" r="2"/><circle id="Oval" cx="43" cy="24" fill="#ecf0f1" r="1"/></g></g></svg>