<svg height="512" viewBox="0 0 58 58" width="512" xmlns="http://www.w3.org/2000/svg"><g id="Page-1" fill="none" fill-rule="evenodd"><g id="058---Seed" fill-rule="nonzero" transform="translate(-1 -1)"><path id="Shape" d="m59 3.39c-.68 9-3.58 39-12.41 47.79-7.4211074 7.4293312-18.5089237 9.8167538-28.33 6.1-1.4390086-.544373-2.8276354-1.2135907-4.15-2-1.2026365-.7094322-2.3433404-1.518964-3.41-2.42-.6484751-.5276448-1.26930002-1.0883899-1.86-1.68-.6337978-.6324792-1.23141375-1.3002065-1.79-2-.91847392-1.1026425-1.73829275-2.2838509-2.45-3.53-.78952435-1.3241769-1.45886489-2.7164052-2-4.16-3.57479017-9.7625705-1.15534762-20.7124992 6.2-28.06 8.85-8.84 38.84-11.74 47.81-12.43.6492826-.05543756 1.2899353.17849952 1.7507179.6392821.4607826.46078257.6947197 1.10143534.6392821 1.7507179z" fill="#a56a43"/><g fill="#805333"><path id="Shape" d="m37 9.52c-.13 0-13.41 4.19-22 12.72-7.64 7.64-11.07 15.31-10.42 23.4-.78952435-1.3241769-1.45886489-2.7164052-2-4.16.66-7.1 4.33-14 11-20.65 8.92-8.9 22.23-13 22.79-13.22.5274319-.1739697 1.0960303.11256806 1.27.64s-.1125681 1.0960303-.64 1.27z"/><path id="Shape" d="m52.39 23.57c-.17.56-4.33 13.84-13.25 22.73-6.71 6.69-13.72 10.37-20.89 11-1.4390086-.544373-2.8276354-1.2135907-4.15-2 8.18.7 15.9-2.71 23.63-10.41 8.55-8.54 12.71-21.78 12.75-21.89.0968247-.3515271.3773038-.622492.7319618-.7071326.3546579-.0846407.7272733.0304604.9724083.3003774.2451349.269917.3239299.6518618.2056299.9967552z"/><path id="Shape" d="m52.07 12.44c-5.5269355 9.7254743-12.3083629 18.6822033-20.17 26.64-8.47 8.45-15.31 12.92-21.22 13.78-.6484751-.5276448-1.26930002-1.0883899-1.86-1.68-.6337978-.6324792-1.23141375-1.3002065-1.79-2 .88-5.9 5.35-12.71 13.81-21.15 8.0069374-7.8605295 17.0144136-14.6321074 26.79-20.14.4832492-.27614237 1.0988576-.10824916 1.375.375s.1082492 1.09885763-.375 1.375c-9.6241117 5.4217581-18.4934763 12.0855491-26.38 19.82-8.95 8.92-13.25 15.81-13.38 21.54 5.75-.16 12.67-4.43 21.62-13.35 7.7308794-7.8217803 14.3981834-16.6274631 19.83-26.19.2761424-.4832491.8917508-.6511424 1.375-.375.4832491.2761424.6511424.8917508.375 1.375z"/></g></g></g></svg>