<svg id="Capa_1" enable-background="new 0 0 512 512" height="512" viewBox="0 0 512 512" width="512" xmlns="http://www.w3.org/2000/svg"><g><g><g><g><g><path d="m346.612 14.789c14.844-17.69 41.336-19.839 58.845-4.642 17.14 14.877 18.714 40.983 4.125 58.369l-95.943 114.34-18.776-15.756 35.216-41.969c4.966-5.918 4.579-14.574-.754-20.164-.081-.085-.162-.17-.242-.256-10.824-11.577-12.203-29.421-3.271-42.514 3.296-4.832 7.55-8.508 12.295-11.02-2.995-12.349-.288-25.907 8.505-36.388z" fill="#8dc637"/><path d="m409.586 68.517-95.943 114.34-15.22-12.771 89.509-106.673c14.587-17.384 13.012-43.488-4.124-58.371-2.256-1.955-4.655-3.623-7.156-5.008 10.157-.414 20.493 2.899 28.81 10.112 17.136 14.883 18.711 40.987 4.124 58.371z" fill="#82b732"/></g></g></g><g><g><path d="m454.163 139.722c14.332-17.08 11.934-42.631-5.452-56.732-17.019-13.803-42.108-10.923-56.193 5.864l-105.231 125.409 18.13 15.213 46.598-55.533c4.795-5.715 13.09-6.797 19.3-2.664.094.063.189.125.284.187 12.823 8.351 30.022 6.67 40.974-4.017 4.042-3.944 6.825-8.606 8.417-13.538 12.244.776 24.683-4.071 33.173-14.189z" fill="#99d53b"/><path d="m454.166 139.723c-8.489 10.116-20.933 14.969-33.172 14.186-1.597 4.935-4.378 9.591-8.417 13.537-10.961 10.693-28.155 12.372-40.981 4.018-.093-.062-.185-.124-.278-.185-6.212-4.131-14.505-3.049-19.306 2.668l-46.595 55.527-18.131-15.205 53.951-64.294c3.925-1.02 8.252-.381 11.868 2.019.093.062.185.124.278.185 12.826 8.355 30.03 6.665 40.981-4.018 2.423-2.367 4.393-4.991 5.927-7.776 1.838-3.339 5.285-5.501 9.077-5.885 9.992-1.011 19.619-5.762 26.584-14.071 10.137-12.074 11.899-28.392 5.913-41.898 2.39 1.216 4.687 2.699 6.851 4.461 17.379 14.103 19.779 39.651 5.45 56.731z" fill="#8dc637"/><path d="m287.287 214.263 18.13 15.213 80.184-95.56c4.201-5.007 3.548-12.471-1.459-16.672-5.007-4.201-12.471-3.548-16.672 1.459z" fill="#bcea73"/><path d="m416.058 111.959c-3.204 0-6.199-2.009-7.304-5.207-1.392-4.033.748-8.432 4.783-9.824l3.172-1.095c4.034-1.392 8.432.749 9.825 4.782 1.392 4.033-.748 8.432-4.783 9.824l-3.172 1.095c-.835.288-1.685.425-2.521.425z" fill="#82b732"/></g><g><path d="m380.833 102.75c7.859-10.012 6.053-24.698-4.414-32.44-9.159-6.775-22.188-5.631-30.044 2.62-.052.055-.104.109-.155.164-2.596 2.781-6.679 3.7-10.061 1.956-14.697-7.58-33.188-4.286-44.264 8.914-10.715 12.77-11.093 30.764-2.04 43.837-3.45 8.861-1.094 19.302 6.595 25.753l.057.048c2.973 2.487 3.367 6.95.876 9.919l-29.157 34.748 19.061 15.994 93.56-111.501z" fill="#a3e440"/><path d="m328.648 125.857-28.969 34.532c-.34.402-.701.762-1.102 1.082 1.02-2.72.278-5.903-2.071-7.871l-.062-.041c-2.328-1.957-4.162-4.275-5.501-6.799l25.868-30.833c1.978-2.359 2.926-5.347 2.658-8.417s-1.72-5.851-4.079-7.829c-3.266-2.74-3.688-7.613-.948-10.879 2.74-3.276 7.613-3.698 10.889-.958 5.511 4.636 8.901 11.136 9.529 18.317.629 7.18-1.576 14.174-6.212 19.696z" fill="#99d53b"/><path d="m268.227 198.269 19.061 15.994 57.49-68.514c4.417-5.263 3.73-13.111-1.533-17.527-5.263-4.417-13.111-3.73-17.527 1.533z" fill="#dbf2b4"/></g></g></g><g><path d="m49.037 497.123c-1.71-16.683.582-33.526 6.678-49.149 27.846-71.379 113.511-276.002 184.415-287.014 34.778-5.401 107.123 55.303 107.843 90.491 1.478 72.245-203.822 212.412-273.437 257.838-10.376 6.77-24.236.159-25.499-12.166z" fill="#fca62f"/><path d="m74.534 509.292c-10.374 6.77-24.235.152-25.494-12.171-.446-4.3-.614-8.611-.524-12.909 1.11-.424 2.21-.972 3.262-1.662 69.612-45.422 274.909-185.591 273.428-257.837-.158-7.768-3.804-16.774-9.768-26.05 18.393 17.403 32.223 37.5 32.539 52.791 1.472 72.24-203.824 212.409-273.443 257.838z" fill="#fb9927"/></g><path d="m263.644 241.248c-1.525 1.823-3.719 2.761-5.924 2.761-1.751 0-3.513-.587-4.965-1.803l-59.823-50.396c3.688-3.956 7.366-7.603 11.054-10.889l58.71 49.449c3.266 2.739 3.688 7.612.948 10.878z" fill="#fcc16d"/><path d="m262.19 288.713c-1.753 0-3.515-.593-4.963-1.808l-44.652-37.468c-3.269-2.742-3.695-7.616-.952-10.885 2.742-3.27 7.616-3.696 10.885-.952l44.652 37.468c3.269 2.742 3.695 7.616.952 10.885-1.528 1.822-3.717 2.76-5.922 2.76z" fill="#fb9927"/><path d="m272.483 360.254c-3.781 3.492-7.644 6.974-11.579 10.467l-61.667-51.519c-3.266-2.74-3.698-7.613-.948-10.889 2.74-3.266 7.613-3.688 10.879-.948z" fill="#f98824"/><path d="m171.381 387.595c-1.525 1.823-3.719 2.761-5.924 2.761-1.751 0-3.513-.587-4.965-1.803l-58.267-48.655c2.256-4.759 4.564-9.55 6.923-14.35l61.285 51.169c3.266 2.74 3.688 7.613.948 10.878z" fill="#fb9927"/><path d="m144.104 415.81c-1.753 0-3.515-.593-4.963-1.808l-25.975-21.795c-3.269-2.742-3.695-7.616-.952-10.885 2.742-3.269 7.616-3.695 10.885-.953l25.975 21.795c3.269 2.743 3.695 7.617.952 10.885-1.528 1.822-3.717 2.761-5.922 2.761z" fill="#fcb44d"/><g fill="#f98824"><path d="m209.769 365.233c-1.753 0-3.515-.593-4.963-1.808l-4.714-3.956c-3.269-2.742-3.695-7.616-.952-10.885 2.742-3.269 7.616-3.696 10.885-.952l4.714 3.956c3.269 2.742 3.695 7.616.952 10.885-1.528 1.822-3.717 2.76-5.922 2.76z"/><path d="m289.272 270.486c-1.753 0-3.515-.593-4.963-1.808l-4.714-3.956c-3.269-2.742-3.695-7.616-.952-10.885 2.742-3.269 7.616-3.696 10.885-.952l4.714 3.956c3.269 2.742 3.695 7.616.952 10.885-1.528 1.821-3.717 2.76-5.922 2.76z"/></g></g></svg>