<svg id="Capa_1" enable-background="new 0 0 512 512" height="512" viewBox="0 0 512 512" width="512" xmlns="http://www.w3.org/2000/svg"><g><g><path d="m228.615 327.367h62.098v137.339h-62.098z" fill="#cf9875"/></g><g><path d="m260.415 327.367h30.298v137.339h-30.298z" fill="#c7865b"/></g><g><path d="m351.947 504.5h-184.565c-4.68 0-8.474-3.794-8.474-8.474v-7.755c0-13.015 10.551-23.565 23.566-23.565h154.383c13.015 0 23.565 10.551 23.565 23.565v7.755c-.001 4.68-3.795 8.474-8.475 8.474z" fill="#995e34"/></g><g><path d="m336.621 464.705h-30.298c13.144 0 23.8 10.656 23.8 23.799v7.436c0 4.727-3.832 8.559-8.558 8.559h30.298c4.727 0 8.558-3.832 8.558-8.559v-7.436c0-13.143-10.655-23.799-23.8-23.799z" fill="#8d562f"/></g><g><path d="m460.334 221.856c-1.214-22.621-16.532-41.137-36.97-47.488 6.777-9.916 10.478-22.05 9.785-34.969-1.677-31.247-28.367-55.218-59.614-53.541-1.048.056-2.087.146-3.119.257 1.688-6.235 2.444-12.834 2.079-19.636-1.844-34.367-31.2-60.733-65.567-58.888-20.598 1.106-38.313 12.099-48.811 28.126-10.07-9.234-23.696-14.575-38.416-13.785-24.266 1.302-43.8 18.837-48.669 41.507-10.409-5.11-22.223-7.721-34.625-7.055-38.697 2.077-68.384 35.131-66.307 73.828.881 16.411 7.347 31.187 17.437 42.622-21.918 7.327-37.17 28.57-35.871 52.767 1.496 27.877 24.411 49.51 51.93 49.833-4.85 7.001-7.508 15.599-7.016 24.762 1.177 21.941 19.919 38.773 41.86 37.595.02-.001.039-.004.059-.005 2.73 27.891 26.973 48.944 55.233 47.428 15.608-.838 29.256-8.395 38.309-19.709 10.212 10.28 24.59 16.333 40.198 15.495 18.525-.994 34.286-11.453 42.88-26.429 11.887 6.279 25.569 9.529 39.969 8.756 42.406-2.276 74.939-38.498 72.663-80.905-.157-2.93-.492-5.808-.964-8.635 20.661-8.011 34.799-28.598 33.547-51.931z" fill="#6dc17d"/></g><g><path d="m460.334 221.856c-1.214-22.621-16.532-41.137-36.97-47.488 6.778-9.916 10.479-22.05 9.785-34.969-1.677-31.247-28.367-55.218-59.614-53.542-1.048.056-2.087.146-3.119.257 1.688-6.234 2.444-12.834 2.079-19.635-1.844-34.368-31.2-60.733-65.568-58.889-4.004.215-7.898.808-11.653 1.735 25.904 6.417 45.716 29.12 47.22 57.154.365 6.801-.39 13.401-2.079 19.635 1.031-.112 2.07-.201 3.119-.257 31.247-1.677 57.937 22.294 59.614 53.542.693 12.92-3.008 25.053-9.785 34.969 20.437 6.351 35.756 24.866 36.97 47.488 1.252 23.333-12.885 43.92-33.549 51.931.472 2.828.807 5.705.964 8.635 2.077 38.707-24.851 72.247-61.813 79.537 6.167 1.227 12.582 1.72 19.149 1.367 42.407-2.276 74.939-38.498 72.663-80.905-.157-2.93-.492-5.808-.964-8.635 20.665-8.009 34.803-28.597 33.551-51.93z" fill="#68b76a"/></g><g><path d="m351.947 512h-184.565c-8.809 0-15.975-7.166-15.975-15.974v-7.755c0-17.129 13.936-31.065 31.065-31.065h154.383c17.13 0 31.065 13.936 31.065 31.065v7.755c.001 8.808-7.165 15.974-15.973 15.974zm-169.474-39.795c-8.858 0-16.065 7.207-16.065 16.065v7.755c0 .537.437.974.975.974h184.565c.537 0 .975-.437.975-.974v-7.755c0-8.858-7.207-16.065-16.065-16.065z"/></g><g><path d="m290.713 468.819c-4.143 0-7.5-3.358-7.5-7.5v-84.736c0-4.142 3.357-7.5 7.5-7.5s7.5 3.358 7.5 7.5v84.736c0 4.143-3.357 7.5-7.5 7.5z"/></g><g><path d="m228.615 468.819c-4.142 0-7.5-3.358-7.5-7.5v-15.577c0-4.142 3.358-7.5 7.5-7.5s7.5 3.358 7.5 7.5v15.577c0 4.143-3.358 7.5-7.5 7.5z"/></g><g><path d="m228.615 422.945c-4.142 0-7.5-3.358-7.5-7.5v-46.068c0-4.142 3.358-7.5 7.5-7.5s7.5 3.358 7.5 7.5v46.068c0 4.142-3.358 7.5-7.5 7.5z"/></g><g><g><ellipse cx="316.929" cy="302.36" fill="#f2b852" rx="25.494" ry="25.494" transform="matrix(.707 -.707 .707 .707 -120.974 312.662)"/></g><g><path d="m316.929 335.354c-18.193 0-32.994-14.801-32.994-32.994s14.801-32.994 32.994-32.994 32.994 14.801 32.994 32.994-14.8 32.994-32.994 32.994zm0-50.988c-9.922 0-17.994 8.072-17.994 17.994s8.072 17.994 17.994 17.994 17.994-8.072 17.994-17.994-8.072-17.994-17.994-17.994z"/></g></g><g><g><ellipse cx="357.904" cy="194.624" fill="#f2b852" rx="25.494" ry="25.494" transform="matrix(.23 -.973 .973 .23 86.257 498.238)"/></g><g><path d="m357.904 227.618c-18.193 0-32.994-14.801-32.994-32.994s14.801-32.994 32.994-32.994c18.192 0 32.993 14.801 32.993 32.994s-14.801 32.994-32.993 32.994zm0-50.988c-9.922 0-17.994 8.072-17.994 17.994s8.072 17.994 17.994 17.994 17.993-8.072 17.993-17.994-8.071-17.994-17.993-17.994z"/></g></g><g><g><ellipse cx="167.511" cy="268.681" fill="#f2b852" rx="25.494" ry="25.494" transform="matrix(.23 -.973 .973 .23 -132.468 369.981)"/></g><g><path d="m167.511 301.674c-18.193 0-32.994-14.801-32.994-32.994s14.801-32.994 32.994-32.994 32.994 14.801 32.994 32.994-14.801 32.994-32.994 32.994zm0-50.987c-9.922 0-17.994 8.072-17.994 17.994s8.072 17.994 17.994 17.994 17.994-8.072 17.994-17.994-8.072-17.994-17.994-17.994z"/></g></g><g><g><circle cx="254.863" cy="208.324" fill="#f2b852" r="25.494"/></g><g><path d="m254.863 241.318c-18.193 0-32.994-14.801-32.994-32.994s14.801-32.994 32.994-32.994 32.994 14.801 32.994 32.994c0 18.192-14.801 32.994-32.994 32.994zm0-50.988c-9.922 0-17.994 8.072-17.994 17.994s8.072 17.994 17.994 17.994 17.994-8.072 17.994-17.994-8.072-17.994-17.994-17.994z"/></g></g><g><path d="m190.833 392.792c-28.568.002-52.957-19.992-58.779-47.623-10.112-.889-19.643-5.009-27.344-11.926-9.396-8.439-14.944-20.033-15.621-32.645-.351-6.544.623-12.941 2.846-18.928-26.152-5.476-46.278-28.066-47.76-55.667-1.259-23.469 11.364-45.303 31.543-56.194-7.85-11.591-12.346-24.965-13.109-39.195-2.295-42.765 30.63-79.424 73.395-81.719 10.279-.551 20.575.957 30.218 4.39 8.311-22.014 29.041-37.552 53.076-38.842 13.495-.723 26.523 2.999 37.436 10.582 12.353-14.719 30.438-23.885 49.791-24.923 18.634-.994 36.52 5.313 50.395 17.774 13.874 12.461 22.065 29.58 23.064 48.202.221 4.104.079 8.204-.42 12.261 14.768.662 28.734 6.354 39.878 16.363 12.75 11.452 20.278 27.183 21.196 44.295.595 11.085-1.614 21.868-6.43 31.644 19.296 9.493 32.439 28.922 33.614 50.813v-.001c1.291 24.046-11.73 46.208-32.866 56.895.123 1.239.218 2.464.282 3.672 2.493 46.468-33.282 86.302-79.75 88.796-12.949.693-25.845-1.598-37.684-6.661-10.618 14.402-27.051 23.362-45.166 24.334-14.474.778-28.685-3.725-40.038-12.503-10.348 9.942-23.997 15.94-38.47 16.716-1.102.06-2.204.09-3.297.09zm-52.331-62.506c3.835 0 7.082 2.912 7.459 6.77 2.359 24.103 23.158 41.962 47.367 40.669 12.835-.689 24.81-6.851 32.855-16.905 1.335-1.669 3.32-2.689 5.454-2.804 2.135-.116 4.216.688 5.723 2.204 9.075 9.136 21.652 13.98 34.474 13.292 15.355-.824 29.104-9.3 36.777-22.672 2.01-3.504 6.436-4.786 10.008-2.9 11.059 5.84 23.539 8.572 36.064 7.898 38.209-2.051 67.626-34.804 65.576-73.014-.135-2.511-.429-5.137-.873-7.803-.585-3.506 1.372-6.942 4.686-8.227 18.259-7.079 29.821-24.977 28.771-44.536 0-.001 0-.001 0-.001-1.008-18.78-13.749-35.147-31.706-40.727-2.272-.706-4.075-2.449-4.857-4.697s-.451-4.733.892-6.698c6.136-8.976 9.07-19.465 8.487-30.335-.703-13.112-6.472-25.165-16.24-33.939-9.77-8.775-22.381-13.219-35.482-12.515-.847.045-1.734.119-2.716.225-2.458.265-4.898-.702-6.508-2.586-1.608-1.884-2.184-4.44-1.536-6.831 1.526-5.634 2.141-11.446 1.828-17.272-.784-14.622-7.216-28.063-18.109-37.846-10.894-9.785-24.948-14.733-39.566-13.956-17.347.931-33.398 10.182-42.939 24.747-1.205 1.841-3.159 3.059-5.343 3.332-2.188.277-4.378-.427-6-1.914-9.03-8.28-20.729-12.474-32.946-11.823-20.308 1.09-37.472 15.726-41.738 35.593-.485 2.258-1.983 4.166-4.061 5.174-2.078 1.007-4.505 1.002-6.577-.016-9.559-4.693-20.249-6.875-30.918-6.298-34.505 1.852-61.071 31.431-59.22 65.937.763 14.221 6.147 27.382 15.571 38.061 1.664 1.886 2.272 4.48 1.62 6.909-.653 2.429-2.48 4.369-4.866 5.167-19.196 6.416-31.845 25.025-30.759 45.252 1.271 23.686 20.831 42.457 44.528 42.735 2.774.033 5.304 1.594 6.576 4.059 1.273 2.465 1.081 5.432-.499 7.712-4.11 5.933-6.079 12.879-5.692 20.088.953 17.747 16.149 31.436 33.881 30.513.06-.004.12-.008.173-.011.128-.008.255-.011.381-.011z"/></g><g><g><ellipse cx="159.333" cy="138.921" fill="#e27f86" rx="25.494" ry="25.494" transform="matrix(.383 -.924 .924 .383 -29.988 232.962)"/></g><g><ellipse cx="159.333" cy="138.921" fill="#f2b852" rx="25.494" ry="25.494" transform="matrix(.383 -.924 .924 .383 -29.988 232.962)"/><path d="m159.333 171.915c-18.193 0-32.994-14.801-32.994-32.994s14.801-32.994 32.994-32.994 32.994 14.801 32.994 32.994-14.802 32.994-32.994 32.994zm0-50.988c-9.922 0-17.994 8.072-17.994 17.994s8.072 17.994 17.994 17.994 17.994-8.072 17.994-17.994-8.073-17.994-17.994-17.994z"/></g></g><g><g><ellipse cx="296.166" cy="87.933" fill="#e27f86" rx="25.494" ry="25.494" transform="matrix(.383 -.924 .924 .383 101.589 327.904)"/></g><g><ellipse cx="296.166" cy="87.933" fill="#f2b852" rx="25.494" ry="25.494" transform="matrix(.383 -.924 .924 .383 101.589 327.904)"/><path d="m296.166 120.927c-18.192 0-32.993-14.801-32.993-32.994s14.801-32.994 32.993-32.994c18.193 0 32.994 14.801 32.994 32.994s-14.801 32.994-32.994 32.994zm0-50.988c-9.922 0-17.993 8.072-17.993 17.994s8.071 17.994 17.993 17.994 17.994-8.072 17.994-17.994-8.073-17.994-17.994-17.994z"/></g></g></g></svg>