<svg height="480pt" viewBox="0 0 480 480" width="480pt" xmlns="http://www.w3.org/2000/svg"><path d="m472 240c0 128.128906-103.871094 232-232 232s-232-103.871094-232-232 103.871094-232 232-232 232 103.871094 232 232zm0 0" fill="#fff"/><g fill="#333"><path d="m416 192 16-80 32 72 8 72zm0 0"/><path d="m64 192-16-80-32 72-8 72zm0 0"/><path d="m48 368 88 16 48 80-80-32zm0 0"/><path d="m432 368-88 16-48 80 80-32zm0 0"/><path d="m152 24 88 40 88-40-88-24zm0 0"/><path d="m160 224 80-64 80 64-24 96h-112zm0 0"/></g><path d="m240 0c-132.546875 0-240 107.453125-240 240s107.453125 240 240 240 240-107.453125 240-240c-.148438-132.484375-107.515625-239.851562-240-240zm185.863281 115.121094-16.632812 70.703125-87.628907 29.207031-73.601562-58.871094v-86.746094l84-33.597656c38.03125 17.230469 70.523438 44.683594 93.863281 79.304688zm1.335938 247.640625-79.335938 12.527343-43.199219-57.066406 22.007813-88 86.65625-28.878906 49.640625 59.566406c-3.382812 36.371094-15.667969 71.351563-35.769531 101.851563zm-294.710938 12.582031-79.6875-12.582031c-20.101562-30.507813-32.382812-65.496094-35.761719-101.875l49.601563-59.566407 86.65625 28.878907 22.007813 88.046875zm-116.417969-138.328125c.425782-35.6875 9.429688-70.753906 26.25-102.230469l12.976563 55.199219zm174.175782 74.984375-21.222656-84.976562 70.976562-56.777344 70.992188 56.800781-21.238282 84.953125zm234.457031-122.046875 12.976563-55.199219c16.820312 31.476563 25.824218 66.539063 26.25 102.230469zm-114.519531-162.632813-70.183594 28.070313-70.558594-27.941406c45.671875-15.222657 95.042969-15.265625 140.742188-.128907zm-162.566406 8.679688 84.382812 33.441406v86.71875l-73.601562 58.871094-87.628907-29.207031-16.632812-70.703125c23.261719-34.496094 55.613281-61.878906 93.480469-79.121094zm-81.449219 345.070312 65.03125 10.273438 39.328125 61.601562c-40.960938-13.453124-77.1875-38.402343-104.359375-71.875zm127.296875 78.035157-47.738282-74.738281 42.273438-56.367188h104l42.878906 56.640625-41.597656 72.902344c-32.722656 8.058593-66.84375 8.605469-99.808594 1.601562zm122.039062-8.234375 34.097656-59.671875 64.261719-10.136719c-25.816406 31.792969-59.828125 55.929688-98.359375 69.808594zm0 0"/></svg>