<?xml version="1.0" encoding="iso-8859-1"?>
<!-- Generator: Adobe Illustrator 19.0.0, SVG Export Plug-In . SVG Version: 6.00 Build 0)  -->
<svg version="1.1" id="Capa_1" xmlns="http://www.w3.org/2000/svg" xmlns:xlink="http://www.w3.org/1999/xlink" x="0px" y="0px"
	 viewBox="0 0 512 512" style="enable-background:new 0 0 512 512;" xml:space="preserve">
<path style="fill:#303C42;" d="M256,0C147.01,0,64,213.333,64,320.094C64,425.907,150.135,512,256,512s192-86.093,192-191.906
	C448,213.333,364.99,0,256,0z"/>
<path style="fill:#FFE0B2;" d="M256,490.677c-94.104,0-170.667-76.525-170.667-170.583c0-100.961,77.271-298.771,170.667-298.771
	s170.667,197.81,170.667,298.771C426.667,414.152,350.104,490.677,256,490.677z"/>
<path style="opacity:0.1;enable-background:new    ;" d="M256,21.323c70.047,0,128,197.81,128,298.771
	c0,94.057-57.422,170.583-128,170.583c94.104,0,170.667-76.526,170.667-170.583C426.667,219.133,349.396,21.323,256,21.323z"/>
<path style="opacity:0.2;fill:#FFFFFF;enable-background:new    ;" d="M128,320.094c0-100.961,57.953-298.771,128-298.771
	c-93.396,0-170.667,197.81-170.667,298.771c0,94.057,76.563,170.583,170.667,170.583C185.422,490.677,128,414.151,128,320.094z"/>
<linearGradient id="SVGID_1_" gradientUnits="userSpaceOnUse" x1="-42.5273" y1="637.8802" x2="-25.4935" y2="629.9373" gradientTransform="matrix(21.3333 0 0 -21.3333 996.3334 13791.667)">
	<stop  offset="0" style="stop-color:#FFFFFF;stop-opacity:0.2"/>
	<stop  offset="1" style="stop-color:#FFFFFF;stop-opacity:0"/>
</linearGradient>
<path style="fill:url(#SVGID_1_);" d="M256,0C147.01,0,64,213.333,64,320.094C64,425.907,150.135,512,256,512
	s192-86.093,192-191.906C448,213.333,364.99,0,256,0z"/>
<g>
</g>
<g>
</g>
<g>
</g>
<g>
</g>
<g>
</g>
<g>
</g>
<g>
</g>
<g>
</g>
<g>
</g>
<g>
</g>
<g>
</g>
<g>
</g>
<g>
</g>
<g>
</g>
<g>
</g>
</svg>
