<svg height="512pt" viewBox="0 -25 512 511" width="512pt" xmlns="http://www.w3.org/2000/svg"><path d="m124.007812 78.382812v-10.078124h4.785157c11.078125 0 20.058593-8.980469 20.058593-20.058594 0-11.074219-8.980468-20.054688-20.058593-20.054688-.046875 0-.097657 0-.144531.003906-1.167969-9.964843-9.636719-17.695312-19.914063-17.695312-10.273437 0-18.742187 7.730469-19.910156 17.695312-.050781 0-.097657-.003906-.144531-.003906-11.078126 0-20.058594 8.980469-20.058594 20.054688 0 11.078125 8.980468 20.058594 20.058594 20.058594h4.785156v10.078124zm0 0" fill="#cbe558"/><path d="m157.378906 118.648438c0-22.238282-21.777344-40.265626-48.644531-40.265626s-48.644531 18.027344-48.644531 40.265626c0 22.238281 28.222656 140.140624 48.644531 140.140624 20.425781 0 48.644531-117.902343 48.644531-140.140624zm0 0" fill="#ff765b"/><path d="m221.296875 78.382812v-10.078124h4.785156c11.078125 0 20.058594-8.980469 20.058594-20.058594 0-11.074219-8.980469-20.054688-20.058594-20.054688-.046875 0-.097656 0-.144531.003906-1.167969-9.964843-9.636719-17.695312-19.914062-17.695312-10.277344 0-18.742188 7.730469-19.910157 17.695312-.050781 0-.097656-.003906-.144531-.003906-11.078125 0-20.058594 8.980469-20.058594 20.054688 0 11.078125 8.980469 20.058594 20.058594 20.058594h4.785156v10.078124zm0 0" fill="#cbe558"/><path d="m254.671875 118.648438c0-22.238282-21.78125-40.265626-48.648437-40.265626-26.863282 0-48.644532 18.027344-48.644532 40.265626 0 22.238281 28.222656 140.140624 48.644532 140.140624 20.425781 0 48.648437-117.902343 48.648437-140.140624zm0 0" fill="#ff765b"/><path d="m318.589844 78.382812v-10.078124h4.78125c11.078125 0 20.058594-8.980469 20.058594-20.058594 0-11.074219-8.980469-20.054688-20.058594-20.054688-.046875 0-.09375 0-.144532.003906-1.167968-9.964843-9.636718-17.695312-19.910156-17.695312-10.277344 0-18.746094 7.730469-19.914062 17.695312-.046875 0-.09375-.003906-.144532-.003906-11.074218 0-20.054687 8.980469-20.054687 20.054688 0 11.078125 8.980469 20.058594 20.054687 20.058594h4.785157v10.078124zm0 0" fill="#cbe558"/><path d="m351.960938 118.648438c0-22.238282-21.78125-40.265626-48.644532-40.265626-26.867187 0-48.644531 18.027344-48.644531 40.265626 0 22.238281 28.21875 140.140624 48.644531 140.140624 20.421875 0 48.644532-117.902343 48.644532-140.140624zm0 0" fill="#ff765b"/><path d="m415.878906 78.382812v-10.078124h4.78125c11.078125 0 20.058594-8.980469 20.058594-20.058594 0-11.074219-8.980469-20.054688-20.058594-20.054688-.046875 0-.09375 0-.140625.003906-1.171875-9.964843-9.636719-17.695312-19.914062-17.695312-10.277344 0-18.742188 7.730469-19.914063 17.695312-.046875 0-.09375-.003906-.140625-.003906-11.078125 0-20.058593 8.980469-20.058593 20.054688 0 11.078125 8.980468 20.058594 20.058593 20.058594h4.78125v10.078124zm0 0" fill="#cbe558"/><path d="m449.25 118.648438c0-22.238282-21.78125-40.265626-48.644531-40.265626-26.867188 0-48.644531 18.027344-48.644531 40.265626 0 22.238281 28.21875 140.140624 48.644531 140.140624 20.421875 0 48.644531-117.902343 48.644531-140.140624zm0 0" fill="#ff765b"/><path d="m466 229.851562h-420c-8.835938 0-16-7.160156-16-16v-16c0-8.835937 7.164062-16 16-16h420c8.835938 0 16 7.164063 16 16v16c0 8.835938-7.164062 16-16 16zm0 0" fill="#ffd89e"/><path d="m411 451.851562h-310c-29.269531 0-53-23.726562-53-53v-169h416v169c0 29.273438-23.730469 53-53 53zm0 0" fill="#ffcb7c"/><path d="m490.976562 221.054688c.664063-2.289063 1.023438-4.703126 1.023438-7.203126v-16c0-14.335937-11.664062-26-26-26h-16.226562c5.644531-22.972656 9.476562-44.191406 9.476562-53.203124 0-17.878907-10.957031-33.59375-27.40625-42.507813 11.050781-4.445313 18.875-15.273437 18.875-27.894531 0-13.882813-9.460938-25.597656-22.273438-29.035156-4.503906-11.066407-15.367187-18.710938-27.839843-18.710938-12.476563 0-23.335938 7.644531-27.839844 18.710938-9.84375 2.640624-17.6875 10.171874-20.804687 19.8125-3.117188-9.640626-10.964844-17.171876-20.804688-19.8125-4.507812-11.066407-15.367188-18.710938-27.839844-18.710938s-23.335937 7.644531-27.839844 18.710938c-9.84375 2.640624-17.6875 10.175781-20.804687 19.8125-3.121094-9.636719-10.964844-17.171876-20.808594-19.8125-4.503906-11.066407-15.363281-18.710938-27.839843-18.710938-12.472657 0-23.332032 7.640625-27.839844 18.710938-9.839844 2.640624-17.6875 10.175781-20.804688 19.8125-3.117187-9.640626-10.960937-17.171876-20.804687-19.8125-4.503907-11.066407-15.363281-18.710938-27.839844-18.710938-12.472656 0-23.335937 7.640625-27.839844 18.710938-12.8125 3.4375-22.273437 15.152343-22.273437 29.035156 0 12.625 7.824218 23.449218 18.875 27.894531-16.449219 8.914063-27.40625 24.628906-27.40625 42.507813 0 9.011718 3.832031 30.230468 9.476562 53.203124h-13.566406c-14.335938 0-26 11.664063-26 26v16c0 2.5.359375 4.914063 1.023438 7.203126-12.136719 3.582031-21.023438 14.824218-21.023438 28.105468v27.523438c0 12.144531 7.308594 22.851562 18.613281 27.285156l19.386719 7.597656v87.285156c0 34.738282 28.261719 63 63 63h114.6875c5.523438 0 10-4.476562 10-10 0-5.519531-4.476562-10-10-10h-114.6875c-23.710938 0-43-19.289062-43-43v-159h396v159c0 23.710938-19.289062 43-43 43h-115.3125c-5.523438 0-10 4.480469-10 10 0 5.523438 4.476562 10 10 10h115.3125c34.738281 0 63-28.261718 63-63v-87.285156l19.386719-7.597656c11.304687-4.429688 18.613281-15.140625 18.613281-27.285156v-27.523438c0-13.28125-8.886719-24.523437-21.023438-28.105468zm-53.777343-85.917969h-8.351563c-5.519531 0-10 4.476562-10 10 0 5.519531 4.480469 10 10 10h4.316406c-1.183593 5.28125-2.523437 10.894531-4.007812 16.71875h-57.105469c-5.050781-19.839844-8.445312-37.292969-9.625-47.160157h8.050781c5.519532 0 10-4.480468 10-10 0-5.523437-4.480468-10-10-10h-4.144531c6.453125-9.683593 19.390625-16.3125 34.273438-16.3125 21.308593 0 38.644531 13.578126 38.644531 30.265626 0 3.078124-.714844 8.863281-2.050781 16.488281zm-269.355469-10.445313h8.054688c5.519531 0 10-4.476562 10-10 0-5.519531-4.480469-10-10-10h-4.148438c6.453125-9.679687 19.390625-16.308594 34.277344-16.308594 21.308594 0 38.644531 13.578126 38.644531 30.265626 0 3.078124-.714844 8.863281-2.050781 16.484374h-8.351563c-5.519531 0-10 4.480469-10 10 0 5.523438 4.480469 10 10 10h4.316407c-1.183594 5.28125-2.523438 10.898438-4.007813 16.71875h-57.105469c-5.054687-19.835937-8.445312-37.289062-9.628906-47.160156zm97.292969 0h8.050781c5.523438 0 10-4.476562 10-10 0-5.519531-4.476562-10-10-10h-4.148438c6.453126-9.679687 19.390626-16.308594 34.277344-16.308594 21.308594 0 38.644532 13.578126 38.644532 30.265626 0 3.078124-.714844 8.863281-2.046876 16.484374h-8.355468c-5.519532 0-10 4.480469-10 10 0 5.523438 4.480468 10 10 10h4.316406c-1.183594 5.28125-2.519531 10.898438-4.003906 16.71875h-57.109375c-5.050781-19.835937-8.445313-37.289062-9.625-47.160156zm115.300781-86.5h.253906c5.070313 0 9.339844-3.796875 9.929688-8.832031.597656-5.050781 4.886718-8.859375 9.984375-8.859375 5.09375 0 9.386719 3.808594 9.980469 8.859375.589843 5.035156 4.859374 8.832031 9.929687 8.832031h.265625c5.488281.0625 9.9375 4.546875 9.9375 10.054688 0 5.546875-4.511719 10.058594-10.058594 10.058594h-4.78125c-5.523437 0-10 4.476562-10 10v.292968c-1.742187-.132812-3.496094-.214844-5.273437-.214844-1.78125 0-3.535157.082032-5.273438.214844v-.292968c0-5.523438-4.480469-10-10-10h-4.785156c-5.542969 0-10.058594-4.511719-10.058594-10.058594 0-5.507813 4.453125-10 9.949219-10.054688zm-28.476562 19.34375c2.757812 8.476563 9.191406 15.300782 17.402343 18.605469-6.898437 3.742187-12.839843 8.667969-17.402343 14.464844-4.5625-5.796875-10.503907-10.726563-17.40625-14.464844 8.214843-3.304687 14.644531-10.128906 17.40625-18.605469zm-68.8125-19.34375h.253906c5.070312 0 9.339844-3.792968 9.929687-8.832031.59375-5.050781 4.886719-8.859375 9.980469-8.859375 5.097656 0 9.390625 3.808594 9.984375 8.859375.601563 5.125 5.023437 8.949219 10.191406 8.832031 5.492188.0625 9.941407 4.546875 9.941407 10.054688 0 5.546875-4.515626 10.058594-10.058594 10.058594h-4.785156c-5.519532 0-10 4.476562-10 10v.292968c-1.738282-.132812-3.492188-.214844-5.273438-.214844-1.777344 0-3.53125.082032-5.269531.214844v-.292968c0-5.523438-4.480469-10-10-10h-4.785157c-5.542968 0-10.058593-4.511719-10.058593-10.058594 0-5.507813 4.453125-10 9.949219-10.054688zm-28.476563 19.34375c2.757813 8.472656 9.1875 15.300782 17.402344 18.605469-6.902344 3.738281-12.84375 8.667969-17.402344 14.460937-4.5625-5.792968-10.503906-10.722656-17.40625-14.460937 8.214844-3.304687 14.644531-10.132813 17.40625-18.605469zm-68.8125-19.34375h.25c5.074219 0 9.339844-3.792968 9.933594-8.832031.59375-5.050781 4.886719-8.859375 9.980469-8.859375 5.097656 0 9.390624 3.808594 9.984374 8.859375.601563 5.125 4.996094 8.980469 10.191407 8.832031 5.492187.0625 9.9375 4.546875 9.9375 10.054688 0 5.546875-4.511719 10.058594-10.058594 10.058594h-4.78125c-5.523437 0-10 4.476562-10 10v.292968c-1.738281-.132812-3.496094-.214844-5.273437-.214844-1.777344 0-3.535157.082032-5.273438.214844v-.292968c0-5.523438-4.476562-10-10-10h-4.78125c-5.546875 0-10.058594-4.511719-10.058594-10.058594 0-5.507813 4.453125-10 9.949219-10.054688zm-28.480469 19.34375c2.761719 8.476563 9.191406 15.300782 17.40625 18.605469-6.902344 3.742187-12.84375 8.667969-17.40625 14.464844-4.5625-5.796875-10.503906-10.726563-17.40625-14.464844 8.214844-3.304687 14.648438-10.128906 17.40625-18.605469zm-63.917968.769532h-4.78125c-5.546876 0-10.058594-4.515626-10.058594-10.058594 0-5.511719 4.453125-10 9.949218-10.058594.089844.003906.179688.003906.25.003906 5.074219 0 9.339844-3.796875 9.933594-8.832031.59375-5.050781 4.886719-8.859375 9.980469-8.859375 5.097656 0 9.386719 3.808594 9.980469 8.859375.59375 5.035156 4.859375 8.832031 9.933594 8.832031.085937 0 .175781 0 .261718-.003906 5.492188.066406 9.9375 4.550781 9.9375 10.058594 0 5.542968-4.511718 10.058594-10.058594 10.058594h-4.78125c-5.523437 0-10 4.476562-10 10v.292968c-1.738281-.136718-3.496093-.214844-5.273437-.214844s-3.535156.082032-5.273437.214844v-.292968c0-5.523438-4.476563-10-10-10zm-22.90625 66.386718h8.050781c5.523437 0 10-4.476562 10-10 0-5.519531-4.476563-10-10-10h-4.144531c6.453124-9.679687 19.390624-16.308594 34.273437-16.308594 21.3125 0 38.648437 13.578126 38.648437 30.265626 0 3.078124-.714843 8.863281-2.050781 16.484374h-8.351562c-5.523438 0-10 4.480469-10 10 0 5.523438 4.476562 10 10 10h4.316406c-1.183594 5.28125-2.523437 10.898438-4.007813 16.71875h-57.105468c-5.054688-19.835937-8.449219-37.289062-9.628906-47.160156zm-44.644532 160.65625c-3.589844-1.40625-5.910156-4.808594-5.910156-8.664062v-27.523438c0-5.132812 4.175781-9.308594 9.308594-9.308594h8.691406v50.234376zm22.089844-65.496094h-2c-3.308594 0-6-2.691406-6-6v-16c0-3.308593 2.691406-6 6-6h420c3.308594 0 6 2.691407 6 6v16c0 3.308594-2.691406 6-6 6zm444 56.832032c0 3.855468-2.320312 7.257812-5.910156 8.664062l-12.089844 4.738282v-50.230469h8.691406c5.132813 0 9.308594 4.171875 9.308594 9.304687zm0 0"/><path d="m152.601562 271.425781c-3.90625-3.902343-10.238281-3.902343-14.144531 0l-7.847656 7.847657-7.84375-7.847657c-3.90625-3.902343-10.238281-3.902343-14.144531 0-3.90625 3.90625-3.90625 10.238281 0 14.144531l14.917968 14.917969c1.953126 1.953125 4.511719 2.929688 7.070313 2.929688s5.117187-.976563 7.070313-2.929688l14.917968-14.917969c3.910156-3.90625 3.910156-10.238281.003906-14.144531zm0 0"/><path d="m222.050781 271.425781-7.847656 7.847657-7.847656-7.847657c-3.90625-3.902343-10.238281-3.902343-14.140625 0-3.90625 3.90625-3.90625 10.238281 0 14.144531l14.917968 14.917969c1.953126 1.953125 4.511719 2.929688 7.070313 2.929688s5.117187-.976563 7.070313-2.929688l14.917968-14.917969c3.90625-3.90625 3.90625-10.238281 0-14.144531-3.90625-3.902343-10.234375-3.902343-14.140625 0zm0 0"/><path d="m290.726562 300.488281c1.953126 1.949219 4.511719 2.925781 7.070313 2.925781s5.117187-.976562 7.070313-2.925781l14.917968-14.917969c3.90625-3.90625 3.90625-10.238281 0-14.144531-3.902344-3.902343-10.234375-3.90625-14.140625 0l-7.847656 7.847657-7.847656-7.847657c-3.90625-3.902343-10.238281-3.902343-14.144531 0-3.90625 3.90625-3.90625 10.238281 0 14.144531zm0 0"/><path d="m374.316406 300.488281c1.953125 1.949219 4.511719 2.925781 7.070313 2.925781 2.558593 0 5.121093-.976562 7.074219-2.925781l14.917968-14.917969c3.902344-3.90625 3.902344-10.238281 0-14.144531-3.90625-3.902343-10.238281-3.902343-14.144531 0l-7.847656 7.847657-7.847657-7.847657c-3.90625-3.902343-10.234374-3.902343-14.140624 0-3.90625 3.90625-3.90625 10.238281 0 14.144531zm0 0"/><path d="m152.601562 326.320312c-3.90625-3.902343-10.238281-3.902343-14.144531 0l-7.847656 7.851563-7.84375-7.851563c-3.90625-3.902343-10.238281-3.902343-14.144531 0-3.90625 3.90625-3.90625 10.238282 0 14.144532l14.917968 14.917968c1.875 1.875 4.417969 2.929688 7.070313 2.929688s5.195313-1.054688 7.070313-2.929688l14.917968-14.917968c3.910156-3.90625 3.910156-10.238282.003906-14.144532zm0 0"/><path d="m222.050781 326.320312-7.847656 7.851563-7.847656-7.851563c-3.90625-3.902343-10.234375-3.902343-14.140625 0-3.90625 3.90625-3.90625 10.238282 0 14.144532l14.917968 14.917968c1.875 1.875 4.417969 2.929688 7.070313 2.929688s5.195313-1.054688 7.070313-2.929688l14.917968-14.917968c3.90625-3.90625 3.90625-10.238282 0-14.144532-3.90625-3.902343-10.238281-3.902343-14.140625 0zm0 0"/><path d="m275.808594 340.464844 14.917968 14.917968c1.875 1.875 4.417969 2.929688 7.070313 2.929688s5.195313-1.054688 7.070313-2.929688l14.917968-14.917968c3.90625-3.90625 3.90625-10.238282 0-14.144532-3.90625-3.902343-10.234375-3.902343-14.140625 0l-7.847656 7.851563-7.847656-7.851563c-3.90625-3.902343-10.234375-3.902343-14.144531 0-3.902344 3.90625-3.902344 10.238282.003906 14.144532zm0 0"/><path d="m359.398438 340.464844 14.917968 14.917968c1.875 1.875 4.417969 2.929688 7.070313 2.929688 2.652343 0 5.199219-1.054688 7.074219-2.929688l14.917968-14.917968c3.902344-3.90625 3.902344-10.238282 0-14.144532-3.90625-3.902343-10.238281-3.902343-14.144531 0l-7.847656 7.851563-7.847657-7.851563c-3.902343-3.902343-10.234374-3.902343-14.140624 0-3.90625 3.90625-3.90625 10.238282 0 14.144532zm0 0"/><path d="m138.457031 381.21875-7.847656 7.847656-7.84375-7.847656c-3.90625-3.902344-10.238281-3.902344-14.144531 0-3.90625 3.90625-3.90625 10.238281 0 14.144531l14.917968 14.917969c1.953126 1.949219 4.511719 2.929688 7.070313 2.929688s5.117187-.980469 7.070313-2.929688l14.917968-14.917969c3.90625-3.90625 3.90625-10.238281 0-14.144531-3.902344-3.90625-10.234375-3.90625-14.140625 0zm0 0"/><path d="m222.050781 381.21875-7.847656 7.847656-7.847656-7.847656c-3.90625-3.902344-10.238281-3.902344-14.140625 0-3.90625 3.90625-3.90625 10.238281 0 14.144531l14.917968 14.917969c1.953126 1.949219 4.511719 2.929688 7.070313 2.929688s5.117187-.980469 7.070313-2.929688l14.917968-14.917969c3.90625-3.90625 3.90625-10.238281 0-14.144531s-10.234375-3.90625-14.140625 0zm0 0"/><path d="m297.796875 413.207031c2.558594 0 5.117187-.976562 7.070313-2.929687l14.917968-14.917969c3.90625-3.902344 3.90625-10.234375 0-14.140625-3.902344-3.902344-10.234375-3.90625-14.140625 0l-7.847656 7.847656-7.847656-7.847656c-3.90625-3.90625-10.238281-3.90625-14.144531 0-3.90625 3.902344-3.90625 10.234375 0 14.140625l14.917968 14.917969c1.957032 1.953125 4.511719 2.929687 7.074219 2.929687zm0 0"/><path d="m359.398438 395.359375 14.917968 14.917969c1.953125 1.953125 4.511719 2.929687 7.070313 2.929687 2.558593 0 5.121093-.976562 7.074219-2.929687l14.917968-14.917969c3.902344-3.902344 3.902344-10.234375 0-14.140625-3.90625-3.90625-10.238281-3.90625-14.144531 0l-7.847656 7.847656-7.847657-7.847656c-3.90625-3.90625-10.234374-3.90625-14.140624 0s-3.90625 10.238281 0 14.140625zm0 0"/><path d="m256 441.855469c-2.628906 0-5.210938 1.0625-7.070312 2.929687-1.859376 1.859375-2.929688 4.441406-2.929688 7.070313 0 2.628906 1.070312 5.210937 2.929688 7.070312 1.859374 1.859375 4.441406 2.929688 7.070312 2.929688s5.210938-1.070313 7.070312-2.929688c1.859376-1.871093 2.929688-4.441406 2.929688-7.070312 0-2.628907-1.070312-5.210938-2.929688-7.070313-1.859374-1.867187-4.441406-2.929687-7.070312-2.929687zm0 0"/></svg>