<?xml version="1.0" encoding="iso-8859-1"?>
<!-- Generator: Adobe Illustrator 16.0.0, SVG Export Plug-In . SVG Version: 6.00 Build 0)  -->
<!DOCTYPE svg PUBLIC "-//W3C//DTD SVG 1.1//EN" "http://www.w3.org/Graphics/SVG/1.1/DTD/svg11.dtd">
<svg version="1.1" id="Capa_1" xmlns="http://www.w3.org/2000/svg" xmlns:xlink="http://www.w3.org/1999/xlink" x="0px" y="0px"
	 width="287.282px" height="287.281px" viewBox="0 0 287.282 287.281" style="enable-background:new 0 0 287.282 287.281;"
	 xml:space="preserve">
<g>
	<path d="M103.466,23.539c0,14.598,0,43.072,0,61.906c0,10.19-8.257,18.453-18.447,18.453h-62.6c0,0-22.236,1.213-22.236,21.99
		v33.023c0,0-0.738,25.328,21.497,25.328h63.339c10.19,0,18.447,8.264,18.447,18.447v61.669c0,0,0,22.927,22.236,22.927h34.429
		c0,0,23.664-1.411,23.664-21.521v-62.966c0-10.185,8.263-18.447,18.447-18.447h61.171c0,0,23.688,0.385,23.688-22.59v-35.87
		c0,0-0.721-21.878-22.944-21.878h-61.183c-10.184,0-18.446-8.257-18.446-18.447V41.538c0-10.19-0.901-27.013-7.326-34.405
		C173.731,3.161,168.723,0,161.565,0c-19.365,0-35.164,0.381-35.164,0.381S103.466,0.609,103.466,23.539z"/>
</g>
<g>
</g>
<g>
</g>
<g>
</g>
<g>
</g>
<g>
</g>
<g>
</g>
<g>
</g>
<g>
</g>
<g>
</g>
<g>
</g>
<g>
</g>
<g>
</g>
<g>
</g>
<g>
</g>
<g>
</g>
</svg>
