<svg id="Layer_1" enable-background="new 0 0 512 512" height="512" viewBox="0 0 512 512" width="512" xmlns="http://www.w3.org/2000/svg"><g><g><path d="m407.263 332.267c5.967-204.201-19.279-332.267-151.263-332.267-132.004 0-157.24 128.013-151.263 332.267z" fill="#2d4456"/><path d="m296.808 281.835h-81.616c-45.256 0-85.391 19.836-110.456 50.431.486 12.921 1.079 26.111 1.773 39.588h.001c-.001 0 298.978 0 298.978 0h.001c.694-13.477 1.288-26.667 1.773-39.588-25.063-30.595-65.198-50.431-110.454-50.431z" fill="#253847"/><path d="m408.114 502.36h-304.228l-9.64-9.64v-66.861c0-36.624 15.783-69.561 40.918-92.382h241.672c25.135 22.821 40.918 55.758 40.918 92.382v66.861z" fill="#86dcff"/><path d="m99.602 512h51.018l7.5-9 7.5 9h180.76l7.5-9 7.5 9h51.018c2.958 0 5.356-2.398 5.356-5.356v-13.924h-323.508v13.925c0 2.957 2.398 5.355 5.356 5.355z" fill="#56caed"/><path d="m256 406.558 80.641-88.733-.533-9.056c-13.432-4.948-27.948-7.653-43.097-7.653h-74.022c-15.008 0-29.394 2.655-42.721 7.515l.42 10.658z" fill="#e4eef9"/><path d="m175.894 308.773c-4.31 1.588-8.51 3.402-12.582 5.436l3.316 14.257 89.372 97.372 90.281-98.373 2.407-13.256c-4.072-2.034-8.272-3.848-12.582-5.436l-76.143 83.783c-2.125 2.338-5.802 2.338-7.927 0z" fill="#d5e0f2"/><path d="m256 406.558s13.877-15.27 22.688-24.965l1.987-11.826-5.909-32.388-18.766-9.642-18.766 9.64-5.909 32.389 1.987 11.826z" fill="#ff5876"/><path d="m274.766 337.378h-37.532l-8.186-36.262h53.904z" fill="#e6485d"/><path d="m283.605 385.822-2.93-16.056-20.712 22.79c-2.125 2.338-5.802 2.338-7.927 0l-20.712-22.79-2.929 16.056 27.605 49.656z" fill="#e6485d"/><path d="m163.312 314.21c-6.359 3.177-12.409 6.879-18.093 11.051l1.23 10.994 97.66 107.46c6.375 7.015 17.405 7.015 23.78 0l98.718-108.624.172-9.83c-5.684-4.172-11.735-7.874-18.093-11.051l-88.986 97.916c-1.984 2.183-5.417 2.183-7.4 0z" fill="#ffcf4d"/><path d="m267.89 434.074c-6.375 7.015-17.405 7.015-23.78 0l-98.889-108.811c-3.495 2.565-6.853 5.306-10.057 8.215l108.946 119.876c6.375 7.015 17.405 7.015 23.78 0l108.945-119.877c-3.204-2.909-6.562-5.649-10.057-8.215z" fill="#ffb629"/><path d="m165.62 437.98v54.74l-7.5 9.64-7.5-9.64v-54.74c0-4.15 3.36-7.5 7.5-7.5 4.15 0 7.5 3.35 7.5 7.5z" fill="#4ea1f4"/><path d="m150.62 492.72h15v19.28h-15z" fill="#3292e0"/><path d="m361.38 437.98v54.74l-7.5 9.64-7.5-9.64v-54.74c0-4.15 3.36-7.5 7.5-7.5 4.15 0 7.5 3.35 7.5 7.5z" fill="#4ea1f4"/><path d="m346.38 492.72h15v19.28h-15z" fill="#3292e0"/><path d="m331.809 102.15-10.354 29.819c-2.245 6.463-8.336 10.796-15.178 10.796h-100.554c-6.842 0-12.933-4.333-15.178-10.796l-10.535-30.339c-1.454-4.188-7.236-4.552-9.204-.579l-16.05 32.401v56.78 9.64c0 55.916 45.328 101.244 101.244 101.244 55.916 0 101.244-45.329 101.244-101.244v-9.64-53.11l-16.163-35.407c-1.873-4.104-7.792-3.825-9.272.435z" fill="#ffe0cc"/><path d="m256 291.475c-55.916 0-101.244-45.328-101.244-101.244v19.28c0 55.915 45.328 101.244 101.244 101.244 55.916 0 101.244-45.328 101.244-101.244v-19.28c0 55.916-45.328 101.244-101.244 101.244z" fill="#ffceb3"/></g><g><path d="m206.941 170.362c-4.437 0-8.033 3.597-8.033 8.034v22.698c0 4.437 3.597 8.033 8.033 8.033 4.437 0 8.034-3.597 8.034-8.033v-22.698c-.001-4.437-3.597-8.034-8.034-8.034z" fill="#2d4456"/><path d="m305.059 209.127c4.437 0 8.033-3.597 8.033-8.033v-22.698c0-4.437-3.596-8.034-8.033-8.034s-8.034 3.597-8.034 8.034v22.698c0 4.436 3.596 8.033 8.034 8.033z" fill="#2d4456"/><path d="m256 261.119c28.558 0 37.192-20.07 37.569-20.981 0-.002.002-.005.003-.006 2.275-5.112-1.769-11.281-7.404-11.155-3.348 0-6.215 2.049-7.422 4.96-.406.86-5.621 11.116-22.745 11.116-17.12 0-22.336-10.25-22.745-11.115-1.207-2.911-4.074-4.96-7.422-4.96-5.635-.127-9.679 6.044-7.404 11.155.001.001.002.005.003.006.375.91 9.009 20.98 37.567 20.98z" fill="#ff5876"/></g></g></svg>