<svg height="512" viewBox="0 0 128 128" width="512" xmlns="http://www.w3.org/2000/svg"><g><g><path d="m1.75 48.439h124.5v19.003h-124.5z" fill="#bc8871"/><path d="m19.008 59.69h-7.25a1.75 1.75 0 1 1 0-3.5h7.25a1.75 1.75 0 0 1 0 3.5z" fill="#edf1d3"/><path d="m116.242 59.69h-7.25a1.75 1.75 0 0 1 0-3.5h7.25a1.75 1.75 0 1 1 0 3.5z" fill="#edf1d3"/><path d="m1.75 67.442h124.5v19.003h-124.5z" fill="#6d4c41"/><path d="m56.19 27.261a15.323 15.323 0 0 1 5.709-1.1h4.2a15.323 15.323 0 0 1 5.709 1.1 12.184 12.184 0 0 0 5.244-10.02 12.16 12.16 0 0 0 -8.704 3.659 16.625 16.625 0 0 0 -4.348-7.592 16.616 16.616 0 0 0 -4.348 7.592 12.16 12.16 0 0 0 -8.706-3.656 12.184 12.184 0 0 0 5.244 10.017z" fill="#a2d962"/><path d="m19.008 78.693h-7.25a1.75 1.75 0 1 1 0-3.5h7.25a1.75 1.75 0 0 1 0 3.5z" fill="#edf1d3"/><path d="m116.242 78.693h-7.25a1.75 1.75 0 0 1 0-3.5h7.25a1.75 1.75 0 0 1 0 3.5z" fill="#edf1d3"/><path d="m1.75 86.445h124.5v19.003h-124.5z" fill="#bc8871"/><path d="m19.008 97.7h-7.25a1.75 1.75 0 1 1 0-3.5h7.25a1.75 1.75 0 0 1 0 3.5z" fill="#edf1d3"/><path d="m116.242 97.7h-7.25a1.75 1.75 0 1 1 0-3.5h7.25a1.75 1.75 0 0 1 0 3.5z" fill="#edf1d3"/><path d="m9.844 105.448h14.531v9.244h-14.531z" fill="#ffe671"/><path d="m103.625 105.448h14.531v9.244h-14.531z" fill="#ffe671" transform="matrix(-1 0 0 -1 221.781 220.14)"/><path d="m79.828 48.439a15.361 15.361 0 0 0 1.646-6.905 15.373 15.373 0 0 0 -15.374-15.373h-4.2a15.373 15.373 0 0 0 -15.374 15.373 15.361 15.361 0 0 0 1.646 6.905z" fill="#ef5350"/><path d="m98.181 27.261a15.314 15.314 0 0 1 5.708-1.1h4.2a15.314 15.314 0 0 1 5.708 1.1 12.184 12.184 0 0 0 5.244-10.02 12.16 12.16 0 0 0 -8.706 3.656 16.616 16.616 0 0 0 -4.348-7.589 16.614 16.614 0 0 0 -4.347 7.589 12.16 12.16 0 0 0 -8.706-3.656 12.184 12.184 0 0 0 5.247 10.02z" fill="#a2d962"/><path d="m121.819 48.439a15.374 15.374 0 0 0 1.646-6.905 15.373 15.373 0 0 0 -15.373-15.373h-4.2a15.373 15.373 0 0 0 -15.376 15.373 15.374 15.374 0 0 0 1.646 6.905z" fill="#ef5350"/><path d="m29.819 27.261a15.314 15.314 0 0 0 -5.708-1.1h-4.2a15.314 15.314 0 0 0 -5.708 1.1 12.184 12.184 0 0 1 -5.244-10.02 12.16 12.16 0 0 1 8.703 3.659 16.614 16.614 0 0 1 4.347-7.589 16.616 16.616 0 0 1 4.348 7.589 12.16 12.16 0 0 1 8.706-3.656 12.184 12.184 0 0 1 -5.244 10.017z" fill="#a2d962"/><path d="m6.181 48.439a15.374 15.374 0 0 1 -1.646-6.905 15.373 15.373 0 0 1 15.373-15.373h4.2a15.373 15.373 0 0 1 15.376 15.373 15.374 15.374 0 0 1 -1.646 6.905z" fill="#ef5350"/><g fill="#e53935"><g><path d="m60.766 36.465a1.749 1.749 0 0 1 -1.75-1.75v-2.315a1.75 1.75 0 0 1 3.5 0v2.313a1.75 1.75 0 0 1 -1.75 1.752z"/><path d="m67.234 36.465a1.75 1.75 0 0 1 -1.75-1.75v-2.315a1.75 1.75 0 0 1 3.5 0v2.313a1.749 1.749 0 0 1 -1.75 1.752z"/></g><path d="m55.529 44.673a1.75 1.75 0 0 1 -1.75-1.75v-2.313a1.75 1.75 0 0 1 3.5 0v2.313a1.749 1.749 0 0 1 -1.75 1.75z"/><path d="m64 44.673a1.75 1.75 0 0 1 -1.75-1.75v-2.313a1.75 1.75 0 0 1 3.5 0v2.313a1.75 1.75 0 0 1 -1.75 1.75z"/><path d="m72.471 44.673a1.749 1.749 0 0 1 -1.75-1.75v-2.313a1.75 1.75 0 0 1 3.5 0v2.313a1.75 1.75 0 0 1 -1.75 1.75z"/><g><path d="m102.756 36.465a1.749 1.749 0 0 1 -1.75-1.75v-2.315a1.75 1.75 0 0 1 3.5 0v2.313a1.749 1.749 0 0 1 -1.75 1.752z"/><path d="m109.225 36.465a1.749 1.749 0 0 1 -1.75-1.75v-2.315a1.75 1.75 0 0 1 3.5 0v2.313a1.75 1.75 0 0 1 -1.75 1.752z"/></g><path d="m97.519 44.673a1.75 1.75 0 0 1 -1.75-1.75v-2.313a1.75 1.75 0 0 1 3.5 0v2.313a1.749 1.749 0 0 1 -1.75 1.75z"/><path d="m105.99 44.673a1.749 1.749 0 0 1 -1.75-1.75v-2.313a1.75 1.75 0 0 1 3.5 0v2.313a1.749 1.749 0 0 1 -1.75 1.75z"/><path d="m114.461 44.673a1.749 1.749 0 0 1 -1.75-1.75v-2.313a1.75 1.75 0 0 1 3.5 0v2.313a1.749 1.749 0 0 1 -1.75 1.75z"/><g><path d="m25.244 36.465a1.75 1.75 0 0 1 -1.75-1.75v-2.315a1.75 1.75 0 0 1 3.5 0v2.313a1.75 1.75 0 0 1 -1.75 1.752z"/><path d="m18.775 36.465a1.75 1.75 0 0 1 -1.75-1.75v-2.315a1.75 1.75 0 0 1 3.5 0v2.313a1.75 1.75 0 0 1 -1.75 1.752z"/></g><path d="m30.48 44.673a1.75 1.75 0 0 1 -1.75-1.75v-2.313a1.75 1.75 0 1 1 3.5 0v2.313a1.75 1.75 0 0 1 -1.75 1.75z"/><path d="m22.009 44.673a1.75 1.75 0 0 1 -1.75-1.75v-2.313a1.75 1.75 0 0 1 3.5 0v2.313a1.749 1.749 0 0 1 -1.75 1.75z"/><path d="m13.539 44.673a1.75 1.75 0 0 1 -1.75-1.75v-2.313a1.75 1.75 0 0 1 3.5 0v2.313a1.75 1.75 0 0 1 -1.75 1.75z"/></g></g><g><path d="m126.25 46.69h-1.843a17.146 17.146 0 0 0 .808-5.156 1.75 1.75 0 1 0 -3.5 0 13.671 13.671 0 0 1 -1.021 5.156h-29.407a13.61 13.61 0 0 1 12.6-18.779h4.2a13.522 13.522 0 0 1 9.707 4.065 1.75 1.75 0 0 0 2.494-2.455 17.154 17.154 0 0 0 -3.39-2.653 13.938 13.938 0 0 0 3.891-9.627 1.749 1.749 0 0 0 -1.75-1.75 13.832 13.832 0 0 0 -7.873 2.431 18.437 18.437 0 0 0 -3.944-5.852 1.75 1.75 0 0 0 -2.474 0 18.45 18.45 0 0 0 -3.943 5.852 13.833 13.833 0 0 0 -7.874-2.431 1.75 1.75 0 0 0 -1.75 1.75 13.94 13.94 0 0 0 3.9 9.635 17.03 17.03 0 0 0 -7.507 19.814h-5.158a17.022 17.022 0 0 0 -7.511-19.815 13.939 13.939 0 0 0 3.9-9.634 1.75 1.75 0 0 0 -1.75-1.75 13.833 13.833 0 0 0 -7.874 2.431 18.45 18.45 0 0 0 -3.943-5.852 1.75 1.75 0 0 0 -2.474 0 18.434 18.434 0 0 0 -3.943 5.852 13.835 13.835 0 0 0 -7.874-2.431 1.75 1.75 0 0 0 -1.75 1.75 13.939 13.939 0 0 0 3.9 9.634 17.027 17.027 0 0 0 -7.513 19.815h-5.158a17.027 17.027 0 0 0 -7.511-19.815 13.938 13.938 0 0 0 3.9-9.634 1.749 1.749 0 0 0 -1.75-1.75 13.83 13.83 0 0 0 -7.873 2.431 18.45 18.45 0 0 0 -3.943-5.852 1.751 1.751 0 0 0 -2.475 0 18.44 18.44 0 0 0 -3.943 5.851 13.839 13.839 0 0 0 -7.873-2.43 1.749 1.749 0 0 0 -1.75 1.75 13.938 13.938 0 0 0 3.9 9.634 17.027 17.027 0 0 0 -7.515 19.815h-1.843a1.75 1.75 0 0 0 -1.75 1.75v57.007a1.75 1.75 0 0 0 1.75 1.75h6.344v7.495a1.749 1.749 0 0 0 1.75 1.75h14.531a1.75 1.75 0 0 0 1.75-1.75v-7.492h75.75v7.495a1.749 1.749 0 0 0 1.75 1.75h14.531a1.749 1.749 0 0 0 1.75-1.75v-7.495h6.344a1.749 1.749 0 0 0 1.75-1.75v-57.01a1.749 1.749 0 0 0 -1.75-1.75zm-31.384-27.522a10.377 10.377 0 0 1 5.528 2.954 1.75 1.75 0 0 0 2.942-.785 14.939 14.939 0 0 1 2.654-5.389 14.891 14.891 0 0 1 2.654 5.389 1.75 1.75 0 0 0 2.942.786 10.376 10.376 0 0 1 5.528-2.955 10.466 10.466 0 0 1 -3.622 6.122 17.153 17.153 0 0 0 -5.4-.879h-4.2a17.03 17.03 0 0 0 -5.4.885 10.474 10.474 0 0 1 -3.626-6.128zm-41.99 0a10.376 10.376 0 0 1 5.524 2.955 1.75 1.75 0 0 0 2.942-.786 14.907 14.907 0 0 1 2.658-5.389 14.923 14.923 0 0 1 2.654 5.389 1.75 1.75 0 0 0 2.943.785 10.371 10.371 0 0 1 5.527-2.954 10.471 10.471 0 0 1 -3.624 6.132 17.022 17.022 0 0 0 -5.394-.884h-4.206a17.028 17.028 0 0 0 -5.4.884 10.468 10.468 0 0 1 -3.624-6.132zm-4.6 22.366a13.638 13.638 0 0 1 13.624-13.623h4.2a13.605 13.605 0 0 1 12.6 18.779h-29.4a13.671 13.671 0 0 1 -1.024-5.156zm-37.391-22.366a10.374 10.374 0 0 1 5.528 2.954 1.75 1.75 0 0 0 2.942-.785 14.923 14.923 0 0 1 2.654-5.389 14.925 14.925 0 0 1 2.655 5.389 1.75 1.75 0 0 0 2.942.785 10.374 10.374 0 0 1 5.528-2.954 10.473 10.473 0 0 1 -3.629 6.132 17.017 17.017 0 0 0 -5.394-.884h-4.2a17.017 17.017 0 0 0 -5.394.884 10.468 10.468 0 0 1 -3.632-6.132zm-4.6 22.366a13.638 13.638 0 0 1 13.623-13.623h4.2a13.608 13.608 0 0 1 12.6 18.779h-29.402a13.678 13.678 0 0 1 -1.021-5.156zm-2.785 8.656h121v15.5h-121zm19.125 62.752h-11.031v-5.742h11.031zm93.781 0h-11.031v-5.742h11.031zm1.75-9.245h-114.656v-15.5h32.875a1.75 1.75 0 0 0 0-3.5h-32.875v-15.5h121v15.5h-53.779a1.75 1.75 0 0 0 0 3.5h53.779v15.5z"/><path d="m19.008 56.19h-7.25a1.75 1.75 0 1 0 0 3.5h7.25a1.75 1.75 0 0 0 0-3.5z"/><path d="m116.242 56.19h-7.25a1.75 1.75 0 0 0 0 3.5h7.25a1.75 1.75 0 1 0 0-3.5z"/><path d="m57.279 84.694h-7.463a1.75 1.75 0 1 0 0 3.5h7.463a1.75 1.75 0 1 0 0-3.5z"/><path d="m62.516 32.4a1.75 1.75 0 0 0 -3.5 0v2.313a1.75 1.75 0 0 0 3.5 0z"/><path d="m67.234 30.652a1.75 1.75 0 0 0 -1.75 1.75v2.313a1.75 1.75 0 0 0 3.5 0v-2.315a1.749 1.749 0 0 0 -1.75-1.748z"/><path d="m55.529 38.86a1.751 1.751 0 0 0 -1.75 1.75v2.313a1.75 1.75 0 0 0 3.5 0v-2.313a1.75 1.75 0 0 0 -1.75-1.75z"/><path d="m64 38.86a1.751 1.751 0 0 0 -1.75 1.75v2.313a1.75 1.75 0 0 0 3.5 0v-2.313a1.751 1.751 0 0 0 -1.75-1.75z"/><path d="m72.471 38.86a1.75 1.75 0 0 0 -1.75 1.75v2.313a1.75 1.75 0 0 0 3.5 0v-2.313a1.751 1.751 0 0 0 -1.75-1.75z"/><path d="m19.008 75.193h-7.25a1.75 1.75 0 1 0 0 3.5h7.25a1.75 1.75 0 0 0 0-3.5z"/><path d="m108.992 78.693h7.25a1.75 1.75 0 0 0 0-3.5h-7.25a1.75 1.75 0 0 0 0 3.5z"/><path d="m19.008 94.2h-7.25a1.75 1.75 0 1 0 0 3.5h7.25a1.75 1.75 0 0 0 0-3.5z"/><path d="m116.242 94.2h-7.25a1.75 1.75 0 1 0 0 3.5h7.25a1.75 1.75 0 0 0 0-3.5z"/><path d="m104.506 32.4a1.75 1.75 0 0 0 -3.5 0v2.313a1.75 1.75 0 0 0 3.5 0z"/><path d="m109.225 36.465a1.75 1.75 0 0 0 1.75-1.75v-2.315a1.75 1.75 0 0 0 -3.5 0v2.313a1.749 1.749 0 0 0 1.75 1.752z"/><path d="m95.769 40.61v2.313a1.75 1.75 0 0 0 3.5 0v-2.313a1.75 1.75 0 0 0 -3.5 0z"/><path d="m105.99 44.673a1.749 1.749 0 0 0 1.75-1.75v-2.313a1.75 1.75 0 0 0 -3.5 0v2.313a1.749 1.749 0 0 0 1.75 1.75z"/><path d="m112.711 40.61v2.313a1.75 1.75 0 1 0 3.5 0v-2.313a1.75 1.75 0 0 0 -3.5 0z"/><path d="m25.244 30.652a1.75 1.75 0 0 0 -1.75 1.75v2.313a1.75 1.75 0 0 0 3.5 0v-2.315a1.75 1.75 0 0 0 -1.75-1.748z"/><path d="m20.525 32.4a1.75 1.75 0 0 0 -3.5 0v2.313a1.75 1.75 0 0 0 3.5 0z"/><path d="m30.48 38.86a1.751 1.751 0 0 0 -1.75 1.75v2.313a1.75 1.75 0 1 0 3.5 0v-2.313a1.751 1.751 0 0 0 -1.75-1.75z"/><path d="m22.009 38.86a1.751 1.751 0 0 0 -1.75 1.75v2.313a1.75 1.75 0 0 0 3.5 0v-2.313a1.75 1.75 0 0 0 -1.75-1.75z"/><path d="m13.539 38.86a1.751 1.751 0 0 0 -1.75 1.75v2.313a1.75 1.75 0 0 0 3.5 0v-2.313a1.751 1.751 0 0 0 -1.75-1.75z"/></g></g></svg>