<?xml version="1.0"?>
<svg xmlns="http://www.w3.org/2000/svg" xmlns:xlink="http://www.w3.org/1999/xlink" xmlns:svgjs="http://svgjs.com/svgjs" version="1.1" width="512" height="512" x="0" y="0" viewBox="0 0 511.975 511.975" style="enable-background:new 0 0 512 512" xml:space="preserve" class=""><g>
<g xmlns="http://www.w3.org/2000/svg">
	<rect x="119.007" y="96.667" style="" width="278.99" height="36.654" fill="#e7e0cf" data-original="#ffce54" class=""/>
	<path style="" d="M423.307,147.992l-29.999-6.671H103.995l-18.671,16.671v152.664v170.648   c0,0,28.671,21.998,33.108,22.67s295.548-8,295.548-8l13.328-31.998V230.66L423.307,147.992z" fill="#e7e0cf" data-original="#ffce54" class=""/>
</g>
<path xmlns="http://www.w3.org/2000/svg" style="" d="M399.48,409.479l-35.999-13.031l-13.499-31.467l-22.499-31.998l-15.499-9l-32.498-38.998l-42.998-3  l-29.499,23.093l-12,30.404l-21.499,12.5c0,0-16.999,13.999-17.499,15.999s-6.5,30.295-6.5,30.295s-26.499,8.953-27.498,12.828  c-1,3.875-12,24.03-12,27.452s16.218,48.919,19.108,48.919c2.891,0,43.389,4.5,44.889,4.5s28.999-10.499,28.999-10.499l10-5.359  l19.827,12.358c0,0,18.046,4,20.608,3.5s42.748-8,42.748-8l16.312-7.858l16.999,8.858l35.998,4.5l33.999-13.25l7.999-37.669  L399.48,409.479z" fill="#d1a073" data-original="#efc095" class=""/>
<g xmlns="http://www.w3.org/2000/svg">
	<polygon style="" points="375.653,76.668 315.656,58.669 247.316,52.669 173.991,60.997 125.321,78.996    113.322,92.323 265.986,92.323 385.308,92.323  " fill="#dfdcdc" data-original="#ed5564" class=""/>
	<circle style="" cx="254.987" cy="29.67" r="16.999" fill="#dfdcdc" data-original="#ed5564" class=""/>
</g>
<path xmlns="http://www.w3.org/2000/svg" d="M177.241,469.101c4.156-4.156,4.156-10.906,0-15.077c-4.172-4.173-10.921-4.173-15.093,0  c-4.156,4.171-4.156,10.921,0,15.077C166.32,473.272,173.069,473.272,177.241,469.101z" fill="#060000" data-original="#000000" style="" class=""/>
<path xmlns="http://www.w3.org/2000/svg" d="M121.556,442.54c4.156,4.156,10.906,4.156,15.078,0c4.171-4.172,4.171-10.937,0-15.093s-10.921-4.156-15.078,0  C117.384,431.603,117.384,438.368,121.556,442.54z" fill="#060000" data-original="#000000" style="" class=""/>
<path xmlns="http://www.w3.org/2000/svg" d="M256.737,453.04c-4.641,3.64-5.468,10.343-1.828,14.983c3.641,4.64,10.327,5.453,14.983,1.828  c4.625-3.625,5.438-10.344,1.813-14.969C268.081,450.227,261.362,449.415,256.737,453.04z" fill="#060000" data-original="#000000" style="" class=""/>
<path xmlns="http://www.w3.org/2000/svg" d="M233.644,431.978c-4.625,3.625-5.437,10.327-1.812,14.968c3.625,4.625,10.343,5.453,14.968,1.813  c4.64-3.625,5.453-10.327,1.813-14.969C244.987,429.15,238.285,428.338,233.644,431.978z" fill="#060000" data-original="#000000" style="" class=""/>
<path xmlns="http://www.w3.org/2000/svg" d="M367.544,434.634c-5.844,0.718-9.999,6.062-9.28,11.905c0.734,5.843,6.063,9.984,11.905,9.265  c5.844-0.733,10-6.046,9.281-11.905C378.716,438.056,373.387,433.916,367.544,434.634z" fill="#060000" data-original="#000000" style="" class=""/>
<path xmlns="http://www.w3.org/2000/svg" d="M333.717,436.947c-5.844,0.718-9.999,6.062-9.265,11.904c0.719,5.844,6.046,10,11.89,9.266  c5.859-0.734,10-6.046,9.266-11.89C344.889,440.368,339.561,436.227,333.717,436.947z" fill="#060000" data-original="#000000" style="" class=""/>
<path xmlns="http://www.w3.org/2000/svg" d="M236.394,404.01c4.188-4.141,4.219-10.905,0.063-15.077s-10.906-4.203-15.093-0.063c-4.172,4.141-4.188,10.905-0.047,15.077  C225.457,408.135,232.207,408.167,236.394,404.01z" fill="#060000" data-original="#000000" style="" class=""/>
<path xmlns="http://www.w3.org/2000/svg" d="M182.365,401.792c4.141,4.172,10.89,4.203,15.078,0.063c4.171-4.156,4.203-10.905,0.047-15.093  c-4.141-4.188-10.89-4.219-15.078-0.063C178.241,390.855,178.21,397.605,182.365,401.792z" fill="#060000" data-original="#000000" style="" class=""/>
<path xmlns="http://www.w3.org/2000/svg" d="M298.423,381.668c-5.766-1.219-11.438,2.438-12.688,8.188c-1.234,5.766,2.422,11.437,8.188,12.687  c5.75,1.234,11.437-2.438,12.671-8.187C307.828,388.605,304.172,382.918,298.423,381.668z" fill="#060000" data-original="#000000" style="" class=""/>
<path xmlns="http://www.w3.org/2000/svg" d="M329.608,402.542c5.766,1.234,11.437-2.438,12.687-8.187c1.234-5.75-2.437-11.438-8.187-12.688  c-5.766-1.219-11.437,2.438-12.687,8.188C320.203,395.621,323.858,401.292,329.608,402.542z" fill="#060000" data-original="#000000" style="" class=""/>
<path xmlns="http://www.w3.org/2000/svg" d="M235.05,318.796c-5.75-1.234-11.437,2.438-12.671,8.188s2.421,11.437,8.187,12.671c5.766,1.234,11.421-2.422,12.671-8.171  C244.487,325.717,240.816,320.046,235.05,318.796z" fill="#060000" data-original="#000000" style="" class=""/>
<path xmlns="http://www.w3.org/2000/svg" d="M266.331,294.657c-5.75-1.234-11.438,2.421-12.672,8.171c-1.234,5.766,2.422,11.438,8.188,12.687  c5.765,1.234,11.421-2.437,12.671-8.187S272.095,295.89,266.331,294.657z" fill="#060000" data-original="#000000" style="" class=""/>
<path xmlns="http://www.w3.org/2000/svg" d="M405.323,129.337V106.65l0,0c2.719,0,5.453-1.031,7.531-3.124c4.156-4.156,4.156-10.906,0-15.078  c-2.078-2.078-4.813-3.125-7.531-3.125l0,0c0,0-26.436-35.295-119.54-41.669c1.421-3.625,2.202-7.547,2.202-11.656  C287.985,14.311,273.658,0,255.987,0s-31.999,14.312-31.999,31.998c0,4.109,0.781,8.031,2.203,11.656  c-93.104,6.374-119.54,41.669-119.54,41.669l0,0c-2.719,0-5.453,1.047-7.531,3.125c-4.156,4.172-4.156,10.922,0,15.078  c2.078,2.093,4.812,3.124,7.531,3.124l0,0v22.687c-18.39,4.719-31.999,21.437-31.999,41.311v298.657  c0,23.562,19.108,42.67,42.686,42.67h277.299c23.577,0,42.686-19.108,42.686-42.67V170.647  C437.322,150.773,423.713,134.055,405.323,129.337z M255.987,21.327c5.875,0,10.655,4.78,10.655,10.671  c0,5.875-4.765,10.656-10.655,10.656l0,0l0,0c-5.89,0-10.656-4.781-10.656-10.656C245.331,26.107,250.112,21.327,255.987,21.327z   M150.211,81.558c18.499-8,51.857-17.563,105.745-17.563c0.016,0,0.031,0,0.031,0s0.016,0,0.031,0  c53.888,0,87.245,9.563,105.745,17.563c2.921,1.266,5.562,2.531,7.937,3.765H142.274C144.649,84.09,147.289,82.824,150.211,81.558z   M127.993,127.993c2.719,0,5.468-1.047,7.531-3.124c4.172-4.172,4.172-10.938,0-15.094c-2.063-2.078-4.781-3.125-7.5-3.125h255.957  l0,0c-2.719,0-5.469,1.047-7.531,3.125c-4.172,4.172-4.172,10.922,0,15.094c2.063,2.077,4.797,3.124,7.531,3.124H127.993  L127.993,127.993z M117.338,149.32h277.299c11.78,0,21.343,9.578,21.343,21.327v243.145c-1.969-5.125-5.563-9.469-11.125-13.968  c-9.452-7.625-8.937-7.594-28.592-14.719c-1.563-0.563-3.094-1.078-4.625-1.563c0.031-0.484,0.031-0.938,0.031-1.391  c-0.234-7.516-0.563-8.452-5.672-17.671c-5.093-9.249-10.796-20.218-15.78-26.186c-4.984-6-10.577-14.344-19.358-16.906  c-3.844-1.125-8.39-2.375-12.952-3.438c-0.797-1.422-1.875-3.124-3.375-5.437c-5.109-7.875-10.796-17.249-15.78-22.343  c-4.984-5.109-10.578-12.234-19.358-14.421c-8.656-2.141-20.812-4.938-28.874-4.938c-0.125,0-0.25,0-0.375,0  c-8.265,0.094-13.546,2.391-24.093,7.046c-10.53,4.641-18.561,11.516-24.733,19.03c-3.796,4.625-13.64,15.359-13.218,23.671  c0.172,3.609,0.234,7.641,1.015,11.953c-0.688,0.188-1.406,0.406-2.171,0.609c-20.358,5.688-32.389,13.921-36.826,20.077  c-4.453,6.14-4.75,7.046-6.297,16.749c-0.921,5.874-2.078,12.343-2.75,18.093c-12.39,4.375-24.545,10.563-30.514,14.655  c-9.375,6.375-13.406,13.03-14.562,23.218V170.647C95.995,158.898,105.557,149.32,117.338,149.32z M141.446,410.745  c0.672,3.515,1.922,6.858,4.421,9.546c1.609,1.734,3.437,3.641,5.343,5.578c-0.156,2.938,0.859,5.937,3.094,8.172  c2.703,2.718,6.484,3.655,9.937,2.843c0.625,0.406,1.25,0.781,1.859,1.095c6.796,3.593,12.765,3.765,24.687,4.062  c0.578,0.031,1.172,0.031,1.734,0.031c1.25,0,2.5-0.031,3.719-0.093c-0.063,0.78-0.094,1.546-0.109,2.265  c-0.125,6.624-1.109,14.937,2.234,21.765c-2.437,2.141-5.937,5.031-10.983,8.813c-1.859,0.89-7.734,1.218-10.89,1.405  c-1.281,0.095-2.625,0.157-3.937,0.251c-0.719,0.062-1.61,0.093-2.656,0.093c-5.563,0-13.421-0.765-20.999-1.5  c-1.766-0.155-3.5-0.344-5.188-0.499c-2.469-0.219-6.578-0.594-7.625-0.876c-0.609-0.233-2.516-1.28-3.188-1.655  c-1.75-1.078-7.625-7.156-12-20.843c-2.25-7.063-3.75-11.844-4.125-14.031c-0.156-0.891-0.125-1.687,0.188-6.124l0.109-1.406  c0.172-2.531,0.563-4.344,1.141-5.344c0.781-1.375,2.797-2.906,4.343-3.969C126.712,417.478,133.899,413.854,141.446,410.745z   M324.764,341.826c1.563,0.813,4.875,4.938,6.656,7.156c0.781,0.969,1.578,1.969,2.406,2.969c2.906,3.484,7.468,11.827,11.14,18.53  c0.797,1.469,1.578,2.905,2.36,4.313c0.843,1.53,2.343,4.218,2.905,5.437c0.031,0.484,0.063,1.266,0.094,2.328  c-0.25,2.063-3.031,9.781-12.796,20.171c-5.531,5.875-9.047,9.563-11.016,11.188c-1.108,0.906-2.156,1.469-6.562,3.749l-1.375,0.688  c-4.578,2.375-6.906,2.672-8.406,2.672c-1.719,0-3.828-0.437-6.437-1.328c-4.109-1.405-12.297-5.219-20.577-10.249  c-9.547-5.813-15.016-10.719-16.765-13.14c-4.11-5.672-4.938-11.063-5.266-17.422c5.124-0.328,10.14-1.734,15.765-4.202  c9.624-4.234,10.718-4.484,20.062-12.859c1.281,3.172,4.047,5.656,7.624,6.438c5.766,1.234,11.438-2.422,12.688-8.188  c1.094-5.124-1.703-10.202-6.406-12.108c2.406-2.969,4.297-5.781,5.719-8.391C318.953,340.201,321.672,340.935,324.764,341.826z   M289.079,462.32c0.828,2.063,1.813,3.844,3,5.5c-0.313,0.391-0.625,0.781-0.953,1.172c-0.359,0.422-0.703,0.828-1.047,1.249  c-0.5,0.345-2.063,1.298-5.594,2.548c-3.5,1.25-7.249,2.219-10.249,2.983c-0.938,0.235-1.781,0.453-2.5,0.657  c-5.563,1.484-10.905,2.233-15.905,2.233c-3,0-5.968-0.28-8.781-0.812c-11.218-2.157-13.25-2.751-15.484-4.438  c-1.64-1.235-5.656-5.078-14.062-16.874c-0.422-1.594-0.266-5.72-0.172-8.219c0.063-1.188,0.094-2.438,0.125-3.688  c0.031-1.703,0.406-4.266,0.938-7.155c2.125-0.735,4.219-1.531,6.281-2.375c6.438-2.688,22.187-8.422,27.843-16.469  c0.781-1.093,1.609-2.25,2.437-3.422c1.188,1.079,2.438,2.141,3.766,3.219c-2.313,3.703-2.203,8.578,0.641,12.219  c3.625,4.64,10.343,5.453,14.968,1.828c0.844-0.657,1.531-1.406,2.125-2.219c3.063,1.719,6.063,3.313,8.905,4.719  c0.016,0.109,0,0.233,0,0.343C285.641,443.696,286.314,455.415,289.079,462.32z M287.266,341.826  c-0.594,0.563-1.172,1.063-1.718,1.563c0.124-0.406,0.25-0.813,0.343-1.25c1.25-5.749-2.406-11.437-8.171-12.655  c-5.766-1.25-11.422,2.406-12.672,8.171c-1.25,5.766,2.422,11.422,8.188,12.672c1.484,0.313,2.969,0.313,4.375,0.031  c-0.484,0.375-0.906,0.688-1.281,0.953c-1.125,0.797-2.188,1.281-6.656,3.234l-1.375,0.608c-5,2.203-7.655,2.484-9.593,2.484  c-2.063,0-4.469-0.405-7.375-1.25c-4.187-1.219-12.53-4.515-20.905-8.874c-10.171-5.281-15.171-9.375-16.53-10.968  c-3.781-4.453-4.078-7.844-4.406-15.125l0,0c1.406-2.734,5.421-7.53,6.828-9.218c0.563-0.656,1.063-1.25,1.5-1.781  c4.859-5.922,10.359-10.188,16.843-13.031c10-4.421,12.077-5.202,15.702-5.249h0.157c2.921,0,9.421,0.749,23.717,4.313  c1.438,0.358,4.813,3.937,6.813,6.077c0.781,0.828,1.594,1.672,2.437,2.547c2.719,2.781,7.188,9.75,10.75,15.343  c0.813,1.25,1.609,2.484,2.391,3.688c0.547,0.844,1.484,2.313,2.141,3.375C297.985,329.592,294.938,334.874,287.266,341.826z   M185.522,366.544c4.14,4.172,10.906,4.188,15.077,0.047c3-2.969,3.859-7.281,2.579-11.03c9.812,7.796,25.67,15.39,36.436,19.374  c0.234,6.03,0.375,12.983,2.688,20.421c-1.438,2.796-3.453,5.718-5.906,9.171c-0.375,0.516-0.75,1.031-1.094,1.547  c-0.375,0.344-1.906,1.656-5.875,3.688c-3.578,1.844-7.438,3.406-10.531,4.655c-0.906,0.359-1.719,0.688-2.422,0.984  c-8.5,3.547-16.546,5.344-23.952,5.344c-0.391,0-0.781-0.016-1.188-0.016c-10.421-0.281-13.077-0.453-15.249-1.594  c-1.25-0.656-5-3.156-13.687-12.405c-0.281-1.516-0.375-4.406-0.438-6.25c-0.031-1.125-0.063-2.313-0.125-3.531  c-0.203-3.687,1.25-12.593,2.312-19.108c0.25-1.547,0.5-3.062,0.75-4.546c0.219-1.407,0.656-4.141,0.922-5.359  c0.297-0.453,0.797-1.172,1.531-2.172c1.109-1.328,5.828-5.031,15.265-8.749C181.975,360.356,182.944,363.95,185.522,366.544z   M211.161,483.132c2.546,2.906,5.14,5.5,7.578,7.328c0.062,0.063,0.156,0.109,0.234,0.171h-17.14  C204.802,488.382,208.083,485.788,211.161,483.132z M306.14,484.288c0.579-0.688,1.172-1.406,1.781-2.125  c4.953,3.578,10.391,6.344,16.047,8.468h-26.796C300.798,488.913,304.048,486.85,306.14,484.288z M364.231,475.757  c-0.702,0.251-1.405,0.5-2.063,0.751c-0.203,0.03-0.874,0.14-2.172,0.14c-5.124,0-11.905-1.578-16.389-2.608  c-0.969-0.219-1.813-0.407-2.579-0.578c-9.171-2.016-16.64-5.297-22.201-9.781c-7.719-6.218-9.313-7.702-9.953-9.313  c-0.313-0.796-1.234-3.702-1.813-12.171c1.047,0.109,2.078,0.156,3.109,0.156c5.984,0,11.687-1.688,18.187-5.031  c11.031-5.687,10.844-5.249,24.702-19.968c0.266-0.28,0.516-0.562,0.781-0.844c0.016,0.391,0.031,0.782,0.078,1.188  c0.719,5.844,6.062,10,11.905,9.281s10-6.063,9.266-11.905c-0.734-5.844-6.047-10-11.891-9.266  c-0.281,0.031-0.562,0.078-0.843,0.141c0.577-0.813,1.124-1.641,1.64-2.438c1.578,0.469,3.25,1.031,5.016,1.656  c7.906,2.875,12.874,4.688,15.28,5.906c1.344,0.687,2.188,1.344,6,4.405l1.172,0.969c2.953,2.375,4.063,3.844,4.469,4.656  c0.172,0.344,0.672,1.344,0.609,4.5c-0.203,9.422-5.688,31.264-11.172,37.873C379.731,470.289,372.544,472.82,364.231,475.757z   M95.995,469.304v-27.296c0.703,3.406,2.094,7.843,4.594,15.655c5.859,18.374,14.905,29.076,21.874,32.967h-5.125  C105.557,490.631,95.995,481.069,95.995,469.304z M394.636,490.631H384.37c5.984-2.952,12.063-7.062,17.421-13.53  c6.875-8.28,11.719-23.623,14.188-36.17v28.374C415.979,481.069,406.417,490.631,394.636,490.631z" fill="#060000" data-original="#000000" style="" class=""/>
<g xmlns="http://www.w3.org/2000/svg">
</g>
<g xmlns="http://www.w3.org/2000/svg">
</g>
<g xmlns="http://www.w3.org/2000/svg">
</g>
<g xmlns="http://www.w3.org/2000/svg">
</g>
<g xmlns="http://www.w3.org/2000/svg">
</g>
<g xmlns="http://www.w3.org/2000/svg">
</g>
<g xmlns="http://www.w3.org/2000/svg">
</g>
<g xmlns="http://www.w3.org/2000/svg">
</g>
<g xmlns="http://www.w3.org/2000/svg">
</g>
<g xmlns="http://www.w3.org/2000/svg">
</g>
<g xmlns="http://www.w3.org/2000/svg">
</g>
<g xmlns="http://www.w3.org/2000/svg">
</g>
<g xmlns="http://www.w3.org/2000/svg">
</g>
<g xmlns="http://www.w3.org/2000/svg">
</g>
<g xmlns="http://www.w3.org/2000/svg">
</g>
</g></svg>
