<svg id="Capa_1" enable-background="new 0 0 512 512" height="512" viewBox="0 0 512 512" width="512" xmlns="http://www.w3.org/2000/svg"><g><g><circle cx="256" cy="54.597" fill="#fae2c0" r="47.105"/></g><g><path d="m303.103 54.602c0 26.014-21.089 47.103-47.103 47.103-7.982 0-15.505-1.988-22.098-5.494 1.009.07 2.028.1 3.057.1 26.024 0 47.113-21.089 47.113-47.103 0-18.042-10.14-33.706-25.035-41.618 24.595 1.557 44.066 22.007 44.066 47.012z" fill="#fddeb0"/></g><g><circle cx="212.887" cy="120.538" fill="#fdf6ec" r="47.105"/></g><g><path d="m259.996 120.536c0 26.014-21.089 47.103-47.113 47.103-7.972 0-15.495-1.988-22.078-5.484 1.009.07 2.028.1 3.047.1 26.014 0 47.103-21.089 47.103-47.103 0-18.042-10.14-33.706-25.025-41.618 24.606 1.567 44.066 22.007 44.066 47.002z" fill="#fef1da"/></g><g><circle cx="299.113" cy="120.538" fill="#fdf6ec" r="47.105"/></g><g><path d="m346.22 120.536c0 26.014-21.089 47.103-47.103 47.103-7.972 0-15.494-1.988-22.078-5.484 1.009.07 2.018.1 3.037.1 26.014 0 47.103-21.089 47.103-47.103 0-18.042-10.14-33.706-25.025-41.618 24.595 1.557 44.066 22.007 44.066 47.002z" fill="#fef1da"/></g><g><circle cx="342.226" cy="185.314" fill="#fae2c0" r="47.105"/></g><g><path d="m389.326 185.311c0 26.014-21.089 47.103-47.103 47.103-7.972 0-15.495-1.988-22.078-5.485 1.009.07 2.028.1 3.047.1 26.014 0 47.103-21.089 47.103-47.103 0-18.042-10.14-33.706-25.025-41.618 24.596 1.568 44.056 22.008 44.056 47.003z" fill="#fddeb0"/></g><g><circle cx="256" cy="185.314" fill="#fae2c0" r="47.105"/></g><g><path d="m303.103 185.311c0 26.014-21.089 47.103-47.103 47.103-7.972 0-15.494-1.988-22.078-5.485 1.009.07 2.018.1 3.037.1 26.024 0 47.113-21.089 47.113-47.103 0-18.042-10.14-33.706-25.035-41.618 24.595 1.558 44.066 22.008 44.066 47.003z" fill="#fddeb0"/></g><g><circle cx="169.774" cy="185.314" fill="#fae2c0" r="47.105"/></g><g><path d="m216.879 185.311c0 26.014-21.089 47.103-47.103 47.103-7.972 0-15.494-1.988-22.078-5.485 1.009.07 2.018.1 3.037.1 26.014 0 47.103-21.089 47.103-47.103 0-18.042-10.14-33.706-25.025-41.618 24.596 1.558 44.066 22.008 44.066 47.003z" fill="#fddeb0"/></g><g><circle cx="385.339" cy="251.024" fill="#fdf6ec" r="47.105"/></g><g><path d="m432.443 251.025c0 26.014-21.089 47.103-47.103 47.103-7.972 0-15.495-1.988-22.078-5.484 1.009.07 2.018.1 3.037.1 26.014 0 47.103-21.099 47.103-47.113 0-18.032-10.13-33.696-25.005-41.608 24.586 1.568 44.046 22.017 44.046 47.002z" fill="#fef1da"/></g><g><circle cx="299.113" cy="251.024" fill="#fdf6ec" r="47.105"/></g><g><path d="m346.22 251.025c0 26.014-21.089 47.103-47.103 47.103-7.972 0-15.494-1.988-22.078-5.484 1.009.07 2.018.1 3.037.1 26.014 0 47.103-21.099 47.103-47.113 0-18.032-10.13-33.696-25.005-41.608 24.585 1.568 44.046 22.017 44.046 47.002z" fill="#fef1da"/></g><g><circle cx="212.887" cy="251.024" fill="#fdf6ec" r="47.105"/></g><g><path d="m259.996 251.025c0 26.014-21.089 47.103-47.113 47.103-7.972 0-15.495-1.988-22.078-5.484 1.009.07 2.028.1 3.047.1 26.014 0 47.103-21.099 47.103-47.113 0-18.032-10.13-33.696-25.005-41.608 24.596 1.578 44.046 22.017 44.046 47.002z" fill="#fef1da"/></g><g><circle cx="126.661" cy="251.024" fill="#fdf6ec" r="47.105"/></g><g><path d="m173.762 251.025c0 26.014-21.089 47.103-47.103 47.103-7.972 0-15.494-1.988-22.078-5.484 1.009.07 2.028.1 3.047.1 26.014 0 47.103-21.099 47.103-47.113 0-18.032-10.13-33.696-25.005-41.608 24.586 1.578 44.036 22.017 44.036 47.002z" fill="#fef1da"/></g><g><path d="m316.547 438.954c-11.147-21.54-26.925-31.829-26.925-31.829h-67.244s-15.777 10.29-26.924 31.829c-6.875 13.285-10.174 28.132-10.174 43.09v16.027c0 3.555 2.882 6.436 6.436 6.436h128.568c3.555 0 6.437-2.882 6.437-6.436v-16.027c0-14.958-3.299-29.805-10.174-43.09z" fill="#e8ad8c"/></g><g><path d="m326.719 482.044v16.024c0 3.556-2.877 6.443-6.434 6.443h-19.98c3.556 0 6.434-2.887 6.434-6.443v-16.024c0-14.955-3.297-29.8-10.17-43.087-11.149-21.538-26.923-31.828-26.923-31.828h19.98s15.774 10.29 26.923 31.828c6.873 13.287 10.17 28.132 10.17 43.087z" fill="#e19974"/></g><g><path d="m256 320.578h-204.06s12.206 97.699 204.06 97.699 204.06-97.699 204.06-97.699z" fill="#e8ad8c"/></g><g><path d="m460.056 320.576s-12.198 97.702-204.056 97.702c-3.906 0-7.742-.04-11.508-.12 180.839-3.826 192.547-97.582 192.547-97.582z" fill="#e19974"/></g><g><path d="m470.362 320.578h-428.724c-11.883 0-21.516-9.633-21.516-21.516 0-11.883 9.633-21.516 21.516-21.516h428.723c11.883 0 21.516 9.633 21.516 21.516 0 11.883-9.633 21.516-21.515 21.516z" fill="#e8ad8c"/></g><g><path d="m491.874 299.067c0 5.944-2.408 11.319-6.303 15.205-3.886 3.896-9.271 6.304-15.205 6.304h-19.98c5.934 0 11.318-2.408 15.205-6.304 3.896-3.886 6.303-9.261 6.303-15.205 0-11.888-9.63-21.518-21.508-21.518h19.98c11.877 0 21.508 9.63 21.508 21.518z" fill="#e19974"/></g><g><path d="m460.056 320.576s-2.457 19.7-22.547 41.408c-8.521-1.659-16.194-5.704-22.288-11.399-3.976-3.716-10.07-3.726-14.056 0-8.122 7.582-19.031 12.238-31.029 12.238s-22.907-4.655-31.029-12.238c-3.976-3.716-10.07-3.726-14.056 0-8.122 7.582-19.031 12.238-31.029 12.238s-22.907-4.655-31.029-12.238c-3.976-3.716-10.07-3.726-14.056 0-8.122 7.582-19.031 12.238-31.029 12.238s-22.907-4.655-31.029-12.238c-3.976-3.716-10.07-3.726-14.056 0-8.122 7.582-19.031 12.238-31.029 12.238s-22.907-4.655-31.029-12.238c-3.976-3.716-10.07-3.726-14.056 0-6.084 5.684-13.736 9.72-22.228 11.379-20.08-21.698-22.537-41.388-22.537-41.388z" fill="#ebd5f6"/></g><g><path d="m460.056 320.576s-2.457 19.7-22.547 41.408c-6.194-1.209-11.948-3.676-16.963-7.123 14.546-18.711 16.493-34.285 16.493-34.285z" fill="#e5caf3"/></g><path d="m470.362 270.054h-33.863c2.217-5.929 3.438-12.338 3.438-19.031 0-26.647-19.193-48.881-44.477-53.642.884-3.884 1.364-7.92 1.364-12.068 0-26.584-19.102-48.778-44.297-53.609.757-3.609 1.184-7.336 1.184-11.167 0-26.665-19.219-48.911-44.529-53.651.917-3.952 1.417-8.062 1.417-12.29-.001-30.104-24.494-54.596-54.599-54.596s-54.598 24.492-54.598 54.597c0 4.221.498 8.324 1.412 12.271-3.324.62-6.583 1.55-9.754 2.786-3.855 1.503-5.762 5.847-4.258 9.703 1.502 3.855 5.845 5.761 9.702 4.259 4.578-1.785 9.417-2.69 14.383-2.69 15.094 0 28.236 8.489 34.919 20.941-2.127 5.828-3.291 12.116-3.291 18.671 0 3.83.408 7.566 1.165 11.175-13.249 2.549-24.809 9.893-32.79 20.162-9.055-11.642-22.709-19.54-38.214-20.927-.908-3.318-1.401-6.807-1.401-10.41 0-5.914 1.269-11.6 3.773-16.899 1.768-3.741.168-8.207-3.574-9.975-3.742-1.77-8.208-.167-9.975 3.574-3.457 7.315-5.209 15.155-5.209 23.299 0 3.829.408 7.563 1.163 11.17-25.185 4.84-44.276 27.03-44.276 53.606 0 4.148.482 8.183 1.365 12.068-25.285 4.76-44.478 26.995-44.478 53.642 0 6.692 1.217 13.102 3.432 19.031h-33.858c-15.995 0-29.008 13.013-29.008 29.008s13.013 29.008 29.008 29.008h4.345c2.778 9.615 10.479 28.36 31.018 46.917 16.482 14.891 37.966 26.717 63.856 35.148 16.835 5.483 35.612 9.522 56.136 12.126-2.82 3.875-5.622 8.278-8.194 13.248-7.204 13.92-11.011 30.011-11.011 46.534v16.027c0 7.68 6.249 13.929 13.928 13.929h128.568c7.68 0 13.928-6.249 13.928-13.929v-7.832c0-4.138-3.354-7.492-7.492-7.492s-7.492 3.354-7.492 7.492v6.776h-126.456v-14.971c0-14.136 3.228-27.846 9.335-39.646 3.94-7.613 8.519-13.675 12.646-18.273 13.124 1.089 26.878 1.645 41.247 1.645 14.386 0 28.157-.557 41.295-1.649 4.095 4.577 8.647 10.643 12.597 18.277 2.441 4.716 4.439 9.76 5.937 14.991 1.141 3.978 5.291 6.278 9.267 5.138 3.978-1.141 6.278-5.289 5.139-9.267-1.772-6.182-4.139-12.154-7.034-17.749-2.571-4.969-5.372-9.375-8.191-13.249 20.522-2.604 39.298-6.643 56.133-12.126 25.89-8.432 47.374-20.257 63.856-35.148 20.538-18.557 28.24-37.302 31.018-46.917h4.345c15.995 0 29.008-13.013 29.008-29.008s-13.014-29.008-29.008-29.008zm-45.411-19.03c0 6.896-1.778 13.38-4.891 19.031h-69.789c2.218-5.928 3.439-12.338 3.439-19.031 0-6.551-1.166-12.834-3.291-18.658 6.682-12.458 19.823-20.954 34.921-20.954 21.842-.001 39.611 17.769 39.611 39.612zm-43.113-65.71c0 3.948-.586 7.76-1.669 11.359-15.394 1.454-28.939 9.331-37.939 20.911-8.023-10.314-19.657-17.688-32.989-20.201.883-3.884 1.357-7.921 1.357-12.069 0-6.548-1.171-12.824-3.294-18.645 6.678-12.464 19.82-20.967 34.923-20.967 21.842 0 39.611 17.77 39.611 39.612zm-117.644 47.055c6.68-12.459 19.82-20.958 34.919-20.958 21.843 0 39.612 17.77 39.612 39.612 0 6.895-1.777 13.379-4.888 19.031h-69.797c2.214-5.931 3.445-12.337 3.445-19.031 0-6.55-1.166-12.831-3.291-18.654zm74.531-111.831c0 3.601-.489 7.088-1.397 10.405-15.506 1.386-29.164 9.278-38.217 20.925-9.057-11.641-22.713-19.536-38.22-20.921-.905-3.318-1.39-6.808-1.39-10.409 0-21.842 17.77-39.612 39.613-39.612 21.842 0 39.611 17.77 39.611 39.612zm-120.592-54.34c-1.13-3.671-1.746-7.564-1.746-11.601 0-21.842 17.771-39.612 39.613-39.612s39.613 17.77 39.613 39.612c0 4.037-.616 7.93-1.746 11.601-15.365 1.472-28.882 9.341-37.869 20.903-8.988-11.558-22.501-19.431-37.865-20.903zm37.867 79.504c21.842 0 39.613 17.77 39.613 39.612 0 3.95-.595 7.761-1.678 11.362-15.39 1.456-28.931 9.331-37.929 20.909-8.023-10.315-19.658-17.69-32.991-20.202.883-3.884 1.357-7.921 1.357-12.069 0-6.551-1.172-12.83-3.298-18.653 6.681-12.461 19.825-20.959 34.926-20.959zm-3.5 105.322c0 6.895-1.777 13.38-4.89 19.031h-69.784c2.216-5.928 3.433-12.339 3.433-19.031 0-6.55-1.172-12.828-3.297-18.652 6.679-12.462 19.824-20.96 34.926-20.96 21.841-.001 39.612 17.769 39.612 39.612zm-82.726-105.322c21.842 0 39.613 17.77 39.613 39.612 0 3.95-.596 7.76-1.679 11.362-15.39 1.457-28.929 9.333-37.927 20.912-9-11.576-22.544-19.452-37.935-20.909-1.085-3.602-1.683-7.413-1.683-11.365-.001-21.842 17.768-39.612 39.611-39.612zm-43.113 65.709c21.843 0 39.613 17.77 39.613 39.612 0 6.897-1.782 13.38-4.896 19.031h-69.434c-3.114-5.651-4.895-12.134-4.895-19.031 0-21.842 17.769-39.612 39.612-39.612zm129.339 199.373c-95.15 0-143.581-24.723-167.519-45.645 4.851-2.316 9.359-5.356 13.345-9.08 1.107-1.036 2.715-1.036 3.826.003 9.845 9.192 22.68 14.253 36.141 14.253 13.46 0 26.296-5.062 36.146-14.257 1.107-1.036 2.715-1.035 3.826.003 9.845 9.192 22.68 14.254 36.142 14.254 13.461 0 26.296-5.062 36.146-14.257 1.107-1.036 2.715-1.036 3.826.003 9.846 9.192 22.681 14.253 36.143 14.253s26.296-5.062 36.146-14.257c1.107-1.035 2.714-1.035 3.825.004 9.847 9.192 22.682 14.253 36.143 14.253s26.296-5.062 36.146-14.257c1.106-1.035 2.713-1.035 3.823.002 3.978 3.716 8.474 6.757 13.315 9.072-26.129 22.814-75.286 45.653-167.42 45.653zm178.867-57.187c-5.387-1.691-10.35-4.579-14.53-8.485-6.813-6.368-17.48-6.366-24.285-.003-7.062 6.592-16.266 10.222-25.917 10.222s-18.855-3.63-25.913-10.219c-3.407-3.184-7.776-4.775-12.146-4.775-4.369 0-8.737 1.591-12.139 4.772-7.06 6.592-16.264 10.222-25.916 10.222s-18.856-3.63-25.914-10.219c-6.811-6.365-17.479-6.366-24.285-.003-7.06 6.592-16.264 10.222-25.916 10.222-9.651 0-18.855-3.63-25.913-10.219-6.811-6.366-17.479-6.365-24.285-.003-7.061 6.592-16.266 10.222-25.917 10.222s-18.855-3.63-25.911-10.219c-6.812-6.367-17.481-6.366-24.288-.001-4.177 3.902-9.134 6.788-14.513 8.476-1.268-1.498-2.445-2.959-3.625-4.531-6.159-8.206-9.696-15.644-11.682-20.985h388.478c-2.333 6.294-6.85 15.509-15.383 25.526zm35.495-40.512h-428.724c-7.732 0-14.023-6.291-14.023-14.023s6.291-14.023 14.023-14.023h428.723c7.732 0 14.023 6.291 14.023 14.023s-6.29 14.023-14.022 14.023z"/></g></svg>