<svg id="Layer_1" enable-background="new 0 0 512 512" height="512" viewBox="0 0 512 512" width="512" xmlns="http://www.w3.org/2000/svg"><g><g><path d="m408.114 502.36h-304.228l-9.64-9.64v-66.861c0-36.624 15.783-69.561 40.918-92.382h241.672c25.135 22.821 40.918 55.758 40.918 92.382v66.861z" fill="#86dcff"/><path d="m99.602 512h51.018l7.5-9 7.5 9h180.76l7.5-9 7.5 9h51.018c2.958 0 5.356-2.398 5.356-5.356v-13.924h-323.508v13.925c0 2.957 2.398 5.355 5.356 5.355z" fill="#56caed"/><path d="m256 406.558 80.641-88.733-.533-9.057c-13.432-4.948-27.948-7.653-43.097-7.653h-74.022c-15.008 0-29.394 2.655-42.721 7.515l.42 10.658z" fill="#e4eef9"/><path d="m175.894 308.773c-4.31 1.588-8.51 3.402-12.582 5.436l3.316 14.257 89.372 97.372 90.281-98.373 2.407-13.256c-4.072-2.034-8.272-3.849-12.582-5.436l-76.143 83.783c-2.125 2.338-5.802 2.338-7.927 0z" fill="#d5e0f2"/><path d="m256 406.558s13.877-15.27 22.688-24.965l1.987-11.826-5.909-32.388-18.766-9.642-18.766 9.64-5.909 32.388 1.987 11.826z" fill="#ff5876"/><path d="m274.766 337.378h-37.532l-8.186-36.262h53.904z" fill="#e6485d"/><path d="m283.605 385.822-2.93-16.056-20.712 22.79c-2.125 2.338-5.802 2.338-7.927 0l-20.712-22.79-2.93 16.056 27.606 49.656z" fill="#e6485d"/><path d="m163.312 314.21c-6.358 3.177-12.409 6.878-18.093 11.051l1.23 10.994 97.66 107.46c6.375 7.015 17.405 7.015 23.78 0l98.718-108.624.172-9.83c-5.684-4.172-11.734-7.874-18.093-11.051l-88.986 97.916c-1.984 2.183-5.417 2.183-7.4 0z" fill="#ffcf4d"/><path d="m267.89 434.074c-6.375 7.015-17.405 7.015-23.78 0l-98.889-108.811c-3.495 2.565-6.853 5.306-10.057 8.215l108.946 119.876c6.375 7.015 17.405 7.015 23.78 0l108.945-119.877c-3.204-2.909-6.562-5.649-10.057-8.215z" fill="#ffb629"/><path d="m164.396 194.884-9.64-25.949c-1.148-.118-2.312-.179-3.491-.179-15.149 0-27.967 9.978-32.241 23.72-.986 3.171-.047 34.158 32.241 34.158l3.749-9.853z" fill="#ffc4ad"/><path d="m151.265 216.993c-15.294 0-28.205-10.173-32.354-24.119-.909 3.056-1.405 6.289-1.405 9.64 0 18.644 15.114 33.759 33.759 33.759 2.359 0 4.66-.244 6.883-.704l7.699-8.936-10.825-9.854c-1.234.138-2.487.214-3.757.214z" fill="#ffb69f"/><path d="m347.604 194.884 9.64-25.949c1.148-.118 2.312-.179 3.491-.179 15.149 0 27.967 9.978 32.241 23.72.986 3.171.047 34.158-32.241 34.158l-3.749-9.853z" fill="#ffc4ad"/><path d="m360.735 216.993c15.294 0 28.205-10.173 32.354-24.119.909 3.056 1.405 6.289 1.405 9.64 0 18.644-15.114 33.759-33.759 33.759-2.359 0-4.66-.244-6.883-.704l-7.699-8.936 10.825-9.854c1.234.138 2.487.214 3.757.214z" fill="#ffb69f"/><path d="m154.756 64.99v125.242 9.64c0 55.916 45.329 101.244 101.244 101.244 55.915 0 101.244-45.328 101.244-101.244v-9.64-125.242z" fill="#ffe0cc"/><path d="m256 291.475c-55.915 0-101.244-45.328-101.244-101.244v19.28c0 55.916 45.329 101.244 101.244 101.244 55.915 0 101.244-45.328 101.244-101.244v-19.28c0 55.916-45.329 101.244-101.244 101.244z" fill="#ffceb3"/><path d="m352.579 136.646c-18.148-15.475-34.013-32.601-34.013-32.601-28.908 23.236-50.633 25.276-50.633 25.276l-21.247-20.733c-36.128 27.215-77.846 32.589-89.219 32.306-1.729-.043-3.441-.325-5.098-.832-26.502-8.112-36.515-24.183-36.515-24.183s-3.097-7.039 1.792-7.979c25.591-4.923 34.587-22.459 34.587-22.459-28.484.861-37.686-20.256-40.589-31.865-.895-3.578 1.967-6.949 5.644-6.66 53.197 4.187 66.108-28.597 116.131-43.371 52.129-15.396 89.037 24.366 89.037 24.366s52.831-5.101 57.364 48.757c4.333 51.477-27.241 59.978-27.241 59.978z" fill="#2d4456"/><g fill="#253847"><path d="m353.508 127.32c-12.771-9.033-24.491-25.749-30.574-35.321-2.004-3.155-6.502-3.281-8.79-.326-21.888 28.268-67.458 16.915-67.458 16.915s11.191 13.703 11.167 29.799c-.005 3.462 3.164 6.039 6.539 5.27 12.862-2.932 39.785-12.168 54.174-39.611 0 0 16.353 29.4 34.931 42.548 2.182 1.544 5.167 1.244 6.994-.706 6.956-7.426 22.39-28.608 19.407-68.059-2.223 27.221-13.667 42.642-19.394 48.763-1.829 1.954-4.81 2.274-6.996.728z"/><path d="m247.818 102.237c.727-5.033-5.305-8.173-8.962-4.64-32.495 31.394-70.875 33.919-81.389 33.657-1.729-.043-3.441-.325-5.098-.832-12.867-3.938-25.313-13.614-34.724-22.53-1.866.359-3.819.652-5.863.867-4.361.457-6.38 5.663-3.433 8.91 9.264 10.207 26.25 26.594 44.02 32.033 1.658.507 3.369.789 5.098.832 11.373.283 55.353-2.695 89.219-41.946.497-2.404.866-4.509 1.132-6.351z"/></g><path d="m165.62 437.98v54.74l-7.5 9.64-7.5-9.64v-54.74c0-4.15 3.36-7.5 7.5-7.5 4.15 0 7.5 3.35 7.5 7.5z" fill="#4ea1f4"/><path d="m150.62 492.72h15v19.28h-15z" fill="#3292e0"/><path d="m361.38 437.98v54.74l-7.5 9.64-7.5-9.64v-54.74c0-4.15 3.36-7.5 7.5-7.5 4.15 0 7.5 3.35 7.5 7.5z" fill="#4ea1f4"/><path d="m346.38 492.72h15v19.28h-15z" fill="#3292e0"/></g><g><path d="m256 261.119c28.558 0 37.192-20.07 37.569-20.981.001-.002.002-.005.003-.006 2.275-5.112-1.769-11.281-7.404-11.155-3.348 0-6.215 2.049-7.422 4.96-.406.86-5.621 11.116-22.745 11.116-17.12 0-22.336-10.25-22.745-11.115-1.207-2.911-4.074-4.96-7.422-4.96-5.635-.127-9.679 6.044-7.404 11.155.001.001.002.005.003.006.375.91 9.009 20.98 37.567 20.98z" fill="#ff5876"/><g fill="#2d4456"><path d="m206.941 170.362c-4.437 0-8.033 3.597-8.033 8.033v22.698c0 4.437 3.597 8.033 8.033 8.033 4.437 0 8.033-3.597 8.033-8.033v-22.698c0-4.436-3.596-8.033-8.033-8.033z"/><path d="m305.059 209.127c4.437 0 8.034-3.597 8.034-8.033v-22.698c0-4.437-3.597-8.033-8.034-8.033s-8.033 3.597-8.033 8.033v22.698c0 4.436 3.596 8.033 8.033 8.033z"/></g></g></g></svg>