<svg height="512" viewBox="0 0 60 60" width="512" xmlns="http://www.w3.org/2000/svg"><g id="Page-1" fill="none" fill-rule="evenodd"><g id="042---Planting-Seeds" fill-rule="nonzero"><rect id="Rectangle-path" fill="#02a9f4" height="20" rx="2" width="12" x="1" y="1"/><path id="Shape" d="m11 1h-3c1.10320187.0032948 1.9967052.89679813 2 2v16c-.0032948 1.1032019-.89679813 1.9967052-2 2h3c1.1032019-.0032948 1.9967052-.8967981 2-2v-16c-.0032948-1.10320187-.8967981-1.9967052-2-2z" fill="#0377bc"/><path id="Shape" d="m57.45 22.07c-.5208923.690615-1.3349726 1.0976552-2.2 1.1-.4735967-.000959-.93881-.1250158-1.35-.36 0 0-10.88-6.15-15.67-8.86-1.3575801-.7597242-3.0312068-.6702046-4.3.23l-2.13 1.53c-1.0708887.76615-1.5170207 2.1410476-1.1 3.39l1.58 4.74c.4062505 1.2235654-.1339697 2.5612598-1.2759747 3.1595712-1.142005.5983113-2.5493257.280959-3.3240253-.7495712l-3.48-4.65c-.7554175-1.0072234-1.9409708-1.6-3.2-1.6 0 0-5 0-8-2v-15h23.43c1.6605458.0002646 3.2666343.59235463 4.53 1.67l2.74 2.33 7.93 6.74 5.4 4.59c1.1080232.9388954 1.2921756 2.5787293.42 3.74z" fill="#ffe0b2"/><path id="Shape" d="m31.8 15.71 2.13-1.53c.2605147-.1816073.5418538-.3313415.838-.446-1.2716976-.5154364-2.7183884-.3473218-3.838.446l-2.13 1.53c-1.0708887.76615-1.5170207 2.1410476-1.1 3.39l1.58 4.74c.363154 1.1039532-.0504086 2.3148385-1.013 2.966.9260174.6523672 2.1657739.6382605 3.0767074-.0350086.9109336-.6732691 1.2882118-1.8543094.9362926-2.9309914l-1.58-4.74c-.4170207-1.2489524.0291113-2.62385 1.1-3.39z" fill="#dfc49c"/><path id="Shape" d="m57.03 18.33-5.4-4.59-7.93-6.74-2.74-2.33c-1.2633657-1.07764537-2.8694542-1.6697354-4.53-1.67h-3c1.6605458.0002646 3.2666343.59235463 4.53 1.67l2.74 2.33 7.93 6.74 5.4 4.59c1.1080232.9388954 1.2921756 2.5787293.42 3.74-.2006094.2550104-.4442819.472962-.72.644l.17.1c.41119.2349842.8764033.359041 1.35.36 1.1517757.0003582 2.1814741-.717839 2.5790281-1.7988285s.0785354-2.2952025-.7990281-3.0411715z" fill="#dfc49c"/><path id="Shape" d="m56 5.6v.01c-.0003509 1.35039817-1.0344447 2.47573558-2.38 2.59l-.81.07h-.01l-9.1-1.27-2.74-2.33c-1.2633657-1.07764537-2.8694542-1.6697354-4.53-1.67h16.97c1.4359403 0 2.6 1.16405965 2.6 2.6z" fill="#dfc49c"/><path id="Shape" d="m58.97 11.75v.01c-.1850588 1.33685-1.3622106 2.3098463-2.71 2.24l-4.63-.26-7.93-6.74 9.1 1.27h.01l3.95.55c.6830319.09241192 1.3007996.45397868 1.7158535 1.00425381.415054.55027509.5929641 1.24361159.4941465 1.92574619z" fill="#dfc49c"/><circle id="Oval" cx="7" cy="7" fill="#ffdc00" r="2"/><path id="Shape" d="m44 26.581c.1080282 1.7699411-1.2310345 3.2960262-3 3.419-1.7689655-.1229738-3.1080282-1.6490589-3-3.419 0-1.855 1.57-4.157 2.438-5.288.1280886-.1838066.3379653-.2933611.562-.2933611s.4339114.1095545.562.2933611c.868 1.131 2.438 3.433 2.438 5.288z" fill="#fec108"/><path id="Shape" d="m38 37.581c.1080282 1.7699411-1.2310345 3.2960262-3 3.419-1.7689655-.1229738-3.1080282-1.6490589-3-3.419 0-1.855 1.57-4.157 2.438-5.288.1280886-.1838066.3379653-.2933611.562-.2933611s.4339114.1095545.562.2933611c.868 1.131 2.438 3.433 2.438 5.288z" fill="#fec108"/><path id="Shape" d="m48 40.581c.1538563 1.1660988-.3819486 2.3157037-1.3738901 2.947772s-2.2602783.6320683-3.2522198 0-1.5277464-1.7816732-1.3738901-2.947772c0-1.855 1.57-4.157 2.438-5.288.1280886-.1838066.3379653-.2933611.562-.2933611s.4339114.1095545.562.2933611c.868 1.131 2.438 3.433 2.438 5.288z" fill="#fec108"/><path id="Shape" d="m59 51.933v6.067c0 .5522847-.4477153 1-1 1h-56c-.55228475 0-1-.4477153-1-1v-8c0-.5522847.44771525-1 1-1h25c3.2 0 3.2 2 6.4 2s3.21-2 6.41-2 3.2 2 6.4 2 3.2-2 6.39-2c2.871 0 3.166 1.61 5.508 1.941.5038321.0605678.8851076.4845872.892.992z" fill="#a0522d"/><path id="Shape" d="m58.108 50.941c-2.342-.331-2.637-1.941-5.508-1.941-.5061136-.0061708-1.0107219.0564006-1.5.186 1.583.432 2.158 1.493 4.012 1.755.5038321.0605678.8851076.4845872.892.992v6.067c0 .5522847-.4477153 1-1 1h3c.5522847 0 1-.4477153 1-1v-6.067c-.0071487-.5087643-.3905848-.9332829-.896-.992z" fill="#783e22"/><g fill="#000"><path id="Shape" d="m3 22h8c1.4145669-.0008238 2.6363557-.9896726 2.932-2.373 2.2549941.8764565 4.6488718 1.3414812 7.068 1.373.9438273.0018792 1.8322003.4460657 2.4 1.2l3.486 4.654c.6891227.9063378 1.7614342 1.4395354 2.9 1.442 2.000793-.0038614 3.6205554-1.6272033 3.62-3.628.0014495-.3895569-.0596617-.7768194-.181-1.147l-1.581-4.742c-.2798375-.8319572.0178671-1.7490336.733-2.258l2.14-1.521c.9452914-.672631 2.1930774-.7418876 3.207-.178l.011.006h.006l15.665 8.854c1.6823235.9525761 3.8131654.4692553 4.9198694-1.1159324s.8261057-3.7520635-.6478694-5.0030676l-3.127-2.657 1.657.094h.187c1.796578-.0068075 3.3155338-1.3319538 3.566-3.111 0-.015 0-.031.005-.047.2546092-1.95276975-1.1149072-3.74484398-3.066-4.012l-.625-.087c.8238003-1.08641977.9589741-2.54645919.3486332-3.76565512-.610341-1.21919592-1.8602249-1.98586238-3.2236332-1.97734488h-39.584c-.4222546-1.19435086-1.5492146-1.99474861-2.816-2h-8c-1.65685425 0-3 1.34314575-3 3v16c0 1.6568542 1.34314575 3 3 3zm53.649-.532c-.5283509.7010462-1.4937849.9031933-2.259.473l-15.668-8.855-4.081-2.306c-.9016957-.5102844-1.9199285-.7789655-2.956-.78h-.685c-.5522847 0-1 .4477153-1 1s.4477153 1 1 1h.685c.6898235.0000576 1.3678605.1788691 1.968.519l.616.348c-.3221356.1331885-.6289198.3008301-.915.5l-2.139 1.533c-1.4304122 1.0187475-2.0250811 2.8539346-1.464 4.518l1.58 4.74c.0540996.1658997.0807831.3395114.079.514-.0001404.7004373-.4480173 1.3223728-1.1122834 1.5445506-.6642662.2221777-1.3961959-.0051467-1.8177166-.5645506l-3.48-4.652c-.9464354-1.2564342-2.4269914-1.9967122-4-2-.045 0-4.254-.027-7-1.564v-13.436h22.427c1.4236075.00056911 2.80076.50663542 3.886 1.428l16.069 13.659c.7030508.5990255.8199105 1.6411338.267 2.381zm1.022-11.05c.2588783.3401083.3702205.7699826.309 1.193v.045c-.1368067.8032685-.8499277 1.3792508-1.664 1.344l-4.288-.241-5.053-4.293 5.687.794.048.006 3.917.546c.4152947.05350047.7915733.2719151 1.044.606zm-2.671-4.808c-.0045403.8283944-.638795 1.51723651-1.464 1.59l-.706.06-8.7-1.213-2.409-2.047h11.679c.4260847-.00000832.8345738.16993464 1.1349211.47215914s.4677419.71176449.4650789 1.13784086zm-53-2.61c0-.55228475.44771525-1 1-1h8c.5522847 0 1 .44771525 1 1v16c0 .5522847-.4477153 1-1 1h-8c-.55228475 0-1-.4477153-1-1z"/><path id="Shape" d="m7 10c1.65685425 0 3-1.34314575 3-3s-1.34314575-3-3-3-3 1.34314575-3 3 1.34314575 3 3 3zm0-4c.55228475 0 1 .44771525 1 1s-.44771525 1-1 1-1-.44771525-1-1 .44771525-1 1-1z"/><path id="Shape" d="m45 26.581c0-2.025-1.438-4.324-2.645-5.9-.3288225-.4123977-.827557-.6526001-1.355-.6526001s-1.0261775.2402024-1.355.6526001c-1.207 1.576-2.645 3.875-2.645 5.9-.1071547 2.3217813 1.6790525 4.2950936 4 4.419 2.3209475-.1239064 4.1071547-2.0972187 4-4.419zm-6 0c.2393097-1.6169918.9328771-3.1327834 2-4.371 1.0671229 1.2382166 1.7606903 2.7540082 2 4.371.1030381 1.216346-.7859645 2.2915946-2 2.419-1.2140355-.1274054-2.1030381-1.202654-2-2.419z"/><path id="Shape" d="m33.645 31.685c-1.207 1.572-2.645 3.871-2.645 5.896-.1071547 2.3217813 1.6790525 4.2950936 4 4.419 2.3209475-.1239064 4.1071547-2.0972187 4-4.419 0-2.025-1.438-4.324-2.645-5.9-.3294308-.411913-.82852-.6513797-1.3559632-.6506012-.5274433.0007785-1.0258234.2417175-1.3540368.6546012zm1.355 8.315c-1.2140355-.1274054-2.1030381-1.202654-2-2.419.2393097-1.6169918.9328771-3.1327834 2-4.371 1.0671229 1.2382166 1.7606903 2.7540082 2 4.371.1030381 1.216346-.7859645 2.2915946-2 2.419z"/><path id="Shape" d="m45 45c2.3209475-.1239064 4.1071547-2.0972187 4-4.419 0-2.025-1.438-4.324-2.645-5.9-.3288225-.4123977-.827557-.6526001-1.355-.6526001s-1.0261775.2402024-1.355.6526001c-1.207 1.576-2.645 3.875-2.645 5.9-.1071547 2.3217813 1.6790525 4.2950936 4 4.419zm0-8.79c1.0671229 1.2382166 1.7606903 2.7540082 2 4.371.1030381 1.216346-.7859645 2.2915946-2 2.419-1.2140355-.1274054-2.1030381-1.202654-2-2.419.2393097-1.6169918.9328771-3.1327834 2-4.371z"/><path id="Shape" d="m58.249 49.951c-.6933439-.1132165-1.3505497-.3871949-1.919-.8-2.2459592-1.5355508-5.2040408-1.5355508-7.45 0-1.6002239 1.1313735-3.7397761 1.1313735-5.34 0-2.2495436-1.5345856-5.2094564-1.5345856-7.459 0-1.6040401 1.132067-3.7469599 1.132067-5.351 0-1.0875792-.7740447-2.3953591-1.1775983-3.73-1.151h-25c-1.1045695 0-2 .8954305-2 2v8c0 1.1045695.8954305 2 2 2h56c1.1045695 0 2-.8954305 2-2v-6.067c-.0012287-1.0073598-.751477-1.8565844-1.751-1.982zm-.249 8.049h-56v-8h25c.9597073-.0233017 1.8996117.2752148 2.67.848 2.2531415 1.5359398 5.2168585 1.5359398 7.47 0 1.6001018-1.1306028 3.7388982-1.1306028 5.339 0 2.2499571 1.5367939 5.2120429 1.5367939 7.462 0 1.5965964-1.1300844 3.7324036-1.1300844 5.329 0 .8147845.5689921 1.7483443.9451518 2.73 1.1z"/><path id="Shape" d="m9 52h-4c-.55228475 0-1 .4477153-1 1s.44771525 1 1 1h4c.55228475 0 1-.4477153 1-1s-.44771525-1-1-1z"/><path id="Shape" d="m18 54h-5c-.5522847 0-1 .4477153-1 1s.4477153 1 1 1h5c.5522847 0 1-.4477153 1-1s-.4477153-1-1-1z"/><path id="Shape" d="m27 52h-5c-.5522847 0-1 .4477153-1 1s.4477153 1 1 1h5c.5522847 0 1-.4477153 1-1s-.4477153-1-1-1z"/><path id="Shape" d="m37 54h-5c-.5522847 0-1 .4477153-1 1s.4477153 1 1 1h5c.5522847 0 1-.4477153 1-1s-.4477153-1-1-1z"/><path id="Shape" d="m49 54h-5c-.5522847 0-1 .4477153-1 1s.4477153 1 1 1h5c.5522847 0 1-.4477153 1-1s-.4477153-1-1-1z"/></g></g></g></svg>