<svg id="Capa_1" enable-background="new 0 0 512 512" height="512" viewBox="0 0 512 512" width="512" xmlns="http://www.w3.org/2000/svg"><g><g><path d="m130.81 291.917h-.01c-1.648 4.682-17.97 46.1-82.069 60.477-16.564 3.635-32.034-3.119-41.045-15.746-9.146-12.826-10.161-29.347-2.663-43.11 6.422-11.8 9.628-24.747 9.608-37.694-.02-12.867-3.226-25.733-9.608-37.472-16.463-30.22 10.001-66.461 43.708-58.856 64.1 14.377 80.421 55.795 82.069 60.477 1.678 4.732.884 9.987-2.1 14.024-9.545 12.898-9.562 30.922 0 43.875 2.984 4.038 3.778 9.293 2.11 14.025z" fill="#ff7b94"/></g><path d="m128.699 277.893c2.985 4.037 3.779 9.292 2.111 14.024h-.01c-1.648 4.682-17.97 46.1-82.069 60.477-16.564 3.635-32.034-3.119-41.045-15.746-9.146-12.826-10.161-29.347-2.663-43.11 6.422-11.8 9.628-24.747 9.608-37.694h106.903c-.021 7.773 2.371 15.555 7.165 22.049z" fill="#fe4566"/><g><path d="m224.386 377.05c-18.606 26.584-58.994 43.283-97.617 28.461-12.281-4.712-20.723-15.796-22.01-28.925-1.286-13.128 4.844-25.642 15.99-32.66.05-.03.1-.06.161-.101l40.562-24.857c5.105-3.121 11.578-2.93 16.482.503 41.996 29.329 51.228 24.073 54.572 36.657 2.243 8.345-2.631 13.154-8.14 20.922z" fill="#fe4566"/></g><g><path d="m232.929 155.389c-3.21 12.834-12.628 7.472-54.974 37.059-4.908 3.425-11.394 3.615-16.482.493l-40.562-24.857c-.06-.04-.111-.071-.161-.101-11.146-7.017-17.276-19.532-15.99-32.66s9.729-24.213 22.02-28.925c9.628-3.695 19.738-5.567 30.05-5.567 26.331 0 51.477 12.585 67.285 33.657 5.691 7.459 10.948 12.311 8.814 20.901z" fill="#ff7b94"/></g><g><path d="m427.84 356.602c-32.477 50.168-80.356 123.304-149.395 99.902-10.271-3.473-18.13-10.34-22.713-19.833-7.337-15.212-6.121-36.737 3.618-63.98 2.482-6.916 9.578-11.044 16.804-9.776 64.406 11.272 111.342-18.122 128.491-25.874 1.005-.57 2.166-1.395 4.131-2.316 13.615-6.437 27.308 9.127 19.064 21.877z" fill="#fe4566"/></g><g><path d="m415.187 178.625c-4.998 0-7.94-2.289-10.533-3.755-5.005-2.192-47.189-28.461-99.365-28.461-9.548 0-19.357.876-29.135 2.587-7.226 1.279-14.321-2.859-16.804-9.776-9.739-27.243-10.955-48.768-3.618-63.98 4.583-9.494 12.442-16.36 22.713-19.833 30.763-10.42 61.155-2.336 90.33 24.011 23.909 21.595 44.23 52.976 59.064 75.891 6.523 10.086-.786 23.316-12.652 23.316z" fill="#ff7b94"/></g><g><path d="m511.995 255.849v.16c-.02 24.38-44.717 60.478-44.717 60.488-85.58 72.75-149.177 78.875-239.477 40.335 0 0-56.868-21.089-97.778-59.608-14.178-13.378-25.431-23.533-25.432-41.214-.001-14.193 3.594-22.748 12.22-34.416 8.582-11.643 45.267-42.969 96.899-84.356 1.992-.902 3.994-1.779 6.005-2.629.02 0 .03-.01.04-.01 27.18-11.47 55.94-18.39 85.53-18.39 32.635 0 64.257 8.42 93.891 22.085 22.376 29.001 42.254 51.186 66.934 72.166 19.88 16.91 33.465 27.948 45.885 45.389z" fill="#ffa1b2"/></g><path d="m511.996 256.01c-.02 24.384-43.548 56.054-43.548 56.064-26.489 22.516-46.968 38.205-67.411 60.832-59.947 28.099-120.851 30.684-183.207 4.074-34.672-14.796-48.65-38.619-84.235-72.101-14.181-13.38-25.94-31.19-25.94-48.869z" fill="#ff7b94"/><path d="m213.505 372.199c.7 1 .78 1.01 4.33 4.77-24.737-9.633-55.559-41.645-96.57-80.26-14.18-13.38-29.84-23.021-29.84-40.701 0-14.19 4.43-28.31 13.05-39.97 9.81-13.31 41.2-37.87 56.24-48.37 18.873-13.178 37.889-23.737 53-30.42-25.24 36.95-37.01 80.28-37.03 118.6v.16c.01 41.921 12.74 82.091 36.82 116.191z" fill="#fff5f5"/><g><path d="m512 256.008v.111c0 24.404-108.578 88.422-108.578 88.422s-50.193-49.107-50.193-88.422v-.111c.03-39.274 13.94-77.381 39.185-107.332.1-.121 3.95-4.661 8.141-9.585 28.906 13.564 55.822 31.87 80.582 52.916 19.878 16.914 30.833 39.637 30.863 64.001z" fill="#fff5f5"/></g><path d="m512 256v.111c0 24.404-10.955 47.167-30.864 64.101v.01c-24.101 20.486-51.315 39.194-80.099 52.684-4.523-4.893-8.522-9.232-8.613-9.343-25.276-29.982-39.195-68.138-39.195-107.453v-.11z" fill="#f2e4e4"/><g><ellipse cx="436.627" cy="255.955" fill="#525e63" rx="15.075" ry="15.102"/></g><path d="m217.84 376.984c-34.673-14.789-69.778-38.61-105.365-72.105-14.181-13.38-21.045-31.19-21.045-48.869h85.255c.01 41.922 12.744 82.092 36.824 116.192.826 1.179 1.135 1.386 4.331 4.782z" fill="#f2e4e4"/></g></svg>