<svg id="color_line" height="512" viewBox="0 0 74 74" width="512" xmlns="http://www.w3.org/2000/svg" data-name="color line"><path d="m23.415 71c9-15.821 8.851-35.6 8.851-35.6l2.094-10.65c7.548-1.854 6.828 2.958 4.845 8.787 4.336 15.341 1.786 29.343-.617 37.463z" fill="#e7aa6c"/><path d="m38.59 71h-15.18c.57-1 1.11-2.02 1.61-3.05h11.17c2.41-8.12 4.96-22.13.62-37.47a19.626 19.626 0 0 0 1.33-6.05c3.4.58 2.62 4.53 1.06 9.11 4.34 15.34 1.79 29.34-.61 37.46z" fill="#d09865"/><g fill="#323c6b"><path d="m32.839 32.98a.5.5 0 0 1 -.013-1 32.289 32.289 0 0 0 6.893-.956.5.5 0 0 1 .24.971 33.314 33.314 0 0 1 -7.107.985z"/><path d="m33.129 37.374q-.455 0-.9-.015a.5.5 0 0 1 -.484-.515.492.492 0 0 1 .515-.484 31.238 31.238 0 0 0 7.509-.719.5.5 0 0 1 .211.978 32.582 32.582 0 0 1 -6.851.755z"/><path d="m34.137 41.759c-.85 0-1.591-.038-2.209-.091a.5.5 0 0 1 -.456-.541.5.5 0 0 1 .541-.456 29.828 29.828 0 0 0 8.634-.621.5.5 0 0 1 .207.979 32.443 32.443 0 0 1 -6.717.73z"/><path d="m34.1 45.949a25.227 25.227 0 0 1 -2.65-.132.5.5 0 0 1 -.444-.55.491.491 0 0 1 .55-.444 29.967 29.967 0 0 0 9.6-.69.5.5 0 0 1 .222.976 32.966 32.966 0 0 1 -7.278.84z"/><path d="m34.129 50.148a24.883 24.883 0 0 1 -3.347-.213.5.5 0 0 1 .136-.991 29.216 29.216 0 0 0 10.487-.671.5.5 0 1 1 .229.974 32.839 32.839 0 0 1 -7.505.901z"/><path d="m33.863 54.769a22.687 22.687 0 0 1 -4.055-.327.5.5 0 0 1 .184-.983 28.121 28.121 0 0 0 11.39-.625.5.5 0 0 1 .237.972 32.827 32.827 0 0 1 -7.756.963z"/><path d="m31.666 59.181a25.559 25.559 0 0 1 -3.056-.174.5.5 0 0 1 .12-.993 30.662 30.662 0 0 0 12.37-1.283.513.513 0 0 1 .649.479.5.5 0 0 1 -.4.492 33.741 33.741 0 0 1 -9.683 1.479z"/><path d="m30.828 63.59a35.426 35.426 0 0 1 -3.7-.183.481.481 0 0 1 -.479-.5.517.517 0 0 1 .521-.5h.01a42.748 42.748 0 0 0 13.343-.9.5.5 0 0 1 .213.978 46.767 46.767 0 0 1 -9.908 1.105z"/><path d="m28.252 68c-1.219 0-2.232-.054-3-.119a.5.5 0 0 1 -.463-.519.5.5 0 0 1 .495-.479h.01a44.138 44.138 0 0 0 14.465-1.394.5.5 0 1 1 .25.968 47.194 47.194 0 0 1 -11.757 1.543z"/></g><path d="m36.776 22.244s-6.3-11.291-16.618-9.11-12.313 12.066-12.313 12.066a22.993 22.993 0 0 1 17.155-1.889" fill="#6fc666"/><path d="m35.78 20.71c-2.82-3.01-7.52-6.43-13.62-5.14a15.631 15.631 0 0 0 -10.76 8.07 18.457 18.457 0 0 0 -3.55 1.55c.08-.41 2.21-9.93 12.31-12.06 7.92-1.67 13.47 4.58 15.62 7.58z" fill="#65b54e"/><path d="m37.1 22.366c-1.96-8.381-11.23-15.925-21.638-14.466h-.021l-.01.021a.032.032 0 0 1 -.021.01l.021-.01c.01-.01.021-.021.031-.021.9-.7 13.2-9.812 22.749-1.275 3.605 3.229 4.64 7.461 2.947 12.509l-4.29 7.013z" fill="#6fc666"/><path d="m15.44 7.9h.02c-.01 0-.02.01-.03.02z" fill="#6fc666"/><path d="m15.431 8.418a.5.5 0 0 1 -.45-.717.533.533 0 0 1 .459-.3h.02a.51.51 0 0 1 -.029 1.018z" fill="#323c6b"/><path d="m41.51 17.96a10.422 10.422 0 0 0 -3.73-8.44c-5.97-5.34-13.02-3.78-17.68-1.68a18.065 18.065 0 0 0 -4.64.06c.9-.7 13.2-9.81 22.75-1.27a10.685 10.685 0 0 1 3.3 11.33z" fill="#65b54e"/><path d="m17.417 18.583a8.316 8.316 0 0 1 2.626-1.17 10.405 10.405 0 0 1 2.885-.344 8.7 8.7 0 0 1 2.87.547 6.957 6.957 0 0 1 2.452 1.521 20.235 20.235 0 0 0 -2.67-.772 14.363 14.363 0 0 0 -2.679-.3 26.545 26.545 0 0 0 -5.484.518z" fill="#323c6b"/><path d="m30.826 6.954a8.317 8.317 0 0 1 2.658 1.1 10.407 10.407 0 0 1 2.238 1.846 8.7 8.7 0 0 1 1.578 2.458 6.957 6.957 0 0 1 .589 2.825 20.236 20.236 0 0 0 -1.282-2.466 14.364 14.364 0 0 0 -1.632-2.145 26.545 26.545 0 0 0 -4.149-3.618z" fill="#323c6b"/><path d="m58.734 28.483a.5.5 0 0 1 -.408-.209c-.1-.14-.2-.277-.3-.412a.5.5 0 0 1 .8-.6q.158.211.315.43a.5.5 0 0 1 -.407.791z" fill="#323c6b"/><path d="m62.873 38.063a.5.5 0 0 1 -.488-.393l-.046-.217c-.023-.112-.046-.224-.073-.336l-.606-2.169a24.193 24.193 0 0 0 -1.869-4.356.5.5 0 1 1 .874-.486 25.244 25.244 0 0 1 1.953 4.556l.616 2.206c.034.14.06.262.084.384l.043.206a.5.5 0 0 1 -.381.6.509.509 0 0 1 -.107.005z" fill="#323c6b"/><path d="m24.792 61.136a.5.5 0 0 1 -.472-.664 72.909 72.909 0 0 0 2.111-7.386.5.5 0 0 1 .975.226 74.1 74.1 0 0 1 -2.142 7.488.5.5 0 0 1 -.472.336z" fill="#323c6b"/><path d="m23.949 63.424a.5.5 0 0 1 -.462-.69l.118-.291a.5.5 0 0 1 .931.365l-.124.307a.5.5 0 0 1 -.463.309z" fill="#323c6b"/><path d="m17.784 31.62c7.1-14.435 19.323-9.253 19.323-9.253s-.378 17.755-22.246 25.633c-.789-3.694.277-11 2.923-16.38z" fill="#6fc666"/><path d="m28.83 21.81c-2.61 1.45-5.24 4.03-7.4 8.41-2.63 5.34-3.7 12.59-2.94 16.3-1.14.52-2.35 1.02-3.63 1.48-.79-3.69.28-11 2.92-16.38 3.17-6.46 7.38-8.98 11.05-9.81z" fill="#65b54e"/><path d="m32.59 25.2a26.972 26.972 0 0 0 -4.033 3.458 47.3 47.3 0 0 0 -3.464 4l-.815 1.042-.77 1.079c-.545.7-.994 1.464-1.516 2.183l-1.458 2.238c-.484.75-.931 1.522-1.442 2.267.307-.844.67-1.665 1.011-2.5.4-.8.781-1.622 1.222-2.408a34.813 34.813 0 0 1 2.98-4.517 28.6 28.6 0 0 1 3.719-3.949 16.044 16.044 0 0 1 4.566-2.893z" fill="#323c6b"/><path d="m37.171 25.969s4.129-12.252 14.675-11.993 14.309 9.611 14.309 9.611-7.2-3.583-16.415.853" fill="#6fc666"/><path d="m66.16 23.59a14.634 14.634 0 0 0 -3.77-1.1 15.623 15.623 0 0 0 -12.02-5.93c-6.11-.15-10.07 3.91-12.31 7.34 1.71-3.48 6-10.11 13.79-9.92 10.54.26 14.31 9.61 14.31 9.61z" fill="#65b54e"/><path d="m45.833 20.5a7.662 7.662 0 0 1 2.387-1.543 12.856 12.856 0 0 1 8.363-.61c-.94.157-1.855.239-2.763.361s-1.8.247-2.693.407a33.388 33.388 0 0 0 -5.294 1.385z" fill="#323c6b"/><path d="m60.724 47.1c-22.939-3.743-23.855-20.95-23.855-20.95s12.831-8.311 20.688 5.568c2.949 5.22 3.269 11.614 3.167 15.382z" fill="#6fc666"/><path d="m60.72 47.1c-1.15-.19-2.24-.41-3.28-.66.05-3.83-.37-9.87-3.18-14.84-2.97-5.24-6.64-7.32-10.07-7.87 4.21-.36 9.42 1.01 13.37 7.99 2.95 5.22 3.27 11.61 3.16 15.38z" fill="#65b54e"/><path d="m41.951 29.1a12.684 12.684 0 0 1 4.886 1.065 15.09 15.09 0 0 1 4.277 2.7 15.624 15.624 0 0 1 3.173 3.935 16.455 16.455 0 0 1 1.093 2.266c.283.787.512 1.593.722 2.392-.424-.723-.739-1.481-1.165-2.182-.445-.688-.805-1.419-1.309-2.057l-.705-.984-.784-.918a9.4 9.4 0 0 0 -.819-.88 10.721 10.721 0 0 0 -.869-.829 19.042 19.042 0 0 0 -3.944-2.747 20.042 20.042 0 0 0 -4.556-1.761z" fill="#323c6b"/><path d="m7.845 25.7a.5.5 0 0 1 -.49-.6c.021-.1 2.183-10.229 12.7-12.453 10.56-2.23 17.093 9.24 17.158 9.356a.5.5 0 0 1 -.873.487c-.061-.109-6.246-10.944-16.078-8.865a15.649 15.649 0 0 0 -11.612 10.575 23.783 23.783 0 0 1 16.484-1.368.5.5 0 1 1 -.262.965 22.694 22.694 0 0 0 -16.762 1.823.5.5 0 0 1 -.265.08z" fill="#323c6b"/><path d="m36.869 26.65a.509.509 0 0 1 -.121-.015.5.5 0 0 1 -.378-.516l.23-3.71c-1.9-7.919-10.745-15.409-20.974-14.024a.508.508 0 0 1 -.7-.333.5.5 0 0 1 .2-.528.52.52 0 0 1 .086-.059c1.077-.821 13.538-9.965 23.333-1.209 3.754 3.362 4.821 7.871 3.088 13.04a.516.516 0 0 1 -.076.143 35.321 35.321 0 0 0 -4.232 6.917.5.5 0 0 1 -.456.294zm-18.762-19.434c9.64 0 17.679 7.337 19.483 15.036a.5.5 0 0 1 .012.145l-.083 1.342a40.082 40.082 0 0 1 3.191-4.839c1.583-4.794.631-8.8-2.832-11.9-7.562-6.76-16.915-2.077-20.564.231.265-.009.53-.015.793-.015z" fill="#323c6b"/><path d="m14.861 48.5a.5.5 0 0 1 -.489-.4c-.766-3.579.149-10.981 2.963-16.7 7.225-14.688 19.84-9.546 19.967-9.493a.5.5 0 0 1 .3.471c0 .181-.639 18.189-22.576 26.088a.5.5 0 0 1 -.165.034zm17.071-26.57c-4.03 0-9.671 1.721-13.7 9.911-2.576 5.236-3.514 11.89-2.984 15.48 19.08-7.142 21.128-22.148 21.336-24.621a14.263 14.263 0 0 0 -4.652-.77z" fill="#323c6b"/><path d="m37.171 26.469a.5.5 0 0 1 -.474-.66c.042-.126 4.366-12.548 15.16-12.333 10.748.265 14.723 9.824 14.762 9.924a.5.5 0 0 1 -.686.635c-.071-.034-7.106-3.414-15.976.856a.5.5 0 0 1 -.434-.9 20.691 20.691 0 0 1 15.592-1.351 15.653 15.653 0 0 0 -13.282-8.162c-.1 0-.208 0-.312 0-9.819 0-13.837 11.538-13.877 11.656a.5.5 0 0 1 -.473.335z" fill="#323c6b"/><path d="m60.724 47.6a.5.5 0 0 1 -.081-.006c-23.069-3.765-24.264-21.241-24.273-21.417a.5.5 0 0 1 .228-.446c.233-.152 5.8-3.69 11.964-2.177 3.813.936 6.986 3.6 9.431 7.918 2.882 5.1 3.348 11.323 3.232 15.646a.5.5 0 0 1 -.5.486zm-23.331-21.181c.233 2.311 2.49 16.517 22.843 20.1.057-4.159-.47-9.869-3.114-14.55-2.3-4.069-5.263-6.572-8.8-7.439-5.044-1.244-9.801 1.237-10.929 1.889z" fill="#323c6b"/><path d="m38.588 71.5h-15.173a.5.5 0 0 1 -.435-.747c8.829-15.525 8.787-35.153 8.786-35.353a.5.5 0 0 1 .5-.5.5.5 0 0 1 .5.5c0 .2.042 19.476-8.5 35.106h13.947a67.175 67.175 0 0 0 .51-36.827.5.5 0 1 1 .962-.272c4.261 15.072 2.016 28.843-.618 37.741a.5.5 0 0 1 -.479.352z" fill="#323c6b"/><path d="m27.187 37.195a.6.6 0 0 1 -.447-1c1.506-1.686 3.006-3.547 4.46-5.531a.6.6 0 0 1 .968.709c-1.476 2.016-3 3.907-4.533 5.622a.6.6 0 0 1 -.448.2z" fill="#fff"/><path d="m25.489 39.017a.6.6 0 0 1 -.42-1.028l.222-.22a.6.6 0 1 1 .854.843l-.236.234a.6.6 0 0 1 -.42.171z" fill="#fff"/></svg>