<svg id="Capa_1" enable-background="new 0 0 512 512" height="512" viewBox="0 0 512 512" width="512" xmlns="http://www.w3.org/2000/svg"><g><g><path d="m57.2 438.233v-364.466c0-36.598 29.668-66.266 66.266-66.266l314.766-.001c9.15 0 16.568 7.417 16.568 16.567v331.333 14.288z" fill="#54d7ff"/><path d="m431.8 24.067v331.333 18.253l23-3.965v-14.288-331.333c0-9.15-7.418-16.567-16.568-16.567h-22.999c9.15.001 16.567 7.418 16.567 16.567z" fill="#63b0ff"/><path d="m441.25 438.233 13.5-46.066.05-3.625v-33.142c0 9.15-7.418 16.568-16.568 16.568h-314.765c-36.598 0-66.266 29.668-66.266 66.266s29.668 66.266 66.266 66.266h314.765c9.15 0 16.568-7.418 16.568-16.568v-33.129z" fill="#63b0ff"/><path d="m454.75 392.167.05-3.629v-33.138c0 9.15-7.418 16.568-16.568 16.568h-6.432v115.965c0 9.15-7.417 16.567-16.567 16.568h22.999c9.15 0 16.568-7.418 16.568-16.568v-33.129l-13.55-16.57z" fill="#7288ff"/><path d="m140.033 471.366h-16.567c-18.299 0-33.133-14.834-33.133-33.133s14.834-33.133 33.133-33.133l314.766.001c9.15 0 16.568-7.418 16.568-16.568v66.266c0 9.15-7.417 16.568-16.568 16.568h-231.932" fill="#e2dff4"/><path d="m192.159 502.057-13.135-13.135c-3.235-3.235-8.48-3.235-11.714 0l-13.136 13.135c-5.218 5.218-14.141 1.523-14.141-5.857v-57.967h66.267v57.967c0 7.379-8.922 11.075-14.141 5.857z" fill="#fd445f"/><path d="m183.25 438.233v54.914l8.909 8.909c5.218 5.218 14.141 1.522 14.141-5.857v-57.967h-23.05z" fill="#e30f5a"/><path d="m330.833 338.833h-83.4c-4.418 0-8-3.582-8-8v-17.133c0-4.418 3.582-8 8-8h83.4c4.418 0 8 3.582 8 8v17.133c0 4.418-3.582 8-8 8z" fill="#ffc649"/><path d="m363.967 272.567h-149.667c-4.418 0-8-3.582-8-8v-17.133c0-4.418 3.582-8 8-8h149.666c4.418 0 8 3.582 8 8v17.133c.001 4.418-3.581 8-7.999 8z" fill="#f6f6f6"/><path d="m363.967 239.433h-23c4.418 0 8 3.582 8 8v17.133c0 4.418-3.582 8-8 8h23c4.418 0 8-3.582 8-8v-17.133c0-4.418-3.582-8-8-8z" fill="#e2dff4"/><path d="m330.833 305.7h-23c4.418 0 8 3.582 8 8v17.133c0 4.418-3.582 8-8 8h23c4.418 0 8-3.582 8-8v-17.133c0-4.418-3.582-8-8-8z" fill="#ffa742"/><path d="m431.8 405.1v66.266h6.432c9.148 0 16.565-7.415 16.567-16.563v-66.266c-.003 9.148-7.419 16.563-16.567 16.563z" fill="#bebcdd"/><g><path d="m294.99 200.443 2.345-2.345c5.473-5.473 12.331-9.356 19.841-11.234l10.181-2.545c7.509-1.877 14.367-5.76 19.841-11.234l3.003-3.003c12.999-12.999 16.221-32.856 8-49.298-6.854-13.708-5.837-30.037 2.664-42.789l1.486-2.228c.824-1.237.923-2.82.258-4.15l-13.64-27.279c-1.023-2.046-3.511-2.875-5.557-1.852l-2.716 1.358c-16.519 8.259-36.196 7.034-51.563-3.21-15.367 10.244-35.044 11.47-51.563 3.21l-2.716-1.358c-2.046-1.023-4.534-.194-5.557 1.852l-13.639 27.279c-.665 1.329-.566 2.913.258 4.15l1.486 2.228c8.501 12.752 9.518 29.081 2.664 42.789-8.221 16.442-4.999 36.3 8 49.298l3.003 3.003c5.473 5.473 12.331 9.356 19.841 11.234l10.181 2.545c7.509 1.877 14.367 5.76 19.841 11.234l2.345 2.345c3.234 3.235 8.479 3.235 11.713 0z" fill="#ffc649"/><g><path d="m358.201 120.785c-6.854-13.708-5.837-30.037 2.664-42.789l1.486-2.228c.824-1.237.923-2.82.258-4.15l-13.64-27.279c-1.023-2.046-3.511-2.875-5.557-1.852l-2.716 1.358c-4.101 2.05-8.397 3.514-12.773 4.402l11.686 23.371c.665 1.329.566 2.913-.258 4.15l-1.486 2.228c-8.501 12.752-9.518 29.081-2.664 42.789 8.221 16.442 4.999 36.3-8 49.298l-3.003 3.003c-5.473 5.473-12.331 9.356-19.841 11.234l-10.181 2.545c-6.075 1.519-11.709 4.37-16.543 8.293 1.142.926 2.252 1.895 3.298 2.94l2.345 2.345c3.235 3.235 8.479 3.235 11.714 0l2.345-2.345c5.473-5.473 12.331-9.356 19.841-11.234l10.181-2.545c7.509-1.877 14.367-5.76 19.841-11.234l3.003-3.003c12.998-12.997 16.221-32.855 8-49.297z" fill="#ffa742"/></g></g></g><g><g><path d="m438.232 0-314.766.001c-40.675 0-73.766 33.091-73.766 73.766v364.466c0 40.675 33.091 73.767 73.767 73.767h314.766c13.27 0 24.067-10.796 24.067-24.067v-463.866c0-13.271-10.797-24.067-24.068-24.067zm-240.245 497c-.267.008-.422-.144-.524-.246v.001l-13.136-13.136c-6.153-6.154-16.167-6.153-22.321 0l-13.136 13.135c-.102.103-.258.255-.527.246h-.014c-.091-.005-.194-.027-.313-.076-.483-.2-.483-.528-.483-.724v-50.466h51.267v50.466c0 .196 0 .523-.483.724-.118.049-.22.071-.31.076zm-21.491 0h-6.658l2.775-2.775c.306-.306.803-.305 1.108 0zm270.804-66.267h-348.345c3.215-10.487 12.986-18.134 24.512-18.134l314.766.001c3.206 0 6.268-.63 9.067-1.773zm-314.766 15v18.132h-9.067c-11.525 0-21.296-7.647-24.511-18.132zm81.266 0h233.5v9.065c0 5-4.067 9.067-9.067 9.067h-224.433zm-149.1-371.966c0-29.862 22.394-54.574 51.266-58.271l.001 349.35c-20.881 2.118-39.208 12.987-51.267 28.865zm67.863 423.233h-9.097c-32.403 0-58.766-26.363-58.766-58.767 0-32.402 26.359-58.762 58.76-58.766h.006 34.7c4.142 0 7.5-3.358 7.5-7.5s-3.358-7.5-7.5-7.5h-27.2v-349.467h307.266c5 0 9.067 4.068 9.067 9.067v331.332c0 5-4.067 9.068-9.067 9.068h-250.065c-4.142 0-7.5 3.358-7.5 7.5s3.358 7.5 7.5 7.5h250.065c3.207 0 6.267-.635 9.067-1.779v10.845c0 4.999-4.067 9.067-9.067 9.067l-314.766-.001c-22.405 0-40.633 18.228-40.633 40.633v.001.001c.001 22.405 18.229 40.632 40.633 40.632h9.067zm81.237-18.133h224.432c3.207 0 6.267-.635 9.067-1.779v10.845c.001 5-4.067 9.067-9.067 9.067h-224.462z"/><path d="m330.833 298.2h-83.399c-8.547 0-15.5 6.953-15.5 15.5v17.133c0 8.547 6.953 15.5 15.5 15.5h83.399c8.547 0 15.5-6.953 15.5-15.5v-17.133c0-8.547-6.953-15.5-15.5-15.5zm.5 32.633c0 .276-.225.5-.5.5h-83.399c-.276 0-.5-.224-.5-.5v-17.133c0-.276.224-.5.5-.5h83.399c.275 0 .5.224.5.5z"/><path d="m214.3 280.066h149.667c8.547 0 15.5-6.953 15.5-15.5v-17.133c0-8.547-6.953-15.5-15.5-15.5h-109.534c-4.142 0-7.5 3.358-7.5 7.5s3.358 7.5 7.5 7.5h109.534c.275 0 .5.224.5.5v17.133c0 .276-.225.5-.5.5h-149.667c-.276 0-.5-.224-.5-.5v-17.133c0-.276.224-.5.5-.5h10.133c4.142 0 7.5-3.358 7.5-7.5s-3.358-7.5-7.5-7.5h-10.133c-8.547 0-15.5 6.953-15.5 15.5v17.133c0 8.547 6.953 15.5 15.5 15.5z"/><path d="m211.162 82.155c6.991 10.486 7.832 24.003 2.196 35.275-9.68 19.359-5.901 42.65 9.405 57.955l3.002 3.003c6.433 6.433 14.499 11 23.326 13.206l10.181 2.545c6.189 1.548 11.846 4.75 16.356 9.261l2.345 2.344c2.98 2.981 6.944 4.623 11.16 4.623 4.217 0 8.18-1.642 11.161-4.623l2.345-2.345c4.511-4.511 10.167-7.713 16.355-9.261l10.183-2.545c8.826-2.206 16.892-6.773 23.325-13.207l3.001-3.002c15.307-15.305 19.086-38.596 9.405-57.955-5.636-11.272-4.794-24.789 2.197-35.276l1.482-2.225c2.314-3.468 2.594-7.94.728-11.667l-13.64-27.281c-2.872-5.741-9.88-8.075-15.619-5.205l-2.716 1.358c-14.076 7.038-30.954 5.987-44.049-2.743-2.52-1.679-5.801-1.679-8.32 0-13.096 8.729-29.973 9.779-44.048 2.742l-2.716-1.358c-2.781-1.391-5.937-1.616-8.887-.632-2.95.983-5.341 3.056-6.732 5.838l-13.64 27.279c-1.864 3.727-1.585 8.196.726 11.664zm12.481-8.32-.404-.607 11.266-22.533c17.357 8.56 37.84 7.987 54.628-1.291 16.787 9.278 37.274 9.851 54.629 1.291l11.267 22.533-.404.607c-9.969 14.954-11.169 34.229-3.132 50.304 6.788 13.576 4.138 29.908-6.596 40.641l-3.002 3.002c-4.511 4.511-10.167 7.713-16.355 9.261l-10.183 2.545c-8.826 2.207-16.892 6.773-23.325 13.207l-2.345 2.345v.001c-.304.303-.801.305-1.106-.001l-2.345-2.345c-6.434-6.433-14.499-11-23.326-13.207l-10.181-2.545c-6.189-1.548-11.845-4.75-16.356-9.261l-3.003-3.002c-10.733-10.733-13.383-27.065-6.595-40.641 8.037-16.075 6.837-35.35-3.132-50.304z"/><path d="m256 97.834h66.267c4.143 0 7.5-3.358 7.5-7.5s-3.357-7.5-7.5-7.5h-66.267c-4.142 0-7.5 3.358-7.5 7.5s3.358 7.5 7.5 7.5z"/><path d="m305.7 115.967h-33.134c-4.143 0-7.5 3.358-7.5 7.5s3.357 7.5 7.5 7.5h33.134c4.143 0 7.5-3.358 7.5-7.5s-3.357-7.5-7.5-7.5z"/></g></g></g></svg>