<svg height="512pt" viewBox="-129 0 512 512" width="512pt" xmlns="http://www.w3.org/2000/svg"><g fill="#00bdf2"><path d="m97.738281 241.28125-27.03125-132.027344c-2-9.777344-6.03125-19.027344-11.824219-27.152344l-2.734374-3.832031 2.734374 3.832031c1.425782 2 2.742188 4.066407 3.949219 6.191407.089844.15625.167969.316406.257813.46875.476562.859375.9375 1.722656 1.378906 2.597656.171875.332031.328125.671875.492188 1.011719.214843.4375.414062.878906.617187 1.320312l-7.71875 6.164063c-10.054687 8.027343-23.34375 10.746093-35.742187 7.316406l-9.523438-2.632813c.015625-.484374.023438-.972656.050781-1.457031.015625-.375.03125-.75.054688-1.125.0625-.976562.148437-1.953125.25-2.925781.019531-.179688.03125-.359375.050781-.535156.265625-2.335938.644531-4.664063 1.136719-6.972656-2.074219 9.664062-2.125 19.65625-.140625 29.339843l27.363281 133.648438c18.714844 2.75 37.53125 4.585937 56.378906 5.515625zm0 0"/><path d="m28.597656 43.015625c.273438 0 .550782.023437.820313.074219-.269531-.050782-.546875-.070313-.820313-.074219zm0 0"/><path d="m30.984375 43.664062c.097656.058594.195313.121094.289063.191407-.09375-.070313-.191407-.128907-.289063-.191407zm0 0"/><path d="m29.941406 43.210938c.234375.070312.46875.160156.691406.269531-.222656-.109375-.457031-.199219-.691406-.269531zm0 0"/><path d="m29.578125 43.121094c.097656.019531.195313.042968.289063.070312-.09375-.027344-.191407-.050781-.289063-.070312zm0 0"/><path d="m23.945312 46.742188c.507813-2.320313 2.464844-3.652344 4.488282-3.722657-2.023438.070313-3.980469 1.402344-4.488282 3.722657l-7.382812 33.707031 2.785156-12.726563zm0 0"/></g><path d="m12.949219 99.03125c-.105469.976562-.1875 1.953125-.25 2.929688-.023438.375-.039063.746093-.058594 1.121093-.023437.488281-.03125.972657-.046875 1.460938l9.523438 2.632812c12.398437 3.429688 25.6875.707031 35.738281-7.316406l7.722656-6.167969c-.203125-.441406-.40625-.882812-.617187-1.320312-.164063-.335938-.324219-.675782-.492188-1.011719-.441406-.871094-.902344-1.738281-1.378906-2.59375-.089844-.15625-.171875-.3125-.257813-.46875-1.207031-2.128906-2.527343-4.195313-3.953125-6.195313l-2.730468-3.828124-11.320313-15.871094-12.402344-17.394532c-.183593-.261718-.390625-.496093-.605469-.703124-.089843-.082032-.175781-.160157-.269531-.238282-.09375-.074218-.183593-.144531-.277343-.210937-.097657-.066407-.195313-.128907-.292969-.1875-.113281-.066407-.230469-.128907-.347657-.1875-.226562-.109375-.457031-.199219-.695312-.265625-.023438-.007813-.046875-.015625-.070312-.023438-.097657-.027344-.191407-.050781-.289063-.070312-.054687-.011719-.105469-.019532-.160156-.03125-.273438-.046875-.546875-.070313-.820313-.070313-.054687 0-.109375 0-.164062.003907-2.023438.066406-3.980469 1.402343-4.488282 3.722656l-4.597656 20.980468-2.785156 12.722657-2.363281 10.800781c-.023438.089844-.042969.183594-.0625.273438-.496094 2.3125-.871094 4.636718-1.136719 6.972656-.019531.179687-.035156.355468-.050781.535156zm0 0" fill="#fdd9b1"/><path d="m222.09375 43.855469c.097656-.070313.195312-.128907.292969-.191407-.097657.0625-.195313.121094-.292969.191407zm0 0" fill="#ffcc5a"/><path d="m222.734375 43.480469c.226563-.109375.457031-.199219.695313-.269531-.238282.070312-.46875.160156-.695313.269531zm0 0" fill="#ffcc5a"/><path d="m229.425781 46.742188 4.59375 20.980468 2.785157 12.722656-7.378907-33.703124c-.507812-2.320313-2.46875-3.652344-4.492187-3.722657 2.023437.070313 3.984375 1.402344 4.492187 3.722657zm0 0" fill="#ffcc5a"/><path d="m223.5 43.191406c.097656-.027344.191406-.050781.289062-.070312-.097656.019531-.195312.042968-.289062.070312zm0 0" fill="#ffcc5a"/><path d="m212.007812 254.515625 27.367188-133.648437c1.980469-9.6875 1.933594-19.679688-.144531-29.34375.496093 2.3125.875 4.636718 1.136719 6.972656.019531.179687.035156.355468.054687.535156.101563.972656.183594 1.949219.25 2.929688.019531.371093.035156.746093.054687 1.121093.023438.484375.035157.972657.046876 1.457031l-9.523438 2.636719c-12.398438 3.425781-25.6875.707031-35.738281-7.320312l-7.722657-6.164063c.203126-.441406.40625-.882812.617188-1.320312.164062-.335938.324219-.675782.492188-1.011719.441406-.875.902343-1.738281 1.382812-2.59375.085938-.15625.167969-.316406.253906-.46875 1.210938-2.128906 2.527344-4.195313 3.953125-6.195313l2.730469-3.828124-2.730469 3.828124c-5.796875 8.125-9.824219 17.375-11.828125 27.152344l-27.03125 132.027344v18.746094c18.847656-.929688 37.664063-2.765625 56.378906-5.511719zm0 0" fill="#ffcc5a"/><path d="m223.949219 43.089844c.273437-.050782.546875-.074219.820312-.074219-.273437.003906-.546875.023437-.820312.074219zm0 0" fill="#ffcc5a"/><path d="m190.535156 88.292969c-.085937.15625-.167968.316406-.257812.46875-.476563.859375-.9375 1.722656-1.378906 2.597656-.167969.332031-.328126.671875-.492188 1.011719-.214844.4375-.414062.878906-.617188 1.320312l7.722657 6.164063c10.050781 8.027343 23.339843 10.746093 35.738281 7.316406l9.523438-2.632813c-.015626-.484374-.023438-.972656-.046876-1.457031-.019531-.375-.035156-.75-.058593-1.125-.0625-.976562-.144531-1.953125-.25-2.925781-.019531-.179688-.03125-.359375-.050781-.535156-.265626-2.335938-.644532-4.664063-1.136719-6.972656-.019531-.089844-.039063-.183594-.0625-.273438l-2.363281-10.804688-2.789063-12.722656-4.59375-20.980468c-.507813-2.320313-2.464844-3.652344-4.488281-3.722657-.054688 0-.109375-.003906-.164063-.003906-.277343 0-.550781.023437-.820312.074219-.054688.007812-.109375.019531-.164063.027344-.09375.023437-.191406.046874-.285156.074218-.023438.003906-.050781.011719-.070312.019532-.238282.070312-.46875.15625-.695313.265624-.121094.058594-.234375.121094-.351563.1875-.097656.058594-.195312.121094-.289062.1875-.09375.066407-.1875.136719-.277344.214844-.09375.074219-.179687.152344-.269531.234375-.21875.210938-.421875.445313-.609375.703125l-12.402344 17.394532-11.316406 15.871093-2.734375 3.828125c-1.421875 2-2.738281 4.070313-3.949219 6.195313zm0 0" fill="#fdd9b1"/><path d="m131.015625 12.816406 3.84375 8.660156-3.84375-8.660156c-1.578125-3.558594-6.441406-3.746094-8.367187-.566406 1.925781-3.179688 6.789062-2.992188 8.367187.566406zm0 0" fill="#ed3c8f"/><path d="m122.570312 12.382812c-.078124.136719-.148437.28125-.214843.433594l-6.453125 14.542969 6.453125-14.542969c.066406-.152344.136719-.292968.214843-.433594zm0 0" fill="#ed3c8f"/><path d="m155.628906 260.027344v-176.59375c0-9.980469-2.089844-19.847656-6.136718-28.972656.996093 2.246093 1.871093 4.535156 2.625 6.859374.054687.171876.105468.34375.160156.511719.296875.9375.574218 1.875.828125 2.820313.101562.363281.191406.726562.28125 1.089844.121093.46875.230469.945312.339843 1.417968l-8.800781 4.492188c-11.457031 5.84375-25.023437 5.84375-36.480469 0l-8.800781-4.492188c.109375-.472656.21875-.949218.339844-1.417968.089844-.363282.179687-.726563.277344-1.089844.257812-.945313.535156-1.882813.832031-2.820313.054688-.167969.101562-.339843.160156-.511719.753906-2.324218 1.628906-4.617187 2.625-6.859374-4.046875 9.121093-6.136718 18.992187-6.136718 28.972656v176.59375c19.28125.949218 38.601562.949218 57.886718 0zm0 0" fill="#ed3c8f"/><path d="m101.09375 61.832031c-.296875.9375-.574219 1.875-.832031 2.820313-.097657.363281-.1875.726562-.28125 1.089844-.117188.472656-.226563.945312-.339844 1.417968l8.804687 4.492188c11.457032 5.84375 25.019532 5.84375 36.480469 0l8.800781-4.492188c-.109374-.472656-.21875-.945312-.339843-1.417968-.09375-.363282-.183594-.726563-.28125-1.085938-.257813-.949219-.535157-1.886719-.832031-2.824219-.054688-.167969-.101563-.339843-.15625-.507812-.757813-2.328125-1.632813-4.617188-2.628907-6.863281l-9.8125-22.117188-4.816406-10.863281-3.84375-8.664063c-1.578125-3.554687-6.441406-3.742187-8.367187-.5625-.027344.042969-.050782.085938-.078126.128906-.078124.140626-.148437.285157-.214843.433594l-6.453125 14.542969-2.257813 5.089844-9.765625 22.011719c-.996094 2.246093-1.871094 4.539062-2.628906 6.863281-.054688.167969-.101562.339843-.15625.507812zm0 0" fill="#fdd9b1"/><path d="m231.859375 251.460938-15.269531 2.363281c-1.527344.234375-3.054688.464843-4.578125.6875-18.71875 2.75-37.53125 4.585937-56.382813 5.515625-19.285156.949218-38.601562.949218-57.886718 0-18.851563-.929688-37.664063-2.765625-56.382813-5.515625-1.527344-.222657-3.050781-.453125-4.578125-.6875l-15.269531-2.363281c-6.648438-1.03125-12.390625 4.683593-11.390625 11.339843l31.128906 207.527344c1.488281 9.925781 8.492188 18.136719 18.058594 21.175781 43.839844 13.917969 90.914062 13.917969 134.753906 0 9.566406-3.039062 16.570312-11.25 18.0625-21.175781l31.125-207.527344c1-6.65625-4.742188-12.371093-11.390625-11.339843zm0 0" fill="#9c74b7"/><path d="m247.476562 247.160156c-4.546874-4.53125-10.800781-6.566406-17.140624-5.582031l-5.648438.871094 24.480469-119.578125s0 0 0-.003906c2.261719-11.0625 2.222656-22.246094-.121094-33.242188-.035156-.171875-.070313-.34375-.109375-.515625l-9.746094-44.503906c-1.246094-5.6875-5.738281-10.117188-11.441406-11.285157-2.761719-.566406-5.566406-.3125-8.105469.632813-.042969.015625-.082031.03125-.125.050781-.039062.011719-.078125.027344-.113281.042969-2.457031.964844-4.648438 2.582031-6.308594 4.75-.101562.132813-.203125.265625-.296875.40625l-13.300781 18.644531-13.15625 18.445313c-6.636719 9.304687-11.171875 19.71875-13.484375 30.957031l-7.230469 35.320312v-59.140624c0-11.453126-2.355468-22.5625-7-33.023438l-3.019531-6.808594-15.457031-34.835937c-1.890625-4.265625-5.664063-7.324219-10.085938-8.367188-1.09375-.257812-2.226562-.394531-3.382812-.394531-1.09375 0-2.171875.121094-3.214844.355469-4.492188 1.007812-8.335938 4.085937-10.253906 8.40625l-15.25 34.375-3.226563 7.269531c-4.644531 10.460938-7 21.570312-7 33.023438v59.15625l-7.230469-35.339844c-2.3125-11.234375-6.847656-21.648438-13.484374-30.949219l-18.679688-26.191406-7.777344-10.902344c-.226562-.320313-.464844-.628906-.714844-.925781-1.777343-2.113282-4.082031-3.652344-6.628906-4.5-2.40625-.800782-5.023437-.984375-7.609375-.457032-5.703125 1.167969-10.191406 5.597657-11.4375 11.285157l-9.746093 44.503906c-.039063.171875-.074219.34375-.113282.519531-2.339844 10.996094-2.378906 22.175782-.117187 33.242188l24.480469 119.582031-5.644532-.875c-6.347656-.984375-12.597656 1.050781-17.148437 5.582031-4.546875 4.53125-6.613281 10.769532-5.660157 17.121094l31.128907 207.539062c1.019531 6.734376 3.890625 13.019532 8.277343 18.152344 4.398438 5.171875 10.15625 8.996094 16.652344 11.0625 23.027344 7.308594 46.710938 10.964844 70.394532 10.964844 23.6875 0 47.375-3.65625 70.402343-10.96875 13.304688-4.226562 22.859375-15.421875 24.929688-29.222656l31.125-207.523438c.957031-6.355468-1.105469-12.59375-5.660157-17.125zm-44.847656-159.253906 6.578125-9.226562 12.984375-18.207032 7.214844 32.921875c.042969.195313.082031.386719.125.582031.214844 1.03125.402344 2.078126.566406 3.144532l-1.511718.417968c-9.28125 2.566407-19.3125.511719-26.835938-5.496093l-1.230469-.980469c.675781-1.078125 1.378907-2.136719 2.109375-3.15625zm-10.175781 23.363281c.074219-.367187.152344-.734375.234375-1.101562 8.300781 5.539062 18.050781 8.445312 27.917969 8.445312 3.066406 0 6.140625-.277343 9.183593-.847656-.066406.367187-.136718.730469-.214843 1.09375l-25.941407 126.730469c-.507812.070312-1.019531.136718-1.53125.203125-.132812.019531-.261718.035156-.394531.054687-.40625.050782-.8125.105469-1.21875.15625-.132812.015625-.265625.035156-.394531.050782-.503906.066406-1.007812.128906-1.511719.191406-.121093.015625-.246093.03125-.367187.046875-.390625.046875-.777344.09375-1.164063.144531-.171875.019531-.347656.042969-.523437.0625-.414063.050781-.828125.101562-1.238282.148438-.167968.023437-.335937.042968-.5.0625-.425781.050781-.847656.097656-1.269531.148437-.175781.019531-.351562.039063-.527343.0625-.367188.039063-.734376.082031-1.101563.125-.152344.015625-.304687.035156-.460937.050781-.488282.054688-.976563.109375-1.46875.164063-.160157.019531-.320313.035156-.476563.050781-.351563.039062-.699219.078125-1.046875.113281-.199219.023438-.394531.042969-.59375.066407-.410156.042968-.820312.085937-1.230469.128906-.175781.019531-.351562.035156-.527343.054687-.40625.042969-.816407.082031-1.222657.125-.183593.015625-.367187.035157-.546875.054688-.359375.035156-.714844.070312-1.070312.105469-.164063.015624-.324219.03125-.488282.046874-.480468.046876-.957031.09375-1.4375.140626-.175781.015624-.351562.03125-.527343.046874-.351563.035157-.703125.066407-1.058594.101563-.179687.015625-.359375.03125-.539063.050781-.476562.042969-.953124.085938-1.429687.128906-.105469.007813-.210937.015626-.316406.027344-.421875.035156-.847657.074219-1.273438.109375-.167969.015625-.332031.027344-.496093.042969-.390626.03125-.785157.066406-1.175782.097656-.128906.011719-.261718.023438-.390625.035156-.503906.039063-1.007812.082032-1.511719.121094-.132812.011719-.265624.019532-.402343.03125-.390625.03125-.78125.0625-1.171875.089844-.152344.011719-.308594.027344-.460938.039062-.507812.039063-1.015625.074219-1.523437.113282-.058594.003906-.117188.007812-.175781.011718-.464844.035157-.925782.066407-1.390626.101563-.140624.007813-.277343.019531-.417968.027344-.457032.03125-.917969.066406-1.375.09375-.019532.003906-.035156.003906-.054688.003906v-7.15625zm-50.671875-49.238281-1.398438.714844c-8.578124 4.375-18.816406 4.375-27.394531 0l-1.398437-.714844c.4375-1.183594.914062-2.351562 1.417968-3.488281 0-.011719.003907-.015625.007813-.023438l13.667969-30.804687 13.667968 30.804687c.015626.035157.03125.066407.042969.097657.492188 1.117187.957031 2.257812 1.386719 3.414062zm-34.042969 21.398438c0-.371094.003907-.742188.007813-1.113282 6.054687 2.46875 12.496094 3.703125 18.9375 3.699219 6.441406 0 12.882812-1.234375 18.9375-3.699219.007812.371094.011718.742188.011718 1.113282v156.808593l-2.101562 10.253907c-11.160156.324218-22.449219.324218-33.707031-.003907l-2.089844-10.207031v-156.851562zm-83.972656 10.894531c.003906-.011719.007813-.019531.007813-.03125.019531-.09375.039062-.1875.058593-.28125.042969-.207031.085938-.414063.132813-.621094l7.210937-32.917969 5.976563 8.378906 13.589844 19.054688c.730468 1.019531 1.433593 2.078125 2.105468 3.15625l-1.226562.980469c-7.527344 6.007812-17.558594 8.058593-26.835938 5.496093l-1.515625-.417968c.144531-.941406.3125-1.875.496094-2.796875zm-.1875 23.441406c3.046875.570313 6.121094.847656 9.183594.847656 9.867187 0 19.621093-2.90625 27.917969-8.445312.082031.363281.160156.726562.234374 1.09375l26.824219 131.046875v7.109375c-3.59375-.242188-7.191406-.519531-10.785156-.832031-.222656-.015626-.441406-.035157-.660156-.054688-.261719-.023438-.523438-.046875-.785157-.070312-.515624-.046876-1.027343-.09375-1.542968-.140626-.027344 0-.050782-.003906-.078125-.007812-8.070313-.742188-16.136719-1.652344-24.152344-2.726562l-25.941406-126.722657c-.074219-.367187-.144531-.730469-.214844-1.097656zm209.785156 143.546875v.003906l-31.125 207.523438c-.933593 6.199218-5.226562 11.230468-11.207031 13.132812-42.097656 13.367188-86.597656 13.367188-128.6875 0-2.921875-.929687-5.503906-2.644531-7.492188-4.980468-1.976562-2.308594-3.261718-5.132813-3.71875-8.152344l-31.152343-207.5 15.246093 2.355468c1.558594.246094 3.121094.484376 4.667969.703126.003907.003906.007813.003906.011719.003906 10.5625 1.546875 21.222656 2.816406 31.894531 3.800781.125.011719.25.023437.378907.035156.3125.027344.628906.054688.941406.085938.359375.03125.714844.0625 1.074218.09375.148438.011719.296876.027343.445313.039062.539063.046875 1.074219.09375 1.613281.140625h.003906c7.007813.597656 14.023438 1.070313 21.015626 1.417969l3.910156.171875c.332031.015625.664062.027344.992187.039062 8.179688.335938 16.378907.507813 24.566407.507813 9.777343 0 19.527343-.242187 29.175781-.71875l.199219-.011719c1.789062-.085937 3.582031-.179687 5.371093-.285156 3.25-.1875 6.503907-.40625 9.757813-.648438 1.53125-.113281 3.066406-.234374 4.597656-.363281h.023438c8.652343-.714843 17.308593-1.621093 25.921874-2.710937 3.902344-.492188 7.796876-1.023438 11.675782-1.59375.011718 0 .019531-.003906.03125-.003906 1.546875-.226563 3.101562-.460938 4.613281-.699219l15.253906-2.414063c.003907 0 .003907.011719 0 .027344zm0 0"/><path d="m204.105469 286.070312c-5.464844-.792968-10.535157 3-11.328125 8.464844l-14.886719 102.988282c-.789063 5.464843 3 10.535156 8.46875 11.324218.484375.070313.964844.105469 1.441406.105469 4.886719 0 9.164063-3.589844 9.882813-8.570313l14.886718-102.988281c.789063-5.464843-3-10.535156-8.464843-11.324219zm0 0"/><path d="m182.679688 420.894531c-5.523438 0-10 4.476563-10 9.996094v.027344c0 5.523437 4.476562 9.988281 10 9.988281 5.519531 0 9.996093-4.492188 9.996093-10.015625 0-5.519531-4.476562-9.996094-9.996093-9.996094zm0 0"/></svg>