<svg id="Capa_1" enable-background="new 0 0 512 512" height="512" viewBox="0 0 512 512" width="512" xmlns="http://www.w3.org/2000/svg"><g><path d="m265.284 377.067c-5.761 5.623-15.02 5.623-20.781 0-.904-.882-1.754-1.808-2.549-2.771v136.601c0 .609.494 1.104 1.104 1.104h23.671c.609 0 1.104-.494 1.104-1.104v-136.602c-.795.963-1.645 1.889-2.549 2.772z" fill="#bcdf95"/><path d="m241.955 362.515v36.958c4.072 1.593 8.446 2.428 12.94 2.428 4.493 0 8.866-.834 12.939-2.428v-25.178c-.796.963-25.085-10.817-25.879-11.78z" fill="#aad880"/><path d="m243.474 103.907c3.738-.487 7.549-.739 11.42-.739s7.682.252 11.42.739l9.224-70.063c1.44-10.936-2.36-21.91-10.254-29.614-5.779-5.64-15.001-5.64-20.779 0-7.894 7.704-11.694 18.678-10.254 29.614z" fill="#ffd064"/><path d="m266.313 103.907c3.736.497 7.483 1.24 11.222 2.242s7.355 2.231 10.839 3.67l27.044-65.289c4.221-10.19 3.391-21.774-2.24-31.259-4.122-6.943-13.03-9.33-20.071-5.378-9.619 5.398-16.13 15.015-17.569 25.951z" fill="#ffc250"/><path d="m288.375 109.818c3.481 1.447 6.907 3.135 10.259 5.07s6.527 4.059 9.52 6.35l43.02-56.065c6.715-8.751 8.911-20.155 5.927-30.773-2.185-7.773-10.171-12.384-17.995-10.39-10.688 2.725-19.466 10.329-23.687 20.519z" fill="#ffd064"/><path d="m308.154 121.238c2.988 2.298 5.861 4.816 8.598 7.552 2.737 2.737 5.254 5.61 7.552 8.598l56.065-43.02c8.751-6.715 13.824-17.162 13.689-28.191-.098-8.074-6.619-14.595-14.693-14.693-11.029-.134-21.476 4.939-28.191 13.689z" fill="#ffc250"/><path d="m324.304 137.388c2.291 2.993 4.415 6.168 6.35 9.52s3.623 6.779 5.07 10.259l65.289-27.043c10.19-4.221 17.794-12.999 20.519-23.687 1.995-7.824-2.616-15.811-10.39-17.996-10.619-2.984-22.023-.788-30.773 5.927z" fill="#ffd064"/><path d="m335.724 157.168c1.438 3.484 2.668 7.101 3.67 10.839 1.002 3.739 1.745 7.485 2.242 11.222l70.064-9.224c10.936-1.44 20.553-7.951 25.951-17.569 3.952-7.041 1.565-15.949-5.378-20.071-9.484-5.631-21.068-6.461-31.259-2.24z" fill="#ffc250"/><path d="m341.635 179.229c.487 3.738.739 7.549.739 11.42 0 3.87-.252 7.682-.739 11.42l70.064 9.224c10.936 1.44 21.91-2.36 29.614-10.254 5.64-5.779 5.64-15.001 0-20.779-7.704-7.894-18.678-11.694-29.614-10.254z" fill="#ffd064"/><path d="m341.635 202.068c-.497 3.736-1.24 7.483-2.242 11.222s-2.231 7.355-3.67 10.839l65.289 27.044c10.19 4.221 21.774 3.391 31.259-2.24 6.943-4.122 9.33-13.03 5.378-20.071-5.398-9.619-15.015-16.13-25.951-17.569z" fill="#ffc250"/><path d="m335.724 224.129c-1.447 3.481-3.135 6.907-5.07 10.259s-4.059 6.527-6.35 9.52l56.065 43.02c8.751 6.715 20.155 8.911 30.773 5.927 7.773-2.185 12.384-10.171 10.39-17.996-2.725-10.688-10.329-19.466-20.519-23.687z" fill="#ffd064"/><path d="m324.304 243.909c-2.298 2.988-4.816 5.861-7.552 8.598-2.737 2.737-5.61 5.254-8.598 7.552l43.02 56.065c6.715 8.751 17.162 13.824 28.191 13.689 8.074-.098 14.595-6.619 14.693-14.693.134-11.029-4.939-21.476-13.689-28.191z" fill="#ffc250"/><path d="m308.154 260.059c-2.993 2.291-6.168 4.415-9.52 6.35s-6.779 3.623-10.259 5.07l27.043 65.289c4.221 10.19 12.999 17.794 23.687 20.519 7.824 1.995 15.811-2.616 17.995-10.39 2.984-10.619.788-22.023-5.927-30.773z" fill="#ffd064"/><path d="m288.375 271.479c-3.484 1.438-7.101 2.668-10.839 3.67-3.739 1.002-7.486 1.745-11.222 2.242l9.224 70.064c1.44 10.936 7.951 20.553 17.569 25.951 7.041 3.952 15.949 1.565 20.071-5.378 5.631-9.484 6.461-21.068 2.24-31.259z" fill="#ffc250"/><path d="m266.313 277.39c-3.738.487-7.549.739-11.42.739s-7.682-.252-11.42-.739l-9.224 70.064c-1.44 10.936 2.36 21.91 10.254 29.614 5.779 5.64 15.001 5.64 20.779 0 7.894-7.704 11.694-18.678 10.254-29.614z" fill="#ffd064"/><path d="m243.474 277.39c-3.736-.497-7.483-1.24-11.222-2.242s-7.355-2.231-10.839-3.67l-27.044 65.289c-4.221 10.19-3.391 21.774 2.24 31.259 4.122 6.943 13.03 9.33 20.071 5.378 9.619-5.398 16.13-15.015 17.569-25.951z" fill="#ffc250"/><path d="m221.413 271.479c-3.481-1.447-6.907-3.135-10.259-5.07s-6.527-4.059-9.52-6.35l-43.02 56.065c-6.715 8.751-8.911 20.155-5.927 30.773 2.185 7.773 10.171 12.384 17.996 10.39 10.688-2.725 19.466-10.329 23.687-20.519z" fill="#ffd064"/><path d="m201.633 260.059c-2.988-2.298-5.861-4.816-8.598-7.552-2.737-2.737-5.254-5.61-7.552-8.598l-56.065 43.02c-8.751 6.715-13.824 17.162-13.689 28.191.098 8.074 6.619 14.595 14.693 14.693 11.029.134 21.476-4.939 28.191-13.689z" fill="#ffc250"/><path d="m185.483 243.909c-2.291-2.993-4.415-6.168-6.35-9.52s-3.623-6.779-5.07-10.259l-65.289 27.043c-10.19 4.221-17.794 12.999-20.519 23.687-1.995 7.824 2.616 15.811 10.39 17.996 10.619 2.984 22.023.788 30.773-5.927z" fill="#ffd064"/><path d="m174.064 224.13c-1.438-3.484-2.668-7.101-3.67-10.839-1.002-3.739-1.745-7.486-2.242-11.222l-70.064 9.224c-10.936 1.44-20.553 7.951-25.951 17.569-3.952 7.041-1.565 15.949 5.378 20.071 9.484 5.631 21.068 6.461 31.259 2.24z" fill="#ffc250"/><path d="m168.152 202.068c-.487-3.738-.739-7.549-.739-11.42 0-3.87.252-7.682.739-11.42l-70.063-9.224c-10.936-1.44-21.91 2.36-29.614 10.254-5.64 5.779-5.64 15.001 0 20.779 7.704 7.894 18.678 11.694 29.614 10.254z" fill="#ffd064"/><path d="m168.152 179.229c.497-3.736 1.24-7.483 2.242-11.222s2.231-7.355 3.67-10.839l-65.289-27.044c-10.19-4.221-21.774-3.391-31.259 2.24-6.943 4.122-9.33 13.03-5.378 20.071 5.398 9.619 15.015 16.13 25.951 17.569z" fill="#ffc250"/><path d="m174.064 157.168c1.447-3.481 3.135-6.907 5.07-10.259s4.059-6.527 6.35-9.52l-56.065-43.02c-8.751-6.715-20.155-8.911-30.773-5.927-7.773 2.185-12.384 10.171-10.39 17.996 2.725 10.688 10.329 19.466 20.519 23.687z" fill="#ffd064"/><path d="m185.483 137.388c2.298-2.988 4.816-5.861 7.552-8.598 2.737-2.737 5.61-5.254 8.598-7.552l-43.02-56.065c-6.715-8.751-17.162-13.824-28.191-13.689-8.074.098-14.595 6.619-14.693 14.693-.134 11.029 4.939 21.476 13.689 28.191z" fill="#ffc250"/><path d="m201.633 121.238c2.993-2.291 6.168-4.415 9.52-6.35s6.779-3.623 10.259-5.07l-27.043-65.288c-4.221-10.19-12.999-17.794-23.687-20.519-7.824-1.995-15.811 2.616-17.996 10.39-2.984 10.619-.788 22.023 5.927 30.773z" fill="#ffd064"/><path d="m221.413 109.818c3.484-1.438 7.101-2.668 10.839-3.67 3.739-1.002 7.485-1.745 11.222-2.242l-9.224-70.064c-1.44-10.936-7.951-20.553-17.569-25.951-7.041-3.952-15.949-1.565-20.071 5.378-5.631 9.484-6.461 21.068-2.24 31.259z" fill="#ffc250"/><path d="m216.2 478.955h-46.191c-38.57 0-69.837-31.267-69.837-69.837v-2.1c0-1.476 1.196-2.672 2.672-2.672h43.518c38.57 0 69.837 31.267 69.837 69.837v4.772z" fill="#8bc852"/><path d="m299.046 465.144h55.937c46.708 0 84.572-37.864 84.572-84.572v-2.544c0-1.787-1.449-3.236-3.236-3.236h-52.701c-46.708 0-84.572 37.864-84.572 84.572z" fill="#8bc852"/><g><path d="m249.563 508.141c-1.432 0-2.878-.397-4.172-1.229l-95.421-61.359c-3.589-2.308-4.628-7.088-2.32-10.678 2.309-3.59 7.089-4.627 10.678-2.319l95.421 61.359c3.589 2.308 4.628 7.088 2.32 10.678-1.476 2.295-3.965 3.548-6.506 3.548z" fill="#bcdf95"/></g><g><path d="m260.007 497.979c-2.541 0-5.029-1.252-6.506-3.548-2.308-3.59-1.269-8.37 2.32-10.678l114.189-73.428c3.589-2.307 8.369-1.27 10.678 2.32 2.308 3.59 1.269 8.37-2.32 10.678l-114.189 73.427c-1.293.831-2.741 1.229-4.172 1.229z" fill="#bcdf95"/></g><g><g><circle cx="461.669" cy="51.115" fill="#d09080" r="7.726"/></g></g><g><g><circle cx="487.486" cy="107.399" fill="#d09080" r="7.726"/></g></g><g><g><circle cx="453.269" cy="94.435" fill="#d09080" r="7.726"/></g></g><g><g><circle cx="500.283" cy="263.726" fill="#d09080" r="7.726"/></g></g><g><g><circle cx="445.542" cy="301.179" fill="#d09080" r="7.726"/></g></g><g><g><circle cx="480.068" cy="308.905" fill="#d09080" r="7.726"/></g></g><g><g><circle cx="480.068" cy="354.788" fill="#d09080" r="7.726"/></g></g><g><g><circle cx="11.717" cy="289.619" fill="#d09080" r="7.726"/></g></g><g><g><circle cx="56.545" cy="310.737" fill="#d09080" r="7.726"/></g></g><g><g><circle cx="56.545" cy="356.621" fill="#d09080" r="7.726"/></g></g><g><g><circle cx="25.314" cy="34.961" fill="#d09080" r="7.726"/></g></g><g><g><circle cx="86.27" cy="13.075" fill="#d09080" r="7.726"/></g></g><g><g><circle cx="66.08" cy="57.903" fill="#d09080" r="7.726"/></g></g><g><g><circle cx="25.314" cy="80.844" fill="#d09080" r="7.726"/></g></g><circle cx="254.894" cy="190.649" fill="#d09080" r="89.496"/><path d="m278.285 104.24c20.99 16.378 34.488 41.912 34.488 70.599 0 49.427-40.069 89.496-89.496 89.496-8.093 0-15.935-1.074-23.391-3.088 15.176 11.841 34.268 18.896 55.008 18.896 49.427 0 89.496-40.069 89.496-89.496-.001-41.333-28.022-76.122-66.105-86.407z" fill="#c67d66"/><circle cx="254.894" cy="190.649" fill="#be694f" r="44.417"/></g></svg>