<?xml version="1.0" encoding="iso-8859-1"?>
<!-- Generator: Adobe Illustrator 19.0.0, SVG Export Plug-In . SVG Version: 6.00 Build 0)  -->
<svg version="1.1" id="Capa_1" xmlns="http://www.w3.org/2000/svg" xmlns:xlink="http://www.w3.org/1999/xlink" x="0px" y="0px"
	 viewBox="0 0 397.381 397.381" style="enable-background:new 0 0 397.381 397.381;" xml:space="preserve">
<g>
	<path d="M196.279,0.013c-51.241,0.783-93.372,38.844-102.188,88.945c-9.274,52.698,20.474,100.702,66.321,124.852
		c7.764,4.09,19.114,0.882,21.15-8.606c2.673-12.456,7.746-22.762,14.174-33.733c3.664-6.254-0.871-13.024-6.599-14.624
		c-1.144-1.194-2.582-2.162-4.585-2.518c-70.122-12.487-27.296-110.975,31.051-91.44c56.504,18.915,49.045,104.645-2.576,121.39
		c-7.522,2.44-12.42,8.789-12.711,16.693c-1.104,29.967-2.713,59.944-2.548,89.93c-4.916,5.317-4.181,14.715,4.671,17.683
		c12.283,4.119,28.109,3.588,40.957,3.653c7.703,0.04,14.007-6.497,14.109-14.106c0.355-26.234,2.103-53.105,0.14-79.32
		C343.149,160.904,306.93-1.673,196.279,0.013z"/>
	<path d="M261.027,342.304c-0.728-6.487-5.33-13.497-12.894-12.893c-12.018,0.955-28.01-0.215-38.993,6.154
		c-9.396-4.433-20.278,1.362-20.581,12.165c-0.332,11.854-0.664,23.708-0.995,35.56c-0.212,7.562,6.572,13.957,13.97,13.971
		c9.72,0.019,19.44,0.012,29.159,0.012c8.296,0.005,17.496,1.163,24.488-4.228c6.627-5.108,7.063-12.931,6.97-20.627
		C262.032,362.407,262.142,352.258,261.027,342.304z"/>
</g>
<g>
</g>
<g>
</g>
<g>
</g>
<g>
</g>
<g>
</g>
<g>
</g>
<g>
</g>
<g>
</g>
<g>
</g>
<g>
</g>
<g>
</g>
<g>
</g>
<g>
</g>
<g>
</g>
<g>
</g>
</svg>
