<svg id="Capa_1" enable-background="new 0 0 512 512" height="512" viewBox="0 0 512 512" width="512" xmlns="http://www.w3.org/2000/svg"><path d="m363.255 239.682h-128.549l-13.602-111.991c-1.745-14.365 9.467-27.021 23.938-27.021 26.234 0 50.369 14.343 62.909 37.386z" fill="#7acefa"/><path d="m507.619 265.29c-33.961-56.681-103.115-91.075-196.162-91.075-84.085 0-164.462 41.911-213.261 75.646-17.595-26.085-45.858-44.021-78.252-48.04-14.049-1.743-24.374 12.872-18.036 25.531l15.425 30.808c4.778 9.543 11.728 17.549 20.073 23.551-8.345 6.001-15.295 14.008-20.073 23.551l-15.424 30.808c-6.338 12.659 3.987 27.274 18.036 25.531 32.324-4.01 60.533-21.879 78.136-47.873 53.612 35.793 138.085 71.246 231.313 71.246 84.857 0 146.652-38.839 177.696-87.08 6.348-9.863 6.558-22.542.529-32.604z" fill="#a3defe"/><path d="m223.948 188.023c-50.019 15.142-94.406 40.168-125.752 61.838-17.595-26.085-45.858-44.021-78.252-48.04-14.049-1.743-24.374 12.872-18.036 25.531l15.425 30.808c4.778 9.543 11.728 17.549 20.073 23.551-8.345 6.001-15.295 14.008-20.073 23.551l-15.424 30.808c-6.338 12.659 3.987 27.274 18.036 25.531 32.324-4.01 60.533-21.879 78.136-47.873 41.823 27.922 102.428 55.635 171.317 66.474-51.807-37.838-88.327-88.429-45.45-192.179z" fill="#7acefa"/><path d="m495.868 313.241c-89.91 42.651-285.154-11.72-370.799 16.924 52.946 29.465 125.502 54.81 204.324 54.81 75.636 0 132.929-30.866 166.475-71.734z" fill="#fcf2d0"/><path d="m125.07 330.165c39.169 21.798 89.077 41.328 144.309 50.023-22.104-16.146-41.416-34.62-52.97-58.551-35.773-.951-67.726.631-91.339 8.528z" fill="#f6e3a3"/><path d="m282.349 299.367h-37.197c-29.736 0-56.923 16.792-70.236 43.382l-18.729 37.408c-7.696 15.371 4.84 33.117 21.899 31.001 54.713-6.788 99.758-46.25 113.683-99.595 1.61-6.17-3.045-12.196-9.42-12.196z" fill="#a3defe"/><ellipse cx="330.711" cy="284.346" fill="#fff" rx="27.056" ry="21.546"/><ellipse cx="477.361" cy="284.346" fill="#fff" rx="27.056" ry="21.546"/><g fill="#4e5660"><path d="m346.479 270.352c-4.143 0-7.5-3.358-7.5-7.5v-9.554c0-4.142 3.357-7.5 7.5-7.5s7.5 3.358 7.5 7.5v9.554c0 4.142-3.358 7.5-7.5 7.5z"/><path d="m461.593 270.352c-4.143 0-7.5-3.358-7.5-7.5v-9.554c0-4.142 3.357-7.5 7.5-7.5s7.5 3.358 7.5 7.5v9.554c0 4.142-3.358 7.5-7.5 7.5z"/><path d="m404.035 277.689c-7.982 0-15.574-3.458-20.828-9.485-2.722-3.123-2.396-7.86.727-10.582 3.122-2.721 7.859-2.396 10.582.727 2.404 2.759 5.874 4.341 9.52 4.341s7.116-1.582 9.521-4.341c2.722-3.123 7.46-3.448 10.582-.727 3.122 2.722 3.448 7.459.727 10.582-5.256 6.027-12.847 9.485-20.831 9.485z"/></g><path d="m280.542 287.225c-2.668 0-5.251-1.427-6.607-3.939-2.158-4-3.3-8.529-3.3-13.096s1.142-9.096 3.301-13.097c1.967-3.646 6.517-5.005 10.162-3.038 3.645 1.968 5.005 6.518 3.037 10.163-.995 1.844-1.5 3.853-1.5 5.972 0 2.118.505 4.127 1.501 5.972 1.967 3.646.607 8.195-3.039 10.162-1.132.611-2.353.901-3.555.901z" fill="#8eafe2"/><path d="m251.802 287.225c-2.668 0-5.251-1.427-6.607-3.939-2.159-4.001-3.301-8.53-3.301-13.096 0-4.567 1.142-9.096 3.301-13.097 1.968-3.646 6.519-5.005 10.163-3.038 3.645 1.968 5.005 6.518 3.038 10.163-.996 1.845-1.501 3.854-1.501 5.972 0 2.117.505 4.126 1.501 5.972 1.968 3.646.607 8.195-3.038 10.162-1.133.611-2.354.901-3.556.901z" fill="#8eafe2"/></svg>