<?xml version="1.0" encoding="iso-8859-1"?>
<!-- Generator: Adobe Illustrator 19.0.0, SVG Export Plug-In . SVG Version: 6.00 Build 0)  -->
<svg version="1.1" id="Capa_1" xmlns="http://www.w3.org/2000/svg" xmlns:xlink="http://www.w3.org/1999/xlink" x="0px" y="0px"
	 viewBox="0 0 512 512" style="enable-background:new 0 0 512 512;" xml:space="preserve">
<path style="fill:#E1AF87;" d="M479.48,246.284c-24.316-45.847-81.679-62.035-124.07-52.04l-59.278,210.229l15.164,56.52
	c39.978,37.824,67.921,35.334,67.921,35.334C493.954,527.509,532.457,346.17,479.48,246.284z"/>
<path style="fill:#96776A;" d="M437.489,234.762c-26.503-18.87-61.989-21.252-95.665-10.98l-42.501,220.796
	C479.56,544.624,513.116,288.609,437.489,234.762z"/>
<path style="fill:#4B3F4E;" d="M339.399,236.383l-34.876,181.183c145.783,37.555,169.554-131.311,100.77-168.886
	C386.588,238.462,363.29,234.779,339.399,236.383z"/>
<path style="fill:#EBC9A0;" d="M21.56,6.026c-29.146,21.189,2.087,61.702,2.087,61.702L78.98,15.753
	C78.979,15.753,46.156-11.855,21.56,6.026z"/>
<path style="fill:#F5DCB4;" d="M45.385,29.851c-61.478,53.075-4.189,128.455-4.189,128.455l104.676-115.9
	C145.872,42.405,98.176-15.724,45.385,29.851z"/>
<g>
	<path style="fill:#EBC9A0;" d="M62.394,100.668c-14.71-15.946-24.772-43.28-21.304-66.825
		c-54.326,52.78,0.106,124.463,0.106,124.463l36.243-40.129L62.394,100.668z"/>
	<path style="fill:#EBC9A0;" d="M138.815,40.553c-8.631,2.161-16.739,6.038-24.21,10.869l-6.744,4.36
		c-9.61,6.214-18.656,13.311-26.564,21.584c-0.052,0.055-0.104,0.109-0.156,0.163c-92.404,96.875-12.642,201.84-12.642,201.84
		L228.239,78.79C228.239,78.79,194.636,26.578,138.815,40.553z"/>
</g>
<path style="fill:#E1AF87;" d="M92.596,185.311c-32.432-21.942-33.986-58.932-30.202-84.644
	c-61.4,89.721,6.105,178.702,6.105,178.702l64.301-80.74L92.596,185.311z"/>
<path style="fill:#F5DCB4;" d="M331.173,455.569c-25.27-49.598-5.888-129.248,18.723-195.843
	c44.267-119.781-59.325-202.41-137.515-182.344c-7.498,1.924-14.578,5.215-21.359,8.949c-24.806,13.661-47.632,30.927-66.231,52.283
	c-53.598,61.543-85.977,158.438-24.275,256.369C181.742,523.9,301.718,526.135,379.218,496.328
	C379.218,496.328,348.862,490.288,331.173,455.569z"/>
<path style="fill:#EBC9A0;" d="M331.173,455.569c-4.283-8.405-7.19-17.729-9.1-27.651
	c-139.435-15.12-216.364-146.185-229.477-242.607c-31.208,58.654-39.855,133.845,7.919,209.67
	C181.742,523.9,301.718,526.135,379.218,496.328C379.218,496.328,348.862,490.288,331.173,455.569z"/>
<g>
</g>
<g>
</g>
<g>
</g>
<g>
</g>
<g>
</g>
<g>
</g>
<g>
</g>
<g>
</g>
<g>
</g>
<g>
</g>
<g>
</g>
<g>
</g>
<g>
</g>
<g>
</g>
<g>
</g>
</svg>
