<svg height="469.33367pt" viewBox="0 0 469.33367 469.33367" width="469.33367pt" xmlns="http://www.w3.org/2000/svg"><path d="m0 384s10.667969-32 42.667969-64 117.332031-53.332031 149.332031-85.332031l42.667969 42.664062s-42.667969 64-106.667969 64-106.667969 21.335938-128 42.667969zm0 0" fill="#c82e25"/><path d="m35.292969 360-9.148438-19.269531c29-13.761719 63.273438-20.730469 101.855469-20.730469 40.761719 0 72.511719-33.84375 84.269531-48.394531l16.585938 13.414062c-13.679688 16.929688-50.898438 56.3125-100.855469 56.3125-35.40625 0-66.59375 6.28125-92.707031 18.667969zm0 0" fill="#c11107"/><path d="m213.332031 170.667969-42.664062 42.664062c-21.335938 21.335938-64 21.335938-64 21.335938-42.667969 0-106.667969 21.332031-106.667969 64 0 0 21.332031-21.335938 85.332031-21.335938s106.667969 0 128-21.332031l42.667969-42.667969zm0 0" fill="#c82e25"/><path d="m23.925781 285.988281-6.894531-20.1875c19.019531-6.5 42-9.800781 68.300781-9.800781 56.792969 0 97.835938 0 112.917969-15.082031l35.125-35.125 15.082031 15.082031-35.125 35.125c-21.332031 21.332031-63.769531 21.332031-128 21.332031-23.945312 0-44.601562 2.917969-61.40625 8.65625zm0 0" fill="#c11107"/><path d="m298.667969 256-42.667969 42.667969c-21.332031 21.332031-21.332031 64-21.332031 64 0 42.664062-21.335938 106.664062-64 106.664062 0 0 21.332031-21.332031 21.332031-85.332031s0-106.667969 21.332031-128l42.667969-42.667969zm0 0" fill="#c82e25"/><path d="m200.667969 456.699219-14.460938-15.6875c15.46875-14.242188 27.125-47.917969 27.125-78.34375 0-5.273438.773438-52.273438 27.585938-79.085938l35.125-35.125 15.082031 15.085938-35.125 35.125c-21.09375 21.09375-21.332031 63.570312-21.332031 64 0 31.164062-11.679688 73.476562-34 94.03125zm0 0" fill="#c11107"/><path d="m213.332031 234.667969c-42.664062 0-85.332031 21.332031-85.332031 85.332031s-42.667969 64-42.667969 64c-42.664062 0-85.332031 21.332031-85.332031 85.332031 0 0 21.332031-42.664062 64-42.664062s128 0 128-85.335938c0-64 64-64 64-64zm0 0" fill="#cd3e36"/><path d="m23.9375 440.917969-13.105469-16.835938c16-12.445312 33.886719-18.75 53.167969-18.75 67.550781 0 106.667969-10.46875 106.667969-64 0-58.007812 41.925781-76.382812 59.945312-81.59375l5.917969 20.5c-16.625 4.804688-44.53125 19.125-44.53125 61.09375 0 85.335938-83.269531 85.335938-128 85.335938-14.417969 0-27.90625 4.789062-40.0625 14.25zm0 0" fill="#c82e25"/><path d="m341.332031 0s-21.332031 0-21.332031 21.332031v106.667969l21.332031 21.332031h106.667969c21.332031 0 21.332031-21.332031 21.332031-21.332031v-128zm0 0" fill="#c82e25"/><path d="m448 149.332031h-21.332031v-21.332031h21.332031v-117.332031h21.332031v117.332031c-.332031 13.074219-8.707031 21.332031-21.332031 21.332031zm0 0" fill="#c11107"/><path d="m170.667969 192c0 58.910156 47.753906 106.667969 106.664062 106.667969 170.667969-170.667969 192-298.667969 192-298.667969s-128 21.332031-298.664062 192zm0 0" fill="#d2514a"/><path d="m210.988281 230.667969-16.65625-13.335938c3.542969-4.414062 87.773438-108.894531 194.84375-173.144531l10.980469 18.292969c-103.71875 62.226562-188.324219 167.132812-189.167969 168.1875zm0 0" fill="#d96c66"/><path d="m284.644531 152.261719-14.644531-15.5c18.28125-17.28125 36.75-33.335938 54.886719-47.710938l13.25 16.730469c-17.65625 13.980469-35.65625 29.625-53.492188 46.480469zm0 0" fill="#e59b96"/><path d="m277.25 298.769531-4.730469-.207031c-26.597656-1.183594-51.78125-12.3125-70.570312-31.175781l15.082031-15.085938c13.902344 13.964844 32.226562 22.664063 51.832031 24.617188 123.949219-126.0625 163.949219-227.292969 175.4375-265.1875l20.417969 6.1875c-12.050781 39.769531-54.125 146.425781-184.144531 277.5zm0 0" fill="#cd3e36"/><path d="m224 213.332031v-21.332031c17.664062-.019531 31.980469-14.335938 32-32h21.332031c-.035156 29.441406-23.890625 53.300781-53.332031 53.332031zm0 0" fill="#cd3e36"/><path d="m256 160c0 17.671875-14.328125 32-32 32s-32-14.328125-32-32 14.328125-32 32-32 32 14.328125 32 32zm0 0" fill="#2b1718"/><path d="m256 160c0 5.890625-4.777344 10.667969-10.667969 10.667969s-10.664062-4.777344-10.664062-10.667969 4.773437-10.667969 10.664062-10.667969 10.667969 4.777344 10.667969 10.667969zm0 0" fill="#afa8a8"/><path d="m341.332031 245.332031c0 17.675781-14.324219 32-32 32-17.671875 0-32-14.324219-32-32 0-17.671875 14.328125-32 32-32 17.675781 0 32 14.328125 32 32zm0 0" fill="#2b1718"/><path d="m341.332031 245.332031c0 5.894531-4.773437 10.667969-10.664062 10.667969s-10.667969-4.773438-10.667969-10.667969c0-5.890625 4.777344-10.664062 10.667969-10.664062s10.664062 4.773437 10.664062 10.664062zm0 0" fill="#afa8a8"/></svg>