<svg id="Capa_1" enable-background="new 0 0 511.548 511.548" height="512" viewBox="0 0 511.548 511.548" width="512" xmlns="http://www.w3.org/2000/svg"><g fill="#fd5426"><circle cx="215.281" cy="63.435" r="19.185"/><circle cx="197.153" cy="124.991" r="19.185"/><circle cx="296.267" cy="63.435" r="19.185"/><circle cx="314.395" cy="124.991" r="19.185"/><circle cx="38.238" cy="242.747" r="19.185"/><circle cx="91.172" cy="279.019" r="19.185"/><circle cx="63.28" cy="165.729" r="19.185"/><circle cx="127.425" cy="167.524" r="19.185"/><circle cx="473.31" cy="242.747" r="19.185"/><circle cx="420.376" cy="279.019" r="19.185"/><circle cx="448.268" cy="165.729" r="19.185"/><circle cx="384.123" cy="167.524" r="19.185"/><circle cx="177.874" cy="474.871" r="19.185"/><circle cx="224.09" cy="430.353" r="19.185"/><circle cx="107.501" cy="434.79" r="19.185"/><circle cx="122.214" cy="372.33" r="19.185"/><circle cx="333.674" cy="474.871" r="19.185"/><circle cx="287.458" cy="430.353" r="19.185"/><circle cx="404.047" cy="434.79" r="19.185"/><circle cx="389.334" cy="372.33" r="19.185"/></g><path d="m234.468 63.44c0 10.59-8.59 19.18-19.19 19.18-3.74 0-7.24-1.08-10.2-2.94v-.01l8.95-35.38c.41-.03.83-.04 1.25-.04 10.6 0 19.19 8.59 19.19 19.19z" fill="#ef4424"/><path d="m216.338 124.99c0 10.6-8.59 19.19-19.18 19.19-2.84 0-5.53-.62-7.95-1.73l9.25-36.59c9.98.66 17.88 8.98 17.88 19.13z" fill="#ef4424"/><path d="m306.468 79.68c-2.95 1.86-6.45 2.94-10.2 2.94-10.6 0-19.19-8.59-19.19-19.18 0-10.6 8.59-19.19 19.19-19.19.42 0 .84.01 1.26.04z" fill="#ef4424"/><path d="m322.338 142.45c-2.42 1.11-5.11 1.73-7.94 1.73-10.6 0-19.19-8.59-19.19-19.19 0-10.15 7.89-18.46 17.88-19.13z" fill="#ef4424"/><path d="m56.488 248.68c-.99 3.04-2.67 5.67-4.8 7.76l-31.26-20.82c3.71-9.31 14.08-14.26 23.74-11.12 10.08 3.28 15.59 14.1 12.32 24.18z" fill="#ef4424"/><path d="m109.418 284.95c-.89 2.75-2.35 5.15-4.19 7.14l-31.52-20.99c3.97-8.8 14.01-13.38 23.4-10.33 10.07 3.28 15.59 14.11 12.31 24.18z" fill="#ef4424"/><path d="m81.528 171.66c-3.28 10.08-14.1 15.59-24.18 12.31-10.08-3.27-15.59-14.1-12.31-24.17.19-.58.4-1.15.64-1.7l36.3 3.36c.76 3.27.66 6.78-.45 10.2z" fill="#ef4424"/><path d="m146.618 167.43c.01 1.99-.3 4.03-.95 6.03-3.27 10.07-14.1 15.59-24.18 12.31-9.3-3.03-14.71-12.49-12.91-21.85z" fill="#ef4424"/><path d="m491.118 235.62-31.26 20.82c-2.13-2.09-3.8-4.72-4.79-7.76-3.28-10.08 2.23-20.9 12.31-24.18 9.67-3.14 20.03 1.81 23.74 11.12z" fill="#ef4424"/><path d="m437.838 271.1-31.52 20.99c-1.84-1.99-3.3-4.39-4.19-7.14-3.27-10.07 2.24-20.9 12.32-24.18 9.39-3.05 19.43 1.53 23.39 10.33z" fill="#ef4424"/><path d="m454.198 183.97c-10.07 3.28-20.9-2.23-24.18-12.31-1.11-3.42-1.21-6.93-.45-10.2l36.3-3.36c.24.55.45 1.12.64 1.7 3.28 10.07-2.23 20.9-12.31 24.17z" fill="#ef4424"/><path d="m390.058 185.77c-10.08 3.28-20.9-2.24-24.18-12.31-.65-2-.96-4.03-.95-6.03l38.04-3.51c1.81 9.36-3.61 18.82-12.91 21.85z" fill="#ef4424"/><path d="m194.088 464.62-26.22 26.61c-8.82-5.37-11.81-16.82-6.66-25.85 5.24-9.21 16.95-12.42 26.16-7.18 2.83 1.61 5.1 3.84 6.72 6.42z" fill="#ef4424"/><path d="m240.108 419.78c-2.68 1.49-5.17 3.37-7.39 5.63l-20.05 20.35c-7.71-5.69-10.1-16.37-5.25-24.9 5.25-9.21 16.96-12.42 26.17-7.18 2.72 1.55 4.91 3.66 6.52 6.1z" fill="#ef4424"/><path d="m124.168 444.29c-5.24 9.2-16.95 12.41-26.16 7.17-.29-.16-.57-.34-.85-.52l10.26-35.34c3.25-.01 6.55.8 9.58 2.52 9.21 5.24 12.42 16.96 7.17 26.17z" fill="#ef4424"/><path d="m138.888 381.83c-4.85 8.51-15.23 11.89-24.05 8.22l10.63-36.63c2.14.36 4.25 1.1 6.24 2.24 9.21 5.24 12.42 16.96 7.18 26.17z" fill="#ef4424"/><path d="m343.678 491.23-26.22-26.62c1.62-2.58 3.89-4.8 6.72-6.41 9.21-5.24 20.92-2.03 26.17 7.18 5.14 9.03 2.15 20.48-6.67 25.85z" fill="#ef4424"/><path d="m298.878 445.76-20.04-20.35c-2.22-2.26-4.71-4.14-7.4-5.63 1.61-2.44 3.8-4.55 6.52-6.1 9.21-5.24 20.93-2.03 26.17 7.18 4.85 8.53 2.46 19.21-5.25 24.9z" fill="#ef4424"/><path d="m414.398 450.93c-.28.19-.57.36-.86.53-9.2 5.24-20.92 2.03-26.16-7.17-5.25-9.21-2.03-20.93 7.17-26.17 3.03-1.72 6.33-2.53 9.59-2.52z" fill="#ef4424"/><path d="m396.718 390.04c-8.82 3.68-19.2.3-24.06-8.21-5.24-9.21-2.03-20.93 7.18-26.17 1.99-1.14 4.1-1.88 6.24-2.24z" fill="#ef4424"/><path d="m502.422 188.131c-4.298-12.159-16.305-19.845-29.146-18.659l-115.116 10.633c-21.757 2.01-41.738-12.12-47.095-33.302l-27.843-110.111c-2.991-11.826-13.042-20.779-25.204-21.734-13.817-1.085-26.207 7.95-29.55 21.172l-27.986 110.673c-5.357 21.183-25.338 35.312-47.094 33.302l-115.117-10.633c-12.841-1.186-24.848 6.5-29.146 18.659s.21 25.683 10.944 32.831l103.923 69.203c16.124 10.737 23.418 30.694 18.017 49.298l-35.181 121.189c-3.595 12.385 1.68 25.629 12.805 32.151 11.125 6.522 25.258 4.655 34.309-4.532l70.224-71.286c17.379-17.642 45.835-17.642 63.214 0l70.224 71.286c9.05 9.187 23.183 11.054 34.309 4.532 11.125-6.522 16.4-19.766 12.805-32.151l-35.181-121.189c-5.401-18.604 1.893-38.561 18.017-49.298l103.923-69.203c10.735-7.148 15.243-20.673 10.945-32.831z" fill="#fe7d43"/><path d="m491.482 220.959-103.932 69.201c-16.124 10.74-23.411 30.697-18.016 49.304l35.181 121.187c.761 2.602 1.121 5.245 1.121 7.857 0 9.799-5.144 19.147-13.922 24.291-11.13 6.526-25.262 4.654-34.31-4.534l-3.393-3.443c2.192-.631 4.334-1.551 6.376-2.743 8.788-5.144 13.922-14.493 13.922-24.301 0-2.602-.37-5.245-1.121-7.847l-35.181-121.187c-5.405-18.606 1.892-38.564 18.016-49.304l103.922-69.201c10.739-7.146 15.243-20.668 10.95-32.829-.951-2.692-2.292-5.174-3.924-7.376l6.105-.561c12.841-1.191 24.852 6.496 29.146 18.656 4.294 12.162-.21 25.684-10.94 32.83z" fill="#fd6930"/><circle cx="255.774" cy="255.77" fill="#fd5426" r="43.538"/><circle cx="255.774" cy="167.63" fill="#fea613" r="19.185"/><circle cx="169.277" cy="247.053" fill="#fea613" r="19.185"/><circle cx="342.271" cy="247.053" fill="#fea613" r="19.185"/><circle cx="209.262" cy="334.937" fill="#fea613" r="19.185"/><circle cx="302.286" cy="334.937" fill="#fea613" r="19.185"/><path d="m509.5 185.628c-5.218-14.758-19.358-24.281-34.832-23.755-.217-1.477-.545-2.948-1.016-4.398-4.552-13.997-19.643-21.681-33.638-17.13-6.78 2.205-12.296 6.917-15.531 13.271-2.096 4.115-3.065 8.6-2.894 13.092l-10.79.997c.018-2.826-.393-5.667-1.292-8.433-4.552-13.997-19.643-21.681-33.637-17.13-6.78 2.204-12.297 6.917-15.532 13.271-2.733 5.366-3.554 11.359-2.418 17.178l-.45.042c-16.056 1.482-30.724-7.389-37.043-21.644 11.821-2.743 20.659-13.353 20.659-25.996 0-14.718-11.974-26.692-26.692-26.692-2.631 0-5.166.402-7.568 1.116l-2.651-10.484c10.87-3.378 18.784-13.53 18.784-25.496 0-14.718-11.974-26.692-26.692-26.692-1.766 0-3.489.182-5.16.512l-.608-2.403c-3.839-15.178-16.656-26.18-31.894-27.377-17.401-1.361-33.14 9.912-37.416 26.816l-.748 2.957c-1.67-.33-3.396-.504-5.162-.504-14.718 0-26.692 11.974-26.692 26.692 0 11.966 7.917 22.112 18.786 25.49l-2.651 10.485c-2.402-.714-4.938-1.111-7.569-1.111-14.718 0-26.693 11.974-26.693 26.692 0 12.643 8.839 23.253 20.659 25.996-6.32 14.255-20.991 23.129-37.043 21.644l-.45-.042c1.136-5.819.315-11.812-2.418-17.178-3.235-6.353-8.752-11.066-15.531-13.271-14.001-4.554-29.087 3.133-33.638 17.13-.899 2.766-1.319 5.607-1.3 8.433l-10.785-.996c.174-4.491-.794-8.976-2.89-13.092-3.235-6.353-8.751-11.066-15.531-13.271-14.002-4.551-29.088 3.134-33.638 17.13-.471 1.449-.807 2.919-1.025 4.397-15.479-.528-29.606 9.001-34.823 23.756-5.45 15.419.25 32.518 13.861 41.581l.426.284c-1.477 2.124-2.657 4.471-3.48 7.001-4.551 13.997 3.134 29.086 17.13 33.637 2.716.883 5.506 1.321 8.282 1.321 4.153 0 8.277-.981 12.085-2.92 4.322-2.201 7.858-5.478 10.387-9.471l9.033 6.015c-1.713 2.301-3.069 4.882-3.983 7.689-2.204 6.781-1.636 14.013 1.599 20.367 3.235 6.353 8.751 11.066 15.531 13.271 2.716.883 5.506 1.322 8.282 1.322 4.153 0 8.277-.981 12.085-2.92 4.582-2.333 8.304-5.858 10.854-10.183l5.693 3.791c3.45 2.297 8.112 1.364 10.408-2.088 2.298-3.45 1.364-8.111-2.087-10.409l-103.922-69.205c-7.883-5.249-11.184-15.151-8.028-24.08 3.157-8.928 11.931-14.552 21.378-13.686l115.116 10.633c1.645.152 3.276.226 4.898.226 23.607-.001 44.267-15.839 50.165-39.163l27.986-110.672c2.476-9.79 11.589-16.325 21.684-15.529 8.815.692 16.255 7.159 18.514 16.091l27.844 110.11c6.303 24.926 29.461 41.307 55.062 38.937l115.116-10.633c9.432-.874 18.221 4.757 21.378 13.685 3.156 8.93-.145 18.832-8.028 24.081l-103.924 69.203c-18.945 12.617-27.411 35.78-21.065 57.639l35.181 121.189c2.641 9.095-1.222 18.792-9.392 23.582-8.172 4.789-18.519 3.422-25.165-3.324l-70.224-71.286c-9.827-9.976-22.951-15.47-36.954-15.47-14.004 0-27.128 5.494-36.955 15.47l-70.224 71.286c-6.646 6.746-16.993 8.115-25.165 3.324-8.17-4.789-12.033-14.486-9.392-23.582l35.181-121.189c2.237-7.71 2.654-15.952 1.204-23.833-.75-4.078-4.671-6.771-8.74-6.025-4.078.75-6.776 4.663-6.025 8.741 1.029 5.598.733 11.453-.858 16.932l-2.926 10.079c-12.122-4.716-26.23.04-32.854 11.672-7.285 12.789-2.806 29.119 9.982 36.404 2.573 1.466 5.29 2.452 8.046 2.993l-3.018 10.397c-11.338-2.857-23.663 2.024-29.723 12.666-7.285 12.789-2.806 29.119 9.982 36.404 1.59.905 3.235 1.617 4.909 2.163-3.68 15.234 3.005 31.139 16.638 39.131 14.012 8.214 31.727 5.938 43.211-5.506 1.64 1.636 3.508 3.092 5.615 4.293 4.158 2.368 8.691 3.493 13.165 3.493 9.287 0 18.323-4.846 23.238-13.477 3.529-6.195 4.434-13.394 2.548-20.269-1.276-4.655-3.732-8.781-7.104-12.058l7.598-7.713c1.891 2.141 4.153 4.015 6.771 5.506 4.159 2.369 8.69 3.493 13.165 3.493 9.286 0 18.324-4.846 23.239-13.476 5.704-10.017 4.192-22.206-2.876-30.52 3.623-1.169 7.444-1.784 11.366-1.784s7.743.615 11.366 1.784c-7.068 8.314-8.58 20.502-2.875 30.52 4.916 8.631 13.951 13.476 23.238 13.476 4.474 0 9.007-1.125 13.165-3.493 2.618-1.491 4.878-3.367 6.768-5.509l7.609 7.724c-1.508 1.468-2.845 3.107-3.965 4.888-2.206 3.51-1.149 8.144 2.36 10.351 3.51 2.205 8.144 1.15 10.35-2.361.509-.809 1.105-1.54 1.783-2.19l16.391 16.638c-.739.743-1.576 1.398-2.512 1.93-2.772 1.578-5.987 1.957-9.052 1.063-3.981-1.164-8.147 1.127-9.307 5.106-1.16 3.98 1.125 8.147 5.106 9.307 2.485.725 5.012 1.083 7.523 1.083 4.564 0 9.072-1.186 13.16-3.513 2.108-1.2 3.982-2.652 5.622-4.288 6.869 6.842 15.963 10.409 25.165 10.409 6.181 0 12.411-1.607 18.04-4.907 13.633-7.992 20.317-23.897 16.637-39.13 1.675-.547 3.321-1.259 4.91-2.164 12.789-7.284 17.267-23.615 9.982-36.404-6.061-10.642-18.385-15.52-29.723-12.662l-3.02-10.401c2.757-.541 5.474-1.528 8.047-2.993 12.789-7.284 17.267-23.615 9.984-36.404-6.625-11.632-20.735-16.387-32.856-11.671l-2.926-10.08c-4.509-15.533 1.506-31.992 14.969-40.957l5.697-3.794c2.549 4.325 6.268 7.853 10.849 10.186 3.808 1.939 7.932 2.92 12.085 2.92 2.776 0 5.565-.438 8.282-1.322 6.781-2.205 12.296-6.917 15.531-13.271 3.235-6.353 3.803-13.586 1.599-20.367-.913-2.807-2.264-5.392-3.976-7.693l9.012-6.001c2.53 3.993 6.08 7.259 10.402 9.461 3.808 1.939 7.932 2.92 12.085 2.92 2.776 0 5.566-.438 8.282-1.321 13.997-4.551 21.681-19.64 17.13-33.637-.823-2.53-2.006-4.874-3.483-6.998l.429-.286c13.616-9.064 19.316-26.162 13.866-41.582zm-429.433 89.781c.483-1.488 1.244-2.837 2.232-3.99l19.294 12.848c-1.108 2.213-2.874 4.016-5.121 5.16-2.781 1.416-5.945 1.663-8.91.699-6.125-1.992-9.487-8.594-7.495-14.717zm-52.934-36.273c.393-1.209.977-2.32 1.708-3.315l19.409 12.925c-1.115 1.869-2.725 3.397-4.712 4.408-2.781 1.417-5.945 1.664-8.911.7-6.124-1.992-9.486-8.594-7.494-14.718zm24.751-75.945c.08-.358.174-.716.29-1.073.964-2.967 3.026-5.38 5.806-6.796 1.667-.849 3.471-1.278 5.288-1.278 1.215 0 2.435.192 3.623.578 4.789 1.557 7.875 5.935 8.047 10.698zm86.647 7.944c-.006.02-.017.037-.023.057l-22.626-2.09c-.237-1.692-.127-3.457.437-5.189 1.602-4.928 6.191-8.068 11.114-8.068 1.195 0 2.407.185 3.604.573 2.966.965 5.379 3.027 6.795 5.806 1.415 2.78 1.664 5.944.699 8.911zm56.81-34.621c-5.58-.876-9.866-5.702-9.866-11.523 0-6.439 5.239-11.678 11.679-11.678 1.363 0 2.668.241 3.883.673zm15.728-62.199c-4.362-1.695-7.467-5.927-7.467-10.88 0-6.44 5.239-11.679 11.678-11.679.498 0 .985.042 1.467.103zm89.41 0-5.679-22.46c.481-.062.97-.099 1.468-.099 6.439 0 11.678 5.239 11.678 11.679 0 4.953-3.105 9.186-7.467 10.88zm15.729 62.199-5.696-22.524c1.217-.431 2.52-.678 3.882-.678 6.44 0 11.679 5.239 11.679 11.678 0 5.822-4.286 10.648-9.865 11.524zm79.472 32.587-22.641 2.091c-.007-.02-.015-.038-.022-.057-.965-2.967-.717-6.131.699-8.911 1.417-2.78 3.83-4.842 6.796-5.806 1.195-.389 2.408-.573 3.603-.573 4.922 0 9.512 3.14 11.114 8.069.563 1.73.685 3.496.451 5.187zm40.93-3.781c.172-4.762 3.258-9.14 8.047-10.698 1.188-.387 2.408-.578 3.623-.578 1.817 0 3.621.429 5.288 1.278 2.78 1.415 4.842 3.829 5.806 6.796.116.356.209.714.29 1.073zm-320.176 217.158c-5.596-3.187-7.554-10.332-4.367-15.928 3.122-5.483 10.041-7.461 15.582-4.543l-6.375 21.959c-1.654-.13-3.305-.614-4.84-1.488zm-13.081 63.221c-.554-.211-1.101-.458-1.632-.761-5.596-3.187-7.554-10.332-4.368-15.928 2.561-4.495 7.674-6.635 12.487-5.656zm84.669 34.952c-3.186 5.596-10.332 7.555-15.927 4.369-.945-.538-1.782-1.192-2.512-1.93l16.381-16.629c1.505 1.442 2.608 3.26 3.173 5.322.825 3.007.429 6.157-1.115 8.868zm46.216-44.518c-3.188 5.595-10.333 7.555-15.928 4.368-1.462-.833-2.668-1.94-3.607-3.215l14.811-15.035c.461-.468.934-.921 1.416-1.361 4.769 3.443 6.284 10.018 3.308 15.243zm59 4.368c-5.598 3.186-12.742 1.227-15.927-4.368-2.977-5.225-1.462-11.8 3.307-15.242.481.44.954.893 1.416 1.361l14.813 15.037c-.938 1.275-2.148 2.38-3.609 3.212zm120.957-11.491c3.186 5.595 1.228 12.741-4.368 15.928-.531.302-1.076.558-1.631.769l-6.489-22.352c4.814-.982 9.927 1.16 12.488 5.655zm-14.713-62.46c3.186 5.595 1.228 12.741-4.368 15.928-1.535.874-3.186 1.36-4.84 1.491l-6.375-21.961c5.539-2.92 12.459-.941 15.583 4.542zm24.504-76.424c-2.966.963-6.131.716-8.91-.699-2.247-1.144-4.012-2.947-5.121-5.16l19.279-12.838c.992 1.151 1.763 2.491 2.247 3.98 1.992 6.123-1.37 12.725-7.495 14.717zm52.935-36.273c-2.968.964-6.13.717-8.911-.7-1.987-1.011-3.597-2.539-4.712-4.408l19.405-12.922c.733.994 1.32 2.102 1.713 3.312 1.991 6.125-1.371 12.727-7.495 14.718z"/><path d="m204.729 255.77c0 28.146 22.899 51.045 51.045 51.045s51.045-22.899 51.045-51.045c0-13.168-5-25.669-14.079-35.202-2.858-3.002-7.61-3.117-10.613-.258-3.002 2.859-3.118 7.611-.258 10.613 6.408 6.728 9.937 15.551 9.937 24.847 0 19.868-16.164 36.032-36.032 36.032s-36.032-16.164-36.032-36.032 16.164-36.032 36.032-36.032c4.146 0 7.507-3.361 7.507-7.507s-3.361-7.507-7.507-7.507c-28.146.001-51.045 22.899-51.045 51.046z"/><path d="m282.466 167.63c0-14.718-11.973-26.692-26.691-26.692s-26.692 11.974-26.692 26.692 11.973 26.692 26.692 26.692c14.717-.001 26.691-11.975 26.691-26.692zm-38.37 0c0-6.44 5.239-11.679 11.678-11.679s11.678 5.239 11.678 11.679c0 6.439-5.239 11.678-11.678 11.678s-11.678-5.239-11.678-11.678z"/><path d="m169.277 220.36c-14.718 0-26.691 11.974-26.691 26.692s11.973 26.692 26.691 26.692 26.693-11.974 26.693-26.692c-.001-14.718-11.975-26.692-26.693-26.692zm0 38.371c-6.439 0-11.678-5.239-11.678-11.679s5.239-11.679 11.678-11.679c6.44 0 11.679 5.239 11.679 11.679s-5.239 11.679-11.679 11.679z"/><path d="m342.271 273.745c14.718 0 26.692-11.974 26.692-26.692s-11.973-26.692-26.692-26.692c-14.718 0-26.692 11.974-26.692 26.692s11.974 26.692 26.692 26.692zm0-38.371c6.439 0 11.678 5.239 11.678 11.679s-5.239 11.679-11.678 11.679c-6.44 0-11.679-5.239-11.679-11.679s5.239-11.679 11.679-11.679z"/><path d="m182.571 334.937c0 14.718 11.973 26.692 26.691 26.692s26.692-11.974 26.692-26.692-11.974-26.692-26.692-26.692-26.691 11.974-26.691 26.692zm26.691-11.679c6.439 0 11.678 5.239 11.678 11.679s-5.239 11.679-11.678 11.679-11.678-5.239-11.678-11.679 5.239-11.679 11.678-11.679z"/><path d="m275.594 334.937c0 14.718 11.973 26.692 26.692 26.692 14.718 0 26.691-11.974 26.691-26.692s-11.973-26.692-26.691-26.692-26.692 11.974-26.692 26.692zm38.37 0c0 6.44-5.239 11.679-11.678 11.679s-11.678-5.239-11.678-11.679 5.239-11.679 11.678-11.679 11.678 5.239 11.678 11.679z"/><circle cx="255.774" cy="120.093" r="8.898"/><circle cx="255.774" cy="86.62" r="8.898"/><circle cx="255.774" cy="53.148" r="8.898"/><circle cx="360.303" cy="442.788" r="8.898"/><circle cx="344.014" cy="413.546" r="8.898"/><circle cx="327.725" cy="384.305" r="8.898"/><circle cx="151.245" cy="442.788" r="8.898"/><circle cx="167.534" cy="413.546" r="8.898"/><circle cx="183.823" cy="384.305" r="8.898"/><circle cx="388.801" cy="227.749" r="8.898"/><circle cx="420.253" cy="216.295" r="8.898"/><circle cx="451.704" cy="204.84" r="8.898"/><circle cx="122.747" cy="227.749" r="8.898"/><circle cx="91.295" cy="216.295" r="8.898"/><circle cx="59.844" cy="204.84" r="8.898"/></svg>