<svg height="512pt" viewBox="0 -118 512 512" width="512pt" xmlns="http://www.w3.org/2000/svg"><path d="m276.984375 271.207031 25.285156-25.285156c28.25-28.25 36.0625-71.039063 19.617188-107.449219-4.574219-10.125-17.859375-12.546875-25.714844-4.695312l-44.785156 44.785156c-19.21875 19.21875-24.53125 48.328125-13.34375 73.097656l6.121093 13.554688c5.839844 12.921875 22.796876 16.015625 32.820313 5.992187zm0 0" fill="#6fce91"/><path d="m321.789062 195.683594h-233.191406c-29.726562 0-56.441406-18.144532-67.402344-45.777344l-8.757812-22.085938h385.511719l-8.761719 22.085938c-10.957031 27.632812-37.671875 45.777344-67.398438 45.777344zm0 0" fill="#fcf2d0"/><path d="m161.355469 152.667969h15v43.015625h-15zm0 0" fill="#f6e3a3"/><path d="m228.917969 271.207031 25.285156-25.285156c28.25-28.25 36.0625-71.039063 19.613281-107.449219-4.570312-10.125-17.855468-12.546875-25.710937-4.695312l-44.785157 44.785156c-19.21875 19.21875-24.53125 48.328125-13.34375 73.097656l6.121094 13.554688c5.835938 12.921875 22.792969 16.015625 32.820313 5.992187zm0 0" fill="#8ee2cf"/><path d="m273.816406 138.472656c-4.570312-10.125-17.855468-12.546875-25.710937-4.695312l-44.785157 44.785156c-.890624.890625-1.738281 1.808594-2.566406 2.738281h81.519532c.5-14.433593-2.246094-29.085937-8.457032-42.828125zm0 0" fill="#6fce91"/><path d="m79.328125 271.207031 25.28125-25.285156c28.253906-28.25 36.0625-71.039063 19.617187-107.449219-4.574218-10.125-17.859374-12.546875-25.710937-4.695312l-44.785156 44.785156c-19.21875 19.21875-24.535157 48.328125-13.34375 73.097656l6.121093 13.554688c5.835938 12.921875 22.792969 16.015625 32.820313 5.992187zm0 0" fill="#8ee2cf"/><path d="m124.226562 138.472656c-4.574218-10.125-17.855468-12.546875-25.710937-4.695312l-44.785156 44.785156c-.890625.890625-1.738281 1.808594-2.570313 2.738281h81.523438c.496094-14.433593-2.25-29.085937-8.457032-42.828125zm0 0" fill="#6fce91"/><path d="m205.191406 0c-64.289062 0-124.53125 31.375-161.386718 84.054688l-30.621094 43.765624h384.019531l-30.621094-43.765624c-36.855469-52.679688-97.097656-84.054688-161.390625-84.054688zm0 0" fill="#6fce91"/><path d="m91.265625 120.074219c1.304687.90625 2.796875 1.339843 4.273437 1.339843 2.375 0 4.707032-1.125 6.164063-3.222656l49.242187-70.917968c13.433594 5.667968 29.4375 9.21875 46.746094 10.015624v45.6875c0 4.140626 3.359375 7.5 7.5 7.5 4.144532 0 7.5-3.359374 7.5-7.5v-45.6875c17.3125-.796874 33.316406-4.347656 46.75-10.015624l49.238282 70.917968c1.457031 2.097656 3.792968 3.222656 6.167968 3.222656 1.476563 0 2.96875-.433593 4.269532-1.339843 3.402343-2.363281 4.246093-7.035157 1.886718-10.4375l-48.109375-69.289063c8.789063-5.484375 15.769531-12.089844 20.382813-19.53125-4.523438-2.261718-9.128906-4.359375-13.8125-6.265625-11.523438 16.339844-41.304688 27.921875-74.273438 27.921875s-62.75-11.582031-74.269531-27.921875c-4.6875 1.90625-9.292969 4.003907-13.816406 6.265625 4.613281 7.441406 11.59375 14.046875 20.386719 19.53125l-48.109376 69.289063c-2.363281 3.402343-1.519531 8.074219 1.882813 10.4375zm0 0" fill="#3cb767"/><path d="m385.539062 152.667969h-360.691406c-13.722656 0-24.847656-11.125-24.847656-24.847657 0-13.722656 11.125-24.84375 24.847656-24.84375h360.691406c13.722657 0 24.847657 11.121094 24.847657 24.84375 0 13.722657-11.125 24.847657-24.847657 24.847657zm0 0" fill="#e1b89a"/><path d="m140.726562 102.976562h-115.878906c-13.722656 0-24.847656 11.121094-24.847656 24.84375 0 13.722657 11.125 24.847657 24.847656 24.847657h125.199219c-10.347656-12.582031-16.847656-33.773438-9.320313-49.691407zm0 0" fill="#d2996f"/><path d="m445.203125 181.300781h-76.652344c-33.015625 0-59.78125-26.765625-59.78125-59.78125 0-49.980469 40.515625-90.496093 90.496094-90.496093h29.253906c46.105469 0 83.480469 37.375 83.480469 83.480468 0 36.890625-29.90625 66.796875-66.796875 66.796875zm0 0" fill="#8ee2cf"/><path d="m375.507812 126.664062c0-10.71875-10.910156-19.402343-24.363281-19.402343-13.457031 0-24.367187 8.683593-24.367187 19.402343 0 10.714844 10.910156 19.402344 24.367187 19.402344 13.453125 0 24.363281-8.6875 24.363281-19.402344zm0 0" fill="#fff"/><path d="m507.574219 126.664062c0-10.71875-10.90625-19.402343-24.363281-19.402343-13.457032 0-24.367188 8.683593-24.367188 19.402343 0 10.714844 10.910156 19.402344 24.367188 19.402344 13.457031 0 24.363281-8.6875 24.363281-19.402344zm0 0" fill="#fff"/><path d="m365.34375 114.808594c-4.144531 0-7.5-3.359375-7.5-7.5v-8.605469c0-4.140625 3.355469-7.5 7.5-7.5 4.140625 0 7.5 3.359375 7.5 7.5v8.605469c0 4.140625-3.359375 7.5-7.5 7.5zm0 0" fill="#4e5660"/><path d="m469.011719 114.808594c-4.144531 0-7.5-3.359375-7.5-7.5v-8.605469c0-4.140625 3.355469-7.5 7.5-7.5 4.140625 0 7.5 3.359375 7.5 7.5v8.605469c0 4.140625-3.359375 7.5-7.5 7.5zm0 0" fill="#4e5660"/><path d="m417.175781 121.414062c-7.402343 0-14.445312-3.207031-19.320312-8.796874-2.71875-3.125-2.394531-7.859376.730469-10.582032 3.121093-2.722656 7.859374-2.394531 10.578124.726563 2.023438 2.320312 4.945313 3.652343 8.011719 3.652343 3.066407 0 5.988281-1.332031 8.011719-3.652343 2.71875-3.121094 7.460938-3.449219 10.582031-.726563 3.121094 2.722656 3.449219 7.457032.726563 10.582032-4.871094 5.589843-11.914063 8.796874-19.320313 8.796874zm0 0" fill="#4e5660"/><g fill="#6fce91"><path d="m229.953125 243.113281c0 4.183594-3.390625 7.570313-7.570313 7.570313-4.179687 0-7.570312-3.386719-7.570312-7.570313 0-4.179687 3.390625-7.566406 7.570312-7.566406 4.179688 0 7.570313 3.386719 7.570313 7.566406zm0 0"/><path d="m251.566406 216.941406c0 4.179688-3.390625 7.570313-7.570312 7.570313-4.183594 0-7.570313-3.390625-7.570313-7.570313 0-4.183594 3.386719-7.570312 7.570313-7.570312 4.179687 0 7.570312 3.386718 7.570312 7.570312zm0 0"/><path d="m70.515625 210.707031c0 4.179688-3.390625 7.570313-7.570313 7.570313-4.183593 0-7.570312-3.390625-7.570312-7.570313 0-4.183593 3.386719-7.570312 7.570312-7.570312 4.179688 0 7.570313 3.386719 7.570313 7.570312zm0 0"/></g></svg>