<?xml version="1.0" encoding="iso-8859-1"?>
<!-- Generator: Adobe Illustrator 19.0.0, SVG Export Plug-In . SVG Version: 6.00 Build 0)  -->
<svg version="1.1" id="Layer_1" xmlns="http://www.w3.org/2000/svg" xmlns:xlink="http://www.w3.org/1999/xlink" x="0px" y="0px"
	 viewBox="0 0 284.559 284.559" style="enable-background:new 0 0 284.559 284.559;" xml:space="preserve">
<path id="XMLID_90_" d="M4.394,237.739l42.427,42.427c2.812,2.813,6.629,4.394,10.606,4.394c3.978,0,7.794-1.581,10.606-4.394
	l74.246-74.246l74.246,74.246c2.813,2.813,6.629,4.394,10.606,4.394c3.978,0,7.794-1.581,10.607-4.394l42.427-42.427
	c5.858-5.858,5.858-15.355,0-21.213L205.92,142.28l74.245-74.247c2.814-2.813,4.394-6.628,4.394-10.606
	c0-3.979-1.58-7.794-4.394-10.607L237.739,4.393c-5.857-5.858-15.356-5.858-21.213,0.001L142.28,78.639L68.033,4.394
	c-5.857-5.858-15.356-5.858-21.213,0L4.394,46.82C1.58,49.633,0,53.448,0,57.426c0,3.978,1.58,7.793,4.394,10.606l74.245,74.247
	L4.394,216.526C-1.465,222.384-1.465,231.881,4.394,237.739z"/>
<g>
</g>
<g>
</g>
<g>
</g>
<g>
</g>
<g>
</g>
<g>
</g>
<g>
</g>
<g>
</g>
<g>
</g>
<g>
</g>
<g>
</g>
<g>
</g>
<g>
</g>
<g>
</g>
<g>
</g>
</svg>
