<svg id="Layer_1" enable-background="new 0 0 512.002 512.002" height="512" viewBox="0 0 512.002 512.002" width="512" xmlns="http://www.w3.org/2000/svg"><g><path d="m504.002 136.069h-6.06c-21.447 0-41.748 7.456-57.943 21.143-15.855-13.369-36.324-21.143-57.938-21.143h-6.06c-4.418 0-8 3.582-8 8 0 32.755 15.757 60.09 39.824 76.286-2.271 27.522-26.261 49.167-55.098 47.174-30.14-2.14-59.285-12.107-84.468-28.896l-26.02-17.35c-36.514-24.345-79.011-37.214-122.898-37.214-36.838 0-60.12 8.286-85.126 15.787-20.145 6.036-34.214 24.941-34.214 45.973 0 24.527-.019 23.749.053 26.659 1.354 52.873 30.027 101.733 76.329 128.549 50.842 29.428 108.298 45.642 167.115 47.063.777.018 65.077-7.298 66.141-7.587 95.604-25.972 162.362-112.906 162.362-212.48v-7.556c23.896-15.98 40-43.258 40-76.407.001-4.419-3.581-8.001-7.999-8.001z" fill="#edebfd"/><path d="m512.002 144.069c0 33.023-15.994 60.357-40 76.41 0 27.88-2.112 51.773-12.94 81.95-20.37 56.77-62.24 100.692-113.22 124.74-17.637 8.326-35.399 13.371-37.39 13.57-68.596 7.854-64.026 7.36-64.76 7.36-20.542 0-52.864-3.906-82.61-11.89-29.63-7.96-58.13-19.79-84.7-35.17-16.46-9.53-31-22.09-42.83-36.88 26.293 21.061 71.117 39.342 103.53 48.05 29.948 8.038 62.275 11.89 82.61 11.89.735 0-3.734.482 64.76-7.36 2.21-.22 19.902-5.315 37.39-13.57 50.976-24.047 92.849-67.966 113.22-124.74 10.666-29.728 12.94-53.447 12.94-81.95 20.57-13.75 34.55-35.56 38.71-59.71 6.456-.82 10.694-.7 17.29-.7 4.42 0 8 3.58 8 8z" fill="#d2d2fc"/><path d="m81.54 96.203c-24.163 0-34.826 30.745-15.717 45.667 6.243 4.874 14.227 6.567 21.91 4.646 3.589-.897 7.439.17 10.052 2.784l16.56 16.56c5.011 5.01 13.657 1.46 13.657-5.657v-17.538c0-25.62-20.843-46.462-46.462-46.462z" fill="#c8effd"/><path d="m128.002 142.669v17.53c0 7.112-8.628 10.691-13.66 5.66l-2.34-2.34v-12.99c0-27.942-24.737-48.676-48.99-46.34 4.65-4.92 11.24-7.99 18.53-7.99 25.62 0 46.46 20.85 46.46 46.47z" fill="#a0e1fd"/><path d="m190.464 96.203c-25.619 0-46.462 20.843-46.462 46.462v17.538c0 7.167 8.669 10.642 13.657 5.657l16.559-16.559c2.615-2.614 6.466-3.681 10.053-2.784 7.683 1.92 15.67.227 21.909-4.646 19.119-14.929 8.432-45.668-15.716-45.668z" fill="#c8effd"/><path d="m216.002 121.739c0 16.665-15.658 28.798-31.73 24.78-3.59-.9-7.44.17-10.05 2.78l-16.56 16.56c-5.027 5.027-13.66 1.457-13.66-5.66v-4.81l14.22-14.22c2.61-2.62 6.46-3.68 10.05-2.79 16.113 4.028 31.73-8.138 31.73-24.77 0-6.64-2.55-12.7-6.73-17.25 12.76 1.4 22.73 12.25 22.73 25.38z" fill="#a0e1fd"/><path d="m160.271 74.383c16.11 4.026 31.731-8.143 31.731-24.775 0-14.082-11.456-25.538-25.538-25.538-25.619 0-46.462 20.843-46.462 46.462v17.538c0 7.105 8.622 10.69 13.657 5.657l16.56-16.559c2.613-2.614 6.468-3.681 10.052-2.785z" fill="#c8effd"/><path d="m192.002 49.609c0 16.609-15.593 28.804-31.73 24.77-3.59-.89-7.44.17-10.05 2.79l-16.56 16.56c-5.012 5.012-13.66 1.471-13.66-5.66v-4.68l14.22-14.22c2.61-2.62 6.46-3.68 10.05-2.79 16.113 4.028 31.73-8.138 31.73-24.77 0-6.72-2.6-12.83-6.87-17.4 12.83 1.34 22.87 12.22 22.87 25.4z" fill="#a0e1fd"/><path d="m512.002 144.069c0 33.023-15.994 60.357-40 76.41 0 27.88-2.112 51.773-12.94 81.95-1.633 4.492-5.297 13.85-7.29 17.83-9.091 19.705-17.671 31.066-21.34 36.57-.698.956-.53.723-8.25 7.33-29.584 25.367-68.371 38.997-108.73 36.68 3.198 25.299 2.84 53.974-1.56 80.41-.687 4.134-4.5 7.204-9.02 6.61-1.4-.2-34.5-5.31-65.21-42.63-11.204-13.448-20.396-29.719-27.21-45.76-51.585-4.255-102.417-34.342-130.78-83.97l-5.27-9.23c-9.24-16.17-26.53-26.2-45.15-26.2-.298 0-20.815.079-21.17.08-4.459 0-7.922-3.536-8.03-7.8-.068-2.879-.05-1.255-.05-26.52 0-21.03 14.07-39.94 34.21-45.97l21.47-6.44c61.388-18.428 129.936-9.879 186.56 27.86l26.02 17.35c26.002 17.348 55.391 26.845 84.47 28.9 28.346 2.059 52.792-19.281 55.09-47.17-23.95-16.122-39.82-43.396-39.82-76.29 0-4.42 3.58-8 8-8h6.06c21.725 0 42.154 7.843 57.94 21.14 13.959-11.802 30.974-19.048 49.96-20.79 4.876-.443 8.742-.35 14.04-.35 4.42 0 8 3.58 8 8z" fill="#9da0df"/><path d="m512.002 144.069c0 33.023-15.994 60.357-40 76.41 0 27.831-2.102 51.743-12.94 81.95-6.96 19.38-16.57 37.65-28.57 54.31-.616.924-.656.869-8.31 7.42-26.8 22.98-60.75 36-95.98 36.89 74.499-37.209 121.8-113.385 121.8-197.02v-7.55c20.57-13.75 34.55-35.56 38.71-59.71 6.456-.82 10.694-.7 17.29-.7 4.42 0 8 3.58 8 8z" fill="#8286c6"/><path d="m314.112 406.629c2.432 23.9 1.889 49.935-2.22 74.62-.687 4.134-4.5 7.204-9.02 6.61-17.21-2.459-45.514-17.839-65.48-42.95-5.28-6.44-10.19-13.49-14.69-21.1l61.75-7.07c2.096-.209 16.541-4.507 29.66-10.11z" fill="#8286c6"/><circle cx="136.002" cy="256.069" fill="#595965" r="24"/><path d="m160.002 256.069c0 16.598-16.562 28.178-32 22.62 9.31-3.29 16-12.19 16-22.62s-6.69-19.33-16-22.62c15.428-5.554 32 6.013 32 22.62z" fill="#44454e"/></g></svg>